<svg width="22" height="22" viewBox="0 0 22 22" fill="none" xmlns="http://www.w3.org/2000/svg">
<path d="M11 10.45C17.0758 10.45 22 8.39614 22 5.86528C22 3.33442 17.0758 1.28052 11 1.28052C4.92422 1.28052 0 3.33442 0 5.86528C0 8.39614 4.92422 10.45 11 10.45ZM11 17.7805C6.80195 17.7805 3.08945 16.7708 0.747656 15.211C0.270703 15.7266 0 16.2809 0 16.8653C0 19.3961 4.92422 21.45 11 21.45C17.0758 21.45 22 19.3961 22 16.8653C22 16.2809 21.7293 15.7266 21.2523 15.2153C18.9105 16.7708 15.198 17.7805 11 17.7805ZM11 12.2805C6.80195 12.2805 3.08945 11.2708 0.747656 9.71099C0.270703 10.2266 0 10.7809 0 11.3653C0 13.8961 4.92422 15.95 11 15.95C17.0758 15.95 22 13.8961 22 11.3653C22 10.7809 21.7293 10.2266 21.2523 9.71528C18.9105 11.2708 15.198 12.2805 11 12.2805Z" fill="#2D69F7"/>
</svg>
