<svg width="18" height="18" viewBox="0 0 18 18" fill="none" xmlns="http://www.w3.org/2000/svg">
<g opacity="0.5" clip-path="url(#clip0_5_151)">
<path d="M14.625 11.25C13.9575 11.25 13.305 11.4479 12.75 11.8188C12.1949 12.1896 11.7624 12.7167 11.5069 13.3334C11.2515 13.9501 11.1846 14.6287 11.3149 15.2834C11.4451 15.9381 11.7665 16.5395 12.2385 17.0115C12.7105 17.4835 13.3119 17.8049 13.9666 17.9352C14.6213 18.0654 15.2999 17.9985 15.9166 17.7431C16.5333 17.4876 17.0604 17.0551 17.4312 16.5001C17.8021 15.945 18 15.2925 18 14.625C17.999 13.7302 17.6431 12.8723 17.0104 12.2396C16.3777 11.6069 15.5198 11.251 14.625 11.25ZM14.625 15.75C14.4025 15.75 14.185 15.684 14 15.5604C13.815 15.4368 13.6708 15.2611 13.5856 15.0555C13.5005 14.85 13.4782 14.6238 13.5216 14.4055C13.565 14.1873 13.6722 13.9868 13.8295 13.8295C13.9868 13.6722 14.1873 13.565 14.4055 13.5216C14.6238 13.4782 14.85 13.5005 15.0555 13.5856C15.2611 13.6708 15.4368 13.815 15.5604 14C15.684 14.185 15.75 14.4025 15.75 14.625C15.7494 14.9232 15.6307 15.209 15.4199 15.4199C15.209 15.6307 14.9232 15.7494 14.625 15.75Z" fill="#2D69F7"/>
<path d="M4.82888 6.4197C4.93323 6.52464 5.05726 6.60795 5.19386 6.66487C5.33046 6.72178 5.47696 6.75119 5.62494 6.75139C5.77293 6.7516 5.9195 6.7226 6.05626 6.66607C6.19302 6.60953 6.31728 6.52656 6.42192 6.42192C6.52656 6.31728 6.60953 6.19302 6.66607 6.05626C6.7226 5.9195 6.7516 5.77293 6.75139 5.62494C6.75119 5.47696 6.72178 5.33046 6.66487 5.19386C6.60795 5.05726 6.52464 4.93323 6.4197 4.82888L4.96512 3.37429L6.4197 1.91971C6.52464 1.81536 6.60795 1.69133 6.66487 1.55472C6.72178 1.41812 6.75119 1.27163 6.75139 1.12364C6.7516 0.975659 6.7226 0.829087 6.66607 0.692327C6.60953 0.555567 6.52656 0.431306 6.42192 0.326664C6.31728 0.222023 6.19302 0.139057 6.05626 0.0825201C5.9195 0.0259836 5.77293 -0.00301242 5.62494 -0.00280653C5.47696 -0.00260064 5.33046 0.0268031 5.19386 0.08372C5.05726 0.140637 4.93323 0.223948 4.82888 0.328881L3.37429 1.78347L1.91971 0.328881C1.70855 0.118894 1.42274 0.00120574 1.12494 0.00162006C0.827145 0.00203438 0.541665 0.120517 0.331091 0.331091C0.120517 0.541665 0.00203438 0.827145 0.00162006 1.12494C0.00120574 1.42274 0.118894 1.70855 0.328881 1.91971L1.78347 3.37429L0.328881 4.82888C0.223948 4.93323 0.140637 5.05726 0.08372 5.19386C0.0268031 5.33046 -0.00260064 5.47696 -0.00280653 5.62494C-0.00301242 5.77293 0.0259836 5.9195 0.0825201 6.05626C0.139057 6.19302 0.222023 6.31728 0.326664 6.42192C0.431306 6.52656 0.555567 6.60953 0.692327 6.66607C0.829087 6.7226 0.975659 6.7516 1.12364 6.75139C1.27163 6.75119 1.41812 6.72178 1.55472 6.66487C1.69133 6.60795 1.81536 6.52464 1.91971 6.4197L3.37429 4.96512L4.82888 6.4197Z" fill="#2D69F7"/>
<path d="M15.7133 3.80415L16.0796 4.17041C16.2907 4.3804 16.5766 4.49809 16.8744 4.49767C17.1722 4.49726 17.4576 4.37877 17.6682 4.1682C17.8788 3.95763 17.9973 3.67215 17.9977 3.37435C17.9981 3.07655 17.8804 2.79074 17.6704 2.57959L15.4204 0.329585C15.316 0.225097 15.192 0.14221 15.0555 0.0856586C14.919 0.0291072 14.7727 0 14.625 0C14.4773 0 14.331 0.0291072 14.1945 0.0856586C14.058 0.14221 13.934 0.225097 13.8296 0.329585L11.5796 2.57959C11.3696 2.79074 11.2519 3.07655 11.2523 3.37435C11.2527 3.67215 11.3712 3.95763 11.5818 4.1682C11.7924 4.37877 12.0779 4.49726 12.3756 4.49767C12.6734 4.49809 12.9593 4.3804 13.1704 4.17041L13.4654 3.87542C13.2896 6.80809 11.6281 7.33479 9.15161 8.06396C6.07764 8.96923 2.25 10.0942 2.25 16.875C2.25 17.1734 2.36853 17.4595 2.5795 17.6705C2.79048 17.8815 3.07663 18 3.375 18C3.67337 18 3.95952 17.8815 4.1705 17.6705C4.38147 17.4595 4.5 17.1734 4.5 16.875C4.5 11.7773 6.83349 11.0918 9.78662 10.2217C12.3605 9.46376 15.5176 8.49202 15.7133 3.80415Z" fill="#2D69F7"/>
</g>
<defs>
<clipPath id="clip0_5_151">
<rect width="18" height="18" fill="white"/>
</clipPath>
</defs>
</svg>
