<svg width="24" height="24" viewBox="0 0 24 24" fill="none" xmlns="http://www.w3.org/2000/svg">
<g filter="url(#filter0_d_93_15)">
<path d="M19.1698 6.21591C17.9221 5.64321 16.6053 5.23485 15.2524 5.00105C15.2401 4.9987 15.2273 5.00031 15.216 5.00565C15.2046 5.01098 15.1953 5.01977 15.1892 5.03075C15.0096 5.35635 14.8465 5.69081 14.7006 6.03285C13.2424 5.81139 11.7591 5.81139 10.3009 6.03285C10.1543 5.68996 9.98892 5.35542 9.80548 5.03075C9.79918 5.02 9.78978 5.0114 9.77851 5.0061C9.76724 5.0008 9.75462 4.99904 9.74233 5.00105C8.38985 5.23447 7.07349 5.64285 5.82639 6.21591C5.81564 6.22042 5.80658 6.22817 5.80045 6.23808C3.30572 9.96572 2.62236 13.6016 2.95765 17.1917C2.95861 17.2005 2.96133 17.2091 2.96566 17.2168C2.96999 17.2246 2.97583 17.2314 2.98284 17.2368C4.43556 18.3129 6.06057 19.1344 7.78849 19.6662C7.80069 19.6698 7.8137 19.6696 7.82579 19.6657C7.83789 19.6617 7.84848 19.6541 7.85615 19.644C8.22717 19.1389 8.55592 18.6041 8.83908 18.045C8.84295 18.0373 8.84514 18.0289 8.84553 18.0203C8.84591 18.0117 8.84448 18.0032 8.84132 17.9952C8.83816 17.9872 8.83335 17.98 8.8272 17.974C8.82105 17.968 8.8137 17.9633 8.80563 17.9604C8.28713 17.7623 7.78514 17.5235 7.30436 17.2462C7.29563 17.2411 7.2883 17.2339 7.28302 17.2252C7.27774 17.2166 7.27466 17.2068 7.27407 17.1967C7.27348 17.1866 7.27538 17.1765 7.27961 17.1673C7.28384 17.1581 7.29028 17.1501 7.29834 17.144C7.39908 17.0688 7.50019 16.9899 7.59642 16.9102C7.60496 16.9032 7.61529 16.8987 7.62625 16.8972C7.63721 16.8957 7.64835 16.8974 7.65844 16.9019C10.808 18.34 14.218 18.34 17.3303 16.9019C17.3404 16.897 17.3517 16.8952 17.3629 16.8965C17.3741 16.8978 17.3847 16.9023 17.3934 16.9094C17.4896 16.9887 17.5908 17.0684 17.6941 17.144C17.7022 17.15 17.7087 17.158 17.713 17.1672C17.7173 17.1763 17.7193 17.1864 17.7187 17.1965C17.7182 17.2066 17.7152 17.2164 17.71 17.2251C17.7048 17.2338 17.6975 17.241 17.6889 17.2462C17.2087 17.5262 16.7057 17.7651 16.1853 17.9604C16.1772 17.9634 16.1698 17.9682 16.1637 17.9743C16.1576 17.9804 16.1528 17.9878 16.1497 17.9959C16.1466 18.004 16.1453 18.0126 16.1458 18.0213C16.1463 18.03 16.1486 18.0384 16.1526 18.0461C16.4405 18.6021 16.7688 19.1363 17.1348 19.6443C17.1422 19.6548 17.1528 19.6627 17.1649 19.6668C17.1771 19.6709 17.1902 19.6711 17.2025 19.6673C18.9327 19.1371 20.5599 18.3155 22.0138 17.2379C22.0209 17.2328 22.0268 17.2261 22.0312 17.2185C22.0355 17.2108 22.0382 17.2023 22.0389 17.1936C22.4404 13.0423 21.3669 9.4361 19.1935 6.23959C19.1887 6.22915 19.1803 6.22076 19.1698 6.21591ZM9.30894 15.0059C8.36058 15.0059 7.57988 14.1354 7.57988 13.0664C7.57988 11.9974 8.34592 11.1268 9.30894 11.1268C10.2798 11.1268 11.0538 12.0049 11.038 13.0664C11.0387 14.1354 10.2723 15.0059 9.30894 15.0059ZM15.7038 15.0059C14.7555 15.0059 13.9748 14.1354 13.9748 13.0664C13.9748 11.9974 14.7408 11.1268 15.7038 11.1268C16.6747 11.1268 17.4487 12.0049 17.4329 13.0664C17.4333 14.1354 16.6747 15.0059 15.7038 15.0059Z" fill="white"/>
</g>
<defs>
<filter id="filter0_d_93_15" x="1.87811" y="5" width="21.2437" height="16.6699" filterUnits="userSpaceOnUse" color-interpolation-filters="sRGB">
<feFlood flood-opacity="0" result="BackgroundImageFix"/>
<feColorMatrix in="SourceAlpha" type="matrix" values="0 0 0 0 0 0 0 0 0 0 0 0 0 0 0 0 0 0 127 0" result="hardAlpha"/>
<feOffset dy="1"/>
<feGaussianBlur stdDeviation="0.5"/>
<feComposite in2="hardAlpha" operator="out"/>
<feColorMatrix type="matrix" values="0 0 0 0 0 0 0 0 0 0.0989634 0 0 0 0 0.258333 0 0 0 0.4 0"/>
<feBlend mode="normal" in2="BackgroundImageFix" result="effect1_dropShadow_93_15"/>
<feBlend mode="normal" in="SourceGraphic" in2="effect1_dropShadow_93_15" result="shape"/>
</filter>
</defs>
</svg>
