<svg width="99" height="99" viewBox="0 0 99 99" fill="none" xmlns="http://www.w3.org/2000/svg">
<path opacity="0.4" d="M50.1603 98.1309C76.1102 98.1309 97.1467 77.0944 97.1467 51.1445C97.1467 25.1947 76.1102 4.1582 50.1603 4.1582C24.2105 4.1582 3.17401 25.1947 3.17401 51.1445C3.17401 77.0944 24.2105 98.1309 50.1603 98.1309Z" fill="#111521"/>
<path d="M69.037 48.574L46.6538 70.1742C44.4707 72.2799 41.0792 72.4094 38.7473 70.5996C38.5211 70.4275 38.3045 70.2341 38.0995 70.0214L2.42086 33.0473C0.110218 30.6515 0.177894 26.8037 2.57362 24.493L24.9569 2.89287C27.3526 0.582228 31.2005 0.651837 33.5111 3.04563L36.893 6.5493L69.1898 40.0198C71.5004 42.4136 71.4328 46.2634 69.037 48.574Z" fill="#FCF0C0"/>
<path opacity="0.15" d="M69.037 48.574L46.6538 70.1742C44.4707 72.2799 41.0792 72.4094 38.7473 70.5996C38.5211 70.4275 38.3045 70.2341 38.0995 70.0214L2.42086 33.0473C0.110218 30.6515 0.177894 26.8037 2.57362 24.493L24.9569 2.89287C27.3526 0.582228 31.2005 0.651837 33.5111 3.04563L36.893 6.5493L69.1898 40.0198C71.5004 42.4136 71.4328 46.2634 69.037 48.574Z" fill="black"/>
<path d="M29.1576 4.43879C29.8937 4.43879 30.6289 4.72554 31.1792 5.29576L66.8581 42.2705C67.9333 43.3848 67.9016 45.1667 66.7873 46.2419L44.4027 67.8421C43.8585 68.3673 43.1553 68.6283 42.4528 68.6283C41.7167 68.6283 40.9815 68.3415 40.4312 67.7713L4.75238 30.7964C3.67711 29.6821 3.70882 27.9002 4.82315 26.825L27.2078 5.22499C27.7521 4.70002 28.4553 4.43879 29.1576 4.43879ZM29.1576 3.79065C28.257 3.79065 27.4046 4.13444 26.7576 4.75861L4.3732 26.3586C3.70959 26.9988 3.33505 27.8604 3.31862 28.7845C3.30218 29.7085 3.64578 30.5829 4.28599 31.2465L39.9649 68.2213C40.6215 68.9017 41.505 69.2764 42.4528 69.2764C43.3535 69.2764 44.2058 68.9326 44.8528 68.3085L67.2374 46.7085C68.6091 45.385 68.6482 43.1923 67.3246 41.8206L31.6458 4.84581C30.9891 4.16538 30.1055 3.79065 29.1576 3.79065Z" fill="black"/>
<path d="M8.28874 30.3172L8.95177 31.5398L8.07083 32.3898L5.59351 27.5241L6.70842 26.4482L11.4993 29.0814L10.5851 29.9635L9.36459 29.2788L8.28874 30.3172ZM8.62867 28.7618L7.62533 28.1904C7.34322 28.0319 7.00735 27.8176 6.73645 27.6486L6.72524 27.6594C6.88457 27.9361 7.10326 28.2743 7.25176 28.5508L7.798 29.5633L8.62867 28.7618Z" fill="black"/>
<path d="M63.1262 43.1562L62.4854 41.9121L63.3996 41.03L65.8603 45.9118L64.7454 46.9876L59.9712 44.3384L60.8521 43.4884L62.0504 44.1945L63.1262 43.1562ZM62.7861 44.7116L63.7784 45.2936C64.0495 45.4518 64.3798 45.6824 64.6505 45.8516L64.6617 45.8408C64.5024 45.5641 64.3003 45.2207 64.152 44.9332L63.6168 43.9099L62.7861 44.7116Z" fill="black"/>
<path d="M31.9706 37.1823C31.6954 37.1836 31.4267 37.1376 31.161 37.0721C30.6283 36.9406 30.1449 36.7057 29.717 36.3626C29.4625 36.1586 29.2286 35.9315 29.0373 35.6648C28.6369 35.1064 28.4099 34.4888 28.4064 33.7962C28.4047 33.4321 28.4706 33.0794 28.5868 32.735C28.7065 32.3804 28.8761 32.0501 29.082 31.739C29.3295 31.3647 29.6137 31.0195 29.9345 30.7051C30.1138 30.5296 30.3129 30.3793 30.5161 30.2333C30.7718 30.0498 31.0417 29.8911 31.3244 29.7538C31.6657 29.5881 32.0213 29.4632 32.3948 29.3932C32.7991 29.3174 33.2037 29.3118 33.6082 29.3932C34.0129 29.4746 34.3829 29.6372 34.7254 29.8648C34.8901 29.9744 35.0471 30.0943 35.1898 30.232C35.2233 30.2643 35.2593 30.2939 35.2954 30.3231C35.4275 30.4294 35.5414 30.553 35.6454 30.6866C36.0306 31.1806 36.245 31.7444 36.3299 32.3611C36.3554 32.5457 36.368 32.7312 36.368 32.9176C36.368 32.9402 36.3608 32.9626 36.3572 32.9848C36.363 32.9698 36.3668 32.9696 36.3684 32.9839C36.3639 32.9823 36.3595 32.9806 36.355 32.979C36.3805 32.9645 36.4043 32.9479 36.4146 32.9187C36.4241 32.8913 36.4324 32.8634 36.4416 32.836C36.5418 32.5415 36.6955 32.2777 36.891 32.036C37.0749 31.8088 37.287 31.6133 37.5152 31.4318C37.869 31.1503 38.2581 30.937 38.6875 30.7974C39.146 30.6485 39.6156 30.5901 40.0967 30.6297C40.6045 30.6715 41.0728 30.8306 41.5009 31.106C41.6523 31.2032 41.8012 31.3046 41.9273 31.4355C41.9636 31.4732 42.005 31.5049 42.0554 31.5221C42.3625 31.8402 42.6694 32.1584 42.9764 32.4765C42.9791 32.5134 42.9998 32.5417 43.0226 32.5684C43.2862 32.8787 43.4614 33.2378 43.5979 33.6173C43.7268 33.9762 43.791 34.3471 43.7916 34.7289C43.792 35.1172 43.7236 35.4931 43.5894 35.8562C43.4329 36.2801 43.2003 36.6595 42.913 37.0081C42.7309 37.2291 42.528 37.4284 42.3159 37.6187C42.0819 37.8287 41.8313 38.0166 41.5572 38.1736C41.2354 38.3577 40.8924 38.478 40.5285 38.542C40.2354 38.5934 39.9393 38.6089 39.6423 38.6095C39.5843 38.6097 39.5261 38.6116 39.4681 38.6137C39.4418 38.6147 39.4294 38.6395 39.4416 38.6628C39.5006 38.7773 39.5775 38.8802 39.6582 38.979C39.787 39.137 39.931 39.2802 40.0894 39.4098C40.4906 39.7377 40.9446 39.9684 41.4282 40.1449C42.038 40.3677 42.669 40.4978 43.3142 40.5616C43.3546 40.5657 43.3949 40.5709 43.4347 40.5785C43.4407 40.5796 43.4476 40.5974 43.4467 40.6065C43.4455 40.6169 43.4376 40.628 43.4297 40.6361C43.3931 40.6734 43.3558 40.7101 43.3183 40.7467C42.8846 41.1684 42.4509 41.5899 42.0174 42.012C41.7298 42.292 41.4429 42.5726 41.1556 42.8527C40.7557 43.2426 40.3558 43.6322 39.9556 44.0216C39.914 44.062 39.8711 44.1011 39.8299 44.1396C39.8162 44.1324 39.7993 44.1287 39.7982 44.122C39.7902 44.0823 39.7835 44.0423 39.781 44.0021C39.763 43.7233 39.7326 43.4458 39.686 43.1702C39.6081 42.7101 39.4894 42.2615 39.3053 41.8312C39.1904 41.563 39.0532 41.3074 38.884 41.07C38.69 40.7981 38.4636 40.5576 38.1807 40.3752C38.1175 40.3344 38.05 40.2998 37.9833 40.2646C37.9634 40.2542 37.9394 40.2511 37.917 40.2453C37.9019 40.2414 37.8758 40.2565 37.8768 40.2689C37.8942 40.5228 37.8338 40.766 37.7712 41.0079C37.713 41.233 37.6422 41.4546 37.5801 41.6787C37.5127 41.9225 37.3957 42.1422 37.2599 42.3531C37.0513 42.6774 36.8077 42.9726 36.5258 43.236C35.9608 43.7639 35.3062 44.1249 34.5446 44.2751C33.5749 44.4663 32.6723 44.2894 31.8389 43.759C31.5779 43.5927 31.3395 43.3986 31.1266 43.1733C31.0227 43.0635 30.9164 42.9556 30.8147 42.8439C30.5989 42.607 30.4019 42.3552 30.2302 42.0845C30.1022 41.8827 29.9947 41.6702 29.914 41.4447C29.8075 41.1462 29.7547 40.8379 29.7516 40.5212C29.7462 39.9916 29.8334 39.4792 30.0328 38.9871C30.2056 38.5604 30.4593 38.1899 30.7928 37.872C31.097 37.5822 31.4449 37.3687 31.8478 37.2469C31.8927 37.2333 31.9377 37.2212 31.9636 37.1773C31.9679 37.1916 31.9663 37.1937 31.9586 37.1833C31.9629 37.1833 31.9667 37.1829 31.9706 37.1823Z" fill="black"/>
<path d="M11.8054 34.285C11.7188 34.2854 11.6341 34.2709 11.5504 34.2502C11.3825 34.2088 11.2303 34.1348 11.0956 34.0269C11.0153 33.9627 10.9417 33.8912 10.8815 33.8072C10.7555 33.6315 10.6839 33.437 10.6828 33.2188C10.6822 33.1042 10.7031 32.9932 10.7396 32.8847C10.7773 32.773 10.8307 32.6691 10.8954 32.5711C10.9734 32.4531 11.0629 32.3445 11.164 32.2455C11.2205 32.1902 11.2831 32.1428 11.3471 32.097C11.4276 32.0392 11.5126 31.9893 11.6016 31.946C11.7091 31.8938 11.8211 31.8545 11.9386 31.8325C12.066 31.8087 12.1933 31.8069 12.3207 31.8325C12.4481 31.8582 12.5647 31.9092 12.6724 31.981C12.7242 32.0154 12.7737 32.0533 12.8186 32.0966C12.829 32.1066 12.8404 32.1161 12.8519 32.1252C12.8934 32.1587 12.9292 32.1977 12.9621 32.2397C13.0833 32.3953 13.1508 32.5728 13.1777 32.767C13.1856 32.8252 13.1897 32.8836 13.1897 32.9421C13.1897 32.9493 13.1873 32.9563 13.1862 32.9634C13.1881 32.9588 13.1893 32.9586 13.1897 32.963C13.1883 32.9625 13.1868 32.9621 13.1854 32.9615C13.1935 32.9568 13.2009 32.9516 13.2042 32.9425C13.2073 32.9338 13.2098 32.9251 13.2127 32.9164C13.2442 32.8236 13.2925 32.7407 13.3542 32.6645C13.412 32.5929 13.4789 32.5315 13.5509 32.4742C13.6622 32.3857 13.7848 32.3184 13.92 32.2745C14.0644 32.2277 14.2123 32.2093 14.3637 32.2217C14.5236 32.2348 14.6712 32.2849 14.8059 32.3717C14.8537 32.4023 14.9005 32.4344 14.9401 32.4756C14.9515 32.4874 14.9645 32.4974 14.9805 32.5028C15.0772 32.603 15.1739 32.7032 15.2706 32.8033C15.2716 32.8149 15.2779 32.8238 15.2851 32.8323C15.368 32.93 15.4233 33.0431 15.4663 33.1628C15.5069 33.2757 15.5272 33.3925 15.5272 33.5128C15.5274 33.635 15.5057 33.7533 15.4636 33.8678C15.4143 34.0012 15.341 34.1207 15.2507 34.2305C15.1932 34.3001 15.1294 34.363 15.0627 34.4229C14.9891 34.489 14.9102 34.5482 14.8237 34.5977C14.7224 34.6557 14.6143 34.6936 14.4999 34.7137C14.4076 34.73 14.3142 34.7348 14.2208 34.735C14.2025 34.735 14.1843 34.7356 14.1659 34.7363C14.1576 34.7367 14.1537 34.7445 14.1576 34.7518C14.1762 34.7878 14.2003 34.8203 14.2259 34.8514C14.2665 34.9011 14.3117 34.9463 14.3616 34.9871C14.4879 35.0904 14.631 35.1631 14.7831 35.2186C14.9751 35.2888 15.1739 35.3298 15.3771 35.3499C15.3899 35.3512 15.4025 35.3528 15.415 35.3553C15.417 35.3557 15.4191 35.3613 15.4189 35.3642C15.4185 35.3675 15.416 35.3709 15.4135 35.3735C15.4019 35.3852 15.3903 35.3968 15.3785 35.4083C15.242 35.5411 15.1053 35.6737 14.9688 35.8068C14.8783 35.8949 14.7878 35.9833 14.6973 36.0715C14.5714 36.1943 14.4453 36.3169 14.3195 36.4396C14.3063 36.4524 14.2928 36.4646 14.2798 36.4768C14.2756 36.4744 14.2701 36.4733 14.2698 36.4712C14.2672 36.4588 14.2651 36.446 14.2643 36.4334C14.2587 36.3457 14.2491 36.2583 14.2344 36.1714C14.2098 36.0266 14.1725 35.8853 14.1145 35.7497C14.0783 35.6652 14.035 35.5848 13.9818 35.51C13.9207 35.4243 13.8494 35.3485 13.7605 35.2913C13.7405 35.2785 13.7193 35.2675 13.6982 35.2565C13.692 35.2532 13.6843 35.2522 13.6773 35.2505C13.6727 35.2493 13.6644 35.254 13.6645 35.2578C13.67 35.3377 13.651 35.4144 13.6313 35.4906C13.6129 35.5614 13.5907 35.6314 13.5712 35.7018C13.5499 35.7785 13.5131 35.8478 13.4702 35.9141C13.4045 36.0162 13.3277 36.1092 13.239 36.1921C13.0611 36.3584 12.8549 36.4721 12.615 36.5193C12.3097 36.5794 12.0254 36.5237 11.7629 36.3567C11.6807 36.3043 11.6057 36.2432 11.5386 36.1722C11.5059 36.1376 11.4724 36.1038 11.4403 36.0686C11.3725 35.9939 11.3104 35.9147 11.2563 35.8294C11.2158 35.7658 11.182 35.6989 11.1567 35.6279C11.123 35.5339 11.1066 35.4369 11.1054 35.3371C11.1037 35.1704 11.1312 35.009 11.194 34.8541C11.2483 34.7197 11.3284 34.6031 11.4334 34.5029C11.5291 34.4117 11.6387 34.3444 11.7656 34.3061C11.7797 34.3019 11.794 34.298 11.8021 34.2843C11.8035 34.2887 11.8029 34.2895 11.8006 34.2862C11.8029 34.2852 11.8042 34.285 11.8054 34.285Z" fill="black"/>
<path d="M58.1165 40.4409C58.113 40.5275 58.1244 40.6126 58.142 40.6969C58.1774 40.8661 58.2458 41.0208 58.3491 41.1593C58.4104 41.2416 58.4792 41.3178 58.561 41.381C58.7323 41.5133 58.9241 41.5918 59.1421 41.6007C59.2565 41.6053 59.3683 41.5885 59.4781 41.5558C59.591 41.5222 59.697 41.4725 59.7972 41.4112C59.9178 41.3375 60.0296 41.2519 60.1321 41.1544C60.1893 41.1001 60.2388 41.039 60.2871 40.9767C60.3478 40.8984 60.4008 40.8153 60.447 40.7277C60.5031 40.6221 60.5464 40.5117 60.5725 40.3949C60.601 40.2684 60.6071 40.1412 60.5861 40.013C60.565 39.8848 60.518 39.7665 60.4501 39.6561C60.4175 39.6031 60.3815 39.5522 60.3397 39.5058C60.3299 39.495 60.321 39.4832 60.3123 39.4716C60.2802 39.4289 60.2427 39.3916 60.2019 39.3573C60.0506 39.2305 59.8757 39.1568 59.6825 39.1232C59.6247 39.1131 59.5665 39.1069 59.5079 39.105C59.5007 39.1048 59.4936 39.1067 59.4866 39.1077C59.4915 39.106 59.4915 39.1048 59.487 39.1042C59.4874 39.1056 59.488 39.1071 59.4884 39.1085C59.4932 39.1006 59.4986 39.0934 59.5081 39.0905C59.5168 39.0878 59.5257 39.0855 59.5344 39.083C59.6282 39.0547 59.7129 39.0093 59.7912 38.9505C59.8648 38.8952 59.9286 38.8306 59.9884 38.7608C60.081 38.6525 60.1526 38.5327 60.2013 38.3991C60.2533 38.2565 60.2769 38.1092 60.2699 37.9574C60.2626 37.7971 60.2177 37.648 60.1357 37.5102C60.1067 37.4615 60.0766 37.4135 60.0369 37.3723C60.0255 37.3605 60.016 37.3472 60.0112 37.3309C59.9145 37.2308 59.8178 37.1306 59.7212 37.0305C59.7096 37.0291 59.7009 37.0223 59.6927 37.015C59.598 36.9286 59.487 36.8694 59.3691 36.8222C59.2575 36.7775 59.1417 36.7532 59.0214 36.7487C58.8992 36.7443 58.7801 36.7617 58.6643 36.7998C58.5291 36.8442 58.4071 36.9133 58.2942 36.9997C58.2226 37.0546 58.1575 37.1161 58.0952 37.1807C58.0266 37.252 57.9645 37.3288 57.9121 37.4133C57.8506 37.5125 57.8088 37.619 57.7847 37.7329C57.7651 37.8246 57.757 37.9176 57.7535 38.0112C57.7528 38.0293 57.7516 38.0477 57.7503 38.0659C57.7497 38.0742 57.7417 38.0777 57.7344 38.0736C57.699 38.0537 57.6675 38.0284 57.6373 38.0019C57.589 37.9595 57.5457 37.9128 57.5066 37.8613C57.408 37.7314 57.3405 37.5858 57.2903 37.4317C57.227 37.2372 57.1932 37.0372 57.1802 36.8334C57.1795 36.8207 57.1783 36.8079 57.1762 36.7953C57.1758 36.7934 57.1704 36.7911 57.1675 36.7913C57.1642 36.7915 57.1607 36.794 57.158 36.7963C57.1458 36.8073 57.1338 36.8187 57.1218 36.8301C56.9842 36.9618 56.8467 37.0937 56.709 37.2254C56.6177 37.3128 56.5261 37.4 56.4348 37.4872C56.3076 37.6086 56.1806 37.7302 56.0535 37.8516C56.0404 37.8642 56.0276 37.8774 56.015 37.8899C56.0172 37.8944 56.0181 37.8996 56.0203 37.9002C56.0326 37.9031 56.0452 37.9056 56.0578 37.907C56.1454 37.9157 56.2324 37.9284 56.3184 37.9462C56.4623 37.976 56.6023 38.0183 56.7355 38.081C56.8187 38.12 56.8975 38.1662 56.9704 38.2221C57.0538 38.2861 57.1271 38.3602 57.1812 38.4513C57.1934 38.4716 57.2034 38.4932 57.2139 38.5147C57.217 38.5211 57.2175 38.5286 57.2193 38.5358C57.2203 38.5406 57.2152 38.5485 57.2114 38.5481C57.1317 38.5398 57.0544 38.5561 56.9776 38.5731C56.906 38.5889 56.8355 38.6087 56.7643 38.6257C56.6868 38.6442 56.6164 38.6785 56.5485 38.7189C56.4441 38.7809 56.3484 38.8542 56.2624 38.9401C56.0899 39.112 55.9688 39.3138 55.9131 39.5519C55.842 39.8549 55.8876 40.1408 56.0452 40.4092C56.0945 40.4933 56.1531 40.5705 56.2216 40.6399C56.255 40.6737 56.2877 40.7085 56.3217 40.7418C56.3938 40.8124 56.4708 40.8771 56.5541 40.9344C56.6162 40.9769 56.6819 41.0131 56.7519 41.0411C56.8448 41.078 56.941 41.098 57.0408 41.1026C57.2075 41.1103 57.3697 41.0885 57.5267 41.0312C57.6629 40.9816 57.7824 40.906 57.8862 40.8046C57.9807 40.7122 58.0519 40.6051 58.0948 40.4796C58.0997 40.4657 58.1039 40.4516 58.118 40.4438C58.1136 40.4423 58.113 40.4429 58.1161 40.4454C58.1161 40.4434 58.1163 40.4423 58.1165 40.4409Z" fill="black"/>
<g opacity="0.1">
<path d="M69.037 48.574L46.6538 70.1742C44.4707 72.2799 41.0792 72.4095 38.7473 70.5996C38.2697 70.1007 37.8733 69.511 37.5833 68.8439L17.149 21.699C15.8265 18.6459 17.2419 15.0649 20.295 13.7423L36.893 6.54932L69.1898 40.0198C71.5004 42.4136 71.4328 46.2634 69.037 48.574Z" fill="#FCF0C0"/>
<path d="M69.037 48.574L46.6538 70.1742C44.4707 72.2799 41.0792 72.4095 38.7473 70.5996C38.2697 70.1007 37.8733 69.511 37.5833 68.8439L17.149 21.699C15.8265 18.6459 17.2419 15.0649 20.295 13.7423L36.893 6.54932L69.1898 40.0198C71.5004 42.4136 71.4328 46.2634 69.037 48.574Z" fill="black"/>
</g>
<path d="M74.4492 61.098L45.3776 72.162C43.473 72.8871 41.4156 72.5758 39.8359 71.5084C39.834 71.5084 39.832 71.5065 39.8301 71.5046C38.8343 70.8317 38.0299 69.8591 37.5717 68.6583L19.2953 20.6375C18.112 17.5264 19.6878 14.015 22.799 12.8316L51.8706 1.76758C54.9798 0.584218 58.4931 2.1601 59.6765 5.26932L61.3375 9.63537L77.9528 53.2921C79.1362 56.4013 77.5603 59.9146 74.4492 61.098Z" fill="#FCF0C0"/>
<path opacity="0.1" d="M74.4492 61.098L45.3776 72.162C43.473 72.8871 41.4156 72.5758 39.8359 71.5084C39.834 71.5084 39.832 71.5065 39.8301 71.5046C38.8343 70.8317 38.0299 69.8591 37.5717 68.6583L19.2953 20.6375C18.112 17.5264 19.6878 14.015 22.799 12.8316L51.8706 1.76758C54.9798 0.584218 58.4931 2.1601 59.6765 5.26932L61.3375 9.63537L77.9528 53.2921C79.1362 56.4013 77.5603 59.9146 74.4492 61.098Z" fill="black"/>
<path d="M54.0194 4.6125C55.1521 4.6125 56.2214 5.3024 56.6476 6.42234L74.9231 54.4445C75.474 55.8918 74.7444 57.5177 73.2971 58.0684L44.2246 69.1324C43.897 69.2572 43.56 69.3161 43.2288 69.3161C42.0961 69.3161 41.0268 68.6262 40.6007 67.5063L22.3251 19.4842C21.7742 18.0369 22.5038 16.4109 23.9511 15.8602L53.0236 4.79619C53.3512 4.67147 53.688 4.6125 54.0194 4.6125ZM54.0196 3.96436H54.0194C53.6 3.96436 53.1874 4.04054 52.7931 4.19059L23.7206 15.2546C22.8588 15.5825 22.1758 16.2276 21.7974 17.0708C21.419 17.9141 21.3914 18.853 21.7193 19.7148L39.9949 67.737C40.5019 69.0692 41.8016 69.9645 43.2288 69.9645C43.6482 69.9645 44.0608 69.8885 44.4551 69.7382L73.5276 58.6742C74.3894 58.3463 75.0724 57.7012 75.4508 56.858C75.8292 56.0148 75.8568 55.0758 75.5289 54.214L57.2533 6.19166C56.7464 4.85942 55.4468 3.96436 54.0196 3.96436Z" fill="#D41920"/>
<path d="M25.7649 20.4336L25.8941 21.8184L24.75 22.2537L24.3845 16.806L25.8326 16.2549L29.203 20.5591L28.0156 21.0109L27.1623 19.9016L25.7649 20.4336ZM26.689 19.1369L25.9908 18.2171C25.7937 17.9605 25.569 17.6314 25.3863 17.3696L25.3718 17.3752C25.4095 17.6923 25.4778 18.0891 25.5056 18.4018L25.61 19.5474L26.689 19.1369Z" fill="black"/>
<path d="M71.1435 53.7916L71.0433 52.3957L72.2308 51.9438L72.5747 57.3999L71.1267 57.9509L67.7779 53.6385L68.922 53.203L69.7463 54.3233L71.1435 53.7916ZM70.2194 55.0883L70.9032 56.0135C71.0903 56.2656 71.3032 56.6073 71.4858 56.8693L71.5002 56.8637C71.4625 56.5466 71.4117 56.1515 71.3883 55.8288L71.2984 54.6776L70.2194 55.0883Z" fill="black"/>
<path d="M51.6148 44.8418C51.5823 44.8503 51.5598 44.8316 51.5368 44.819C51.4032 44.7457 51.2702 44.6715 51.137 44.5972C48.5539 43.1606 45.9708 41.7237 43.3877 40.287C42.9977 40.0701 42.6075 39.8531 42.2175 39.6362C42.1842 39.6176 42.1508 39.5993 42.1179 39.5801C42.0582 39.5455 42.0541 39.5362 42.0731 39.4771C42.0829 39.4459 42.0936 39.415 42.104 39.3841C43.2516 36.0028 44.3994 32.6215 45.5473 29.2402C45.563 29.194 45.5818 29.149 45.6013 29.1043C45.6044 29.0971 45.6208 29.0894 45.6278 29.0917C45.6533 29.1004 45.6782 29.1116 45.7016 29.125C45.9673 29.2745 46.2328 29.4243 46.4981 29.5742C48.2186 30.546 49.9389 31.5176 51.6592 32.4894C52.8157 33.1426 53.972 33.796 55.1283 34.4495C55.1612 34.4681 55.1929 34.4896 55.2234 34.5118C55.2308 34.517 55.2368 34.5313 55.2354 34.5404C55.2312 34.5671 55.2252 34.5938 55.2163 34.6193C55.1536 34.7993 55.0902 34.9789 55.027 35.1586C54.0505 37.9368 53.0739 40.7149 52.0974 43.4931C51.9547 43.8988 51.812 44.3045 51.6687 44.7099C51.6529 44.755 51.6434 44.8033 51.6148 44.8418Z" fill="#D41920"/>
<path d="M29.77 28.754C29.7576 28.7572 29.7491 28.7501 29.7402 28.7453C29.6894 28.7172 29.6385 28.689 29.5878 28.6608C28.6031 28.113 27.6183 27.5654 26.6337 27.0176C26.485 26.9348 26.3363 26.8523 26.1876 26.7695C26.1749 26.7624 26.1623 26.7554 26.1497 26.748C26.1269 26.7349 26.1254 26.7314 26.1325 26.7088C26.1362 26.697 26.1402 26.6852 26.1443 26.6734C26.5819 25.3843 27.0193 24.0953 27.457 22.8064C27.463 22.7888 27.4702 22.7716 27.4775 22.7546C27.4787 22.7519 27.4851 22.749 27.4876 22.7498C27.4972 22.753 27.5067 22.7573 27.5158 22.7623C27.6171 22.8194 27.7183 22.8764 27.8194 22.9336C28.4753 23.3041 29.1311 23.6746 29.787 24.0451C30.2279 24.2941 30.6687 24.5432 31.1094 24.7924C31.122 24.7996 31.1339 24.8077 31.1457 24.8162C31.1484 24.8181 31.1508 24.8237 31.1504 24.827C31.1488 24.8373 31.1465 24.8473 31.143 24.8572C31.1193 24.9258 31.0951 24.9943 31.0709 25.0627C30.6987 26.1219 30.3263 27.181 29.9541 28.2402C29.8997 28.3949 29.8452 28.5496 29.7907 28.7041C29.7845 28.7209 29.781 28.7393 29.77 28.754Z" fill="#D41920"/>
<path d="M69.4429 51.3234C69.4305 51.3267 69.422 51.3195 69.4131 51.3147C69.3623 51.2867 69.3114 51.2584 69.2608 51.2302C68.276 50.6824 67.2912 50.1348 66.3066 49.587C66.1579 49.5043 66.0092 49.4217 65.8605 49.339C65.8478 49.3318 65.8352 49.3249 65.8226 49.3175C65.7998 49.3044 65.7983 49.3009 65.8054 49.2783C65.8091 49.2665 65.8132 49.2547 65.8172 49.2429C66.2548 47.9537 66.6922 46.6648 67.1299 45.3759C67.1359 45.3583 67.1431 45.3411 67.1504 45.3241C67.1516 45.3213 67.158 45.3184 67.1605 45.3192C67.1702 45.3225 67.1796 45.3268 67.1887 45.3318C67.29 45.3888 67.3912 45.4459 67.4923 45.5031C68.1482 45.8736 68.804 46.2441 69.4599 46.6145C69.9008 46.8636 70.3416 47.1126 70.7823 47.3619C70.7949 47.369 70.8069 47.3771 70.8187 47.3856C70.8214 47.3876 70.8237 47.3932 70.8233 47.3965C70.8218 47.4067 70.8194 47.4168 70.8159 47.4264C70.7922 47.4951 70.768 47.5635 70.7438 47.632C70.3716 48.6912 69.9992 49.7502 69.627 50.8095C69.5726 50.9642 69.5181 51.1188 69.4636 51.2733C69.4574 51.2903 69.4539 51.3089 69.4429 51.3234Z" fill="#D41920"/>
<g opacity="0.1">
<path d="M74.4492 61.0979L45.3776 72.1619C43.473 72.887 41.4157 72.5757 39.8359 71.5083C39.834 71.5083 39.8321 71.5064 39.8301 71.5045C38.7009 70.41 37.9932 68.8825 37.9835 67.1964L37.7032 15.815C37.6838 12.4873 40.3909 9.75127 43.7186 9.73193L61.3375 9.63525L77.9529 53.2919C79.1362 56.4012 77.5603 59.9145 74.4492 61.0979Z" fill="#FCF0C0"/>
<path d="M74.4492 61.0979L45.3776 72.1619C43.473 72.887 41.4157 72.5757 39.8359 71.5083C39.834 71.5083 39.8321 71.5064 39.8301 71.5045C38.7009 70.41 37.9932 68.8825 37.9835 67.1964L37.7032 15.815C37.6838 12.4873 40.3909 9.75127 43.7186 9.73193L61.3375 9.63525L77.9529 53.2919C79.1362 56.4012 77.5603 59.9145 74.4492 61.0979Z" fill="black"/>
</g>
<path d="M83.2006 17.2981L83.0769 20.504L81.2148 68.6427C81.0872 71.9666 78.2622 74.5827 74.9364 74.4531L43.8539 73.2505C42.2297 73.1886 40.7756 72.4828 39.7276 71.3903C38.6293 70.2457 37.9758 68.6736 38.0415 66.9721L40.0273 15.6294C40.1569 12.3036 42.9819 9.68936 46.3057 9.81698L77.3902 11.0197C80.714 11.1473 83.3302 13.9742 83.2006 17.2981Z" fill="#FCF0C0"/>
<path opacity="0.05" d="M83.2006 17.2981L83.0769 20.504L81.2148 68.6427C81.0872 71.9666 78.2622 74.5827 74.9364 74.4531L43.8539 73.2505C42.2297 73.1886 40.7756 72.4828 39.7276 71.3903C38.6293 70.2457 37.9758 68.6736 38.0415 66.9721L40.0273 15.6294C40.1569 12.3036 42.9819 9.68936 46.3057 9.81698L77.3902 11.0197C80.714 11.1473 83.3302 13.9742 83.2006 17.2981Z" fill="black"/>
<path d="M46.071 13.0539C46.1075 13.0539 46.1441 13.0547 46.1808 13.056L77.2643 14.2581C78.8118 14.3181 80.0222 15.6258 79.9623 17.1732L77.9768 68.5169C77.9184 70.0276 76.6705 71.2172 75.1716 71.2172C75.135 71.2172 75.0985 71.2164 75.0618 71.215L43.9783 70.0129C42.4308 69.9532 41.2204 68.6453 41.2801 67.0978L43.2657 15.7542C43.3243 14.2434 44.5721 13.0541 46.071 13.0539ZM46.071 12.4058C44.2068 12.406 42.6901 13.8656 42.6182 15.729L40.6326 67.0727C40.597 67.9943 40.923 68.8752 41.5508 69.5535C42.1787 70.2318 43.0318 70.6249 43.9533 70.6607L75.0368 71.8628C75.0821 71.8645 75.1269 71.8653 75.1718 71.8653C77.036 71.8653 78.5527 70.4056 78.6246 68.5421L80.6102 17.1984C80.6839 15.2936 79.1942 13.6843 77.2895 13.6106L46.206 12.4085C46.1607 12.4067 46.1161 12.4058 46.071 12.4058Z" fill="black"/>
<path d="M46.0596 17.9745L45.6361 19.2994L44.4129 19.252L46.2096 14.0961L47.7578 14.156L49.174 19.4363L47.9044 19.3872L47.5536 18.0325L46.0596 17.9745ZM47.4175 17.143L47.1352 16.0235C47.0544 15.7102 46.9765 15.3195 46.9109 15.007L46.8954 15.0064C46.8061 15.3129 46.7135 15.7048 46.6166 16.0034L46.2641 17.0986L47.4175 17.143Z" fill="black"/>
<path d="M74.7545 66.4365L75.2089 65.113L76.4785 65.1621L74.6588 70.3173L73.1105 70.2573L71.7176 64.978L72.9408 65.0254L73.2606 66.3789L74.7545 66.4365ZM73.3967 67.2678L73.6636 68.3868C73.737 68.6919 73.7991 69.0898 73.8646 69.4023L73.8801 69.4029C73.9696 69.0964 74.0773 68.713 74.1823 68.4067L74.5503 67.3123L73.3967 67.2678Z" fill="black"/>
<path d="M61.4978 46.514C61.4831 46.5538 61.4655 46.5896 61.4564 46.6273C61.411 46.8151 61.3945 47.0063 61.3903 47.1989C61.3812 47.6045 61.4568 47.9969 61.5769 48.3822C61.6797 48.7123 61.8164 49.0284 61.9765 49.3343C62.1974 49.7561 62.4555 50.154 62.749 50.5287C62.7803 50.5687 62.8103 50.6097 62.8414 50.65C62.8494 50.6604 62.8515 50.6712 62.8418 50.6805C62.8347 50.6875 62.8246 50.694 62.8151 50.6956C62.7985 50.6983 62.7813 50.6979 62.7645 50.6973C62.5272 50.6908 62.2898 50.6848 62.0525 50.6768C61.4819 50.6575 60.9113 50.6372 60.3407 50.6173C59.6005 50.5914 58.8604 50.5653 58.1204 50.5392C58.0357 50.5363 57.951 50.5326 57.8663 50.5293C57.8524 50.5287 57.8433 50.5223 57.8437 50.5096C57.8439 50.4991 57.8448 50.486 57.851 50.479C57.922 50.3986 57.9951 50.3197 58.0659 50.2389C58.3048 49.9666 58.5245 49.6795 58.7196 49.3738C58.9424 49.0248 59.1284 48.6582 59.2618 48.2649C59.3587 47.9795 59.4219 47.6873 59.4434 47.3876C59.4629 47.1153 59.4418 46.8452 59.3569 46.5834C59.3467 46.5519 59.3289 46.5225 59.3119 46.4937C59.3084 46.4879 59.2896 46.4844 59.2831 46.4885C59.2589 46.5026 59.2357 46.5188 59.2144 46.537C58.7641 46.9239 58.2374 47.1384 57.6561 47.2316C57.3363 47.2828 57.0151 47.2876 56.6926 47.2677C56.5062 47.2561 56.3206 47.2393 56.1371 47.2047C56.0541 47.189 55.9714 47.1683 55.8913 47.1414C55.0825 46.8704 54.4324 46.3854 53.944 45.6856C53.7323 45.3823 53.566 45.0561 53.4622 44.6999C53.3908 44.4549 53.3506 44.2047 53.3311 43.9501C53.3038 43.5933 53.315 43.2375 53.356 42.8835C53.4071 42.4438 53.5198 42.018 53.6838 41.6063C53.8879 41.0939 54.1633 40.6218 54.4891 40.1778C54.7169 39.8675 54.9686 39.5772 55.2306 39.2955C55.7587 38.7276 56.3214 38.1961 56.9055 37.6866C57.3147 37.3298 57.7263 36.9764 58.1362 36.6208C58.196 36.5689 58.254 36.515 58.311 36.4601C58.8898 35.9032 59.4513 35.3297 59.9867 34.7311C60.2808 34.4024 60.5654 34.0657 60.829 33.7117C60.8456 33.6892 60.8649 33.6684 60.8856 33.6494C60.8916 33.644 60.9115 33.6434 60.916 33.6486C60.9382 33.674 60.9589 33.7008 60.9771 33.7291C61.1395 33.981 61.3098 34.2274 61.4866 34.4694C61.9201 35.0638 62.3853 35.6323 62.8741 36.1816C63.3479 36.714 63.8479 37.2211 64.351 37.7254C64.6903 38.0655 65.0297 38.4059 65.3636 38.7514C65.6819 39.0807 65.9907 39.4189 66.2765 39.7772C66.6516 40.2472 66.9805 40.7463 67.2338 41.2933C67.4867 41.8399 67.6671 42.4094 67.7619 43.0045C67.811 43.3124 67.8282 43.6225 67.8027 43.9342C67.7864 44.1318 67.7524 44.3269 67.7083 44.5195C67.6072 44.9625 67.4535 45.3861 67.228 45.7823C66.9294 46.3067 66.5352 46.7427 66.035 47.0825C65.6643 47.3342 65.2575 47.493 64.8178 47.5719C64.5393 47.6218 64.258 47.6475 63.9759 47.6635C63.9535 47.6649 63.9306 47.6647 63.9082 47.6624C63.0799 47.5777 62.3432 47.2822 61.7271 46.711C61.665 46.6534 61.6082 46.5902 61.5473 46.5312C61.5368 46.5221 61.5179 46.521 61.4978 46.514Z" fill="black"/>
<path d="M46.9055 25.4464C46.9007 25.4596 46.8949 25.4716 46.8918 25.4841C46.8767 25.5466 46.8711 25.6102 46.8698 25.6744C46.8667 25.8095 46.892 25.9401 46.9318 26.0683C46.9661 26.1781 47.0115 26.2833 47.0649 26.3852C47.1383 26.5256 47.2244 26.658 47.322 26.7827C47.3325 26.7961 47.3425 26.8098 47.3528 26.8231C47.3555 26.8266 47.3561 26.8303 47.353 26.8334C47.3507 26.8357 47.3472 26.8378 47.3441 26.8384C47.3387 26.8394 47.3329 26.8392 47.3273 26.839C47.2482 26.8369 47.1693 26.8347 47.0902 26.8322C46.9003 26.8258 46.7102 26.8191 46.5204 26.8123C46.274 26.8036 46.0277 26.7951 45.7814 26.7864C45.7531 26.7854 45.7249 26.7843 45.6969 26.7831C45.6922 26.7829 45.6893 26.7808 45.6893 26.7765C45.6893 26.7731 45.6897 26.7686 45.6918 26.7663C45.7154 26.7394 45.7398 26.7133 45.7634 26.6864C45.843 26.5957 45.9161 26.5002 45.9809 26.3985C46.055 26.2823 46.117 26.1603 46.1613 26.0294C46.1936 25.9345 46.2147 25.8372 46.2218 25.7374C46.2284 25.6467 46.2212 25.5568 46.193 25.4698C46.1895 25.4594 46.1837 25.4495 46.1781 25.44C46.177 25.4381 46.1708 25.4369 46.1685 25.4383C46.1605 25.4429 46.1526 25.4483 46.1456 25.4545C45.9958 25.5833 45.8204 25.6547 45.6269 25.6858C45.5203 25.7028 45.4136 25.7045 45.3061 25.6978C45.244 25.6939 45.1821 25.6883 45.1212 25.6767C45.0936 25.6715 45.0661 25.6645 45.0394 25.6556C44.7701 25.5653 44.5537 25.4041 44.3913 25.1711C44.3209 25.0701 44.2654 24.9615 44.231 24.8429C44.2072 24.7613 44.1939 24.6782 44.1873 24.5933C44.1782 24.4746 44.1819 24.3561 44.1956 24.2383C44.2126 24.0919 44.2501 23.9502 44.3047 23.8133C44.3725 23.6428 44.4644 23.4856 44.5729 23.3378C44.6487 23.2346 44.7326 23.1379 44.8198 23.0441C44.9955 22.8552 45.1829 22.6781 45.3772 22.5085C45.5134 22.3898 45.6504 22.272 45.787 22.1537C45.8069 22.1365 45.8262 22.1185 45.8452 22.1003C46.0377 21.9149 46.2247 21.7241 46.403 21.5249C46.5008 21.4155 46.5956 21.3033 46.6834 21.1855C46.689 21.178 46.6954 21.171 46.7021 21.1649C46.7041 21.1631 46.7108 21.1629 46.7122 21.1647C46.7195 21.1732 46.7265 21.1821 46.7325 21.1913C46.7866 21.2753 46.8433 21.3573 46.9021 21.4379C47.0463 21.6357 47.2012 21.825 47.364 22.0079C47.5218 22.1852 47.6881 22.354 47.8557 22.5219C47.9686 22.6352 48.0816 22.7483 48.1927 22.8633C48.2987 22.973 48.4014 23.0855 48.4967 23.2048C48.6216 23.3612 48.731 23.5273 48.8154 23.7095C48.8995 23.8914 48.9596 24.0809 48.9911 24.2791C49.0074 24.3816 49.0132 24.4848 49.0047 24.5885C48.9992 24.6542 48.9878 24.7192 48.9733 24.7834C48.9397 24.9309 48.8884 25.0719 48.8134 25.2037C48.714 25.3784 48.5827 25.5234 48.4163 25.6365C48.2929 25.7202 48.1574 25.7732 48.0112 25.7993C47.9186 25.8159 47.8248 25.8244 47.731 25.8298C47.7235 25.8302 47.7159 25.8302 47.7084 25.8295C47.4326 25.8012 47.1875 25.703 46.9823 25.5127C46.9616 25.4936 46.9427 25.4725 46.9224 25.453C46.9185 25.4491 46.9123 25.4487 46.9055 25.4464Z" fill="black"/>
<path d="M74.6862 58.8591C74.6824 58.8456 74.6775 58.8332 74.6754 58.8205C74.6652 58.757 74.6646 58.693 74.6681 58.629C74.6754 58.4941 74.7106 58.3659 74.7605 58.2412C74.803 58.1342 74.8566 58.0329 74.9177 57.9355C75.0018 57.8011 75.0977 57.6758 75.2048 57.559C75.2162 57.5464 75.2273 57.5337 75.2387 57.5211C75.2416 57.5178 75.2425 57.5143 75.2396 57.5108C75.2375 57.5083 75.2342 57.5058 75.2311 57.505C75.2257 57.5037 75.2199 57.5035 75.2143 57.5031C75.1354 57.4992 75.0565 57.495 74.9774 57.4917C74.7876 57.4834 74.5977 57.4755 74.4078 57.4675C74.1615 57.4571 73.9151 57.4467 73.669 57.4364C73.6407 57.4352 73.6125 57.4343 73.5845 57.4331C73.5798 57.4329 73.5767 57.4349 73.5766 57.4391C73.5764 57.4426 73.5764 57.447 73.5783 57.4496C73.5998 57.4782 73.622 57.5062 73.6435 57.5348C73.7158 57.6313 73.7813 57.7322 73.8382 57.8388C73.9031 57.9604 73.9553 58.0869 73.9896 58.2207C74.0143 58.3179 74.0279 58.4165 74.0273 58.5165C74.0267 58.6074 74.0128 58.6965 73.978 58.7812C73.9737 58.7915 73.9671 58.8007 73.9608 58.8098C73.9594 58.8118 73.9532 58.8124 73.9511 58.8108C73.9436 58.8056 73.9362 58.7996 73.9296 58.793C73.7902 58.653 73.6208 58.5683 73.4304 58.5225C73.3256 58.4972 73.219 58.4873 73.1115 58.4858C73.0493 58.4848 72.9874 58.4856 72.9255 58.4923C72.8977 58.4954 72.8696 58.5001 72.8424 58.507C72.567 58.5763 72.3387 58.7205 72.1586 58.9402C72.0805 59.0355 72.0169 59.1393 71.9734 59.255C71.9434 59.3344 71.9237 59.4164 71.9106 59.5003C71.8924 59.6181 71.887 59.7364 71.8914 59.8549C71.897 60.0021 71.9235 60.1463 71.9674 60.2871C72.0219 60.4625 72.1012 60.6263 72.1979 60.7819C72.2656 60.8908 72.3416 60.9936 72.4214 61.0938C72.5821 61.2959 72.7552 61.4867 72.936 61.6708C73.0626 61.7998 73.19 61.9276 73.3171 62.0561C73.3356 62.0749 73.3534 62.0942 73.371 62.114C73.5487 62.3137 73.7204 62.5185 73.8826 62.7308C73.9718 62.8474 74.0576 62.9665 74.1359 63.0908C74.141 63.0987 74.1468 63.1061 74.1531 63.1129C74.1549 63.1148 74.1617 63.1156 74.1632 63.1138C74.1711 63.1061 74.1789 63.0976 74.1856 63.0887C74.246 63.0092 74.3088 62.9319 74.3738 62.8561C74.5329 62.6701 74.7019 62.4933 74.8782 62.3236C75.0492 62.159 75.2282 62.0036 75.4081 61.8493C75.5295 61.745 75.6507 61.6408 75.7704 61.5348C75.8845 61.4337 75.9957 61.3295 76.0997 61.2179C76.2362 61.0716 76.3582 60.9144 76.4564 60.7394C76.5545 60.5644 76.6289 60.3801 76.6757 60.185C76.6999 60.0841 76.7136 59.9816 76.7132 59.8776C76.713 59.8116 76.7067 59.7459 76.697 59.6809C76.6748 59.5313 76.6347 59.3868 76.5699 59.2495C76.4843 59.0678 76.3648 58.9131 76.2074 58.7874C76.0908 58.6944 75.9599 58.6312 75.816 58.5937C75.725 58.5699 75.6322 58.5542 75.539 58.5416C75.5316 58.5407 75.5239 58.5401 75.5165 58.5403C75.2394 58.5471 74.9873 58.6261 74.7682 58.8C74.7462 58.8176 74.7257 58.8371 74.7038 58.8551C74.6994 58.8576 74.693 58.8574 74.6862 58.8591Z" fill="black"/>
<path opacity="0.1" d="M83.0769 20.5041L81.2148 68.6429C81.0872 71.9667 78.2622 74.5829 74.9364 74.4533L43.8539 73.2506C42.2297 73.1887 40.7756 72.483 39.7276 71.3905C38.2504 69.7663 37.7031 67.386 38.5172 65.1972L56.4455 17.043C57.6056 13.926 61.1074 12.3231 64.2243 13.4852L83.0769 20.5041Z" fill="black"/>
<path d="M78.4387 81.945C77.1384 85.0077 73.5686 86.4493 70.506 85.1488L41.8737 72.9908C38.8111 71.6904 37.3694 68.1206 38.6699 65.058L58.7524 17.7635C60.0528 14.7008 63.6226 13.2592 66.6852 14.5597L95.3174 26.7177C98.3801 28.0181 99.8217 31.5879 98.5212 34.6505L78.4387 81.945Z" fill="#FCF0C0"/>
<path d="M64.3244 17.319C64.6901 17.319 65.0611 17.3908 65.4183 17.5424L94.0506 29.7004C95.476 30.3056 96.1433 31.9579 95.5381 33.3835L75.4558 80.6785C75.0021 81.7468 73.9601 82.3893 72.8667 82.3893C72.501 82.3893 72.13 82.3176 71.7728 82.166L43.1404 70.0079C41.7149 69.4027 41.0477 67.7505 41.6529 66.3248L61.7354 19.0301C62.189 17.9618 63.231 17.3192 64.3244 17.319ZM64.3248 16.6709H64.3246C62.9325 16.6711 61.682 17.4975 61.139 18.7766L41.0562 66.0715C40.6957 66.9204 40.6878 67.8597 41.0339 68.7167C41.38 69.5736 42.038 70.244 42.8869 70.6044L71.5192 82.7625C71.9488 82.945 72.402 83.0374 72.8663 83.0374C74.2583 83.0374 75.5089 82.2108 76.0521 80.9318L96.1348 33.6368C96.8798 31.8823 96.0584 29.8489 94.304 29.1039L65.6718 16.9459C65.2421 16.7635 64.7889 16.6709 64.3248 16.6709Z" fill="#D41920"/>
<path d="M76.4489 50.445C76.4266 50.4518 76.4104 50.4661 76.3998 50.4862C76.1513 50.9556 75.8002 51.3445 75.4229 51.7103C74.8486 52.2672 74.2017 52.7268 73.5017 53.1122C73.2066 53.2746 72.9121 53.4388 72.6039 53.5755C72.3011 53.7099 71.9989 53.8462 71.6942 53.9759C70.7744 54.3677 69.8429 54.731 68.9086 55.0862C68.1957 55.3571 67.4963 55.6595 66.8064 55.984C66.5015 56.1272 66.2001 56.2777 65.8969 56.4244C65.8679 56.4385 65.841 56.4596 65.799 56.4563C65.7899 56.4339 65.7774 56.4095 65.7702 56.3838C65.5225 55.4998 65.2079 54.6389 64.8721 53.7855C64.7851 53.5646 64.6861 53.3485 64.5958 53.1288C64.3962 52.6435 64.197 52.1582 64.0012 51.6715C63.8258 51.236 63.6545 50.7988 63.482 50.3622C63.3786 50.1002 63.2728 49.839 63.1742 49.5753C62.8294 48.6537 62.6129 47.7041 62.5635 46.7191C62.533 46.1101 62.5688 45.5056 62.6906 44.9072C62.7248 44.7393 62.7664 44.5732 62.8163 44.4097C62.8694 44.2349 62.9454 44.0705 63.0435 43.9145C63.1933 43.6757 63.3511 43.4431 63.5278 43.2236C63.7817 42.9084 64.0659 42.6242 64.39 42.3809C64.7738 42.0926 65.1938 41.8767 65.6573 41.7481C66.115 41.621 66.5796 41.5841 67.051 41.6477C67.2154 41.6699 67.3765 41.7078 67.5333 41.7624C67.5855 41.7806 67.6383 41.7968 67.6907 41.8138C67.9225 41.8886 68.1456 41.9832 68.3597 42.1004C68.5099 42.1825 68.6571 42.2686 68.7975 42.3674C69.4013 42.793 69.8109 43.3586 70.0261 44.0647C70.1512 44.4752 70.1989 44.8962 70.1918 45.3241C70.1844 45.7564 70.1254 46.182 70.0143 46.6C70.01 46.6157 70.009 46.6321 70.0065 46.6493C70.0181 46.6493 70.0319 46.6534 70.0357 46.649C70.0572 46.6242 70.0794 46.5993 70.0955 46.571C70.2569 46.287 70.4441 46.0211 70.6572 45.7736C70.9366 45.449 71.2549 45.1699 71.624 44.9507C72.1888 44.615 72.8017 44.4576 73.4566 44.4588C73.7946 44.4594 74.1268 44.5032 74.4551 44.5856C74.6443 44.6332 74.8264 44.696 74.9937 44.7944C75.2458 44.9429 75.4852 45.1098 75.7066 45.3028C76.4344 45.9376 76.8493 46.7362 76.9663 47.6921C77.0218 48.1448 77.0032 48.5957 76.9303 49.0449C76.9066 49.192 76.8808 49.3388 76.8267 49.479C76.8166 49.5049 76.8149 49.5327 76.8255 49.56C76.6993 49.855 76.574 50.1501 76.4489 50.445Z" fill="#D41920"/>
<path d="M64.6872 28.1397C64.6797 28.142 64.6741 28.1471 64.6704 28.1538C64.5849 28.3153 64.4643 28.4489 64.3347 28.5746C64.1373 28.766 63.915 28.924 63.6744 29.0564C63.5729 29.1123 63.4718 29.1686 63.3658 29.2158C63.2618 29.262 63.158 29.3088 63.0531 29.3534C62.737 29.488 62.417 29.6129 62.0956 29.7351C61.8506 29.8283 61.6103 29.9322 61.3731 30.0437C61.2682 30.093 61.1646 30.1447 61.0604 30.1951C61.0503 30.2 61.0412 30.2073 61.0267 30.2061C61.0237 30.1984 61.0194 30.1901 61.0169 30.1812C60.9318 29.8774 60.8235 29.5814 60.7081 29.2881C60.6781 29.2121 60.6441 29.1378 60.6131 29.0624C60.5445 28.8956 60.4761 28.7289 60.4088 28.5614C60.3484 28.4118 60.2897 28.2615 60.2303 28.1115C60.1947 28.0214 60.1584 27.9317 60.1245 27.841C60.006 27.5243 59.9316 27.1979 59.9145 26.8593C59.9041 26.6499 59.9163 26.4422 59.9582 26.2365C59.97 26.1789 59.9843 26.1216 60.0014 26.0655C60.0195 26.0054 60.0458 25.949 60.0795 25.8954C60.1311 25.8134 60.1852 25.7334 60.246 25.6579C60.3332 25.5497 60.431 25.452 60.5424 25.3683C60.6743 25.2693 60.8187 25.195 60.9778 25.1508C61.1352 25.1071 61.2949 25.0945 61.457 25.1163C61.5134 25.1239 61.5687 25.137 61.6227 25.1558C61.6407 25.162 61.6588 25.1676 61.6768 25.1734C61.7565 25.1991 61.8332 25.2316 61.9067 25.2718C61.9584 25.3 62.009 25.3296 62.0572 25.3637C62.2648 25.5098 62.4054 25.7044 62.4795 25.947C62.5224 26.0882 62.5388 26.2328 62.5363 26.3799C62.5338 26.5286 62.5135 26.6748 62.4752 26.8185C62.4738 26.8239 62.4735 26.8295 62.4725 26.8355C62.4766 26.8355 62.4812 26.8369 62.4825 26.8353C62.4899 26.8268 62.4976 26.8183 62.503 26.8084C62.5585 26.7108 62.6229 26.6195 62.696 26.5344C62.7921 26.4229 62.9016 26.327 63.0282 26.2516C63.2223 26.1361 63.4329 26.0822 63.6582 26.0826C63.7744 26.0828 63.8885 26.0978 64.0014 26.1261C64.0664 26.1423 64.129 26.164 64.1864 26.1978C64.2731 26.2489 64.3554 26.3063 64.4314 26.3726C64.6816 26.5907 64.8241 26.8653 64.8643 27.1938C64.8833 27.3493 64.8771 27.5043 64.852 27.6588C64.8439 27.7095 64.835 27.76 64.8164 27.8081C64.8129 27.817 64.8123 27.8267 64.816 27.8359C64.7733 27.9369 64.7302 28.0384 64.6872 28.1397Z" fill="#D41920"/>
<path d="M63.559 22.0975L62.6929 23.1858L61.5662 22.7074L65.0761 18.525L66.5023 19.1306L65.9518 24.5696L64.7824 24.0731L64.9353 22.6821L63.559 22.0975ZM65.1236 21.8023L65.2573 20.6553C65.2928 20.3337 65.3588 19.9408 65.4085 19.6254L65.3942 19.6194C65.2018 19.8743 64.9761 20.2078 64.7795 20.4526L64.0611 21.3512L65.1236 21.8023Z" fill="black"/>
<path d="M76.9363 73.6209C76.9327 73.6137 76.9325 73.6064 76.9348 73.5988C76.9916 73.4252 77.004 73.2457 77.0044 73.065C77.005 72.79 76.9644 72.5203 76.8924 72.2552C76.8623 72.1434 76.8325 72.0315 76.7927 71.9226C76.7536 71.8157 76.7151 71.7083 76.6745 71.602C76.5517 71.281 76.4195 70.9639 76.2841 70.6482C76.1809 70.4072 76.0888 70.1621 76.0043 69.914C75.967 69.8043 75.9322 69.6939 75.8963 69.5839C75.8928 69.5735 75.8916 69.5617 75.8808 69.552C75.8731 69.5551 75.8642 69.5578 75.8558 69.5623C75.5782 69.7119 75.2901 69.8397 74.9989 69.9604C74.9235 69.9915 74.8465 70.0188 74.7705 70.0487C74.6029 70.1153 74.4352 70.1818 74.2682 70.2496C74.1187 70.3102 73.9696 70.3722 73.8205 70.4337C73.731 70.4707 73.6413 70.5068 73.5524 70.5455C73.2422 70.6803 72.9556 70.8533 72.7002 71.0763C72.5422 71.2141 72.4013 71.3673 72.2824 71.5401C72.2489 71.5887 72.218 71.6385 72.1894 71.69C72.1588 71.7449 72.1364 71.8029 72.1211 71.8644C72.0979 71.9584 72.078 72.0529 72.0658 72.149C72.0484 72.2871 72.0461 72.4251 72.0633 72.5634C72.0836 72.7272 72.1304 72.8826 72.2093 73.0278C72.2872 73.1713 72.3889 73.2951 72.5171 73.3966C72.5618 73.432 72.6097 73.4627 72.6606 73.4884C72.6776 73.4969 72.6942 73.5062 72.7109 73.5151C72.7847 73.5545 72.8613 73.5872 72.9413 73.6122C72.9976 73.6298 73.0539 73.6456 73.1119 73.6566C73.3613 73.7044 73.599 73.6708 73.825 73.5553C73.9563 73.4882 74.0719 73.3997 74.1759 73.2956C74.2811 73.1906 74.3722 73.0744 74.4492 72.9472C74.4521 72.9424 74.4559 72.9383 74.4594 72.9335C74.4621 72.9364 74.4664 72.9387 74.4662 72.9408C74.4652 72.952 74.4642 72.9634 74.4611 72.9743C74.4294 73.082 74.4084 73.1918 74.3979 73.3036C74.3844 73.4501 74.3913 73.5955 74.4252 73.739C74.477 73.9589 74.5843 74.148 74.7409 74.3096C74.8218 74.3929 74.9119 74.4647 75.0107 74.5262C75.0675 74.5616 75.1267 74.5915 75.1909 74.6095C75.2878 74.6364 75.3862 74.6557 75.4867 74.6644C75.8174 74.6928 76.114 74.6049 76.3783 74.4057C76.5034 74.3113 76.6105 74.1992 76.7043 74.0739C76.7351 74.0329 76.7652 73.9915 76.7869 73.9447C76.7909 73.936 76.7973 73.9289 76.8066 73.9252C76.8503 73.8235 76.8934 73.7222 76.9363 73.6209Z" fill="#D41920"/>
<path d="M73.1817 77.5897L74.0764 76.5136L75.2458 77.0102L71.7147 81.1835L70.2885 80.5779L70.8602 75.1479L71.9869 75.6263L71.8054 77.0052L73.1817 77.5897ZM71.6172 77.885L71.4695 79.0258C71.4299 79.3373 71.3467 79.7311 71.2968 80.0465L71.3111 80.0525C71.5035 79.7977 71.7406 79.4775 71.9473 79.2286L72.6797 78.3361L71.6172 77.885Z" fill="black"/>
</svg>
