<svg width="21" height="22" viewBox="0 0 21 22" fill="none" xmlns="http://www.w3.org/2000/svg">
<g opacity="0.5" clip-path="url(#clip0_70_49)">
<path d="M9.12269 0.5C10.3398 0.5 11.3264 1.46432 11.3264 2.65385L11.326 3.19208L14.3565 3.19231C15.5736 3.19231 16.5602 4.15661 16.5602 5.34615L16.5597 10.7305H18.2128L18.2128 7.40802C17.5709 7.1862 17.1111 6.58789 17.1111 5.88462C17.1111 4.99247 17.8511 4.26924 18.7639 4.26924C19.6767 4.26924 20.4167 4.99247 20.4167 5.88462C20.4167 6.58783 19.9569 7.18611 19.3152 7.40796L19.3148 11.2568L19.3148 11.2633C19.3148 11.2653 19.3148 11.2673 19.3148 11.2692C19.3148 11.5666 19.0737 11.8077 18.7764 11.8077L16.5597 11.8073L16.5602 19.3461C16.5602 20.5357 15.5736 21.5 14.3565 21.5H2.78704C1.56997 21.5 0.583344 20.5357 0.583344 19.3461V5.34615C0.583344 4.15661 1.56997 3.19231 2.78704 3.19231L5.817 3.19208L5.81714 2.65385C5.81714 1.50269 6.74115 0.562453 7.90381 0.502991L8.02084 0.5H9.12269ZM13.2671 15.0385H9.93661C9.63923 15.0385 9.39816 15.2795 9.39816 15.5769C9.39816 15.8743 9.63923 16.1154 9.93661 16.1154H13.2671C13.5645 16.1154 13.8056 15.8743 13.8056 15.5769C13.8056 15.2795 13.5645 15.0385 13.2671 15.0385ZM12.4282 5.88462H4.71529C3.80249 5.88462 3.06251 6.60785 3.06251 7.5V11.2692C3.06251 12.1614 3.80249 12.8846 4.71529 12.8846H12.4282C13.341 12.8846 14.081 12.1614 14.081 11.2692V7.5C14.081 6.60785 13.341 5.88462 12.4282 5.88462ZM6.36826 6.96099L6.36806 6.97401V11.7952C6.36806 11.7994 6.36811 11.8035 6.3682 11.8076L4.71529 11.8077C4.41103 11.8077 4.16436 11.5666 4.16436 11.2692V7.5C4.16436 7.20262 4.41103 6.96154 4.71529 6.96154L6.36826 6.96099ZM9.67402 6.96099L9.67363 6.97401V11.7952C9.67363 11.7994 9.67366 11.8035 9.67375 11.8076L7.469 11.8073L7.46991 11.7952V6.97401C7.46991 6.96966 7.46987 6.96532 7.46977 6.96099H9.67402ZM12.4282 6.96154C12.7325 6.96154 12.9792 7.20262 12.9792 7.5V11.2692C12.9792 11.5666 12.7325 11.8077 12.4282 11.8077L10.7748 11.8073L10.7755 11.7952V6.97401C10.7755 6.96966 10.7754 6.96532 10.7753 6.96099L12.4282 6.96154Z" fill="#2D69F7"/>
</g>
<defs>
<clipPath id="clip0_70_49">
<rect width="21" height="21" fill="white" transform="translate(0 0.5)"/>
</clipPath>
</defs>
</svg>
