<svg width="3" height="4" viewBox="0 0 3 4" fill="none" xmlns="http://www.w3.org/2000/svg">
<path d="M1.96672 2.38303C1.93409 2.49935 1.87139 2.60502 1.78493 2.6894C1.69847 2.77378 1.59131 2.83389 1.47423 2.86368C1.36676 2.8825 0.867573 2.89672 0.843006 2.8981C0.806835 2.89578 0.770895 2.89066 0.735515 2.88279C0.997666 2.96285 1.26445 3.02688 1.53438 3.07453C1.64187 3.08983 2.09771 3.05482 2.16663 3.05001C2.32475 3.0199 2.46759 2.936 2.5709 2.81256C2.67421 2.68912 2.73163 2.53374 2.73342 2.37279C2.81352 0.714808 2.81427 0.846515 2.79679 0.695366C2.78628 0.605774 2.75086 0.520925 2.69455 0.450446C2.63825 0.379967 2.56332 0.326682 2.47826 0.296637C1.56166 0.0588909 1.74047 0.103848 1.79815 0.126683C2.05207 0.260321 2.08527 0.472199 2.07175 0.75541L1.41109 0.585789C1.25796 0.580612 1.10469 0.590626 0.953537 0.615684C0.923118 0.628844 0.89717 0.650547 0.878839 0.67816C0.843381 0.738911 0.857343 0.675099 0.800886 1.82466L1.20527 1.92855L0.977208 2.38349L1.71158 2.56604L2.01327 1.95343C2.01648 2.09805 2.00083 2.24246 1.96672 2.38303ZM1.59593 1.13608C1.56832 1.19307 1.58131 1.23879 1.58493 0.956606C1.58708 0.912714 1.60514 0.871105 1.63572 0.839547C1.68926 0.788682 1.68757 0.800626 2.06801 0.781685L2.04741 1.25154L1.59593 1.13608Z" fill="url(#paint0_linear_130_336)"/>
<defs>
<linearGradient id="paint0_linear_130_336" x1="1.99538" y1="0.145018" x2="1.57703" y2="3.08304" gradientUnits="userSpaceOnUse">
<stop stop-color="#9E6100"/>
<stop offset="0.49" stop-color="#642701"/>
<stop offset="0.65" stop-color="#682A01"/>
<stop offset="0.81" stop-color="#753401"/>
<stop offset="0.98" stop-color="#8A4401"/>
<stop offset="1" stop-color="#8C4601"/>
</linearGradient>
</defs>
</svg>
