<svg width="2" height="4" viewBox="0 0 2 4" fill="none" xmlns="http://www.w3.org/2000/svg">
<path d="M1.75073 3.45548C1.73804 3.32207 1.65171 3.31221 1.53329 3.27098C1.95879 1.05291 1.93464 1.22251 1.9196 1.157C1.90964 1.12212 1.88823 1.0916 1.85883 1.07036C1.74963 1.02039 1.63637 0.979806 1.52029 0.949047L0.759778 1.05278C1.10104 1.17205 1.07613 1.15875 1.10924 1.18296C1.13619 1.2075 1.15462 1.24001 1.16183 1.27575C1.17448 1.34091 1.1942 1.18531 0.774151 3.38222C0.89257 3.42345 0.96218 3.43093 0.993286 3.55478C0.989337 3.68864 0.970399 3.82164 0.936827 3.95129L1.69631 3.83766C1.72428 3.71186 1.74247 3.58408 1.75073 3.45548Z" fill="url(#paint0_linear_130_330)"/>
<defs>
<linearGradient id="paint0_linear_130_330" x1="1.44351" y1="0.940552" x2="1.01292" y2="3.96456" gradientUnits="userSpaceOnUse">
<stop stop-color="#9E6100"/>
<stop offset="0.49" stop-color="#642701"/>
<stop offset="0.65" stop-color="#682A01"/>
<stop offset="0.81" stop-color="#753401"/>
<stop offset="0.98" stop-color="#8A4401"/>
<stop offset="1" stop-color="#8C4601"/>
</linearGradient>
</defs>
</svg>
