<svg width="4" height="4" viewBox="0 0 4 4" fill="none" xmlns="http://www.w3.org/2000/svg">
<path d="M2.97995 2.19747C2.88926 2.20226 2.79899 2.21302 2.70972 2.22967C1.32426 0.423933 1.41642 0.495544 1.30859 0.482628C1.28232 0.478886 0.486322 0.575134 0.5996 0.566893C0.712878 0.558652 0.636424 0.513647 2.09324 2.41728L2.42351 2.37414L2.62836 2.64701C2.1038 3.13041 2.1328 3.11504 2.07241 3.12837C2.3188 3.11408 2.56352 3.0788 2.80392 3.02294C2.83087 3.00484 2.75549 3.0721 3.31893 2.55524C3.10179 2.266 3.07446 2.20118 2.97995 2.19747Z" fill="url(#paint0_linear_130_386)"/>
<defs>
<linearGradient id="paint0_linear_130_386" x1="2.09446" y1="0.594527" x2="1.74039" y2="3.08109" gradientUnits="userSpaceOnUse">
<stop stop-color="#9E6100"/>
<stop offset="0.49" stop-color="#642701"/>
<stop offset="0.65" stop-color="#682A01"/>
<stop offset="0.81" stop-color="#753401"/>
<stop offset="0.98" stop-color="#8A4401"/>
<stop offset="1" stop-color="#8C4601"/>
</linearGradient>
</defs>
</svg>
