<svg width="4" height="3" viewBox="0 0 4 3" fill="none" xmlns="http://www.w3.org/2000/svg">
<path d="M3.53987 0.762705C3.5604 0.675349 3.54925 0.583542 3.50841 0.503639C3.46757 0.423735 3.39969 0.360923 3.31686 0.326397C3.29059 0.322656 1.43868 -0.00439855 1.3701 -0.00197869C1.30536 0.00670984 1.24457 0.0341138 1.19519 0.0768699C1.14581 0.119626 1.10999 0.175871 1.09212 0.238701C1.06282 0.324699 1.09927 0.188539 0.895536 1.61933C0.874574 1.70608 0.885325 1.79746 0.925847 1.87698C0.96637 1.95649 1.03399 2.01889 1.1165 2.05291C1.14516 2.05699 2.99365 2.39087 3.0619 2.39084C3.10342 2.38656 3.14362 2.37384 3.18005 2.35346C3.21648 2.33309 3.24836 2.30548 3.27373 2.27235C3.36375 2.1365 3.3358 2.19588 3.53987 0.762705Z" fill="url(#paint0_linear_130_509)"/>
<defs>
<linearGradient id="paint0_linear_130_509" x1="0.968622" y1="1.02047" x2="3.45519" y2="1.37454" gradientUnits="userSpaceOnUse">
<stop stop-color="#FFE6AB"/>
<stop offset="1" stop-color="#FFD778"/>
</linearGradient>
</defs>
</svg>
