<svg width="4" height="4" viewBox="0 0 4 4" fill="none" xmlns="http://www.w3.org/2000/svg">
<path d="M3.24477 2.42786C3.23847 2.07846 3.20266 2.10748 2.20871 0.615823C2.1239 0.480513 1.99034 0.382964 1.83564 0.34336C1.74578 0.327615 1.65352 0.332219 1.56567 0.356824C1.47781 0.381428 1.3966 0.425408 1.32798 0.485537C0.877407 0.842991 0.744013 0.889799 0.650673 1.22013C0.610619 1.38477 0.62531 1.55797 0.692524 1.71351C0.762537 1.85508 1.65746 3.18641 1.69433 3.23553C1.7519 3.32025 1.83179 3.38738 1.92516 3.42949C2.01852 3.4716 2.12171 3.48706 2.22332 3.47414C2.44167 3.42968 2.47987 3.38394 2.98332 2.9804C3.06456 2.91295 3.13007 2.82854 3.17524 2.73308C3.2204 2.63763 3.24413 2.53345 3.24477 2.42786ZM1.12777 1.3953C1.14205 1.29498 1.15843 1.29975 1.56364 0.969951L1.7943 2.46503C1.10083 1.43046 1.12508 1.48265 1.12777 1.3953ZM2.74011 2.41205C2.7364 2.44826 2.72041 2.48211 2.69478 2.50795L2.31037 2.81146L2.08074 1.34334C2.7493 2.34756 2.74655 2.31549 2.74011 2.41205Z" fill="url(#paint0_linear_130_611)"/>
<defs>
<linearGradient id="paint0_linear_130_611" x1="0.573783" y1="1.70878" x2="3.29683" y2="2.09652" gradientUnits="userSpaceOnUse">
<stop stop-color="#FFE6AB"/>
<stop offset="1" stop-color="#FFD778"/>
</linearGradient>
</defs>
</svg>
