<svg width="6" height="7" viewBox="0 0 6 7" fill="none" xmlns="http://www.w3.org/2000/svg">
<path d="M2.10977 6.10603C2.17267 6.1117 2.23606 6.10413 2.29586 6.08382C2.35565 6.06351 2.41054 6.03091 2.45698 5.98812C2.52904 5.91899 5.30682 2.54902 5.34674 2.49463C5.42937 2.37567 5.47286 2.23391 5.47118 2.08909C5.4695 1.94426 5.42272 1.80356 5.33736 1.68655C4.32625 0.454766 4.4104 0.541844 4.30943 0.46739C4.22775 0.418022 4.13181 0.397599 4.0371 0.409414C3.94239 0.421228 3.85442 0.464593 3.78736 0.532516C3.7156 0.599538 0.959155 3.9704 0.919526 4.02269C0.839067 4.14067 0.796562 4.28042 0.797701 4.42322C0.79884 4.56602 0.843569 4.70507 0.9259 4.82175C1.91509 6.05685 1.87123 6.06348 2.10977 6.10603Z" fill="url(#paint0_linear_82_432)"/>
<defs>
<linearGradient id="paint0_linear_82_432" x1="0.996541" y1="2.95443" x2="5.26342" y2="3.56199" gradientUnits="userSpaceOnUse">
<stop stop-color="#FFE6AB"/>
<stop offset="1" stop-color="#FFD778"/>
</linearGradient>
</defs>
</svg>
