<svg width="3" height="3" viewBox="0 0 3 3" fill="none" xmlns="http://www.w3.org/2000/svg">
<path d="M1.16676 2.8836C1.71612 2.91064 1.70521 2.91884 1.84646 2.88534C1.95838 2.85104 2.0597 2.78873 2.1408 2.70432C2.22191 2.61991 2.28013 2.5162 2.30994 2.40299C2.34127 2.26854 2.51697 0.726528 2.5173 0.707079C2.53342 0.60883 2.52145 0.508027 2.48277 0.416285C2.44409 0.324543 2.38028 0.245595 2.29869 0.188539C2.12804 0.0862534 2.08232 0.0992401 1.4985 0.0745988C1.36146 0.0727634 1.22736 0.114356 1.11541 0.193416C1.00346 0.272476 0.919411 0.384944 0.875307 0.514705C0.824876 0.663496 0.851423 0.511304 0.646804 2.23929C0.631184 2.31677 0.632828 2.39675 0.65162 2.47353C0.670411 2.5503 0.705889 2.622 0.755529 2.68351C0.805169 2.74502 0.867752 2.79484 0.938829 2.82942C1.0099 2.864 1.08773 2.8825 1.16676 2.8836ZM1.82949 2.35408C1.76162 2.41996 1.76435 2.40085 1.29449 2.38026L2.00331 1.16761C1.86498 2.34451 1.88576 2.2841 1.83017 2.3493L1.82949 2.35408ZM1.32747 0.625392C1.39534 0.559507 1.40012 0.577248 1.85531 0.598194L1.15603 1.79514C1.29368 0.623019 1.27461 0.68854 1.32815 0.620615L1.32747 0.625392Z" fill="url(#paint0_linear_130_568)"/>
<defs>
<linearGradient id="paint0_linear_130_568" x1="0.735117" y1="1.36234" x2="2.42627" y2="1.60314" gradientUnits="userSpaceOnUse">
<stop stop-color="#FFE6AB"/>
<stop offset="1" stop-color="#FFD778"/>
</linearGradient>
</defs>
</svg>
