<svg width="3" height="3" viewBox="0 0 3 3" fill="none" xmlns="http://www.w3.org/2000/svg">
<path d="M2.41376 1.38099C2.43016 1.3034 2.41976 1.22254 2.38427 1.15162C2.34877 1.08071 2.29027 1.02393 2.21832 0.990559C2.19098 0.986666 0.574669 0.644946 0.514589 0.644973C0.458565 0.651419 0.405653 0.674123 0.362378 0.710281C0.319103 0.74644 0.287358 0.794472 0.271056 0.848457C0.247958 0.920263 0.276146 0.81271 0.0988782 2.05765C0.0819967 2.13497 0.0919456 2.21574 0.127087 2.28665C0.162228 2.35756 0.220466 2.41439 0.292215 2.44779C0.315347 2.45108 1.92866 2.79881 1.99265 2.80148C2.02896 2.79891 2.06431 2.78866 2.09636 2.7714C2.1284 2.75414 2.15642 2.73026 2.17855 2.70136C2.26171 2.58447 2.24068 2.58147 2.41376 1.38099Z" fill="url(#paint0_linear_82_407)"/>
<defs>
<linearGradient id="paint0_linear_82_407" x1="0.160236" y1="1.56647" x2="2.3452" y2="1.87758" gradientUnits="userSpaceOnUse">
<stop stop-color="#FFE6AB"/>
<stop offset="1" stop-color="#FFD778"/>
</linearGradient>
</defs>
</svg>
