<svg width="6" height="7" viewBox="0 0 6 7" fill="none" xmlns="http://www.w3.org/2000/svg">
<path d="M0.284627 2.037C0.339365 2.17996 0.125621 1.82769 3.00793 6.32759C3.04864 6.39279 3.10205 6.44914 3.16497 6.4933C3.2279 6.53745 3.29906 6.5685 3.37422 6.58461C3.44939 6.60072 3.52702 6.60155 3.60252 6.58706C3.67801 6.57256 3.74982 6.54304 3.81368 6.50025C3.89266 6.44284 3.726 6.57359 5.2629 5.36347C5.37808 5.27053 5.46241 5.1449 5.50482 5.00311C5.54722 4.86132 5.5457 4.71001 5.50045 4.5691C5.44571 4.42613 5.65435 4.7691 2.74411 0.269512C2.70353 0.204417 2.65006 0.148302 2.58701 0.104614C2.52396 0.0609264 2.45264 0.030587 2.37744 0.0154585C2.30224 0.000330041 2.22473 0.000731634 2.14969 0.016639C2.07465 0.0325464 2.00366 0.0636238 1.94106 0.107963C1.86208 0.165376 2.03625 0.0271106 0.516777 1.25044C0.404068 1.34346 0.321742 1.46805 0.280375 1.6082C0.239008 1.74836 0.240488 1.89769 0.284627 2.037Z" fill="url(#paint0_linear_82_512)"/>
<defs>
<linearGradient id="paint0_linear_82_512" x1="0.0882605" y1="2.90375" x2="5.69261" y2="3.70175" gradientUnits="userSpaceOnUse">
<stop stop-color="#FFE6AB"/>
<stop offset="1" stop-color="#FFD778"/>
</linearGradient>
</defs>
</svg>
