<svg width="2" height="4" viewBox="0 0 2 4" fill="none" xmlns="http://www.w3.org/2000/svg">
<path d="M1.40647 2.49333C1.39487 2.46318 1.37209 2.43868 1.34287 2.42492C1.31365 2.41117 1.28024 2.40923 1.24962 2.4195L1.1427 2.46221L0.468048 0.600325C0.458796 0.569652 0.438679 0.543404 0.411466 0.526496C0.384252 0.509587 0.351807 0.503181 0.320209 0.508473L0.0219653 0.629072C0.922806 3.11749 0.854833 2.93187 0.866559 2.95499C0.879377 2.98108 0.900859 3.00189 0.927333 3.01388C0.953806 3.02587 0.983625 3.02828 1.01168 3.02071L1.52347 2.81681L1.40647 2.49333Z" fill="url(#paint0_linear_82_500)"/>
<defs>
<linearGradient id="paint0_linear_82_500" x1="-0.124161" y1="1.65531" x2="1.65283" y2="1.90833" gradientUnits="userSpaceOnUse">
<stop stop-color="#FFE6AB"/>
<stop offset="1" stop-color="#FFD778"/>
</linearGradient>
</defs>
</svg>
