<svg width="26" height="28" viewBox="0 0 26 28" fill="none" xmlns="http://www.w3.org/2000/svg">
<path d="M9.34894 25.6201C11.5416 24.5751 13.5898 23.2505 15.4422 21.6794C18.7588 18.8056 21.0453 15.9094 23.2016 11.8053C24.0922 10.0506 24.837 8.22573 25.4286 6.34901L22.561 1.72214C12.58 -0.186467 14.0251 0.0534278 13.3263 0.0319101C17.5393 0.841382 16.8241 0.72979 17.4113 0.747605C21.1899 1.47573 20.7254 1.34867 20.1013 1.33292L22.0727 1.7111L24.9427 6.35537C23.8723 9.77896 22.2785 13.0163 20.2179 15.9524C19.0106 17.6633 17.6337 19.248 16.1081 20.6824C14.3334 22.353 12.3532 23.7908 10.2153 24.9612L10.6466 24.9275C9.56522 25.5047 9.18348 25.6697 8.44115 26.0051C8.31698 26.0556 8.41967 26.0361 7.91163 26.0783C5.72563 27.0184 3.41381 27.6334 1.04969 27.9039C0.128115 27.992 -0.197725 28.0212 0.685976 27.9423C4.20439 27.6049 6.46357 26.9201 9.34894 25.6201Z" fill="url(#paint0_linear_130_238)"/>
<defs>
<linearGradient id="paint0_linear_130_238" x1="15.2065" y1="0.246012" x2="11.0363" y2="29.533" gradientUnits="userSpaceOnUse">
<stop stop-color="#9E6100"/>
<stop offset="0.49" stop-color="#642701"/>
<stop offset="0.65" stop-color="#682A01"/>
<stop offset="0.81" stop-color="#753401"/>
<stop offset="0.98" stop-color="#8A4401"/>
<stop offset="1" stop-color="#8C4601"/>
</linearGradient>
</defs>
</svg>
