<svg width="2" height="3" viewBox="0 0 2 3" fill="none" xmlns="http://www.w3.org/2000/svg">
<path d="M1.51377 1.03293C1.51474 0.972055 1.49524 0.912614 1.45841 0.864132C1.38838 0.783356 1.42955 0.810674 0.573639 0.658763C0.519622 0.654356 0.465964 0.67076 0.423649 0.704622C0.381333 0.738484 0.353561 0.787241 0.346018 0.84091C0.342724 0.864042 0.158869 2.15525 0.150784 2.21203C0.147068 2.2571 0.155615 2.30233 0.175518 2.34294C0.195422 2.38355 0.225941 2.41801 0.26384 2.44269C0.306205 2.46159 0.223884 2.437 1.08881 2.60092C1.20868 2.61799 1.28825 2.52633 1.31793 2.40826C1.32603 2.38152 1.51259 1.0864 1.51377 1.03293Z" fill="url(#paint0_linear_82_399)"/>
<defs>
<linearGradient id="paint0_linear_82_399" x1="0.244202" y1="1.54089" x2="1.42185" y2="1.70858" gradientUnits="userSpaceOnUse">
<stop stop-color="#FFE6AB"/>
<stop offset="1" stop-color="#FFD778"/>
</linearGradient>
</defs>
</svg>
