<svg width="3" height="4" viewBox="0 0 3 4" fill="none" xmlns="http://www.w3.org/2000/svg">
<path d="M2.52295 1.66664C2.54029 1.58951 2.5302 1.50874 2.49442 1.43825C2.45864 1.36776 2.39941 1.31194 2.32691 1.28041C2.30378 1.27712 0.67666 0.966046 0.61658 0.966074C0.56021 0.973511 0.507186 0.997062 0.463879 1.0339C0.420572 1.07075 0.388824 1.11931 0.372449 1.17376C0.348752 1.24977 0.37694 1.14222 0.189157 2.38566C0.171742 2.4625 0.181561 2.543 0.216937 2.6134C0.252312 2.68379 0.311046 2.73971 0.383093 2.77159C0.408328 2.77518 2.02824 3.09167 2.09252 3.09224C2.12899 3.08919 2.16441 3.07852 2.19648 3.06091C2.22856 3.0433 2.25658 3.01914 2.27873 2.99002C2.3739 2.8641 2.34957 2.86923 2.52295 1.66664Z" fill="url(#paint0_linear_82_414)"/>
<defs>
<linearGradient id="paint0_linear_82_414" x1="0.261921" y1="1.87465" x2="2.45109" y2="2.18637" gradientUnits="userSpaceOnUse">
<stop stop-color="#FFE6AB"/>
<stop offset="1" stop-color="#FFD778"/>
</linearGradient>
</defs>
</svg>
