<svg width="4" height="5" viewBox="0 0 4 5" fill="none" xmlns="http://www.w3.org/2000/svg">
<path d="M2.51394 2.21626C2.47442 2.33979 2.59886 2.11625 1.01787 4.76443C0.988252 4.81497 0.948871 4.85911 0.902023 4.89428C0.855174 4.92945 0.801796 4.95494 0.744997 4.96928C0.716333 4.9652 0.497971 4.99259 1.48301 4.92083C1.55136 4.9099 1.61605 4.88262 1.67158 4.8413C1.72711 4.79999 1.77184 4.74587 1.80194 4.68354L1.34132 4.71787L1.74193 4.0438L2.20221 4.01186L2.81354 2.9876L2.35326 3.01954L2.75387 2.34547C3.28 2.31316 3.2104 2.32274 3.22336 2.30021C3.29028 2.18457 3.3193 2.05086 3.30632 1.91788C3.29335 1.7849 3.23904 1.65932 3.15102 1.55879C3.11893 1.52741 2.02354 0.542842 1.92763 0.480444C1.7778 0.403058 1.79453 0.422499 0.95415 0.470994C1.03809 0.470337 1.11991 0.497405 1.18689 0.548C1.23058 0.583466 2.33212 1.55917 2.39288 1.62875C2.45957 1.70931 2.50548 1.80499 2.52659 1.90742C2.54769 2.00985 2.54335 2.1159 2.51394 2.21626Z" fill="url(#paint0_linear_130_319)"/>
<defs>
<linearGradient id="paint0_linear_130_319" x1="2.23542" y1="0.509648" x2="1.58205" y2="5.09821" gradientUnits="userSpaceOnUse">
<stop stop-color="#9E6100"/>
<stop offset="0.49" stop-color="#642701"/>
<stop offset="0.65" stop-color="#682A01"/>
<stop offset="0.81" stop-color="#753401"/>
<stop offset="0.98" stop-color="#8A4401"/>
<stop offset="1" stop-color="#8C4601"/>
</linearGradient>
</defs>
</svg>
