<svg width="54" height="34" viewBox="0 0 54 34" fill="none" xmlns="http://www.w3.org/2000/svg">
<path d="M4.44388 33.2905C6.90692 33.69 3.94908 33.2055 1.47444 32.8019C2.15301 30.851 2.9402 28.9396 3.83231 27.0767C7.04422 20.5567 10.413 16.1013 14.9942 11.7236C17.2552 9.60334 19.7281 7.72113 22.374 6.10658C25.0161 4.49711 27.8305 3.18933 30.7643 2.20782C35.3035 0.686882 40.0872 0.0289695 44.8684 0.268064C47.7152 0.40645 50.5373 0.864703 53.2816 1.63418C49.1981 0.440012 44.9455 -0.0716496 40.6953 0.11984C37.5308 0.265309 34.3964 0.801263 31.3633 1.71552C28.3941 2.61749 25.5371 3.85406 22.8473 5.40142C20.1578 6.94584 17.6357 8.7649 15.3213 10.8294C10.3946 15.3237 7.01179 19.7747 3.82359 25.9057C2.70553 28.1168 1.7364 30.4001 0.922669 32.7404C4.46436 33.3178 3.815 33.2229 4.44388 33.2905Z" fill="url(#paint0_linear_130_220)"/>
<defs>
<linearGradient id="paint0_linear_130_220" x1="29.851" y1="-2.09205" x2="24.4057" y2="36.15" gradientUnits="userSpaceOnUse">
<stop stop-color="#9E6100"/>
<stop offset="0.49" stop-color="#642701"/>
<stop offset="0.65" stop-color="#682A01"/>
<stop offset="0.81" stop-color="#753401"/>
<stop offset="0.98" stop-color="#8A4401"/>
<stop offset="1" stop-color="#8C4601"/>
</linearGradient>
</defs>
</svg>
