<svg width="4" height="4" viewBox="0 0 4 4" fill="none" xmlns="http://www.w3.org/2000/svg">
<path d="M3.07634 1.93054L3.49672 1.95628L3.56134 1.50244C3.58046 1.39898 3.562 1.29208 3.50928 1.20102C3.45657 1.10996 3.37306 1.04072 3.27382 1.00577C3.2141 0.997266 2.60362 0.885972 0.897088 0.582051L0.15323 0.53462C0.201002 0.541422 2.53098 0.951176 2.60093 0.973323C2.67472 1.003 2.73881 1.05258 2.78607 1.11654C2.83333 1.1805 2.86191 1.25632 2.86862 1.33556C2.87583 1.43895 2.8901 1.30451 2.64448 2.90968C2.63468 3.01349 2.58571 3.10967 2.50753 3.17867C2.42935 3.24766 2.32782 3.28429 2.22359 3.2811C3.02 3.31895 2.94902 3.32104 3.03909 3.30462C3.13896 3.27845 3.22487 3.21472 3.27888 3.12673C3.33051 3.03491 3.35937 2.93205 3.36303 2.82677L2.94469 2.80376C3.0828 1.88516 3.05933 2.04997 3.07634 1.93054Z" fill="url(#paint0_linear_130_370)"/>
<defs>
<linearGradient id="paint0_linear_130_370" x1="1.9027" y1="0.725241" x2="1.55238" y2="3.18553" gradientUnits="userSpaceOnUse">
<stop stop-color="#9E6100"/>
<stop offset="0.49" stop-color="#642701"/>
<stop offset="0.65" stop-color="#682A01"/>
<stop offset="0.81" stop-color="#753401"/>
<stop offset="0.98" stop-color="#8A4401"/>
<stop offset="1" stop-color="#8C4601"/>
</linearGradient>
</defs>
</svg>
