<svg width="7" height="5" viewBox="0 0 7 5" fill="none" xmlns="http://www.w3.org/2000/svg">
<path d="M6.0567 0.769673C6.03276 0.626752 5.95619 0.497971 5.84205 0.408689C5.7895 0.370491 5.72942 0.343941 5.6658 0.330813C5.60218 0.317684 5.53649 0.318278 5.47312 0.332556C1.02072 1.32922 1.35413 1.24796 1.234 1.3081C1.13774 1.36909 1.05779 1.45263 1.0011 1.55148C0.9444 1.65033 0.91266 1.76152 0.908624 1.8754C0.905671 1.98655 1.05601 3.61286 1.06386 3.69336C1.07627 3.79697 1.1198 3.89438 1.18869 3.97276C1.25759 4.05113 1.34862 4.10678 1.44978 4.13237C1.51078 4.14487 1.57374 4.14433 1.63452 4.13079C6.10225 3.16205 5.75953 3.24842 5.88477 3.18258C5.98286 3.12164 6.06448 3.03755 6.12247 2.93769C6.18046 2.83783 6.21304 2.72526 6.21735 2.60986C6.21671 2.50892 6.06544 0.843868 6.0567 0.769673Z" fill="url(#paint0_linear_82_470)"/>
<defs>
<linearGradient id="paint0_linear_82_470" x1="0.909216" y1="1.85618" x2="6.21705" y2="2.61196" gradientUnits="userSpaceOnUse">
<stop stop-color="#FFE6AB"/>
<stop offset="1" stop-color="#FFD778"/>
</linearGradient>
</defs>
</svg>
