<svg width="4" height="4" viewBox="0 0 4 4" fill="none" xmlns="http://www.w3.org/2000/svg">
<path d="M3.63594 2.95246C3.6407 2.91902 3.86797 1.47696 3.86042 1.37596C3.86124 1.29605 3.83999 1.21747 3.79902 1.14886C3.75805 1.08024 3.69895 1.02427 3.62822 0.987086C3.54768 0.953684 3.76914 1.00715 1.18187 0.538829C1.0802 0.525509 0.977305 0.551686 0.894366 0.611965C0.811427 0.672244 0.754769 0.762038 0.736054 0.862845C0.731292 0.896286 0.506064 2.32402 0.512937 2.42979C0.514221 2.53731 0.55287 2.64103 0.622257 2.72318C0.758124 2.86438 0.61035 2.80678 3.18295 3.27545C3.28541 3.28957 3.38939 3.26398 3.47361 3.20394C3.55782 3.14389 3.61589 3.05392 3.63594 2.95246Z" fill="url(#paint0_linear_130_598)"/>
<defs>
<linearGradient id="paint0_linear_130_598" x1="0.616665" y1="1.68419" x2="3.76727" y2="2.13281" gradientUnits="userSpaceOnUse">
<stop stop-color="#FFE6AB"/>
<stop offset="1" stop-color="#FFD778"/>
</linearGradient>
</defs>
</svg>
