<svg width="6" height="4" viewBox="0 0 6 4" fill="none" xmlns="http://www.w3.org/2000/svg">
<path d="M5.19587 1.02446C5.35401 1.30015 5.31224 1.27704 5.3044 3.18549C5.31069 3.31313 5.2754 3.43936 5.20384 3.54523C5.13229 3.6511 5.02831 3.73091 4.90754 3.77266C4.88651 3.76966 4.62909 3.81454 5.50891 3.69308C5.6159 3.6729 5.71429 3.62082 5.79114 3.54369C5.86799 3.46656 5.9197 3.36797 5.93948 3.2609C5.9716 3.04313 5.97856 2.82238 5.96021 2.60302L5.56881 2.65456C5.57749 2.59358 5.56831 2.86905 5.57176 1.88042L5.96286 1.83098C5.96415 1.36987 6.0304 1.05531 5.69742 0.771887C5.63829 0.725136 5.57002 0.691298 5.49701 0.672548C5.40238 0.659073 1.19241 0.344976 1.13233 0.345004L0.418912 0.427944C0.453963 0.423398 0.48935 0.421969 0.524653 0.423684C5.15099 0.767029 4.77247 0.728155 4.89535 0.769253C5.01998 0.820416 5.12519 0.909759 5.19587 1.02446Z" fill="url(#paint0_linear_82_251)"/>
<defs>
<linearGradient id="paint0_linear_82_251" x1="3.39227" y1="0.385727" x2="2.9458" y2="3.52122" gradientUnits="userSpaceOnUse">
<stop stop-color="#9E6100"/>
<stop offset="0.49" stop-color="#642701"/>
<stop offset="0.65" stop-color="#682A01"/>
<stop offset="0.81" stop-color="#753401"/>
<stop offset="0.98" stop-color="#8A4401"/>
<stop offset="1" stop-color="#8C4601"/>
</linearGradient>
</defs>
</svg>
