<svg width="4" height="5" viewBox="0 0 4 5" fill="none" xmlns="http://www.w3.org/2000/svg">
<path d="M2.6542 1.65143L3.07056 1.66566L3.10589 1.41751C3.12269 1.3399 3.11247 1.25888 3.07693 1.18788C3.04138 1.11687 2.98265 1.06014 2.91045 1.02708L1.26169 0.687179C1.22174 0.68149 1.36023 0.688333 0.538914 0.655064C0.572561 0.659855 2.18827 0.99076 2.23304 1.00786C2.28418 1.03615 2.3271 1.07723 2.35761 1.12708C2.38812 1.17693 2.40518 1.23385 2.4071 1.29226C2.40984 1.37848 2.4086 1.28175 2.23223 2.52038C2.22685 2.57806 2.20663 2.63337 2.17354 2.68092C2.14045 2.72847 2.09562 2.76664 2.0434 2.79173C1.96471 2.817 2.07466 2.82837 0.970577 2.59606C0.932724 2.59067 1.02675 2.59333 0.246899 2.57026C0.288958 2.57624 0.728187 2.67097 1.89686 2.91677C1.97095 2.94182 2.03397 2.99195 2.07502 3.05852C2.11608 3.12508 2.1326 3.2039 2.12173 3.28135C2.11544 3.32551 1.95614 4.44428 1.94835 4.49896C1.93638 4.55529 1.90852 4.60702 1.86809 4.64803C1.82765 4.68904 1.77632 4.71761 1.72015 4.73037C1.69282 4.72647 1.54652 4.72925 2.38916 4.74839C2.44295 4.74589 2.49431 4.72522 2.53482 4.68975C2.66094 4.57253 2.65458 4.46649 2.68632 4.24358L2.25885 4.23206C2.2855 4.04489 2.26543 4.18579 2.35586 3.5507L2.78304 3.56433C2.81568 3.33511 2.87447 3.13321 2.68394 2.97949C2.61122 2.93266 2.65179 2.94917 1.98303 2.80889C2.74365 2.83137 2.67006 2.83591 2.73974 2.81364C2.92625 2.72434 2.92647 2.55702 2.95732 2.35543L2.54096 2.3412L2.6542 1.65143Z" fill="url(#paint0_linear_82_175)"/>
<defs>
<linearGradient id="paint0_linear_82_175" x1="1.86073" y1="0.759602" x2="1.30467" y2="4.66477" gradientUnits="userSpaceOnUse">
<stop stop-color="#9E6100"/>
<stop offset="0.49" stop-color="#642701"/>
<stop offset="0.65" stop-color="#682A01"/>
<stop offset="0.81" stop-color="#753401"/>
<stop offset="0.98" stop-color="#8A4401"/>
<stop offset="1" stop-color="#8C4601"/>
</linearGradient>
</defs>
</svg>
