<svg width="4" height="3" viewBox="0 0 4 3" fill="none" xmlns="http://www.w3.org/2000/svg">
<path d="M3.72636 1.14162C3.61405 1.02328 3.73044 1.11296 2.22048 0.147338C2.12302 0.0775875 2.00514 0.042216 1.88537 0.0467797C1.76561 0.0513435 1.65076 0.0955883 1.55888 0.172554C1.46871 0.246022 1.39505 0.337668 1.34268 0.441523C1.00757 1.08349 1.04234 1.01046 0.998043 1.15038C0.957146 1.30585 0.965958 1.47023 1.02324 1.62044C1.08053 1.77065 1.18341 1.89915 1.31746 1.98791C2.76325 2.92489 2.71309 2.91775 2.93285 2.94904C3.06122 2.96558 3.19099 2.93163 3.29483 2.85436C3.48652 2.70619 3.50321 2.64032 3.82264 2.02293C3.89705 1.88338 3.92767 1.72464 3.9105 1.56742C3.89332 1.4102 3.82915 1.26182 3.72636 1.14162ZM1.49633 1.39923C1.46591 1.28767 1.51435 1.27263 1.74786 0.796539L2.51754 2.10029C1.47689 1.43302 1.52809 1.48418 1.49871 1.39957L1.49633 1.39923ZM3.38573 1.66826C3.37791 1.7232 3.38165 1.69693 3.12937 2.18498L2.36687 0.899301C3.40138 1.55839 3.3123 1.4994 3.33551 1.52464C3.35456 1.54312 3.36919 1.56567 3.3783 1.5906C3.38741 1.61553 3.39076 1.64219 3.38812 1.6686L3.38573 1.66826Z" fill="url(#paint0_linear_130_629)"/>
<defs>
<linearGradient id="paint0_linear_130_629" x1="0.977976" y1="1.29131" x2="3.90644" y2="1.70829" gradientUnits="userSpaceOnUse">
<stop stop-color="#FFE6AB"/>
<stop offset="1" stop-color="#FFD778"/>
</linearGradient>
</defs>
</svg>
