<svg width="36" height="23" viewBox="0 0 36 23" fill="none" xmlns="http://www.w3.org/2000/svg">
<path d="M0.415548 22.4089L0.961509 22.4598L2.33813 21.3496C4.94448 15.0261 8.69239 9.92768 14.1843 5.81119C15.8317 4.60349 17.597 3.56558 19.4533 2.71331C23.7155 0.831968 27.2631 0.169759 31.4692 0.205708C32.6202 0.23395 33.7682 0.333936 34.9067 0.505084C35.8701 0.671496 36.3536 0.767154 35.4131 0.577189C31.6267 -0.150922 27.7278 -0.0544041 23.982 0.860167C19.8098 1.93791 16.5977 3.51305 13.0391 6.1867C9.5859 8.90705 7.13999 11.6563 4.69392 15.5363L4.63971 15.6261L5.10071 15.6917C4.68851 16.3787 4.28448 17.0596 3.83687 17.9269L3.37416 17.8732C2.69678 19.2073 2.31637 20.0304 1.79149 21.3034L0.415548 22.4089Z" fill="url(#paint0_linear_130_228)"/>
<defs>
<linearGradient id="paint0_linear_130_228" x1="20.0433" y1="-1.6357" x2="16.2976" y2="24.6703" gradientUnits="userSpaceOnUse">
<stop stop-color="#9E6100"/>
<stop offset="0.49" stop-color="#642701"/>
<stop offset="0.65" stop-color="#682A01"/>
<stop offset="0.81" stop-color="#753401"/>
<stop offset="0.98" stop-color="#8A4401"/>
<stop offset="1" stop-color="#8C4601"/>
</linearGradient>
</defs>
</svg>
