<svg width="47" height="38" viewBox="0 0 47 38" fill="none" xmlns="http://www.w3.org/2000/svg">
<path d="M4.62557 2.92895L7.08014 3.4393L6.60721 3.42314L10.9721 4.32979L12.019 5.98009C12.716 12.5863 14.6565 17.8537 17.5832 22.7327C19.0686 25.1673 20.8541 27.4054 22.8979 29.3945L23.3603 29.3653C23.8498 29.8468 24.8018 30.6916 25.2015 31.0166L24.7412 31.0485C26.52 32.5276 28.4667 33.7921 30.5411 34.8159C32.5103 35.787 34.5873 36.5221 36.729 37.0057C40.1718 37.7128 42.3877 37.8285 46.2169 37.4306C45.0306 37.5468 45.4745 37.5101 44.2448 37.5884C41.5539 37.6983 38.8619 37.4021 36.2593 36.7097C34.2177 36.1688 32.2443 35.3972 30.3772 34.4099C24.6226 31.2826 20.5971 27.0514 17.3352 21.3424C14.7143 16.6049 13.0935 11.3799 12.5731 5.99075L11.5282 4.34318L1.23122 2.20679C1.2356 1.35444 1.23063 1.6803 1.24592 0.785642L0.678818 0.763383C0.661468 1.6212 0.666777 1.29295 0.661386 2.18658C4.67816 3.02173 3.97078 2.90639 4.62557 2.92895Z" fill="url(#paint0_linear_130_211)"/>
<defs>
<linearGradient id="paint0_linear_130_211" x1="25.5591" y1="4.25248" x2="21.1988" y2="34.8748" gradientUnits="userSpaceOnUse">
<stop stop-color="#9E6100"/>
<stop offset="0.49" stop-color="#642701"/>
<stop offset="0.65" stop-color="#682A01"/>
<stop offset="0.81" stop-color="#753401"/>
<stop offset="0.98" stop-color="#8A4401"/>
<stop offset="1" stop-color="#8C4601"/>
</linearGradient>
</defs>
</svg>
