<svg width="4" height="3" viewBox="0 0 4 3" fill="none" xmlns="http://www.w3.org/2000/svg">
<path d="M0.974656 0.392349C0.779429 1.76342 0.742926 1.78016 0.816371 1.96609C0.850194 2.04927 0.914915 2.11614 0.996959 2.15265C1.0502 2.17241 3.00244 2.54787 3.03861 2.55059C3.12966 2.54965 3.21692 2.51397 3.28254 2.45083C3.34815 2.38769 3.38717 2.30187 3.3916 2.21092C3.5984 0.758633 3.58241 0.870899 3.59568 0.777742C3.59222 0.707984 3.56979 0.64049 3.5308 0.582542C3.49181 0.524595 3.43774 0.478392 3.37442 0.448916C3.31948 0.441093 1.36997 0.0635811 1.33175 0.0581392C1.24154 0.0601574 1.15524 0.0953645 1.08936 0.157024C1.02347 0.218684 0.982637 0.302467 0.974656 0.392349Z" fill="url(#paint0_linear_130_532)"/>
<defs>
<linearGradient id="paint0_linear_130_532" x1="0.85556" y1="1.10895" x2="3.49022" y2="1.4841" gradientUnits="userSpaceOnUse">
<stop stop-color="#FFE6AB"/>
<stop offset="1" stop-color="#FFD778"/>
</linearGradient>
</defs>
</svg>
