<svg width="4" height="4" viewBox="0 0 4 4" fill="none" xmlns="http://www.w3.org/2000/svg">
<path d="M3.03155 1.67317C1.91985 0.54507 1.96611 0.551654 1.7501 0.501586C1.64916 0.487213 1.70804 0.495599 1.01234 0.559603C1.32445 0.537531 1.40142 0.690095 2.02354 1.32366L1.43088 1.38731L1.6649 2.06431C1.221 1.61061 1.23633 1.63854 1.21588 1.57126C1.20915 1.53695 1.21422 1.50139 1.23025 1.47032C1.31951 1.33587 1.42145 1.21028 1.53468 1.09528L0.931206 1.15954C0.60845 1.5427 0.637272 1.50604 0.621068 1.5445C0.610981 1.57858 0.612583 1.61506 0.625621 1.64813C0.646371 1.69829 0.589265 1.63223 1.37367 2.42193L1.79421 2.37667L1.87904 2.62476L2.48282 2.5584L2.05929 1.32875C2.49417 1.77044 2.53143 1.78004 2.60992 1.98217C2.64853 2.09205 2.6575 2.21016 2.63593 2.32462C2.61436 2.43907 2.56302 2.54581 2.48706 2.6341C2.09405 3.10381 2.11837 3.08367 1.99855 3.17174C1.93527 3.214 1.86314 3.24116 1.78771 3.25114C2.44225 3.17484 2.51767 3.21777 2.76238 2.96081C3.1629 2.48359 3.11816 2.54159 3.17609 2.43612C3.23466 2.30978 3.25221 2.16827 3.22629 2.03144C3.20037 1.89461 3.13227 1.76933 3.03155 1.67317Z" fill="url(#paint0_linear_82_301)"/>
<defs>
<linearGradient id="paint0_linear_82_301" x1="2.1055" y1="0.552191" x2="1.72072" y2="3.25448" gradientUnits="userSpaceOnUse">
<stop stop-color="#9E6100"/>
<stop offset="0.49" stop-color="#642701"/>
<stop offset="0.65" stop-color="#682A01"/>
<stop offset="0.81" stop-color="#753401"/>
<stop offset="0.98" stop-color="#8A4401"/>
<stop offset="1" stop-color="#8C4601"/>
</linearGradient>
</defs>
</svg>
