<svg width="3" height="4" viewBox="0 0 3 4" fill="none" xmlns="http://www.w3.org/2000/svg">
<path d="M2.63827 1.33517C1.37588 0.0514327 1.43116 0.0568676 1.18069 0.00170604C1.03858 -0.0234607 0.892282 0.00822405 0.773322 0.0899265C0.640293 0.185526 0.682246 0.14763 0.232436 0.687973C0.147232 0.78948 0.0899609 0.91144 0.0662661 1.04183C0.0425713 1.17222 0.0532725 1.30654 0.0973167 1.43154C0.187846 1.66864 0.149593 1.59495 1.39013 2.86096C1.47623 2.95266 1.58539 3.01954 1.70618 3.05462C1.81991 3.07544 1.93723 3.06313 2.04417 3.01916C2.1511 2.97519 2.24314 2.90142 2.30934 2.80663C2.7646 2.26219 2.71584 2.33079 2.78198 2.20861C2.85225 2.06625 2.87618 1.90546 2.8504 1.74881C2.82463 1.59216 2.75045 1.44751 2.63827 1.33517ZM0.566038 1.20339C0.556437 1.09967 0.579639 1.10785 0.924412 0.689023L1.41471 2.12359C0.564691 1.24707 0.581089 1.28596 0.567399 1.19384L0.566038 1.20339ZM2.34406 1.87817C2.33283 1.957 2.33555 1.93789 1.98873 2.35399L1.50424 0.929993C2.3505 1.78161 2.34946 1.75465 2.34542 1.86862L2.34406 1.87817Z" fill="url(#paint0_linear_130_620)"/>
<defs>
<linearGradient id="paint0_linear_130_620" x1="0.0259515" y1="1.31658" x2="2.88753" y2="1.72404" gradientUnits="userSpaceOnUse">
<stop stop-color="#FFE6AB"/>
<stop offset="1" stop-color="#FFD778"/>
</linearGradient>
</defs>
</svg>
