<svg width="3" height="4" viewBox="0 0 3 4" fill="none" xmlns="http://www.w3.org/2000/svg">
<path d="M2.84427 1.7427C2.81504 1.26331 2.47651 1.142 2.06012 0.899928C1.83282 0.784702 1.85808 0.81267 0.967912 0.919877C1.18457 0.904423 1.22588 0.956611 1.71429 1.24062C1.82834 1.3047 1.92229 1.39928 1.98562 1.51376C2.04895 1.62823 2.07916 1.75808 2.07285 1.88876C2.06506 1.99701 2.03759 2.10294 1.99179 2.20134L1.49536 2.26469L1.3944 2.35755C1.76108 1.33989 1.7331 1.34809 1.82624 1.32723C0.97565 1.43033 1.03638 1.4146 0.994428 1.4525C0.952476 1.49039 1.00089 1.40712 0.622965 2.45242L1.39201 2.35721L0.632112 3.05568C1.04133 3.29672 1.00891 3.28479 1.05259 3.28614L1.63125 3.21013C1.5297 3.49542 1.48101 3.71758 1.16883 3.78767C2.03887 3.66785 1.972 3.69244 2.09583 3.62721C2.20224 3.55995 2.28157 3.45735 2.31987 3.33742C2.86545 1.81639 2.83957 1.92969 2.84427 1.7427ZM1.87797 2.52145L1.66396 3.1173L1.39877 2.96013L1.87797 2.52145Z" fill="url(#paint0_linear_130_322)"/>
<defs>
<linearGradient id="paint0_linear_130_322" x1="1.91576" y1="0.835505" x2="1.48823" y2="3.83802" gradientUnits="userSpaceOnUse">
<stop stop-color="#9E6100"/>
<stop offset="0.49" stop-color="#642701"/>
<stop offset="0.65" stop-color="#682A01"/>
<stop offset="0.81" stop-color="#753401"/>
<stop offset="0.98" stop-color="#8A4401"/>
<stop offset="1" stop-color="#8C4601"/>
</linearGradient>
</defs>
</svg>
