<svg width="3" height="3" viewBox="0 0 3 3" fill="none" xmlns="http://www.w3.org/2000/svg">
<path d="M2.691 2.14855C2.68089 2.13585 2.66824 2.12541 2.65386 2.11787C2.63948 2.11033 2.62369 2.10587 2.60749 2.10478C2.5913 2.10368 2.57506 2.10598 2.5598 2.11151C2.54454 2.11704 2.53059 2.12569 2.51886 2.13691L2.42758 2.22047L1.21985 0.651723C1.20023 0.625608 1.17105 0.608349 1.13871 0.603744C1.10637 0.59914 1.07353 0.607567 1.0474 0.627169C1.03059 0.639793 1.06482 0.610338 0.79968 0.860093C2.75857 3.42192 2.19138 2.6889 2.29928 2.82013C2.3185 2.84352 2.34579 2.85886 2.37576 2.86313C2.40574 2.8674 2.43623 2.86029 2.46121 2.84319C2.47563 2.83237 2.52006 2.79149 2.90291 2.43834C2.68228 2.13443 2.70573 2.16567 2.691 2.14855Z" fill="url(#paint0_linear_82_521)"/>
<defs>
<linearGradient id="paint0_linear_82_521" x1="0.694563" y1="1.56819" x2="2.97626" y2="1.89308" gradientUnits="userSpaceOnUse">
<stop stop-color="#FFE6AB"/>
<stop offset="1" stop-color="#FFD778"/>
</linearGradient>
</defs>
</svg>
