<svg width="3" height="2" viewBox="0 0 3 2" fill="none" xmlns="http://www.w3.org/2000/svg">
<path d="M2.58516 0.497386C2.5468 0.499559 2.51056 0.515741 2.48334 0.542863C2.45612 0.569984 2.4398 0.606158 2.43748 0.644516C2.43071 0.69978 2.42687 0.75536 2.42596 0.81103C-0.419472 0.649574 0.387847 0.679232 0.251023 0.681684C0.211655 0.684327 0.17473 0.701712 0.147613 0.730373C0.120495 0.759034 0.105174 0.796865 0.104711 0.836319L0.0823795 1.24987L2.76881 1.4155C2.80846 1.41685 2.84715 1.40313 2.87709 1.3771C2.90703 1.35106 2.92599 1.31464 2.93014 1.27519C2.93388 1.24891 2.93014 1.27519 2.97176 0.520751L2.58516 0.497386Z" fill="url(#paint0_linear_130_641)"/>
<defs>
<linearGradient id="paint0_linear_130_641" x1="0.116585" y1="0.684474" x2="2.94712" y2="1.08751" gradientUnits="userSpaceOnUse">
<stop stop-color="#FFE6AB"/>
<stop offset="1" stop-color="#FFD778"/>
</linearGradient>
</defs>
</svg>
