<svg width="3" height="3" viewBox="0 0 3 3" fill="none" xmlns="http://www.w3.org/2000/svg">
<path d="M2.3226 2.00313C2.30762 1.97576 2.28296 1.95496 2.25345 1.94481C2.22395 1.93466 2.19172 1.93588 2.16306 1.94823L2.05285 2.01406C0.869708 -0.299988 1.21727 0.348121 1.14391 0.230397C1.13638 0.216315 1.12612 0.203865 1.11375 0.193762C1.10138 0.18366 1.08713 0.176107 1.07183 0.171535C1.05653 0.166962 1.04047 0.165459 1.02459 0.167119C1.0087 0.16878 0.993301 0.17357 0.979274 0.181208L0.709588 0.342345L1.82448 2.53296C1.83786 2.56375 1.86285 2.58801 1.89401 2.60048C1.92518 2.61296 1.96001 2.61263 1.99093 2.59958L2.47835 2.31067L2.3226 2.00313Z" fill="url(#paint0_linear_82_511)"/>
<defs>
<linearGradient id="paint0_linear_82_511" x1="0.579033" y1="1.25923" x2="2.58734" y2="1.54519" gradientUnits="userSpaceOnUse">
<stop stop-color="#FFE6AB"/>
<stop offset="1" stop-color="#FFD778"/>
</linearGradient>
</defs>
</svg>
