<svg width="3" height="4" viewBox="0 0 3 4" fill="none" xmlns="http://www.w3.org/2000/svg">
<path d="M2.25027 0.932698C2.24783 0.829994 2.20176 0.811247 1.97748 0.572161L1.19511 0.6411C1.2884 0.726545 1.37375 0.820267 1.45012 0.921117C1.46503 0.951352 1.47119 0.985151 1.46791 1.0187C1.45907 1.0808 1.5293 0.964075 0.399628 2.61639C0.482241 2.70371 0.550848 2.75247 0.523267 2.87771C0.517485 2.91831 0.521226 2.89204 0.329595 3.17669L1.11059 3.10025C1.28586 2.84494 1.32645 2.8166 1.30661 2.7163C1.28987 2.66273 1.28919 2.66751 1.18131 2.55223C2.31542 0.885919 2.24382 1.0122 2.25027 0.932698Z" fill="url(#paint0_linear_130_308)"/>
<defs>
<linearGradient id="paint0_linear_130_308" x1="1.50692" y1="0.505157" x2="1.11238" y2="3.27597" gradientUnits="userSpaceOnUse">
<stop stop-color="#9E6100"/>
<stop offset="0.49" stop-color="#642701"/>
<stop offset="0.65" stop-color="#682A01"/>
<stop offset="0.81" stop-color="#753401"/>
<stop offset="0.98" stop-color="#8A4401"/>
<stop offset="1" stop-color="#8C4601"/>
</linearGradient>
</defs>
</svg>
