<svg width="7" height="6" viewBox="0 0 7 6" fill="none" xmlns="http://www.w3.org/2000/svg">
<path d="M0.714189 5.58081L0.611152 5.60269C1.40374 5.49621 1.314 5.51024 1.39691 5.4928C1.47981 5.47536 6.14081 3.36079 6.20665 3.3263C6.3214 3.25556 6.41411 3.15417 6.47434 3.03358C6.53457 2.91298 6.55993 2.77796 6.54755 2.64372C6.52494 2.4431 6.52667 2.48234 6.24723 1.77479L5.81835 1.82583L5.48118 0.97603L5.91006 0.924996C5.72936 0.482528 5.6753 0.160443 5.25453 0.0176683C5.17613 -0.00445716 5.09403 -0.0103394 5.01328 0.000378664C4.02382 0.103195 4.28584 0.0600829 4.48205 0.0855839C4.65595 0.119789 4.81011 0.219372 4.91279 0.363819C5.01557 0.514929 4.93872 0.352886 5.77975 2.47347C5.83207 2.59924 5.85206 2.73613 5.83787 2.87161C5.82369 3.0071 5.77579 3.13686 5.69855 3.24907C5.6478 3.31925 5.58386 3.37886 5.51029 3.42455C5.3943 3.46896 0.804593 5.54494 0.714189 5.58081Z" fill="url(#paint0_linear_130_358)"/>
<defs>
<linearGradient id="paint0_linear_130_358" x1="4.19056" y1="-0.143578" x2="3.31747" y2="5.98804" gradientUnits="userSpaceOnUse">
<stop stop-color="#9E6100"/>
<stop offset="0.49" stop-color="#642701"/>
<stop offset="0.65" stop-color="#682A01"/>
<stop offset="0.81" stop-color="#753401"/>
<stop offset="0.98" stop-color="#8A4401"/>
<stop offset="1" stop-color="#8C4601"/>
</linearGradient>
</defs>
</svg>
