<svg width="5" height="4" viewBox="0 0 5 4" fill="none" xmlns="http://www.w3.org/2000/svg">
<path d="M0.794192 0.480442C0.839576 0.486905 3.16582 0.939993 3.23339 0.9618C3.30615 0.993819 3.36904 1.04469 3.41556 1.10915C3.46208 1.17362 3.49054 1.24934 3.49799 1.32848C3.50419 1.43903 3.51233 1.33052 3.2742 2.9002C3.26483 2.97682 3.23463 3.04941 3.1869 3.11007C3.13916 3.17073 3.0757 3.21715 3.00343 3.24427C2.89153 3.27707 2.64756 3.26183 3.5992 3.27061C3.67716 3.26619 3.75205 3.23868 3.81431 3.19155C3.87657 3.14443 3.9234 3.07984 3.94882 3.00601C4.0091 2.79911 4.04597 2.58609 4.05874 2.37097L3.63769 2.36706C3.65469 2.24763 3.63327 2.39812 3.76183 1.49521L4.18254 1.5015C4.19369 1.44582 4.19688 1.38884 4.19202 1.33226C4.18558 1.25281 4.15751 1.17664 4.11087 1.112C4.06423 1.04736 4.00079 0.996728 3.92742 0.965577C3.86292 0.956394 1.53804 0.493753 1.49504 0.487631C1.18829 0.485383 0.5997 0.477119 0.794192 0.480442Z" fill="url(#paint0_linear_130_363)"/>
<defs>
<linearGradient id="paint0_linear_130_363" x1="2.52352" y1="0.641388" x2="2.1647" y2="3.16139" gradientUnits="userSpaceOnUse">
<stop stop-color="#9E6100"/>
<stop offset="0.49" stop-color="#642701"/>
<stop offset="0.65" stop-color="#682A01"/>
<stop offset="0.81" stop-color="#753401"/>
<stop offset="0.98" stop-color="#8A4401"/>
<stop offset="1" stop-color="#8C4601"/>
</linearGradient>
</defs>
</svg>
