<svg width="4" height="2" viewBox="0 0 4 2" fill="none" xmlns="http://www.w3.org/2000/svg">
<path d="M3.27895 0.735663L3.26315 1.01234C1.17831 0.887125 1.67008 0.914237 0.896531 0.877041C3.08562 1.00852 2.65783 0.984079 3.26315 1.01234C3.24322 1.4236 3.25072 1.41608 3.2129 1.47078C3.20004 1.48828 3.18299 1.50228 3.16331 1.51147C3.14363 1.52067 3.12195 1.52477 3.10027 1.5234L3.68877 1.54926C3.72381 1.54653 3.75661 1.53093 3.78084 1.50546C3.80507 1.47999 3.81901 1.44645 3.81998 1.41132L3.85303 0.772347C3.15638 0.722499 2.5769 0.693627 3.27895 0.735663Z" fill="url(#paint0_linear_82_332)"/>
<defs>
<linearGradient id="paint0_linear_82_332" x1="2.44105" y1="0.562713" x2="2.32008" y2="1.4123" gradientUnits="userSpaceOnUse">
<stop stop-color="#9E6100"/>
<stop offset="0.49" stop-color="#642701"/>
<stop offset="0.65" stop-color="#682A01"/>
<stop offset="0.81" stop-color="#753401"/>
<stop offset="0.98" stop-color="#8A4401"/>
<stop offset="1" stop-color="#8C4601"/>
</linearGradient>
</defs>
</svg>
