<svg width="7" height="6" viewBox="0 0 7 6" fill="none" xmlns="http://www.w3.org/2000/svg">
<path d="M1.00746 5.00585L0.916751 5.02512C1.61454 4.93137 1.53554 4.94372 1.60853 4.92837C1.68152 4.91302 5.78505 3.05136 5.84301 3.02099C5.94404 2.95871 6.02566 2.86945 6.07869 2.76328C6.13171 2.6571 6.15404 2.53823 6.14314 2.42005C6.12323 2.24342 6.12475 2.27797 5.87874 1.65505L5.50115 1.69998L5.20431 0.951818L5.5819 0.906888C5.42281 0.51734 5.37522 0.233777 5.00476 0.108078C4.93574 0.088599 4.86347 0.0834203 4.79237 0.0928565C3.92125 0.183375 4.15194 0.14542 4.32468 0.167871C4.47778 0.197985 4.6135 0.285658 4.70391 0.412829C4.79439 0.545865 4.72673 0.403204 5.46717 2.27016C5.51324 2.38089 5.53083 2.5014 5.51834 2.62068C5.50586 2.73996 5.46369 2.85421 5.39569 2.953C5.35101 3.01478 5.29471 3.06726 5.22994 3.10749C5.12782 3.14659 1.08706 4.97427 1.00746 5.00585Z" fill="url(#paint0_linear_82_266)"/>
<defs>
<linearGradient id="paint0_linear_82_266" x1="4.06805" y1="-0.033883" x2="3.29939" y2="5.36438" gradientUnits="userSpaceOnUse">
<stop stop-color="#9E6100"/>
<stop offset="0.49" stop-color="#642701"/>
<stop offset="0.65" stop-color="#682A01"/>
<stop offset="0.81" stop-color="#753401"/>
<stop offset="0.98" stop-color="#8A4401"/>
<stop offset="1" stop-color="#8C4601"/>
</linearGradient>
</defs>
</svg>
