<svg width="5" height="9" viewBox="0 0 5 9" fill="none" xmlns="http://www.w3.org/2000/svg">
<path d="M3.86364 2.33986C3.82717 2.42484 1.26467 7.63596 1.19341 7.74279C1.14192 7.81616 1.07635 7.87855 1.00051 7.92633C0.924666 7.97411 0.84008 8.00631 0.751669 8.02107C0.672511 8.0293 0.517943 8.03654 1.37095 7.98497C1.47945 7.97828 1.5847 7.94533 1.67764 7.88894C1.77057 7.83254 1.84842 7.7544 1.90445 7.66125C1.93377 7.60938 4.51163 2.41019 4.56444 2.24468C4.61643 2.05755 4.60175 1.85816 4.5229 1.68067C4.38117 1.39241 4.32145 1.38392 3.62929 0.973415L3.22086 0.983497L2.47341 0.533439L2.87978 0.520626C2.22857 0.130578 2.43946 0.189854 1.43154 0.21693C1.56936 0.20717 1.70682 0.240367 1.825 0.311949C3.66054 1.42141 3.62571 1.35796 3.77901 1.56501C3.85433 1.67786 3.90134 1.8072 3.91608 1.94208C3.93081 2.07696 3.91282 2.2134 3.86364 2.33986Z" fill="url(#paint0_linear_130_396)"/>
<defs>
<linearGradient id="paint0_linear_130_396" x1="3.12639" y1="0.329095" x2="2.00366" y2="8.21397" gradientUnits="userSpaceOnUse">
<stop stop-color="#9E6100"/>
<stop offset="0.49" stop-color="#642701"/>
<stop offset="0.65" stop-color="#682A01"/>
<stop offset="0.81" stop-color="#753401"/>
<stop offset="0.98" stop-color="#8A4401"/>
<stop offset="1" stop-color="#8C4601"/>
</linearGradient>
</defs>
</svg>
