<svg width="5" height="5" viewBox="0 0 5 5" fill="none" xmlns="http://www.w3.org/2000/svg">
<path d="M2.13565 0.527442C2.08596 0.494812 2.03019 0.472542 1.97169 0.461974C1.91319 0.451406 1.85315 0.452751 1.79518 0.465932C1.73721 0.479113 1.6825 0.503859 1.63432 0.538684C1.58614 0.57351 1.54549 0.6177 1.51479 0.66861C0.640651 2.04605 0.620505 2.00671 0.623324 2.25814C0.629702 2.38854 0.680053 2.51293 0.766174 2.61105C0.827786 2.67561 2.96293 4.39143 3.01071 4.43256C3.06287 4.46572 3.12058 4.4892 3.18107 4.50187C3.26926 4.51855 3.36045 4.50785 3.44238 4.47119C3.52431 4.43453 3.59306 4.37366 3.63939 4.29679C4.54055 2.8953 4.47932 3.00888 4.52012 2.8881C4.54859 2.7938 4.55239 2.69377 4.53115 2.59758C4.50991 2.5014 4.46434 2.41227 4.3988 2.33873C4.33118 2.27117 2.18043 0.559564 2.13565 0.527442Z" fill="url(#paint0_linear_82_517)"/>
<defs>
<linearGradient id="paint0_linear_82_517" x1="0.620295" y1="2.20407" x2="4.53808" y2="2.76193" gradientUnits="userSpaceOnUse">
<stop stop-color="#FFE6AB"/>
<stop offset="1" stop-color="#FFD778"/>
</linearGradient>
</defs>
</svg>
