<svg width="4" height="3" viewBox="0 0 4 3" fill="none" xmlns="http://www.w3.org/2000/svg">
<path d="M1.91145 0.0986201C2.05 0.124656 2.17326 0.202883 2.25581 0.317156C2.33221 0.419591 2.38015 0.540412 2.39476 0.66736L1.80835 0.596733C1.7768 0.592241 1.86 0.580489 0.833345 0.829091C2.25864 1.2466 1.86026 1.15125 2.49354 1.22426C2.49761 1.25876 2.49983 1.29346 2.5002 1.3282C2.50771 1.44852 2.47697 1.56813 2.41237 1.66992C2.34778 1.77172 2.25265 1.85047 2.14058 1.89492C2.03426 1.93342 0.713535 2.24313 0.653761 2.25608C0.620826 2.25936 0.5877 2.26038 0.554625 2.25913L1.08066 2.31686C1.15235 2.32884 1.22572 2.32615 1.29634 2.30896C2.79128 1.95109 2.65672 1.99201 2.77835 1.93638C3.23454 1.67092 3.0631 1.20237 2.95802 0.674613C2.93516 0.548899 2.87744 0.432136 2.79144 0.337637C2.69797 0.232277 2.56713 0.167473 2.42667 0.156964L1.91145 0.0986201ZM2.49384 1.20714L1.41165 0.896415C2.44702 0.646909 2.35871 0.664372 2.39476 0.66736C2.49924 1.19932 2.48088 1.11732 2.49504 1.19872L2.49384 1.20714Z" fill="url(#paint0_linear_82_321)"/>
<defs>
<linearGradient id="paint0_linear_82_321" x1="2.04123" y1="0.106373" x2="1.71095" y2="2.42592" gradientUnits="userSpaceOnUse">
<stop stop-color="#9E6100"/>
<stop offset="0.49" stop-color="#642701"/>
<stop offset="0.65" stop-color="#682A01"/>
<stop offset="0.81" stop-color="#753401"/>
<stop offset="0.98" stop-color="#8A4401"/>
<stop offset="1" stop-color="#8C4601"/>
</linearGradient>
</defs>
</svg>
