<svg width="4" height="4" viewBox="0 0 4 4" fill="none" xmlns="http://www.w3.org/2000/svg">
<path d="M3.18754 2.27745C3.23593 2.17724 3.25107 2.06421 3.23076 1.95481C3.21045 1.8454 3.15574 1.74533 3.07461 1.66918L2.98986 1.60133L2.58399 1.54354L2.09867 1.15474L2.50454 1.21253L1.77219 0.629789L1.36632 0.571997C0.901735 0.203317 0.961835 0.248349 0.909248 0.210823C0.85666 0.173296 0.790877 0.183241 1.28837 0.245496C1.2546 0.229377 1.21833 0.219135 1.18111 0.215207C0.775245 0.157415 0.381994 0.101419 0.535815 0.136195C0.58434 0.14695 0.629702 0.168832 0.668321 0.200119C2.55253 1.70427 2.47648 1.60547 2.54026 1.80551C2.57068 1.91872 2.56634 2.03846 2.5278 2.14917C2.48579 2.24833 1.81763 3.42981 1.79842 3.45926C1.7647 3.51039 1.71913 3.55261 1.66559 3.58235C1.61205 3.61208 1.55211 3.62843 1.49089 3.63003C1.46776 3.62673 1.28059 3.60008 2.12447 3.70093C2.2001 3.70651 2.27566 3.68907 2.34121 3.65093C2.40676 3.61278 2.45924 3.5557 2.49176 3.48718C3.22146 2.22005 3.16023 2.33363 3.18754 2.27745Z" fill="url(#paint0_linear_82_210)"/>
<defs>
<linearGradient id="paint0_linear_82_210" x1="1.97904" y1="0.337405" x2="1.50682" y2="3.65375" gradientUnits="userSpaceOnUse">
<stop stop-color="#9E6100"/>
<stop offset="0.49" stop-color="#642701"/>
<stop offset="0.65" stop-color="#682A01"/>
<stop offset="0.81" stop-color="#753401"/>
<stop offset="0.98" stop-color="#8A4401"/>
<stop offset="1" stop-color="#8C4601"/>
</linearGradient>
</defs>
</svg>
