<svg width="2" height="4" viewBox="0 0 2 4" fill="none" xmlns="http://www.w3.org/2000/svg">
<path d="M1.57496 2.67807C1.56179 2.64383 1.53591 2.61599 1.50272 2.60037C1.46953 2.58475 1.43158 2.58254 1.3968 2.59421L1.27536 2.64272L0.509051 0.527898C0.498542 0.493058 0.475692 0.463244 0.444782 0.444039C0.413871 0.424834 0.377019 0.417557 0.341127 0.423568L0.00236755 0.560551C1.02559 3.38702 0.94838 3.17618 0.9617 3.20245C0.976259 3.23208 1.00066 3.25571 1.03073 3.26933C1.0608 3.28295 1.09467 3.2857 1.12654 3.2771L1.70786 3.04549L1.57496 2.67807Z" fill="url(#paint0_linear_130_592)"/>
<defs>
<linearGradient id="paint0_linear_130_592" x1="-0.16361" y1="1.7262" x2="1.85479" y2="2.0136" gradientUnits="userSpaceOnUse">
<stop stop-color="#FFE6AB"/>
<stop offset="1" stop-color="#FFD778"/>
</linearGradient>
</defs>
</svg>
