<svg width="2" height="4" viewBox="0 0 2 4" fill="none" xmlns="http://www.w3.org/2000/svg">
<path d="M1.67089 3.17792C1.65972 3.06047 1.58372 3.05179 1.47946 3.01549C1.85407 1.06271 1.83281 1.21202 1.81956 1.15435C1.81079 1.12364 1.79195 1.09677 1.76606 1.07807C1.66992 1.03408 1.57021 0.998347 1.46801 0.971267L0.798458 1.06259C1.09891 1.1676 1.07697 1.15589 1.10612 1.1772C1.12985 1.19881 1.14607 1.22743 1.15242 1.25889C1.16356 1.31626 1.18092 1.17927 0.811112 3.11343C0.915367 3.14973 0.976652 3.15631 1.00404 3.26534C1.00056 3.3832 0.983888 3.50029 0.954331 3.61443L1.62298 3.51439C1.6476 3.40364 1.66362 3.29115 1.67089 3.17792Z" fill="url(#paint0_linear_82_238)"/>
<defs>
<linearGradient id="paint0_linear_82_238" x1="1.40042" y1="0.963788" x2="1.02133" y2="3.62612" gradientUnits="userSpaceOnUse">
<stop stop-color="#9E6100"/>
<stop offset="0.49" stop-color="#642701"/>
<stop offset="0.65" stop-color="#682A01"/>
<stop offset="0.81" stop-color="#753401"/>
<stop offset="0.98" stop-color="#8A4401"/>
<stop offset="1" stop-color="#8C4601"/>
</linearGradient>
</defs>
</svg>
