<svg width="34" height="16" viewBox="0 0 34 16" fill="none" xmlns="http://www.w3.org/2000/svg">
<path d="M32.7985 14.1943C31.8699 12.3262 30.7426 10.5636 29.4361 8.93728C28.0158 7.16381 26.3638 5.58918 24.5242 4.25567C22.7767 2.99348 20.8581 1.98698 18.8263 1.26658C16.8288 0.563832 14.7397 0.155066 12.6246 0.053089C10.5626 -0.0439261 8.49734 0.157762 6.49305 0.651891C4.33956 1.18655 2.27749 2.03832 0.374432 3.17926C0.400586 3.22161 0.411114 3.25315 0.650192 3.81929C2.58749 2.66741 4.69019 1.81987 6.88478 1.30629C10.4054 0.4935 14.077 0.611083 17.5384 1.64747C19.3369 2.18662 21.0577 2.95743 22.6574 3.9405C24.2879 4.94463 25.7916 6.14134 27.1362 7.50481C29.3553 9.76699 31.1659 12.3964 32.4878 15.2765C32.5517 15.204 32.6295 15.17 33.1289 14.8871C33.107 14.8304 33.168 14.9592 32.7985 14.1943Z" fill="#FFE082"/>
</svg>
