<svg width="4" height="3" viewBox="0 0 4 3" fill="none" xmlns="http://www.w3.org/2000/svg">
<path d="M2.88034 1.69279C2.86453 1.68219 2.84669 1.67499 2.82795 1.67164C2.80921 1.66829 2.78998 1.66886 2.77148 1.67332C2.75297 1.67779 2.73559 1.68605 2.72045 1.69758C2.7053 1.70911 2.69271 1.72366 2.68348 1.7403L2.60676 1.8683L0.822302 0.53702C0.792532 0.514254 0.754987 0.504152 0.717811 0.508896C0.680635 0.51364 0.64683 0.532849 0.623731 0.562362C0.621351 0.579082 0.623728 0.562363 0.410291 0.91459C2.79139 2.69394 2.61288 2.5613 2.63985 2.57732C2.67013 2.59293 2.70506 2.59695 2.7381 2.58865C2.77113 2.58034 2.80001 2.56027 2.8193 2.5322L3.19128 1.92228L2.88034 1.69279Z" fill="url(#paint0_linear_130_627)"/>
<defs>
<linearGradient id="paint0_linear_130_627" x1="0.347709" y1="1.3541" x2="3.21407" y2="1.76224" gradientUnits="userSpaceOnUse">
<stop stop-color="#FFE6AB"/>
<stop offset="1" stop-color="#FFD778"/>
</linearGradient>
</defs>
</svg>
