<svg width="4" height="4" viewBox="0 0 4 4" fill="none" xmlns="http://www.w3.org/2000/svg">
<path d="M2.28696 2.61263C2.77602 2.61361 2.66217 2.62958 2.80423 2.56613C2.86547 2.53623 2.91896 2.49257 2.96053 2.43856C3.00209 2.38455 3.03059 2.32166 3.04381 2.2548C3.09237 2.01927 3.05723 2.02499 2.63242 0.623515C2.60488 0.519058 2.54105 0.427817 2.45236 0.366149C2.33097 0.299516 2.36071 0.316627 1.6025 0.307361C1.67674 0.307796 1.74869 0.333155 1.8068 0.379366C1.95826 0.506066 1.91678 0.450812 2.36056 1.96013C2.39551 2.06661 2.39515 2.18154 2.35953 2.2878C2.32391 2.39406 2.25493 2.48599 2.16287 2.5499C2.12353 2.57005 0.140677 3.44633 0.0715934 3.46438C0.0479403 3.46899 0.0238987 3.47131 -0.000199338 3.47132C0.70995 3.4716 0.982713 3.46967 0.276471 3.4721C0.373798 3.46664 0.33325 3.48018 0.839624 3.25405L1.24937 3.25446L2.14439 2.86053L1.73674 2.86041L2.28696 2.61263Z" fill="url(#paint0_linear_82_217)"/>
<defs>
<linearGradient id="paint0_linear_82_217" x1="1.89056" y1="0.258262" x2="1.40487" y2="3.66924" gradientUnits="userSpaceOnUse">
<stop stop-color="#9E6100"/>
<stop offset="0.49" stop-color="#642701"/>
<stop offset="0.65" stop-color="#682A01"/>
<stop offset="0.81" stop-color="#753401"/>
<stop offset="0.98" stop-color="#8A4401"/>
<stop offset="1" stop-color="#8C4601"/>
</linearGradient>
</defs>
</svg>
