<svg width="6" height="6" viewBox="0 0 6 6" fill="none" xmlns="http://www.w3.org/2000/svg">
<path d="M5.16449 3.17791C5.26788 3.07322 5.33649 2.9392 5.36099 2.79411C5.38549 2.64902 5.36468 2.49991 5.3014 2.36707L5.08913 1.95922L4.68806 1.8828L4.37507 1.27824L4.77614 1.35466C4.71103 1.2044 4.63244 1.06036 4.54133 0.924289C4.48154 0.847539 4.3981 0.792667 4.30394 0.768189C3.48527 0.610853 3.62107 0.636625 3.67665 0.653121C3.9047 0.754252 3.85934 0.756377 4.63055 2.24151C4.69366 2.37476 4.71434 2.52418 4.6898 2.66956C4.66526 2.81495 4.59668 2.9493 4.49334 3.05446C4.44409 3.09894 1.10185 5.77704 1.02016 5.82334C0.936345 5.87023 0.839637 5.88882 0.744414 5.87634C1.49457 6.00247 1.47926 6.0196 1.64896 5.95794C1.78682 5.89389 5.14257 3.19625 5.16449 3.17791Z" fill="url(#paint0_linear_82_222)"/>
<defs>
<linearGradient id="paint0_linear_82_222" x1="3.58081" y1="0.633038" x2="2.79029" y2="6.18482" gradientUnits="userSpaceOnUse">
<stop stop-color="#9E6100"/>
<stop offset="0.49" stop-color="#642701"/>
<stop offset="0.65" stop-color="#682A01"/>
<stop offset="0.81" stop-color="#753401"/>
<stop offset="0.98" stop-color="#8A4401"/>
<stop offset="1" stop-color="#8C4601"/>
</linearGradient>
</defs>
</svg>
