<svg width="11" height="17" viewBox="0 0 11 17" fill="none" xmlns="http://www.w3.org/2000/svg">
<path d="M5.31594 6.42944C9.89368 2.82859 9.54783 3.11809 9.6532 2.97713C9.75634 2.82077 9.80196 2.63344 9.78227 2.44717C9.73915 2.15101 9.68693 2.12409 9.27446 1.49508L8.85411 1.53758L8.3532 0.77657L8.77322 0.736456C8.50108 0.319961 8.42525 0.1337 8.08842 0.0345612C7.93555 0.0127937 8.01164 0.00899841 7.19686 0.0830727C7.28201 0.0781292 7.36729 0.0902723 7.44767 0.118786C7.76369 0.244207 7.70329 0.240487 8.94685 2.13569C9.0506 2.28966 9.09922 2.47419 9.08481 2.6593C9.0704 2.84441 8.9938 3.0192 8.86747 3.15526C8.80301 3.21431 4.6165 6.51506 4.51553 6.5738C4.47759 6.59406 4.4377 6.61042 4.39647 6.62264C3.06146 6.85981 1.87117 7.60725 1.07764 8.7067C0.284102 9.80616 -0.0503668 11.1713 0.145048 12.513C0.340463 13.8548 1.05042 15.0678 2.12459 15.8953C3.19876 16.7227 4.55279 17.0996 5.89999 16.9461C7.24718 16.7926 8.48176 16.1209 9.34229 15.073C10.2028 14.0252 10.6218 12.6836 10.5104 11.3322C10.399 9.9809 9.76605 8.72598 8.74556 7.83318C7.72507 6.94038 6.39717 6.47981 5.04303 6.54899C5.14259 6.53268 5.23645 6.49157 5.31594 6.42944Z" fill="url(#paint0_linear_130_372)"/>
<defs>
<linearGradient id="paint0_linear_130_372" x1="7.72091" y1="-0.0202062" x2="6.72539" y2="6.97132" gradientUnits="userSpaceOnUse">
<stop stop-color="#9E6100"/>
<stop offset="0.49" stop-color="#642701"/>
<stop offset="0.65" stop-color="#682A01"/>
<stop offset="0.81" stop-color="#753401"/>
<stop offset="0.98" stop-color="#8A4401"/>
<stop offset="1" stop-color="#8C4601"/>
</linearGradient>
</defs>
</svg>
