<svg width="33" height="79" viewBox="0 0 33 79" fill="none" xmlns="http://www.w3.org/2000/svg">
<path d="M1.3865 78.4841C4.27064 78.1885 7.09569 77.4708 9.77113 76.3538C12.926 74.9752 14.8189 73.8508 17.6735 71.6544C20.1915 69.6412 22.434 67.3057 24.3434 64.7081C26.3222 62.0144 27.9605 59.0864 29.2207 55.9906C30.5387 52.7498 31.4713 49.3654 31.9994 45.9069C32.5405 42.4148 32.6762 38.8719 32.4037 35.3487C32.1381 31.9161 31.469 28.5267 30.4101 25.2507C29.3738 22.0498 27.9476 18.9885 26.1637 16.1359C24.0614 12.912 22.5793 11.1169 20.0451 8.68457C17.429 6.33072 15.6609 5.08953 12.679 3.50733C10.2573 2.27508 7.68003 1.37606 5.01729 0.834717C7.86593 1.46234 10.6078 2.50216 13.1562 3.92134C14.3115 4.58788 13.8965 4.33626 14.9747 5.01375C15.4671 5.11554 15.374 5.08522 15.4678 5.14489C15.7433 5.31571 16.9171 6.12623 17.5222 6.5999L17.1005 6.51547C18.5735 7.64522 19.9508 8.89447 21.2185 10.2505C23.6813 12.9627 25.0723 14.9008 26.945 18.2309C28.5574 21.2133 29.8013 24.3807 30.6491 27.6633C31.5183 31.025 31.9911 34.4769 32.0578 37.9485C32.1239 41.5019 31.7821 45.0511 31.039 48.5265C29.9868 53.1094 28.6606 56.9125 26.1089 61.3112L26.5238 61.2899C25.9364 62.3005 25.4185 63.0626 24.9912 63.7012L24.5756 63.7273C23.9618 64.6148 23.5601 65.1254 23.1134 65.7125C21.1263 68.2444 18.8127 70.502 16.2329 72.4266C14.984 73.3551 13.6729 74.1968 12.3088 74.9458C10.9957 75.6658 9.6329 76.291 8.23078 76.8168C6.19968 77.5797 4.09067 78.1163 1.94196 78.4169C0.95046 78.5341 0.405232 78.5978 1.3865 78.4841Z" fill="url(#paint0_linear_130_242)"/>
<defs>
<linearGradient id="paint0_linear_130_242" x1="21.3852" y1="3.15804" x2="10.4565" y2="79.9096" gradientUnits="userSpaceOnUse">
<stop stop-color="#9E6100"/>
<stop offset="0.49" stop-color="#642701"/>
<stop offset="0.65" stop-color="#682A01"/>
<stop offset="0.81" stop-color="#753401"/>
<stop offset="0.98" stop-color="#8A4401"/>
<stop offset="1" stop-color="#8C4601"/>
</linearGradient>
</defs>
</svg>
