<svg width="41" height="33" viewBox="0 0 41 33" fill="none" xmlns="http://www.w3.org/2000/svg">
<path d="M3.64186 2.09603L5.79925 2.55556L5.37207 2.54194L8.5302 3.20618L9.11911 4.14827C9.71513 9.02102 11.2814 13.725 13.7255 17.9823C16.7384 23.0716 20.3985 26.8712 25.6682 29.7328C27.367 30.6243 29.1587 31.3262 31.0109 31.8259C32.2318 32.1538 33.4753 32.3911 34.7311 32.5359C36.5843 32.7472 38.4554 32.7487 40.309 32.5405C41.1612 32.4473 40.7019 32.4935 39.8407 32.5747C38.6048 32.6696 37.3637 32.6729 36.1274 32.5845C34.8754 32.4876 33.6323 32.2991 32.4079 32.0206C30.4601 31.5712 28.5702 30.9004 26.775 30.0213C25.0871 29.1902 23.4892 28.1876 22.0066 27.0294C17.5987 23.5095 14.4179 19.2675 12.0135 13.4302C10.8229 10.4556 10.0183 7.34069 9.61929 4.16156L9.03248 3.21977L0.958403 1.50366C0.934934 0.764388 0.941973 1.04646 0.919988 0.266625L0.429123 0.248229C0.442982 0.99472 0.436243 0.710544 0.46724 1.48737C3.67074 2.17953 3.08431 2.07886 3.64186 2.09603Z" fill="url(#paint0_linear_82_118)"/>
<defs>
<linearGradient id="paint0_linear_82_118" x1="22.453" y1="3.34129" x2="18.6219" y2="30.2464" gradientUnits="userSpaceOnUse">
<stop stop-color="#9E6100"/>
<stop offset="0.49" stop-color="#642701"/>
<stop offset="0.65" stop-color="#682A01"/>
<stop offset="0.81" stop-color="#753401"/>
<stop offset="0.98" stop-color="#8A4401"/>
<stop offset="1" stop-color="#8C4601"/>
</linearGradient>
</defs>
</svg>
