<svg width="5" height="5" viewBox="0 0 5 5" fill="none" xmlns="http://www.w3.org/2000/svg">
<path d="M3.6072 1.42363L4.08013 1.43979L4.12026 1.15793C4.13934 1.06978 4.12774 0.977754 4.08736 0.897101C4.04699 0.816449 3.98028 0.752009 3.89827 0.714458L2.02553 0.328384C1.98014 0.321921 2.13745 0.329694 1.20456 0.291905C1.24278 0.297347 3.07798 0.673205 3.12883 0.692631C3.18692 0.724767 3.23567 0.771428 3.27033 0.82805C3.30498 0.884672 3.32435 0.94932 3.32654 1.01567C3.32966 1.1136 3.32824 1.00373 3.12791 2.41063C3.1218 2.47615 3.09884 2.53897 3.06125 2.59298C3.02367 2.64699 2.97274 2.69034 2.91343 2.71884C2.82405 2.74754 2.94893 2.76045 1.69486 2.49659C1.65187 2.49047 1.75867 2.49349 0.872873 2.46728C0.920646 2.47408 1.41954 2.58168 2.74698 2.86086C2.83114 2.88932 2.90271 2.94626 2.94935 3.02187C2.99598 3.09748 3.01475 3.187 3.0024 3.27497C2.99526 3.32513 2.81431 4.59589 2.80547 4.65799C2.79187 4.72198 2.76023 4.78074 2.7143 4.82732C2.66837 4.8739 2.61006 4.90634 2.54627 4.92084C2.51522 4.91642 2.34905 4.91957 3.30616 4.94131C3.36726 4.93847 3.42559 4.91499 3.47161 4.8747C3.61486 4.74156 3.60764 4.62112 3.64369 4.36792L3.15814 4.35483C3.18841 4.14225 3.16563 4.30229 3.26834 3.58092L3.75355 3.59639C3.79062 3.33603 3.8574 3.10671 3.64099 2.93211C3.55839 2.87891 3.60446 2.89766 2.84485 2.73832C3.70881 2.76386 3.62522 2.76901 3.70437 2.74373C3.91621 2.64229 3.91647 2.45224 3.95151 2.22327L3.47858 2.20711L3.6072 1.42363Z" fill="url(#paint0_linear_130_267)"/>
<defs>
<linearGradient id="paint0_linear_130_267" x1="2.70594" y1="0.410645" x2="2.07434" y2="4.84633" gradientUnits="userSpaceOnUse">
<stop stop-color="#9E6100"/>
<stop offset="0.49" stop-color="#642701"/>
<stop offset="0.65" stop-color="#682A01"/>
<stop offset="0.81" stop-color="#753401"/>
<stop offset="0.98" stop-color="#8A4401"/>
<stop offset="1" stop-color="#8C4601"/>
</linearGradient>
</defs>
</svg>
