<svg width="3" height="6" viewBox="0 0 3 6" fill="none" xmlns="http://www.w3.org/2000/svg">
<path d="M1.76044 4.59741C0.419533 5.45686 0.4523 5.48345 0.238352 5.46274C1.07915 5.58246 1.08633 5.6176 1.27736 5.50832C2.64862 4.62396 2.61317 4.68471 2.7277 4.44513C2.76133 4.36133 2.7771 4.27143 2.774 4.18119C2.7709 4.09094 2.74901 4.00234 2.70972 3.92104L2.25588 3.85642L1.94811 3.12534L2.40196 3.18996L1.90359 2.01745L1.45214 1.95317C1.13857 1.21152 1.18058 1.31011 1.14882 1.24222C1.13311 1.21562 1.07954 1.2153 1.59072 1.30514C1.56397 1.25621 1.5279 1.21299 1.48454 1.17792C1.3562 1.08654 1.38249 1.10734 0.539291 0.970215C0.613057 0.982792 0.682255 1.01442 0.740031 1.06198C0.797808 1.10953 0.842158 1.17136 0.868685 1.24133C2.10077 4.15846 1.99111 3.88452 2.01232 3.99233C2.03076 4.10663 2.01696 4.22382 1.97246 4.33071C1.92797 4.4376 1.85454 4.52996 1.76044 4.59741Z" fill="url(#paint0_linear_130_321)"/>
<defs>
<linearGradient id="paint0_linear_130_321" x1="1.8643" y1="1.1467" x2="1.22895" y2="5.60866" gradientUnits="userSpaceOnUse">
<stop stop-color="#9E6100"/>
<stop offset="0.49" stop-color="#642701"/>
<stop offset="0.65" stop-color="#682A01"/>
<stop offset="0.81" stop-color="#753401"/>
<stop offset="0.98" stop-color="#8A4401"/>
<stop offset="1" stop-color="#8C4601"/>
</linearGradient>
</defs>
</svg>
