<svg width="4" height="4" viewBox="0 0 4 4" fill="none" xmlns="http://www.w3.org/2000/svg">
<path d="M3.02282 1.79084C3.02814 1.47965 2.92333 1.35993 2.66414 0.886793C2.5947 0.755128 2.47704 0.655419 2.33576 0.60852C2.23305 0.593894 2.29277 0.602396 1.43464 0.638616C1.74242 0.650759 1.84045 0.869431 1.97499 1.10549C1.79034 1.0982 1.60546 1.1111 1.42361 1.14395C1.40246 1.15556 1.28786 1.25866 0.742143 1.73661L1.531 1.69052L2.05114 1.23818C2.13933 1.34955 2.19919 1.48066 2.22558 1.62025C2.25198 1.75983 2.24411 1.90373 2.20266 2.03962C1.63411 2.05845 1.06786 2.12122 0.508979 2.22738C0.756556 2.66231 0.731974 2.62956 0.767471 2.65411C0.802968 2.67867 0.742233 2.67732 1.6123 2.62574C1.63618 2.62915 1.65289 2.59741 1.11876 3.06238C1.04805 3.12843 0.95615 3.16717 0.859494 3.17168C1.78927 3.11155 1.68998 3.12422 1.78448 3.09381C1.87898 3.0634 1.79916 3.11053 2.85035 2.19765C2.90509 2.145 2.94859 2.08181 2.97823 2.01189C3.00787 1.94198 3.02304 1.86678 3.02282 1.79084ZM1.61025 2.62302C1.51437 2.62887 1.50035 2.55619 1.28828 2.17993L2.18424 2.04918C2.11095 2.20447 2.10003 2.1956 1.61025 2.62302Z" fill="url(#paint0_linear_130_291)"/>
<defs>
<linearGradient id="paint0_linear_130_291" x1="1.96826" y1="0.553753" x2="1.58086" y2="3.2744" gradientUnits="userSpaceOnUse">
<stop stop-color="#9E6100"/>
<stop offset="0.49" stop-color="#642701"/>
<stop offset="0.65" stop-color="#682A01"/>
<stop offset="0.81" stop-color="#753401"/>
<stop offset="0.98" stop-color="#8A4401"/>
<stop offset="1" stop-color="#8C4601"/>
</linearGradient>
</defs>
</svg>
