<svg width="3" height="4" viewBox="0 0 3 4" fill="none" xmlns="http://www.w3.org/2000/svg">
<path d="M2.60883 1.46919C2.60721 1.33013 2.5666 1.19432 2.49162 1.07719C2.40694 0.953032 2.43835 0.989188 1.99049 0.574481C1.93351 0.520984 1.86661 0.479164 1.79355 0.45139C1.64169 0.405396 1.68606 0.419024 0.811571 0.501656C0.892804 0.490851 0.975445 0.502618 1.05043 0.535667C1.15931 0.5926 1.13064 0.571457 1.51364 0.928189C1.29322 0.940273 1.07355 0.963495 0.855473 0.997759C0.806007 1.01996 0.847611 0.967393 0.311982 1.87082L1.09093 1.79165L1.57167 0.982756C1.69133 1.08643 1.77286 1.22716 1.8033 1.38253C1.83373 1.5379 1.8113 1.69899 1.7396 1.84015L1.18038 1.89943L0.216022 2.44205L0.540993 2.74422C0.59185 2.78071 0.553972 2.77288 1.2292 2.7033C0.995986 3.09171 1.01304 3.07464 0.922309 3.14702C0.854887 3.20772 0.77023 3.24593 0.6801 3.25631C1.5365 3.16379 1.44711 3.17544 1.49453 3.16757C1.55988 3.15359 1.62145 3.12572 1.67507 3.08584C1.72869 3.04595 1.77309 2.99499 1.80527 2.93642C2.55709 1.7299 2.59598 1.73057 2.60883 1.46919ZM1.66256 2.00465L1.28785 2.63367L1.00794 2.37447L1.66256 2.00465Z" fill="url(#paint0_linear_130_313)"/>
<defs>
<linearGradient id="paint0_linear_130_313" x1="1.63965" y1="0.419728" x2="1.22199" y2="3.35297" gradientUnits="userSpaceOnUse">
<stop stop-color="#9E6100"/>
<stop offset="0.49" stop-color="#642701"/>
<stop offset="0.65" stop-color="#682A01"/>
<stop offset="0.81" stop-color="#753401"/>
<stop offset="0.98" stop-color="#8A4401"/>
<stop offset="1" stop-color="#8C4601"/>
</linearGradient>
</defs>
</svg>
