<svg width="34" height="85" viewBox="0 0 34 85" fill="none" xmlns="http://www.w3.org/2000/svg">
<path d="M6.891 83.3044C8.42707 82.739 9.92124 82.0657 11.3623 81.2895C12.8616 80.4811 14.3032 79.57 15.6767 78.5626C17.0842 77.5283 18.4205 76.4004 19.6766 75.1866C22.5489 72.3177 24.1418 70.3049 26.3274 66.8167C28.4266 63.2163 29.5259 60.7847 30.8789 56.6394C32.0249 52.9224 32.7349 49.0847 32.9946 45.2037C33.2565 41.3699 33.0688 37.5186 32.4353 33.7284C31.6567 29.4916 30.9004 26.9127 29.2735 22.9864C27.5431 19.1527 26.2035 16.871 23.7207 13.5637C21.183 10.4022 19.4209 8.67442 16.4131 6.35011C15.1017 5.37224 13.7237 4.48709 12.289 3.70112C10.19 2.55259 7.97175 1.63691 5.67376 0.970368C4.33844 0.609637 4.55923 0.667882 4.46027 0.644043C5.60203 0.934374 6.7276 1.285 7.83225 1.69445C8.81102 2.07753 8.74514 2.02672 8.16263 1.89016C8.608 2.06568 8.29744 1.93616 9.61511 2.5064C9.86336 2.65632 10.1401 2.75299 10.4277 2.79026C12.3692 3.69936 14.2178 4.79509 15.9472 6.062L15.5336 5.97142C16.0576 6.34822 16.6945 6.83859 17.1891 7.25021L17.6078 7.33907C19.3421 8.76251 20.9464 10.3374 22.4016 12.0453L21.9914 11.9649C22.5998 12.673 23.1757 13.4033 23.368 13.6621L23.7785 13.7401C25.2094 15.5986 26.4828 17.5734 27.5853 19.6437L27.1769 19.5855C27.7175 20.6154 27.4873 20.161 28.2004 21.6224L28.6065 21.6803C29.6412 23.8897 30.4986 26.1778 31.1707 28.5231L30.7695 28.466C31.1348 29.7853 30.9991 29.2663 31.3639 30.744L31.7668 30.7891C31.7844 30.8496 31.7984 30.911 31.8089 30.973C32.3589 33.3485 32.7223 35.7632 32.8959 38.1953L32.4956 38.1651C32.586 39.6012 32.5598 39.0492 32.6134 40.5556L33.0144 40.581C33.0734 43.1035 32.9479 45.627 32.6387 48.1311L32.2361 48.1177C31.9824 49.8996 32.066 49.312 31.8775 50.4818L32.2809 50.4904C31.8534 52.9541 31.2389 55.3816 30.4427 57.7519L30.037 57.7599C29.933 58.079 29.6192 58.9824 29.2348 59.9707L29.6432 59.9606C28.754 62.2307 27.6812 64.4244 26.4354 66.5201L26.0249 66.5445C25.7737 66.9742 25.3086 67.7244 24.8043 68.4764L25.2178 68.4475C23.9194 70.4022 22.4533 72.2402 20.8361 73.9406L20.4188 73.9787C19.9564 74.4709 19.3622 75.0663 18.8704 75.5251L19.2908 75.4826C17.6641 77.0269 15.9026 78.4228 14.0275 79.6536L13.6013 79.7026C12.7567 80.2598 12.0435 80.6822 11.8234 80.8069L12.2523 80.7558C10.4896 81.7815 8.63951 82.6492 6.72383 83.3488C6.48526 83.4527 6.22892 83.5097 5.9688 83.5167C3.96246 84.2058 3.64649 84.1828 4.48581 84.0732L3.8642 84.2284C2.5913 84.5601 1.29997 84.8164 -0.00307835 84.9962C2.35092 84.6915 4.66337 84.124 6.891 83.3044Z" fill="url(#paint0_linear_130_243)"/>
<defs>
<linearGradient id="paint0_linear_130_243" x1="21.6011" y1="3.08473" x2="9.73641" y2="86.4098" gradientUnits="userSpaceOnUse">
<stop stop-color="#9E6100"/>
<stop offset="0.49" stop-color="#642701"/>
<stop offset="0.65" stop-color="#682A01"/>
<stop offset="0.81" stop-color="#753401"/>
<stop offset="0.98" stop-color="#8A4401"/>
<stop offset="1" stop-color="#8C4601"/>
</linearGradient>
</defs>
</svg>
