<svg width="4" height="4" viewBox="0 0 4 4" fill="none" xmlns="http://www.w3.org/2000/svg">
<path d="M0.882818 2.45476C0.88663 2.5709 0.923646 2.68352 0.989483 2.77928C1.05532 2.87504 1.14722 2.94992 1.2543 2.99506C1.44375 3.10476 1.64593 3.19084 1.85631 3.25138C1.99994 3.27976 2.149 3.25314 2.27393 3.1768C2.5434 2.99584 2.50176 2.98016 3.18038 1.3806C3.22163 1.30492 3.24658 1.22145 3.25363 1.13555C3.26069 1.04965 3.24968 0.963225 3.22133 0.881834C3.19298 0.800442 3.14791 0.725885 3.08902 0.662957C3.03013 0.600028 2.95872 0.550121 2.87938 0.516446C2.70451 0.429154 2.52534 0.350771 2.34255 0.281597C2.1876 0.237845 2.0218 0.254862 1.87898 0.329179C1.73616 0.403495 1.62707 0.529509 1.57398 0.681507C0.894668 2.25173 0.88032 2.21557 0.882818 2.45476ZM2.06606 0.785693C2.15271 0.741978 2.14759 0.760747 2.59194 0.960493L1.56498 1.89145C2.02717 0.802088 1.99852 0.832128 2.06606 0.785693ZM2.56835 1.58833C2.09628 2.69578 2.12628 2.65618 2.06352 2.7033C2.04907 2.71353 2.03273 2.72077 2.01544 2.72458C1.99816 2.7284 1.98028 2.72872 1.96287 2.72552C1.81355 2.66812 1.66749 2.60258 1.52535 2.52919L2.56835 1.58833Z" fill="url(#paint0_linear_130_584)"/>
<defs>
<linearGradient id="paint0_linear_130_584" x1="0.992637" y1="1.59792" x2="3.13763" y2="1.90335" gradientUnits="userSpaceOnUse">
<stop stop-color="#FFE6AB"/>
<stop offset="1" stop-color="#FFD778"/>
</linearGradient>
</defs>
</svg>
