<svg width="3" height="4" viewBox="0 0 3 4" fill="none" xmlns="http://www.w3.org/2000/svg">
<path d="M2.76658 1.84955C2.13146 0.388091 2.1931 0.512729 2.11434 0.402819C2.07471 0.346746 2.02384 0.29954 1.96497 0.264192C1.9061 0.228845 1.84051 0.206134 1.77239 0.197504C1.67355 0.183431 1.77449 0.182782 1.04095 0.286456C1.13651 0.278141 1.23242 0.297767 1.31702 0.342954C1.40163 0.38814 1.47128 0.456938 1.51751 0.540978C1.62283 0.73758 1.71426 0.941307 1.79115 1.15067L1.3526 1.21696L1.34792 1.49093L1.16568 1.06804C1.15602 1.03509 1.15727 0.999895 1.16924 0.967707C1.19384 0.900406 1.20076 0.912118 1.59299 0.719081L0.964294 0.809789C0.557643 1.01365 0.568746 0.99592 0.543239 1.05451C0.517731 1.1131 0.50781 1.09238 0.945057 2.10513L1.34186 2.04577L1.33546 2.49757L1.96085 2.39996L1.97278 1.56273C2.13307 1.94387 2.2981 2.1712 2.12072 2.52786C2.06443 2.62879 1.97789 2.70952 1.8733 2.75868C1.38195 2.99983 1.39907 3.00012 1.25369 3.02662C2.02206 2.90431 1.93736 2.92658 2.08152 2.86343C2.54223 2.64152 2.59 2.63759 2.71399 2.47501C2.77599 2.38416 2.81341 2.27881 2.82263 2.16921C2.83184 2.05961 2.81253 1.94948 2.76658 1.84955Z" fill="url(#paint0_linear_82_279)"/>
<defs>
<linearGradient id="paint0_linear_82_279" x1="1.88174" y1="0.213075" x2="1.4766" y2="3.05836" gradientUnits="userSpaceOnUse">
<stop stop-color="#9E6100"/>
<stop offset="0.49" stop-color="#642701"/>
<stop offset="0.65" stop-color="#682A01"/>
<stop offset="0.81" stop-color="#753401"/>
<stop offset="0.98" stop-color="#8A4401"/>
<stop offset="1" stop-color="#8C4601"/>
</linearGradient>
</defs>
</svg>
