<svg width="3" height="3" viewBox="0 0 3 3" fill="none" xmlns="http://www.w3.org/2000/svg">
<path d="M2.37066 1.47828C2.36038 1.46638 2.34779 1.45667 2.33367 1.44975C2.31954 1.44283 2.30416 1.43882 2.28845 1.43799C2.27274 1.43715 2.25702 1.4395 2.24224 1.44489C2.22746 1.45028 2.21392 1.4586 2.20243 1.46935L2.10935 1.56551C0.422596 -0.406149 0.903793 0.147275 0.812427 0.0505872C0.801378 0.0386364 0.78799 0.0290787 0.773098 0.0225086C0.758207 0.0159386 0.742126 0.0124943 0.72585 0.0123891C0.709574 0.0122839 0.693453 0.0155185 0.678478 0.0218955C0.663503 0.0282726 0.649999 0.0376551 0.638796 0.0494621L0.409398 0.289285L1.99817 2.15045C2.01778 2.17657 2.04697 2.19382 2.07931 2.19842C2.11164 2.20303 2.14448 2.19461 2.17061 2.175C2.18532 2.16208 2.20064 2.14495 2.59548 1.73773L2.37066 1.47828Z" fill="url(#paint0_linear_82_522)"/>
<defs>
<linearGradient id="paint0_linear_82_522" x1="0.313271" y1="0.949314" x2="2.65806" y2="1.28319" gradientUnits="userSpaceOnUse">
<stop stop-color="#FFE6AB"/>
<stop offset="1" stop-color="#FFD778"/>
</linearGradient>
</defs>
</svg>
