<svg width="4" height="4" viewBox="0 0 4 4" fill="none" xmlns="http://www.w3.org/2000/svg">
<path d="M2.8662 3.10388C2.8704 3.07444 3.06958 1.81116 3.06353 1.71804C3.06396 1.6475 3.04519 1.57818 3.00923 1.5175C2.97327 1.45682 2.92148 1.40706 2.85941 1.37357C2.7909 1.34236 2.98138 1.39094 0.713746 0.95219C0.624977 0.938368 0.534322 0.959808 0.46115 1.01193C0.387979 1.06406 0.338096 1.14273 0.322154 1.23114C0.316764 1.26899 0.119371 2.51966 0.126021 2.60857C0.127277 2.70425 0.161965 2.79648 0.224072 2.86927C0.347296 2.99839 0.213587 2.94288 2.47251 3.38253C2.5614 3.39585 2.65201 3.3743 2.72538 3.32236C2.79876 3.27043 2.84921 3.19215 2.8662 3.10388Z" fill="url(#paint0_linear_82_504)"/>
<defs>
<linearGradient id="paint0_linear_82_504" x1="0.212545" y1="1.97078" x2="2.98422" y2="2.36544" gradientUnits="userSpaceOnUse">
<stop stop-color="#FFE6AB"/>
<stop offset="1" stop-color="#FFD778"/>
</linearGradient>
</defs>
</svg>
