<svg width="36" height="93" viewBox="0 0 36 93" fill="none" xmlns="http://www.w3.org/2000/svg">
<path d="M35.1648 51.4421C35.5275 48.1793 35.5936 44.8904 35.3625 41.6156C35.1407 38.5198 34.6481 35.4494 33.8905 32.4396C32.1674 25.9013 29.9621 21.2575 26.6257 16.3453C23.3009 11.6987 19.8675 8.176 14.9076 4.94655C12.6193 3.47863 10.1763 2.26732 7.6227 1.33456C6.36352 0.895646 6.24604 0.846734 4.33554 0.310791C8.14427 1.35059 11.759 3.00149 15.039 5.19913C17.3314 6.72435 19.4603 8.48202 21.3919 10.4442C23.4223 12.5032 25.2466 14.7556 26.8388 17.1695C30.3364 22.5616 32.3232 27.5198 33.7669 33.5184C34.4626 36.5678 34.8878 39.6725 35.0377 42.7966C35.1947 46.0897 35.0536 49.3902 34.6162 52.6578C34.2018 55.7868 33.5153 58.8737 32.5645 61.8835C31.6005 64.93 30.3502 67.8785 28.8303 70.6893C27.4498 73.2434 25.8394 75.6662 24.0191 77.9279C22.2139 80.17 20.1903 82.2271 17.9781 84.0688C15.9303 85.7756 13.72 87.2775 11.3792 88.5532C7.50162 90.5908 4.52663 91.6541 0.251986 92.4572C4.04995 91.7771 6.86583 90.9422 10.9173 88.9487C13.2742 87.745 15.5065 86.3114 17.5816 84.6689C19.8266 82.8963 21.8887 80.9035 23.7368 78.7202C25.5901 76.5311 27.2389 74.1768 28.6626 71.6867C30.2432 68.929 31.5574 66.0268 32.5872 63.0196C33.8331 59.2427 34.5713 56.2882 35.1648 51.4421Z" fill="url(#paint0_linear_82_159)"/>
<defs>
<linearGradient id="paint0_linear_82_159" x1="23.0244" y1="2.97191" x2="10.0842" y2="93.8508" gradientUnits="userSpaceOnUse">
<stop stop-color="#9E6100"/>
<stop offset="0.49" stop-color="#642701"/>
<stop offset="0.65" stop-color="#682A01"/>
<stop offset="0.81" stop-color="#753401"/>
<stop offset="0.98" stop-color="#8A4401"/>
<stop offset="1" stop-color="#8C4601"/>
</linearGradient>
</defs>
</svg>
