<svg width="3" height="4" viewBox="0 0 3 4" fill="none" xmlns="http://www.w3.org/2000/svg">
<path d="M2.22346 2.93478C2.21623 2.78022 1.93639 1.20259 1.93127 1.18724C1.90561 1.04113 1.82803 0.90922 1.71281 0.815789C1.59759 0.722358 1.45249 0.673705 1.30423 0.678784C1.20051 0.688385 0.733081 0.753426 0.631073 0.785206C0.557043 0.810233 0.488984 0.850291 0.431171 0.90287C0.373358 0.955449 0.327036 1.01942 0.295117 1.09075C0.177526 1.36889 0.207883 1.34396 0.500749 3.06968C0.510513 3.22911 0.581903 3.37849 0.699818 3.48624C0.817733 3.59399 0.972931 3.65167 1.1326 3.64706C1.24383 3.63609 1.13259 3.64705 1.71671 3.56694C1.86506 3.54431 1.99949 3.46677 2.09336 3.34968C2.18722 3.23259 2.23366 3.0845 2.22346 2.93478ZM0.7197 1.34372C0.766065 1.25772 0.782796 1.27716 1.24852 1.207L0.909289 2.56245C0.687628 1.34647 0.687318 1.4171 0.7197 1.34372ZM1.74577 2.93501C1.73908 2.97025 1.71889 3.00148 1.68951 3.02204C1.6496 3.0456 1.67279 3.03672 1.21219 3.10517L1.55893 1.76542C1.76386 2.96196 1.75598 2.88041 1.74577 2.93501Z" fill="url(#paint0_linear_130_580)"/>
<defs>
<linearGradient id="paint0_linear_130_580" x1="0.1338" y1="2.00117" x2="2.3194" y2="2.31238" gradientUnits="userSpaceOnUse">
<stop stop-color="#FFE6AB"/>
<stop offset="1" stop-color="#FFD778"/>
</linearGradient>
</defs>
</svg>
