<svg width="4" height="3" viewBox="0 0 4 3" fill="none" xmlns="http://www.w3.org/2000/svg">
<path d="M2.40894 0.165352C2.56631 0.194924 2.70632 0.283779 2.80008 0.413577C2.88686 0.529927 2.94131 0.667162 2.9579 0.811355L2.29182 0.731133C2.25599 0.726032 2.3505 0.712683 1.18437 0.995057C2.80329 1.46928 2.3508 1.36098 3.07011 1.44391C3.07472 1.4831 3.07725 1.52251 3.07767 1.56197C3.0862 1.69864 3.05128 1.8345 2.97791 1.95012C2.90454 2.06574 2.79648 2.15519 2.6692 2.20568C2.54843 2.24941 1.04828 2.6012 0.980389 2.6159C0.94298 2.61963 0.905353 2.62079 0.867786 2.61936L1.46528 2.68494C1.54671 2.69855 1.63005 2.69549 1.71027 2.67596C3.40829 2.26949 3.25545 2.31596 3.39361 2.25277C3.91177 1.95125 3.71704 1.41905 3.59768 0.819594C3.57172 0.676802 3.50616 0.544176 3.40847 0.43684C3.3023 0.317166 3.15368 0.243558 2.99415 0.231622L2.40894 0.165352ZM3.07045 1.42446L1.84124 1.07153C3.01727 0.788126 2.91696 0.807962 2.9579 0.811355C3.07658 1.41559 3.05573 1.32245 3.07181 1.41491L3.07045 1.42446Z" fill="url(#paint0_linear_130_413)"/>
<defs>
<linearGradient id="paint0_linear_130_413" x1="2.55635" y1="0.174158" x2="2.1812" y2="2.80882" gradientUnits="userSpaceOnUse">
<stop stop-color="#9E6100"/>
<stop offset="0.49" stop-color="#642701"/>
<stop offset="0.65" stop-color="#682A01"/>
<stop offset="0.81" stop-color="#753401"/>
<stop offset="0.98" stop-color="#8A4401"/>
<stop offset="1" stop-color="#8C4601"/>
</linearGradient>
</defs>
</svg>
