<svg width="3" height="4" viewBox="0 0 3 4" fill="none" xmlns="http://www.w3.org/2000/svg">
<path d="M0.242866 2.36766C0.522058 2.51765 0.824546 2.61947 1.1376 2.66886C1.11026 2.72602 1.07454 2.77879 1.03163 2.82541C0.964916 2.90138 0.877823 2.95664 0.780672 2.98463C0.683521 3.01263 0.58038 3.01219 0.483469 2.98338C1.22104 3.16779 1.14954 3.1576 1.25618 3.16206C1.36148 3.16028 1.46421 3.12933 1.55297 3.07265C1.64172 3.01597 1.71301 2.93578 1.75891 2.841C1.79552 2.76468 2.32607 1.52499 2.35967 1.42464C2.40411 1.29496 2.40064 1.15365 2.34987 1.02631C2.2904 0.900317 2.18585 0.80121 2.05685 0.748572C1.49018 0.494091 1.75607 0.585591 0.965924 0.378676C1.05756 0.41318 1.4085 0.57043 1.50255 0.618151C1.95359 0.916243 1.73657 1.29515 1.58533 1.64909L1.17133 1.54294L1.03861 1.66136C1.30658 1.03009 1.28945 1.0298 1.36123 0.992816C1.38359 0.981578 1.40892 0.977677 1.43363 0.981668C0.76335 0.806841 0.801803 0.808025 0.749842 0.826373C0.697881 0.844722 0.682875 0.874768 0.288274 1.8077L0.745537 1.92644L0.242866 2.36766ZM1.41067 2.03188C1.14211 2.66735 1.16161 2.62078 1.14631 2.65293L0.864168 2.52479L1.41067 2.03188Z" fill="url(#paint0_linear_82_264)"/>
<defs>
<linearGradient id="paint0_linear_82_264" x1="1.48355" y1="0.450235" x2="1.09997" y2="3.14411" gradientUnits="userSpaceOnUse">
<stop stop-color="#9E6100"/>
<stop offset="0.49" stop-color="#642701"/>
<stop offset="0.65" stop-color="#682A01"/>
<stop offset="0.81" stop-color="#753401"/>
<stop offset="0.98" stop-color="#8A4401"/>
<stop offset="1" stop-color="#8C4601"/>
</linearGradient>
</defs>
</svg>
