<svg width="2" height="3" viewBox="0 0 2 3" fill="none" xmlns="http://www.w3.org/2000/svg">
<path d="M1.80071 1.12389C1.77648 0.691322 1.47543 0.590525 1.10824 0.381613C1.02387 0.329146 0.92427 0.306653 0.825535 0.31776C0.769189 0.326398 0.715159 0.346284 0.666661 0.376239C0.618162 0.406195 0.576188 0.445606 0.543238 0.492122C0.474195 0.600298 0.515308 0.507454 0.0520807 1.8018C-0.00326116 1.94027 -0.00573561 2.09426 0.0451266 2.23445C0.0959888 2.37463 0.196633 2.49121 0.327896 2.56198C0.755482 2.81382 0.758498 2.83785 0.897293 2.85762C0.965744 2.86361 1.03458 2.85164 1.09699 2.8229C1.1594 2.79416 1.21324 2.74964 1.25319 2.69374C1.32914 2.58225 1.27843 2.69733 1.76236 1.34801C1.78938 1.27645 1.8024 1.20036 1.80071 1.12389ZM0.940336 2.38957C0.929148 2.39567 0.916757 2.39923 0.904041 2.40002C0.891325 2.4008 0.878593 2.39879 0.86674 2.39411C0.749629 2.33609 0.636408 2.27051 0.527796 2.19781L1.28839 1.49722C0.95716 2.39197 0.982972 2.34629 0.933121 2.37996L0.940336 2.38957ZM0.519743 1.6667C0.850065 0.748222 0.820651 0.804112 0.861791 0.771349C0.902931 0.738586 0.943494 0.755089 1.29205 0.959203L0.519743 1.6667Z" fill="url(#paint0_linear_82_459)"/>
<defs>
<linearGradient id="paint0_linear_82_459" x1="0.080459" y1="1.45181" x2="1.71865" y2="1.68508" gradientUnits="userSpaceOnUse">
<stop stop-color="#FFE6AB"/>
<stop offset="1" stop-color="#FFD778"/>
</linearGradient>
</defs>
</svg>
