<svg width="4" height="3" viewBox="0 0 4 3" fill="none" xmlns="http://www.w3.org/2000/svg">
<path d="M3.22384 0.964808C3.24437 0.877452 3.23322 0.785641 3.19238 0.705738C3.15154 0.625834 3.08366 0.563025 3.00083 0.5285C2.97455 0.524759 1.12401 0.188147 1.05543 0.190567C0.99094 0.198841 0.930285 0.225815 0.880947 0.268161C0.83161 0.310506 0.79575 0.36637 0.777793 0.42886C0.748488 0.514858 0.770952 0.391329 0.569262 1.80779C0.549303 1.8945 0.560507 1.98548 0.600909 2.06475C0.641312 2.14403 0.708334 2.20656 0.790223 2.24137C0.818887 2.24545 2.66602 2.58889 2.73426 2.58885C2.77601 2.58545 2.81653 2.57311 2.85308 2.55267C2.88963 2.53222 2.92136 2.50415 2.9461 2.47036C3.05386 2.32973 3.02725 2.34544 3.22384 0.964808Z" fill="url(#paint0_linear_130_508)"/>
<defs>
<linearGradient id="paint0_linear_130_508" x1="0.653951" y1="1.21302" x2="3.14052" y2="1.56708" gradientUnits="userSpaceOnUse">
<stop stop-color="#FFE6AB"/>
<stop offset="1" stop-color="#FFD778"/>
</linearGradient>
</defs>
</svg>
