<svg width="4" height="3" viewBox="0 0 4 3" fill="none" xmlns="http://www.w3.org/2000/svg">
<path d="M1.29424 0.456019C1.15926 0.504486 1.04567 0.598993 0.973478 0.722924C0.901284 0.846855 0.875098 0.992273 0.899522 1.1336C0.914291 1.24084 1.00193 1.72535 1.03833 1.84639C1.07038 1.96202 1.13751 2.06486 1.23047 2.14073C1.32342 2.21661 1.43762 2.26178 1.55732 2.27002C1.68379 2.27087 1.56724 2.29075 3.04446 1.9368C3.15563 1.91559 3.25769 1.86099 3.33703 1.78029C3.41638 1.69958 3.46923 1.59661 3.48854 1.48509C3.50712 1.37539 3.50565 1.26323 3.48418 1.15405C3.35893 0.526871 3.37757 0.561708 3.31743 0.426555C3.26329 0.30913 3.16981 0.214319 3.05316 0.158529C2.93651 0.102739 2.80403 0.0894783 2.67864 0.121039C1.25639 0.45063 1.36242 0.429252 1.29424 0.456019ZM2.86632 0.626228C2.89731 0.644282 2.92005 0.673681 2.92974 0.708207C2.92675 0.729237 2.92161 0.659847 3.02128 1.1804L1.83183 0.839384C2.84257 0.582078 2.79811 0.577894 2.86782 0.615713L2.86632 0.626228ZM2.57234 1.53057C1.53697 1.78008 1.59735 1.77795 1.53455 1.75184C1.47176 1.72574 1.45971 1.65965 1.36877 1.18326L2.57234 1.53057Z" fill="url(#paint0_linear_82_538)"/>
<defs>
<linearGradient id="paint0_linear_82_538" x1="0.900657" y1="0.990012" x2="3.50621" y2="1.36102" gradientUnits="userSpaceOnUse">
<stop stop-color="#FFE6AB"/>
<stop offset="1" stop-color="#FFD778"/>
</linearGradient>
</defs>
</svg>
