<svg width="4" height="8" viewBox="0 0 4 8" fill="none" xmlns="http://www.w3.org/2000/svg">
<path d="M2.37777 7.15035L2.84147 7.1457L3.32455 6.98784C3.46626 6.92396 3.58236 6.81426 3.65415 6.67639C3.72594 6.53852 3.74926 6.38051 3.72035 6.22778C3.71112 6.17285 2.64423 1.13706 2.5964 0.993774C2.56303 0.88907 2.4984 0.797097 2.4112 0.730219C2.324 0.663342 2.21841 0.624768 2.10864 0.619688C1.02904 0.602439 1.33066 0.589339 1.47092 0.631243C1.53781 0.655086 1.59889 0.692849 1.6501 0.742049C1.8621 0.964763 1.74252 0.623609 2.92257 6.16536C2.96253 6.31805 2.95149 6.47961 2.89113 6.62544C2.83077 6.77127 2.7244 6.89338 2.58821 6.97316C2.52851 6.99878 1.12498 7.45937 1.02672 7.48194C0.995672 7.47752 0.736015 7.48685 1.75862 7.47648C1.86166 7.47166 1.81834 7.48499 2.20453 7.3572L1.73127 7.36049L2.37777 7.15035Z" fill="url(#paint0_linear_130_288)"/>
<defs>
<linearGradient id="paint0_linear_130_288" x1="2.92589" y1="0.73362" x2="1.94601" y2="7.61527" gradientUnits="userSpaceOnUse">
<stop stop-color="#9E6100"/>
<stop offset="0.49" stop-color="#642701"/>
<stop offset="0.65" stop-color="#682A01"/>
<stop offset="0.81" stop-color="#753401"/>
<stop offset="0.98" stop-color="#8A4401"/>
<stop offset="1" stop-color="#8C4601"/>
</linearGradient>
</defs>
</svg>
