<svg width="3" height="3" viewBox="0 0 3 3" fill="none" xmlns="http://www.w3.org/2000/svg">
<path d="M2.20953 1.0891C2.2105 1.02822 2.19101 0.968779 2.15418 0.920297C2.08055 0.834716 2.09618 0.860541 1.26941 0.714925L0.555325 0.651868L1.35085 0.79089C1.40467 0.808152 1.45067 0.843852 1.48075 0.891702C1.51083 0.939552 1.52306 0.996482 1.51529 1.05246C1.5108 1.08401 1.32664 2.37732 1.32065 2.41938C1.31413 2.46988 1.28968 2.51635 1.25176 2.55033C1.21384 2.58432 1.16497 2.60355 1.11406 2.60452C1.83535 2.66217 1.799 2.66129 1.82904 2.66127C2.04712 2.63654 2.03649 2.36468 2.06673 2.15228L1.64255 2.11763L1.74046 1.42997L2.16435 1.46672C2.18745 1.34194 2.20254 1.21581 2.20953 1.0891Z" fill="url(#paint0_linear_82_165)"/>
<defs>
<linearGradient id="paint0_linear_82_165" x1="1.4061" y1="0.734388" x2="1.1405" y2="2.5997" gradientUnits="userSpaceOnUse">
<stop stop-color="#9E6100"/>
<stop offset="0.49" stop-color="#642701"/>
<stop offset="0.65" stop-color="#682A01"/>
<stop offset="0.81" stop-color="#753401"/>
<stop offset="0.98" stop-color="#8A4401"/>
<stop offset="1" stop-color="#8C4601"/>
</linearGradient>
</defs>
</svg>
