<svg width="4" height="3" viewBox="0 0 4 3" fill="none" xmlns="http://www.w3.org/2000/svg">
<path d="M3.64054 2.48115C3.6453 2.44771 3.87155 1.01281 3.86468 0.907042C3.86516 0.826925 3.84384 0.748185 3.803 0.67926C3.76215 0.610335 3.70333 0.553823 3.63282 0.515779C3.55501 0.480328 3.77136 0.535507 1.19567 0.0371527C1.09484 0.0214528 0.991871 0.0458061 0.908759 0.105011C0.825647 0.164215 0.768987 0.253576 0.750879 0.354C0.744757 0.396995 0.520549 1.81756 0.528102 1.91856C0.529529 2.02723 0.568929 2.13199 0.639473 2.21467C0.779437 2.36133 0.627564 2.29828 3.19336 2.79766C3.29433 2.81279 3.39725 2.7883 3.48059 2.72932C3.56393 2.67033 3.62123 2.58141 3.64054 2.48115Z" fill="url(#paint0_linear_130_596)"/>
<defs>
<linearGradient id="paint0_linear_130_596" x1="0.62638" y1="1.19412" x2="3.77459" y2="1.64239" gradientUnits="userSpaceOnUse">
<stop stop-color="#FFE6AB"/>
<stop offset="1" stop-color="#FFD778"/>
</linearGradient>
</defs>
</svg>
