<svg width="6" height="7" viewBox="0 0 6 7" fill="none" xmlns="http://www.w3.org/2000/svg">
<path d="M5.25158 4.18914C5.25211 4.03697 5.20498 3.88846 5.11681 3.76444C5.05519 3.68486 1.99512 0.659415 1.94763 0.616179C1.75411 0.46847 1.69495 0.507252 0.949673 0.55776C1.01512 0.553815 1.08064 0.56414 1.1417 0.588023C1.20277 0.611907 1.25791 0.648781 1.30331 0.696084C4.68766 4.05092 4.39464 3.75816 4.46708 3.86717C4.52565 3.96423 4.56075 4.0736 4.56962 4.18661C4.57849 4.29961 4.56086 4.41312 4.51815 4.51812C4.46503 4.635 3.62089 5.90728 3.59207 5.94394C3.55411 5.99312 3.50611 6.03365 3.45127 6.06283C3.39643 6.09202 3.33601 6.10919 3.27402 6.11322C4.27161 6.02354 4.13167 6.11733 4.5093 5.52958L4.10077 5.56581L4.47331 4.99878L4.88184 4.96254C5.15803 4.55988 5.2421 4.48174 5.25158 4.18914Z" fill="url(#paint0_linear_82_225)"/>
<defs>
<linearGradient id="paint0_linear_82_225" x1="3.33675" y1="0.745318" x2="2.58576" y2="6.0195" gradientUnits="userSpaceOnUse">
<stop stop-color="#9E6100"/>
<stop offset="0.49" stop-color="#642701"/>
<stop offset="0.65" stop-color="#682A01"/>
<stop offset="0.81" stop-color="#753401"/>
<stop offset="0.98" stop-color="#8A4401"/>
<stop offset="1" stop-color="#8C4601"/>
</linearGradient>
</defs>
</svg>
