<svg width="5" height="8" viewBox="0 0 5 8" fill="none" xmlns="http://www.w3.org/2000/svg">
<path d="M0.507086 2.38945C0.527587 2.45086 2.44256 7.14436 2.51496 7.26921C2.55213 7.33296 2.60165 7.38866 2.66061 7.43305C2.71957 7.47743 2.78679 7.5096 2.85833 7.52769C3.0972 7.5617 3.03544 7.56753 4.52134 6.64831C4.64945 6.55153 4.7435 6.41654 4.78992 6.26283C4.83634 6.10912 4.83272 5.94464 4.77958 5.79312C4.75874 5.7341 2.82192 1.02286 2.75191 0.898353C2.69966 0.803549 2.61803 0.728281 2.5193 0.683894C2.42057 0.639508 2.31009 0.628405 2.2045 0.652249C2.0868 0.691542 2.22188 0.615729 0.759536 1.54074C0.633178 1.63738 0.540685 1.77157 0.495331 1.92405C0.449976 2.07653 0.454091 2.23945 0.507086 2.38945Z" fill="url(#paint0_linear_130_516)"/>
<defs>
<linearGradient id="paint0_linear_130_516" x1="0.228938" y1="3.74384" x2="5.05637" y2="4.43122" gradientUnits="userSpaceOnUse">
<stop stop-color="#FFE6AB"/>
<stop offset="1" stop-color="#FFD778"/>
</linearGradient>
</defs>
</svg>
