<svg width="6" height="6" viewBox="0 0 6 6" fill="none" xmlns="http://www.w3.org/2000/svg">
<path d="M5.49544 3.05472C5.59878 2.94957 5.66736 2.81522 5.6919 2.66983C5.71644 2.52444 5.69576 2.37503 5.63265 2.24178C4.85693 0.743128 4.90289 0.751818 4.67875 0.653389C4.61873 0.631264 4.5545 0.622977 4.49084 0.629143C4.42717 0.63531 4.36572 0.655774 4.31107 0.689005C4.22909 0.737408 0.905171 3.42241 0.858328 3.46509C0.755613 3.56889 0.68743 3.70186 0.663088 3.84585C0.638745 3.98984 0.659429 4.13783 0.722314 4.26963C1.48211 5.75957 1.41537 5.65566 1.50103 5.74725C1.56693 5.8165 1.65426 5.8615 1.74889 5.87497C1.84353 5.88845 1.93995 5.86961 2.02256 5.82151C2.09974 5.77671 5.44649 3.0971 5.49544 3.05472Z" fill="url(#paint0_linear_82_448)"/>
<defs>
<linearGradient id="paint0_linear_82_448" x1="0.794692" y1="2.91749" x2="5.55997" y2="3.59602" gradientUnits="userSpaceOnUse">
<stop stop-color="#FFE6AB"/>
<stop offset="1" stop-color="#FFD778"/>
</linearGradient>
</defs>
</svg>
