<svg width="3" height="4" viewBox="0 0 3 4" fill="none" xmlns="http://www.w3.org/2000/svg">
<path d="M1.27669 3.08109C1.72675 3.20525 1.76912 3.23917 1.96527 3.20273C2.04251 3.1817 2.11468 3.14523 2.17744 3.09553C2.2402 3.04584 2.29224 2.98394 2.33042 2.91358C2.38955 2.7997 2.34725 2.91598 2.77555 1.44502C2.7956 1.37672 2.80569 1.30589 2.80549 1.23472C2.80817 1.12087 2.77046 1.00975 2.69905 0.921041C2.62764 0.832331 2.52714 0.771758 2.41535 0.750051C1.91332 0.614199 1.94516 0.616588 1.81839 0.617847C1.71596 0.626387 1.61768 0.662198 1.53377 0.72156C1.44985 0.780922 1.38336 0.86167 1.3412 0.955416C1.28689 1.08071 0.918009 2.42067 0.902397 2.4399C0.883635 2.50659 0.878493 2.57638 0.887273 2.6451C0.896053 2.71382 0.918578 2.78007 0.953505 2.83991C0.988432 2.89974 1.03505 2.95193 1.09057 2.99336C1.14609 3.0348 1.20939 3.06463 1.27669 3.08109ZM1.75252 1.09552C1.81738 1.04682 1.81949 1.06214 2.22208 1.1731L1.43065 2.10531C1.71258 1.13489 1.69396 1.14511 1.75252 1.09552ZM2.26559 1.7114C1.96176 2.76024 1.99206 2.68303 1.95153 2.7266C1.92978 2.7475 1.90142 2.76016 1.87134 2.76239C1.73027 2.73973 1.59172 2.70347 1.45764 2.65413L2.26559 1.7114Z" fill="url(#paint0_linear_82_487)"/>
<defs>
<linearGradient id="paint0_linear_82_487" x1="0.998531" y1="1.79489" x2="2.69982" y2="2.03714" gradientUnits="userSpaceOnUse">
<stop stop-color="#FFE6AB"/>
<stop offset="1" stop-color="#FFD778"/>
</linearGradient>
</defs>
</svg>
