<svg width="3" height="3" viewBox="0 0 3 3" fill="none" xmlns="http://www.w3.org/2000/svg">
<path d="M1.76009 2.69337C1.75272 2.742 1.73267 2.78782 1.70196 2.82623C1.67125 2.86465 1.63096 2.89429 1.58515 2.91217C1.51452 2.92892 1.30808 2.90684 2.30786 2.97121C2.37162 2.96738 2.43175 2.94027 2.47683 2.89502C2.52191 2.84977 2.5488 2.78954 2.55239 2.72577L2.60783 2.33642L2.125 2.30423L2.23418 1.53748L2.71667 1.57206C2.76701 1.21854 2.76871 1.2066 2.74682 1.10356C2.72881 1.042 2.68852 0.989351 2.63382 0.955868C2.57887 0.930985 2.63382 0.955868 1.8824 0.807444C0.941651 0.739291 1.59815 0.766971 0.865547 0.708959C0.889433 0.71236 1.78007 0.875736 1.81488 0.888003C1.859 0.910125 1.89636 0.943713 1.92304 0.985245C1.94971 1.02678 1.96472 1.07472 1.96648 1.12405C1.97949 1.20389 1.76349 2.66949 1.76009 2.69337Z" fill="url(#paint0_linear_130_253)"/>
<defs>
<linearGradient id="paint0_linear_130_253" x1="1.8452" y1="0.794836" x2="1.54284" y2="2.91833" gradientUnits="userSpaceOnUse">
<stop stop-color="#9E6100"/>
<stop offset="0.49" stop-color="#642701"/>
<stop offset="0.65" stop-color="#682A01"/>
<stop offset="0.81" stop-color="#753401"/>
<stop offset="0.98" stop-color="#8A4401"/>
<stop offset="1" stop-color="#8C4601"/>
</linearGradient>
</defs>
</svg>
