<svg width="41" height="34" viewBox="0 0 41 34" fill="none" xmlns="http://www.w3.org/2000/svg">
<path d="M35.5053 33.3984C32.4725 33.3729 29.4595 32.9061 26.5612 32.0128C24.3078 31.3196 22.1359 30.3853 20.083 29.226C15.7686 26.7156 12.733 24.0218 9.62625 20.2187C5.04622 14.3537 2.19489 8.00369 0.755757 0.0196728L0.679321 0.00878906C0.969439 1.74171 1.35744 3.45681 1.84145 5.14587L1.37058 5.1495C1.57461 5.87311 1.80969 6.58408 1.94056 6.9829L2.41177 6.97689C3.09919 9.00197 3.92446 10.9776 4.88177 12.89L4.39044 12.9175C4.52363 13.1802 4.90613 13.9341 5.27391 14.5859L5.74478 14.5653C6.76501 16.4003 7.92383 18.1549 9.21115 19.8136L8.74371 19.8445C9.03015 20.2118 9.2828 20.5427 9.91131 21.2804L10.3791 21.2471C11.7205 22.8129 13.1898 24.2644 14.7718 25.5867L14.3078 25.6278C14.9365 26.1585 15.3369 26.4616 15.7257 26.7607L16.1873 26.7192C17.8025 27.9449 19.5252 29.0221 21.3342 29.9379L20.8764 29.9872C21.6122 30.3649 22.2592 30.6472 22.4903 30.7532L22.9485 30.7014C24.7906 31.5081 26.7027 32.1442 28.6609 32.6018L28.2095 32.6569C29.4056 32.9174 29.0121 32.8394 29.9533 33.0076L30.4047 32.9524C34.5705 33.6991 37.6105 33.2473 35.9994 33.4542C36.2092 33.4524 35.9994 33.4542 37.297 33.3952C37.8941 33.3438 37.6812 33.3671 38.2387 33.2856C39.0801 33.2129 38.6669 33.2564 40.0337 33.0879L38.9644 33.2208C37.8155 33.3432 36.6607 33.4025 35.5053 33.3984Z" fill="url(#paint0_linear_130_236)"/>
<defs>
<linearGradient id="paint0_linear_130_236" x1="22.3084" y1="3.08856" x2="18.2848" y2="31.3461" gradientUnits="userSpaceOnUse">
<stop stop-color="#9E6100"/>
<stop offset="0.49" stop-color="#642701"/>
<stop offset="0.65" stop-color="#682A01"/>
<stop offset="0.81" stop-color="#753401"/>
<stop offset="0.98" stop-color="#8A4401"/>
<stop offset="1" stop-color="#8C4601"/>
</linearGradient>
</defs>
</svg>
