<svg width="4" height="4" viewBox="0 0 4 4" fill="none" xmlns="http://www.w3.org/2000/svg">
<path d="M0.803095 1.65426C0.805863 1.73752 0.775127 1.67952 1.42887 2.39406L1.83733 2.45222L1.86775 2.56378L2.31681 2.62773C2.12006 2.89703 1.95539 3.19771 1.64214 3.17261C2.51638 3.29709 2.43518 3.30259 2.54231 3.28616C2.79648 3.21268 2.88238 3.03726 3.18144 2.63143C3.27471 2.51099 3.32844 2.36466 3.33528 2.21249C3.34211 2.06032 3.30171 1.90976 3.21961 1.78145C3.1824 1.73472 2.37946 0.835658 2.29583 0.772572C2.15896 0.67266 2.20572 0.703688 1.35092 0.562476C1.52462 0.609143 1.48913 0.601653 2.27533 1.46422L1.82388 1.39993L1.88151 1.3204L1.10247 1.19486C0.804772 1.59114 0.804764 1.57408 0.803095 1.65426ZM2.39858 1.62555C2.46827 1.70855 2.51641 1.80746 2.53872 1.91352C2.56103 2.01957 2.55682 2.12949 2.52648 2.23353C2.52001 2.27892 2.54906 2.38297 2.32075 1.53892L2.39858 1.62555ZM1.61416 1.6747L1.69072 1.95856L1.61084 1.8692C1.59128 1.84039 1.58109 1.80624 1.58169 1.77142C1.58228 1.73661 1.59363 1.70283 1.61416 1.6747Z" fill="url(#paint0_linear_130_286)"/>
<defs>
<linearGradient id="paint0_linear_130_286" x1="2.24018" y1="0.701283" x2="1.88034" y2="3.22846" gradientUnits="userSpaceOnUse">
<stop stop-color="#9E6100"/>
<stop offset="0.49" stop-color="#642701"/>
<stop offset="0.65" stop-color="#682A01"/>
<stop offset="0.81" stop-color="#753401"/>
<stop offset="0.98" stop-color="#8A4401"/>
<stop offset="1" stop-color="#8C4601"/>
</linearGradient>
</defs>
</svg>
