<svg width="82" height="94" viewBox="0 0 82 94" fill="none" xmlns="http://www.w3.org/2000/svg">
<path d="M80.765 52.4324C81.1303 49.1612 81.1969 45.8636 80.9641 42.5803C80.7406 39.4768 80.2456 36.3989 79.4847 33.3818C77.7811 26.9171 75.6029 22.2492 72.21 17.2518C68.8505 12.5466 65.3958 9.03804 60.4759 5.8293C58.1903 4.36138 55.7504 3.1491 53.2 2.21429C50.719 1.31185 48.1444 0.691199 45.5248 0.364027C40.1804 -0.255359 35.7097 0.176561 30.5958 1.70554C25.8009 3.26922 22.0714 5.24637 17.7958 8.64766C15.9176 10.1833 14.17 11.8721 12.5712 13.6968C8.97275 17.8725 6.68332 21.6553 4.54128 26.5126C2.30213 31.8559 1.1969 36.3481 0.555698 41.9361C-0.231481 50.1918 0.56222 57.5011 3.31212 65.4322C5.99714 72.7191 9.74139 78.7449 15.4472 84.0438C19.8253 87.9542 23.6925 90.1934 28.5898 91.9786C33.7536 93.7309 38.2476 94.2656 43.6204 93.812C46.1192 93.563 48.5848 93.051 50.9762 92.2847C53.5155 91.4697 55.9602 90.3849 58.2684 89.049C60.5881 87.7057 62.7714 86.1396 64.7874 84.373C66.9631 82.4676 68.9448 80.3515 70.7033 78.0555C72.4845 75.7286 74.051 73.245 75.3838 70.6353C76.8402 67.779 78.0242 64.7917 78.9199 61.7132C79.8005 58.6784 80.4178 55.5733 80.765 52.4324ZM78.5137 56.1884C78.1205 58.2756 77.5998 60.3368 76.9547 62.3603C76.3309 64.3157 75.586 66.2304 74.7245 68.0933C73.8901 69.8935 72.9442 71.6398 71.8923 73.3222C70.8731 74.9484 69.7523 76.5087 68.5365 77.9937C67.3592 79.4313 66.0905 80.7915 64.7383 82.0659C63.4228 83.2998 62.0276 84.4457 60.5616 85.4963C59.136 86.5165 57.6426 87.4386 56.092 88.2563C54.5719 89.0547 52.998 89.7461 51.3817 90.3256C49.7959 90.8891 48.1716 91.3383 46.5215 91.6697C44.8869 91.9942 43.2306 92.1987 41.5661 92.2814C39.9007 92.3601 38.2318 92.3154 36.5731 92.1477C34.8958 91.9726 33.2336 91.675 31.5998 91.2571C30.1358 90.8817 28.6976 90.4118 27.2944 89.8502C25.9805 89.3224 24.699 88.7172 23.4566 88.0378C21.0095 86.6952 18.7202 85.0832 16.6313 83.2318C12.2283 79.2406 9.30032 75.2878 6.58617 69.9686C5.32383 67.4181 4.28699 64.762 3.4875 62.0307C2.35683 58.1774 1.68677 54.2036 1.49132 50.1925L4.1273 50.7567L4.22372 50.0795L1.46036 49.4908C1.43719 48.7494 1.44393 49.0336 1.42224 48.2517L4.3932 48.8893C4.44171 48.5486 4.43962 48.5633 4.48962 48.2121L1.42013 47.5734C1.42399 46.8229 1.42142 47.1122 1.43548 46.3204L4.6648 46.9819C4.7154 46.6265 4.713 46.6433 4.76151 46.3026L1.45409 45.6321C1.48559 44.8835 1.4704 45.171 1.5139 44.3834L2.37763 44.5557L2.47375 43.8806L1.55955 43.7011C1.62019 42.9588 1.59478 43.2427 1.66742 42.4613L5.21668 43.1512C5.29603 42.5939 5.27657 42.7306 5.3134 42.472L1.73831 41.7827C1.82718 41.0229 1.81342 41.1497 1.823 41.0674C1.64004 41.0413 1.52438 41.0399 1.48404 40.841C1.47529 40.7668 1.46363 40.8789 1.66246 39.4976C1.66514 39.4325 1.68754 39.3699 1.72667 39.3179C1.7429 39.2968 1.76325 39.2793 1.78649 39.2664C1.80973 39.2534 1.83536 39.2454 1.86181 39.2427C1.93274 39.2457 2.00319 39.2557 2.07211 39.2727C2.08498 39.1822 2.07211 39.2727 2.17725 38.6247L5.76285 39.2854L5.85956 38.6061L2.30492 37.9541C2.44547 37.2232 2.39062 37.5029 2.54678 36.7377L3.4754 36.9064L3.57182 36.2292L2.69097 36.0716C2.85886 35.3446 2.7914 35.6225 2.977 34.8615L6.32644 35.4478L6.42436 34.7601L3.15153 34.1933C3.34436 33.4719 3.26878 33.7465 3.48112 32.9936L6.60254 33.5239L6.69955 32.8426L3.67788 32.3351C3.91035 31.5915 3.81856 31.8745 4.06784 31.1032L6.87891 31.5679L6.97623 30.8844L4.29014 30.4462C6.49499 24.3341 9.04042 20.0192 12.6471 15.6043C14.4165 13.4905 16.3888 11.555 18.5357 9.8258C20.6561 8.11466 22.9527 6.6342 25.3867 5.40947C27.8338 4.17801 30.4161 3.23594 33.0814 2.6023C35.8232 1.95137 38.6359 1.64761 41.4535 1.69817C43.042 1.7271 44.6266 1.86671 46.1958 2.11596C47.8829 2.38838 49.5476 2.78533 51.1761 3.30357C52.8095 3.82786 54.4024 4.47059 55.9422 5.22666C57.4992 5.99413 58.9997 6.87101 60.4326 7.85072C61.891 8.85218 63.28 9.95101 64.5902 11.1397C65.9285 12.359 67.1861 13.664 68.3551 15.0465C69.5526 16.4676 70.6598 17.9624 71.67 19.5222C72.7097 21.1255 73.6498 22.7914 74.4849 24.5103C75.3362 26.2743 76.0811 28.0877 76.7155 29.9408C77.3634 31.8425 77.897 33.7813 78.3133 35.7468C78.7384 37.7599 79.0431 39.7964 79.2257 41.8458C79.41 43.9442 79.4681 46.0517 79.3998 48.1571C79.3097 50.855 79.0145 53.5422 78.517 56.1953L78.5137 56.1884Z" fill="#FFE082"/>
</svg>
