<svg width="4" height="2" viewBox="0 0 4 2" fill="none" xmlns="http://www.w3.org/2000/svg">
<path d="M2.70588 0.378007C2.70288 0.399037 2.70587 0.378008 2.71676 0.527602C0.220834 0.772971 0.926145 0.701752 0.799682 0.715929C0.766956 0.723971 0.737934 0.742893 0.71737 0.769592C0.696806 0.79629 0.685921 0.829184 0.686499 0.862879C0.684403 0.8776 0.690091 0.837644 0.712804 1.23567C3.8065 0.935951 2.92456 1.02707 3.08647 1.00507C3.121 0.997376 3.15151 0.977277 3.1722 0.948585C3.1929 0.919894 3.20235 0.884605 3.19875 0.849411L3.15189 0.199063L2.83197 0.230752C2.79644 0.235287 2.76385 0.25287 2.74055 0.280082C2.71725 0.307294 2.70489 0.342194 2.70588 0.378007Z" fill="url(#paint0_linear_82_545)"/>
<defs>
<linearGradient id="paint0_linear_82_545" x1="0.728115" y1="0.555549" x2="3.19277" y2="0.906492" gradientUnits="userSpaceOnUse">
<stop stop-color="#FFE6AB"/>
<stop offset="1" stop-color="#FFD778"/>
</linearGradient>
</defs>
</svg>
