<svg width="3" height="4" viewBox="0 0 3 4" fill="none" xmlns="http://www.w3.org/2000/svg">
<path d="M2.187 2.04683C2.34138 1.63014 2.09557 1.33682 1.85892 0.927813C1.81647 0.835924 1.7471 0.759103 1.66 0.707531C1.5729 0.655959 1.47218 0.632073 1.3712 0.639032C1.30598 0.647819 1.2439 0.672448 1.19039 0.710768C1.13036 0.755835 0.230266 1.54888 0.171261 1.60384C0.0800666 1.72046 0.0285048 1.86317 0.024092 2.01115C0.0196792 2.15913 0.0626458 2.30466 0.146729 2.42651C0.368696 2.8188 0.543609 3.28482 0.97381 3.13892C1.08059 3.09076 0.993608 3.15392 2.03969 2.24275C2.10302 2.18947 2.1534 2.12248 2.187 2.04683ZM0.789682 2.66916C0.720403 2.64223 0.73952 2.66202 0.497061 2.22538L1.52541 2.08911C0.812215 2.69918 0.858952 2.67902 0.789682 2.66916ZM0.730225 1.73461C1.45092 1.10611 1.40316 1.13343 1.45468 1.13101C1.48266 1.13251 1.50891 1.14501 1.52772 1.16579C1.62062 1.29886 1.70251 1.43931 1.77256 1.58571L0.730225 1.73461Z" fill="url(#paint0_linear_130_521)"/>
<defs>
<linearGradient id="paint0_linear_130_521" x1="0.0577049" y1="1.75096" x2="2.2027" y2="2.05638" gradientUnits="userSpaceOnUse">
<stop stop-color="#FFE6AB"/>
<stop offset="1" stop-color="#FFD778"/>
</linearGradient>
</defs>
</svg>
