<svg width="4" height="3" viewBox="0 0 4 3" fill="none" xmlns="http://www.w3.org/2000/svg">
<path d="M3.39547 1.09796C3.28316 0.979616 3.41354 1.07373 1.89164 0.10641C1.65273 -0.0299648 1.6234 0.00485381 0.888455 0.0488651C1.1314 0.0542133 1.07988 0.056629 2.57005 1.00724C2.67971 1.07824 2.76879 1.17681 2.82837 1.29308C2.88795 1.40935 2.91593 1.53923 2.90951 1.66972C2.90229 1.82037 2.85628 1.9666 2.77595 2.09425L2.04145 0.86861L1.36757 0.911571L1.96891 1.92572C1.18287 1.42142 1.18424 1.44599 1.16338 1.33579C1.14251 1.22558 1.17358 1.26413 1.42244 0.765848L0.748564 0.808809C0.492882 1.30368 0.473435 1.30335 0.491903 1.39615C0.51037 1.48895 0.483741 1.45348 1.51825 2.11256L2.05735 2.07478L2.13008 2.19724L2.75038 2.15396C2.51515 2.60788 2.46814 2.74985 2.23755 2.89736C2.1866 2.92478 2.13205 2.9449 2.0755 2.95714C1.92913 2.9753 2.10416 2.96123 2.69853 2.91182C2.79413 2.89934 2.88546 2.86456 2.96515 2.81029C3.04485 2.75602 3.11067 2.68379 3.15731 2.59941C3.22209 2.48678 3.15732 2.5994 3.48801 1.98849C3.56497 1.84825 3.59734 1.68788 3.58081 1.52877C3.56428 1.36967 3.49962 1.21938 3.39547 1.09796Z" fill="url(#paint0_linear_130_409)"/>
<defs>
<linearGradient id="paint0_linear_130_409" x1="2.23183" y1="0.0963604" x2="1.82913" y2="2.9245" gradientUnits="userSpaceOnUse">
<stop stop-color="#9E6100"/>
<stop offset="0.49" stop-color="#642701"/>
<stop offset="0.65" stop-color="#682A01"/>
<stop offset="0.81" stop-color="#753401"/>
<stop offset="0.98" stop-color="#8A4401"/>
<stop offset="1" stop-color="#8C4601"/>
</linearGradient>
</defs>
</svg>
