<svg width="3" height="4" viewBox="0 0 3 4" fill="none" xmlns="http://www.w3.org/2000/svg">
<path d="M2.96098 1.74835C2.98084 1.66046 2.96951 1.56839 2.92895 1.48792C2.88839 1.40746 2.82112 1.34359 2.73865 1.30727C2.71238 1.30353 0.869326 0.931429 0.801084 0.93146C0.7372 0.939199 0.676964 0.965415 0.627767 1.0069C0.57857 1.04838 0.54255 1.10332 0.524127 1.16497C0.497551 1.24892 0.53263 1.10526 0.316276 2.53912C0.297717 2.62663 0.30936 2.71785 0.349303 2.79789C0.389246 2.87794 0.455134 2.94208 0.536218 2.97987C0.564881 2.98395 2.40213 3.36254 2.47277 3.36285C2.51401 3.35993 2.55416 3.34828 2.59056 3.32867C2.62696 3.30907 2.65879 3.28196 2.68392 3.24913C2.79304 3.09895 2.76643 3.11465 2.96098 1.74835Z" fill="url(#paint0_linear_130_503)"/>
<defs>
<linearGradient id="paint0_linear_130_503" x1="0.398584" y1="1.96108" x2="2.88276" y2="2.3148" gradientUnits="userSpaceOnUse">
<stop stop-color="#FFE6AB"/>
<stop offset="1" stop-color="#FFD778"/>
</linearGradient>
</defs>
</svg>
