<svg width="4" height="7" viewBox="0 0 4 7" fill="none" xmlns="http://www.w3.org/2000/svg">
<path d="M2.74576 5.8134L3.17833 5.78917L3.56153 5.55408C3.67436 5.46939 3.75723 5.35091 3.79807 5.21587C3.8389 5.08084 3.83559 4.93629 3.78859 4.80327C3.77355 4.75822 2.06778 0.614662 2.00375 0.506847C1.96838 0.449334 1.92238 0.39909 1.8682 0.35881C1.69541 0.246239 1.69122 0.275682 0.921599 0.286247C1.01013 0.287419 1.09649 0.313825 1.17053 0.362374C1.24457 0.410923 1.30322 0.479598 1.33958 0.560322C1.37115 0.624894 3.08053 4.75823 3.11121 4.85915C3.14732 5.0044 3.13976 5.15708 3.08949 5.29805C2.98206 5.55524 2.99014 5.49847 1.70269 6.29782C1.65399 6.32875 1.59917 6.34875 1.542 6.35647L2.18905 6.33275C2.32994 6.32277 2.33414 6.30835 2.66328 6.10633L2.24904 6.12243L2.74576 5.8134Z" fill="url(#paint0_linear_82_204)"/>
<defs>
<linearGradient id="paint0_linear_82_204" x1="2.68291" y1="0.423325" x2="1.83071" y2="6.40831" gradientUnits="userSpaceOnUse">
<stop stop-color="#9E6100"/>
<stop offset="0.49" stop-color="#642701"/>
<stop offset="0.65" stop-color="#682A01"/>
<stop offset="0.81" stop-color="#753401"/>
<stop offset="0.98" stop-color="#8A4401"/>
<stop offset="1" stop-color="#8C4601"/>
</linearGradient>
</defs>
</svg>
