<svg width="8" height="6" viewBox="0 0 8 6" fill="none" xmlns="http://www.w3.org/2000/svg">
<path d="M1.37842 3.97641C6.31344 5.65394 5.9384 5.54936 6.09092 5.55646C6.21035 5.5514 6.32513 5.50873 6.41885 5.43454C6.51257 5.36035 6.58045 5.25843 6.61279 5.14335C6.65095 5.02937 7.00836 3.15255 7.01993 3.07133C7.04338 2.90129 7.01003 2.72826 6.92507 2.57912C6.8401 2.42997 6.70827 2.31304 6.55005 2.2465C1.63039 0.597969 1.98359 0.701875 1.83073 0.697168C1.71269 0.703911 1.59975 0.747545 1.50783 0.821907C1.41592 0.896269 1.34966 0.997605 1.31842 1.11163C1.28264 1.22595 0.933409 3.07958 0.919456 3.16045C0.897644 3.32777 0.93056 3.49766 1.01328 3.64473C1.09601 3.7918 1.2241 3.90816 1.37842 3.97641Z" fill="url(#paint0_linear_130_557)"/>
<defs>
<linearGradient id="paint0_linear_130_557" x1="0.984419" y1="2.70422" x2="6.95122" y2="3.55383" gradientUnits="userSpaceOnUse">
<stop stop-color="#FFE6AB"/>
<stop offset="1" stop-color="#FFD778"/>
</linearGradient>
</defs>
</svg>
