<svg width="4" height="3" viewBox="0 0 4 3" fill="none" xmlns="http://www.w3.org/2000/svg">
<path d="M2.5096 1.2682L2.97946 1.30585L3.0196 1.024C3.03914 0.936677 3.02755 0.845273 2.98683 0.765598C2.9461 0.685923 2.87881 0.622989 2.79659 0.587688C2.74881 0.580885 2.26664 0.492735 0.913973 0.253824L0.0953753 0.183565C0.133593 0.189006 1.9814 0.510605 2.0302 0.527302C2.08873 0.557143 2.13809 0.602255 2.17308 0.657861C2.20806 0.713466 2.22736 0.777498 2.22893 0.843175C2.23272 0.936323 2.23233 0.819288 2.02962 2.24291C2.02439 2.33037 1.9874 2.4129 1.9256 2.47501C1.8638 2.53712 1.78145 2.57452 1.69402 2.58018C2.55459 2.64667 2.49112 2.64738 2.56925 2.62926C2.80874 2.53907 2.81069 2.32001 2.84845 2.07193L2.36664 2.03257C2.46674 1.56916 2.44123 1.74831 2.5096 1.2682Z" fill="url(#paint0_linear_130_275)"/>
<defs>
<linearGradient id="paint0_linear_130_275" x1="1.58416" y1="0.356563" x2="1.27499" y2="2.52783" gradientUnits="userSpaceOnUse">
<stop stop-color="#9E6100"/>
<stop offset="0.49" stop-color="#642701"/>
<stop offset="0.65" stop-color="#682A01"/>
<stop offset="0.81" stop-color="#753401"/>
<stop offset="0.98" stop-color="#8A4401"/>
<stop offset="1" stop-color="#8C4601"/>
</linearGradient>
</defs>
</svg>
