<svg width="2" height="3" viewBox="0 0 2 3" fill="none" xmlns="http://www.w3.org/2000/svg">
<path d="M1.7516 2.46273C1.74644 2.34828 1.67163 2.33119 1.57248 2.28918C2.02822 0.39945 2.01206 0.528028 1.9901 0.456242C1.98055 0.426402 1.9617 0.400406 1.93629 0.382068L1.65296 0.262338L0.981603 0.35126C1.27125 0.471889 1.25982 0.461685 1.28958 0.493815C1.31039 0.518349 1.32328 0.548611 1.32657 0.580615C1.32028 0.624777 1.36286 0.46134 0.898121 2.38412C1.0156 2.43303 1.00779 2.42763 1.03093 2.44594C1.11177 2.52611 1.07725 2.58771 1.00469 2.88634L1.67725 2.78901C1.71082 2.68244 1.73568 2.57332 1.7516 2.46273Z" fill="url(#paint0_linear_82_236)"/>
<defs>
<linearGradient id="paint0_linear_82_236" x1="1.53309" y1="0.24527" x2="1.154" y2="2.9076" gradientUnits="userSpaceOnUse">
<stop stop-color="#9E6100"/>
<stop offset="0.49" stop-color="#642701"/>
<stop offset="0.65" stop-color="#682A01"/>
<stop offset="0.81" stop-color="#753401"/>
<stop offset="0.98" stop-color="#8A4401"/>
<stop offset="1" stop-color="#8C4601"/>
</linearGradient>
</defs>
</svg>
