<svg width="3" height="3" viewBox="0 0 3 3" fill="none" xmlns="http://www.w3.org/2000/svg">
<path d="M1.05286 1.39313C1.06532 1.39977 1.07904 1.40373 1.09313 1.40476C1.10722 1.40579 1.12137 1.40386 1.13467 1.3991C1.14797 1.39434 1.16012 1.38685 1.17036 1.37711C1.18059 1.36738 1.18868 1.35561 1.1941 1.34256L1.2558 1.21731C3.00372 2.48001 2.50334 2.12607 2.59481 2.1854C2.60767 2.1917 2.62167 2.19535 2.63597 2.1961C2.65027 2.19686 2.66457 2.19472 2.67802 2.1898C2.69147 2.18489 2.70379 2.1773 2.71423 2.1675C2.72467 2.1577 2.73302 2.14589 2.73878 2.13278C2.74082 2.11845 2.73606 2.15189 2.89593 1.81641C0.73433 0.258403 1.34939 0.696921 1.23812 0.622588C1.22477 0.616303 1.21026 0.612868 1.19551 0.612507C1.18075 0.612146 1.16609 0.614867 1.15244 0.620492C1.1388 0.626117 1.12648 0.634526 1.11627 0.645179C1.10606 0.655833 1.09818 0.668498 1.09314 0.682367L0.822806 1.22877L1.05286 1.39313Z" fill="url(#paint0_linear_130_496)"/>
<defs>
<linearGradient id="paint0_linear_130_496" x1="0.820086" y1="1.24788" x2="2.93403" y2="1.54888" gradientUnits="userSpaceOnUse">
<stop stop-color="#FFE6AB"/>
<stop offset="1" stop-color="#FFD778"/>
</linearGradient>
</defs>
</svg>
