<svg width="3" height="3" viewBox="0 0 3 3" fill="none" xmlns="http://www.w3.org/2000/svg">
<path d="M2.68385 0.657376C2.6781 0.577171 2.65527 0.571777 2.4566 0.339658L1.76841 0.396148C1.98451 0.641477 1.97399 0.639978 1.98963 0.680826C1.9959 0.711551 1.99135 0.743496 1.97676 0.771251C1.97226 0.802795 2.03831 0.700631 0.990835 2.07485C1.05516 2.15052 1.10384 2.18534 1.09306 2.27607C1.08528 2.33074 1.08678 2.32023 0.908142 2.55012L1.59723 2.48732L1.76596 2.26675C1.82389 2.16128 1.75176 2.09523 1.67993 2.01205C2.74662 0.623404 2.68178 0.732177 2.68385 0.657376Z" fill="url(#paint0_linear_82_209)"/>
<defs>
<linearGradient id="paint0_linear_82_209" x1="1.98975" y1="0.273182" x2="1.65048" y2="2.65582" gradientUnits="userSpaceOnUse">
<stop stop-color="#9E6100"/>
<stop offset="0.49" stop-color="#642701"/>
<stop offset="0.65" stop-color="#682A01"/>
<stop offset="0.81" stop-color="#753401"/>
<stop offset="0.98" stop-color="#8A4401"/>
<stop offset="1" stop-color="#8C4601"/>
</linearGradient>
</defs>
</svg>
