<svg width="3" height="3" viewBox="0 0 3 3" fill="none" xmlns="http://www.w3.org/2000/svg">
<path d="M0.626959 1.08312C0.67564 1.11795 0.723694 1.0969 0.758219 1.05032L0.818857 0.955965L1.89477 1.98885C1.90461 1.998 1.9164 2.0048 1.92925 2.00876C1.94209 2.01271 1.95566 2.01371 1.96895 2.01168C1.98223 2.00965 1.99489 2.00465 2.00597 1.99705C2.01705 1.98944 2.02627 1.97943 2.03294 1.96776C2.03444 1.95725 2.19264 1.72016 2.20045 1.71054C0.450443 0.0323987 0.957738 0.508003 0.86007 0.425437C0.849906 0.418338 0.838373 0.413435 0.826209 0.411041C0.814044 0.408647 0.801514 0.408814 0.789418 0.411533C0.777321 0.414252 0.765925 0.419463 0.755955 0.426833C0.745984 0.434202 0.73766 0.443568 0.731511 0.454335C0.731511 0.454335 0.453843 0.897554 0.439728 0.906272L0.626959 1.08312Z" fill="url(#paint0_linear_82_420)"/>
<defs>
<linearGradient id="paint0_linear_82_420" x1="0.416072" y1="1.0724" x2="2.25405" y2="1.33411" gradientUnits="userSpaceOnUse">
<stop stop-color="#FFE6AB"/>
<stop offset="1" stop-color="#FFD778"/>
</linearGradient>
</defs>
</svg>
