<svg width="6" height="8" viewBox="0 0 6 8" fill="none" xmlns="http://www.w3.org/2000/svg">
<path d="M2.30441 7.49062C2.37457 7.52567 2.45113 7.54608 2.52943 7.55059C2.60772 7.5551 2.68612 7.54362 2.75984 7.51685C2.90544 7.46072 3.02398 7.3509 3.09104 7.20999C5.56195 2.19787 5.38459 2.58456 5.42326 2.41842C5.44505 2.29453 5.43458 2.16711 5.39286 2.04844C5.35113 1.92976 5.27956 1.82383 5.18504 1.74083C5.09038 1.66727 3.60628 0.773658 3.53417 0.737642C3.42674 0.684874 3.30553 0.666903 3.18742 0.686232C3.0693 0.705561 2.96014 0.76123 2.87514 0.845488C2.81957 0.898305 2.77427 0.960963 2.74154 1.03029C0.297657 6.01837 0.471418 5.64189 0.43424 5.79752C0.412469 5.92095 0.422535 6.04789 0.463483 6.16635C0.504432 6.28481 0.574914 6.39088 0.668264 6.47451C0.759017 6.54537 2.2365 7.45521 2.30441 7.49062Z" fill="url(#paint0_linear_82_523)"/>
<defs>
<linearGradient id="paint0_linear_82_523" x1="0.722913" y1="3.80032" x2="5.137" y2="4.42884" gradientUnits="userSpaceOnUse">
<stop stop-color="#FFE6AB"/>
<stop offset="1" stop-color="#FFD778"/>
</linearGradient>
</defs>
</svg>
