<svg width="4" height="3" viewBox="0 0 4 3" fill="none" xmlns="http://www.w3.org/2000/svg">
<path d="M2.35589 1.99775C2.34451 2.05824 2.31711 2.11458 2.27656 2.16088C2.236 2.20719 2.18377 2.24176 2.1253 2.26101C2.0481 2.27576 1.85163 2.25422 2.72943 2.3127C2.80953 2.31043 2.88587 2.27827 2.94345 2.22254C3.00102 2.1668 3.03564 2.09154 3.04051 2.01156C3.22257 0.732965 3.23911 0.782524 3.18347 0.630847C3.15425 0.557212 3.09848 0.497212 3.02718 0.462695C2.96409 0.438692 1.24115 0.137576 1.21801 0.134283C1.01644 0.118454 0.399689 0.0649633 0.56642 0.0844131C2.48074 0.427797 2.33622 0.387912 2.42067 0.457867C2.4658 0.500895 2.49951 0.554468 2.51879 0.613768C2.53806 0.673068 2.54228 0.736232 2.53107 0.797569C2.34451 2.07766 2.36247 1.95149 2.35589 1.99775Z" fill="url(#paint0_linear_82_219)"/>
<defs>
<linearGradient id="paint0_linear_82_219" x1="1.90778" y1="0.232499" x2="1.62661" y2="2.20716" gradientUnits="userSpaceOnUse">
<stop stop-color="#9E6100"/>
<stop offset="0.49" stop-color="#642701"/>
<stop offset="0.65" stop-color="#682A01"/>
<stop offset="0.81" stop-color="#753401"/>
<stop offset="0.98" stop-color="#8A4401"/>
<stop offset="1" stop-color="#8C4601"/>
</linearGradient>
</defs>
</svg>
