<svg width="3" height="2" viewBox="0 0 3 2" fill="none" xmlns="http://www.w3.org/2000/svg">
<path d="M2.37071 0.0624136L1.79272 0.0230244C1.87844 0.0293019 1.96151 0.0555 2.03533 0.0995337C2.10914 0.143567 2.17166 0.20422 2.2179 0.276668C2.36671 0.512415 2.33373 0.65362 2.34025 1.12014L1.34358 0.585581C2.60225 0.560973 2.50944 0.579941 1.73588 0.527725L0.763483 0.545892L1.87134 1.14349L2.33247 1.17482C2.33503 1.51847 2.23572 1.77897 1.91043 1.87855C1.78908 1.90204 1.95459 1.88484 0.402431 1.92129L0.929953 1.9535C1.00987 1.96488 0.714865 1.9572 2.34363 1.94023C2.73234 1.92263 2.89745 1.66722 2.91139 1.26798C2.90299 0.633833 2.9171 0.625116 2.84431 0.428086C2.8073 0.329049 2.74334 0.242328 2.65966 0.177714C2.57597 0.113099 2.47589 0.0731633 2.37071 0.0624136Z" fill="url(#paint0_linear_82_328)"/>
<defs>
<linearGradient id="paint0_linear_82_328" x1="1.86601" y1="-0.0094517" x2="1.56687" y2="2.09139" gradientUnits="userSpaceOnUse">
<stop stop-color="#9E6100"/>
<stop offset="0.49" stop-color="#642701"/>
<stop offset="0.65" stop-color="#682A01"/>
<stop offset="0.81" stop-color="#753401"/>
<stop offset="0.98" stop-color="#8A4401"/>
<stop offset="1" stop-color="#8C4601"/>
</linearGradient>
</defs>
</svg>
