<svg width="3" height="4" viewBox="0 0 3 4" fill="none" xmlns="http://www.w3.org/2000/svg">
<path d="M0.842091 2.16725L0.595355 2.58913L1.23528 2.75105L1.54385 2.22641C1.50223 2.51872 1.51312 2.68333 1.33237 2.88288C1.23787 2.97934 1.1112 3.03767 0.976473 3.04676C0.896868 3.0483 0.517153 3.03286 0.390976 3.01489C1.21958 3.22299 0.942587 3.17926 1.55842 3.20902C1.69902 3.2087 1.83493 3.1584 1.94187 3.06712C2.0488 2.97583 2.1198 2.84949 2.14218 2.71068C2.15385 2.62867 2.31097 1.32936 2.31393 1.23323C2.32194 1.14558 2.30432 1.05748 2.26323 0.979645C2.22213 0.901809 2.15932 0.837577 2.08242 0.79475C1.99378 0.754237 2.06349 0.777035 1.34184 0.58631C1.46076 0.620876 1.56152 0.700446 1.62271 0.808117C1.6839 0.915787 1.7007 1.04307 1.66954 1.16293C0.974626 0.980305 1.18642 1.01475 0.717188 0.995142C0.693504 0.995415 0.670365 1.00228 0.650366 1.01497C0.630367 1.02766 0.614302 1.04568 0.60397 1.06699C0.582363 1.11326 0.595544 1.03575 0.474653 2.06558L0.842091 2.16725ZM1.27333 1.20307C1.32708 1.15708 1.32528 1.1697 1.66654 1.18396L1.60396 1.62348L1.20888 1.52002L1.18337 1.56359C1.2262 1.29291 1.21808 1.25957 1.27333 1.20307Z" fill="url(#paint0_linear_82_246)"/>
<defs>
<linearGradient id="paint0_linear_82_246" x1="1.54883" y1="0.624367" x2="1.18172" y2="3.20258" gradientUnits="userSpaceOnUse">
<stop stop-color="#9E6100"/>
<stop offset="0.49" stop-color="#642701"/>
<stop offset="0.65" stop-color="#682A01"/>
<stop offset="0.81" stop-color="#753401"/>
<stop offset="0.98" stop-color="#8A4401"/>
<stop offset="1" stop-color="#8C4601"/>
</linearGradient>
</defs>
</svg>
