<svg width="4" height="3" viewBox="0 0 4 3" fill="none" xmlns="http://www.w3.org/2000/svg">
<path d="M3.7407 0.849819C3.73435 0.780074 3.70938 0.713314 3.6684 0.656523C3.62742 0.599732 3.57193 0.554996 3.50774 0.526993C3.44825 0.507795 1.40023 0.108897 1.36028 0.103207C1.27015 0.10109 1.18252 0.132962 1.11482 0.192491C1.04711 0.252019 1.00428 0.334846 0.994838 0.424505C0.782794 1.82327 0.767746 1.7632 0.839921 1.93439C0.877789 2.0172 0.944734 2.08323 1.02806 2.11996C1.08725 2.14126 3.13016 2.54586 3.17222 2.55185C3.26267 2.55602 3.35125 2.52522 3.41962 2.46586C3.48799 2.40649 3.5309 2.3231 3.53946 2.23296C3.75482 0.841102 3.74615 0.947147 3.7407 0.849819Z" fill="url(#paint0_linear_82_503)"/>
<defs>
<linearGradient id="paint0_linear_82_503" x1="0.88131" y1="1.1314" x2="3.6572" y2="1.52666" gradientUnits="userSpaceOnUse">
<stop stop-color="#FFE6AB"/>
<stop offset="1" stop-color="#FFD778"/>
</linearGradient>
</defs>
</svg>
