<svg width="4" height="7" viewBox="0 0 4 7" fill="none" xmlns="http://www.w3.org/2000/svg">
<path d="M3.14784 1.88929C3.10615 2.0314 3.27662 1.69307 0.951974 5.97936C0.910797 6.06726 0.844047 6.14069 0.760458 6.19004C0.676869 6.23939 0.580332 6.26235 0.483475 6.25594C1.23512 6.34151 1.27269 6.37905 1.47029 6.24197C1.52068 6.20336 1.56431 6.15664 1.5994 6.10373C1.62521 6.05806 3.75567 2.15607 3.80338 2.03198C3.85092 1.89423 3.85566 1.74531 3.817 1.60481C3.73548 1.36362 3.66278 1.34683 3.27633 1.04721L2.87887 0.990615L2.39776 0.617434L2.80573 0.675525C2.39013 0.354586 2.59173 0.430496 1.7106 0.30503C1.77189 0.316421 1.82934 0.343047 1.87765 0.382458C3.09682 1.32846 3.02078 1.24469 3.10797 1.41588C3.1746 1.56458 3.18866 1.73154 3.14784 1.88929Z" fill="url(#paint0_linear_82_203)"/>
<defs>
<linearGradient id="paint0_linear_82_203" x1="2.68906" y1="0.440064" x2="1.83357" y2="6.44818" gradientUnits="userSpaceOnUse">
<stop stop-color="#9E6100"/>
<stop offset="0.49" stop-color="#642701"/>
<stop offset="0.65" stop-color="#682A01"/>
<stop offset="0.81" stop-color="#753401"/>
<stop offset="0.98" stop-color="#8A4401"/>
<stop offset="1" stop-color="#8C4601"/>
</linearGradient>
</defs>
</svg>
