<svg width="7" height="6" viewBox="0 0 7 6" fill="none" xmlns="http://www.w3.org/2000/svg">
<path fill-rule="evenodd" clip-rule="evenodd" d="M6.65618 3.60059L6.20478 3.65573C6.19169 3.7244 6.19065 3.7295 6.17792 3.79182C6.16249 3.86732 6.1299 4.02679 6.03796 4.48495L6.4897 4.42742C6.3979 4.89873 6.38695 4.93738 6.38014 4.97675C6.37821 4.98789 6.37662 4.99908 6.37362 5.02015C6.34686 5.13403 6.28691 5.23742 6.20136 5.31721C6.11582 5.397 6.00852 5.44961 5.89306 5.46839L5.19362 5.55401C5.29015 5.5282 5.37848 5.47814 5.45022 5.4086C5.52197 5.33906 5.57476 5.25233 5.60357 5.15665C5.64207 5.04028 5.99914 3.16585 6.01071 3.08464C6.03374 2.91464 6.00022 2.74179 5.9153 2.59273C5.83039 2.44367 5.6988 2.32668 5.54083 2.2598C1.04097 0.752412 0.947048 0.708989 0.853699 0.710191C0.84441 0.710311 0.835127 0.710872 0.821508 0.710477C0.540021 0.736196 1.3391 0.652573 1.52949 0.633378C1.56681 0.628456 1.60453 0.627291 1.64208 0.62991C1.77312 0.651005 6.29862 2.17517 6.35185 2.19494C6.50302 2.27593 6.62441 2.40303 6.69837 2.55776C6.77233 2.7125 6.79499 2.88679 6.76307 3.05529L6.65618 3.60059Z" fill="url(#paint0_linear_130_335)"/>
<defs>
<linearGradient id="paint0_linear_130_335" x1="3.90104" y1="0.939378" x2="3.28203" y2="5.28669" gradientUnits="userSpaceOnUse">
<stop stop-color="#9E6100"/>
<stop offset="0.49" stop-color="#642701"/>
<stop offset="0.65" stop-color="#682A01"/>
<stop offset="0.81" stop-color="#753401"/>
<stop offset="0.98" stop-color="#8A4401"/>
<stop offset="1" stop-color="#8C4601"/>
</linearGradient>
</defs>
</svg>
