<svg width="4" height="2" viewBox="0 0 4 2" fill="none" xmlns="http://www.w3.org/2000/svg">
<path d="M1.88942 1.52497C1.89571 1.48081 1.88339 1.47691 1.84189 1.36158C3.17353 0.628587 3.10987 0.683895 3.13868 0.632212C3.15422 0.608308 3.16197 0.580178 3.16088 0.551692C3.16597 0.515942 3.16237 0.541175 3.04958 0.218295L2.35415 0.235137C2.45823 0.528882 2.45732 0.52017 2.46124 0.537892C2.46838 0.56522 2.46711 0.594074 2.45758 0.620666C2.44805 0.647257 2.43071 0.670349 2.40783 0.686917L1.14346 1.38443L1.18196 1.49075C1.1911 1.5194 1.19267 1.54993 1.18651 1.57937C1.17603 1.65297 1.14448 1.64848 0.923443 1.76934L1.62157 1.7486C1.82639 1.63615 1.88286 1.63132 1.88942 1.52497Z" fill="url(#paint0_linear_82_174)"/>
<defs>
<linearGradient id="paint0_linear_82_174" x1="2.19578" y1="0.0967223" x2="1.93706" y2="1.91367" gradientUnits="userSpaceOnUse">
<stop stop-color="#9E6100"/>
<stop offset="0.49" stop-color="#642701"/>
<stop offset="0.65" stop-color="#682A01"/>
<stop offset="0.81" stop-color="#753401"/>
<stop offset="0.98" stop-color="#8A4401"/>
<stop offset="1" stop-color="#8C4601"/>
</linearGradient>
</defs>
</svg>
