<svg width="6" height="7" viewBox="0 0 6 7" fill="none" xmlns="http://www.w3.org/2000/svg">
<path d="M5.18765 4.70262C5.18825 4.52978 5.13472 4.36109 5.03457 4.22022C4.96458 4.12983 1.48879 0.693376 1.43486 0.644266C1.21504 0.476491 1.14784 0.520542 0.301326 0.577911C0.375665 0.573431 0.450089 0.585158 0.519445 0.612286C0.588802 0.639415 0.651433 0.681298 0.703003 0.735027C4.54712 4.54562 4.21429 4.21309 4.29658 4.33691C4.3631 4.44715 4.40297 4.57138 4.41304 4.69974C4.42311 4.82809 4.4031 4.95703 4.35458 5.07629C4.29425 5.20905 3.33543 6.65417 3.30269 6.69581C3.25957 6.75167 3.20505 6.7977 3.14277 6.83085C3.08048 6.864 3.01185 6.88351 2.94143 6.88808C4.07455 6.78622 3.91559 6.89276 4.34453 6.22515L3.8805 6.26631L4.30365 5.62225L4.76768 5.58109C5.08138 5.12372 5.17688 5.03496 5.18765 4.70262Z" fill="url(#paint0_linear_130_317)"/>
<defs>
<linearGradient id="paint0_linear_130_317" x1="3.01269" y1="0.790949" x2="2.15967" y2="6.78164" gradientUnits="userSpaceOnUse">
<stop stop-color="#9E6100"/>
<stop offset="0.49" stop-color="#642701"/>
<stop offset="0.65" stop-color="#682A01"/>
<stop offset="0.81" stop-color="#753401"/>
<stop offset="0.98" stop-color="#8A4401"/>
<stop offset="1" stop-color="#8C4601"/>
</linearGradient>
</defs>
</svg>
