<svg width="4" height="3" viewBox="0 0 4 3" fill="none" xmlns="http://www.w3.org/2000/svg">
<path d="M2.92972 1.73164L3.356 1.75157L3.39373 1.4866C3.40959 1.40928 3.39889 1.32888 3.36336 1.2584C3.32784 1.18793 3.26957 1.13151 3.19799 1.09827L1.54623 0.764376C1.50627 0.758687 1.64686 0.765832 0.824045 0.728057C0.855589 0.732549 2.4746 1.05534 2.51937 1.07244C2.57054 1.10019 2.61356 1.14084 2.64415 1.19037C2.67474 1.23989 2.69183 1.29656 2.69373 1.35474C2.69828 1.44336 2.70424 1.35624 2.51886 2.58286C2.51568 2.65926 2.4838 2.73166 2.42959 2.78558C2.37537 2.83951 2.30282 2.87101 2.2264 2.87378C3.00746 2.90347 2.94077 2.9047 2.99844 2.89145C3.20598 2.82016 3.2125 2.6237 3.24005 2.43023L2.81347 2.4124L2.92972 1.73164Z" fill="url(#paint0_linear_82_173)"/>
<defs>
<linearGradient id="paint0_linear_82_173" x1="2.13715" y1="0.848518" x2="1.85628" y2="2.82108" gradientUnits="userSpaceOnUse">
<stop stop-color="#9E6100"/>
<stop offset="0.49" stop-color="#642701"/>
<stop offset="0.65" stop-color="#682A01"/>
<stop offset="0.81" stop-color="#753401"/>
<stop offset="0.98" stop-color="#8A4401"/>
<stop offset="1" stop-color="#8C4601"/>
</linearGradient>
</defs>
</svg>
