<svg width="3" height="3" viewBox="0 0 3 3" fill="none" xmlns="http://www.w3.org/2000/svg">
<path d="M2.13206 2.47371C2.12878 2.43783 2.11325 2.40416 2.08807 2.37839C2.06289 2.35261 2.0296 2.33629 1.9938 2.33217L1.86994 2.32916L1.77648 0.161488C1.77585 0.126027 1.76358 0.0917559 1.74156 0.0639577C1.71953 0.0361594 1.68898 0.0163781 1.6546 0.00765826C1.28981 -0.0103934 0.924221 0.0194851 0.5672 0.0965293C0.919334 0.10524 0.899887 0.104907 0.926162 0.108648C0.957974 0.118907 0.985161 0.140028 1.00296 0.16832C1.04667 0.237907 1.02851 0.0915385 1.12854 2.43561C1.23773 2.43897 1.35066 2.41607 1.38758 2.56755C1.40073 2.69804 1.40729 2.82911 1.40721 2.96027L2.15577 2.83777L2.13206 2.47371Z" fill="url(#paint0_linear_130_344)"/>
<defs>
<linearGradient id="paint0_linear_130_344" x1="1.56861" y1="-0.00458594" x2="1.14992" y2="2.93582" gradientUnits="userSpaceOnUse">
<stop stop-color="#9E6100"/>
<stop offset="0.49" stop-color="#642701"/>
<stop offset="0.65" stop-color="#682A01"/>
<stop offset="0.81" stop-color="#753401"/>
<stop offset="0.98" stop-color="#8A4401"/>
<stop offset="1" stop-color="#8C4601"/>
</linearGradient>
</defs>
</svg>
