<svg width="2" height="4" viewBox="0 0 2 4" fill="none" xmlns="http://www.w3.org/2000/svg">
<path d="M1.85447 1.34262C1.86295 1.19474 1.81432 1.04926 1.71862 0.936211C1.62291 0.823161 1.48745 0.751183 1.3402 0.735146C1.17738 0.711295 1.01344 0.695826 0.849025 0.688806C0.782609 0.692374 0.717566 0.709125 0.657688 0.738079C0.59781 0.767033 0.544293 0.807612 0.500253 0.857454C0.456213 0.907296 0.42253 0.965405 0.40117 1.02839C0.379809 1.09138 0.371199 1.15799 0.375836 1.22434C0.353391 2.72305 0.329046 2.69813 0.429777 2.90987C0.486244 3.02354 0.581561 3.11323 0.698454 3.16268C0.894864 3.2183 1.09787 3.24721 1.302 3.24862C1.39744 3.25988 1.49399 3.2406 1.57779 3.19355C1.66159 3.1465 1.72832 3.0741 1.7684 2.98676C1.85333 2.79717 1.83143 2.86056 1.85447 1.34262ZM0.805089 1.17818C0.814519 1.16715 0.826151 1.15822 0.839237 1.15196C0.852322 1.14569 0.866572 1.14223 0.881074 1.1418L1.27222 1.18248L0.760211 2.23171C0.777758 1.18931 0.766963 1.23497 0.807191 1.17848L0.805089 1.17818ZM1.3925 2.76373C1.33845 2.81182 1.32823 2.7932 0.939187 2.75282L1.44969 1.7141C1.43094 2.74989 1.44834 2.70303 1.3949 2.76193L1.3925 2.76373Z" fill="url(#paint0_linear_82_477)"/>
<defs>
<linearGradient id="paint0_linear_82_477" x1="0.282696" y1="1.84832" x2="1.9272" y2="2.08248" gradientUnits="userSpaceOnUse">
<stop stop-color="#FFE6AB"/>
<stop offset="1" stop-color="#FFD778"/>
</linearGradient>
</defs>
</svg>
