<svg width="4" height="2" viewBox="0 0 4 2" fill="none" xmlns="http://www.w3.org/2000/svg">
<path d="M3.38045 0.458334C3.34221 0.457707 3.30511 0.471292 3.27631 0.496456C3.24752 0.52162 3.22908 0.556575 3.22458 0.59455C3.2222 0.611271 3.22458 0.594551 3.20111 0.759367C0.372992 0.407848 1.17113 0.501996 1.02679 0.488755C0.988842 0.489159 0.952283 0.503108 0.923705 0.528082C0.895126 0.553057 0.876408 0.587417 0.870922 0.624972C0.868542 0.641692 0.876019 0.58914 0.827777 1.04775C4.33324 1.48597 3.32866 1.36973 3.51668 1.38432C3.55613 1.38391 3.59398 1.36865 3.62268 1.34157C3.65138 1.31448 3.66882 1.27758 3.67152 1.23821L3.74932 0.503546L3.38045 0.458334Z" fill="url(#paint0_linear_130_642)"/>
<defs>
<linearGradient id="paint0_linear_130_642" x1="0.885231" y1="0.575829" x2="3.71575" y2="0.978868" gradientUnits="userSpaceOnUse">
<stop stop-color="#FFE6AB"/>
<stop offset="1" stop-color="#FFD778"/>
</linearGradient>
</defs>
</svg>
