<svg width="5" height="7" viewBox="0 0 5 7" fill="none" xmlns="http://www.w3.org/2000/svg">
<path d="M3.01647 5.78318L3.37607 5.83438L3.85924 5.45475C3.98739 5.35053 4.07645 5.20597 4.11189 5.04463C4.14733 4.8833 4.12707 4.71472 4.0544 4.56638C4.02854 4.52193 1.36449 0.387824 1.26801 0.281826C1.2129 0.224966 1.14589 0.18099 1.07179 0.153044C0.83884 0.0865255 0.601381 0.036938 0.361276 0.00466984C0.495329 0.0275622 0.615943 0.099854 0.699325 0.207287C0.740506 0.264645 3.41837 4.39214 3.46768 4.49786C3.53351 4.65336 3.54294 4.82698 3.49434 4.9887C3.38964 5.30207 3.39382 5.24258 1.85903 6.453C1.73938 6.54883 1.58774 6.59551 1.43492 6.58357L1.98019 6.67194C2.32297 6.72075 2.46378 6.54555 2.75146 6.31832L2.39185 6.26711L3.01647 5.78318Z" fill="url(#paint0_linear_82_292)"/>
<defs>
<linearGradient id="paint0_linear_82_292" x1="2.55315" y1="0.3275" x2="1.65484" y2="6.63634" gradientUnits="userSpaceOnUse">
<stop stop-color="#9E6100"/>
<stop offset="0.49" stop-color="#642701"/>
<stop offset="0.65" stop-color="#682A01"/>
<stop offset="0.81" stop-color="#753401"/>
<stop offset="0.98" stop-color="#8A4401"/>
<stop offset="1" stop-color="#8C4601"/>
</linearGradient>
</defs>
</svg>
