<svg width="14" height="5" viewBox="0 0 14 5" fill="none" xmlns="http://www.w3.org/2000/svg">
<path d="M1.5814 2.34752C3.31183 2.65485 3.0692 2.59593 2.43589 2.54231L4.02811 2.82751C4.7242 2.8852 4.03389 2.78691 6.78427 3.27358C7.02314 3.30759 7.1139 3.32052 6.50004 3.26723C8.23763 3.57557 7.83156 3.51775 8.45532 3.57001L10.63 3.95766L10.1629 3.91795C13.3763 4.49005 12.7321 4.39345 13.4548 4.45249L0.660397 2.17495C0.850757 1.35152 0.774469 1.66479 0.984943 0.802796L0.431476 0.753232C0.231221 1.57769 0.305461 1.26169 0.10659 2.12778C0.591413 2.24095 1.08465 2.31444 1.5814 2.34752Z" fill="url(#paint0_linear_130_209)"/>
<defs>
<linearGradient id="paint0_linear_130_209" x1="7.01146" y1="1.66091" x2="6.74583" y2="3.52644" gradientUnits="userSpaceOnUse">
<stop stop-color="#9E6100"/>
<stop offset="0.49" stop-color="#642701"/>
<stop offset="0.65" stop-color="#682A01"/>
<stop offset="0.81" stop-color="#753401"/>
<stop offset="0.98" stop-color="#8A4401"/>
<stop offset="1" stop-color="#8C4601"/>
</linearGradient>
</defs>
</svg>
