<svg width="44" height="41" viewBox="0 0 44 41" fill="none" xmlns="http://www.w3.org/2000/svg">
<path d="M4.83136 17.5692C6.0059 20.0664 7.40163 22.4534 9.00184 24.7017C12.5004 29.4842 15.9703 32.7736 20.8497 35.8007C23.2254 37.2329 25.7612 38.3808 28.405 39.2209C29.957 39.7133 31.5421 40.0946 33.1483 40.3618C36.4454 40.9128 39.8067 40.9633 43.1189 40.5118C44.1565 40.3622 43.485 40.4567 42.3973 40.5821C40.9179 40.7029 41.4784 40.6682 39.912 40.7327C38.2451 40.7717 36.5776 40.6849 34.9237 40.4733C31.8489 40.0837 28.8407 39.2808 25.9808 38.0861C23.4508 37.0239 21.0499 35.6772 18.8245 34.072C14.1244 30.5904 10.9365 27.0146 7.85452 22.1135C4.84104 17.0905 3.03632 12.5126 1.73633 6.58093C1.29625 4.47108 0.989848 2.33553 0.818955 0.187054L0.820995 0.172723L0.742171 0.161499L0.803212 0.828193L0.329606 0.816811C0.845473 6.62009 2.36885 12.2891 4.83136 17.5692Z" fill="url(#paint0_linear_130_221)"/>
<defs>
<linearGradient id="paint0_linear_130_221" x1="24.4077" y1="3.5215" x2="19.4386" y2="38.4194" gradientUnits="userSpaceOnUse">
<stop stop-color="#9E6100"/>
<stop offset="0.49" stop-color="#642701"/>
<stop offset="0.65" stop-color="#682A01"/>
<stop offset="0.81" stop-color="#753401"/>
<stop offset="0.98" stop-color="#8A4401"/>
<stop offset="1" stop-color="#8C4601"/>
</linearGradient>
</defs>
</svg>
