<svg width="3" height="3" viewBox="0 0 3 3" fill="none" xmlns="http://www.w3.org/2000/svg">
<path d="M2.2721 2.40951C2.54637 2.2804 2.60357 1.99853 2.57273 1.70169C2.56135 1.46152 2.52161 1.22354 2.45434 0.99271C2.41085 0.870689 2.32655 0.767433 2.2157 0.700402C2.07885 0.634611 2.13242 0.651988 1.2497 0.638402C1.37157 0.657325 1.48343 0.717001 1.56701 0.807689C1.65058 0.898377 1.70095 1.01472 1.70989 1.13772L1.22332 1.13181L0.432131 1.31403L1.40612 1.69643L1.78316 1.70137C1.8147 2.01049 1.72238 2.33366 1.41873 2.41228C0.125333 2.69846 0.329015 2.65436 0.266578 2.66497C0.204142 2.67557 -0.0040009 2.66543 1.01827 2.67451C1.11313 2.67583 2.2182 2.42864 2.2721 2.40951ZM1.22613 1.31742L1.71435 1.20904L1.75818 1.53453L1.22613 1.31742Z" fill="url(#paint0_linear_130_256)"/>
<defs>
<linearGradient id="paint0_linear_130_256" x1="1.64378" y1="0.592159" x2="1.32509" y2="2.83031" gradientUnits="userSpaceOnUse">
<stop stop-color="#9E6100"/>
<stop offset="0.49" stop-color="#642701"/>
<stop offset="0.65" stop-color="#682A01"/>
<stop offset="0.81" stop-color="#753401"/>
<stop offset="0.98" stop-color="#8A4401"/>
<stop offset="1" stop-color="#8C4601"/>
</linearGradient>
</defs>
</svg>
