<svg width="3" height="4" viewBox="0 0 3 4" fill="none" xmlns="http://www.w3.org/2000/svg">
<path d="M2.30033 2.43819C2.28865 2.42467 2.27436 2.41365 2.25831 2.40578C2.24227 2.39792 2.22479 2.39337 2.20695 2.39242C2.1891 2.39148 2.17125 2.39414 2.15446 2.40026C2.13767 2.40638 2.12229 2.41584 2.10925 2.42805L2.00352 2.53728C0.0876209 0.297761 0.63419 0.926368 0.530411 0.816545C0.517861 0.802971 0.502654 0.792115 0.48574 0.784652C0.468826 0.77719 0.450559 0.773277 0.432072 0.773158C0.413586 0.773038 0.395275 0.776712 0.378265 0.783956C0.361256 0.791199 0.345917 0.801856 0.333192 0.815267L0.0726307 1.08767L1.87723 3.20168C1.89952 3.23134 1.93267 3.25094 1.9694 3.25617C2.00613 3.2614 2.04343 3.25183 2.0731 3.22957C2.08982 3.21489 2.10721 3.19543 2.55569 2.73288L2.30033 2.43819Z" fill="url(#paint0_linear_130_614)"/>
<defs>
<linearGradient id="paint0_linear_130_614" x1="-0.0365556" y1="1.83736" x2="2.62677" y2="2.2166" gradientUnits="userSpaceOnUse">
<stop stop-color="#FFE6AB"/>
<stop offset="1" stop-color="#FFD778"/>
</linearGradient>
</defs>
</svg>
