<svg width="3" height="4" viewBox="0 0 3 4" fill="none" xmlns="http://www.w3.org/2000/svg">
<path d="M0.744292 1.57128C0.733748 1.64533 0.84019 3.10566 0.858325 3.21791C0.87464 3.3314 0.932464 3.43481 1.02061 3.50813C1.10875 3.58146 1.22096 3.61948 1.33552 3.61487C1.4703 3.60969 1.95101 3.50267 1.99639 3.49207C2.1476 3.43844 2.27671 3.33608 2.36342 3.20109C2.45014 3.0661 2.48954 2.90612 2.47545 2.7463C2.36346 1.08534 2.37991 1.24365 2.34777 1.10991C2.33243 1.04151 2.30101 0.97774 2.25613 0.923885C2.21125 0.87003 2.15419 0.827636 2.08967 0.800211C1.89447 0.733423 1.83887 0.764499 1.27661 0.879403C1.12302 0.918105 0.986959 1.00743 0.890378 1.13296C0.793797 1.25849 0.742332 1.41291 0.744292 1.57128ZM2.01115 2.94339C1.95864 3.02121 1.95352 3.00586 1.5018 3.09751L1.96831 1.78944C2.03538 2.94441 2.04354 2.87002 2.00433 2.93999L2.01115 2.94339ZM1.25569 1.40283C1.29935 1.37005 1.27342 1.38098 1.72275 1.28899L1.25487 2.58956C1.17963 1.4578 1.15882 1.48408 1.24613 1.40147L1.25569 1.40283Z" fill="url(#paint0_linear_130_558)"/>
<defs>
<linearGradient id="paint0_linear_130_558" x1="0.670471" y1="2.05549" x2="2.55032" y2="2.32317" gradientUnits="userSpaceOnUse">
<stop stop-color="#FFE6AB"/>
<stop offset="1" stop-color="#FFD778"/>
</linearGradient>
</defs>
</svg>
