<svg width="40" height="33" viewBox="0 0 40 33" fill="none" xmlns="http://www.w3.org/2000/svg">
<path d="M1.89881 1.89392L3.06327 2.12409L2.63759 2.09996L4.03338 2.37809C4.6363 2.40816 4.04147 2.32131 6.56476 2.81792C6.63206 2.8275 6.71407 2.83918 6.19947 2.80667C9.74723 3.50709 9.11755 3.40884 9.69313 3.43502L11.6171 3.81625L11.2037 3.79601L12.0383 3.96205C13.2381 5.82789 11.9824 3.87255 13.205 5.77384C13.248 8.22179 13.5745 10.6565 14.178 13.0293L14.5872 13.0339C14.7316 13.6166 15.0313 14.6463 15.2391 15.2509L14.8294 15.2505C16.5187 20.1426 18.8734 23.722 22.1864 26.8693C25.0252 29.4298 27.6808 30.9559 31.2071 32.033C33.7861 32.7904 36.4886 33.0345 39.1615 32.7515C38.2539 32.8258 37.3424 32.8394 36.433 32.7921C34.5969 32.6999 32.781 32.3656 31.0325 31.7979C27.5392 30.6096 24.9406 28.9994 22.188 26.3911C16.6809 20.8866 13.8679 13.5644 13.6898 5.78924L12.525 3.97985L1.0591 1.70355C1.11764 0.96093 1.09434 1.24512 1.16668 0.465844L0.677309 0.436929C0.607657 1.18226 0.63336 0.896264 0.569431 1.67674C1.663 1.90755 1.37069 1.86592 1.89881 1.89392Z" fill="url(#paint0_linear_82_116)"/>
<defs>
<linearGradient id="paint0_linear_82_116" x1="21.7945" y1="3.41806" x2="17.9584" y2="30.3589" gradientUnits="userSpaceOnUse">
<stop stop-color="#9E6100"/>
<stop offset="0.49" stop-color="#642701"/>
<stop offset="0.65" stop-color="#682A01"/>
<stop offset="0.81" stop-color="#753401"/>
<stop offset="0.98" stop-color="#8A4401"/>
<stop offset="1" stop-color="#8C4601"/>
</linearGradient>
</defs>
</svg>
