<svg width="45" height="21" viewBox="0 0 45 21" fill="none" xmlns="http://www.w3.org/2000/svg">
<path d="M0.15969 19.2361C0.132441 19.4274 0.152203 19.2886 0.062072 19.9216L3.29674 20.4552L3.9862 19.8925C6.74584 13.6663 10.5679 9.11048 15.5752 5.64817C17.1103 4.61172 18.7451 3.73114 20.4552 3.01953C24.3993 1.43341 27.6549 0.931447 31.4727 1.076C33.8774 1.19766 36.2526 1.66084 38.5268 2.45161C40.5378 3.15431 42.456 4.09892 44.239 5.26466C44.6448 4.58437 44.5719 4.70486 44.6397 4.59007C43.8453 4.07279 43.0242 3.59778 42.1797 3.167C39.8981 2.00324 37.4591 1.17818 34.9395 0.717833C30.02 -0.183579 24.9446 0.360718 20.3281 2.2848C18.0192 3.2511 15.8473 4.51659 13.8682 6.04878C9.43496 9.56281 6.13272 13.6627 3.5405 19.4364L3.18135 19.7285L0.15969 19.2361Z" fill="#FFE082"/>
</svg>
