<svg width="2" height="4" viewBox="0 0 2 4" fill="none" xmlns="http://www.w3.org/2000/svg">
<path d="M1.99749 1.50941C2.0062 1.37469 1.96932 1.24096 1.89277 1.12976C1.71242 0.889518 1.55471 0.897099 1.14131 0.78674C1.07778 0.768852 1.01105 0.765354 0.945997 0.776504C0.880941 0.787654 0.819191 0.813171 0.76524 0.851196C0.663652 0.928828 0.594198 1.04114 0.570123 1.16671C0.560242 1.23611 0.377883 2.5168 0.382137 2.62254C0.375535 2.72924 0.399458 2.83562 0.451103 2.92922C0.502748 3.02283 0.57998 3.09979 0.673766 3.15111C0.854612 3.23123 1.04446 3.28923 1.2392 3.32388C1.32931 3.35238 1.42635 3.35002 1.51496 3.31717C1.60358 3.28432 1.67871 3.22286 1.72847 3.14252C1.76838 3.08065 1.79637 3.01187 1.81099 2.93971C1.82477 2.858 1.99152 1.59653 1.99749 1.50941ZM0.985613 1.24733C1.04447 1.19563 1.05019 1.21576 1.44616 1.3129L0.827762 2.25044C0.958876 1.23923 0.942078 1.29691 0.985613 1.24733ZM1.3994 2.8618C1.34025 2.91559 1.32222 2.89157 0.947272 2.79742L1.55576 1.8692C1.41954 2.8711 1.43813 2.81581 1.3964 2.85278L1.3994 2.8618Z" fill="url(#paint0_linear_82_472)"/>
<defs>
<linearGradient id="paint0_linear_82_472" x1="0.458433" y1="1.95111" x2="1.92208" y2="2.15952" gradientUnits="userSpaceOnUse">
<stop stop-color="#FFE6AB"/>
<stop offset="1" stop-color="#FFD778"/>
</linearGradient>
</defs>
</svg>
