<svg width="3" height="4" viewBox="0 0 3 4" fill="none" xmlns="http://www.w3.org/2000/svg">
<path d="M0.295049 1.14197C0.0868962 2.60381 0.0663945 2.5424 0.136763 2.71571C0.17015 2.79918 0.23501 2.86618 0.317351 2.90226C0.372978 2.92237 2.3218 3.2876 2.36275 3.29099C2.45444 3.29014 2.54234 3.25429 2.60846 3.19077C2.67459 3.12725 2.71394 3.04086 2.71847 2.94928C2.92527 1.49699 2.90928 1.60925 2.92254 1.5161C2.91909 1.44634 2.89666 1.37884 2.85767 1.3209C2.81868 1.26295 2.76461 1.21675 2.70129 1.18727C2.65044 1.16785 0.693091 0.811152 0.656921 0.808438C0.565664 0.808167 0.477673 0.84238 0.41057 0.904228C0.343466 0.966075 0.302204 1.05099 0.295049 1.14197Z" fill="url(#paint0_linear_130_533)"/>
<defs>
<linearGradient id="paint0_linear_130_533" x1="0.183458" y1="1.8572" x2="2.81812" y2="2.23235" gradientUnits="userSpaceOnUse">
<stop stop-color="#FFE6AB"/>
<stop offset="1" stop-color="#FFD778"/>
</linearGradient>
</defs>
</svg>
