<svg width="7" height="5" viewBox="0 0 7 5" fill="none" xmlns="http://www.w3.org/2000/svg">
<path d="M6.88122 2.87925C6.87092 2.74618 6.49536 0.762554 6.47587 0.676919C6.45245 0.584053 6.41304 0.495975 6.3594 0.416628C6.29394 0.310689 6.19885 0.226264 6.0859 0.173798C5.97296 0.121332 5.84711 0.103119 5.72393 0.121424C0.469719 1.07922 0.852177 0.994769 0.715384 1.06546C0.605064 1.13473 0.51548 1.23248 0.45608 1.34841C0.396681 1.46434 0.369666 1.59415 0.377887 1.72415C0.388184 1.85722 0.752134 3.8197 0.771963 3.90294C0.806458 4.06955 0.900881 4.21772 1.03734 4.31935C1.17379 4.42098 1.34279 4.46902 1.5123 4.45435C6.79621 3.52759 6.39908 3.61239 6.54338 3.54033C6.65413 3.47091 6.74403 3.37279 6.80351 3.2564C6.86299 3.14 6.88984 3.00968 6.88122 2.87925Z" fill="url(#paint0_linear_130_583)"/>
<defs>
<linearGradient id="paint0_linear_130_583" x1="0.353707" y1="1.8255" x2="6.91051" y2="2.75913" gradientUnits="userSpaceOnUse">
<stop stop-color="#FFE6AB"/>
<stop offset="1" stop-color="#FFD778"/>
</linearGradient>
</defs>
</svg>
