<svg width="7" height="5" viewBox="0 0 7 5" fill="none" xmlns="http://www.w3.org/2000/svg">
<path d="M0.434396 3.03538C0.435373 3.14324 0.466639 3.24866 0.524627 3.33962C0.582616 3.43057 0.664992 3.50341 0.762368 3.54981C0.804427 3.5558 4.94183 4.80148 5.0662 4.81704C5.21703 4.82051 5.36311 4.76418 5.47257 4.66035C5.68846 4.45507 5.64731 4.45779 6.1926 2.61729C6.2408 2.47383 6.23638 2.3179 6.18012 2.17741C6.12386 2.03692 6.01943 1.92103 5.88554 1.8505C5.83446 1.8325 1.68717 0.626184 1.55619 0.611825C1.44358 0.610602 1.33291 0.641149 1.23687 0.699959C1.14083 0.758769 1.06331 0.84346 1.01321 0.944317C0.947785 1.07232 1.00659 0.900462 0.455616 2.79595C0.435527 2.87406 0.428359 2.95494 0.434396 3.03538Z" fill="url(#paint0_linear_82_480)"/>
<defs>
<linearGradient id="paint0_linear_82_480" x1="0.521186" y1="2.32038" x2="6.11923" y2="3.11749" gradientUnits="userSpaceOnUse">
<stop stop-color="#FFE6AB"/>
<stop offset="1" stop-color="#FFD778"/>
</linearGradient>
</defs>
</svg>
