<svg width="4" height="3" viewBox="0 0 4 3" fill="none" xmlns="http://www.w3.org/2000/svg">
<path d="M3.06644 0.34697L2.40993 0.30223C2.5073 0.30936 2.60165 0.339117 2.68549 0.389133C2.76933 0.439148 2.84035 0.50804 2.89287 0.59033C3.0619 0.858103 3.02444 1.01849 3.03185 1.54839L1.89977 0.941209C3.32943 0.913258 3.22401 0.934804 2.34536 0.875494L1.24087 0.896129L2.49923 1.57491L3.023 1.61049C3.02591 2.00084 2.91311 2.29672 2.54363 2.40983C2.40579 2.4365 2.59379 2.41697 0.830769 2.45838L1.42995 2.49496C1.52072 2.50788 1.18565 2.49916 3.03568 2.47989C3.4772 2.4599 3.66474 2.16979 3.68057 1.71631C3.67102 0.996017 3.68706 0.986116 3.60438 0.762319C3.56234 0.649827 3.48969 0.551326 3.39464 0.477934C3.29959 0.404541 3.18591 0.35918 3.06644 0.34697Z" fill="url(#paint0_linear_130_420)"/>
<defs>
<linearGradient id="paint0_linear_130_420" x1="2.49317" y1="0.265341" x2="2.15339" y2="2.65158" gradientUnits="userSpaceOnUse">
<stop stop-color="#9E6100"/>
<stop offset="0.49" stop-color="#642701"/>
<stop offset="0.65" stop-color="#682A01"/>
<stop offset="0.81" stop-color="#753401"/>
<stop offset="0.98" stop-color="#8A4401"/>
<stop offset="1" stop-color="#8C4601"/>
</linearGradient>
</defs>
</svg>
