<svg width="4" height="3" viewBox="0 0 4 3" fill="none" xmlns="http://www.w3.org/2000/svg">
<path d="M0.702456 0.0163712C2.60657 0.386195 2.48879 0.339386 2.58647 0.451992C2.63793 0.520467 2.66665 0.60334 2.66859 0.688972C2.65751 0.766781 2.49162 1.93181 2.48893 1.95074C2.47808 2.01202 2.45062 2.06914 2.40953 2.11588C2.36845 2.16262 2.31532 2.19718 2.25594 2.2158C2.19616 2.22874 1.9345 2.21294 2.85375 2.25158C2.93337 2.25021 3.00954 2.21889 3.06709 2.16385C3.12463 2.10882 3.15932 2.03411 3.16423 1.95463C3.34719 0.669734 3.33222 0.774882 3.34389 0.692867C3.3427 0.631769 3.32474 0.572175 3.29198 0.520591C3.25921 0.469007 3.21291 0.427418 3.15811 0.400363C3.10914 0.382662 1.3967 0.0530043 1.36305 0.0482133L0.681426 0.0133766L0.702456 0.0163712Z" fill="url(#paint0_linear_82_213)"/>
<defs>
<linearGradient id="paint0_linear_82_213" x1="2.04441" y1="0.145231" x2="1.75754" y2="2.15985" gradientUnits="userSpaceOnUse">
<stop stop-color="#9E6100"/>
<stop offset="0.49" stop-color="#642701"/>
<stop offset="0.65" stop-color="#682A01"/>
<stop offset="0.81" stop-color="#753401"/>
<stop offset="0.98" stop-color="#8A4401"/>
<stop offset="1" stop-color="#8C4601"/>
</linearGradient>
</defs>
</svg>
