<svg width="3" height="3" viewBox="0 0 3 3" fill="none" xmlns="http://www.w3.org/2000/svg">
<path d="M0.662066 0.341257C0.490188 1.54835 0.458051 1.56308 0.522712 1.72677C0.55249 1.80001 0.60947 1.85888 0.6817 1.89102C0.728571 1.90842 2.44732 2.23898 2.47916 2.24136C2.55933 2.24054 2.63615 2.20913 2.69392 2.15354C2.75169 2.09795 2.78604 2.0224 2.78994 1.94233C2.972 0.663733 2.95793 0.762572 2.9696 0.680557C2.96657 0.619141 2.94682 0.55972 2.91249 0.508703C2.87816 0.457686 2.83056 0.417009 2.77481 0.391059C2.72644 0.384172 1.0101 0.0518109 0.976451 0.0470198C0.897028 0.0487966 0.821049 0.0797929 0.763047 0.134078C0.705045 0.188363 0.669092 0.262126 0.662066 0.341257Z" fill="url(#paint0_linear_82_440)"/>
<defs>
<linearGradient id="paint0_linear_82_440" x1="0.557214" y1="0.972147" x2="2.87676" y2="1.30243" gradientUnits="userSpaceOnUse">
<stop stop-color="#FFE6AB"/>
<stop offset="1" stop-color="#FFD778"/>
</linearGradient>
</defs>
</svg>
