<svg width="46" height="97" viewBox="0 0 46 97" fill="none" xmlns="http://www.w3.org/2000/svg">
<path d="M45.0051 53.9717C45.3142 53.7135 45.5092 53.3439 45.5478 52.943C45.5864 52.5421 45.4655 52.1421 45.2114 51.8297C45.5092 51.5586 45.6887 51.1813 45.711 50.7791C45.7334 50.377 45.5969 49.9821 45.3308 49.6797C45.6179 49.397 45.7824 49.0127 45.7887 48.6099C45.7951 48.207 45.643 47.8178 45.365 47.5261C45.6422 47.2332 45.7925 46.8427 45.7832 46.4395C45.7739 46.0364 45.6058 45.6532 45.3154 45.3734C45.5787 45.0702 45.7119 44.6754 45.6863 44.2746C45.6606 43.8737 45.4781 43.4992 45.1783 43.2319C45.4297 42.919 45.5475 42.5195 45.5059 42.1202C45.4643 41.7209 45.2668 41.3542 44.9562 41.0998C45.1944 40.7783 45.2958 40.3757 45.2385 39.9797C45.1811 39.5837 44.9696 39.2264 44.65 38.9857C44.8381 38.7061 44.9286 38.3722 44.9074 38.0359C44.8863 37.6997 44.7546 37.3798 44.5329 37.126C44.147 36.717 44.2316 37.1024 44.4149 36.5535C44.5212 36.2372 44.5169 35.8942 44.403 35.5806C44.289 35.267 44.072 35.0013 43.7875 34.827C43.8854 34.6572 43.9488 34.4697 43.974 34.2753C43.9992 34.0808 43.9857 33.8833 43.9343 33.6941C43.8828 33.505 43.7945 33.3278 43.6743 33.1729C43.5542 33.018 43.4046 32.8883 43.2341 32.7915C43.3262 32.6191 43.3829 32.43 43.4009 32.2354C43.4188 32.0407 43.3977 31.8445 43.3386 31.6581C43.2796 31.4718 43.1839 31.2991 43.0571 31.1503C42.9304 31.0015 42.7751 30.8796 42.6006 30.7917C42.7422 30.4912 42.7791 30.152 42.7055 29.828C42.6318 29.5041 42.4518 29.2142 42.1942 29.0045C41.7552 28.6824 41.8965 29.0308 41.9894 28.469C42.0465 28.1471 41.9893 27.8154 41.8275 27.5314C41.6657 27.2474 41.4097 27.0289 41.1037 26.9139C41.3812 26.0952 41.0074 25.2846 40.2455 25.0452C40.4893 24.2217 40.0768 23.427 39.3158 23.2264C39.5188 22.4185 39.1132 21.6356 38.3159 21.4641C38.4777 20.704 38.1019 19.9532 37.3355 19.7754L37.2514 19.7634C37.3195 19.458 37.2815 19.1384 37.1437 18.8575C37.0058 18.5765 36.7763 18.3509 36.4931 18.2179C36.3735 18.1717 36.2499 18.1368 36.1238 18.1138C36.1621 17.8885 36.1449 17.6572 36.0737 17.44C36.0026 17.2228 35.8797 17.0261 35.7156 16.867C35.4977 16.6785 35.2287 16.5588 34.9428 16.5231C34.9695 16.2918 34.9372 16.0575 34.849 15.8419C34.7607 15.6264 34.6194 15.4367 34.4382 15.2905C34.2168 15.1327 33.96 15.032 33.6903 14.9974C33.7042 14.7828 33.668 14.568 33.5845 14.3699C33.5009 14.1718 33.3725 13.9959 33.2092 13.8561C32.9375 13.6393 32.7471 13.6208 32.3832 13.5239C32.395 13.2361 32.309 12.9527 32.1391 12.7201C31.9692 12.4874 31.7255 12.3192 31.4478 12.2428C30.9842 12.1232 31.0326 12.1451 31.0356 12.124C31.0279 11.8877 30.9546 11.6581 30.8239 11.461C30.6932 11.2639 30.5102 11.1071 30.2955 11.0081C30.0805 10.9268 29.8592 10.863 29.6339 10.8173C29.6025 10.5144 29.4678 10.2316 29.2523 10.0163C28.9512 9.73529 28.7397 9.72878 28.1824 9.57433C28.147 9.3599 28.0585 9.15773 27.925 8.98626C27.6079 8.59138 27.3078 8.57439 26.6883 8.40465C26.6435 8.20052 26.5466 8.01146 26.4071 7.85586C26.2676 7.70027 26.0902 7.58344 25.8921 7.51673C25.0683 7.27498 25.1633 7.34643 25.1341 7.26504C24.852 6.53399 24.326 6.50629 23.5727 6.29606C23.5087 6.1321 23.4085 5.98472 23.2796 5.86493C23.1506 5.74514 22.9963 5.65604 22.828 5.60427C21.8564 5.33075 21.9604 5.36916 21.9417 5.33432C21.8113 5.08544 21.5932 4.89382 21.3296 4.79658C21.2623 4.77198 21.3863 4.80466 20.2991 4.49965C20.151 4.26371 19.9196 4.09212 19.6509 4.01901C18.0952 3.58293 18.8475 3.8145 18.331 3.47919C18.1492 3.36963 18.1867 3.39214 16.8528 3.01124C16.7428 2.91785 16.6146 2.84843 16.4763 2.80744C16.2488 2.73214 15.0342 2.38754 14.9656 2.35633C14.819 2.2861 15.115 2.37759 11.4168 1.31676C11.4959 1.33916 11.5721 1.37089 11.6437 1.41128C11.8062 1.50523 11.9775 1.5382 9.73499 0.89276C9.91571 0.944061 10.08 1.04139 10.2119 1.17522C7.40213 0.369627 8.11597 0.554949 8.30076 0.658503C8.42534 0.732452 8.5346 0.829581 8.62263 0.944638C6.19176 0.250922 6.29661 0.267996 6.49761 0.348112C6.708 0.437813 6.8838 0.593029 6.99889 0.790674C6.57406 0.670107 4.37844 0.0420711 4.73056 0.145849C4.82854 0.178125 4.92097 0.225298 5.00459 0.28571C5.64917 0.761552 4.2578 0.301673 8.71303 1.56042C8.60959 1.39638 8.4641 1.26306 8.29169 1.1743C10.6694 1.84971 10.4302 1.79635 10.3969 1.7444C10.3558 1.67769 10.3078 1.61549 10.2538 1.55881C10.2312 1.53629 10.0263 1.48352 12.1108 2.07856C12.0895 2.03796 12.0657 1.99874 12.0396 1.96113L13.7902 2.4593L13.8239 2.53919L15.4114 2.99267C15.4439 3.05505 15.4712 3.11993 15.4932 3.18669L17.0174 3.61827C17.0715 3.71324 17.114 3.81439 17.144 3.91952C18.7123 4.35739 18.5888 4.32049 18.6071 4.34242C18.6795 4.46492 18.7329 4.59767 18.7656 4.73617L20.1416 5.12306C20.2516 5.27754 20.3274 5.45363 20.3642 5.63965L21.6624 6.00044C21.8074 6.18445 21.9027 6.40268 21.939 6.63416C23.2811 7.00334 23.1417 6.95774 23.1756 6.99047C23.3446 7.19394 23.4502 7.44245 23.4794 7.70528C24.7187 8.04267 24.5934 8.00337 24.6138 8.02559C24.8284 8.2532 24.9571 8.54841 24.9777 8.86054C26.1353 9.16913 25.9839 9.11753 26.0407 9.17067C26.2814 9.41557 26.4217 9.74172 26.434 10.0849C27.4825 10.3608 27.341 10.3149 27.3909 10.3563C27.5367 10.4868 27.6528 10.6471 27.7313 10.8263C27.8098 11.0056 27.8489 11.1996 27.8459 11.3952C28.7481 11.6288 28.6456 11.5949 28.6901 11.6291C28.8621 11.7649 28.9992 11.9399 29.0898 12.1394C29.1805 12.3389 29.2221 12.5573 29.2112 12.7761L29.9113 12.9531C30.1228 13.0912 30.2919 13.2854 30.3995 13.5141C30.5071 13.7427 30.5491 13.9967 30.5208 14.2478C31.1427 14.4007 31.0874 14.3671 31.2451 14.4797C31.4406 14.6305 31.5929 14.8302 31.6865 15.0586C31.7802 15.2871 31.812 15.5362 31.7786 15.7808C32.1377 15.8662 32.3969 15.8688 32.7179 16.2814C32.833 16.4398 32.9154 16.6195 32.9601 16.8101C33.0048 17.0007 33.011 17.1983 32.9783 17.3913L33.3046 17.4656C33.8589 17.6712 34.2491 18.291 34.1179 19.0619C34.3199 19.0912 34.512 19.1686 34.6779 19.2875C34.9026 19.4602 35.0714 19.6951 35.1634 19.9631C35.2554 20.2311 35.2663 20.5202 35.195 20.7944C35.9527 20.9581 36.425 21.7098 36.2055 22.5883C37.0157 22.8045 37.3799 23.6373 37.1457 24.4386C37.8971 24.6765 38.2991 25.4997 38.0141 26.3409C38.7866 26.6269 39.118 27.4937 38.809 28.2929C39.5781 28.617 39.8642 29.5159 39.5266 30.2896C39.7043 30.3791 39.8621 30.5033 39.9909 30.6548C40.1197 30.8064 40.2168 30.9822 40.2764 31.172C40.336 31.3617 40.3569 31.5615 40.3379 31.7595C40.319 31.9574 40.2605 32.1496 40.1659 32.3246C40.3397 32.4231 40.4922 32.555 40.6147 32.7128C40.7372 32.8706 40.8272 33.0511 40.8796 33.2439C40.9319 33.4367 40.9456 33.6379 40.9197 33.836C40.8938 34.0341 40.829 34.2251 40.7289 34.398C40.8984 34.5048 41.0453 34.6439 41.161 34.8075C41.2767 34.971 41.3591 35.1558 41.4034 35.3512C41.4477 35.5466 41.4531 35.7488 41.4192 35.9463C41.3853 36.1437 41.3129 36.3326 41.206 36.5021C41.5396 36.7334 41.7682 37.0872 41.842 37.4863C41.9158 37.8855 41.8288 38.2977 41.5999 38.6329C41.9237 38.8795 42.1375 39.2434 42.1954 39.6462C42.2532 40.049 42.1504 40.4584 41.9091 40.7861C42.2261 41.0461 42.4273 41.421 42.4689 41.8289C42.5105 42.2368 42.3891 42.6446 42.1312 42.9633C42.4358 43.2363 42.621 43.618 42.6468 44.0263C42.6725 44.4345 42.5368 44.8365 42.2689 45.1456C42.5602 45.4315 42.7286 45.8197 42.7382 46.2277C42.7478 46.6358 42.5979 47.0315 42.3203 47.3307C42.6016 47.6285 42.7553 48.0244 42.7487 48.4339C42.7421 48.8435 42.5757 49.2342 42.285 49.5228C42.5551 49.8314 42.6934 50.2336 42.6704 50.643C42.6474 51.0525 42.4649 51.4366 42.1619 51.713C42.419 52.0317 42.541 52.4383 42.5019 52.8459C42.4627 53.2534 42.2654 53.6293 41.9524 53.8932C42.1965 54.2217 42.3022 54.6329 42.2469 55.0385C42.1915 55.4441 41.9795 55.8119 41.6563 56.0631C41.8878 56.4 41.9776 56.8144 41.9062 57.2169C41.8349 57.6194 41.6081 57.9777 41.2748 58.2144C41.4927 58.5592 41.5659 58.976 41.4786 59.3744C41.3914 59.7728 41.1507 60.1208 40.8087 60.343C41.0136 60.6947 41.071 61.1132 40.9683 61.507C40.8656 61.9009 40.6111 62.2381 40.2605 62.4449C40.3554 62.622 40.4144 62.8162 40.434 63.0162C40.4537 63.2162 40.4335 63.4182 40.3749 63.6104C40.3162 63.8026 40.2201 63.9814 40.0921 64.1363C39.9641 64.2913 39.8068 64.4195 39.6291 64.5134C39.9725 65.2961 39.6954 66.2028 38.9106 66.546C38.9917 66.7282 39.0356 66.9248 39.0396 67.1242C39.0437 67.3236 39.0079 67.5218 38.9344 67.7072C38.8608 67.8926 38.7509 68.0614 38.6112 68.2038C38.4715 68.3461 38.3048 68.4591 38.1208 68.5362C38.4153 69.3913 38.0117 70.2371 37.256 70.4814C37.5165 71.3488 37.081 72.1622 36.3187 72.3776C36.5417 73.2526 36.0812 74.0453 35.3078 74.2184C35.4875 75.0507 35.049 75.8551 34.2307 75.996C34.388 76.911 33.838 77.6244 33.0864 77.719C33.1916 78.4871 32.796 79.141 32.1355 79.3344C32.052 79.3569 31.9666 79.3713 31.8804 79.3775C31.9598 80.2063 31.4653 80.786 30.891 80.9316L30.6135 80.9672C30.6483 81.2775 30.5777 81.5905 30.413 81.8559C30.2484 82.1212 29.9992 82.3234 29.7057 82.43L29.29 82.4866C29.3093 82.7731 29.239 83.0584 29.0888 83.3031C28.9387 83.5478 28.716 83.7396 28.4519 83.8521C28.2715 83.8913 28.0885 83.9176 27.9043 83.9307C27.9124 84.1924 27.8455 84.4509 27.7116 84.6759C27.5777 84.9008 27.3823 85.0829 27.1485 85.2006L26.4777 85.3003C26.4736 85.5226 26.4162 85.7406 26.3103 85.9361C26.2045 86.1316 26.0532 86.2989 25.8693 86.4238C25.7729 86.483 25.8778 86.455 25.0045 86.5903C24.9922 86.7958 24.934 86.9959 24.8341 87.1758C24.7342 87.3558 24.5952 87.5111 24.4274 87.6303C24.3685 87.6669 24.5031 87.641 23.4848 87.8007C23.4488 88.1477 23.2828 88.4683 23.0202 88.6979C22.906 88.7911 23.0743 88.7399 21.9298 88.9267C21.8836 89.2551 21.7187 89.5553 21.4664 89.7705C21.442 89.7906 21.5682 89.7635 20.3391 89.9725C20.2847 90.2606 20.1389 90.5235 19.9233 90.7222L18.7318 90.9388C18.6755 91.1818 18.554 91.4049 18.3803 91.5839L17.0799 91.8107C17.0302 91.9936 16.9423 92.1638 16.8221 92.3104C16.7756 92.366 16.942 92.3274 15.4062 92.5958C15.3573 92.7475 15.2819 92.8893 15.1835 93.0147C15.1651 93.0378 15.2829 93.0095 13.7083 93.2938C13.6688 93.4015 13.6153 93.5035 13.5492 93.5973C13.5246 93.6346 13.6868 93.5954 11.9933 93.9014C11.9604 93.9808 11.9201 94.057 11.8729 94.1289L10.2647 94.4234C10.2464 94.4616 10.2284 94.4976 10.1999 94.5472C8.358 94.8857 8.53371 94.842 8.5133 94.8799L8.45593 94.891L8.50726 94.8168C6.40133 95.2014 6.61129 95.1734 6.64853 95.1379C6.69449 95.0903 6.73628 95.0388 6.77342 94.984L4.71825 95.3587C4.84471 95.2834 4.95511 95.1839 5.04315 95.0659C0.955625 95.8056 1.68251 95.613 1.34739 95.9021C1.26727 95.968 1.17793 96.0218 1.08221 96.0618C0.871065 96.1433 0.340892 96.2201 3.23111 95.6919C3.06957 95.9007 2.83607 96.0418 2.57612 96.0878C5.00015 95.6391 4.87339 95.6554 4.85568 95.6743C4.70477 95.8268 4.51037 95.9288 4.29917 95.9663C6.75414 95.5112 6.51893 95.5357 6.36367 95.6316C6.27093 95.6859 6.17047 95.7259 6.06573 95.7501C5.75184 95.8148 7.19394 95.5417 7.95869 95.3996C7.89061 95.4285 7.8199 95.4507 7.74754 95.466C11.483 94.7728 11.2073 94.8258 11.3169 94.7942C11.7323 94.6495 11.0069 94.8016 12.8978 94.4507C13.0049 94.4277 13.1081 94.3889 13.2038 94.3355C13.5363 94.1404 13.026 94.2888 14.59 93.9879C14.8065 93.9421 15.0032 93.8299 15.1528 93.6669C15.1834 93.6326 15.0603 93.6537 16.2285 93.451C16.5045 93.3983 16.7504 93.2433 16.9168 93.0169C16.9408 92.9838 16.8285 93.0043 17.8933 92.8191C18.0528 92.7859 18.2034 92.7191 18.3351 92.6232C18.4668 92.5272 18.5765 92.4043 18.657 92.2627C19.5731 92.097 19.5908 92.1081 19.7809 92.0236C20.0315 91.9035 20.2326 91.7 20.3499 91.4481C21.191 91.2975 21.2883 91.3071 21.5532 91.1345C21.7597 90.9916 21.9185 90.79 22.009 90.5558C22.7833 90.4214 22.7055 90.4404 22.7617 90.4226C22.9687 90.3711 23.1583 90.2657 23.3113 90.1172C23.4644 89.9686 23.5754 89.7822 23.6331 89.5769C24.2576 89.4706 24.8437 89.4832 25.1659 88.6966C25.1911 88.6251 25.1986 88.6026 25.2199 88.5284C25.2229 88.5074 25.1779 88.5224 25.7861 88.4245C26.0375 88.3735 26.267 88.2459 26.443 88.0593C26.619 87.8727 26.7329 87.6362 26.7692 87.3823C26.9845 87.357 27.1977 87.3156 27.4069 87.2585C27.6427 87.1787 27.8504 87.0321 28.0047 86.8366C28.159 86.6411 28.2532 86.4051 28.276 86.1571C28.5483 86.1442 28.8157 86.0804 29.0645 85.969C29.2601 85.8566 29.4243 85.6968 29.542 85.5044C29.6598 85.312 29.7273 85.093 29.7384 84.8677C30.0979 84.8138 30.2932 84.8137 30.5902 84.6114C30.7618 84.4853 30.9016 84.321 30.9987 84.1315C31.0957 83.9419 31.1472 83.7324 31.1491 83.5195C31.1521 83.4985 31.1091 83.5138 31.4467 83.4632C31.7624 83.3992 32.0439 83.2222 32.2384 82.9656C32.433 82.7089 32.5272 82.39 32.5035 82.0688C32.686 82.0666 32.866 82.0266 33.0322 81.9513C33.1984 81.876 33.3472 81.767 33.4691 81.6313C33.7196 81.3356 33.8427 80.9528 33.8117 80.5665L33.9384 80.5502C34.2396 80.5082 34.5168 80.3627 34.7225 80.1387C34.9281 79.9148 35.0496 79.6262 35.0659 79.3226C35.1047 78.8239 34.9234 79.0877 35.3988 78.928C35.7009 78.8084 35.9517 78.587 36.1079 78.3021C36.264 78.0172 36.3157 77.6866 36.254 77.3676C37.0536 77.2669 37.5324 76.5112 37.3854 75.675C38.1688 75.5376 38.6344 74.7693 38.4501 73.9234C39.2512 73.7371 39.6639 72.9333 39.4478 72.1152C40.2258 71.8955 40.6219 71.0722 40.374 70.2516C41.1601 69.9902 41.5045 69.1381 41.2272 68.3434C42.0024 68.0375 42.3156 67.1789 42.0055 66.388C42.1836 66.3041 42.3432 66.1856 42.4751 66.0395C42.6071 65.8933 42.7087 65.7225 42.774 65.5368C42.8394 65.3511 42.8672 65.1542 42.8559 64.9577C42.8446 64.7612 42.7944 64.5688 42.7082 64.3918C42.8838 64.3008 43.0396 64.1757 43.1662 64.0237C43.2929 63.8717 43.388 63.696 43.4459 63.5069C43.5038 63.3177 43.5234 63.1188 43.5035 62.922C43.4836 62.7252 43.4246 62.5343 43.33 62.3605C43.6191 62.1919 43.843 61.9307 43.9652 61.6191C44.0874 61.3074 44.101 60.9637 44.0036 60.6434C43.839 60.0815 43.7425 60.4732 44.143 60.0711C44.3743 59.8233 44.5169 59.5059 44.5487 59.1684C44.5804 58.8309 44.4995 58.4924 44.3185 58.2058C44.6478 57.9753 44.8723 57.6236 44.9427 57.2278C45.0131 56.832 44.9238 56.4245 44.6942 56.0944C45.0147 55.8525 45.227 55.4941 45.2851 55.0968C45.3433 54.6995 45.2427 54.2953 45.0051 53.9717Z" fill="url(#paint0_linear_82_113)"/>
<defs>
<linearGradient id="paint0_linear_82_113" x1="14.9542" y1="98.1207" x2="28.4349" y2="3.44603" gradientUnits="userSpaceOnUse">
<stop stop-color="#9E6100"/>
<stop offset="0.49" stop-color="#47130A"/>
<stop offset="0.61" stop-color="#4B1609"/>
<stop offset="0.73" stop-color="#581F08"/>
<stop offset="0.86" stop-color="#6D2F05"/>
<stop offset="0.99" stop-color="#8A4401"/>
<stop offset="1" stop-color="#8C4601"/>
</linearGradient>
</defs>
</svg>
