<svg width="3" height="9" viewBox="0 0 3 9" fill="none" xmlns="http://www.w3.org/2000/svg">
<path d="M2.04532 7.64898C2.08926 7.47733 2.05163 8.01544 2.37141 1.43948C2.38034 1.29527 2.34914 1.15141 2.28126 1.02387C2.21338 0.896333 2.11148 0.790097 1.98687 0.716965C1.79166 0.616056 1.80361 0.634817 1.01231 0.578197C1.17241 0.587604 1.32485 0.649913 1.44569 0.75534C1.56654 0.860767 1.64895 1.00334 1.67999 1.16068C1.71556 1.35584 1.7208 0.874042 1.40545 7.41896C1.40105 7.50977 1.38173 7.59924 1.34825 7.68377C1.29957 7.81491 1.21394 7.92913 1.1017 8.01263C0.989473 8.09613 0.855454 8.14531 0.715855 8.15424C0.635329 8.15496 0.458238 8.14924 1.31503 8.17376C1.4781 8.18146 1.63899 8.13381 1.77156 8.03854C1.90414 7.94328 2.00061 7.80599 2.04532 7.64898Z" fill="url(#paint0_linear_130_402)"/>
<defs>
<linearGradient id="paint0_linear_130_402" x1="2.02678" y1="0.676343" x2="0.954047" y2="8.21009" gradientUnits="userSpaceOnUse">
<stop stop-color="#9E6100"/>
<stop offset="0.49" stop-color="#642701"/>
<stop offset="0.65" stop-color="#682A01"/>
<stop offset="0.81" stop-color="#753401"/>
<stop offset="0.98" stop-color="#8A4401"/>
<stop offset="1" stop-color="#8C4601"/>
</linearGradient>
</defs>
</svg>
