<svg width="3" height="4" viewBox="0 0 3 4" fill="none" xmlns="http://www.w3.org/2000/svg">
<path d="M2.45499 3.17428C2.44743 3.07329 2.29489 1.54302 2.27744 1.44306C2.25227 1.2904 2.17072 1.15274 2.04892 1.05733C1.92712 0.961911 1.77394 0.915688 1.61969 0.927793C1.18356 0.938001 0.749213 0.987069 0.321798 1.07442C0.420744 1.06414 0.853049 1.0404 0.948246 1.03933C1.05908 1.04345 1.16667 1.07782 1.25938 1.13871C1.35209 1.19959 1.42638 1.28467 1.47421 1.38474C1.55379 1.56179 1.5446 1.60922 1.59327 2.07188L1.13437 2.14546L1.10983 2.21507C1.04608 1.58454 1.04337 1.62071 1.05802 1.56918C1.06743 1.53491 1.08997 1.50572 1.12076 1.48795C1.16545 1.46507 1.30364 1.45306 0.41655 1.58995C0.390534 1.59618 0.3669 1.60987 0.348546 1.62934C0.330191 1.6488 0.317913 1.67319 0.313213 1.69953C0.30709 1.74252 0.301584 1.64426 0.42259 2.86539L0.921064 2.78771L0.702985 3.42929C1.04398 3.42719 1.38375 3.38813 1.71633 3.31281C1.72474 3.44872 1.68577 3.58335 1.60606 3.69376C1.52635 3.80416 1.41082 3.88353 1.27917 3.91832C1.21128 3.93303 1.13178 3.94364 1.98031 3.8037C2.12376 3.77706 2.25205 3.69768 2.3399 3.58119C2.42776 3.4647 2.46881 3.31953 2.45499 3.17428ZM1.65803 2.67819C1.693 3.03167 1.71664 3.25924 1.71598 3.29814L1.44097 3.3126L1.65803 2.67819Z" fill="url(#paint0_linear_130_347)"/>
<defs>
<linearGradient id="paint0_linear_130_347" x1="1.56817" y1="0.913144" x2="1.14098" y2="3.91327" gradientUnits="userSpaceOnUse">
<stop stop-color="#9E6100"/>
<stop offset="0.49" stop-color="#642701"/>
<stop offset="0.65" stop-color="#682A01"/>
<stop offset="0.81" stop-color="#753401"/>
<stop offset="0.98" stop-color="#8A4401"/>
<stop offset="1" stop-color="#8C4601"/>
</linearGradient>
</defs>
</svg>
