<svg width="14" height="50" viewBox="0 0 14 50" fill="none" xmlns="http://www.w3.org/2000/svg">
<path d="M0.108417 1.58649C2.83435 3.76405 4.37859 5.45581 6.28853 8.045C7.91582 10.3293 9.26032 12.8024 10.2926 15.4102C11.3763 18.144 12.1348 20.9957 12.5522 23.9066C13.434 30.0649 12.8377 36.3446 10.8126 42.2268C10.0311 44.4688 9.03224 46.629 7.83015 48.6766L8.43478 49.1618C10.6662 45.3342 11.8408 42.0127 12.7831 37.9115C13.4372 34.8518 13.7382 31.7271 13.68 28.5987C13.6221 25.5422 13.2058 22.5031 12.4397 19.5436C11.696 16.6473 10.601 13.8527 9.17894 11.2222C7.49743 8.2343 6.2629 6.53729 4.13739 4.19634C3.02118 3.00363 1.80835 1.90518 0.511249 0.912205C0.110821 1.58469 0.126431 1.56545 0.108417 1.58649Z" fill="#FFE082"/>
</svg>
