<svg width="3" height="4" viewBox="0 0 3 4" fill="none" xmlns="http://www.w3.org/2000/svg">
<path d="M0.463944 2.65513C0.936535 2.78679 0.738246 2.73281 1.34272 2.88754C1.29021 3.00613 1.19762 3.10245 1.08121 3.15962C0.964793 3.2168 0.831969 3.23118 0.706014 3.20024C1.45981 3.39126 1.36968 3.37628 1.48744 3.37803C1.60289 3.36969 1.71329 3.32736 1.80473 3.25638C1.89617 3.1854 1.96454 3.08894 2.00124 2.97916C2.02284 2.91787 2.40917 1.62116 2.42504 1.5097C2.43869 1.44155 2.43878 1.37137 2.4253 1.30318C2.41181 1.23499 2.38502 1.17013 2.34645 1.11231C2.18625 0.91141 2.11266 0.93097 0.988117 0.631383C1.455 0.757939 1.61271 0.765378 1.74649 0.986111C1.87278 1.2444 1.78124 1.42017 1.66667 1.81796L1.26558 1.7115L1.19833 1.79204C1.309 1.40657 1.3285 1.34498 1.3324 1.33266C1.34184 1.30276 1.3618 1.27729 1.38858 1.26098C1.41537 1.24467 1.44715 1.23863 1.47805 1.24398L0.839023 1.07575C0.809545 1.07213 0.779729 1.07892 0.754726 1.09495C0.729723 1.11097 0.711102 1.13523 0.702079 1.16353C0.699684 1.18035 0.674482 1.25186 0.425542 2.11112L0.839544 2.21727L0.463944 2.65513ZM1.5236 2.31038C1.47861 2.50637 1.41895 2.69869 1.34513 2.88573L1.09306 2.81766L1.5236 2.31038Z" fill="url(#paint0_linear_82_256)"/>
<defs>
<linearGradient id="paint0_linear_82_256" x1="1.58325" y1="0.716125" x2="1.20865" y2="3.34691" gradientUnits="userSpaceOnUse">
<stop stop-color="#9E6100"/>
<stop offset="0.49" stop-color="#642701"/>
<stop offset="0.65" stop-color="#682A01"/>
<stop offset="0.81" stop-color="#753401"/>
<stop offset="0.98" stop-color="#8A4401"/>
<stop offset="1" stop-color="#8C4601"/>
</linearGradient>
</defs>
</svg>
