<svg width="7" height="6" viewBox="0 0 7 6" fill="none" xmlns="http://www.w3.org/2000/svg">
<path d="M1.61114 5.60259C1.76365 5.57556 1.36212 5.7426 6.43624 3.44802C6.55606 3.38744 6.65615 3.294 6.7248 3.17861C6.79345 3.06323 6.82783 2.93068 6.8239 2.79647C6.81558 2.51259 6.82075 2.61325 6.00158 0.544518C5.95108 0.397087 5.85281 0.270729 5.72235 0.18549C5.59189 0.10025 5.43671 0.0610045 5.28141 0.0739741C5.12617 0.103048 5.51269 -0.0612535 0.482248 2.25173C0.404729 2.28823 0.335798 2.3407 0.279979 2.40571C0.19606 2.50866 0.139056 2.63086 0.114099 2.76131C0.0891428 2.89176 0.0970192 3.02637 0.137013 3.15302C0.159563 3.21716 0.887206 5.10714 0.968482 5.25519C1.03033 5.36922 1.12403 5.46278 1.23814 5.52447C1.35226 5.58616 1.48186 5.6133 1.61114 5.60259Z" fill="url(#paint0_linear_130_587)"/>
<defs>
<linearGradient id="paint0_linear_130_587" x1="0.168044" y1="2.37027" x2="6.75589" y2="3.30832" gradientUnits="userSpaceOnUse">
<stop stop-color="#FFE6AB"/>
<stop offset="1" stop-color="#FFD778"/>
</linearGradient>
</defs>
</svg>
