<svg width="3" height="4" viewBox="0 0 3 4" fill="none" xmlns="http://www.w3.org/2000/svg">
<path d="M2.39339 1.69629C2.40329 1.54326 2.3614 1.39137 2.27445 1.26506C2.0696 0.992181 1.89046 1.00079 1.4209 0.875441C1.34874 0.855122 1.27295 0.851148 1.19905 0.863814C1.12516 0.876479 1.05502 0.905462 0.993741 0.948653C0.878352 1.03683 0.799462 1.1644 0.772118 1.30703C0.760894 1.38585 0.553761 2.84053 0.558593 2.96063C0.551095 3.08183 0.578267 3.20266 0.636928 3.30898C0.69559 3.4153 0.783313 3.50272 0.889841 3.56101C1.09525 3.65201 1.3109 3.7179 1.53209 3.75725C1.63444 3.78962 1.74466 3.78694 1.84532 3.74963C1.94597 3.71232 2.03131 3.64251 2.08783 3.55125C2.13316 3.48098 2.16495 3.40285 2.18156 3.32089C2.19721 3.22808 2.38661 1.79524 2.39339 1.69629ZM1.24405 1.3986C1.3109 1.33988 1.3174 1.36274 1.76716 1.47308L1.06476 2.53798C1.21368 1.3894 1.1946 1.45492 1.24405 1.3986ZM1.71406 3.23239C1.64687 3.2935 1.62638 3.26621 1.2005 3.15927L1.89165 2.10495C1.73692 3.24296 1.75805 3.18016 1.71064 3.22216L1.71406 3.23239Z" fill="url(#paint0_linear_130_564)"/>
<defs>
<linearGradient id="paint0_linear_130_564" x1="0.645254" y1="2.19799" x2="2.30774" y2="2.43471" gradientUnits="userSpaceOnUse">
<stop stop-color="#FFE6AB"/>
<stop offset="1" stop-color="#FFD778"/>
</linearGradient>
</defs>
</svg>
