<svg width="36" height="22" viewBox="0 0 36 22" fill="none" xmlns="http://www.w3.org/2000/svg">
<path d="M7.45268 12.5329C9.07545 14.2884 10.9181 15.827 12.935 17.1105C14.9371 18.38 17.1054 19.3662 19.378 20.0409C21.6572 20.7188 24.0231 21.0606 26.401 21.0556C28.7824 21.0476 31.1496 20.6874 33.4257 19.9867C34.267 19.7275 35.0942 19.4247 35.9042 19.0797C35.6931 18.5768 35.579 18.3169 35.5701 18.2596C33.2107 19.2686 30.7053 19.8942 28.1486 20.1127C26.0694 20.2861 23.9763 20.1806 21.9251 19.7992C17.9342 18.9873 14.7112 17.6095 11.0713 14.8297C9.51669 13.6034 8.0951 12.2174 6.82982 10.6944C4.26486 7.58203 2.29955 4.02082 1.03364 0.191527C0.456423 0.445652 0.511693 0.434022 0.393978 0.439194C1.86056 4.92632 4.26695 9.04921 7.45268 12.5329Z" fill="#FFE082"/>
</svg>
