<svg width="4" height="4" viewBox="0 0 4 4" fill="none" xmlns="http://www.w3.org/2000/svg">
<path d="M3.17287 1.36855C3.18905 1.28276 3.17529 1.19401 3.1339 1.11714C3.0925 1.04027 3.02597 0.979939 2.94543 0.946234C2.91915 0.942493 1.06453 0.634544 0.993561 0.636624C0.929003 0.646857 0.86864 0.675094 0.819409 0.718091C0.770177 0.761088 0.734073 0.817101 0.715244 0.879695C0.688328 0.966033 0.720005 0.846256 0.518315 2.26271C0.498505 2.34914 0.509843 2.43978 0.550329 2.51867C0.590815 2.59755 0.65785 2.65961 0.739617 2.6939C0.763504 2.69731 2.61915 3.01515 2.69013 3.01307C2.73174 3.008 2.77193 2.99469 2.80836 2.97394C2.84479 2.95319 2.87672 2.92539 2.9023 2.89218C3.00016 2.73552 2.97219 2.76078 3.17287 1.36855Z" fill="url(#paint0_linear_130_511)"/>
<defs>
<linearGradient id="paint0_linear_130_511" x1="0.597872" y1="1.63553" x2="3.08683" y2="1.98993" gradientUnits="userSpaceOnUse">
<stop stop-color="#FFE6AB"/>
<stop offset="1" stop-color="#FFD778"/>
</linearGradient>
</defs>
</svg>
