<svg width="15" height="52" viewBox="0 0 15 52" fill="none" xmlns="http://www.w3.org/2000/svg">
<path d="M0.523234 1.15472C3.68299 3.69564 5.55449 5.85328 7.68097 8.94163C9.34962 11.4596 10.7091 14.1692 11.7301 17.0122C12.8028 19.9867 13.5243 23.0764 13.8798 26.2184C14.2525 29.5054 14.2346 32.825 13.8267 36.1077C13.4247 39.401 12.6289 42.6342 11.4563 45.7378C10.7066 47.7106 9.79671 49.6188 8.73565 51.4431C8.97492 51.6088 9.20403 51.7887 9.42173 51.9819C10.5506 50.0469 11.5098 48.0178 12.2885 45.9172C13.4427 42.8049 14.2306 39.5688 14.6364 36.2742C15.0506 32.975 15.0824 29.6389 14.7312 26.3323C14.3977 23.1045 13.6826 19.9276 12.6011 16.8681C11.5417 13.8769 10.1162 11.0282 8.357 8.3872C6.15883 5.20334 4.16203 2.89869 0.987277 0.394628L0.523234 1.15472Z" fill="#FFE082"/>
</svg>
