<svg width="7" height="7" viewBox="0 0 7 7" fill="none" xmlns="http://www.w3.org/2000/svg">
<path d="M6.41589 4.76546C6.41601 4.5927 6.36253 4.42415 6.26281 4.28306C6.19043 4.19233 2.71362 0.745985 2.65764 0.694146C2.57506 0.62263 2.47066 0.581248 2.3615 0.576773C2.25235 0.572299 2.14491 0.604995 2.05675 0.669513C1.99794 0.71161 1.94809 0.76499 1.9101 0.82654C0.876283 2.42183 0.945491 2.29521 0.889943 2.44571C0.851358 2.56752 0.841506 2.69662 0.861158 2.82288C0.880811 2.94914 0.929432 3.06914 1.00322 3.17346C1.07321 3.26385 4.52682 6.71908 4.5828 6.77092C4.63862 6.81885 4.70416 6.85412 4.77491 6.87429C4.84566 6.89447 4.91995 6.89906 4.99265 6.88776C5.06384 6.87369 5.13135 6.84505 5.19094 6.80362C5.25052 6.7622 5.30089 6.70888 5.33887 6.64705C6.36827 5.08281 6.40377 5.10736 6.41589 4.76546Z" fill="url(#paint0_linear_130_543)"/>
<defs>
<linearGradient id="paint0_linear_130_543" x1="0.757274" y1="3.32609" x2="6.51388" y2="4.14578" gradientUnits="userSpaceOnUse">
<stop stop-color="#FFE6AB"/>
<stop offset="1" stop-color="#FFD778"/>
</linearGradient>
</defs>
</svg>
