<svg width="3" height="5" viewBox="0 0 3 5" fill="none" xmlns="http://www.w3.org/2000/svg">
<path d="M0.768146 0.72236C0.713469 0.714574 -0.101555 0.637142 0.11805 0.661975C1.34769 0.871393 1.25756 0.856414 1.31374 0.868704C1.4146 0.910876 1.49747 0.987071 1.54796 1.08403C1.59844 1.18099 1.61334 1.29258 1.59005 1.39939C1.11963 4.70312 1.16942 4.51925 1.03942 4.69384C1.00799 4.73417 0.968654 4.76766 0.923832 4.79227C0.879009 4.81687 0.829639 4.83208 0.77874 4.83695C0.749298 4.83276 0.566049 4.82383 1.43003 4.88892C1.49334 4.89018 1.55593 4.87533 1.61192 4.84577C1.66792 4.81622 1.7155 4.77292 1.75018 4.71995C1.81567 4.61476 1.8521 4.49409 1.85577 4.37024L1.4442 4.33738C1.53403 3.7065 1.51547 3.83688 1.54242 3.64761L1.95368 3.68257L2.13335 2.4208L1.72238 2.38374C1.82119 1.68977 1.80353 1.81385 1.8206 1.69398L2.23156 1.73104C2.27378 1.43452 2.30378 1.34439 2.2316 1.15817C2.21212 1.10965 2.1832 1.06547 2.14652 1.0282C2.10984 0.990939 2.06613 0.961323 2.01792 0.941078C1.96083 0.920076 0.808401 0.725946 0.768146 0.72236Z" fill="url(#paint0_linear_82_195)"/>
<defs>
<linearGradient id="paint0_linear_82_195" x1="1.21818" y1="0.78644" x2="0.643552" y2="4.82199" gradientUnits="userSpaceOnUse">
<stop stop-color="#9E6100"/>
<stop offset="0.49" stop-color="#642701"/>
<stop offset="0.65" stop-color="#682A01"/>
<stop offset="0.81" stop-color="#753401"/>
<stop offset="0.98" stop-color="#8A4401"/>
<stop offset="1" stop-color="#8C4601"/>
</linearGradient>
</defs>
</svg>
