<svg width="6" height="5" viewBox="0 0 6 5" fill="none" xmlns="http://www.w3.org/2000/svg">
<path d="M2.49 0.456475C2.43356 0.419413 2.37022 0.394117 2.30377 0.382113C2.23732 0.370109 2.16912 0.371638 2.10328 0.38661C2.03744 0.401581 1.97529 0.429688 1.92057 0.469245C1.86584 0.508801 1.81966 0.558995 1.7848 0.616821C0.791904 2.18139 0.769021 2.1367 0.772223 2.42229C0.779468 2.5704 0.836659 2.7117 0.934479 2.82314C1.00446 2.89647 3.42966 4.84538 3.48393 4.8921C3.54318 4.92977 3.60873 4.95644 3.67744 4.97083C3.77761 4.98978 3.88119 4.97762 3.97425 4.93598C4.06731 4.89434 4.1454 4.82521 4.19802 4.73789C5.22161 3.14601 5.15205 3.27502 5.1984 3.13783C5.23074 3.03072 5.23506 2.9171 5.21093 2.80785C5.18681 2.69859 5.13504 2.59736 5.0606 2.51383C4.9838 2.43709 2.54086 0.492962 2.49 0.456475Z" fill="url(#paint0_linear_130_609)"/>
<defs>
<linearGradient id="paint0_linear_130_609" x1="0.768782" y1="2.36087" x2="5.2188" y2="2.99451" gradientUnits="userSpaceOnUse">
<stop stop-color="#FFE6AB"/>
<stop offset="1" stop-color="#FFD778"/>
</linearGradient>
</defs>
</svg>
