<svg width="3" height="3" viewBox="0 0 3 3" fill="none" xmlns="http://www.w3.org/2000/svg">
<path d="M2.64805 0.929036C2.66713 0.840884 2.65552 0.748859 2.61515 0.668206C2.57478 0.587554 2.50806 0.523113 2.42606 0.485562C2.39978 0.481821 0.557751 0.102554 0.489509 0.102586C0.425979 0.110204 0.366025 0.136098 0.316923 0.177124C0.267821 0.218151 0.231683 0.272547 0.212893 0.333712C0.186317 0.417662 0.221736 0.271606 0.00504204 1.70786C-0.0139681 1.79539 -0.00253053 1.88679 0.0374637 1.96694C0.077458 2.04708 0.143612 2.11117 0.224983 2.14861C0.256036 2.15303 2.09193 2.54117 2.16017 2.54114C2.20117 2.53846 2.24113 2.52716 2.27746 2.50797C2.31379 2.48879 2.34566 2.46215 2.37099 2.42981C2.47329 2.29328 2.44601 2.33082 2.64805 0.929036Z" fill="url(#paint0_linear_130_502)"/>
<defs>
<linearGradient id="paint0_linear_130_502" x1="0.0853098" y1="1.14415" x2="2.56949" y2="1.49787" gradientUnits="userSpaceOnUse">
<stop stop-color="#FFE6AB"/>
<stop offset="1" stop-color="#FFD778"/>
</linearGradient>
</defs>
</svg>
