<svg width="6" height="5" viewBox="0 0 6 5" fill="none" xmlns="http://www.w3.org/2000/svg">
<path d="M0.664352 0.635864C5.21694 1.94924 4.84318 1.83165 4.95917 1.89108C5.05247 1.95855 5.1253 2.0505 5.16961 2.15677C5.21393 2.26305 5.228 2.3795 5.21028 2.49327C5.18902 2.64258 4.68241 4.33197 4.66351 4.38935C4.61977 4.51342 4.5387 4.6209 4.43143 4.69706C4.32417 4.77322 4.19596 4.81431 4.0644 4.81469C4.03496 4.8105 3.78711 4.75805 4.64003 4.94601C4.71248 4.95809 4.78664 4.95508 4.85786 4.93717C4.92909 4.91925 4.99584 4.88681 5.05394 4.84188C5.29568 4.65101 5.30221 4.49961 5.43869 4.03843L5.06254 3.95269C5.23021 3.37794 5.17982 3.551 5.283 3.20308L5.65884 3.29093C5.8268 2.71408 5.87183 2.65398 5.82606 2.40287C5.79444 2.25646 5.7074 2.12797 5.58317 2.0443C5.46628 1.97616 5.80458 2.08655 1.29677 0.790282L0.664352 0.635864Z" fill="url(#paint0_linear_82_257)"/>
<defs>
<linearGradient id="paint0_linear_82_257" x1="3.3396" y1="1.01465" x2="2.81618" y2="4.6906" gradientUnits="userSpaceOnUse">
<stop stop-color="#9E6100"/>
<stop offset="0.49" stop-color="#642701"/>
<stop offset="0.65" stop-color="#682A01"/>
<stop offset="0.81" stop-color="#753401"/>
<stop offset="0.98" stop-color="#8A4401"/>
<stop offset="1" stop-color="#8C4601"/>
</linearGradient>
</defs>
</svg>
