<svg width="3" height="4" viewBox="0 0 3 4" fill="none" xmlns="http://www.w3.org/2000/svg">
<path d="M1.9651 0.728065C1.88523 0.615017 1.76631 0.53557 1.6313 0.505066C1.56677 0.494259 1.50061 0.498768 1.43815 0.518238C1.37568 0.537707 1.31867 0.571587 1.27171 0.617144C1.22328 0.6663 0.399689 1.60672 0.341381 1.69102C0.265711 1.81754 0.232087 1.96478 0.245335 2.1116C0.258583 2.25842 0.318021 2.39726 0.415115 2.50819C0.760634 2.97412 0.698839 2.89465 0.759266 2.96662C0.801948 3.01861 0.854695 3.06145 0.914339 3.09255C0.973983 3.12366 1.0393 3.1424 1.10636 3.14764C1.17069 3.14873 1.23443 3.13518 1.29276 3.10802C1.35109 3.08086 1.40248 3.04081 1.44306 2.99087C2.40409 1.88969 2.31441 2.00608 2.37271 1.90472C2.57449 1.42897 2.24746 1.10702 1.9651 0.728065ZM1.08976 2.64812C1.01332 2.63723 1.0157 2.62051 0.741878 2.25008L1.76127 1.93707C1.08978 2.6993 1.15117 2.64468 1.08976 2.64812ZM0.919747 1.71976C1.56941 0.973917 1.52848 1.00464 1.58546 0.998134C1.60041 0.996829 1.61546 0.998946 1.62948 1.00432C1.64349 1.00969 1.6561 1.01818 1.66634 1.02914L1.94699 1.40299L0.919747 1.71976Z" fill="url(#paint0_linear_130_526)"/>
<defs>
<linearGradient id="paint0_linear_130_526" x1="0.287804" y1="1.67365" x2="2.39219" y2="1.97329" gradientUnits="userSpaceOnUse">
<stop stop-color="#FFE6AB"/>
<stop offset="1" stop-color="#FFD778"/>
</linearGradient>
</defs>
</svg>
