<svg width="11" height="16" viewBox="0 0 11 16" fill="none" xmlns="http://www.w3.org/2000/svg">
<path d="M5.58042 6.35103C9.61066 3.18085 9.30618 3.43573 9.39894 3.31162C9.48974 3.17396 9.5299 3.00904 9.51258 2.84504C9.47461 2.58431 9.42864 2.56061 9.0655 2.00683L8.69542 2.04425L8.25442 1.37426L8.6242 1.33894C8.38462 0.972258 8.31785 0.808274 8.02131 0.720993C7.88673 0.701829 7.95371 0.698487 7.23639 0.763702C7.31135 0.75935 7.38643 0.770041 7.4572 0.795144C7.73542 0.905564 7.68224 0.902289 8.77707 2.57082C8.86841 2.70637 8.91122 2.86884 8.89853 3.03181C8.88585 3.19477 8.81841 3.34866 8.70718 3.46844C8.65043 3.52044 4.96464 6.42641 4.87574 6.47812C4.84234 6.49596 4.80723 6.51036 4.77092 6.52112C3.59559 6.72992 2.54766 7.38797 1.84903 8.35593C1.15041 9.32388 0.855942 10.5257 1.02798 11.707C1.20003 12.8883 1.82508 13.9562 2.77077 14.6847C3.71646 15.4132 4.90855 15.745 6.09462 15.6099C7.28069 15.4748 8.3676 14.8833 9.12522 13.9608C9.88283 13.0383 10.2517 11.8571 10.1536 10.6674C10.0555 9.47773 9.49829 8.37289 8.59986 7.58688C7.70142 6.80086 6.53234 6.39537 5.34015 6.45628C5.42781 6.44193 5.51044 6.40573 5.58042 6.35103Z" fill="url(#paint0_linear_82_280)"/>
<defs>
<linearGradient id="paint0_linear_82_280" x1="7.69776" y1="0.672776" x2="6.8213" y2="6.8281" gradientUnits="userSpaceOnUse">
<stop stop-color="#9E6100"/>
<stop offset="0.49" stop-color="#642701"/>
<stop offset="0.65" stop-color="#682A01"/>
<stop offset="0.81" stop-color="#753401"/>
<stop offset="0.98" stop-color="#8A4401"/>
<stop offset="1" stop-color="#8C4601"/>
</linearGradient>
</defs>
</svg>
