<svg width="3" height="6" viewBox="0 0 3 6" fill="none" xmlns="http://www.w3.org/2000/svg">
<path d="M1.8447 4.60994C1.82495 4.67508 1.79239 4.73562 1.74894 4.78802C1.70549 4.84042 1.65202 4.88363 1.59166 4.91509C0.0575874 5.69342 0.203255 5.62886 0.0923728 5.6545L0.771695 5.59038C0.803094 5.58917 0.834193 5.58377 0.864158 5.57431C0.951153 5.54526 2.30988 4.85164 2.35933 4.81238C2.47565 4.72454 2.55716 4.5984 2.58944 4.45627C2.62172 4.31413 2.60269 4.16516 2.53573 4.0357L2.10377 4.07412C1.90292 3.60197 1.98115 3.78858 1.75775 3.25229L2.18937 3.21627L1.64284 1.91992L1.21156 1.95356C0.848793 1.07818 0.888419 1.17643 0.866565 1.14163C1.3596 1.10217 1.30398 1.11618 1.29066 1.08992C1.24676 0.999514 1.17764 0.92373 1.09165 0.871705C1.00567 0.819681 0.90647 0.793633 0.806014 0.796695C0.579276 0.800004 0.352964 0.817433 0.128392 0.848872C0.2305 0.85633 0.328331 0.892889 0.410299 0.954231C0.492268 1.01557 0.554939 1.09913 0.590889 1.19499C1.94425 4.42427 1.94111 4.27516 1.8447 4.60994Z" fill="url(#paint0_linear_130_357)"/>
<defs>
<linearGradient id="paint0_linear_130_357" x1="1.58198" y1="0.909621" x2="0.888478" y2="5.78005" gradientUnits="userSpaceOnUse">
<stop stop-color="#9E6100"/>
<stop offset="0.49" stop-color="#642701"/>
<stop offset="0.65" stop-color="#682A01"/>
<stop offset="0.81" stop-color="#753401"/>
<stop offset="0.98" stop-color="#8A4401"/>
<stop offset="1" stop-color="#8C4601"/>
</linearGradient>
</defs>
</svg>
