<svg width="2" height="4" viewBox="0 0 2 4" fill="none" xmlns="http://www.w3.org/2000/svg">
<path d="M0.951999 0.780135C0.952268 0.796546 0.955883 0.812729 0.962623 0.827695C0.969362 0.84266 0.979084 0.856093 0.991195 0.867171C1.00331 0.878249 1.01755 0.886739 1.03306 0.892122C1.04856 0.897505 1.065 0.899667 1.08137 0.898476L1.20284 0.884089L1.22256 2.97059C1.22045 3.00241 1.23032 3.03387 1.25021 3.0588C1.27011 3.08372 1.2986 3.10031 1.3301 3.10532C1.4464 3.1006 1.56224 3.08778 1.67675 3.06694L1.65066 0.477502L1.5206 0.346878L0.947399 0.418795C0.952356 0.811868 0.949943 0.760346 0.951999 0.780135Z" fill="url(#paint0_linear_130_561)"/>
<defs>
<linearGradient id="paint0_linear_130_561" x1="0.774279" y1="1.63461" x2="1.85872" y2="1.78902" gradientUnits="userSpaceOnUse">
<stop stop-color="#FFE6AB"/>
<stop offset="1" stop-color="#FFD778"/>
</linearGradient>
</defs>
</svg>
