<svg width="3" height="3" viewBox="0 0 3 3" fill="none" xmlns="http://www.w3.org/2000/svg">
<path d="M0.983817 1.11024C1.03911 1.1498 1.09369 1.12589 1.13291 1.07298L1.20178 0.96581L2.42386 2.13902C2.43504 2.14941 2.44843 2.15713 2.46302 2.16162C2.47761 2.16611 2.49303 2.16725 2.50812 2.16495C2.52321 2.16264 2.53758 2.15696 2.55017 2.14832C2.56276 2.13968 2.57323 2.12831 2.5808 2.11506C2.5825 2.10312 2.7622 1.83382 2.77107 1.8229C0.783321 -0.0832232 1.35953 0.456992 1.2486 0.36321C1.23705 0.355146 1.22395 0.349577 1.21014 0.346858C1.19632 0.344139 1.18209 0.344329 1.16835 0.347417C1.15461 0.350505 1.14166 0.356424 1.13034 0.364795C1.11901 0.373165 1.10956 0.383804 1.10257 0.396033C1.10257 0.396033 0.787183 0.899464 0.771151 0.909367L0.983817 1.11024Z" fill="url(#paint0_linear_130_512)"/>
<defs>
<linearGradient id="paint0_linear_130_512" x1="0.744282" y1="1.09807" x2="2.83195" y2="1.39533" gradientUnits="userSpaceOnUse">
<stop stop-color="#FFE6AB"/>
<stop offset="1" stop-color="#FFD778"/>
</linearGradient>
</defs>
</svg>
