<svg width="7" height="5" viewBox="0 0 7 5" fill="none" xmlns="http://www.w3.org/2000/svg">
<path d="M6.45974 3.28337C6.70798 2.92635 6.59697 2.66197 6.48648 2.06865L6.04942 2.12583C6.03573 2.05077 6.05866 2.18077 5.88216 1.22955L6.31888 1.17475C6.22209 0.673559 6.20688 0.249784 5.7465 0.0599399C5.55676 0.00611541 5.58612 0.0224775 4.7925 0.119062C4.92954 0.117 5.06402 0.156222 5.17846 0.231628C5.2929 0.307035 5.382 0.415134 5.43417 0.541866C5.50488 0.712781 5.46523 0.546295 5.87398 2.75886C5.90245 2.88726 5.897 3.02086 5.85817 3.14651C5.81934 3.27217 5.74847 3.38554 5.65252 3.4755C5.45163 3.63698 5.84738 3.52762 0.522523 4.45098C1.50208 4.31507 0.456005 4.49025 6.10703 3.50122C6.24721 3.47398 6.37262 3.39652 6.45974 3.28337Z" fill="url(#paint0_linear_130_352)"/>
<defs>
<linearGradient id="paint0_linear_130_352" x1="4.10926" y1="-0.182936" x2="3.38991" y2="4.86902" gradientUnits="userSpaceOnUse">
<stop stop-color="#9E6100"/>
<stop offset="0.49" stop-color="#642701"/>
<stop offset="0.65" stop-color="#682A01"/>
<stop offset="0.81" stop-color="#753401"/>
<stop offset="0.98" stop-color="#8A4401"/>
<stop offset="1" stop-color="#8C4601"/>
</linearGradient>
</defs>
</svg>
