<svg width="3" height="3" viewBox="0 0 3 3" fill="none" xmlns="http://www.w3.org/2000/svg">
<path d="M2.40998 2.02369C2.51254 1.93703 2.57935 1.81543 2.59749 1.68239C2.64171 1.37187 2.5403 1.22826 2.33262 0.735648C2.20147 0.458644 1.97859 0.295305 1.69817 0.416222C1.63438 0.453444 0.664943 1.08308 0.601501 1.13497C0.498874 1.23879 0.432358 1.37287 0.411779 1.51739C0.391201 1.66191 0.41765 1.80922 0.487221 1.93756C0.558928 2.16221 0.658526 2.37699 0.783684 2.57685C0.831438 2.65215 0.901327 2.71082 0.983757 2.74481C1.06619 2.7788 1.15712 2.78644 1.24407 2.76669C1.35153 2.73082 1.24134 2.7858 2.38134 2.05372L2.40998 2.02369ZM1.10429 2.27644C1.02272 2.2502 1.02099 2.19391 0.853615 1.79477L1.87999 1.80931C1.11488 2.30476 1.16093 2.28938 1.10429 2.27644ZM1.1315 1.34935C1.91059 0.841275 1.85806 0.867918 1.90651 0.869943C1.95496 0.871968 1.98535 0.915289 2.17459 1.36628L1.1315 1.34935Z" fill="url(#paint0_linear_130_513)"/>
<defs>
<linearGradient id="paint0_linear_130_513" x1="0.424202" y1="1.42167" x2="2.59069" y2="1.73016" gradientUnits="userSpaceOnUse">
<stop stop-color="#FFE6AB"/>
<stop offset="1" stop-color="#FFD778"/>
</linearGradient>
</defs>
</svg>
