<svg width="7" height="8" viewBox="0 0 7 8" fill="none" xmlns="http://www.w3.org/2000/svg">
<path d="M0.9245 5.81729C0.993326 5.89146 0.833742 5.73142 2.23004 7.12104C2.32318 7.2224 2.45001 7.28641 2.58687 7.30116C2.72372 7.31591 2.86127 7.28039 2.97387 7.20121C3.08528 7.11194 2.79796 7.45723 6.17554 3.23504C6.27524 3.10173 6.32673 2.93852 6.32158 2.77213C6.31643 2.60574 6.25494 2.44602 6.14718 2.31913C6.07836 2.24497 6.25507 2.42032 4.83023 1.0202C4.73454 0.920454 4.60616 0.858468 4.46854 0.845569C4.33092 0.83267 4.19325 0.869717 4.0807 0.949946C3.96899 1.04132 4.24911 0.701439 0.907565 4.91159C0.809524 5.04305 0.75798 5.20338 0.761046 5.36734C0.764112 5.53131 0.821613 5.68959 0.9245 5.81729Z" fill="url(#paint0_linear_82_515)"/>
<defs>
<linearGradient id="paint0_linear_82_515" x1="0.982116" y1="3.70995" x2="6.09438" y2="4.43789" gradientUnits="userSpaceOnUse">
<stop stop-color="#FFE6AB"/>
<stop offset="1" stop-color="#FFD778"/>
</linearGradient>
</defs>
</svg>
