<svg width="4" height="6" viewBox="0 0 4 6" fill="none" xmlns="http://www.w3.org/2000/svg">
<path d="M3.7923 1.58248C3.72847 1.5344 3.76363 1.56134 2.46116 0.661816C2.39378 0.614902 2.31505 0.586941 2.23317 0.580857C2.1513 0.574772 2.0693 0.590785 1.99573 0.627225C1.76683 0.74573 1.88585 0.61158 0.111211 3.59287C0.0376183 3.71141 0.00632806 3.85138 0.0224387 3.98997C0.0385494 4.12856 0.101111 4.25762 0.199934 4.35612C0.230654 4.37999 1.49082 5.28567 1.59799 5.33748C1.69072 5.37544 1.79297 5.38359 1.89054 5.3608C1.98812 5.33801 2.07617 5.28541 2.1425 5.2103C2.22366 5.11951 2.05966 5.38129 3.86499 2.35563C3.94316 2.23789 3.97857 2.0969 3.96535 1.9562C3.95212 1.8155 3.89104 1.68359 3.7923 1.58248Z" fill="url(#paint0_linear_130_589)"/>
<defs>
<linearGradient id="paint0_linear_130_589" x1="0.202253" y1="2.71387" x2="3.8067" y2="3.22711" gradientUnits="userSpaceOnUse">
<stop stop-color="#FFE6AB"/>
<stop offset="1" stop-color="#FFD778"/>
</linearGradient>
</defs>
</svg>
