<svg width="4" height="3" viewBox="0 0 4 3" fill="none" xmlns="http://www.w3.org/2000/svg">
<path d="M0.360279 0.103218C0.400235 0.108908 2.44826 0.507806 2.50774 0.527004C2.5718 0.555193 2.62717 0.59998 2.66812 0.656734C2.70908 0.713488 2.73413 0.78015 2.7407 0.84983C2.74615 0.947157 2.75332 0.851627 2.54367 2.23357C2.53542 2.30103 2.50884 2.36493 2.46681 2.41834C2.42478 2.47174 2.36892 2.5126 2.30529 2.53648C2.20677 2.56536 1.99198 2.55194 2.8298 2.55967C2.89844 2.55579 2.96437 2.53156 3.01918 2.49007C3.074 2.44859 3.11523 2.39172 3.13761 2.32672C3.19068 2.14456 3.22314 1.95703 3.23438 1.76763L2.86369 1.76419C2.87866 1.65905 2.85979 1.79153 2.97298 0.99662L3.34338 1.00216C3.35318 0.953134 3.35599 0.902968 3.35172 0.853155C3.34605 0.783209 3.32134 0.716147 3.28028 0.659241C3.23921 0.602335 3.18336 0.557755 3.11876 0.53033C3.06198 0.522245 1.01516 0.114937 0.977307 0.109547C0.707245 0.107568 0.189049 0.100293 0.360279 0.103218Z" fill="url(#paint0_linear_82_271)"/>
<defs>
<linearGradient id="paint0_linear_82_271" x1="1.88278" y1="0.244914" x2="1.56687" y2="2.46352" gradientUnits="userSpaceOnUse">
<stop stop-color="#9E6100"/>
<stop offset="0.49" stop-color="#642701"/>
<stop offset="0.65" stop-color="#682A01"/>
<stop offset="0.81" stop-color="#753401"/>
<stop offset="0.98" stop-color="#8A4401"/>
<stop offset="1" stop-color="#8C4601"/>
</linearGradient>
</defs>
</svg>
