<svg width="21" height="28" viewBox="0 0 21 28" fill="none" xmlns="http://www.w3.org/2000/svg">
<path d="M7.58141 2.74648C9.36609 3.78147 11.0002 5.05663 12.4379 6.53623C13.8583 7.99833 15.1004 9.62355 16.1384 11.3779C18.6229 15.6581 19.9876 20.1929 20.1658 25.5715L17.9421 27.4005L18.3681 27.4225L20.5896 25.5933C20.4237 20.6562 19.2678 16.297 16.8662 11.9471C15.8995 10.2339 14.7432 8.63487 13.419 7.18014C12.0229 5.64524 10.4238 4.30806 8.66607 3.2056C6.98184 2.15091 5.15408 1.34505 3.23942 0.812981C2.38066 0.579526 1.50943 0.394585 0.629883 0.259033C3.07875 0.659683 5.43429 1.50256 7.58141 2.74648Z" fill="url(#paint0_linear_82_143)"/>
<defs>
<linearGradient id="paint0_linear_82_143" x1="12.1829" y1="1.90836" x2="8.74052" y2="26.0838" gradientUnits="userSpaceOnUse">
<stop stop-color="#9E6100"/>
<stop offset="0.49" stop-color="#642701"/>
<stop offset="0.65" stop-color="#682A01"/>
<stop offset="0.81" stop-color="#753401"/>
<stop offset="0.98" stop-color="#8A4401"/>
<stop offset="1" stop-color="#8C4601"/>
</linearGradient>
</defs>
</svg>
