<svg width="4" height="3" viewBox="0 0 4 3" fill="none" xmlns="http://www.w3.org/2000/svg">
<path d="M3.64422 1.29931C3.63977 1.16934 3.60038 1.04297 3.5302 0.933481C3.46002 0.823995 3.36164 0.735434 3.2454 0.677118C3.17646 0.647806 1.71003 0.0953749 1.59435 0.0691546C1.51548 0.0528192 1.43396 0.054319 1.35574 0.0735414C1.27753 0.0927638 1.2046 0.129223 1.14229 0.180255C1.01842 0.285642 0.928888 0.425664 0.8852 0.582323C0.678057 1.26689 0.712466 1.14506 0.685218 1.25084C0.656156 1.38022 0.660483 1.51486 0.697788 1.6421C0.735093 1.76935 0.804146 1.88501 0.898463 1.97821C0.962476 2.04023 1.03858 2.08839 1.12202 2.11971C2.77581 2.74268 2.61952 2.69363 2.76727 2.7171C3.34974 2.7513 3.43204 2.15619 3.60136 1.60028C3.63348 1.50331 3.64799 1.40138 3.64422 1.29931ZM1.21045 1.49867C1.16161 1.39667 1.19538 1.36492 1.35449 0.846547L2.34349 1.9622C1.20467 1.53927 1.25791 1.5761 1.21045 1.49867ZM3.12357 1.37871C3.11915 1.40976 3.12799 1.34765 2.96174 1.91619L1.98469 0.802238C3.12555 1.22789 3.03272 1.19518 3.07266 1.2228C3.09351 1.24246 3.10909 1.26703 3.11799 1.29426C3.12688 1.3215 3.1288 1.35053 3.12357 1.37871Z" fill="url(#paint0_linear_130_636)"/>
<defs>
<linearGradient id="paint0_linear_130_636" x1="0.699858" y1="1.18226" x2="3.61876" y2="1.59788" gradientUnits="userSpaceOnUse">
<stop stop-color="#FFE6AB"/>
<stop offset="1" stop-color="#FFD778"/>
</linearGradient>
</defs>
</svg>
