<svg width="8" height="7" viewBox="0 0 8 7" fill="none" xmlns="http://www.w3.org/2000/svg">
<path d="M1.65928 6.30518C1.70137 6.38042 1.75797 6.44655 1.82581 6.49975C1.89364 6.55295 1.97137 6.59216 2.05447 6.61511C2.13757 6.63805 2.2244 6.64426 2.30992 6.6334C2.39544 6.62253 2.47796 6.5948 2.55268 6.55181C2.596 6.52142 6.80401 3.22374 6.91349 3.10529C7.00008 2.99409 7.05609 2.86218 7.07596 2.72265C7.09582 2.58312 7.07886 2.44082 7.02675 2.30987C6.96185 2.14953 7.07214 2.33339 5.81048 0.411248C5.74051 0.296212 5.6382 0.204341 5.51632 0.147111C5.39444 0.0898817 5.25839 0.0698268 5.12519 0.0894549C5.0465 0.103535 4.97124 0.132527 4.90344 0.174862C4.85978 0.207638 0.684527 3.51486 0.578122 3.62887C0.463885 3.7728 0.403828 3.95229 0.408431 4.13599C0.437251 4.48128 0.421511 4.38643 1.65928 6.30518Z" fill="url(#paint0_linear_130_600)"/>
<defs>
<linearGradient id="paint0_linear_130_600" x1="0.582572" y1="2.91301" x2="6.9244" y2="3.81602" gradientUnits="userSpaceOnUse">
<stop stop-color="#FFE6AB"/>
<stop offset="1" stop-color="#FFD778"/>
</linearGradient>
</defs>
</svg>
