<svg width="3" height="4" viewBox="0 0 3 4" fill="none" xmlns="http://www.w3.org/2000/svg">
<path d="M2.05385 2.47995C2.04747 2.34387 1.80111 0.954931 1.7966 0.941415C1.77401 0.812784 1.7057 0.696651 1.60426 0.614394C1.50282 0.532137 1.37508 0.489303 1.24456 0.493775C1.15324 0.502228 0.741716 0.55949 0.651908 0.587468C0.586732 0.609502 0.526813 0.644769 0.475915 0.69106C0.425017 0.73735 0.384235 0.793666 0.356133 0.856465C0.252607 1.10134 0.279332 1.0794 0.537171 2.59871C0.545767 2.73907 0.608619 2.87059 0.712431 2.96545C0.816243 3.06032 0.952879 3.11109 1.09345 3.10704C1.19137 3.09738 1.09345 3.10703 1.6077 3.0365C1.73831 3.01658 1.85666 2.94831 1.9393 2.84523C2.02193 2.74214 2.06282 2.61177 2.05385 2.47995ZM0.729935 1.07919C0.770755 1.00347 0.785485 1.02058 1.1955 0.958815L0.896849 2.15215C0.701699 1.08161 0.701426 1.14379 0.729935 1.07919ZM1.63328 2.48015C1.62739 2.51117 1.60962 2.53867 1.58375 2.55677C1.54861 2.57752 1.56904 2.5697 1.16352 2.62996L1.46879 1.45045C1.64921 2.50388 1.64227 2.43208 1.63328 2.48015Z" fill="url(#paint0_linear_82_488)"/>
<defs>
<linearGradient id="paint0_linear_82_488" x1="0.21411" y1="1.658" x2="2.13831" y2="1.93199" gradientUnits="userSpaceOnUse">
<stop stop-color="#FFE6AB"/>
<stop offset="1" stop-color="#FFD778"/>
</linearGradient>
</defs>
</svg>
