<svg width="4" height="3" viewBox="0 0 4 3" fill="none" xmlns="http://www.w3.org/2000/svg">
<path d="M0.381143 1.735C0.411902 1.84417 0.381143 1.735 0.592652 2.389C0.614883 2.47734 0.655668 2.55993 0.712285 2.63128C0.768902 2.70264 0.840055 2.76112 0.921023 2.80285C1.00199 2.84458 1.09091 2.8686 1.18188 2.8733C1.27285 2.87801 1.36378 2.86329 1.44862 2.83014C3.05508 2.17667 3.06158 2.21659 3.2365 1.96367C3.33654 1.79196 3.36559 1.58798 3.31745 1.39518C3.27712 1.25052 3.10252 0.713877 3.05265 0.601982C2.99885 0.483004 2.909 0.383955 2.79581 0.318854C2.68262 0.253752 2.55182 0.225894 2.42192 0.239221C2.26532 0.260789 2.39837 0.216371 0.764963 0.887939C0.609703 0.959238 0.485391 1.08418 0.414878 1.2398C0.344364 1.39542 0.332384 1.57126 0.381143 1.735ZM2.49486 0.805257C2.59997 0.837282 2.58805 0.869705 2.76333 1.40157L1.38168 1.22921C2.48427 0.776941 2.42661 0.788227 2.49486 0.805257ZM2.30905 1.8706C1.17576 2.33312 1.25389 2.315 1.17813 2.29934C1.10237 2.28368 1.08494 2.21783 0.913414 1.69381L2.30905 1.8706Z" fill="url(#paint0_linear_130_624)"/>
<defs>
<linearGradient id="paint0_linear_130_624" x1="0.375848" y1="1.34432" x2="3.31625" y2="1.763" gradientUnits="userSpaceOnUse">
<stop stop-color="#FFE6AB"/>
<stop offset="1" stop-color="#FFD778"/>
</linearGradient>
</defs>
</svg>
