<svg width="4" height="5" viewBox="0 0 4 5" fill="none" xmlns="http://www.w3.org/2000/svg">
<path d="M2.13293 1.18786C2.11618 1.13945 2.0892 1.09521 2.05384 1.05816C2.01847 1.0211 1.97554 0.992098 1.92797 0.97311C1.88039 0.954123 1.82929 0.9456 1.77813 0.948121C1.72696 0.950642 1.67694 0.964146 1.63147 0.987718C1.60113 1.00486 0.516404 1.70649 0.446742 1.77381C0.384939 1.83687 0.338899 1.91362 0.312367 1.99783C0.285835 2.08205 0.279562 2.17133 0.29406 2.25843C0.316335 2.35815 0.224607 2.12839 1.291 4.6747C1.30753 4.72349 1.33437 4.76814 1.36969 4.80564C1.40501 4.84313 1.44798 4.87259 1.4957 4.892C1.54341 4.91141 1.59474 4.92033 1.64621 4.91815C1.69767 4.91596 1.74807 4.90273 1.79396 4.87934C1.8264 4.86251 2.91473 4.16568 2.9907 4.09926C3.07477 4.0162 3.12936 3.90794 3.14617 3.79097C3.1674 3.56656 3.20472 3.72636 2.13293 1.18786Z" fill="url(#paint0_linear_82_457)"/>
<defs>
<linearGradient id="paint0_linear_82_457" x1="0.198743" y1="2.71688" x2="3.23329" y2="3.14898" gradientUnits="userSpaceOnUse">
<stop stop-color="#FFE6AB"/>
<stop offset="1" stop-color="#FFD778"/>
</linearGradient>
</defs>
</svg>
