<svg width="3" height="3" viewBox="0 0 3 3" fill="none" xmlns="http://www.w3.org/2000/svg">
<path d="M2.91297 0.994845C2.92722 0.919312 2.9151 0.841177 2.87866 0.773502C2.84221 0.705827 2.78364 0.652712 2.71273 0.623039C2.6896 0.619745 1.05679 0.348628 0.994311 0.350459C0.937474 0.359467 0.884331 0.384328 0.840988 0.422182C0.797644 0.460036 0.765858 0.50935 0.749281 0.564457C0.725584 0.64047 0.753473 0.535018 0.575906 1.78207C0.558465 1.85815 0.568447 1.93795 0.604091 2.0074C0.639735 2.07685 0.698752 2.13149 0.77074 2.16168C0.791769 2.16468 2.42548 2.4445 2.48796 2.44267C2.5246 2.43821 2.55999 2.4265 2.59206 2.40823C2.62413 2.38996 2.65224 2.36549 2.67476 2.33624C2.76092 2.19832 2.73629 2.22056 2.91297 0.994845Z" fill="url(#paint0_linear_82_419)"/>
<defs>
<linearGradient id="paint0_linear_82_419" x1="0.645947" y1="1.22989" x2="2.83722" y2="1.54191" gradientUnits="userSpaceOnUse">
<stop stop-color="#FFE6AB"/>
<stop offset="1" stop-color="#FFD778"/>
</linearGradient>
</defs>
</svg>
