<svg width="45" height="17" viewBox="0 0 45 17" fill="none" xmlns="http://www.w3.org/2000/svg">
<path d="M35.5484 4.53278C33.6746 3.18921 31.6179 2.12107 29.441 1.36093C27.3025 0.617461 25.0668 0.190693 22.8049 0.0941726C20.6019 -0.0013702 18.3967 0.223059 16.2582 0.760454C14.1275 1.30014 12.0811 2.12991 10.1762 3.22653C6.89402 5.18154 4.37254 7.3543 1.80023 10.6827C1.31178 11.3405 0.736566 12.1254 0.103495 13.166L0.58882 13.5548C1.95004 11.3425 3.59655 9.319 5.48591 7.53643C8.28268 4.98234 10.9068 3.33915 14.436 2.06082C17.8983 0.849931 21.6065 0.514788 25.2298 1.08529C27.4584 1.43666 29.6219 2.11934 31.6486 3.11066C33.7096 4.11848 35.6201 5.40875 37.3249 6.94419C40.1676 9.58252 42.1977 12.2017 44.172 16.2977L44.8234 15.927C44.1631 14.5114 43.3985 13.1467 42.5361 11.8444C41.1598 9.75659 39.5156 7.85833 37.6457 6.19815C36.9762 5.60666 36.2762 5.05077 35.5484 4.53278Z" fill="#FFE082"/>
</svg>
