<svg width="4" height="5" viewBox="0 0 4 5" fill="none" xmlns="http://www.w3.org/2000/svg">
<path d="M1.94197 4.66133C1.9891 4.60152 3.24291 2.48642 3.26843 2.44285C3.31673 2.33658 3.3308 2.2179 3.30868 2.10328C3.28656 1.98865 3.22935 1.88373 3.14497 1.80306C2.05016 0.827555 2.10844 0.840142 1.91829 0.834521C1.86721 0.836309 1.8171 0.848981 1.77132 0.871693C1.72553 0.894405 1.68512 0.926634 1.65279 0.966221C1.60536 1.02812 0.36026 3.14232 0.335345 3.18169C0.287126 3.28733 0.273162 3.4054 0.295408 3.51938C0.317654 3.63335 0.374996 3.73752 0.459402 3.81727C1.52597 4.78017 1.44092 4.71442 1.53287 4.76184C1.60243 4.79354 1.68064 4.80085 1.75487 4.78261C1.8291 4.76437 1.89502 4.72165 1.94197 4.66133Z" fill="url(#paint0_linear_82_453)"/>
<defs>
<linearGradient id="paint0_linear_82_453" x1="0.39937" y1="2.61149" x2="3.21101" y2="3.01184" gradientUnits="userSpaceOnUse">
<stop stop-color="#FFE6AB"/>
<stop offset="1" stop-color="#FFD778"/>
</linearGradient>
</defs>
</svg>
