<svg width="7" height="5" viewBox="0 0 7 5" fill="none" xmlns="http://www.w3.org/2000/svg">
<path d="M6.18013 4.61339C6.25903 4.60093 6.33437 4.57179 6.40113 4.52793C6.46788 4.48406 6.52453 4.42648 6.56728 4.359C6.73026 4.08733 6.69105 4.15729 6.69959 1.94078C6.70774 1.76615 6.65639 1.59392 6.55393 1.45228C6.45146 1.31063 6.30396 1.20795 6.13555 1.16103C6.09017 1.15457 1.2878 0.787577 1.14927 0.801971C1.02995 0.826747 0.920768 0.886673 0.835795 0.974037C0.750821 1.0614 0.693942 1.1722 0.672484 1.29217C0.649696 1.45221 0.650972 1.25499 0.640716 3.44932C0.631436 3.62096 0.680986 3.79063 0.781182 3.93029C0.881377 4.06996 1.02622 4.17126 1.19178 4.21747C1.2416 4.227 6.03205 4.62642 6.18013 4.61339Z" fill="url(#paint0_linear_130_573)"/>
<defs>
<linearGradient id="paint0_linear_130_573" x1="0.53166" y1="2.24694" x2="6.80899" y2="3.14077" gradientUnits="userSpaceOnUse">
<stop stop-color="#FFE6AB"/>
<stop offset="1" stop-color="#FFD778"/>
</linearGradient>
</defs>
</svg>
