<svg width="3" height="4" viewBox="0 0 3 4" fill="none" xmlns="http://www.w3.org/2000/svg">
<path d="M2.63386 3.0812C2.65935 1.36183 2.68701 1.40719 2.57191 1.17147C2.50753 1.04625 2.40361 0.945788 2.27629 0.88567C2.13535 0.831482 2.18722 0.843742 1.58359 0.787036C1.4761 0.771731 1.58597 0.770315 0.704 0.905497C0.912491 0.896175 1.12135 0.912008 1.32605 0.952645C1.41712 0.962079 1.50521 0.990394 1.58473 1.03578C1.95983 1.27685 1.90914 1.59863 1.9042 1.99273L1.45042 2.06459C1.41906 2.1308 1.42831 2.21985 1.44127 1.44427C1.43967 1.41783 1.44561 1.39147 1.45841 1.36827C1.4712 1.34507 1.49032 1.32598 1.51354 1.31322C1.55243 1.29682 1.71586 1.27866 0.799432 1.41625C0.78304 1.4185 0.767338 1.42432 0.753431 1.43328C0.739524 1.44225 0.727748 1.45415 0.718929 1.46815C0.681422 1.52617 0.692657 1.46441 0.674434 2.65354L1.20532 2.57072L0.866119 3.24136L1.30323 3.28654C1.32234 3.28926 1.32712 3.28994 1.87916 3.19551C1.88834 3.33664 1.84512 3.4762 1.75777 3.58743C1.67043 3.69867 1.54511 3.77376 1.40583 3.79831C2.18987 3.66624 2.2902 3.69758 2.47028 3.5112C2.5751 3.39242 2.63323 3.23962 2.63386 3.0812ZM1.89593 2.56427L1.88767 3.15285L1.62492 3.11544L1.89593 2.56427Z" fill="url(#paint0_linear_130_340)"/>
<defs>
<linearGradient id="paint0_linear_130_340" x1="1.83882" y1="0.808757" x2="1.413" y2="3.79933" gradientUnits="userSpaceOnUse">
<stop stop-color="#9E6100"/>
<stop offset="0.49" stop-color="#642701"/>
<stop offset="0.65" stop-color="#682A01"/>
<stop offset="0.81" stop-color="#753401"/>
<stop offset="0.98" stop-color="#8A4401"/>
<stop offset="1" stop-color="#8C4601"/>
</linearGradient>
</defs>
</svg>
