<svg width="3" height="2" viewBox="0 0 3 2" fill="none" xmlns="http://www.w3.org/2000/svg">
<path d="M0.294961 0.0198209C0.273932 0.0168265 0.233662 -0.0167983 1.78208 0.967509C1.64254 1.2845 1.66055 1.24844 1.65214 1.26226C1.64486 1.27474 1.63516 1.28563 1.62361 1.29431C1.61206 1.30298 1.59889 1.30925 1.58488 1.31276C1.55754 1.30887 1.43557 1.2915 2.2452 1.40678C2.26595 1.40845 2.28671 1.40373 2.3047 1.39325C2.32268 1.38277 2.33703 1.36703 2.34581 1.34816C2.34761 1.33554 2.34132 1.3797 2.47245 1.06152L0.980821 0.115336C0.627526 0.0650305 0.995542 0.117432 0.961895 0.112641C0.928248 0.10785 0.207243 0.0180593 0.26192 0.0258447C0.289251 0.0147174 0.273027 0.00811531 0.294961 0.0198209ZM0.475815 0.0455727C0.532594 0.0536575 0.517874 0.0515615 0.421138 0.0377873L0.475815 0.0455727Z" fill="url(#paint0_linear_82_168)"/>
<defs>
<linearGradient id="paint0_linear_82_168" x1="1.42273" y1="0.161095" x2="1.26433" y2="1.27355" gradientUnits="userSpaceOnUse">
<stop stop-color="#9E6100"/>
<stop offset="0.49" stop-color="#642701"/>
<stop offset="0.65" stop-color="#682A01"/>
<stop offset="0.81" stop-color="#753401"/>
<stop offset="0.98" stop-color="#8A4401"/>
<stop offset="1" stop-color="#8C4601"/>
</linearGradient>
</defs>
</svg>
