<svg width="35" height="21" viewBox="0 0 35 21" fill="none" xmlns="http://www.w3.org/2000/svg">
<path d="M0.972596 20.1714L1.04199 20.1812C3.40307 15.4131 5.96667 12.0856 9.37779 8.92379C10.8767 7.56127 12.4999 6.34209 14.2261 5.28221C17.89 3.10262 21.211 1.85474 25.5653 1.23031C27.6517 0.960365 29.7623 0.932586 31.8551 1.14753C33.1102 1.29836 32.6307 1.23009 33.9349 1.44368C34.2813 1.51231 35.2108 1.70474 34.8993 1.63249C33.1943 1.29532 34.3359 1.47503 32.4541 1.17489C32.2438 1.14495 32.1723 1.13477 32.674 1.24268C31.0966 1.02791 29.5034 0.952546 27.9128 1.01746C27.2147 1.0382 27.553 1.08852 26.9813 0.959906C26.1678 1.00714 25.6523 1.07106 25.4319 1.0976L25.8209 1.18303C24.0725 1.38757 22.3477 1.75915 20.6701 2.29267L20.2763 2.21084C19.4473 2.47257 19.0202 2.63919 18.8024 2.7219L19.1984 2.80403C17.5401 3.43124 15.9417 4.20684 14.4228 5.1214L14.0217 5.04499C13.3475 5.44032 12.9571 5.71086 12.688 5.88281L13.0891 5.95923C11.5919 6.95811 10.1816 8.08154 8.87329 9.31755L8.46742 9.25976C8.0002 9.69315 7.55791 10.1473 7.3183 10.3835L7.72417 10.4413C6.44913 11.7574 5.27565 13.1683 4.21381 14.6617L3.80584 14.6036C3.63472 14.841 3.03432 15.7275 2.88123 15.9739L3.2892 16.032C2.43318 17.3632 1.65953 18.7455 0.972596 20.1714Z" fill="url(#paint0_linear_82_134)"/>
<defs>
<linearGradient id="paint0_linear_82_134" x1="19.6141" y1="-0.657689" x2="16.3367" y2="22.3591" gradientUnits="userSpaceOnUse">
<stop stop-color="#9E6100"/>
<stop offset="0.49" stop-color="#642701"/>
<stop offset="0.65" stop-color="#682A01"/>
<stop offset="0.81" stop-color="#753401"/>
<stop offset="0.98" stop-color="#8A4401"/>
<stop offset="1" stop-color="#8C4601"/>
</linearGradient>
</defs>
</svg>
