<svg width="2" height="3" viewBox="0 0 2 3" fill="none" xmlns="http://www.w3.org/2000/svg">
<path d="M0.73144 0.994381C0.79067 1.1058 0.87655 1.03006 0.947724 0.982266C1.68226 3.07152 1.46991 2.48343 1.51291 2.58825C1.51743 2.59992 1.52429 2.61054 1.53308 2.61944C1.54187 2.62835 1.55239 2.63535 1.564 2.64002C1.5756 2.64469 1.58805 2.64693 1.60055 2.64659C1.61306 2.64625 1.62536 2.64335 1.6367 2.63806L1.89648 2.48624C1.1839 0.453752 1.20315 0.514424 1.19172 0.489195C1.18577 0.478024 1.17755 0.468214 1.1676 0.460387C1.15765 0.45256 1.14618 0.446886 1.13391 0.443728C1.12165 0.44057 1.10887 0.439996 1.09638 0.442042C1.08388 0.444087 1.07195 0.448708 1.06133 0.45561L0.633683 0.716554C0.735653 1.01 0.725124 0.978462 0.73144 0.994381Z" fill="url(#paint0_linear_82_447)"/>
<defs>
<linearGradient id="paint0_linear_82_447" x1="0.532472" y1="1.42735" x2="2.02767" y2="1.64025" gradientUnits="userSpaceOnUse">
<stop stop-color="#FFE6AB"/>
<stop offset="1" stop-color="#FFD778"/>
</linearGradient>
</defs>
</svg>
