<svg width="2" height="3" viewBox="0 0 2 3" fill="none" xmlns="http://www.w3.org/2000/svg">
<path d="M1.96632 1.15486C1.96742 1.08571 1.94528 1.0182 1.90345 0.963126C1.81981 0.86592 1.83756 0.895253 0.898475 0.729854L0.0873835 0.658232L0.990982 0.816139C1.05211 0.835746 1.10436 0.876297 1.13853 0.930647C1.1727 0.984997 1.18659 1.04966 1.17776 1.11325C1.17266 1.14908 0.963486 2.61809 0.956684 2.66586C0.949269 2.72322 0.921496 2.77601 0.878426 2.8146C0.835355 2.8532 0.779852 2.87504 0.722027 2.87615C1.5413 2.94163 1.50002 2.94063 1.53414 2.94061C1.78184 2.91252 1.76976 2.60373 1.80411 2.36248L1.32231 2.32312L1.43352 1.54203L1.91499 1.58378C1.94124 1.44205 1.95838 1.29878 1.96632 1.15486Z" fill="url(#paint0_linear_130_257)"/>
<defs>
<linearGradient id="paint0_linear_130_257" x1="1.05374" y1="0.751962" x2="0.752051" y2="2.87068" gradientUnits="userSpaceOnUse">
<stop stop-color="#9E6100"/>
<stop offset="0.49" stop-color="#642701"/>
<stop offset="0.65" stop-color="#682A01"/>
<stop offset="0.81" stop-color="#753401"/>
<stop offset="0.98" stop-color="#8A4401"/>
<stop offset="1" stop-color="#8C4601"/>
</linearGradient>
</defs>
</svg>
