<svg width="8" height="8" viewBox="0 0 8 8" fill="none" xmlns="http://www.w3.org/2000/svg">
<path d="M2.50404 0.51032C2.43113 0.555405 2.36681 0.613085 2.31407 0.68067C0.922378 2.41022 1.01717 2.27506 0.936037 2.4341C0.877843 2.55952 0.853104 2.69787 0.864229 2.83569C0.875353 2.97351 0.921963 3.1061 0.999521 3.22056C1.07361 3.31641 4.87742 7.03353 4.93579 7.08571C5.00201 7.13641 5.07768 7.1734 5.15836 7.19451C5.23905 7.21563 5.32313 7.22044 5.4057 7.20867C5.57828 7.1772 5.73356 7.08413 5.84267 6.94676C7.2238 5.25713 7.26885 5.28305 7.31747 4.90735C7.33596 4.723 7.28795 4.53811 7.18211 4.38604C7.10359 4.28713 3.26702 0.577529 3.2107 0.52808C3.10888 0.453164 2.98654 0.411291 2.86017 0.408115C2.7338 0.404939 2.6095 0.440613 2.50404 0.51032Z" fill="url(#paint0_linear_130_593)"/>
<defs>
<linearGradient id="paint0_linear_130_593" x1="0.774719" y1="3.34453" x2="7.41751" y2="4.29039" gradientUnits="userSpaceOnUse">
<stop stop-color="#FFE6AB"/>
<stop offset="1" stop-color="#FFD778"/>
</linearGradient>
</defs>
</svg>
