<svg width="3" height="3" viewBox="0 0 3 3" fill="none" xmlns="http://www.w3.org/2000/svg">
<path d="M1.29692 2.70597C1.75794 2.48196 1.71199 2.50331 1.79877 2.43628C1.87928 2.36754 1.94178 2.28018 1.98085 2.18179C2.01991 2.0834 2.03435 1.97696 2.02291 1.87172C2.00633 1.74706 1.65913 0.569048 1.6495 0.531202C1.63064 0.477093 1.60103 0.427358 1.56244 0.384992C1.52386 0.342625 1.4771 0.308502 1.42499 0.284675C1.36401 0.275992 1.46495 0.290364 0.718672 0.12188C0.971645 0.198667 0.996079 0.41885 1.09086 0.747746L0.446427 0.602346C0.105247 0.768324 0.0926305 0.766528 0.0605149 0.826323C0.0283993 0.886117 0.0238799 0.857581 0.284146 1.77218L0.612818 1.84473L0.571496 2.13494L1.15824 2.26354C1.12641 2.29119 1.14082 2.28037 1.09247 2.31854C1.04413 2.35672 0.649191 2.55366 0.575908 2.58614C0.493714 2.62181 0.402347 2.63058 0.314869 2.61119C1.08908 2.77936 1.07257 2.8049 1.29692 2.70597ZM1.35203 1.67106C1.3819 1.8374 1.34751 2.00888 1.25582 2.15085C1.34594 1.50284 1.32494 1.55992 1.35203 1.67106ZM1.09537 0.761262L1.17811 1.05412L0.739481 0.955184C0.7659 0.920325 0.762599 0.928438 1.09537 0.761262ZM0.712803 1.08227C0.706429 1.0601 0.704814 1.03684 0.708065 1.01401C0.711316 0.991173 0.71936 0.969285 0.731668 0.94978C0.711926 1.13364 0.719126 1.1132 0.712803 1.08227Z" fill="url(#paint0_linear_82_224)"/>
<defs>
<linearGradient id="paint0_linear_82_224" x1="1.21076" y1="0.191949" x2="0.84844" y2="2.73651" gradientUnits="userSpaceOnUse">
<stop stop-color="#9E6100"/>
<stop offset="0.49" stop-color="#642701"/>
<stop offset="0.65" stop-color="#682A01"/>
<stop offset="0.81" stop-color="#753401"/>
<stop offset="0.98" stop-color="#8A4401"/>
<stop offset="1" stop-color="#8C4601"/>
</linearGradient>
</defs>
</svg>
