<svg width="4" height="4" viewBox="0 0 4 4" fill="none" xmlns="http://www.w3.org/2000/svg">
<path d="M3.05989 2.53349C3.04685 2.36835 3.0766 2.50174 2.56638 0.779204C2.53949 0.664412 2.48018 0.559763 2.39552 0.477715C2.31085 0.395666 2.20439 0.339675 2.08881 0.316399C1.9879 0.300989 1.88478 0.309688 1.78788 0.341786C1.21131 0.522892 1.24031 0.507521 1.11956 0.585372C1.02636 0.659783 0.954199 0.75723 0.910205 0.868079C0.866212 0.978928 0.851909 1.09934 0.868716 1.21741C0.892665 1.35729 1.36049 2.89833 1.35709 2.92222C1.39173 3.07019 1.48292 3.19871 1.61114 3.28028C1.73936 3.36185 1.89442 3.38998 2.04312 3.35865C2.15707 3.32857 2.04312 3.35865 2.6214 3.18267C2.75683 3.13952 2.87377 3.05198 2.95333 2.93419C3.03289 2.8164 3.07043 2.67524 3.05989 2.53349ZM1.35659 1.09435C1.39579 1.00733 1.4057 1.02336 1.87513 0.875738L1.67106 2.30892C1.3235 1.10426 1.33275 1.17626 1.35659 1.09435ZM2.5747 2.55213C2.55634 2.68112 2.49525 2.66511 2.05208 2.79941L2.24046 1.3908C2.59552 2.55997 2.58116 2.48969 2.5747 2.55213Z" fill="url(#paint0_linear_130_590)"/>
<defs>
<linearGradient id="paint0_linear_130_590" x1="0.779868" y1="1.67024" x2="3.147" y2="2.0073" gradientUnits="userSpaceOnUse">
<stop stop-color="#FFE6AB"/>
<stop offset="1" stop-color="#FFD778"/>
</linearGradient>
</defs>
</svg>
