<svg width="3" height="3" viewBox="0 0 3 3" fill="none" xmlns="http://www.w3.org/2000/svg">
<path d="M1.03813 1.62494C1.15075 1.67265 1.18959 1.53683 1.23287 1.4382C3.01964 2.58215 2.51245 2.25891 2.60904 2.31653C2.62319 2.32174 2.63824 2.32408 2.6533 2.3234C2.66837 2.32273 2.68314 2.31905 2.69677 2.3126C2.7104 2.30614 2.7226 2.29703 2.73267 2.2858C2.74273 2.27457 2.75046 2.26145 2.75539 2.2472L2.89309 1.93049L1.19917 0.853382C1.18672 0.845885 1.1728 0.841155 1.15836 0.83951C1.14392 0.837865 1.1293 0.839344 1.11548 0.843849C1.10166 0.848354 1.08897 0.855777 1.07828 0.865617C1.06758 0.875457 1.05913 0.887482 1.05349 0.900877L0.800918 1.47662C0.877154 1.53045 0.956348 1.57997 1.03813 1.62494Z" fill="url(#paint0_linear_130_495)"/>
<defs>
<linearGradient id="paint0_linear_130_495" x1="0.808061" y1="1.42646" x2="2.922" y2="1.72746" gradientUnits="userSpaceOnUse">
<stop stop-color="#FFE6AB"/>
<stop offset="1" stop-color="#FFD778"/>
</linearGradient>
</defs>
</svg>
