<svg width="2" height="3" viewBox="0 0 2 3" fill="none" xmlns="http://www.w3.org/2000/svg">
<path d="M0.24147 0.658531C0.244477 0.671919 0.250395 0.684481 0.258803 0.695324C0.267212 0.706168 0.277904 0.715027 0.290121 0.721272C0.302339 0.727517 0.315783 0.730996 0.329496 0.731461C0.34321 0.731925 0.356859 0.729364 0.369471 0.72396L0.469785 0.682459L0.849072 2.38856C0.851083 2.4018 0.855734 2.41449 0.862748 2.42588C0.869762 2.43728 0.878996 2.44715 0.889901 2.45491C0.900805 2.46267 0.913159 2.46815 0.926226 2.47104C0.939293 2.47393 0.952807 2.47416 0.965966 2.47172C0.980686 2.47382 0.965966 2.47172 1.24619 2.35714C0.738368 0.0770271 0.776596 0.245535 0.769375 0.220905C0.765074 0.208845 0.75834 0.197798 0.749592 0.188448C0.740843 0.179098 0.730267 0.171645 0.718518 0.166552C0.70677 0.161459 0.694102 0.158835 0.681297 0.158841C0.668493 0.158848 0.655825 0.161486 0.644083 0.16659L0.174644 0.359362C0.245383 0.676253 0.235454 0.64051 0.24147 0.658531Z" fill="url(#paint0_linear_82_455)"/>
<defs>
<linearGradient id="paint0_linear_82_455" x1="0.0536706" y1="1.20895" x2="1.38273" y2="1.3982" gradientUnits="userSpaceOnUse">
<stop stop-color="#FFE6AB"/>
<stop offset="1" stop-color="#FFD778"/>
</linearGradient>
</defs>
</svg>
