<svg width="29" height="21" viewBox="0 0 29 21" fill="none" xmlns="http://www.w3.org/2000/svg">
<path d="M0.558417 20.8427L2.12954 19.5881C3.30871 15.7174 5.28025 12.1343 7.91887 9.06659C10.3926 6.29485 12.7935 4.42676 16.1005 2.84003C17.6511 2.11841 19.2822 1.58429 20.9593 1.24898C23.587 0.72309 26.2921 0.715424 28.9227 1.22641C28.0896 1.05594 27.2479 0.931073 26.4012 0.852363C24.6459 0.694002 22.8775 0.761646 21.1395 1.05364C18.491 1.50668 15.9487 2.44368 13.6397 3.81776L14.0372 3.87435C13.311 4.30306 12.8587 4.61628 12.2281 5.05215L11.8285 4.99526C11.2925 5.3695 10.6922 5.86334 10.2445 6.23514C5.98679 9.94795 3.2993 14.3263 1.64468 19.5426L0.071146 20.799L0.558417 20.8427Z" fill="url(#paint0_linear_82_138)"/>
<defs>
<linearGradient id="paint0_linear_82_138" x1="16.1659" y1="-0.632945" x2="12.8544" y2="22.6235" gradientUnits="userSpaceOnUse">
<stop stop-color="#9E6100"/>
<stop offset="0.49" stop-color="#642701"/>
<stop offset="0.65" stop-color="#682A01"/>
<stop offset="0.81" stop-color="#753401"/>
<stop offset="0.98" stop-color="#8A4401"/>
<stop offset="1" stop-color="#8C4601"/>
</linearGradient>
</defs>
</svg>
