<svg width="3" height="4" viewBox="0 0 3 4" fill="none" xmlns="http://www.w3.org/2000/svg">
<path d="M2.14981 1.58709C2.1601 1.43403 2.11817 1.282 2.03087 1.15585C1.82602 0.882974 1.6445 0.891247 1.17699 0.768625C1.09829 0.745401 1.01508 0.741924 0.934722 0.758501C-0.166978 0.913574 0.219926 0.849244 0.347543 0.860105C0.435923 0.872689 0.347545 0.860107 0.885699 1.0001C0.990203 1.02736 1.08658 1.07945 1.16663 1.15195C1.24668 1.22445 1.30804 1.31521 1.3455 1.41651C1.39993 1.61677 1.39932 1.82802 1.34373 2.02796L0.878353 2.09573C0.834028 2.16741 0.831005 2.27421 0.949335 1.37472C0.951305 1.34711 0.962018 1.32084 0.979923 1.29973C0.997828 1.27861 1.02199 1.26375 1.04891 1.25729C0.224265 1.38358 0.278508 1.36206 0.243375 1.3863C0.208241 1.41054 0.205503 1.39553 0.054189 2.54378L0.641715 2.45684L0.18754 3.14766C0.640383 3.27063 0.586465 3.25564 0.605574 3.25836C0.803162 3.24763 0.999482 3.22015 1.19242 3.1762C1.18634 3.26772 1.16613 3.35774 1.13249 3.44306C1.10248 3.52413 1.05232 3.59623 0.986741 3.65255C0.921161 3.70887 0.842318 3.74757 0.757644 3.76499C1.62051 3.64415 1.49256 3.65274 1.56557 3.63633C1.66865 3.60053 1.7589 3.53513 1.82501 3.44831C1.89112 3.3615 1.93017 3.25712 1.93727 3.14823C2.1675 1.47994 2.14167 1.67854 2.14981 1.58709ZM1.28425 2.53127L1.20262 3.10455L0.944293 3.03608L1.28425 2.53127Z" fill="url(#paint0_linear_130_334)"/>
<defs>
<linearGradient id="paint0_linear_130_334" x1="1.24182" y1="0.77542" x2="0.81463" y2="3.77555" gradientUnits="userSpaceOnUse">
<stop stop-color="#9E6100"/>
<stop offset="0.49" stop-color="#642701"/>
<stop offset="0.65" stop-color="#682A01"/>
<stop offset="0.81" stop-color="#753401"/>
<stop offset="0.98" stop-color="#8A4401"/>
<stop offset="1" stop-color="#8C4601"/>
</linearGradient>
</defs>
</svg>
