<svg width="3" height="3" viewBox="0 0 3 3" fill="none" xmlns="http://www.w3.org/2000/svg">
<path d="M0.147511 1.06648C0.151704 1.14463 0.169643 1.22143 0.200502 1.29336C0.792124 2.70093 0.728595 2.56515 0.792447 2.66442C1.10619 3.04541 1.4783 2.6914 1.84055 2.44078C1.96778 2.34935 2.06342 2.2206 2.11421 2.07238C2.16501 1.92417 2.16845 1.76382 2.12406 1.61356C2.09638 1.53407 1.57752 0.317208 1.542 0.241475C1.50932 0.182637 1.46535 0.130826 1.41261 0.089013C1.32876 0.036601 1.23008 0.0130267 1.13159 0.0218801C1.0331 0.0307335 0.940202 0.0715295 0.867041 0.138056C0.477842 0.406767 0.141471 0.544089 0.147511 1.06648ZM1.73248 1.91605C1.71888 2.0116 1.69055 2.00513 1.30988 2.2653L1.34612 0.932518C1.7608 1.90546 1.74575 1.83996 1.73487 1.91639L1.73248 1.91605ZM0.563735 0.950278C0.5787 0.845178 0.601566 0.855745 0.977461 0.594887L0.941213 1.91061C0.548391 0.972464 0.558307 1.02262 0.566122 0.950618L0.563735 0.950278Z" fill="url(#paint0_linear_130_537)"/>
<defs>
<linearGradient id="paint0_linear_130_537" x1="0.105297" y1="1.27737" x2="2.20013" y2="1.57565" gradientUnits="userSpaceOnUse">
<stop stop-color="#FFE6AB"/>
<stop offset="1" stop-color="#FFD778"/>
</linearGradient>
</defs>
</svg>
