<svg width="10" height="18" viewBox="0 0 10 18" fill="none" xmlns="http://www.w3.org/2000/svg">
<path d="M5.13639 7.51347C5.26566 7.41003 4.96965 7.76025 8.76618 3.02216C8.87878 2.8709 8.93685 2.68598 8.93094 2.4975C8.92503 2.30903 8.85549 2.12812 8.73364 1.98421C8.66399 1.9085 8.75991 2.00501 8.20144 1.46001L7.78791 1.48886L7.14649 0.858941L7.5573 0.832138C6.94557 0.233251 7.08584 0.292215 6.05541 0.357516C6.14607 0.356702 6.23596 0.374075 6.31979 0.408616C6.40361 0.443156 6.47966 0.494163 6.54343 0.55861C8.16764 2.14245 8.0263 1.98829 8.1202 2.13326C8.19625 2.25558 8.23975 2.39531 8.24657 2.53918C8.25338 2.68304 8.22328 2.82626 8.15914 2.95522C8.07254 3.10129 4.56825 7.46426 4.53039 7.50761C4.44375 7.59703 4.3323 7.65841 4.21042 7.68382C2.97303 7.87661 1.85906 8.5429 1.10389 9.5419C0.348725 10.5409 0.01151 11.7944 0.163504 13.0374C0.315499 14.2805 0.944793 15.4158 1.91842 16.2034C2.89205 16.991 4.13374 17.3692 5.38112 17.2582C6.6285 17.1472 7.78386 16.5555 8.60307 15.6083C9.42227 14.6611 9.84115 13.4326 9.7712 12.1822C9.70125 10.9318 9.14793 9.75765 8.22818 8.90774C7.30843 8.05783 6.0943 7.59878 4.84231 7.62757C4.94833 7.6147 5.04943 7.57547 5.13639 7.51347Z" fill="url(#paint0_linear_130_380)"/>
<defs>
<linearGradient id="paint0_linear_130_380" x1="7.21553" y1="0.374047" x2="6.13327" y2="7.97468" gradientUnits="userSpaceOnUse">
<stop stop-color="#9E6100"/>
<stop offset="0.49" stop-color="#642701"/>
<stop offset="0.65" stop-color="#682A01"/>
<stop offset="0.81" stop-color="#753401"/>
<stop offset="0.98" stop-color="#8A4401"/>
<stop offset="1" stop-color="#8C4601"/>
</linearGradient>
</defs>
</svg>
