<svg width="5" height="5" viewBox="0 0 5 5" fill="none" xmlns="http://www.w3.org/2000/svg">
<path d="M1.45157 4.1632L1.8648 4.22204L3.04338 3.56126L2.63254 3.50276L3.38198 3.08307L3.79283 3.14157C4.02855 3.00941 4.20117 2.94382 4.27676 2.60121C4.31554 2.32891 4.30261 2.41967 3.53409 0.662787C3.50688 0.598385 3.46716 0.540019 3.41723 0.491077C3.36731 0.442135 3.30817 0.403588 3.24324 0.377668C2.98514 0.317053 2.72214 0.279604 2.45738 0.265768C2.82149 0.344422 2.80962 0.496266 3.5433 2.15558C3.60121 2.28878 3.61223 2.43769 3.57455 2.57797C3.53687 2.71824 3.45271 2.84158 3.33585 2.92784C3.27684 2.96574 0.627335 4.4577 0.539319 4.49391C0.475627 4.51614 0.407984 4.52478 0.340749 4.51925C1.13445 4.61033 1.01434 4.5981 1.08463 4.6008C1.15492 4.6035 1.13478 4.60794 0.690498 4.54468C0.847104 4.52311 0.898268 4.47191 1.45157 4.1632Z" fill="url(#paint0_linear_130_374)"/>
<defs>
<linearGradient id="paint0_linear_130_374" x1="2.77335" y1="0.288827" x2="2.13699" y2="4.75796" gradientUnits="userSpaceOnUse">
<stop stop-color="#9E6100"/>
<stop offset="0.49" stop-color="#642701"/>
<stop offset="0.65" stop-color="#682A01"/>
<stop offset="0.81" stop-color="#753401"/>
<stop offset="0.98" stop-color="#8A4401"/>
<stop offset="1" stop-color="#8C4601"/>
</linearGradient>
</defs>
</svg>
