<svg width="6" height="7" viewBox="0 0 6 7" fill="none" xmlns="http://www.w3.org/2000/svg">
<path d="M5.57214 4.24486C5.57225 4.09276 5.52516 3.94437 5.43737 3.82016C5.37365 3.74028 2.31267 0.706124 2.26338 0.660485C2.19068 0.597522 2.09877 0.56109 2.00267 0.557151C1.90657 0.553211 1.81198 0.581997 1.73437 0.638798C1.68259 0.675861 1.6387 0.722856 1.60526 0.777044C0.695083 2.18154 0.756014 2.07006 0.707109 2.20256C0.673139 2.3098 0.664466 2.42346 0.681767 2.53462C0.699069 2.64577 0.741876 2.75142 0.806835 2.84327C0.868453 2.92285 3.90901 5.96482 3.95829 6.01046C4.00743 6.05266 4.06513 6.08371 4.12742 6.10147C4.18972 6.11923 4.25512 6.12327 4.31912 6.11333C4.3818 6.10094 4.44124 6.07573 4.49369 6.03926C4.54615 6.00278 4.59049 5.95585 4.62393 5.90141C5.53021 4.52425 5.56147 4.54587 5.57214 4.24486Z" fill="url(#paint0_linear_82_451)"/>
<defs>
<linearGradient id="paint0_linear_82_451" x1="0.590307" y1="2.97765" x2="5.65841" y2="3.69929" gradientUnits="userSpaceOnUse">
<stop stop-color="#FFE6AB"/>
<stop offset="1" stop-color="#FFD778"/>
</linearGradient>
</defs>
</svg>
