<svg width="3" height="6" viewBox="0 0 3 6" fill="none" xmlns="http://www.w3.org/2000/svg">
<path d="M1.91865 4.15334C0.738116 4.90999 0.766965 4.9334 0.578605 4.91517C1.31884 5.02057 1.32516 5.05151 1.49335 4.9553C2.7006 4.17671 2.66939 4.2302 2.77022 4.01927C2.79983 3.94549 2.81371 3.86634 2.81098 3.78689C2.80826 3.70744 2.78898 3.62944 2.75439 3.55786L2.35483 3.50097L2.08388 2.85733L2.48344 2.91422L2.04468 1.88194L1.64722 1.82535C1.37115 1.1724 1.40814 1.2592 1.38018 1.19944C1.36635 1.17601 1.31919 1.17573 1.76922 1.25483C1.74568 1.21175 1.71392 1.1737 1.67575 1.14283C1.56276 1.06237 1.5859 1.08068 0.843552 0.959961C0.908494 0.971034 0.969416 0.998883 1.02028 1.04075C1.07115 1.08262 1.11019 1.13705 1.13355 1.19865C2.21827 3.76688 2.12173 3.52571 2.1404 3.62062C2.15664 3.72126 2.14449 3.82442 2.10531 3.91853C2.06614 4.01264 2.0015 4.09395 1.91865 4.15334Z" fill="url(#paint0_linear_82_229)"/>
<defs>
<linearGradient id="paint0_linear_82_229" x1="2.01008" y1="1.11534" x2="1.45073" y2="5.04364" gradientUnits="userSpaceOnUse">
<stop stop-color="#9E6100"/>
<stop offset="0.49" stop-color="#642701"/>
<stop offset="0.65" stop-color="#682A01"/>
<stop offset="0.81" stop-color="#753401"/>
<stop offset="0.98" stop-color="#8A4401"/>
<stop offset="1" stop-color="#8C4601"/>
</linearGradient>
</defs>
</svg>
