<svg width="3" height="4" viewBox="0 0 3 4" fill="none" xmlns="http://www.w3.org/2000/svg">
<path d="M2.89947 1.9044C2.9387 1.62891 2.9654 1.56191 2.91066 1.41894C2.88262 1.34732 2.82773 1.28947 2.75768 1.2577C2.71142 1.25111 1.0873 0.934029 1.06207 0.930436L0.36662 0.887195C0.396061 0.891387 2.0388 1.19825 2.09048 1.22706C2.14095 1.25959 2.1821 1.30468 2.20988 1.35791C2.23766 1.41115 2.25111 1.47069 2.24893 1.53069C2.23815 1.6064 2.07735 2.73568 2.07376 2.76092C2.06437 2.81767 2.03999 2.87087 2.00315 2.91504C1.96631 2.95921 1.91833 2.99274 1.86419 3.01215C1.80442 3.0251 1.54727 3.00779 2.47974 3.05903C2.51579 3.05996 2.55165 3.05335 2.58501 3.03963C2.61837 3.02591 2.64849 3.00537 2.67346 2.97934C2.77554 2.86514 2.7728 2.77892 2.80035 2.58545L2.37467 2.56131L2.47199 1.87786L2.89947 1.9044Z" fill="url(#paint0_linear_82_179)"/>
<defs>
<linearGradient id="paint0_linear_82_179" x1="1.68875" y1="1.01967" x2="1.41147" y2="2.967" gradientUnits="userSpaceOnUse">
<stop stop-color="#9E6100"/>
<stop offset="0.49" stop-color="#642701"/>
<stop offset="0.65" stop-color="#682A01"/>
<stop offset="0.81" stop-color="#753401"/>
<stop offset="0.98" stop-color="#8A4401"/>
<stop offset="1" stop-color="#8C4601"/>
</linearGradient>
</defs>
</svg>
