<svg width="6" height="7" viewBox="0 0 6 7" fill="none" xmlns="http://www.w3.org/2000/svg">
<path d="M5.49627 3.53872C5.61371 3.4198 5.69164 3.26758 5.71947 3.10278C5.74729 2.93798 5.72366 2.7686 5.65178 2.61772L5.41067 2.15446L4.95512 2.06766L4.5996 1.38097L5.05516 1.46777C4.98121 1.2971 4.89194 1.13349 4.78845 0.978934C4.72054 0.891758 4.62576 0.829432 4.51881 0.801628C3.58893 0.622918 3.74317 0.652191 3.8063 0.670928C4.06534 0.785798 4.01381 0.788211 4.88979 2.4751C4.96147 2.62646 4.98496 2.79617 4.95709 2.9613C4.92922 3.12644 4.85133 3.27904 4.73394 3.39849C4.67801 3.44901 0.881717 6.49094 0.788931 6.54353C0.693732 6.59679 0.583886 6.6179 0.475727 6.60372C1.3278 6.74698 1.3104 6.76644 1.50316 6.6964C1.65974 6.62365 5.47137 3.55954 5.49627 3.53872Z" fill="url(#paint0_linear_130_314)"/>
<defs>
<linearGradient id="paint0_linear_130_314" x1="3.69745" y1="0.648117" x2="2.79954" y2="6.95411" gradientUnits="userSpaceOnUse">
<stop stop-color="#9E6100"/>
<stop offset="0.49" stop-color="#642701"/>
<stop offset="0.65" stop-color="#682A01"/>
<stop offset="0.81" stop-color="#753401"/>
<stop offset="0.98" stop-color="#8A4401"/>
<stop offset="1" stop-color="#8C4601"/>
</linearGradient>
</defs>
</svg>
