<svg width="13" height="46" viewBox="0 0 13 46" fill="none" xmlns="http://www.w3.org/2000/svg">
<path d="M0.121741 1.24195C2.90358 3.47897 4.55125 5.37856 6.42339 8.09753C7.89247 10.3143 9.08936 12.6999 9.98821 15.2028C10.9326 17.8216 11.5678 20.5417 11.8808 23.308C12.2089 26.2018 12.1932 29.1244 11.8341 32.0145C11.4801 34.9139 10.7795 37.7604 9.74714 40.4928C9.08717 42.2297 8.28609 43.9096 7.35193 45.5157C7.56258 45.6616 7.76429 45.82 7.95596 45.9901C8.94984 44.2865 9.79431 42.5001 10.4799 40.6508C11.496 37.9107 12.1897 35.0616 12.547 32.1611C12.9116 29.2564 12.9396 26.3193 12.6304 23.4083C12.3367 20.5665 11.7073 17.7695 10.7551 15.076C9.82238 12.4425 8.56734 9.93458 7.01857 7.60941C5.0833 4.80635 3.32532 2.77734 0.530283 0.572771L0.121741 1.24195Z" fill="#FFE082"/>
</svg>
