<svg width="4" height="2" viewBox="0 0 4 2" fill="none" xmlns="http://www.w3.org/2000/svg">
<path d="M2.76676 0.323211C2.7331 0.322659 2.70043 0.334619 2.67508 0.356773C2.64973 0.378928 2.6335 0.409702 2.62953 0.443136C2.62744 0.457856 2.62953 0.443136 2.60887 0.588239C0.119003 0.278764 0.821683 0.361651 0.694608 0.349994C0.661196 0.35035 0.62901 0.36263 0.603849 0.384617C0.578689 0.406605 0.562209 0.436856 0.55738 0.469919C0.555284 0.484639 0.561867 0.438373 0.519394 0.842131C3.60559 1.22794 2.72117 1.1256 2.8867 1.13845C2.92143 1.13809 2.95476 1.12465 2.98002 1.10081C3.00529 1.07696 3.02064 1.04447 3.02302 1.00981L3.09152 0.363016L2.76676 0.323211Z" fill="url(#paint0_linear_82_550)"/>
<defs>
<linearGradient id="paint0_linear_82_550" x1="0.569977" y1="0.426654" x2="3.06196" y2="0.781488" gradientUnits="userSpaceOnUse">
<stop stop-color="#FFE6AB"/>
<stop offset="1" stop-color="#FFD778"/>
</linearGradient>
</defs>
</svg>
