<svg width="3" height="4" viewBox="0 0 3 4" fill="none" xmlns="http://www.w3.org/2000/svg">
<path d="M2.66343 1.41327C2.67248 1.27852 2.63557 1.14467 2.55871 1.03361C2.37836 0.79337 2.21855 0.800653 1.80696 0.692697C1.73767 0.67225 1.66442 0.66919 1.59367 0.683784C0.623732 0.82031 0.964361 0.763674 1.07672 0.773235C1.15452 0.784314 1.07672 0.773238 1.55051 0.896486C1.64251 0.920487 1.72736 0.966349 1.79784 1.03018C1.86832 1.094 1.92234 1.17391 1.95531 1.26309C2.00324 1.4394 2.0027 1.62538 1.95376 1.80141L1.54404 1.86108C1.50502 1.92418 1.50235 2.01821 1.60653 1.2263C1.60827 1.20199 1.6177 1.17886 1.63346 1.16028C1.64922 1.14169 1.6705 1.1286 1.6942 1.12292C0.968181 1.2341 1.01594 1.21515 0.985005 1.2365C0.954074 1.25784 0.951663 1.24463 0.818447 2.25554L1.3357 2.179L0.935849 2.78719C1.33453 2.89546 1.28706 2.88226 1.30388 2.88465C1.47784 2.87521 1.65068 2.85101 1.82054 2.81232C1.81519 2.89289 1.79739 2.97214 1.76778 3.04726C1.74136 3.11864 1.6972 3.18211 1.63946 3.2317C1.58173 3.28128 1.51231 3.31536 1.43777 3.33069C2.19743 3.2243 2.08478 3.23186 2.14906 3.21742C2.23982 3.1859 2.31927 3.12832 2.37747 3.05189C2.43568 2.97546 2.47005 2.88356 2.47631 2.78769C2.67901 1.31894 2.65626 1.49378 2.66343 1.41327ZM1.90139 2.24452L1.82953 2.74924L1.60209 2.68896L1.90139 2.24452Z" fill="url(#paint0_linear_82_242)"/>
<defs>
<linearGradient id="paint0_linear_82_242" x1="1.86403" y1="0.698679" x2="1.48794" y2="3.33998" gradientUnits="userSpaceOnUse">
<stop stop-color="#9E6100"/>
<stop offset="0.49" stop-color="#642701"/>
<stop offset="0.65" stop-color="#682A01"/>
<stop offset="0.81" stop-color="#753401"/>
<stop offset="0.98" stop-color="#8A4401"/>
<stop offset="1" stop-color="#8C4601"/>
</linearGradient>
</defs>
</svg>
