<svg width="4" height="4" viewBox="0 0 4 4" fill="none" xmlns="http://www.w3.org/2000/svg">
<path d="M3.24371 3.48451C3.27608 3.39408 3.23555 3.54184 3.49413 1.93121C3.51389 1.82742 3.49577 1.71999 3.44308 1.62842C3.39039 1.53685 3.3066 1.46721 3.20694 1.43214C3.17111 1.42704 0.832935 0.989313 0.747632 0.989353C0.647269 0.995449 0.553311 1.04071 0.48598 1.11538C0.348206 1.27854 0.383021 1.29081 0.154075 2.796C0.135408 2.89907 0.153788 3.00543 0.205968 3.09626C0.258149 3.18708 0.340766 3.25654 0.439211 3.29233C0.470263 3.29675 2.81186 3.74471 2.89443 3.74672C2.97161 3.74092 3.04551 3.71315 3.10741 3.66668C3.1693 3.62022 3.2166 3.55701 3.24371 3.48451Z" fill="url(#paint0_linear_130_597)"/>
<defs>
<linearGradient id="paint0_linear_130_597" x1="0.239761" y1="2.14288" x2="3.39514" y2="2.59218" gradientUnits="userSpaceOnUse">
<stop stop-color="#FFE6AB"/>
<stop offset="1" stop-color="#FFD778"/>
</linearGradient>
</defs>
</svg>
