<svg width="4" height="4" viewBox="0 0 4 4" fill="none" xmlns="http://www.w3.org/2000/svg">
<path d="M2.35832 1.12893C2.41284 1.21749 2.44931 1.31595 2.46564 1.41865C2.48196 1.52136 2.47782 1.62628 2.45346 1.72737C2.40369 1.89156 2.29722 2.03273 2.15303 2.1257C0.695146 3.10496 0.706433 3.16262 0.363482 3.08942C1.12342 3.22931 1.22138 3.29444 1.51474 3.11687C2.92419 2.16971 2.97572 2.18436 3.10115 1.90246C3.13474 1.81139 3.14968 1.7145 3.14506 1.61755C3.14044 1.5206 3.11637 1.42557 3.07428 1.33811C3.00973 1.2095 2.74883 0.731242 2.68702 0.634707C2.47877 0.385718 2.38768 0.409303 1.65981 0.266668C1.99561 0.372973 2.04449 0.560276 2.35832 1.12893Z" fill="url(#paint0_linear_130_395)"/>
<defs>
<linearGradient id="paint0_linear_130_395" x1="2.04507" y1="0.333711" x2="1.62129" y2="3.30995" gradientUnits="userSpaceOnUse">
<stop stop-color="#9E6100"/>
<stop offset="0.49" stop-color="#642701"/>
<stop offset="0.65" stop-color="#682A01"/>
<stop offset="0.81" stop-color="#753401"/>
<stop offset="0.98" stop-color="#8A4401"/>
<stop offset="1" stop-color="#8C4601"/>
</linearGradient>
</defs>
</svg>
