<svg width="4" height="5" viewBox="0 0 4 5" fill="none" xmlns="http://www.w3.org/2000/svg">
<path d="M3.93513 2.46525C3.99071 2.3512 4.00827 2.22233 3.98525 2.09756C3.96222 1.97279 3.89983 1.85868 3.8072 1.77197C1.66054 0.0576831 1.78715 0.109831 1.57288 0.125625C1.5154 0.133806 1.4602 0.153618 1.41064 0.183854C1.36108 0.214091 1.31821 0.254115 1.28464 0.30148C1.23315 0.372135 0.491286 1.71411 0.464694 1.76394C0.410123 1.87723 0.392941 2.00492 0.415627 2.1286C0.438312 2.25229 0.499693 2.36556 0.590916 2.45211C2.71369 4.16299 2.55702 4.04808 2.65599 4.08898C2.7385 4.11455 2.82702 4.11309 2.90864 4.08481C2.99026 4.05654 3.06072 4.00294 3.10973 3.93181C3.16088 3.86355 3.91093 2.51542 3.93513 2.46525Z" fill="url(#paint0_linear_130_530)"/>
<defs>
<linearGradient id="paint0_linear_130_530" x1="0.428911" y1="1.86121" x2="3.97364" y2="2.36594" gradientUnits="userSpaceOnUse">
<stop stop-color="#FFE6AB"/>
<stop offset="1" stop-color="#FFD778"/>
</linearGradient>
</defs>
</svg>
