<svg width="19" height="47" viewBox="0 0 19 47" fill="none" xmlns="http://www.w3.org/2000/svg">
<path d="M15.4925 30.086C16.7286 27.2649 17.6312 24.3091 18.182 21.2787C18.7472 18.1932 18.958 15.0531 18.8103 11.9197C18.5532 7.78641 17.9456 4.30019 16.3833 0.0736447L15.6339 0.493337C16.4521 2.69668 17.0665 4.97043 17.4693 7.28601C17.9866 10.3071 18.1472 13.3785 17.9478 16.4371C17.751 19.5657 17.1828 22.6599 16.2551 25.6543C15.3804 28.4819 14.1655 31.1928 12.6369 33.7273C11.1991 36.1127 9.46914 38.3093 7.48725 40.2662C5.43507 42.2186 3.52397 43.7621 0.751298 45.2633C0.975035 45.7972 0.889298 45.5949 1.09732 46.0851C3.91708 44.5784 6.00554 42.8847 8.12866 40.862C10.1833 38.8253 11.9704 36.5353 13.4467 34.0473C14.2071 32.7689 14.8903 31.4461 15.4925 30.086Z" fill="#FFE082"/>
</svg>
