<svg width="3" height="4" viewBox="0 0 3 4" fill="none" xmlns="http://www.w3.org/2000/svg">
<path d="M0.0515383 1.62131C0.0426953 1.68342 0.0228749 1.61723 0.529292 2.49357L0.911481 2.56505L0.929323 2.78205L1.45654 2.87906C1.02816 3.26892 0.944268 3.37882 0.690401 3.36461C0.436533 3.35039 1.43055 3.50656 1.50562 3.50993C1.57134 3.50845 1.63594 3.4927 1.69497 3.46378C1.81641 3.39821 1.76695 3.43748 2.2465 3.01347C2.35887 2.90719 2.43515 2.76839 2.46464 2.61656C2.49412 2.46473 2.47534 2.30747 2.41092 2.16685C2.37267 2.09317 1.73888 0.998855 1.68835 0.925859C1.52755 0.737243 1.5286 0.781258 0.658432 0.611051C0.717091 0.621484 0.772816 0.644427 0.821817 0.678318C0.870819 0.712209 0.911948 0.756254 0.942409 0.807458L1.39658 1.58862L0.998008 1.51237L1.174 1.35465L0.403137 1.2059C0.0941312 1.49334 0.0429573 1.51042 0.0515383 1.62131ZM1.68124 2.53331C1.67308 2.59063 1.67857 2.67184 1.61682 1.94168C1.66802 2.03025 1.69924 2.12894 1.70831 2.23084C1.71737 2.33274 1.70406 2.43539 1.66929 2.53161L1.68124 2.53331ZM0.827821 1.68067C0.846683 1.89051 0.85214 1.88641 0.822085 1.82364C0.813839 1.80182 0.81001 1.77858 0.810819 1.75526C0.811628 1.73195 0.817061 1.70903 0.826801 1.68784L0.827821 1.68067Z" fill="url(#paint0_linear_130_297)"/>
<defs>
<linearGradient id="paint0_linear_130_297" x1="1.44668" y1="0.72329" x2="1.05895" y2="3.44633" gradientUnits="userSpaceOnUse">
<stop stop-color="#9E6100"/>
<stop offset="0.49" stop-color="#642701"/>
<stop offset="0.65" stop-color="#682A01"/>
<stop offset="0.81" stop-color="#753401"/>
<stop offset="0.98" stop-color="#8A4401"/>
<stop offset="1" stop-color="#8C4601"/>
</linearGradient>
</defs>
</svg>
