<svg width="51" height="24" viewBox="0 0 51 24" fill="none" xmlns="http://www.w3.org/2000/svg">
<path d="M0.45308 21.6425C0.42213 21.8599 0.444577 21.7022 0.342202 22.4212L4.0163 23.0272L4.79943 22.3881C7.93397 15.3161 12.2752 10.1414 17.9628 6.20869C19.7064 5.03144 21.5633 4.03123 23.5057 3.22294C27.9857 1.42135 31.6835 0.851195 36.02 1.01538C38.7514 1.15357 41.4492 1.67967 44.0324 2.57787C46.3166 3.37603 48.4953 4.44898 50.5206 5.77308C50.9815 5.00036 50.8987 5.13723 50.9757 5.00685C50.0734 4.41929 49.1407 3.87974 48.1815 3.39045C45.5899 2.06859 42.8196 1.13145 39.9577 0.608561C34.3699 -0.415308 28.605 0.202932 23.3614 2.38841C20.7388 3.48598 18.2719 4.92339 16.0239 6.66372C10.9884 10.6551 7.23755 15.312 4.29317 21.87L3.88524 22.2019L0.45308 21.6425Z" fill="#FFE082"/>
</svg>
