<svg width="4" height="6" viewBox="0 0 4 6" fill="none" xmlns="http://www.w3.org/2000/svg">
<path d="M1.97775 4.39314L2.40021 4.47279L3.0671 3.34922L2.64533 3.26479C2.66749 3.22895 2.59317 3.35728 3.10288 2.4989L3.52466 2.58333C3.61565 2.46345 3.66848 2.31898 3.67631 2.16869C3.68306 2.02821 3.63971 1.88989 3.55397 1.7784C3.47819 1.6945 3.6113 1.78656 2.17572 0.794977C2.12182 0.755866 2.05973 0.729525 1.99416 0.717947C0.99056 0.509244 1.31849 0.568123 1.42804 0.620278C1.48197 0.652328 2.75919 1.54094 2.81722 1.59551C2.91354 1.69769 2.9698 1.83115 2.97571 1.97145C2.97686 2.25431 3.03206 2.08914 1.2489 5.07897C1.20115 5.16695 1.12959 5.23971 1.04242 5.28893C0.955248 5.33815 0.855979 5.36184 0.755975 5.35728C0.686705 5.34741 0.57205 5.33109 1.41559 5.48288C1.51886 5.49675 1.62392 5.4795 1.71733 5.43332C1.81073 5.38714 1.88824 5.31414 1.93992 5.22366L1.51746 5.14401L1.97775 4.39314Z" fill="url(#paint0_linear_130_359)"/>
<defs>
<linearGradient id="paint0_linear_130_359" x1="2.57014" y1="0.763406" x2="1.88718" y2="5.55978" gradientUnits="userSpaceOnUse">
<stop stop-color="#9E6100"/>
<stop offset="0.49" stop-color="#642701"/>
<stop offset="0.65" stop-color="#682A01"/>
<stop offset="0.81" stop-color="#753401"/>
<stop offset="0.98" stop-color="#8A4401"/>
<stop offset="1" stop-color="#8C4601"/>
</linearGradient>
</defs>
</svg>
