<svg width="5" height="3" viewBox="0 0 5 3" fill="none" xmlns="http://www.w3.org/2000/svg">
<path d="M0.820355 -0.00720409C3.38784 0.463175 3.2428 0.403529 3.3831 0.547797C3.45245 0.631184 3.49168 0.735502 3.49447 0.84392C3.49179 0.948331 3.27408 2.39175 3.27 2.42042C3.25433 2.49416 3.21931 2.5624 3.16855 2.61813C3.11778 2.67386 3.0531 2.71507 2.98114 2.73753C2.89584 2.75463 2.60103 2.73702 3.57077 2.77275C3.64766 2.77715 3.72413 2.7586 3.79045 2.71944C3.85678 2.68029 3.90997 2.6223 3.94327 2.55284C3.9828 2.46342 3.97531 2.49891 4.05016 2.00754L3.63114 1.9893C3.70732 1.45425 3.71515 1.39931 3.75562 1.11506L4.16679 1.13705C4.19996 1.04533 4.20982 0.946801 4.19548 0.850324C4.18114 0.753846 4.14306 0.662443 4.08465 0.584328C3.9423 0.437331 4.06823 0.494254 1.52633 0.032394C1.46901 0.0242312 1.59322 0.0419191 0.783846 -0.00752737L0.820355 -0.00720409Z" fill="url(#paint0_linear_130_366)"/>
<defs>
<linearGradient id="paint0_linear_130_366" x1="2.52991" y1="0.172856" x2="2.17754" y2="2.64748" gradientUnits="userSpaceOnUse">
<stop stop-color="#9E6100"/>
<stop offset="0.49" stop-color="#642701"/>
<stop offset="0.65" stop-color="#682A01"/>
<stop offset="0.81" stop-color="#753401"/>
<stop offset="0.98" stop-color="#8A4401"/>
<stop offset="1" stop-color="#8C4601"/>
</linearGradient>
</defs>
</svg>
