<svg width="2" height="4" viewBox="0 0 2 4" fill="none" xmlns="http://www.w3.org/2000/svg">
<path d="M1.34451 2.92295C1.34574 2.88849 1.33575 2.85456 1.31605 2.82627C1.29635 2.79798 1.26799 2.77684 1.23525 2.76604L1.10387 2.74734C1.26934 0.472748 1.28237 0.603761 1.22842 0.520531C1.17447 0.4373 1.18028 0.46494 0.819251 0.39891L0.0723912 0.50946C0.426257 0.574469 0.411579 0.55776 0.45459 0.598003C0.547098 0.684287 0.521472 0.607523 0.355994 2.86505C0.473037 2.88172 0.535141 2.89056 0.583633 2.97789C0.632125 3.06522 0.598674 3.04339 0.572571 3.41498L1.32045 3.29726C1.34552 2.89872 1.3435 2.94717 1.34451 2.92295Z" fill="url(#paint0_linear_130_337)"/>
<defs>
<linearGradient id="paint0_linear_130_337" x1="0.906262" y1="0.403989" x2="0.480435" y2="3.39455" gradientUnits="userSpaceOnUse">
<stop stop-color="#9E6100"/>
<stop offset="0.49" stop-color="#642701"/>
<stop offset="0.65" stop-color="#682A01"/>
<stop offset="0.81" stop-color="#753401"/>
<stop offset="0.98" stop-color="#8A4401"/>
<stop offset="1" stop-color="#8C4601"/>
</linearGradient>
</defs>
</svg>
