<svg width="4" height="3" viewBox="0 0 4 3" fill="none" xmlns="http://www.w3.org/2000/svg">
<path d="M3.39723 2.58563C3.42573 2.50601 3.39004 2.6361 3.6177 1.2181C3.63509 1.12672 3.61915 1.03214 3.57275 0.951527C3.52636 0.870909 3.4526 0.809597 3.36486 0.778724C3.33332 0.774233 1.27479 0.388857 1.19969 0.388891C1.11133 0.394259 1.02861 0.434104 0.96933 0.499848C0.848034 0.643495 0.878685 0.654296 0.677121 1.97946C0.660687 2.0702 0.676869 2.16384 0.722809 2.2438C0.768748 2.32377 0.841484 2.38491 0.928155 2.41643C0.955493 2.42032 3.01703 2.81471 3.08973 2.81647C3.15767 2.81137 3.22274 2.78692 3.27723 2.74601C3.33172 2.7051 3.37336 2.64945 3.39723 2.58563Z" fill="url(#paint0_linear_82_505)"/>
<defs>
<linearGradient id="paint0_linear_82_505" x1="0.75256" y1="1.40445" x2="3.53055" y2="1.80001" gradientUnits="userSpaceOnUse">
<stop stop-color="#FFE6AB"/>
<stop offset="1" stop-color="#FFD778"/>
</linearGradient>
</defs>
</svg>
