<svg width="6" height="6" viewBox="0 0 6 6" fill="none" xmlns="http://www.w3.org/2000/svg">
<path d="M0.170334 2.72594C0.271916 2.82622 -0.0426963 2.6248 4.14484 5.11561C4.24267 5.17243 4.35594 5.19691 4.46851 5.18559C4.58107 5.17426 4.68719 5.1277 4.77175 5.05254C4.94831 4.89746 4.89126 4.95155 5.78357 3.23555C5.85197 3.11122 5.8809 2.96901 5.8665 2.82783C5.85211 2.68666 5.79508 2.55321 5.703 2.44523C5.59902 2.34675 5.92595 2.55207 1.70027 0.0729933C1.56745 0.00432106 1.41295 -0.00933949 1.27014 0.0349624C1.12733 0.0792643 1.00769 0.177971 0.937055 0.309758C0.91184 0.351225 0.0933661 1.9254 0.043563 2.06421C0.00493192 2.17596 -0.00369158 2.29589 0.018555 2.41201C0.0408016 2.52813 0.0931385 2.63638 0.170334 2.72594Z" fill="url(#paint0_linear_82_489)"/>
<defs>
<linearGradient id="paint0_linear_82_489" x1="0.0180831" y1="2.18288" x2="5.85797" y2="3.01442" gradientUnits="userSpaceOnUse">
<stop stop-color="#FFE6AB"/>
<stop offset="1" stop-color="#FFD778"/>
</linearGradient>
</defs>
</svg>
