<svg width="3" height="3" viewBox="0 0 3 3" fill="none" xmlns="http://www.w3.org/2000/svg">
<path d="M2.20498 0.742153C2.29642 0.852788 2.35192 0.988688 2.36408 1.1317C2.36739 1.22561 2.34902 1.31902 2.31041 1.40468C2.27179 1.49034 2.21396 1.56596 2.1414 1.62566C2.12159 1.6443 2.19158 1.64997 1.56488 1.51568L0.376033 1.81843L0.639044 2.17128C0.681124 2.22233 0.657685 2.20612 1.30571 2.3413C1.24262 2.33232 1.26366 2.33531 0.97179 1.94402L2.10927 1.65542L1.09523 2.55378C1.03245 2.6156 0.955547 2.66117 0.871175 2.68655C0.786803 2.71192 0.69751 2.71633 0.611048 2.6994L1.25757 2.83008C1.39437 2.84352 1.53128 2.80566 1.64174 2.72386C1.69999 2.67637 2.72275 1.76208 2.79901 1.67853C2.89638 1.56685 2.94974 1.42353 2.94911 1.27536C2.94849 1.12719 2.89393 0.984323 2.79563 0.873459C2.29065 0.200791 2.46254 0.319671 1.6015 0.128409C1.83314 0.204305 1.86262 0.283597 2.20498 0.742153Z" fill="url(#paint0_linear_82_295)"/>
<defs>
<linearGradient id="paint0_linear_82_295" x1="1.86046" y1="0.163137" x2="1.47658" y2="2.85911" gradientUnits="userSpaceOnUse">
<stop stop-color="#9E6100"/>
<stop offset="0.49" stop-color="#642701"/>
<stop offset="0.65" stop-color="#682A01"/>
<stop offset="0.81" stop-color="#753401"/>
<stop offset="0.98" stop-color="#8A4401"/>
<stop offset="1" stop-color="#8C4601"/>
</linearGradient>
</defs>
</svg>
