<svg width="4" height="3" viewBox="0 0 4 3" fill="none" xmlns="http://www.w3.org/2000/svg">
<path d="M3.30407 1.28652C3.29916 1.15693 3.25953 1.03104 3.18931 0.922005C3.11909 0.812972 3.02087 0.724803 2.90491 0.666727C2.83154 0.634345 1.36749 0.0822536 1.25624 0.0591021C0.994388 0.0353986 0.730923 0.0354025 0.469068 0.0591187C0.658442 0.0641502 0.540029 0.0399838 2.18085 0.651366C2.28125 0.688222 2.37176 0.747832 2.44526 0.825527C2.51876 0.903222 2.57326 0.99689 2.6045 1.09918C2.66768 1.33584 2.6457 1.58717 2.54238 1.80927L1.6459 0.796968L0.98123 0.809549L1.00444 0.834794L0.352054 0.846692C0.177957 1.41898 0.174868 1.3893 0.197425 1.47049C0.209389 1.51001 0.236023 1.54345 0.271856 1.56395C0.293353 1.56701 0.216916 1.55613 1.34139 1.95995L2.00401 1.94464C0.84745 1.50944 0.941643 1.54966 0.90068 1.51214C0.873185 1.48199 0.856385 1.44363 0.852866 1.40298C0.860349 1.35043 0.856265 1.37909 1.01366 0.838538L1.96033 1.90917L2.51547 1.89561C2.38805 2.31126 2.29712 2.69312 1.82625 2.7138L2.56019 2.69402C2.69259 2.68001 2.81515 2.61762 2.90439 2.51882C3.06536 2.32972 3.06873 2.25465 3.28168 1.58066C3.30634 1.48469 3.31392 1.38512 3.30407 1.28652Z" fill="url(#paint0_linear_130_417)"/>
<defs>
<linearGradient id="paint0_linear_130_417" x1="1.92506" y1="0.154335" x2="1.56487" y2="2.6839" gradientUnits="userSpaceOnUse">
<stop stop-color="#9E6100"/>
<stop offset="0.49" stop-color="#642701"/>
<stop offset="0.65" stop-color="#682A01"/>
<stop offset="0.81" stop-color="#753401"/>
<stop offset="0.98" stop-color="#8A4401"/>
<stop offset="1" stop-color="#8C4601"/>
</linearGradient>
</defs>
</svg>
