<svg width="3" height="4" viewBox="0 0 3 4" fill="none" xmlns="http://www.w3.org/2000/svg">
<path d="M0.466313 3.17901C0.543844 3.23725 0.898427 3.47441 0.998783 3.52303C1.09027 3.5638 1.19162 3.5772 1.29056 3.56158C1.3895 3.54597 1.4818 3.50202 1.55629 3.43506C1.61366 3.38633 1.66194 3.32783 1.6989 3.26226C2.49073 1.89026 2.41479 2.03179 2.4619 1.91191C2.61487 1.39515 2.22157 1.23401 1.82492 0.975846C1.76528 0.93743 1.69857 0.911305 1.6287 0.898999C1.55883 0.886693 1.48721 0.888455 1.41803 0.904182C1.34885 0.919908 1.28351 0.949283 1.22582 0.990585C1.16814 1.03189 1.11928 1.08429 1.08211 1.14471C1.04368 1.20361 0.343701 2.41274 0.30169 2.5119C0.25199 2.62573 0.241181 2.75276 0.27094 2.87335C0.300698 2.99394 0.369363 3.10137 0.466313 3.17901ZM1.47874 1.37284C1.55803 1.34336 1.55954 1.36288 1.92073 1.59884L0.916808 2.29052C1.42949 1.4023 1.41207 1.40411 1.47874 1.37284ZM1.83267 2.15702C1.28788 3.10504 1.32961 3.05305 1.27165 3.08342C1.25768 3.09053 1.24242 3.09475 1.22678 3.09584C1.21115 3.09693 1.19545 3.09487 1.18063 3.08977C1.1596 3.08677 1.19986 3.10538 0.814932 2.85532L1.83267 2.15702Z" fill="url(#paint0_linear_82_499)"/>
<defs>
<linearGradient id="paint0_linear_82_499" x1="0.345652" y1="2.0826" x2="2.40654" y2="2.37605" gradientUnits="userSpaceOnUse">
<stop stop-color="#FFE6AB"/>
<stop offset="1" stop-color="#FFD778"/>
</linearGradient>
</defs>
</svg>
