<svg width="44" height="16" viewBox="0 0 44 16" fill="none" xmlns="http://www.w3.org/2000/svg">
<path d="M8.70797 13.6455C11.2331 14.6186 13.8849 15.2236 16.5822 15.4418C19.268 15.6574 21.9709 15.4731 24.6025 14.8949C27.3289 14.2902 29.9537 13.2948 32.3954 11.9396C35.2857 10.2796 37.013 8.98291 39.5141 6.61683C41.1428 5.02319 42.6107 3.27311 43.8966 1.39191C43.2712 0.888568 43.2665 0.887889 43.2197 0.839799C43.0966 1.01967 43.2197 0.8398 42.474 1.88391C41.5955 3.06698 40.6439 4.19392 39.6247 5.25808C37.6651 7.30508 35.4451 9.08572 33.0216 10.5543C30.7053 11.9605 28.2029 13.0341 25.5877 13.7436C23.0282 14.4338 20.3802 14.7393 17.7307 14.65C15.1693 14.5602 12.6335 14.1081 10.1989 13.3071C6.74712 12.166 3.54224 10.3825 0.753146 8.05059L0.352532 8.72467C2.8478 10.8137 5.67092 12.4764 8.70797 13.6455Z" fill="#FFE082"/>
</svg>
