<svg width="3" height="3" viewBox="0 0 3 3" fill="none" xmlns="http://www.w3.org/2000/svg">
<path d="M1.70899 0.318894C1.7529 0.417406 1.90661 0.889866 1.94212 1.01722C1.97887 1.13715 1.97774 1.26549 1.93887 1.38475C1.9 1.504 1.8253 1.60837 1.72494 1.68361C1.61142 1.75756 1.74027 1.69652 0.305216 2.28176C0.216261 2.31933 0.118797 2.33214 0.0231541 2.31884C0.672965 2.41136 0.666362 2.42759 0.837871 2.38335C0.894337 2.3635 2.15759 1.85464 2.25309 1.80173C2.31844 1.76398 2.37552 1.71349 2.42096 1.65324C2.4664 1.593 2.49926 1.52423 2.51759 1.45104C2.55016 1.30718 2.54103 1.15702 2.49126 1.01817C2.29453 0.425869 2.30684 0.414749 2.1824 0.264005C1.99427 0.0784428 1.94561 0.103698 1.26996 -0.00323596C1.36416 0.00968814 1.45365 0.0459162 1.53032 0.102166C1.60698 0.158416 1.66839 0.23291 1.70899 0.318894Z" fill="url(#paint0_linear_82_316)"/>
<defs>
<linearGradient id="paint0_linear_82_316" x1="1.53763" y1="0.0305871" x2="1.18789" y2="2.48683" gradientUnits="userSpaceOnUse">
<stop stop-color="#9E6100"/>
<stop offset="0.49" stop-color="#642701"/>
<stop offset="0.65" stop-color="#682A01"/>
<stop offset="0.81" stop-color="#753401"/>
<stop offset="0.98" stop-color="#8A4401"/>
<stop offset="1" stop-color="#8C4601"/>
</linearGradient>
</defs>
</svg>
