<svg width="3" height="3" viewBox="0 0 3 3" fill="none" xmlns="http://www.w3.org/2000/svg">
<path d="M2.17598 1.09076C2.17708 1.02161 2.15494 0.954097 2.11311 0.899029C2.03357 0.807279 2.08033 0.838309 1.10814 0.66576C1.04678 0.660755 0.985836 0.679388 0.937772 0.71785C0.889708 0.756311 0.858163 0.811693 0.849595 0.872652C0.845853 0.898927 0.637021 2.36555 0.627838 2.43004C0.623617 2.48123 0.633325 2.53261 0.655933 2.57874C0.67854 2.62486 0.713205 2.66401 0.756253 2.69203C0.804374 2.7135 0.710869 2.68557 1.6933 2.87176C1.82945 2.89115 1.91983 2.78704 1.95354 2.65292C1.96274 2.62255 2.17464 1.1515 2.17598 1.09076Z" fill="url(#paint0_linear_130_491)"/>
<defs>
<linearGradient id="paint0_linear_130_491" x1="0.733947" y1="1.66773" x2="2.07158" y2="1.85819" gradientUnits="userSpaceOnUse">
<stop stop-color="#FFE6AB"/>
<stop offset="1" stop-color="#FFD778"/>
</linearGradient>
</defs>
</svg>
