<svg width="2" height="4" viewBox="0 0 2 4" fill="none" xmlns="http://www.w3.org/2000/svg">
<path d="M0.924921 3.11306C0.625459 3.19701 0.642582 3.1973 0.606832 3.19221C1.27139 3.34691 1.26599 3.35472 1.30624 3.34329L1.58107 3.26656L1.3022 1.08127C1.30138 1.06014 1.29428 1.03974 1.28181 1.02268C1.26933 1.00561 1.25204 0.992657 1.23216 0.985473C1.02051 0.917757 0.804229 0.865449 0.585023 0.82896C0.662846 0.87008 0.645444 0.91695 0.714469 1.4267L0.299869 1.32475C0.172215 1.36236 0.185431 1.35995 0.161999 1.35876C0.138568 1.35757 0.183029 1.36176 0.719907 1.49399L0.924921 3.11306Z" fill="url(#paint0_linear_82_235)"/>
<defs>
<linearGradient id="paint0_linear_82_235" x1="1.06839" y1="0.884914" x2="0.72883" y2="3.26966" gradientUnits="userSpaceOnUse">
<stop stop-color="#9E6100"/>
<stop offset="0.49" stop-color="#642701"/>
<stop offset="0.65" stop-color="#682A01"/>
<stop offset="0.81" stop-color="#753401"/>
<stop offset="0.98" stop-color="#8A4401"/>
<stop offset="1" stop-color="#8C4601"/>
</linearGradient>
</defs>
</svg>
