<svg width="36" height="30" viewBox="0 0 36 30" fill="none" xmlns="http://www.w3.org/2000/svg">
<path d="M31.1392 29.8449C28.4691 29.8224 25.8165 29.4115 23.2648 28.625C21.281 28.0147 19.3688 27.1921 17.5615 26.1715C13.7631 23.9614 11.0905 21.5897 8.35534 18.2415C4.32309 13.0779 1.81278 7.48743 0.545779 0.458313L0.478485 0.44873C0.733904 1.97439 1.0755 3.48436 1.50162 4.9714L1.08707 4.9746C1.2667 5.61167 1.47366 6.23761 1.58887 6.58872L2.00373 6.58343C2.60893 8.36631 3.33549 10.1057 4.17831 11.7893L3.74574 11.8135C3.86301 12.0448 4.19976 12.7085 4.52355 13.2824L4.9381 13.2642C5.83631 14.8798 6.85654 16.4245 7.98989 17.8848L7.57835 17.912C7.83054 18.2354 8.05297 18.5267 8.6063 19.1762L9.01814 19.1469C10.1991 20.5254 11.4927 21.8033 12.8855 22.9675L12.4769 23.0037C13.0305 23.4709 13.383 23.7377 13.7252 24.001L14.1317 23.9645C15.5537 25.0436 17.0703 25.992 18.663 26.7982L18.2599 26.8417C18.9077 27.1742 19.4774 27.4227 19.6808 27.516L20.0842 27.4705C21.706 28.1806 23.3894 28.7406 25.1134 29.1435L24.716 29.1921C25.769 29.4214 25.4226 29.3528 26.2512 29.5008L26.6486 29.4522C30.3162 30.1096 32.9926 29.7119 31.5742 29.894C31.7589 29.8924 31.5742 29.894 32.7166 29.8421C33.2423 29.7968 33.0548 29.8173 33.5457 29.7456C34.2864 29.6815 33.9226 29.7199 35.126 29.5715L34.1846 29.6885C33.1731 29.7963 32.1564 29.8485 31.1392 29.8449Z" fill="url(#paint0_linear_82_144)"/>
<defs>
<linearGradient id="paint0_linear_82_144" x1="19.5207" y1="3.16015" x2="15.9783" y2="28.038" gradientUnits="userSpaceOnUse">
<stop stop-color="#9E6100"/>
<stop offset="0.49" stop-color="#642701"/>
<stop offset="0.65" stop-color="#682A01"/>
<stop offset="0.81" stop-color="#753401"/>
<stop offset="0.98" stop-color="#8A4401"/>
<stop offset="1" stop-color="#8C4601"/>
</linearGradient>
</defs>
</svg>
