<svg width="3" height="3" viewBox="0 0 3 3" fill="none" xmlns="http://www.w3.org/2000/svg">
<path d="M2.15972 1.23629L2.5821 1.28356L2.61205 1.07327C2.63032 0.996848 2.62048 0.916401 2.58432 0.84664C2.54816 0.776879 2.48809 0.722468 2.41511 0.693352C2.37516 0.687662 2.45507 0.699041 1.93143 0.624481C1.4078 0.54992 1.63072 0.596681 1.09025 0.504705C0.779018 0.460388 1.01455 0.493925 1.35972 0.52591C0.602357 0.405195 0.897069 0.445013 0.0685149 0.342054C1.87226 0.633219 1.7662 0.594515 1.86057 0.700213C1.90921 0.765514 1.93623 0.844373 1.93788 0.925779C1.9268 1.00359 1.7648 2.14128 1.76181 2.16231C1.75187 2.22744 1.72237 2.28802 1.67722 2.336C1.63207 2.38398 1.5734 2.41711 1.50899 2.43099C1.47955 2.42679 1.33445 2.40613 2.17261 2.50188C2.24624 2.49222 2.31424 2.4573 2.365 2.4031C2.41576 2.34889 2.44613 2.27876 2.45095 2.20466L2.48479 1.96702L2.0621 1.92186C2.15103 1.29728 2.13217 1.42976 2.15972 1.23629Z" fill="url(#paint0_linear_82_186)"/>
<defs>
<linearGradient id="paint0_linear_82_186" x1="1.35371" y1="0.507888" x2="1.08721" y2="2.37951" gradientUnits="userSpaceOnUse">
<stop stop-color="#9E6100"/>
<stop offset="0.49" stop-color="#642701"/>
<stop offset="0.65" stop-color="#682A01"/>
<stop offset="0.81" stop-color="#753401"/>
<stop offset="0.98" stop-color="#8A4401"/>
<stop offset="1" stop-color="#8C4601"/>
</linearGradient>
</defs>
</svg>
