<svg width="4" height="4" viewBox="0 0 4 4" fill="none" xmlns="http://www.w3.org/2000/svg">
<path d="M2.53179 2.6947C1.45431 0.591628 1.54343 0.735923 1.4912 0.691931C1.46298 0.669065 1.42709 0.65785 1.39087 0.660584C0.539949 0.783126 0.673006 0.755768 0.725556 0.76325C0.823838 0.791867 0.763412 0.7199 1.85285 2.85879C2.16436 2.81054 2.12819 2.80782 2.15106 2.83545C2.17393 2.86308 2.15106 2.83546 2.34333 3.19671C2.15604 3.32533 1.95895 3.43905 1.75387 3.53682L2.47412 3.42492C2.50482 3.41467 2.51096 3.4058 3.05061 3.09027C2.79926 2.61337 2.86991 2.6478 2.53179 2.6947Z" fill="url(#paint0_linear_130_377)"/>
<defs>
<linearGradient id="paint0_linear_130_377" x1="2.03102" y1="0.751735" x2="1.63649" y2="3.52255" gradientUnits="userSpaceOnUse">
<stop stop-color="#9E6100"/>
<stop offset="0.49" stop-color="#642701"/>
<stop offset="0.65" stop-color="#682A01"/>
<stop offset="0.81" stop-color="#753401"/>
<stop offset="0.98" stop-color="#8A4401"/>
<stop offset="1" stop-color="#8C4601"/>
</linearGradient>
</defs>
</svg>
