<svg width="38" height="23" viewBox="0 0 38 23" fill="none" xmlns="http://www.w3.org/2000/svg">
<path d="M0.0139677 22.0264L0.55652 22.0842L1.34204 21.4454C5.10682 12.9424 10.9295 6.72597 18.5968 2.95822C22.7413 1.04794 26.3465 0.186775 30.8924 0.0785791C32.7246 0.0680552 34.5536 0.233815 36.354 0.573567C37.3225 0.772391 37.8832 0.891216 36.9133 0.684887C35.5775 0.385826 34.2225 0.179859 32.8581 0.0684684C28.485 -0.215466 24.766 0.246871 20.2376 1.92702C16.1032 3.57798 13.0062 5.57651 9.63445 8.68375C5.85993 12.3259 3.08665 16.2275 0.803922 21.3907L0.0139677 22.0264Z" fill="url(#paint0_linear_130_227)"/>
<defs>
<linearGradient id="paint0_linear_130_227" x1="20.5856" y1="-1.73263" x2="16.861" y2="24.4253" gradientUnits="userSpaceOnUse">
<stop stop-color="#9E6100"/>
<stop offset="0.49" stop-color="#642701"/>
<stop offset="0.65" stop-color="#682A01"/>
<stop offset="0.81" stop-color="#753401"/>
<stop offset="0.98" stop-color="#8A4401"/>
<stop offset="1" stop-color="#8C4601"/>
</linearGradient>
</defs>
</svg>
