<svg width="2" height="3" viewBox="0 0 2 3" fill="none" xmlns="http://www.w3.org/2000/svg">
<path d="M0.553585 0.95061C0.560428 0.96191 0.569696 0.971549 0.580718 0.978831C0.59174 0.986113 0.604241 0.990858 0.61732 0.99272C0.630399 0.994583 0.643729 0.993516 0.656346 0.9896C0.668962 0.985683 0.680552 0.979014 0.690277 0.970073L0.774959 0.902746L1.502 2.36657C1.50704 2.37871 1.51471 2.38959 1.52445 2.39842C1.53418 2.40725 1.54575 2.41383 1.55833 2.41767C1.5709 2.42151 1.58417 2.42252 1.59718 2.42064C1.61019 2.41875 1.62263 2.41401 1.63359 2.40676C1.64411 2.40826 1.87383 2.22641 1.87383 2.22641L0.971199 0.413602C0.9662 0.401983 0.958787 0.391559 0.949453 0.383023C0.940119 0.374487 0.929076 0.368033 0.917058 0.36409C0.905039 0.360147 0.89232 0.358804 0.879743 0.360152C0.867166 0.361499 0.85502 0.365505 0.844109 0.371904C0.827592 0.382426 0.875639 0.346355 0.425801 0.702837L0.553585 0.95061Z" fill="url(#paint0_linear_82_436)"/>
<defs>
<linearGradient id="paint0_linear_82_436" x1="0.346449" y1="1.26012" x2="1.97623" y2="1.49218" gradientUnits="userSpaceOnUse">
<stop stop-color="#FFE6AB"/>
<stop offset="1" stop-color="#FFD778"/>
</linearGradient>
</defs>
</svg>
