<svg width="3" height="3" viewBox="0 0 3 3" fill="none" xmlns="http://www.w3.org/2000/svg">
<path d="M1.31032 1.41612C1.3772 1.42564 1.40106 1.37786 1.44471 1.32802L2.17772 2.25612C1.94002 2.5391 1.94378 2.54694 1.8909 2.55891C1.83801 2.57087 1.76191 2.54054 2.24749 2.62187C2.68461 2.68411 2.66756 2.70118 2.72794 2.67078C2.81567 2.58285 2.89672 2.48849 2.97041 2.38849C1.53889 0.58107 1.62696 0.664284 1.56041 0.652372C0.713802 0.505015 0.776248 0.511469 0.815494 0.526806C0.85474 0.542142 0.790563 0.479389 1.40783 1.26184L0.729792 1.1458C0.664997 1.22431 0.628519 1.29223 0.553791 1.28646L1.31032 1.41612Z" fill="url(#paint0_linear_130_290)"/>
<defs>
<linearGradient id="paint0_linear_130_290" x1="1.90539" y1="0.677123" x2="1.63976" y2="2.54265" gradientUnits="userSpaceOnUse">
<stop stop-color="#9E6100"/>
<stop offset="0.49" stop-color="#642701"/>
<stop offset="0.65" stop-color="#682A01"/>
<stop offset="0.81" stop-color="#753401"/>
<stop offset="0.98" stop-color="#8A4401"/>
<stop offset="1" stop-color="#8C4601"/>
</linearGradient>
</defs>
</svg>
