<svg width="16" height="41" viewBox="0 0 16 41" fill="none" xmlns="http://www.w3.org/2000/svg">
<path d="M13.0183 26.6796C14.1065 24.1959 14.9012 21.5937 15.3861 18.9257C15.8837 16.2092 16.0693 13.4447 15.9393 10.6861C15.7129 7.04709 15.178 3.97784 13.8025 0.256792L13.1427 0.626289C13.8631 2.56611 14.404 4.56791 14.7586 6.60654C15.2141 9.2663 15.3555 11.9704 15.1799 14.6631C15.0066 17.4176 14.5064 20.1416 13.6897 22.7779C12.9196 25.2673 11.8499 27.654 10.5042 29.8854C9.23832 31.9855 7.71531 33.9194 5.97045 35.6423C4.16372 37.3611 2.4812 38.72 0.0401381 40.0416C0.237116 40.5117 0.161633 40.3336 0.344775 40.7652C2.82729 39.4387 4.66596 37.9475 6.53515 36.1668C8.34407 34.3737 9.91738 32.3576 11.2172 30.1671C11.8866 29.0416 12.4881 27.877 13.0183 26.6796Z" fill="#FFE082"/>
</svg>
