<svg width="3" height="4" viewBox="0 0 3 4" fill="none" xmlns="http://www.w3.org/2000/svg">
<path d="M0.536295 1.9036C0.539929 1.96848 0.519178 1.91833 1.00585 2.61413L1.34893 2.67586L1.37394 2.83176L1.80715 2.90846C1.52461 3.20509 1.40603 3.37487 1.1642 3.35545C1.92007 3.48668 1.83204 3.472 1.8723 3.47559C1.98507 3.47249 2.09283 3.42832 2.17535 3.35138C2.2402 3.28767 2.17535 3.35138 2.52785 2.98533C2.64435 2.86071 2.71108 2.69768 2.71539 2.52714C2.70896 2.25588 2.68163 2.28202 1.98424 1.273C1.95746 1.2291 1.92211 1.19105 1.88028 1.16113C1.83846 1.13121 1.79103 1.11004 1.74084 1.09887C0.824836 0.931969 1.06697 0.964302 1.15832 1.01593C1.24967 1.06756 1.25598 1.08348 1.76069 1.81833L1.40739 1.753L1.51578 1.6397L0.836218 1.51504C0.572895 1.79724 0.536852 1.80927 0.536295 1.9036ZM1.99838 2.62029L1.91159 2.03935C1.97328 2.1213 2.01353 2.21736 2.02869 2.31881C2.04384 2.42026 2.03342 2.52389 1.99838 2.62029ZM1.22966 1.9916C1.22817 1.97587 1.23042 1.96002 1.23625 1.94533L1.26307 2.13367C1.24467 2.11509 1.23105 2.09231 1.2234 2.0673C1.21575 2.0423 1.21429 2.0158 1.21915 1.9901L1.22966 1.9916Z" fill="url(#paint0_linear_82_201)"/>
<defs>
<linearGradient id="paint0_linear_82_201" x1="1.78769" y1="1.08624" x2="1.45412" y2="3.42892" gradientUnits="userSpaceOnUse">
<stop stop-color="#9E6100"/>
<stop offset="0.49" stop-color="#642701"/>
<stop offset="0.65" stop-color="#682A01"/>
<stop offset="0.81" stop-color="#753401"/>
<stop offset="0.98" stop-color="#8A4401"/>
<stop offset="1" stop-color="#8C4601"/>
</linearGradient>
</defs>
</svg>
