<svg width="3" height="4" viewBox="0 0 3 4" fill="none" xmlns="http://www.w3.org/2000/svg">
<path d="M2.85723 1.56808C2.87655 1.48072 2.86452 1.38934 2.82325 1.30995C2.78198 1.23055 2.7141 1.16821 2.63149 1.13383C2.60282 1.12975 0.74956 0.812245 0.683367 0.815005C0.619054 0.824833 0.55883 0.852642 0.509645 0.895228C0.46046 0.937814 0.424318 0.993439 0.40539 1.05568C0.378134 1.14441 0.409472 1.02702 0.208462 2.4387C0.188151 2.52515 0.199263 2.616 0.239809 2.695C0.280355 2.774 0.347689 2.836 0.429763 2.86989C0.456038 2.87364 2.30555 3.20035 2.37891 3.19861C2.42053 3.19354 2.46072 3.18024 2.49715 3.15949C2.53357 3.13873 2.56551 3.11094 2.59109 3.07773C2.68179 2.93711 2.65587 2.9651 2.85723 1.56808Z" fill="url(#paint0_linear_130_510)"/>
<defs>
<linearGradient id="paint0_linear_130_510" x1="0.283248" y1="1.8279" x2="2.76982" y2="2.18196" gradientUnits="userSpaceOnUse">
<stop stop-color="#FFE6AB"/>
<stop offset="1" stop-color="#FFD778"/>
</linearGradient>
</defs>
</svg>
