<svg width="3" height="3" viewBox="0 0 3 3" fill="none" xmlns="http://www.w3.org/2000/svg">
<path d="M2.1008 1.386C2.09937 1.26357 2.06362 1.144 1.9976 1.04088C1.92305 0.93157 1.9507 0.963402 1.55641 0.598294C1.50625 0.551196 1.44735 0.514378 1.38303 0.489926C1.24933 0.449433 1.28839 0.461431 0.518494 0.53418C0.590012 0.524667 0.662768 0.535027 0.728789 0.564123C0.82464 0.614247 0.799399 0.595633 1.13659 0.909698C0.942535 0.920337 0.749139 0.940781 0.557145 0.970948C0.513596 0.990494 0.550224 0.944214 0.0786571 1.73959L0.764442 1.66989L1.18768 0.957739C1.29303 1.04901 1.36481 1.17291 1.39161 1.3097C1.4184 1.44649 1.39866 1.58831 1.33552 1.71258L0.843191 1.76477L-0.0058253 2.2425L0.280278 2.50853C0.325053 2.54065 0.291704 2.53376 0.886171 2.4725C0.680853 2.81445 0.695866 2.79943 0.615988 2.86315C0.556629 2.9166 0.482098 2.95023 0.402747 2.95937C1.15672 2.87792 1.07802 2.88817 1.11977 2.88124C1.1773 2.86894 1.23151 2.8444 1.27871 2.80929C1.32592 2.77417 1.36501 2.72931 1.39334 2.67774C2.05524 1.61552 2.08949 1.61611 2.1008 1.386ZM1.2677 1.85741L0.937813 2.4112L0.691379 2.18301L1.2677 1.85741Z" fill="url(#paint0_linear_82_221)"/>
<defs>
<linearGradient id="paint0_linear_82_221" x1="1.24754" y1="0.46205" x2="0.879824" y2="3.04447" gradientUnits="userSpaceOnUse">
<stop stop-color="#9E6100"/>
<stop offset="0.49" stop-color="#642701"/>
<stop offset="0.65" stop-color="#682A01"/>
<stop offset="0.81" stop-color="#753401"/>
<stop offset="0.98" stop-color="#8A4401"/>
<stop offset="1" stop-color="#8C4601"/>
</linearGradient>
</defs>
</svg>
