<svg width="5" height="5" viewBox="0 0 5 5" fill="none" xmlns="http://www.w3.org/2000/svg">
<path d="M4.23902 1.09675C4.18282 1.05442 4.21378 1.07813 3.06708 0.2862C3.00777 0.244896 2.93845 0.22028 2.86637 0.214923C2.79428 0.209566 2.72209 0.223664 2.65732 0.255745C2.4558 0.360077 2.56058 0.241972 0.998195 2.86669C0.933403 2.97106 0.905856 3.09428 0.920039 3.2163C0.934223 3.33832 0.989302 3.45194 1.07631 3.53865C1.10335 3.55967 2.2128 4.35703 2.30715 4.40265C2.38879 4.43607 2.47881 4.44324 2.56471 4.42318C2.65062 4.40311 2.72814 4.3568 2.78653 4.29068C2.85799 4.21074 2.71361 4.44121 4.30301 1.77743C4.37183 1.67377 4.40301 1.54965 4.39137 1.42577C4.37972 1.3019 4.32595 1.18576 4.23902 1.09675Z" fill="url(#paint0_linear_82_497)"/>
<defs>
<linearGradient id="paint0_linear_82_497" x1="1.07835" y1="2.09282" x2="4.25169" y2="2.54468" gradientUnits="userSpaceOnUse">
<stop stop-color="#FFE6AB"/>
<stop offset="1" stop-color="#FFD778"/>
</linearGradient>
</defs>
</svg>
