<svg width="3" height="3" viewBox="0 0 3 3" fill="none" xmlns="http://www.w3.org/2000/svg">
<path d="M2.52297 1.94507C2.61745 1.8773 2.68844 1.78174 2.72603 1.67171C2.76362 1.56168 2.76594 1.44266 2.73267 1.33125C2.71792 1.26907 2.58915 0.832349 2.54253 0.707704C2.51173 0.628883 2.45809 0.561052 2.38849 0.512915C2.31889 0.464777 2.2365 0.438527 2.15188 0.437521C2.04254 0.45199 2.11824 0.432732 1.1106 0.894309C1.00693 0.945177 0.924008 1.03027 0.875835 1.13522C0.827663 1.24017 0.817199 1.35853 0.846211 1.4703C0.895371 1.68553 0.955323 1.89816 1.02584 2.10737C1.12208 2.33563 1.28225 2.47644 1.52104 2.41175C1.59072 2.37446 2.49534 1.9583 2.52297 1.94507ZM1.37275 1.97653C1.31535 1.94261 1.32225 1.92429 1.20552 1.52361L2.09327 1.67791C1.39048 2.00266 1.42533 1.99904 1.37305 1.97443L1.37275 1.97653ZM1.48653 1.17741C2.20885 0.851144 2.16049 0.859279 2.20796 0.872475C2.22202 0.878573 2.23472 0.887427 2.2453 0.898515C2.25588 0.909604 2.26413 0.922703 2.26957 0.937035C2.26688 0.955961 2.26957 0.937034 2.38661 1.33561L1.48653 1.17741Z" fill="url(#paint0_linear_82_409)"/>
<defs>
<linearGradient id="paint0_linear_82_409" x1="0.844026" y1="1.28976" x2="2.74719" y2="1.56075" gradientUnits="userSpaceOnUse">
<stop stop-color="#FFE6AB"/>
<stop offset="1" stop-color="#FFD778"/>
</linearGradient>
</defs>
</svg>
