<svg width="6" height="6" viewBox="0 0 6 6" fill="none" xmlns="http://www.w3.org/2000/svg">
<path d="M0.652494 0.0470149C0.710185 0.0788311 4.58039 2.34209 4.66123 2.40724C4.7484 2.48828 4.81197 2.59143 4.84519 2.70573C4.87841 2.82002 4.88003 2.94118 4.84988 3.05632C4.80819 3.21345 4.86641 3.07584 3.95339 4.8318C3.89658 4.9513 3.80219 5.04889 3.68466 5.10965C3.56712 5.17041 3.43292 5.19099 3.30257 5.16825C3.98996 5.31333 3.90013 5.29625 3.97584 5.30703C4.12601 5.32052 4.2754 5.27389 4.39123 5.17736C4.53387 5.04963 4.52965 5.03401 4.76707 4.5872L4.39664 4.50656C4.64455 4.03122 4.56141 4.19317 4.76791 3.79775L5.13624 3.87809C5.43367 3.29607 5.38955 3.39492 5.43097 3.315C5.4948 3.17297 5.50641 3.01296 5.46374 2.8632C5.42108 2.71345 5.32688 2.58358 5.19779 2.49651C0.995546 0.0336407 1.30834 0.202624 1.16954 0.167841C0.306693 -0.040844 0.562659 0.0149131 0.652494 0.0470149Z" fill="url(#paint0_linear_82_261)"/>
<defs>
<linearGradient id="paint0_linear_82_261" x1="3.17843" y1="0.389519" x2="2.50678" y2="5.10643" gradientUnits="userSpaceOnUse">
<stop stop-color="#9E6100"/>
<stop offset="0.49" stop-color="#642701"/>
<stop offset="0.65" stop-color="#682A01"/>
<stop offset="0.81" stop-color="#753401"/>
<stop offset="0.98" stop-color="#8A4401"/>
<stop offset="1" stop-color="#8C4601"/>
</linearGradient>
</defs>
</svg>
