<svg width="5" height="8" viewBox="0 0 5 8" fill="none" xmlns="http://www.w3.org/2000/svg">
<path d="M3.38818 2.54462C3.35607 2.61943 1.10005 7.20729 1.03731 7.30134C0.991984 7.36594 0.934252 7.42087 0.867483 7.46293C0.800714 7.505 0.726244 7.53335 0.648407 7.54635C0.578717 7.55359 0.442635 7.55996 1.19362 7.51456C1.28914 7.50867 1.3818 7.47966 1.46363 7.43001C1.54545 7.38037 1.61398 7.31157 1.66332 7.22956C1.68913 7.18389 3.95867 2.60654 4.00517 2.46082C4.05094 2.29607 4.03801 2.12053 3.96859 1.96427C3.84381 1.71049 3.79124 1.70301 3.18186 1.3416L2.82228 1.35048L2.16422 0.954251L2.52199 0.94297C1.94866 0.599573 2.13434 0.651759 1.24696 0.675596C1.3683 0.667004 1.48932 0.69623 1.59337 0.759251C3.20937 1.73602 3.17871 1.68016 3.31367 1.86244C3.37998 1.9618 3.42137 2.07567 3.43434 2.19441C3.44731 2.31316 3.43148 2.43329 3.38818 2.54462Z" fill="url(#paint0_linear_82_304)"/>
<defs>
<linearGradient id="paint0_linear_82_304" x1="2.7391" y1="0.774346" x2="1.75065" y2="7.71617" gradientUnits="userSpaceOnUse">
<stop stop-color="#9E6100"/>
<stop offset="0.49" stop-color="#642701"/>
<stop offset="0.65" stop-color="#682A01"/>
<stop offset="0.81" stop-color="#753401"/>
<stop offset="0.98" stop-color="#8A4401"/>
<stop offset="1" stop-color="#8C4601"/>
</linearGradient>
</defs>
</svg>
