<svg width="29" height="71" viewBox="0 0 29 71" fill="none" xmlns="http://www.w3.org/2000/svg">
<path d="M9.18214 67.7618C11.6729 66.5873 13.99 65.0754 16.0681 63.2686C18.2338 61.3925 20.147 59.2434 21.76 56.8751C23.4307 54.4191 24.7967 51.7689 25.8277 48.9831C26.904 46.0705 27.6393 43.043 28.0189 39.9612C28.4058 36.8746 28.4373 33.7538 28.1126 30.6601C27.7951 27.6433 27.1242 24.6743 26.1139 21.8141C25.1251 19.0118 23.7945 16.3422 22.1522 13.8657C20.5901 11.5017 18.7259 9.35186 16.6069 7.47083C14.6168 5.70744 12.3886 4.23261 9.98784 3.08963C7.79488 2.04605 5.47036 1.30514 3.07799 0.887207C5.6169 1.37324 8.07161 2.22601 10.365 3.41873C12.7408 4.65868 14.9319 6.22403 16.8751 8.06953C19.9385 11.0646 22.155 14.0172 24.264 18.4263L24.6796 18.4855C24.9818 19.1183 25.4307 20.1595 25.7942 21.1325L25.3833 21.074C26.5373 24.1457 27.2937 27.3525 27.6339 30.6163C28.2825 36.832 27.4998 43.1138 25.3456 48.9803C24.313 51.7726 22.9445 54.4289 21.2704 56.8907C19.656 59.264 17.7404 61.4177 15.5717 63.2979C10.8136 67.2752 9.2368 67.1554 10.5351 67.0405C9.32848 67.6754 9.08081 67.7717 8.22966 68.1526C7.73561 68.1992 7.80282 68.1893 7.76905 68.204C5.39896 69.2174 2.89257 69.8762 0.330517 70.1594C3.97722 69.8111 6.48133 68.9637 9.18214 67.7618Z" fill="url(#paint0_linear_130_239)"/>
<defs>
<linearGradient id="paint0_linear_130_239" x1="18.0284" y1="3.01601" x2="8.30514" y2="71.3022" gradientUnits="userSpaceOnUse">
<stop stop-color="#9E6100"/>
<stop offset="0.49" stop-color="#642701"/>
<stop offset="0.65" stop-color="#682A01"/>
<stop offset="0.81" stop-color="#753401"/>
<stop offset="0.98" stop-color="#8A4401"/>
<stop offset="1" stop-color="#8C4601"/>
</linearGradient>
</defs>
</svg>
