<svg width="3" height="3" viewBox="0 0 3 3" fill="none" xmlns="http://www.w3.org/2000/svg">
<path d="M2.19152 1.03694C0.707103 0.733312 0.73653 0.707464 0.509168 0.797388C0.388444 0.857465 0.293298 0.958886 0.24104 1.08319C0.179525 1.22892 0.195125 1.17964 0.082474 1.83517C0.0699496 1.9131 0.0687687 1.99242 0.0789738 2.07069C0.0918783 2.18869 0.138146 2.30056 0.212354 2.39321C0.286563 2.48586 0.385642 2.55544 0.497976 2.59379C0.590812 2.61989 1.87034 2.88576 1.96708 2.89953C2.07485 2.91339 2.18422 2.89201 2.27884 2.83859C2.37346 2.78516 2.44825 2.70254 2.49204 2.6031C2.56526 2.43544 2.55147 2.4721 2.66321 1.80786C2.68311 1.72626 2.68668 1.64153 2.67371 1.55855C2.66075 1.47556 2.63151 1.39596 2.58767 1.32432C2.54384 1.25267 2.48628 1.1904 2.41829 1.14108C2.3503 1.09177 2.27324 1.05637 2.19152 1.03694ZM0.559911 2.05334C0.537831 2.02372 0.527057 1.98718 0.529525 1.95032C0.532819 1.92719 0.523835 1.99028 0.611911 1.46213L1.60062 2.30881C0.554818 2.08909 0.609204 2.114 0.559911 2.05334ZM1.15678 1.34232C2.18666 1.55333 2.12957 1.53233 2.17675 1.57767C2.22394 1.62301 2.22155 1.66987 2.13677 2.17489L1.15678 1.34232Z" fill="url(#paint0_linear_82_551)"/>
<defs>
<linearGradient id="paint0_linear_82_551" x1="0.111227" y1="1.64831" x2="2.63687" y2="2.00793" gradientUnits="userSpaceOnUse">
<stop stop-color="#FFE6AB"/>
<stop offset="1" stop-color="#FFD778"/>
</linearGradient>
</defs>
</svg>
