<svg width="4" height="3" viewBox="0 0 4 3" fill="none" xmlns="http://www.w3.org/2000/svg">
<path d="M3.14033 1.24102C3.13956 1.15946 3.11245 1.08033 3.06302 1.01545C2.96804 0.898937 3.05368 0.945457 1.29165 0.572264C1.13183 0.549506 1.02103 0.66461 0.981453 0.822038C0.978159 0.845171 0.818858 1.96394 0.807479 2.04385C0.805935 2.10348 0.819452 2.16254 0.84678 2.21556C0.874108 2.26858 0.914365 2.31384 0.963826 2.34718C1.01761 2.3763 0.862884 2.33281 2.65225 2.72492C2.81628 2.74828 2.92468 2.63498 2.96456 2.47544C2.97326 2.4445 3.13946 1.32242 3.14033 1.24102Z" fill="url(#paint0_linear_82_405)"/>
<defs>
<linearGradient id="paint0_linear_82_405" x1="0.884727" y1="1.48627" x2="3.06759" y2="1.79709" gradientUnits="userSpaceOnUse">
<stop stop-color="#FFE6AB"/>
<stop offset="1" stop-color="#FFD778"/>
</linearGradient>
</defs>
</svg>
