<svg width="3" height="4" viewBox="0 0 3 4" fill="none" xmlns="http://www.w3.org/2000/svg">
<path d="M2.03483 0.719341C2.03171 0.604354 1.99997 0.604703 1.69791 0.398409L0.925105 0.485778C1.2026 0.676388 1.23842 0.68149 1.25894 0.777019C1.27946 0.872549 1.31079 0.738098 0.48151 2.6769C0.599264 2.75703 0.615645 2.76179 0.640923 2.82388C0.666201 2.88597 0.622896 2.95048 0.50975 3.24875L1.28391 3.15183C1.43389 2.80032 1.42162 2.83513 1.42364 2.78668C1.42052 2.67169 1.3509 2.64715 1.25533 2.58236C2.08529 0.638786 2.03554 0.782806 2.03483 0.719341Z" fill="url(#paint0_linear_130_318)"/>
<defs>
<linearGradient id="paint0_linear_130_318" x1="1.44949" y1="0.363037" x2="1.02876" y2="3.31778" gradientUnits="userSpaceOnUse">
<stop stop-color="#9E6100"/>
<stop offset="0.49" stop-color="#642701"/>
<stop offset="0.65" stop-color="#682A01"/>
<stop offset="0.81" stop-color="#753401"/>
<stop offset="0.98" stop-color="#8A4401"/>
<stop offset="1" stop-color="#8C4601"/>
</linearGradient>
</defs>
</svg>
