<svg width="2" height="3" viewBox="0 0 2 3" fill="none" xmlns="http://www.w3.org/2000/svg">
<path d="M1.13249 2.51973C1.02734 2.5734 0.917484 2.61731 0.804308 2.65091C0.763701 2.64513 0.613218 2.6237 1.51171 2.81744C1.55949 2.82424 1.54755 2.82254 1.87402 2.68625C1.30885 0.168708 1.3471 0.242392 1.27167 0.207281C1.24779 0.20388 0.437321 0.00805485 0.510349 0.0257644C0.583376 0.043474 0.581351 0.0919274 0.72461 0.728903L0.241061 0.616183C0.10392 0.672204 0.116545 0.669128 0.0844727 0.671872C0.0524001 0.674617 -0.00151871 0.659628 0.747175 0.827161L1.13249 2.51973Z" fill="url(#paint0_linear_130_320)"/>
<defs>
<linearGradient id="paint0_linear_130_320" x1="1.19828" y1="0.123719" x2="0.828567" y2="2.72016" gradientUnits="userSpaceOnUse">
<stop stop-color="#9E6100"/>
<stop offset="0.49" stop-color="#642701"/>
<stop offset="0.65" stop-color="#682A01"/>
<stop offset="0.81" stop-color="#753401"/>
<stop offset="0.98" stop-color="#8A4401"/>
<stop offset="1" stop-color="#8C4601"/>
</linearGradient>
</defs>
</svg>
