<svg width="4" height="8" viewBox="0 0 4 8" fill="none" xmlns="http://www.w3.org/2000/svg">
<path d="M2.21602 7.185C2.22381 7.13033 3.54265 2.05715 3.56031 1.90303C3.57241 1.73258 3.52439 1.56327 3.42461 1.42455C3.24425 1.18432 3.16196 1.20478 2.50819 1.00441C2.0651 0.997107 2.30934 1.04476 1.43565 0.776598L1.79073 0.784247C1.37972 0.657065 1.46204 0.68166 1.37942 0.659168C1.2968 0.636676 0.443957 0.628954 0.725739 0.639039C0.76689 0.64056 0.807773 0.646381 0.847713 0.656407C2.59299 1.19243 2.47401 1.15403 2.56565 1.18853C2.71727 1.25934 2.83908 1.38131 2.90969 1.53302C2.98031 1.68473 2.9952 1.85647 2.95175 2.01806C1.53218 7.55752 1.64944 7.1408 1.58192 7.28352C1.53537 7.37275 1.46768 7.44921 1.38476 7.50623C1.30183 7.56324 1.2062 7.59907 1.10623 7.61058L1.64185 7.60102C1.7686 7.59867 1.89158 7.55753 1.99424 7.48315C2.0969 7.40877 2.1743 7.30471 2.21602 7.185Z" fill="url(#paint0_linear_82_305)"/>
<defs>
<linearGradient id="paint0_linear_82_305" x1="2.18485" y1="0.773854" x2="1.20658" y2="7.64418" gradientUnits="userSpaceOnUse">
<stop stop-color="#9E6100"/>
<stop offset="0.49" stop-color="#642701"/>
<stop offset="0.65" stop-color="#682A01"/>
<stop offset="0.81" stop-color="#753401"/>
<stop offset="0.98" stop-color="#8A4401"/>
<stop offset="1" stop-color="#8C4601"/>
</linearGradient>
</defs>
</svg>
