<svg width="3" height="3" viewBox="0 0 3 3" fill="none" xmlns="http://www.w3.org/2000/svg">
<path d="M0.575814 0.846278C0.572819 0.867307 0.569166 0.757362 0.63752 1.76908L0.977612 1.85184L0.845303 2.22349L1.49875 2.38091L1.70306 1.80494C1.71183 1.93922 1.71061 1.90257 1.71335 1.97376C1.71204 2.11354 1.6648 2.249 1.57892 2.35929C1.49304 2.46958 1.37328 2.54857 1.23809 2.5841C1.05052 2.64137 0.856188 2.67358 0.660164 2.67989C0.632826 2.676 0.385572 2.61933 1.26134 2.82771C1.29376 2.83553 1.32686 2.84025 1.36018 2.84179C1.48123 2.83542 1.90235 2.7409 1.9402 2.73127C2.07247 2.68413 2.18546 2.59462 2.26162 2.47665C2.33778 2.35868 2.37284 2.21886 2.36136 2.07891C2.26578 0.65565 2.29462 0.649028 2.16086 0.473355C2.04725 0.352045 2.05057 0.373972 1.32562 0.19136C1.41238 0.214732 1.48723 0.269794 1.53537 0.34567C1.60675 0.481871 1.63984 0.634892 1.6311 0.788418L1.03654 0.639391L0.676687 0.71045C0.648061 0.720154 0.62307 0.738352 0.605048 0.762618C0.587026 0.786885 0.576829 0.816068 0.575814 0.846278ZM1.28148 0.893118C1.32202 0.864561 1.31001 0.873578 1.63501 0.80614L1.66011 1.17232L1.25603 1.07187L1.23533 1.12685C1.22837 1.02502 1.20971 0.96014 1.28148 0.893118Z" fill="url(#paint0_linear_82_237)"/>
<defs>
<linearGradient id="paint0_linear_82_237" x1="1.65007" y1="0.233267" x2="1.28026" y2="2.83041" gradientUnits="userSpaceOnUse">
<stop stop-color="#9E6100"/>
<stop offset="0.49" stop-color="#642701"/>
<stop offset="0.65" stop-color="#682A01"/>
<stop offset="0.81" stop-color="#753401"/>
<stop offset="0.98" stop-color="#8A4401"/>
<stop offset="1" stop-color="#8C4601"/>
</linearGradient>
</defs>
</svg>
