<svg width="2" height="3" viewBox="0 0 2 3" fill="none" xmlns="http://www.w3.org/2000/svg">
<path d="M1.30697 2.1464C1.29893 2.11655 1.28065 2.09048 1.25532 2.07275C1.22999 2.05502 1.19924 2.04677 1.16844 2.04944L1.0531 2.07592C0.469773 -0.427358 0.637417 0.278812 0.604014 0.151758C0.595586 0.120887 0.576208 0.0941431 0.549498 0.0765199C0.522788 0.0588967 0.490576 0.0515993 0.458879 0.0559949L0.168122 0.124021L0.718034 2.48522C0.722551 2.51607 0.737865 2.54432 0.761253 2.56493C0.784641 2.58555 0.814584 2.5972 0.845755 2.59781C1.02709 2.5675 1.20675 2.52792 1.38402 2.47921L1.30697 2.1464Z" fill="url(#paint0_linear_82_493)"/>
<defs>
<linearGradient id="paint0_linear_82_493" x1="0.0103177" y1="1.23227" x2="1.53075" y2="1.44877" gradientUnits="userSpaceOnUse">
<stop stop-color="#FFE6AB"/>
<stop offset="1" stop-color="#FFD778"/>
</linearGradient>
</defs>
</svg>
