<svg width="28" height="21" viewBox="0 0 28 21" fill="none" xmlns="http://www.w3.org/2000/svg">
<path d="M7.45593 10.3329C9.6523 7.35433 11.8671 5.30097 14.9799 3.4656C16.435 2.6355 17.9858 1.98594 19.598 1.5313C22.0821 0.827724 24.6832 0.636034 27.2436 0.967857C27.9691 1.07116 28.131 1.09422 27.4304 0.98159C26.1387 0.771896 24.8289 0.695388 23.5215 0.75327C21.8283 0.828218 20.1523 1.1248 18.5362 1.63543C17.079 2.09742 15.6774 2.71885 14.3566 3.48841L14.7562 3.54531C14.1309 3.90565 13.5244 4.29766 12.939 4.71981L12.5394 4.66291C11.8023 5.19424 11.0966 5.76789 10.426 6.38098C6.78459 9.80391 4.25706 13.8575 2.73835 19.3699L0.767234 20.9323L1.24549 20.964C2.93764 19.6279 2.02865 20.346 3.21391 19.4055C4.06417 16.1484 5.50173 13.0738 7.45593 10.3329Z" fill="url(#paint0_linear_82_141)"/>
<defs>
<linearGradient id="paint0_linear_82_141" x1="15.9787" y1="-0.640445" x2="12.6642" y2="22.6371" gradientUnits="userSpaceOnUse">
<stop stop-color="#9E6100"/>
<stop offset="0.49" stop-color="#642701"/>
<stop offset="0.65" stop-color="#682A01"/>
<stop offset="0.81" stop-color="#753401"/>
<stop offset="0.98" stop-color="#8A4401"/>
<stop offset="1" stop-color="#8C4601"/>
</linearGradient>
</defs>
</svg>
