<svg width="5" height="6" viewBox="0 0 5 6" fill="none" xmlns="http://www.w3.org/2000/svg">
<path d="M3.93926 4.47384C4.03754 4.40023 4.10777 4.29531 4.13836 4.17639C4.16895 4.05747 4.15805 3.93168 4.10748 3.81979C2.92382 1.01218 3.00948 1.11878 2.80965 0.985191C2.76164 0.95498 2.70779 0.935237 2.65162 0.92724C2.59546 0.919242 2.53824 0.923171 2.4837 0.938779C2.40951 0.962544 1.2184 1.58252 1.17576 1.61077C1.07767 1.68412 1.0077 1.78888 0.977523 1.90758C0.947345 2.02628 0.958784 2.15174 1.00993 2.26303C2.1912 5.08746 2.09498 4.87421 2.16291 4.96971C2.21276 5.04158 2.28357 5.09632 2.36568 5.12644C2.44779 5.15657 2.5372 5.16061 2.6217 5.13803C2.69619 5.11216 3.89271 4.49939 3.93926 4.47384Z" fill="url(#paint0_linear_82_494)"/>
<defs>
<linearGradient id="paint0_linear_82_494" x1="0.848262" y1="2.79571" x2="4.26555" y2="3.2823" gradientUnits="userSpaceOnUse">
<stop stop-color="#FFE6AB"/>
<stop offset="1" stop-color="#FFD778"/>
</linearGradient>
</defs>
</svg>
