<svg width="4" height="3" viewBox="0 0 4 3" fill="none" xmlns="http://www.w3.org/2000/svg">
<path d="M1.73856 2.45345C1.7457 2.40329 1.73171 2.39886 1.68456 2.26786C3.19711 1.43529 3.1248 1.49811 3.15753 1.43941C3.17517 1.41226 3.18398 1.38031 3.18274 1.34795C3.18852 1.30734 3.18444 1.336 3.05632 0.969261L2.26642 0.988391C2.38463 1.32204 2.38361 1.31215 2.38805 1.33228C2.39617 1.36332 2.39472 1.39609 2.3839 1.42629C2.37307 1.4565 2.35338 1.48273 2.32739 1.50155L0.891256 2.29381L0.934987 2.41458C0.945369 2.44712 0.947148 2.4818 0.940151 2.51524C0.928247 2.59884 0.892417 2.59374 0.641349 2.73102L1.43431 2.70745C1.66696 2.57973 1.7311 2.57425 1.73856 2.45345Z" fill="url(#paint0_linear_130_266)"/>
<defs>
<linearGradient id="paint0_linear_130_266" x1="2.08653" y1="0.831173" x2="1.79267" y2="2.89496" gradientUnits="userSpaceOnUse">
<stop stop-color="#9E6100"/>
<stop offset="0.49" stop-color="#642701"/>
<stop offset="0.65" stop-color="#682A01"/>
<stop offset="0.81" stop-color="#753401"/>
<stop offset="0.98" stop-color="#8A4401"/>
<stop offset="1" stop-color="#8C4601"/>
</linearGradient>
</defs>
</svg>
