<svg width="4" height="3" viewBox="0 0 4 3" fill="none" xmlns="http://www.w3.org/2000/svg">
<path d="M0.990241 0.040261C2.87062 0.395977 2.77387 0.352162 2.87576 0.465367C2.92665 0.534917 2.95518 0.6183 2.95757 0.704448C2.94679 0.780154 2.78091 1.94519 2.77791 1.96622C2.76674 2.0248 2.74044 2.07945 2.70163 2.12474C2.66281 2.17002 2.61282 2.20437 2.55663 2.22436C2.49476 2.23701 2.23099 2.22091 3.15115 2.26825C3.23116 2.26692 3.30769 2.23534 3.36536 2.17986C3.42302 2.12437 3.45752 2.04911 3.46193 1.96921C3.64428 0.688512 3.62991 0.789454 3.64159 0.707439C3.6375 0.645588 3.61658 0.586034 3.58108 0.535219C3.54558 0.484405 3.49686 0.444266 3.44019 0.419148C3.39332 0.401746 1.67728 0.0823012 1.64363 0.0775101L0.962902 0.0363681L0.990241 0.040261Z" fill="url(#paint0_linear_82_214)"/>
<defs>
<linearGradient id="paint0_linear_82_214" x1="2.33129" y1="0.175427" x2="2.04653" y2="2.17533" gradientUnits="userSpaceOnUse">
<stop stop-color="#9E6100"/>
<stop offset="0.49" stop-color="#642701"/>
<stop offset="0.65" stop-color="#682A01"/>
<stop offset="0.81" stop-color="#753401"/>
<stop offset="0.98" stop-color="#8A4401"/>
<stop offset="1" stop-color="#8C4601"/>
</linearGradient>
</defs>
</svg>
