<svg width="34" height="20" viewBox="0 0 34 20" fill="none" xmlns="http://www.w3.org/2000/svg">
<path d="M0.29468 19.4548L0.772342 19.5056L1.46391 18.9432C4.77842 11.4572 9.90467 5.98427 16.655 2.66715C20.3038 0.985337 23.4778 0.227173 27.48 0.131918C29.0931 0.122652 30.7033 0.268587 32.2884 0.567703C33.141 0.742748 33.6346 0.847361 32.7808 0.665709C31.6047 0.402417 30.4118 0.221084 29.2106 0.123016C25.3605 -0.126959 22.0863 0.280081 18.0995 1.75928C14.4596 3.21278 11.733 4.97228 8.76453 7.70789C5.44145 10.9144 2.99986 14.3494 0.990154 18.8951L0.29468 19.4548Z" fill="url(#paint0_linear_82_135)"/>
<defs>
<linearGradient id="paint0_linear_82_135" x1="18.4059" y1="-1.46267" x2="15.1268" y2="21.5667" gradientUnits="userSpaceOnUse">
<stop stop-color="#9E6100"/>
<stop offset="0.49" stop-color="#642701"/>
<stop offset="0.65" stop-color="#682A01"/>
<stop offset="0.81" stop-color="#753401"/>
<stop offset="0.98" stop-color="#8A4401"/>
<stop offset="1" stop-color="#8C4601"/>
</linearGradient>
</defs>
</svg>
