<svg width="3" height="4" viewBox="0 0 3 4" fill="none" xmlns="http://www.w3.org/2000/svg">
<path d="M0.88413 3.0703C1.39533 3.21132 1.44346 3.24986 1.66625 3.20847C1.75398 3.18458 1.83597 3.14316 1.90725 3.08671C1.97854 3.03026 2.03764 2.95995 2.08101 2.88004C2.14817 2.75069 2.10012 2.88276 2.58661 1.21196C2.60938 1.1344 2.62084 1.05394 2.62062 0.973101C2.62366 0.843786 2.58083 0.717569 2.49972 0.616808C2.41861 0.516047 2.30445 0.447245 2.17748 0.42259C1.60724 0.268282 1.64341 0.270995 1.49942 0.272426C1.38307 0.282125 1.27144 0.322801 1.17613 0.390228C1.08082 0.457655 1.00529 0.549372 0.957409 0.655853C0.895715 0.798167 0.476722 2.32016 0.458989 2.34201C0.437679 2.41776 0.431837 2.49702 0.44181 2.57508C0.451783 2.65314 0.477368 2.72839 0.51704 2.79635C0.556712 2.86431 0.609658 2.92359 0.672725 2.97066C0.735792 3.01772 0.807689 3.05161 0.88413 3.0703ZM1.4246 0.814986C1.49828 0.759676 1.50067 0.777076 1.95795 0.903115L1.05901 1.96196C1.37924 0.859705 1.35809 0.871316 1.4246 0.814986ZM2.00737 1.51454C1.66227 2.70587 1.69669 2.61816 1.65065 2.66766C1.62594 2.6914 1.59373 2.70577 1.55956 2.7083C1.39933 2.68256 1.24196 2.64138 1.08966 2.58534L2.00737 1.51454Z" fill="url(#paint0_linear_130_579)"/>
<defs>
<linearGradient id="paint0_linear_130_579" x1="0.568183" y1="1.60938" x2="2.50059" y2="1.88453" gradientUnits="userSpaceOnUse">
<stop stop-color="#FFE6AB"/>
<stop offset="1" stop-color="#FFD778"/>
</linearGradient>
</defs>
</svg>
