<svg width="22" height="32" viewBox="0 0 22 32" fill="none" xmlns="http://www.w3.org/2000/svg">
<path d="M21.503 28.5458C21.5079 22.1526 19.8499 16.7242 16.8334 11.7654C15.629 9.82581 14.1857 8.04525 12.5374 6.46555C10.9461 4.9441 9.15079 3.6515 7.20317 2.62496C5.32118 1.6377 3.30621 0.928014 1.22092 0.517978C0.620963 0.406804 0.521519 0.381916 1.54809 0.601039C4.15603 1.21343 6.63157 2.29284 8.85501 3.78706C10.7254 5.04442 12.4166 6.54978 13.8822 8.26194C15.2754 9.88683 16.4821 11.6628 17.4795 13.5567C17.5886 13.7696 17.9128 14.3865 18.1383 14.882L18.5042 14.9341C18.8804 15.758 19.1029 16.2595 19.4753 17.2609L19.1114 17.2091C20.4353 20.8313 21.1013 24.6609 21.0779 28.5174L17.4592 31.4651L17.886 31.4808L21.503 28.5458Z" fill="url(#paint0_linear_82_158)"/>
<defs>
<linearGradient id="paint0_linear_82_158" x1="12.8887" y1="2.16004" x2="8.88905" y2="30.2491" gradientUnits="userSpaceOnUse">
<stop stop-color="#9E6100"/>
<stop offset="0.49" stop-color="#642701"/>
<stop offset="0.65" stop-color="#682A01"/>
<stop offset="0.81" stop-color="#753401"/>
<stop offset="0.98" stop-color="#8A4401"/>
<stop offset="1" stop-color="#8C4601"/>
</linearGradient>
</defs>
</svg>
