<svg width="3" height="2" viewBox="0 0 3 2" fill="none" xmlns="http://www.w3.org/2000/svg">
<path d="M2.31128 0.298133C2.30788 0.322019 2.31128 0.298133 2.32364 0.468051C-0.511357 0.746752 0.28977 0.665859 0.146127 0.681961C0.108955 0.691096 0.0759908 0.712589 0.0526331 0.742914C0.0292753 0.77324 0.0169113 0.810602 0.0175686 0.848875C0.0151878 0.865595 0.0216488 0.820212 0.0474465 1.2723C3.56142 0.931874 2.55968 1.03538 2.74358 1.01038C2.7828 1.00164 2.81745 0.978814 2.84096 0.946224C2.86446 0.913635 2.87519 0.873552 2.87111 0.833577L2.81788 0.094879L2.45451 0.130873C2.41414 0.136024 2.37713 0.155995 2.35066 0.186904C2.32419 0.217813 2.31016 0.257455 2.31128 0.298133Z" fill="url(#paint0_linear_130_637)"/>
<defs>
<linearGradient id="paint0_linear_130_637" x1="0.0648375" y1="0.499793" x2="2.86432" y2="0.898412" gradientUnits="userSpaceOnUse">
<stop stop-color="#FFE6AB"/>
<stop offset="1" stop-color="#FFD778"/>
</linearGradient>
</defs>
</svg>
