<svg width="4" height="5" viewBox="0 0 4 5" fill="none" xmlns="http://www.w3.org/2000/svg">
<path d="M3.3227 2.25232C2.05998 0.970967 2.11253 0.978446 1.86717 0.921576C1.75252 0.90525 1.8194 0.914776 1.02919 0.987474C1.3837 0.962404 1.47112 1.13569 2.17775 1.85533L1.50458 1.92763L1.77039 2.6966C1.26619 2.18126 1.28361 2.21298 1.26037 2.13656C1.25273 2.0976 1.25849 2.0572 1.2767 2.02191C1.37809 1.8692 1.49388 1.72654 1.62249 1.59592L0.937029 1.66892C0.570427 2.10413 0.603163 2.06249 0.584758 2.10617C0.573301 2.14488 0.575121 2.18632 0.58993 2.22388C0.613499 2.28085 0.548634 2.20582 1.43961 3.10279L1.91728 3.05139L2.01363 3.33319L2.69943 3.25781L2.21836 1.86111C2.71233 2.3628 2.75464 2.37371 2.8438 2.6033C2.88766 2.72811 2.89784 2.86227 2.87334 2.99226C2.84884 3.12226 2.79052 3.24351 2.70425 3.34379C2.25785 3.87731 2.28547 3.85443 2.14937 3.95447C2.0775 4.00247 1.99557 4.03333 1.90989 4.04466C2.65335 3.958 2.73901 4.00675 3.01697 3.71489C3.47189 3.17284 3.42108 3.23871 3.48688 3.11892C3.55341 2.97541 3.57335 2.81467 3.5439 2.65926C3.51446 2.50384 3.43711 2.36155 3.3227 2.25232Z" fill="url(#paint0_linear_130_393)"/>
<defs>
<linearGradient id="paint0_linear_130_393" x1="2.27085" y1="0.979055" x2="1.8338" y2="4.04845" gradientUnits="userSpaceOnUse">
<stop stop-color="#9E6100"/>
<stop offset="0.49" stop-color="#642701"/>
<stop offset="0.65" stop-color="#682A01"/>
<stop offset="0.81" stop-color="#753401"/>
<stop offset="0.98" stop-color="#8A4401"/>
<stop offset="1" stop-color="#8C4601"/>
</linearGradient>
</defs>
</svg>
