<svg width="7" height="7" viewBox="0 0 7 7" fill="none" xmlns="http://www.w3.org/2000/svg">
<path d="M5.47738 3.78672C5.35595 3.86935 1.02625 5.95067 0.996914 5.96842C0.932315 5.99152 0.863791 6.00164 0.795272 5.9982C0.771386 5.9948 0.487138 5.95433 1.50676 6.13607C1.61199 6.15258 1.71975 6.13646 1.81553 6.08986C6.49455 3.83163 6.15581 4.00273 6.27075 3.89725C6.39727 3.77581 6.48141 3.61691 6.51075 3.44401C6.54817 3.18126 6.51847 3.15022 6.34725 2.55557L5.89749 2.46228L5.67261 1.67965L6.12203 1.77533C5.98977 1.31782 5.97228 1.11549 5.71015 0.953877C5.61425 0.90854 5.71288 0.934768 4.80687 0.742398C4.87864 0.754542 4.94702 0.781719 5.00754 0.82215C5.24238 1.00425 5.19427 0.999835 5.74722 2.91855C5.79189 3.07381 5.79014 3.23874 5.74219 3.39301C5.69424 3.54728 5.60219 3.68414 5.47738 3.78672Z" fill="url(#paint0_linear_130_324)"/>
<defs>
<linearGradient id="paint0_linear_130_324" x1="4.20358" y1="0.666243" x2="3.38661" y2="6.40374" gradientUnits="userSpaceOnUse">
<stop stop-color="#9E6100"/>
<stop offset="0.49" stop-color="#642701"/>
<stop offset="0.65" stop-color="#682A01"/>
<stop offset="0.81" stop-color="#753401"/>
<stop offset="0.98" stop-color="#8A4401"/>
<stop offset="1" stop-color="#8C4601"/>
</linearGradient>
</defs>
</svg>
