<svg width="4" height="4" viewBox="0 0 4 4" fill="none" xmlns="http://www.w3.org/2000/svg">
<path d="M1.12669 3.34569C1.19531 3.41152 1.57489 3.75801 1.65647 3.81837C1.74282 3.88072 1.84458 3.91827 1.95074 3.92694C2.0569 3.93561 2.1634 3.91508 2.25873 3.86757C2.33699 3.8291 2.40733 3.77629 2.46611 3.71188C2.51624 3.65078 3.47276 2.39298 3.53857 2.29025C3.62964 2.14421 3.65993 1.96832 3.62297 1.80023C3.58448 1.64954 3.49969 1.51472 3.38053 1.41477C2.90401 0.995984 2.989 1.06658 2.9122 1.0069C2.84339 0.958327 2.76514 0.924766 2.68252 0.908394C2.56451 0.886917 2.44281 0.899993 2.33205 0.946049C2.2213 0.992105 2.12621 1.06918 2.05822 1.168C0.969052 2.60431 1.06964 2.46267 1.00351 2.58485C0.944692 2.70925 0.924986 2.84856 0.946978 2.9844C0.96897 3.12023 1.03163 3.24621 1.12669 3.34569ZM2.52308 1.44622C2.621 1.42604 2.61385 1.45914 2.99377 1.78619L1.75853 2.39991C2.50465 1.42166 2.45144 1.47013 2.52786 1.4469L2.52308 1.44622ZM2.81697 2.41171C2.06403 3.40361 2.11825 3.34797 2.05344 3.3753C2.021 3.38268 1.98698 3.37784 1.95789 3.36169C1.81665 3.26057 1.68521 3.14639 1.56534 3.02066L2.81697 2.41171Z" fill="url(#paint0_linear_130_602)"/>
<defs>
<linearGradient id="paint0_linear_130_602" x1="1.03167" y1="2.23305" x2="3.55645" y2="2.59255" gradientUnits="userSpaceOnUse">
<stop stop-color="#FFE6AB"/>
<stop offset="1" stop-color="#FFD778"/>
</linearGradient>
</defs>
</svg>
