<svg width="51" height="49" viewBox="0 0 51 49" fill="none" xmlns="http://www.w3.org/2000/svg">
<path d="M48.1914 47.7975C44.4049 48.1229 40.591 47.8765 36.8779 47.0663C33.5523 46.3429 30.3339 45.1941 27.3019 43.6484C24.4764 42.2071 21.8233 40.45 19.3936 38.411C16.9778 36.386 14.7748 34.1199 12.8188 31.6478C10.8491 29.1577 9.11593 26.4893 7.64174 23.6774C4.59575 17.7189 2.82136 12.2948 1.77298 5.19499C1.50553 3.0854 1.44452 2.48694 1.30392 0.205328L0.748084 0.189548C1.10937 6.03876 1.94053 10.4366 3.76205 15.9576C6.0501 22.4296 8.75339 27.3719 13.0203 32.6293C15.0369 35.0586 17.299 37.2729 19.7707 39.2372C22.2622 41.2096 24.9715 42.8897 27.8457 44.2449C29.3143 44.9382 30.8234 45.5421 32.3649 46.0533C34.1292 46.6383 35.9331 47.0963 37.7628 47.4239C42.1414 48.2087 46.6241 48.2159 51.0052 47.4451C49.3204 47.6902 49.9649 47.6138 48.1914 47.7975Z" fill="url(#paint0_linear_130_244)"/>
<defs>
<linearGradient id="paint0_linear_130_244" x1="28.6814" y1="4.09387" x2="22.8113" y2="45.3193" gradientUnits="userSpaceOnUse">
<stop stop-color="#9E6100"/>
<stop offset="0.49" stop-color="#642701"/>
<stop offset="0.65" stop-color="#682A01"/>
<stop offset="0.81" stop-color="#753401"/>
<stop offset="0.98" stop-color="#8A4401"/>
<stop offset="1" stop-color="#8C4601"/>
</linearGradient>
</defs>
</svg>
