<svg width="4" height="5" viewBox="0 0 4 5" fill="none" xmlns="http://www.w3.org/2000/svg">
<path d="M1.10183 4.21637L1.46563 4.26817L2.50326 3.68642L2.14155 3.63492L2.80136 3.26542L3.16307 3.31693C3.37059 3.20058 3.52257 3.14283 3.58912 2.8412C3.62326 2.60146 3.61188 2.68137 2.93527 1.13461C2.91132 1.07791 2.87635 1.02653 2.83239 0.983441C2.78844 0.940353 2.73638 0.906416 2.67921 0.883596C2.45198 0.830231 2.22043 0.797261 1.98734 0.78508C2.3079 0.854326 2.29745 0.98801 2.94338 2.44887C2.99437 2.56614 3.00407 2.69724 2.97089 2.82073C2.93772 2.94423 2.86363 3.05282 2.76074 3.12876C2.70879 3.16213 0.376174 4.47565 0.298685 4.50753C0.24261 4.5271 0.183057 4.5347 0.123864 4.52984C0.822634 4.61002 0.716889 4.59926 0.778773 4.60163C0.840657 4.60401 0.82293 4.60792 0.431782 4.55222C0.569657 4.53324 0.614702 4.48816 1.10183 4.21637Z" fill="url(#paint0_linear_82_282)"/>
<defs>
<linearGradient id="paint0_linear_82_282" x1="2.26552" y1="0.805381" x2="1.70527" y2="4.73999" gradientUnits="userSpaceOnUse">
<stop stop-color="#9E6100"/>
<stop offset="0.49" stop-color="#642701"/>
<stop offset="0.65" stop-color="#682A01"/>
<stop offset="0.81" stop-color="#753401"/>
<stop offset="0.98" stop-color="#8A4401"/>
<stop offset="1" stop-color="#8C4601"/>
</linearGradient>
</defs>
</svg>
