<svg width="40" height="25" viewBox="0 0 40 25" fill="none" xmlns="http://www.w3.org/2000/svg">
<path d="M33.9002 0.0741856C30.2769 -0.153492 26.6425 0.284547 23.1771 1.36661C20.9342 2.06937 18.7758 3.01765 16.7411 4.19423C12.4213 6.76103 9.326 9.55799 6.14569 13.5851C3.81779 16.6371 1.921 19.9949 0.508716 23.564L0.931102 23.6113L0.720463 24.1413C1.85697 24.3267 1.71336 24.2956 1.16811 24.2372C4.67826 24.81 4.03115 24.7136 4.66923 24.783L0.79016 24.1491C2.61209 19.5359 4.48305 16.3865 7.1908 12.9508C10.6606 8.74389 13.889 6.14184 17.975 3.86142C20.0396 2.7407 22.2233 1.85481 24.4852 1.22032C26.7949 0.573955 29.1745 0.210334 31.5718 0.137434C34.3233 0.0536938 37.0731 0.352088 39.7425 1.02408C37.8302 0.520239 35.8737 0.202131 33.9002 0.0741856Z" fill="url(#paint0_linear_82_149)"/>
<defs>
<linearGradient id="paint0_linear_82_149" x1="22.1176" y1="-1.6958" x2="18.0737" y2="26.7045" gradientUnits="userSpaceOnUse">
<stop stop-color="#9E6100"/>
<stop offset="0.49" stop-color="#642701"/>
<stop offset="0.65" stop-color="#682A01"/>
<stop offset="0.81" stop-color="#753401"/>
<stop offset="0.98" stop-color="#8A4401"/>
<stop offset="1" stop-color="#8C4601"/>
</linearGradient>
</defs>
</svg>
