<svg width="4" height="4" viewBox="0 0 4 4" fill="none" xmlns="http://www.w3.org/2000/svg">
<path d="M3.378 1.61378C3.27912 1.50959 3.39392 1.59245 2.05404 0.740821C1.8437 0.620757 1.81788 0.651411 1.17083 0.690159C1.38472 0.694867 1.33937 0.696994 2.6513 1.53391C2.74785 1.59642 2.82628 1.6832 2.87873 1.78556C2.93118 1.88793 2.95582 2.00227 2.95017 2.11715C2.94381 2.24978 2.9033 2.37853 2.83258 2.49091L2.18593 1.41186L1.59265 1.44968L2.12206 2.34253C1.43003 1.89856 1.43125 1.92018 1.41288 1.82316C1.39451 1.72614 1.42186 1.76008 1.64095 1.32139L1.04767 1.35921C0.822573 1.7949 0.805451 1.7946 0.82171 1.87631C0.83797 1.95801 0.814525 1.92678 1.72531 2.50703L2.19993 2.47377L2.26396 2.58159L2.81007 2.54348C2.60298 2.94311 2.56158 3.0681 2.35857 3.19797C2.31371 3.22211 2.26569 3.23982 2.2159 3.2506C2.08704 3.26658 2.24114 3.2542 2.76442 3.2107C2.84859 3.19971 2.92899 3.16909 2.99915 3.12131C3.06932 3.07354 3.12727 3.00994 3.16833 2.93565C3.22536 2.83649 3.16833 2.93565 3.45948 2.3978C3.52723 2.27433 3.55573 2.13315 3.54118 1.99307C3.52662 1.85299 3.4697 1.72068 3.378 1.61378Z" fill="url(#paint0_linear_82_317)"/>
<defs>
<linearGradient id="paint0_linear_82_317" x1="2.35354" y1="0.731973" x2="1.999" y2="3.22186" gradientUnits="userSpaceOnUse">
<stop stop-color="#9E6100"/>
<stop offset="0.49" stop-color="#642701"/>
<stop offset="0.65" stop-color="#682A01"/>
<stop offset="0.81" stop-color="#753401"/>
<stop offset="0.98" stop-color="#8A4401"/>
<stop offset="1" stop-color="#8C4601"/>
</linearGradient>
</defs>
</svg>
