<svg width="3" height="4" viewBox="0 0 3 4" fill="none" xmlns="http://www.w3.org/2000/svg">
<path d="M1.98085 2.49701C1.16501 0.250855 1.22957 0.396524 1.17769 0.350143C1.1258 0.303762 1.14525 0.304094 0.353354 0.422856C0.374702 0.42015 0.396387 0.422678 0.416542 0.430218C0.436696 0.437758 0.454714 0.450087 0.469044 0.466141C0.513083 0.516279 0.445788 0.355597 1.27529 2.6427C1.52504 2.60027 1.50389 2.59482 1.54041 2.62927C1.57694 2.66372 1.57148 2.66781 1.7078 3.04547C1.09543 3.28971 1.13159 3.27537 1.10634 3.28152L1.83478 3.16347L2.42394 2.92811C2.24151 2.42934 2.29236 2.44876 1.98085 2.49701Z" fill="url(#paint0_linear_130_368)"/>
<defs>
<linearGradient id="paint0_linear_130_368" x1="1.57282" y1="0.382036" x2="1.1589" y2="3.289" gradientUnits="userSpaceOnUse">
<stop stop-color="#9E6100"/>
<stop offset="0.49" stop-color="#642701"/>
<stop offset="0.65" stop-color="#682A01"/>
<stop offset="0.81" stop-color="#753401"/>
<stop offset="0.98" stop-color="#8A4401"/>
<stop offset="1" stop-color="#8C4601"/>
</linearGradient>
</defs>
</svg>
