<svg width="3" height="4" viewBox="0 0 3 4" fill="none" xmlns="http://www.w3.org/2000/svg">
<path d="M2.11426 2.50693C2.22158 2.42996 2.30221 2.32141 2.34491 2.19643C2.3876 2.07146 2.39024 1.93627 2.35245 1.80973C2.33433 1.7316 2.18909 1.24543 2.13614 1.10386C2.10399 1.03925 2.0613 0.98046 2.00981 0.929899C1.96311 0.881835 1.90587 0.8453 1.84261 0.82318C1.77935 0.80106 1.71181 0.793963 1.64534 0.802454C0.573262 0.817958 0.935963 0.8038 1.03493 0.827639C1.13129 0.867716 1.21608 0.931293 1.28156 1.01256C1.34704 1.09383 1.39112 1.1902 1.40979 1.29288C1.2411 1.28307 1.07189 1.28669 0.903777 1.30369L0.147471 1.65173C1.37422 1.86784 1.0405 1.8325 1.56323 1.82407C1.58796 1.9239 1.59112 2.02786 1.57251 2.129C1.55391 2.23015 1.51396 2.32617 1.45534 2.41067C1.35064 2.5298 1.42125 2.47893 0.22999 3.02336C0.20102 3.03626 0.171003 3.04666 0.140265 3.05445C0.111601 3.05037 -0.126898 3.06515 0.887513 3.04387C0.918204 3.04064 0.948494 3.03434 0.977926 3.02506C1.06287 2.99329 2.08288 2.52196 2.11426 2.50693ZM0.941122 1.64045L1.44464 1.40751L1.54511 1.74595L0.941122 1.64045Z" fill="url(#paint0_linear_130_269)"/>
<defs>
<linearGradient id="paint0_linear_130_269" x1="1.4167" y1="0.747966" x2="1.06808" y2="3.19631" gradientUnits="userSpaceOnUse">
<stop stop-color="#9E6100"/>
<stop offset="0.49" stop-color="#642701"/>
<stop offset="0.65" stop-color="#682A01"/>
<stop offset="0.81" stop-color="#753401"/>
<stop offset="0.98" stop-color="#8A4401"/>
<stop offset="1" stop-color="#8C4601"/>
</linearGradient>
</defs>
</svg>
