<svg width="41" height="106" viewBox="0 0 41 106" fill="none" xmlns="http://www.w3.org/2000/svg">
<path d="M40.2401 58.7294C40.6521 55.0233 40.7272 51.2876 40.4646 47.5679C40.2127 44.0516 39.6533 40.5641 38.7927 37.1454C36.8355 29.7188 34.3307 24.4441 30.541 18.8647C26.7645 13.5869 22.8647 9.58556 17.2309 5.91739C14.6318 4.25004 11.8569 2.87418 8.95641 1.8147C7.52616 1.31616 7.39273 1.26061 5.22269 0.651855C9.54883 1.83291 13.6547 3.70808 17.3802 6.20428C19.984 7.93669 22.4021 9.93315 24.5961 12.1619C26.9024 14.5006 28.9746 17.059 30.783 19.8009C34.7558 25.9255 37.0124 31.5572 38.6523 38.3708C39.4425 41.8344 39.9255 45.3609 40.0957 48.9094C40.274 52.6498 40.1138 56.3987 39.617 60.1102C39.1463 63.6643 38.3665 67.1706 37.2865 70.5892C36.1916 74.0497 34.7715 77.3987 33.0451 80.5914C31.4771 83.4923 29.6479 86.2444 27.5803 88.8133C25.5298 91.36 23.2313 93.6965 20.7186 95.7884C18.3926 97.7271 15.8821 99.4331 13.2232 100.882C8.81888 103.196 5.43973 104.404 0.584379 105.316C4.8983 104.544 8.09671 103.596 12.6986 101.331C15.3757 99.964 17.9112 98.3357 20.2682 96.47C22.8183 94.4566 25.1604 92.1931 27.2596 89.7132C29.3647 87.2267 31.2375 84.5526 32.8545 81.7243C34.65 78.5918 36.1427 75.2954 37.3124 71.8796C38.7275 67.5896 39.566 64.2338 40.2401 58.7294Z" fill="url(#paint0_linear_130_251)"/>
<defs>
<linearGradient id="paint0_linear_130_251" x1="26.4505" y1="3.67449" x2="11.7523" y2="106.899" gradientUnits="userSpaceOnUse">
<stop stop-color="#9E6100"/>
<stop offset="0.49" stop-color="#642701"/>
<stop offset="0.65" stop-color="#682A01"/>
<stop offset="0.81" stop-color="#753401"/>
<stop offset="0.98" stop-color="#8A4401"/>
<stop offset="1" stop-color="#8C4601"/>
</linearGradient>
</defs>
</svg>
