<svg width="7" height="7" viewBox="0 0 7 7" fill="none" xmlns="http://www.w3.org/2000/svg">
<path d="M6.05631 6.26146C6.08017 6.21368 6.76967 4.52062 6.81327 4.36842C6.84077 4.24019 6.83757 4.10728 6.80395 3.98052C6.77033 3.85376 6.70724 3.73675 6.61981 3.639C6.50887 3.52816 6.84745 3.75184 2.39508 0.961062C2.3326 0.923077 2.2627 0.898929 2.1901 0.890248C2.11749 0.881566 2.04387 0.888551 1.97419 0.910734C1.90452 0.932916 1.84041 0.969781 1.78619 1.01884C1.73197 1.0679 1.6889 1.12801 1.65988 1.19512C1.63397 1.25724 0.96289 2.92368 0.924402 3.07417C0.897249 3.20067 0.900046 3.33176 0.932569 3.45699C0.965092 3.58221 1.02644 3.69811 1.11171 3.79541C1.22095 3.90113 0.885096 3.6754 5.31428 6.49212C5.37678 6.53142 5.44705 6.55672 5.52026 6.56629C5.59346 6.57586 5.66787 6.56946 5.73837 6.54755C5.80887 6.52563 5.8738 6.48871 5.92868 6.43933C5.98356 6.38995 6.0271 6.32927 6.05631 6.26146Z" fill="url(#paint0_linear_130_553)"/>
<defs>
<linearGradient id="paint0_linear_130_553" x1="0.881856" y1="3.30451" x2="6.84388" y2="4.15344" gradientUnits="userSpaceOnUse">
<stop stop-color="#FFE6AB"/>
<stop offset="1" stop-color="#FFD778"/>
</linearGradient>
</defs>
</svg>
