<svg width="3" height="6" viewBox="0 0 3 6" fill="none" xmlns="http://www.w3.org/2000/svg">
<path d="M0.28565 4.73051C0.285531 4.86159 0.328111 4.98913 0.406946 5.09385C0.555112 5.26848 0.494012 5.21835 1.9675 5.51589C2.08678 5.52719 2.20576 5.49159 2.29924 5.41664C2.39271 5.34169 2.45332 5.23328 2.46821 5.1144C2.47433 5.07141 2.98048 1.63654 2.98111 1.51234C2.98399 1.41728 2.96185 1.32312 2.9169 1.23931C2.87195 1.15549 2.80577 1.08496 2.72498 1.03477C2.6383 0.993177 2.77241 1.0269 1.30405 0.744703C1.0413 0.70729 0.871118 0.892643 0.803334 1.14619C0.789365 1.19295 0.288664 4.60665 0.28565 4.73051Z" fill="url(#paint0_linear_130_517)"/>
<defs>
<linearGradient id="paint0_linear_130_517" x1="0.528811" y1="2.97146" x2="2.7383" y2="3.28607" gradientUnits="userSpaceOnUse">
<stop stop-color="#FFE6AB"/>
<stop offset="1" stop-color="#FFD778"/>
</linearGradient>
</defs>
</svg>
