<svg width="2" height="4" viewBox="0 0 2 4" fill="none" xmlns="http://www.w3.org/2000/svg">
<path d="M1.78267 2.55578C1.77354 2.52187 1.75278 2.49226 1.72401 2.47212C1.69524 2.45199 1.66031 2.44262 1.62532 2.44564L1.49431 2.47573C0.831746 -0.367622 1.02216 0.434482 0.984224 0.290167C0.974651 0.255103 0.952641 0.224725 0.922302 0.204708C0.891964 0.184691 0.855375 0.176402 0.819372 0.181395L0.489115 0.258662L1.11373 2.94063C1.11886 2.97567 1.13626 3.00775 1.16282 3.03117C1.18939 3.05459 1.2234 3.06782 1.25881 3.06852C1.46477 3.03409 1.66884 2.98913 1.8702 2.9338L1.78267 2.55578Z" fill="url(#paint0_linear_130_585)"/>
<defs>
<linearGradient id="paint0_linear_130_585" x1="0.309873" y1="1.51747" x2="2.03685" y2="1.76337" gradientUnits="userSpaceOnUse">
<stop stop-color="#FFE6AB"/>
<stop offset="1" stop-color="#FFD778"/>
</linearGradient>
</defs>
</svg>
