<svg width="36" height="92" viewBox="0 0 36 92" fill="none" xmlns="http://www.w3.org/2000/svg">
<path d="M5.72481 90.0048C7.39395 89.4694 9.02293 88.8161 10.5995 88.0498C12.2328 87.2515 13.8087 86.3407 15.3158 85.3241C16.8717 84.2651 18.3545 83.1027 19.7544 81.8448C21.1741 80.5702 22.5085 79.2036 23.7488 77.7539C25.0087 76.2766 26.1737 74.7209 27.2366 73.0961C28.3187 71.4344 29.2971 69.7074 30.1662 67.9251C32.1443 63.7031 33.0981 60.9071 34.1623 56.3088C35.1193 51.5392 35.4055 48.502 35.3753 43.7332C35.2063 39.0154 34.8007 36.0795 33.6699 31.5268C32.4275 27.107 31.3665 24.4263 29.2099 20.3686C28.2526 18.6402 27.1876 16.9738 26.021 15.3791C24.899 13.8374 23.6765 12.3713 22.3616 10.9904C21.0927 9.66289 19.7342 8.42394 18.2957 7.28231C16.9024 6.17742 15.4332 5.17177 13.8989 4.27279C12.4019 3.39682 10.844 2.62932 9.23722 1.97618C7.65364 1.33673 6.02619 0.81179 4.36742 0.405428C3.33651 0.148968 4.03061 0.32335 5.1018 0.605042C7.58906 1.30748 9.99125 2.28212 12.2648 3.51127C13.8191 4.34959 15.3131 5.29521 16.736 6.34128C18.2011 7.42645 19.591 8.60957 20.8963 9.88251C22.2484 11.209 23.5126 12.6223 24.6805 14.1135C25.8924 15.6613 27.0043 17.2849 28.0096 18.9742C29.0269 20.69 29.9361 22.4677 30.7318 24.2969C32.5015 28.5384 33.3337 31.3376 34.1905 35.9487C34.9126 40.5991 35.0682 43.5969 34.8162 48.4132C34.4175 53.3012 33.8511 56.3035 32.5139 60.8336C31.9065 62.7871 31.1821 64.7022 30.3447 66.5687C29.5259 68.3907 28.5952 70.1603 27.5578 71.8673C26.5392 73.5377 25.4154 75.1416 24.1932 76.6693C22.994 78.1679 21.6979 79.5863 20.3132 80.9154C18.9478 82.2246 17.4956 83.4403 15.9665 84.554C14.4784 85.637 12.9173 86.6158 11.2943 87.4834C9.73558 88.3199 8.11926 89.0443 6.45757 89.6509C4.84043 90.2317 3.18308 90.6938 1.4987 91.0334C0.385421 91.2356 -0.27 91.3372 0.763118 91.1846C2.44326 90.9113 4.10147 90.517 5.72481 90.0048Z" fill="url(#paint0_linear_130_245)"/>
<defs>
<linearGradient id="paint0_linear_130_245" x1="22.6906" y1="2.96329" x2="9.92223" y2="92.635" gradientUnits="userSpaceOnUse">
<stop stop-color="#9E6100"/>
<stop offset="0.49" stop-color="#642701"/>
<stop offset="0.65" stop-color="#682A01"/>
<stop offset="0.81" stop-color="#753401"/>
<stop offset="0.98" stop-color="#8A4401"/>
<stop offset="1" stop-color="#8C4601"/>
</linearGradient>
</defs>
</svg>
