<svg width="4" height="4" viewBox="0 0 4 4" fill="none" xmlns="http://www.w3.org/2000/svg">
<path d="M3.2793 1.54639C3.29797 1.45849 3.28579 1.36684 3.24479 1.28688C3.2038 1.20691 3.13651 1.14351 3.05424 1.10735C3.02797 1.10361 1.18595 0.741408 1.11531 0.741099C1.05118 0.749254 0.99081 0.775902 0.941569 0.817793C0.892327 0.859684 0.856347 0.915003 0.838019 0.977C0.811783 1.05856 0.8438 0.936396 0.630167 2.35115C0.61132 2.43839 0.622895 2.52945 0.662969 2.6092C0.703043 2.68894 0.769202 2.75257 0.850448 2.78951C0.881501 2.79393 2.72012 3.16296 2.79041 3.16566C2.83136 3.16155 2.87104 3.14909 2.90701 3.12907C2.94297 3.10904 2.97445 3.08186 2.99951 3.04921C3.1042 2.91302 3.07726 2.94818 3.2793 1.54639Z" fill="url(#paint0_linear_130_504)"/>
<defs>
<linearGradient id="paint0_linear_130_504" x1="0.712135" y1="1.77549" x2="3.19631" y2="2.12922" gradientUnits="userSpaceOnUse">
<stop stop-color="#FFE6AB"/>
<stop offset="1" stop-color="#FFD778"/>
</linearGradient>
</defs>
</svg>
