<svg width="4" height="3" viewBox="0 0 4 3" fill="none" xmlns="http://www.w3.org/2000/svg">
<path d="M3.08996 1.37698C3.0558 1.36291 3.01755 1.36242 2.98305 1.37563C2.94855 1.38885 2.9204 1.41475 2.90437 1.44804C2.90233 1.46237 2.90438 1.44804 2.83961 1.59479C0.29594 0.221214 1.01641 0.604063 0.884329 0.538953C0.850169 0.524878 0.811926 0.524398 0.777423 0.537608C0.74292 0.550819 0.714768 0.576718 0.698743 0.610008C0.696702 0.62434 0.702826 0.581348 0.533088 0.986102C3.687 2.69515 2.77848 2.21241 2.94571 2.30446C2.97796 2.31881 3.01437 2.32067 3.04791 2.30969C3.08145 2.2987 3.10971 2.27565 3.12721 2.24501C3.12993 2.2259 3.19811 2.08939 3.4258 1.56859L3.08996 1.37698Z" fill="url(#paint0_linear_130_632)"/>
<defs>
<linearGradient id="paint0_linear_130_632" x1="0.500437" y1="1.21541" x2="3.41696" y2="1.63069" gradientUnits="userSpaceOnUse">
<stop stop-color="#FFE6AB"/>
<stop offset="1" stop-color="#FFD778"/>
</linearGradient>
</defs>
</svg>
