<svg width="3" height="4" viewBox="0 0 3 4" fill="none" xmlns="http://www.w3.org/2000/svg">
<path d="M2.21221 0.649145C2.16665 0.598179 2.1101 0.558233 2.04683 0.532325C1.98356 0.506418 1.91524 0.495228 1.84701 0.499597C1.77879 0.503966 1.71245 0.52378 1.65301 0.557546C1.59356 0.591312 1.54257 0.638148 1.50388 0.694511C1.46398 0.752194 0.785833 1.88635 0.742884 1.98259C0.686161 2.12069 0.674933 2.27327 0.710833 2.41818C0.746732 2.5631 0.827891 2.69279 0.94252 2.78844C1.34259 3.16223 1.37093 3.20281 1.53781 3.26313C1.62552 3.28854 1.71907 3.28517 1.80473 3.2535C1.89038 3.22183 1.96363 3.16354 2.01372 3.08719C2.06043 3.01585 2.73619 1.88136 2.77676 1.80184C2.99283 1.24284 2.51773 0.933917 2.21221 0.649145ZM1.64132 2.77583C1.56626 2.78952 1.57273 2.77826 1.22659 2.45358L2.19095 1.91095C1.65941 2.80278 1.70272 2.75533 1.64609 2.77651L1.64132 2.77583ZM1.32256 1.88235C1.85512 0.983359 1.81658 1.03148 1.86605 1.00928C1.91551 0.987078 1.96637 1.02357 2.30738 1.33289L1.32256 1.88235Z" fill="url(#paint0_linear_130_538)"/>
<defs>
<linearGradient id="paint0_linear_130_538" x1="0.754718" y1="1.74544" x2="2.76595" y2="2.03182" gradientUnits="userSpaceOnUse">
<stop stop-color="#FFE6AB"/>
<stop offset="1" stop-color="#FFD778"/>
</linearGradient>
</defs>
</svg>
