<svg width="4" height="4" viewBox="0 0 4 4" fill="none" xmlns="http://www.w3.org/2000/svg">
<path d="M1.1587 3.07797C1.34138 3.14398 1.52975 3.19306 1.72142 3.22461C1.67412 3.33382 1.59438 3.42583 1.493 3.48816C1.39162 3.55049 1.27351 3.58012 1.15472 3.57303C1.12738 3.56914 0.89274 3.51427 1.71383 3.71486C1.812 3.73363 1.91344 3.72497 2.00702 3.68985C2.10059 3.65472 2.18267 3.59448 2.24425 3.51576C2.3208 3.41509 3.01838 2.19274 3.02979 2.1729C3.10041 2.05444 3.12472 1.91405 3.09804 1.77874C3.07136 1.64343 2.99557 1.52277 2.88526 1.43999C2.80773 1.38175 2.44083 1.14069 2.35039 1.09778C2.25995 1.05486 1.42834 0.852771 1.68882 0.922044C1.79698 0.961047 1.7498 0.930728 2.21647 1.23963C2.30731 1.29161 2.38157 1.36825 2.43068 1.46067C2.47979 1.55309 2.50173 1.65753 2.49398 1.7619C2.46198 1.94914 2.38529 2.1259 2.27042 2.27719L1.83148 2.16534L1.59453 2.32256C2.05078 1.52929 2.01596 1.57797 2.0589 1.54761C2.08478 1.52985 2.11655 1.52283 2.14751 1.52804C2.2127 1.53733 1.54934 1.37421 1.52621 1.37092C1.50177 1.36888 1.47726 1.37381 1.45551 1.38515C1.43377 1.39648 1.41569 1.41376 1.40337 1.43496C1.40158 1.44758 1.2608 1.68286 0.907204 2.29764L1.43777 2.42897L0.805325 2.86244L1.1587 3.07797ZM2.12003 2.5347L1.73282 3.20477L1.42842 3.00695L2.12003 2.5347Z" fill="url(#paint0_linear_82_275)"/>
<defs>
<linearGradient id="paint0_linear_82_275" x1="2.16198" y1="0.974398" x2="1.77181" y2="3.71454" gradientUnits="userSpaceOnUse">
<stop stop-color="#9E6100"/>
<stop offset="0.49" stop-color="#642701"/>
<stop offset="0.65" stop-color="#682A01"/>
<stop offset="0.81" stop-color="#753401"/>
<stop offset="0.98" stop-color="#8A4401"/>
<stop offset="1" stop-color="#8C4601"/>
</linearGradient>
</defs>
</svg>
