<svg width="7" height="5" viewBox="0 0 7 5" fill="none" xmlns="http://www.w3.org/2000/svg">
<path d="M5.56968 1.46632C5.7493 1.77947 5.70186 1.75322 5.69296 3.92093C5.7001 4.06591 5.66002 4.20929 5.57874 4.32954C5.49746 4.4498 5.37936 4.54044 5.24218 4.58787C5.2183 4.58447 4.9259 4.63544 5.92524 4.49748C6.04678 4.47456 6.15853 4.4154 6.24582 4.32779C6.33311 4.24018 6.39185 4.1282 6.41432 4.00659C6.4508 3.75923 6.4587 3.50849 6.43786 3.25933L5.99329 3.31788C6.00315 3.24861 5.99272 3.5615 5.99664 2.43857L6.44087 2.38241C6.44234 1.85865 6.51758 1.50137 6.13937 1.17944C6.07221 1.12634 5.99466 1.0879 5.91173 1.06661C5.80424 1.0513 1.02235 0.694533 0.954108 0.694564L0.143773 0.788771C0.183586 0.783608 0.223781 0.781985 0.263879 0.783933C5.51871 1.17392 5.08876 1.12977 5.22834 1.17645C5.3699 1.23456 5.4894 1.33604 5.56968 1.46632Z" fill="url(#paint0_linear_130_343)"/>
<defs>
<linearGradient id="paint0_linear_130_343" x1="3.52106" y1="0.740819" x2="3.01394" y2="4.30227" gradientUnits="userSpaceOnUse">
<stop stop-color="#9E6100"/>
<stop offset="0.49" stop-color="#642701"/>
<stop offset="0.65" stop-color="#682A01"/>
<stop offset="0.81" stop-color="#753401"/>
<stop offset="0.98" stop-color="#8A4401"/>
<stop offset="1" stop-color="#8C4601"/>
</linearGradient>
</defs>
</svg>
