<svg width="4" height="4" viewBox="0 0 4 4" fill="none" xmlns="http://www.w3.org/2000/svg">
<path d="M3.18568 1.637C3.18592 1.52378 3.15959 1.41209 3.10882 1.3109C3.05805 1.20971 2.98424 1.12183 2.89334 1.05435C2.23627 0.534299 2.47037 0.601752 1.34477 0.719302C1.44819 0.704165 1.55367 0.725212 1.64336 0.778879C1.7222 0.824224 2.10347 1.12465 2.12531 1.14239C1.88526 1.15717 1.64619 1.18496 1.40915 1.22563C1.35389 1.25432 1.39003 1.20585 0.919941 2.16248L1.69752 2.0758C2.15398 1.14647 2.1308 1.18948 2.15126 1.16558C2.27461 1.27111 2.3589 1.41505 2.3906 1.57426C2.42229 1.73347 2.39955 1.89871 2.32602 2.04344L1.79376 2.10168L0.865617 2.74939C1.21617 3.02595 1.2114 3.04233 1.26565 3.03787L1.86751 2.97003C1.73661 3.23896 1.66779 3.46556 1.39758 3.53188L2.12842 3.4483C2.20986 3.43838 2.28727 3.40724 2.35288 3.35798C2.41849 3.30872 2.47001 3.24308 2.50226 3.16764C3.18337 1.7902 3.17384 1.85709 3.18568 1.637ZM2.21693 2.26186L1.91524 2.87447L1.6432 2.66271L2.21693 2.26186Z" fill="url(#paint0_linear_130_315)"/>
<defs>
<linearGradient id="paint0_linear_130_315" x1="2.23598" y1="0.639051" x2="1.81389" y2="3.60335" gradientUnits="userSpaceOnUse">
<stop stop-color="#9E6100"/>
<stop offset="0.49" stop-color="#642701"/>
<stop offset="0.65" stop-color="#682A01"/>
<stop offset="0.81" stop-color="#753401"/>
<stop offset="0.98" stop-color="#8A4401"/>
<stop offset="1" stop-color="#8C4601"/>
</linearGradient>
</defs>
</svg>
