<svg width="4" height="4" viewBox="0 0 4 4" fill="none" xmlns="http://www.w3.org/2000/svg">
<path d="M3.02163 1.89571C3.06618 1.5828 3.09652 1.5067 3.03434 1.34431C3.00249 1.26296 2.94015 1.19725 2.86058 1.16116C2.80803 1.15368 0.963281 0.793523 0.934617 0.789441L0.144691 0.740326C0.178132 0.745087 2.04403 1.09363 2.10274 1.12636C2.16007 1.16331 2.2068 1.21453 2.23835 1.27499C2.26991 1.33546 2.28519 1.40309 2.28271 1.47125C2.27047 1.55724 2.08783 2.83993 2.08374 2.8686C2.07308 2.93305 2.0454 2.99349 2.00355 3.04366C1.9617 3.09383 1.90721 3.13191 1.84571 3.15396C1.77781 3.16866 1.48573 3.149 2.54488 3.20721C2.58583 3.20826 2.62656 3.20076 2.66445 3.18517C2.70234 3.16958 2.73656 3.14626 2.76491 3.11669C2.88087 2.98697 2.87775 2.88905 2.90904 2.66929L2.42553 2.64188L2.53607 1.86557L3.02163 1.89571Z" fill="url(#paint0_linear_130_271)"/>
<defs>
<linearGradient id="paint0_linear_130_271" x1="1.64643" y1="0.890797" x2="1.33148" y2="3.10267" gradientUnits="userSpaceOnUse">
<stop stop-color="#9E6100"/>
<stop offset="0.49" stop-color="#642701"/>
<stop offset="0.65" stop-color="#682A01"/>
<stop offset="0.81" stop-color="#753401"/>
<stop offset="0.98" stop-color="#8A4401"/>
<stop offset="1" stop-color="#8C4601"/>
</linearGradient>
</defs>
</svg>
