<svg width="4" height="2" viewBox="0 0 4 2" fill="none" xmlns="http://www.w3.org/2000/svg">
<path d="M3.51886 0.825207C3.4789 0.819518 3.54169 0.815586 2.89463 0.839314C1.41935 0.155074 1.54344 0.217801 1.50138 0.211812L0.901791 0.233715C0.955862 0.230686 0.849803 0.191982 2.71509 1.06049L3.21585 1.03953C2.98902 1.63803 3.00434 1.63592 2.93076 1.6705C2.85718 1.70508 2.74001 1.68411 3.47388 1.65343C3.49306 1.65258 3.5118 1.64741 3.5287 1.6383C3.5456 1.62919 3.56023 1.61637 3.57149 1.60082C3.6667 1.39707 3.74819 1.18718 3.81542 0.972567L3.51886 0.825207ZM3.23656 0.999569L2.89223 0.841113C2.92587 0.845904 2.92167 0.845303 3.23596 0.988751L3.23656 0.999569Z" fill="url(#paint0_linear_82_323)"/>
<defs>
<linearGradient id="paint0_linear_82_323" x1="2.40054" y1="0.331261" x2="2.22327" y2="1.5762" gradientUnits="userSpaceOnUse">
<stop stop-color="#9E6100"/>
<stop offset="0.49" stop-color="#642701"/>
<stop offset="0.65" stop-color="#682A01"/>
<stop offset="0.81" stop-color="#753401"/>
<stop offset="0.98" stop-color="#8A4401"/>
<stop offset="1" stop-color="#8C4601"/>
</linearGradient>
</defs>
</svg>
