<svg width="4" height="5" viewBox="0 0 4 5" fill="none" xmlns="http://www.w3.org/2000/svg">
<path d="M0.766837 4.27964C0.794024 4.33188 0.831436 4.37814 0.876841 4.41565C0.922247 4.45316 0.974722 4.48117 1.03116 4.49801C1.0876 4.51485 1.14685 4.52018 1.20538 4.51369C1.26392 4.50719 1.32056 4.489 1.37193 4.4602C3.91628 3.03093 3.8223 3.13341 3.94205 2.89513C3.9962 2.77599 4.00698 2.64166 3.97252 2.51541C3.94815 2.43041 3.335 1.05575 3.30824 1.00259C3.2781 0.948095 3.23756 0.900042 3.18892 0.86116C3.12093 0.805089 3.03719 0.771548 2.94929 0.765183C2.8614 0.758818 2.7737 0.779946 2.69834 0.825638C0.131178 2.27955 0.332988 2.1581 0.24621 2.24015C0.180079 2.31077 0.132892 2.39698 0.109037 2.49074C0.0851814 2.58451 0.085434 2.68279 0.109773 2.77643C0.136547 2.85963 0.738273 4.22407 0.766837 4.27964Z" fill="url(#paint0_linear_82_509)"/>
<defs>
<linearGradient id="paint0_linear_82_509" x1="0.122805" y1="2.36847" x2="3.96068" y2="2.91495" gradientUnits="userSpaceOnUse">
<stop stop-color="#FFE6AB"/>
<stop offset="1" stop-color="#FFD778"/>
</linearGradient>
</defs>
</svg>
