<svg width="3" height="4" viewBox="0 0 3 4" fill="none" xmlns="http://www.w3.org/2000/svg">
<path d="M0.408795 2.38029C0.438243 2.3995 0.375149 2.37549 1.00546 2.52961C0.940104 2.63662 0.85393 2.72941 0.752047 2.80249C0.653252 2.86378 0.537074 2.89096 0.421343 2.87985C0.394005 2.87595 0.159067 2.82319 0.973242 3.01207C1.04781 3.0273 1.1248 3.02606 1.19883 3.00844C1.27287 2.99082 1.34216 2.95723 1.40187 2.91004C1.51357 2.81867 1.4292 2.91393 2.374 1.67314C2.42088 1.61305 2.45796 1.54591 2.48386 1.47423C2.52634 1.35837 2.5309 1.23202 2.49688 1.11341C2.46286 0.994792 2.39202 0.890059 2.2946 0.814331C1.8925 0.45884 1.90302 0.460338 1.78073 0.400013C1.6993 0.369109 0.869805 0.167318 1.12878 0.232086C1.20202 0.256904 1.2694 0.296435 1.3268 0.348251C1.72709 0.70134 1.8587 0.771574 1.9102 1.05783C1.9617 1.34409 1.82146 1.455 1.66475 1.66656L1.18977 1.55172L0.0866406 2.09625L0.408795 2.38029ZM1.54976 1.8111L1.01958 2.52089L0.69952 2.23716L1.54976 1.8111Z" fill="url(#paint0_linear_82_283)"/>
<defs>
<linearGradient id="paint0_linear_82_283" x1="1.5016" y1="0.280881" x2="1.11023" y2="3.02943" gradientUnits="userSpaceOnUse">
<stop stop-color="#9E6100"/>
<stop offset="0.49" stop-color="#642701"/>
<stop offset="0.65" stop-color="#682A01"/>
<stop offset="0.81" stop-color="#753401"/>
<stop offset="0.98" stop-color="#8A4401"/>
<stop offset="1" stop-color="#8C4601"/>
</linearGradient>
</defs>
</svg>
