<svg width="3" height="4" viewBox="0 0 3 4" fill="none" xmlns="http://www.w3.org/2000/svg">
<path d="M2.61648 2.69111C2.60983 2.6022 2.47553 1.25496 2.46017 1.16695C2.43801 1.03255 2.36621 0.911356 2.25898 0.827353C2.15174 0.743349 2.01689 0.702655 1.88109 0.713312C1.49712 0.722299 1.11472 0.765498 0.738423 0.842404C0.825536 0.833352 1.20614 0.812448 1.28995 0.811509C1.38753 0.81514 1.48225 0.845398 1.56387 0.898999C1.64549 0.9526 1.7109 1.0275 1.753 1.11561C1.82307 1.27148 1.81498 1.31324 1.85782 1.72057L1.45381 1.78534L1.43221 1.84663C1.37608 1.29151 1.37369 1.32336 1.38659 1.27799C1.39488 1.24781 1.41472 1.22212 1.44183 1.20647C1.48117 1.18633 1.60283 1.17575 0.821843 1.29627C0.798939 1.30176 0.778132 1.31381 0.761972 1.33095C0.745813 1.34808 0.735003 1.36956 0.730865 1.39274C0.725475 1.4306 0.720627 1.34408 0.82716 2.41917L1.26602 2.35078L1.07402 2.91562C1.37423 2.91377 1.67336 2.87939 1.96616 2.81308C1.97357 2.93273 1.93926 3.05126 1.86908 3.14846C1.7989 3.24566 1.6972 3.31553 1.58129 3.34617C1.52152 3.35911 1.45153 3.36846 2.19857 3.24525C2.32487 3.2218 2.43781 3.15192 2.51516 3.04936C2.59251 2.9468 2.62865 2.81899 2.61648 2.69111ZM1.91484 2.25436C1.94562 2.56556 1.96644 2.76591 1.96586 2.80016L1.72374 2.81289L1.91484 2.25436Z" fill="url(#paint0_linear_82_255)"/>
<defs>
<linearGradient id="paint0_linear_82_255" x1="1.83572" y1="0.700415" x2="1.45963" y2="3.34172" gradientUnits="userSpaceOnUse">
<stop stop-color="#9E6100"/>
<stop offset="0.49" stop-color="#642701"/>
<stop offset="0.65" stop-color="#682A01"/>
<stop offset="0.81" stop-color="#753401"/>
<stop offset="0.98" stop-color="#8A4401"/>
<stop offset="1" stop-color="#8C4601"/>
</linearGradient>
</defs>
</svg>
