<svg width="3" height="3" viewBox="0 0 3 3" fill="none" xmlns="http://www.w3.org/2000/svg">
<path d="M1.0558 1.83031C2.53308 0.714902 2.42018 0.806056 2.44438 0.755887C2.45825 0.726081 2.46299 0.692836 2.45799 0.660343C2.44876 0.622473 2.45799 0.660344 2.29336 0.310337L1.50348 0.346522C1.65477 0.653202 1.69847 0.688668 1.66575 0.781493C1.63304 0.874317 1.74524 0.753818 0.270355 1.86957C0.321243 1.9743 0.38236 2.05855 0.314844 2.15617C0.297111 2.17801 0.314844 2.15617 0.0678959 2.35009L0.858463 2.30913C1.11497 2.11657 1.0928 2.13534 1.11462 2.1019C1.15313 2.00259 1.10874 1.93777 1.0558 1.83031Z" fill="url(#paint0_linear_130_285)"/>
<defs>
<linearGradient id="paint0_linear_130_285" x1="1.45018" y1="0.190275" x2="1.12128" y2="2.50008" gradientUnits="userSpaceOnUse">
<stop stop-color="#9E6100"/>
<stop offset="0.49" stop-color="#642701"/>
<stop offset="0.65" stop-color="#682A01"/>
<stop offset="0.81" stop-color="#753401"/>
<stop offset="0.98" stop-color="#8A4401"/>
<stop offset="1" stop-color="#8C4601"/>
</linearGradient>
</defs>
</svg>
