<svg width="39" height="32" viewBox="0 0 39 32" fill="none" xmlns="http://www.w3.org/2000/svg">
<path d="M36.9937 20.6486C35.84 16.9152 33.9998 13.4299 31.5675 10.3715C30.0741 8.49492 28.3352 6.82761 26.3976 5.41433C24.5572 4.07366 22.5352 3.00207 20.3925 2.23187C18.2847 1.47893 16.0786 1.03672 13.8434 0.919158C11.6636 0.806104 9.47896 1.00973 7.35761 1.52368C5.10459 2.07179 2.94474 2.94923 0.947788 4.12766C1.19407 4.70863 1.13155 4.54863 1.25555 4.85874C2.96151 3.86277 4.78671 3.08679 6.6876 2.54933C10.4595 1.48761 14.4469 1.45539 18.2355 2.45601C22.2565 3.58665 25.2095 5.30364 28.2905 8.08924C31.3767 11.0437 33.4319 14.0513 35.2214 18.2054C36.7029 21.9038 37.4564 25.1183 37.6969 29.5051L35.8008 31.063L35.076 30.9329C35.0587 31.0548 35.0805 30.9019 34.9516 31.8072L36.0063 31.9988L38.532 29.9214C38.4489 26.7744 37.9312 23.6539 36.9937 20.6486Z" fill="#FFE082"/>
</svg>
