<svg width="3" height="4" viewBox="0 0 3 4" fill="none" xmlns="http://www.w3.org/2000/svg">
<path d="M2.60018 1.88392C2.54698 1.83558 1.48524 0.914135 1.3993 0.854695C1.30537 0.799019 1.19533 0.77687 1.08718 0.791872C0.979029 0.806874 0.879169 0.858138 0.803943 0.937277C0.764516 0.975477 0.728451 1.017 0.696153 1.06139C0.349114 1.55481 0.411259 1.46496 0.361727 1.54158C0.284843 1.67816 0.256876 1.83689 0.282456 1.99152C0.308037 2.14615 0.385631 2.28742 0.502403 2.39196C1.64859 3.38336 1.6444 3.4128 1.85319 3.45326C1.95637 3.46245 2.06003 3.44198 2.15197 3.39425C2.24391 3.34653 2.3203 3.27353 2.37216 3.18386C2.73481 2.67121 2.69849 2.73041 2.74891 2.61743C2.79975 2.49422 2.81275 2.35866 2.78626 2.22803C2.75978 2.09739 2.69499 1.9776 2.60018 1.88392ZM0.719972 1.90371C0.701603 1.80668 0.734345 1.80276 1.00423 1.41422L1.52869 2.64323C0.707669 1.92985 0.747945 1.97849 0.728386 1.9049L0.719972 1.90371ZM2.33063 2.36048C2.32225 2.41936 2.33936 2.38962 2.05356 2.7995L1.53121 1.58581L2.29603 2.24184C2.31106 2.25778 2.32263 2.27665 2.33003 2.29727C2.33743 2.31789 2.3405 2.33982 2.33905 2.36168L2.33063 2.36048Z" fill="url(#paint0_linear_82_531)"/>
<defs>
<linearGradient id="paint0_linear_82_531" x1="0.26097" y1="1.93276" x2="2.80974" y2="2.29568" gradientUnits="userSpaceOnUse">
<stop stop-color="#FFE6AB"/>
<stop offset="1" stop-color="#FFD778"/>
</linearGradient>
</defs>
</svg>
