<svg width="6" height="9" viewBox="0 0 6 9" fill="none" xmlns="http://www.w3.org/2000/svg">
<path d="M2.36093 7.95793C2.44062 7.99774 2.52758 8.02092 2.61651 8.02604C2.70544 8.03116 2.79449 8.01812 2.87822 7.98772C3.04361 7.92397 3.17825 7.79922 3.25442 7.63917C6.061 1.94615 5.85955 2.38538 5.90348 2.19667C5.92822 2.05594 5.91633 1.91122 5.86894 1.77642C5.82155 1.64162 5.74026 1.5213 5.63289 1.42702C5.52537 1.34347 3.83966 0.32846 3.75775 0.287552C3.63572 0.227616 3.49805 0.207203 3.36389 0.229158C3.22973 0.251113 3.10574 0.314344 3.00919 0.410049C2.94607 0.470041 2.89462 0.541211 2.85744 0.619959C0.0815553 6.28567 0.278922 5.85805 0.236692 6.03481C0.211964 6.17501 0.223397 6.3192 0.269909 6.45376C0.31642 6.58831 0.396477 6.70878 0.502509 6.80378C0.605591 6.88426 2.2838 7.9177 2.36093 7.95793Z" fill="url(#paint0_linear_130_615)"/>
<defs>
<linearGradient id="paint0_linear_130_615" x1="0.564582" y1="3.76629" x2="5.57832" y2="4.4802" gradientUnits="userSpaceOnUse">
<stop stop-color="#FFE6AB"/>
<stop offset="1" stop-color="#FFD778"/>
</linearGradient>
</defs>
</svg>
