<svg width="4" height="4" viewBox="0 0 4 4" fill="none" xmlns="http://www.w3.org/2000/svg">
<path d="M3.50767 2.19978C3.5566 2.09937 3.57206 1.98591 3.55179 1.87607C3.53152 1.76622 3.47658 1.66576 3.39504 1.58942C1.50512 0.0801653 1.61659 0.126076 1.42794 0.139981C1.37734 0.147183 1.32874 0.164626 1.28511 0.191246C1.24148 0.217866 1.20373 0.253103 1.17418 0.294804C1.12884 0.357008 0.475712 1.53848 0.452301 1.58235C0.404257 1.68209 0.38913 1.79451 0.409102 1.9034C0.429074 2.01229 0.483114 2.11202 0.563426 2.18821C2.43231 3.69447 2.29438 3.5933 2.38151 3.62931C2.45415 3.65182 2.53208 3.65053 2.60394 3.62564C2.6758 3.60075 2.73783 3.55356 2.78098 3.49094C2.82602 3.43084 3.48636 2.24395 3.50767 2.19978Z" fill="url(#paint0_linear_82_438)"/>
<defs>
<linearGradient id="paint0_linear_82_438" x1="0.420797" y1="1.66798" x2="3.54157" y2="2.11235" gradientUnits="userSpaceOnUse">
<stop stop-color="#FFE6AB"/>
<stop offset="1" stop-color="#FFD778"/>
</linearGradient>
</defs>
</svg>
