<svg width="2" height="4" viewBox="0 0 2 4" fill="none" xmlns="http://www.w3.org/2000/svg">
<path d="M1.02444 3.02978C1.16495 3.01702 1.29663 2.95575 1.3969 2.85649C1.49716 2.75723 1.55975 2.62617 1.57393 2.4858C1.58441 2.4122 1.6478 1.10813 1.64474 0.993977C1.64384 0.893705 1.6075 0.796983 1.54216 0.720925C1.47681 0.644867 1.38666 0.594375 1.28767 0.578384C1.23979 0.570894 1.19128 0.568299 1.14288 0.57064C0.648126 0.594598 0.732537 0.589453 0.660744 0.596395C0.522207 0.623786 0.397349 0.698104 0.307219 0.806821C0.217089 0.915538 0.167197 1.05201 0.165955 1.19322C0.0975239 2.63818 0.0692877 2.6406 0.164602 2.83011C0.350384 3.12261 0.63573 3.04738 1.02444 3.02978ZM0.595179 1.08698C0.649821 1.01967 0.651932 1.03499 1.05596 1.01527L0.518744 2.10598C0.569938 1.06837 0.556754 1.14588 0.595179 1.08698ZM1.219 1.49764C1.1693 2.52474 1.17949 2.46826 1.15038 2.52204C1.13521 2.5472 1.11206 2.56656 1.08461 2.57705C0.948622 2.59826 0.810941 2.60667 0.673378 2.60217L1.219 1.49764Z" fill="url(#paint0_linear_82_473)"/>
<defs>
<linearGradient id="paint0_linear_82_473" x1="0.0943892" y1="1.69582" x2="1.65057" y2="1.91741" gradientUnits="userSpaceOnUse">
<stop stop-color="#FFE6AB"/>
<stop offset="1" stop-color="#FFD778"/>
</linearGradient>
</defs>
</svg>
