<svg width="7" height="5" viewBox="0 0 7 5" fill="none" xmlns="http://www.w3.org/2000/svg">
<path d="M6.00405 1.12388C5.97686 0.961546 5.88988 0.81527 5.76024 0.71386C5.70056 0.670472 5.6323 0.640316 5.56004 0.625403C5.48778 0.610491 5.41317 0.611166 5.34119 0.627383C0.283935 1.75945 0.662637 1.66715 0.526184 1.73545C0.416843 1.80473 0.32604 1.89962 0.261641 2.0119C0.197242 2.12418 0.16119 2.25047 0.156606 2.37983C0.153252 2.50608 0.32402 4.35332 0.332933 4.44476C0.347031 4.56244 0.396466 4.67309 0.47472 4.76211C0.552974 4.85113 0.65637 4.91434 0.771275 4.94341C0.840569 4.9576 0.91208 4.95699 0.98112 4.9416C6.05579 3.84126 5.66651 3.93937 5.80876 3.86458C5.92018 3.79536 6.01289 3.69985 6.07876 3.58642C6.14463 3.473 6.18163 3.34513 6.18653 3.21406C6.18579 3.09941 6.01398 1.20816 6.00405 1.12388Z" fill="url(#paint0_linear_130_562)"/>
<defs>
<linearGradient id="paint0_linear_130_562" x1="0.157278" y1="2.35799" x2="6.18619" y2="3.21645" gradientUnits="userSpaceOnUse">
<stop stop-color="#FFE6AB"/>
<stop offset="1" stop-color="#FFD778"/>
</linearGradient>
</defs>
</svg>
