<svg width="96" height="110" viewBox="0 0 96 110" fill="none" xmlns="http://www.w3.org/2000/svg">
<path d="M94.1299 61.2412C94.4855 60.9415 94.7095 60.5145 94.754 60.0516C94.7985 59.5887 94.6599 59.1268 94.3679 58.7649C94.7115 58.4506 94.9184 58.0143 94.9445 57.5494C94.9707 57.0845 94.8139 56.6279 94.5077 56.2771C94.8389 55.9503 95.0291 55.5068 95.0375 55.0416C95.0459 54.5764 94.8719 54.1264 94.5527 53.7879C94.8198 53.5001 94.9852 53.1326 95.0232 52.7418C95.0612 52.3509 94.9699 51.9584 94.7632 51.6245C94.4108 51.0869 94.4267 51.523 94.7339 50.9404C94.9122 50.5927 94.9702 50.1958 94.8987 49.8116C94.8273 49.4275 94.6305 49.0779 94.3392 48.8176C94.6303 48.4548 94.767 47.9921 94.7198 47.5294C94.6726 47.0667 94.4453 46.6411 94.0869 46.3446C94.3616 45.9726 94.4788 45.5074 94.413 45.0497C94.3473 44.592 94.104 44.1786 93.7357 43.899C93.9956 43.5181 94.0945 43.05 94.0107 42.5966C93.9269 42.1432 93.6672 41.7413 93.2883 41.4786C93.4097 41.2861 93.492 41.0716 93.5305 40.8473C93.5689 40.623 93.5628 40.3933 93.5125 40.1714C93.4622 39.9494 93.3686 39.7396 93.2372 39.5538C93.1057 39.368 92.9389 39.21 92.7464 39.0887C92.8604 38.8924 92.9343 38.6754 92.9638 38.4504C92.9934 38.2253 92.978 37.9966 92.9185 37.7776C92.859 37.5585 92.7566 37.3534 92.6173 37.1742C92.478 36.995 92.3045 36.8453 92.1069 36.7336C92.2143 36.5349 92.2807 36.3166 92.3023 36.0917C92.3238 35.8669 92.3 35.6399 92.2323 35.4244C92.1646 35.2089 92.0544 35.0092 91.9081 34.837C91.7618 34.6649 91.5825 34.5238 91.3808 34.4222C91.5451 34.0754 91.5888 33.6835 91.5048 33.309C91.4208 32.9344 91.2139 32.5988 90.9171 32.3554C90.4167 31.9844 90.5729 32.3941 90.6787 31.7365C90.7456 31.3655 90.681 30.9828 90.496 30.6544C90.311 30.326 90.0171 30.0724 89.6651 29.9374C89.9759 29.0215 89.5694 28.0595 88.6787 27.7767C88.9533 26.8409 88.5028 25.9141 87.6108 25.6749C87.8564 24.6863 87.3288 23.8216 86.4631 23.6374C86.6762 22.6369 86.1023 21.807 85.2396 21.6695C85.4149 20.6441 84.7901 19.863 83.9442 19.7791C84.087 18.7759 83.4466 18.0023 82.5806 17.957C82.6739 16.976 82.0304 16.2239 81.1518 16.2158C81.2019 15.2481 80.5542 14.5247 79.6606 14.5534C79.6753 13.7829 79.2362 13.1355 78.4964 12.9912C77.9064 12.9072 78.2044 13.1933 78.069 12.5696C77.9972 12.2254 77.7964 11.9216 77.5079 11.7206C77.2193 11.5195 76.8648 11.4365 76.517 11.4884C76.4709 10.7336 75.9957 10.1347 75.2454 10.0644C74.6581 10.0295 74.9725 10.2692 74.7822 9.68893C74.6814 9.35764 74.4569 9.07791 74.1552 8.90788C73.8535 8.73784 73.4979 8.69058 73.1623 8.77591C73.0545 7.99288 72.5032 7.50008 71.7962 7.50177C71.2152 7.52626 71.537 7.7305 71.3071 7.18842C71.1809 6.8709 70.9353 6.61542 70.623 6.47667C70.3107 6.33792 69.9565 6.32692 69.6362 6.44603C69.4376 5.54771 68.6403 5.10519 67.8205 5.41982C67.5871 4.54335 66.7854 4.13188 65.9718 4.48882C65.9259 4.29563 65.8361 4.11563 65.7094 3.96282C65.5826 3.81 65.4223 3.68848 65.2409 3.60771C65.0595 3.52695 64.862 3.48911 64.6636 3.49715C64.4652 3.50518 64.2714 3.55888 64.0971 3.65405C64.0433 3.4644 63.9462 3.28982 63.8135 3.14406C63.6808 2.9983 63.516 2.88533 63.3322 2.81404C63.1484 2.74275 62.9506 2.71508 62.7543 2.73322C62.558 2.75137 62.3686 2.81482 62.201 2.91858C62.1407 2.72998 62.0368 2.55822 61.8978 2.4172C61.7588 2.27618 61.5885 2.16986 61.4008 2.10683C61.2131 2.0438 61.0132 2.02583 60.8172 2.05438C60.6213 2.08293 60.4348 2.15719 60.2729 2.27116C59.9166 1.46982 59.0706 1.24944 58.341 1.73532C58.2784 1.58605 58.1865 1.4509 58.0706 1.33791C57.9547 1.22492 57.8173 1.13641 57.6665 1.07764C57.5156 1.01888 57.3546 0.99106 57.1928 0.995846C57.031 1.00063 56.8718 1.03792 56.7247 1.1055C56.2042 1.33845 56.5577 1.40584 56.187 0.997243C55.7196 0.513961 55.0266 0.485958 54.4464 0.949246C54.29 0.670694 54.0295 0.465555 53.722 0.378829C53.4146 0.292102 53.0853 0.330872 52.8063 0.486632C52.2936 0.767001 52.6669 0.798222 52.2658 0.431603C51.7429 -0.020603 51.0523 0.0711574 50.5428 0.551816C50.0661 -0.105821 49.2158 -0.12454 48.6006 0.499475C48.1072 -0.126421 47.2563 -0.123302 46.6455 0.537903C46.1498 -0.0371519 45.3094 -0.0398381 44.7085 0.67152C44.1479 0.0726101 43.3093 0.228586 42.7893 0.885656C42.2076 0.315417 41.3792 0.519158 40.8824 1.20147C40.3454 0.727769 39.5238 0.815495 38.9946 1.6053C38.3812 1.10366 37.5638 1.38451 37.1284 2.0975C36.4656 1.61806 35.6844 1.96986 35.2889 2.67635C34.6209 2.23274 33.8537 2.60604 33.4886 3.33878C32.9255 2.99783 32.1213 3.20258 31.7065 4.07934C31.0113 3.7074 30.2686 4.16462 29.9564 4.90246C29.2476 4.55782 28.5251 5.06178 28.2419 5.80132C27.5147 5.50036 26.8253 6.02853 26.5646 6.78102C25.8316 6.52067 25.1614 7.06862 24.9263 7.82963C24.3171 7.64053 23.7543 8.01612 23.4598 8.59563C23.2188 9.10722 23.4937 8.9051 23.0269 8.91418C22.3855 8.95201 21.9288 9.48894 21.7783 10.1353C21.1528 10.0096 20.6207 10.4432 20.3767 11.0275C20.1428 11.5572 20.4184 11.3332 19.949 11.3955C19.3188 11.491 18.897 12.0743 18.786 12.7165C18.1595 12.6493 17.6623 13.1292 17.4575 13.7288C17.2881 14.2677 17.5306 14.0195 17.0755 14.118C16.5709 14.2387 16.0924 14.7408 16.0167 15.5294C15.2643 15.5246 14.7583 16.2543 14.7098 17.0224C13.9745 17.0518 13.475 17.8214 13.459 18.5673C12.7179 18.6373 12.2505 19.4042 12.257 20.163C11.5234 20.2657 11.0826 21.0511 11.116 21.8089C10.3869 21.9488 9.97577 22.7481 10.0324 23.497C9.43707 23.6389 8.91464 24.3127 9.00787 25.2325C8.31394 25.4335 7.9301 26.2294 8.04135 27.0056C7.33993 27.242 7.00422 28.0764 7.13627 28.8263C6.45021 29.0918 6.13805 29.932 6.2933 30.673C5.62978 30.9685 5.3258 31.8025 5.51381 32.5531C5.25258 32.709 5.04163 32.9366 4.90607 33.209C4.77052 33.4813 4.71606 33.7868 4.74917 34.0892C4.80129 34.6304 4.92294 34.2895 4.55902 34.6203C4.3375 34.8471 4.18306 35.1307 4.1128 35.4399C4.04254 35.749 4.0592 36.0716 4.16095 36.3719C3.9043 36.5492 3.70417 36.7967 3.58449 37.0848C3.46481 37.3729 3.43065 37.6894 3.48609 37.9964C3.57369 38.5279 3.67759 38.1747 3.33314 38.54C3.12696 38.7816 2.99149 39.0754 2.94166 39.3891C2.89184 39.7028 2.92958 40.0242 3.05074 40.3178C2.76453 40.5548 2.56449 40.8797 2.48162 41.2419C2.39875 41.6042 2.43769 41.9837 2.59239 42.3216C2.31439 42.5683 2.12551 42.8998 2.05504 43.2647C1.98458 43.6296 2.03645 44.0076 2.20263 44.34C1.93223 44.5959 1.75392 44.9338 1.6954 45.3014C1.63689 45.669 1.70146 46.0457 1.87907 46.3728C1.6178 46.6387 1.4511 46.983 1.4046 47.3528C1.3581 47.7227 1.43438 48.0976 1.62171 48.4198C1.36811 48.693 1.21198 49.0423 1.17765 49.4134C1.14332 49.7846 1.23272 50.1566 1.43191 50.4716C1.18853 50.7543 1.04469 51.1091 1.02249 51.4815C1.00028 51.8539 1.10094 52.2233 1.30899 52.5329C1.11164 52.78 0.986122 53.0767 0.946182 53.3904C0.906241 53.7041 0.953424 54.0228 1.08256 54.3114C1.30354 54.7791 1.31224 54.4099 1.07702 54.8809C0.93941 55.1653 0.884315 55.4825 0.917994 55.7967C0.951674 56.1108 1.07278 56.4091 1.26754 56.6579C1.05128 56.9619 0.941786 57.329 0.956155 57.7018C0.970522 58.0747 1.10795 58.4322 1.34697 58.7187C1.14283 59.0309 1.04697 59.4016 1.07415 59.7736C1.10132 60.1456 1.25002 60.4983 1.49736 60.7775C1.30227 61.0949 1.2176 61.4679 1.25652 61.8384C1.29545 62.2089 1.45579 62.5562 1.71258 62.8261C1.52867 63.1498 1.45689 63.5252 1.5084 63.894C1.55991 64.2627 1.73182 64.6041 1.9974 64.865C1.65888 65.5309 1.77496 66.4272 2.34977 66.8916C2.00139 67.6268 2.21607 68.4981 2.76799 68.9008C2.47487 69.5902 2.64213 70.4865 3.25445 70.893C2.98351 71.5977 3.1726 72.4776 3.80709 72.8652C3.56379 73.5812 3.7754 74.457 4.42659 74.8129C4.20582 75.5248 4.44336 76.4067 5.11092 76.7333C4.91676 77.4636 5.17785 78.3342 5.8604 78.6239C5.67991 79.3952 6.00035 80.2255 6.67538 80.4825C6.60222 80.7926 6.61986 81.1172 6.72618 81.4176C6.8325 81.7179 7.02302 81.9813 7.27498 82.1763C7.68182 82.4341 7.52779 82.1124 7.52566 82.6751C7.55291 83.3223 7.89542 83.9292 8.4933 84.0947C8.43867 84.4083 8.47751 84.731 8.60501 85.0226C8.7325 85.3142 8.94299 85.5618 9.21025 85.7346C9.63448 85.9559 9.44462 85.6461 9.49572 86.2115C9.5605 86.8349 9.93986 87.4397 10.5589 87.5424C10.522 88.1952 10.8096 88.8624 11.3891 89.1229C11.8249 89.297 11.6207 89.0194 11.7076 89.5728C11.8219 90.2081 12.2401 90.7623 12.8673 90.8078C12.8734 91.5861 13.3583 92.3399 14.108 92.3638C14.1407 93.1435 14.6447 93.883 15.4049 93.8669C15.465 94.6432 15.9904 95.3687 16.7564 95.312C16.8458 96.1046 17.4081 96.794 18.1601 96.6988C18.259 97.3562 18.6657 97.9405 19.3106 98.0324C19.7911 98.0813 19.5149 97.847 19.7206 98.3881C19.9652 98.998 20.4973 99.4199 21.1264 99.2804C21.2957 100.06 21.9313 100.679 22.6791 100.476C22.8839 101.263 23.5427 101.84 24.2816 101.596C24.4641 102.232 24.9649 102.754 25.6207 102.718C26.0981 102.669 25.8052 102.501 26.0808 102.996C26.4165 103.565 27.0096 103.883 27.6179 103.617C27.9028 104.388 28.6267 104.867 29.3448 104.513C29.654 105.269 30.3912 105.722 31.1103 105.328C31.4556 106.086 32.2273 106.486 32.9119 106.059C33.2787 106.804 34.0623 107.171 34.7445 106.71C35.1481 107.452 35.9494 107.764 36.6142 107.271C37.0708 108.036 37.8881 108.252 38.4966 107.744C38.9606 108.456 39.7895 108.693 40.4086 108.128C40.907 108.838 41.7462 109.004 42.3437 108.419C42.8722 109.105 43.7209 109.239 44.2945 108.616C44.8394 109.273 45.6993 109.379 46.2585 108.72C46.8478 109.374 47.707 109.399 48.2342 108.726C48.8575 109.363 49.7248 109.331 50.2189 108.633C50.844 109.224 51.7134 109.195 52.1958 108.442C52.8973 109.044 53.754 108.881 54.1867 108.153C54.3316 108.286 54.5059 108.383 54.6953 108.436C54.8847 108.489 55.084 108.497 55.277 108.459C55.47 108.421 55.6515 108.338 55.8066 108.217C55.9617 108.096 56.0862 107.941 56.17 107.763C56.3221 107.889 56.5019 107.978 56.6947 108.022C56.8876 108.066 57.0881 108.064 57.2801 108.017C57.4722 107.969 57.6503 107.877 57.8002 107.748C57.9501 107.619 58.0675 107.456 58.1429 107.273C58.3029 107.392 58.4885 107.472 58.6849 107.507C58.8813 107.541 59.0831 107.529 59.2739 107.471C59.4648 107.414 59.6395 107.312 59.7841 107.175C59.9287 107.037 60.039 106.868 60.1063 106.68C60.8971 107.151 61.734 106.82 62.0554 105.983C62.1998 106.071 62.3602 106.129 62.5272 106.155C62.6943 106.181 62.8648 106.173 63.029 106.133C63.1931 106.093 63.3478 106.021 63.484 105.921C63.6203 105.821 63.7354 105.695 63.823 105.55C64.1261 105.047 63.7955 105.195 64.3436 105.317C65.0735 105.445 65.6704 105.019 65.885 104.299C66.6915 104.642 67.5194 104.236 67.7612 103.308C68.6014 103.62 69.4061 103.138 69.605 102.221C69.935 102.335 70.2963 102.316 70.6126 102.168C70.9289 102.02 71.1752 101.755 71.2994 101.429C71.5329 100.85 71.2082 101.077 71.7913 101.089C72.5048 101.076 73.0675 100.564 73.178 99.7537C74.069 99.9488 74.8068 99.3203 74.8995 98.3782C75.8113 98.5299 76.5146 97.8526 76.5708 96.9102C77.4822 97.0132 78.1715 96.3144 78.1911 95.3546C79.1206 95.4162 79.7737 94.6636 79.7555 93.7129C80.1189 93.7214 80.4727 93.5954 80.7488 93.359C81.0249 93.1225 81.2039 92.7924 81.2515 92.432C81.3426 91.7919 81.0763 92.1049 81.6573 91.9439C82.0096 91.8224 82.308 91.581 82.5005 91.2619C82.6929 90.9427 82.7671 90.5661 82.7102 90.1978C83.642 90.1233 84.209 89.2731 84.08 88.314C84.9524 88.1946 85.556 87.3788 85.3798 86.3569C85.7469 86.2866 86.0768 86.0875 86.3101 85.7954C86.5434 85.5033 86.6647 85.1375 86.6521 84.7639C86.6474 84.0955 86.4251 84.4757 86.9767 84.196C87.3068 84.0043 87.5623 83.7065 87.7014 83.351C87.8405 82.9955 87.8551 82.6033 87.7428 82.2385C88.1056 82.1304 88.4191 81.8986 88.6287 81.5834C88.8383 81.2682 88.9308 80.8895 88.8902 80.5131C88.8305 79.8539 88.6447 80.2345 89.1731 79.9125C89.4886 79.6905 89.7208 79.3693 89.8325 79.0001C89.9443 78.6308 89.9292 78.2348 89.7898 77.8752C90.1447 77.7322 90.4394 77.471 90.6239 77.1358C90.8084 76.8006 90.8715 76.4119 90.8023 76.0356C90.6905 75.3835 90.5409 75.7839 91.0385 75.4039C91.3363 75.1538 91.5426 74.812 91.6249 74.432C91.7072 74.052 91.661 73.6554 91.4934 73.3045C91.695 73.1976 91.8735 73.0519 92.0187 72.8758C92.1639 72.6998 92.2729 72.4968 92.3395 72.2786C92.4062 72.0603 92.429 71.831 92.4069 71.6039C92.3848 71.3768 92.3181 71.1563 92.2106 70.955C92.6092 70.7197 92.8983 70.3361 93.0146 69.8881C93.131 69.4401 93.065 68.9643 92.8312 68.5648C93.2197 68.3125 93.4931 67.9172 93.5922 67.4646C93.6913 67.0121 93.6081 66.5388 93.3606 66.1471C93.7397 65.8786 93.9977 65.4716 94.0788 65.0142C94.1599 64.5568 94.0575 64.0859 93.7939 63.7035C94.1603 63.4182 94.4007 63.0009 94.4634 62.5408C94.5262 62.0806 94.4065 61.6142 94.1299 61.2412Z" fill="url(#paint0_linear_130_206)"/>
<defs>
<linearGradient id="paint0_linear_130_206" x1="37.486" y1="108.046" x2="58.4523" y2="1.21014" gradientUnits="userSpaceOnUse">
<stop stop-color="#F0D23B"/>
<stop offset="0.1" stop-color="#9B550C"/>
<stop offset="0.3" stop-color="#DB9B23"/>
<stop offset="0.31" stop-color="#D59320"/>
<stop offset="0.43" stop-color="#AF6311"/>
<stop offset="0.49" stop-color="#A1510B"/>
<stop offset="0.74" stop-color="#DBA423"/>
<stop offset="0.77" stop-color="#D0971F"/>
<stop offset="0.83" stop-color="#B47415"/>
<stop offset="0.87" stop-color="#9B560C"/>
<stop offset="0.89" stop-color="#A05D11"/>
<stop offset="0.91" stop-color="#AD721F"/>
<stop offset="0.94" stop-color="#C29335"/>
<stop offset="0.98" stop-color="#DFC154"/>
<stop offset="1" stop-color="#F0DC66"/>
</linearGradient>
</defs>
</svg>
