<svg width="4" height="3" viewBox="0 0 4 3" fill="none" xmlns="http://www.w3.org/2000/svg">
<path d="M0.944137 0.360424C0.76088 1.64743 0.742831 1.59336 0.804783 1.74594C0.834177 1.81943 0.89128 1.87841 0.963772 1.91018C1.01275 1.92789 2.72848 2.24943 2.76453 2.25242C2.84526 2.25167 2.92264 2.22011 2.98086 2.16418C3.03908 2.10826 3.07373 2.0322 3.07772 1.95157C3.25977 0.672983 3.2457 0.771822 3.25738 0.689807C3.25434 0.628391 3.23459 0.56897 3.20026 0.517953C3.16594 0.466936 3.11833 0.426259 3.06259 0.400309C3.01782 0.383206 1.29457 0.069174 1.26273 0.0667853C1.18239 0.0665461 1.10492 0.0966674 1.04584 0.151118C0.986764 0.205568 0.950437 0.280328 0.944137 0.360424Z" fill="url(#paint0_linear_82_441)"/>
<defs>
<linearGradient id="paint0_linear_82_441" x1="0.845893" y1="0.99011" x2="3.16544" y2="1.32039" gradientUnits="userSpaceOnUse">
<stop stop-color="#FFE6AB"/>
<stop offset="1" stop-color="#FFD778"/>
</linearGradient>
</defs>
</svg>
