<svg width="5" height="3" viewBox="0 0 5 3" fill="none" xmlns="http://www.w3.org/2000/svg">
<path d="M3.82716 1.65877C3.78177 1.65231 3.85309 1.64784 3.11813 1.67479C1.44243 0.897597 1.58338 0.968845 1.53561 0.962043L0.854562 0.986922C0.915978 0.983482 0.795511 0.939519 2.9142 1.92601L3.48299 1.90221C3.22535 2.58202 3.24275 2.57962 3.15917 2.6189C3.07559 2.65818 2.9425 2.63435 3.77607 2.59951C3.79785 2.59854 3.81914 2.59267 3.83834 2.58232C3.85754 2.57197 3.87415 2.55741 3.88694 2.53975C3.99508 2.30832 4.08765 2.06992 4.16401 1.82615L3.82716 1.65877ZM3.50651 1.85682L3.1154 1.67683C3.15362 1.68228 3.14884 1.68159 3.50583 1.84453L3.50651 1.85682Z" fill="url(#paint0_linear_130_415)"/>
<defs>
<linearGradient id="paint0_linear_130_415" x1="2.55692" y1="1.09772" x2="2.35557" y2="2.51178" gradientUnits="userSpaceOnUse">
<stop stop-color="#9E6100"/>
<stop offset="0.49" stop-color="#642701"/>
<stop offset="0.65" stop-color="#682A01"/>
<stop offset="0.81" stop-color="#753401"/>
<stop offset="0.98" stop-color="#8A4401"/>
<stop offset="1" stop-color="#8C4601"/>
</linearGradient>
</defs>
</svg>
