<svg width="3" height="6" viewBox="0 0 3 6" fill="none" xmlns="http://www.w3.org/2000/svg">
<path d="M2.12236 4.22722C2.10498 4.28457 2.07632 4.33787 2.03806 4.384C1.99981 4.43014 1.95273 4.46817 1.89959 4.49588C0.548998 5.18111 0.677243 5.12428 0.579623 5.14685L1.1777 5.0904C1.20534 5.08933 1.23272 5.08457 1.2591 5.07625C1.33569 5.05068 2.53191 4.44001 2.57545 4.40545C2.67785 4.32812 2.74961 4.21706 2.77803 4.09193C2.80645 3.96679 2.7897 3.83564 2.73075 3.72166L2.35045 3.75548C2.17363 3.33981 2.2425 3.50409 2.04582 3.03195L2.42581 3.00024L1.94465 1.85893L1.56495 1.88855C1.24557 1.11786 1.28046 1.20436 1.26122 1.17373C1.69528 1.13899 1.64632 1.15133 1.6346 1.1282C1.59594 1.04861 1.53509 0.981889 1.45939 0.936087C1.38368 0.890285 1.29635 0.867352 1.20791 0.870047C1.00829 0.872961 0.809047 0.888305 0.611335 0.915985C0.70123 0.922551 0.78736 0.954737 0.859525 1.00874C0.93169 1.06275 0.986865 1.13631 1.01852 1.2207C2.21001 4.06376 2.20724 3.93248 2.12236 4.22722Z" fill="url(#paint0_linear_82_265)"/>
<defs>
<linearGradient id="paint0_linear_82_265" x1="1.89107" y1="0.969468" x2="1.28051" y2="5.25738" gradientUnits="userSpaceOnUse">
<stop stop-color="#9E6100"/>
<stop offset="0.49" stop-color="#642701"/>
<stop offset="0.65" stop-color="#682A01"/>
<stop offset="0.81" stop-color="#753401"/>
<stop offset="0.98" stop-color="#8A4401"/>
<stop offset="1" stop-color="#8C4601"/>
</linearGradient>
</defs>
</svg>
