<svg width="3" height="3" viewBox="0 0 3 3" fill="none" xmlns="http://www.w3.org/2000/svg">
<path d="M1.30047 1.12978C1.35094 1.13697 1.28871 1.04657 1.87263 2.21967C1.63239 2.40002 1.6279 2.43157 1.56511 2.42048C2.30417 2.56434 2.25129 2.55895 2.28914 2.54932C2.32698 2.53969 2.28914 2.54932 2.54679 2.35214C1.59545 0.444428 1.64865 0.507788 1.58556 0.498805C0.784917 0.335452 0.906589 0.354922 0.93814 0.374434C0.952432 0.384279 0.963843 0.397754 0.971202 0.413472L1.26827 1.00933L0.773765 0.911026C0.698991 0.969038 0.673171 0.999692 0.625709 1.00152C0.578246 1.00334 1.27914 1.12889 1.30047 1.12978Z" fill="url(#paint0_linear_82_208)"/>
<defs>
<linearGradient id="paint0_linear_82_208" x1="1.75618" y1="0.475896" x2="1.4762" y2="2.44215" gradientUnits="userSpaceOnUse">
<stop stop-color="#9E6100"/>
<stop offset="0.49" stop-color="#642701"/>
<stop offset="0.65" stop-color="#682A01"/>
<stop offset="0.81" stop-color="#753401"/>
<stop offset="0.98" stop-color="#8A4401"/>
<stop offset="1" stop-color="#8C4601"/>
</linearGradient>
</defs>
</svg>
