<svg width="57" height="32" viewBox="0 0 57 32" fill="none" xmlns="http://www.w3.org/2000/svg">
<path d="M0.283506 1.22457L3.22923 1.85857L3.57675 2.41655C4.64588 10.2929 7.63993 16.7504 12.5014 22.2381C14.1939 24.1017 16.1189 25.7401 18.229 27.1131C21.3892 29.1757 24.9481 30.5502 28.6743 31.1472C31.1538 31.542 33.6781 31.5667 36.1649 31.2203C37.4206 31.0456 38.6618 30.7792 39.8787 30.4232C42.7228 29.5408 44.4392 28.7425 47.0504 27.1296C49.4115 25.6055 51.5581 23.7724 53.433 21.6789C54.3933 20.6073 55.2846 19.4758 56.1017 18.2913L55.4953 17.8037C54.6654 19.0011 53.7588 20.1434 52.7812 21.2235C50.9989 23.2008 48.9657 24.9368 46.7335 26.3872C44.6027 27.7712 42.2889 28.8508 39.8594 29.5944C38.6708 29.9551 37.4579 30.2298 36.23 30.4164C35.0058 30.5984 33.77 30.6907 32.5325 30.6924C30.088 30.689 27.6571 30.3284 25.3169 29.6221C23.4872 29.073 21.723 28.3254 20.0559 27.3925C14.8639 24.4068 11.2846 20.5071 8.38519 15.3589C6.14405 11.2647 4.70001 6.78239 4.12967 2.14985C4.00551 1.95194 4.01032 1.96335 3.54075 1.20776L0.382626 0.543512C0.290392 1.1762 0.312558 1.0356 0.283506 1.22457Z" fill="#FFE082"/>
</svg>
