<svg width="6" height="8" viewBox="0 0 6 8" fill="none" xmlns="http://www.w3.org/2000/svg">
<path d="M1.27182 0.578312C5.48833 4.66614 5.14116 4.31451 5.22891 4.45129C5.30892 4.59606 5.34358 4.76154 5.32838 4.92625C5.31319 5.09096 5.24884 5.24731 5.14369 5.37499C3.70322 7.13903 3.81202 7.04242 3.60086 7.15614C3.48511 7.21335 3.35466 7.23388 3.22692 7.215C3.98345 7.36171 3.99917 7.38832 4.2315 7.31417C4.46383 7.24002 4.53065 7.11306 4.82699 6.74339L4.40487 6.66135C4.75953 6.22444 4.62687 6.38589 4.97472 5.96263L5.38728 6.04331L5.82106 5.51287C5.9393 5.37103 6.00572 5.19317 6.00942 5.00854C6.01312 4.82392 5.95387 4.64354 5.84141 4.49708C5.79669 4.45172 1.97581 0.734607 1.85396 0.649019C1.7321 0.56343 1.79013 0.600936 0.984451 0.422852C1.09238 0.44816 1.19158 0.501829 1.27182 0.578312Z" fill="url(#paint0_linear_130_369)"/>
<defs>
<linearGradient id="paint0_linear_130_369" x1="3.77915" y1="0.82079" x2="2.87138" y2="7.19605" gradientUnits="userSpaceOnUse">
<stop stop-color="#9E6100"/>
<stop offset="0.49" stop-color="#642701"/>
<stop offset="0.65" stop-color="#682A01"/>
<stop offset="0.81" stop-color="#753401"/>
<stop offset="0.98" stop-color="#8A4401"/>
<stop offset="1" stop-color="#8C4601"/>
</linearGradient>
</defs>
</svg>
