<svg width="3" height="3" viewBox="0 0 3 3" fill="none" xmlns="http://www.w3.org/2000/svg">
<path d="M2.04314 0.600729C2.09301 0.712624 2.26761 1.24927 2.30794 1.39392C2.34968 1.53014 2.3484 1.67592 2.30425 1.81138C2.2601 1.94684 2.17525 2.06538 2.06126 2.15084C1.93232 2.23484 2.07866 2.16551 0.448662 2.83025C0.347623 2.87293 0.236919 2.88748 0.128282 2.87236C0.86637 2.97746 0.85887 2.99589 1.05368 2.94564C1.11782 2.92309 2.55268 2.34511 2.66116 2.285C2.73538 2.24213 2.80022 2.18478 2.85183 2.11635C2.90344 2.04792 2.94076 1.96982 2.96159 1.88667C2.99859 1.72327 2.98822 1.55271 2.93168 1.395C2.70822 0.722238 2.72221 0.709607 2.58087 0.538384C2.36717 0.327613 2.3119 0.356299 1.54446 0.234838C1.65146 0.249518 1.75311 0.290668 1.84019 0.354559C1.92727 0.418451 1.99703 0.503065 2.04314 0.600729Z" fill="url(#paint0_linear_130_408)"/>
<defs>
<linearGradient id="paint0_linear_130_408" x1="1.8485" y1="0.273256" x2="1.45124" y2="3.06318" gradientUnits="userSpaceOnUse">
<stop stop-color="#9E6100"/>
<stop offset="0.49" stop-color="#642701"/>
<stop offset="0.65" stop-color="#682A01"/>
<stop offset="0.81" stop-color="#753401"/>
<stop offset="0.98" stop-color="#8A4401"/>
<stop offset="1" stop-color="#8C4601"/>
</linearGradient>
</defs>
</svg>
