<svg width="39" height="36" viewBox="0 0 39 36" fill="none" xmlns="http://www.w3.org/2000/svg">
<path d="M4.49273 15.3877C5.52679 17.5862 6.75558 19.6877 8.1644 21.6671C11.2445 25.8776 14.2994 28.7736 18.5952 31.4386C20.6868 32.6995 22.9193 33.7101 25.2469 34.4497C26.6133 34.8833 28.0088 35.2189 29.4229 35.4542C32.3257 35.9392 35.285 35.9838 38.201 35.5862C39.1145 35.4546 38.5233 35.5377 37.5657 35.6481C36.2632 35.7545 36.7567 35.7239 35.3776 35.7807C33.9101 35.815 32.442 35.7387 30.9859 35.5523C28.2789 35.2094 25.6305 34.5024 23.1127 33.4507C20.8852 32.5155 18.7715 31.3299 16.8122 29.9166C12.6743 26.8514 9.86771 23.7033 7.15431 19.3884C4.50125 14.9662 2.91238 10.9358 1.76786 5.71358C1.38042 3.85607 1.11067 1.97594 0.960213 0.0844302L0.962009 0.071813L0.892612 0.0619316L0.946353 0.648887L0.529391 0.638867C0.983559 5.74806 2.32474 10.739 4.49273 15.3877Z" fill="url(#paint0_linear_82_129)"/>
<defs>
<linearGradient id="paint0_linear_82_129" x1="21.7277" y1="3.02006" x2="17.3529" y2="33.7441" gradientUnits="userSpaceOnUse">
<stop stop-color="#9E6100"/>
<stop offset="0.49" stop-color="#642701"/>
<stop offset="0.65" stop-color="#682A01"/>
<stop offset="0.81" stop-color="#753401"/>
<stop offset="0.98" stop-color="#8A4401"/>
<stop offset="1" stop-color="#8C4601"/>
</linearGradient>
</defs>
</svg>
