<svg width="4" height="2" viewBox="0 0 4 2" fill="none" xmlns="http://www.w3.org/2000/svg">
<path d="M2.78639 0.0222949C2.71699 0.0124134 1.35378 0.0328637 1.24925 0.058746C0.926653 0.139401 0.807811 0.386384 0.796849 0.719534C0.80165 1.36389 0.799794 1.24133 0.804946 1.34076C0.812656 1.48548 0.871314 1.6228 0.970544 1.72843C1.06977 1.83405 1.20317 1.90116 1.34713 1.91788C1.41232 1.92717 2.74819 1.90282 2.85273 1.89196C2.953 1.87911 3.04746 1.83767 3.12483 1.77259C3.20219 1.70752 3.2592 1.62156 3.28905 1.52497C3.32014 1.42713 3.33472 1.32478 3.33216 1.22215C3.32495 0.564572 3.33099 0.627654 3.3066 0.497591C3.2828 0.372834 3.21927 0.259127 3.12551 0.173458C3.03175 0.0877903 2.91278 0.0347621 2.78639 0.0222949ZM1.30603 1.37778C1.28036 1.35648 1.26328 1.32661 1.25793 1.29369C1.26212 1.26425 1.25793 1.29369 1.24898 0.783913L2.36825 1.39171C1.31385 1.41322 1.37244 1.42371 1.30603 1.37778ZM2.7713 0.535085C2.80229 0.545116 2.82836 0.566446 2.84433 0.594831C2.8768 0.653094 2.86688 0.632373 2.87132 1.14365L1.76346 0.546061C2.8518 0.527238 2.74456 0.526987 2.77971 0.536283L2.7713 0.535085Z" fill="url(#paint0_linear_82_548)"/>
<defs>
<linearGradient id="paint0_linear_82_548" x1="0.784864" y1="0.788633" x2="3.36308" y2="1.15574" gradientUnits="userSpaceOnUse">
<stop stop-color="#FFE6AB"/>
<stop offset="1" stop-color="#FFD778"/>
</linearGradient>
</defs>
</svg>
