<svg width="4" height="5" viewBox="0 0 4 5" fill="none" xmlns="http://www.w3.org/2000/svg">
<path d="M0.936101 3.36069C0.969549 3.38251 0.897884 3.35525 1.61382 3.5303C1.53959 3.65184 1.44171 3.75724 1.32598 3.84026C1.21377 3.90987 1.08181 3.94074 0.950354 3.92812C0.919301 3.9237 0.652448 3.86377 1.57723 4.07831C1.66192 4.09561 1.74937 4.0942 1.83347 4.07418C1.91756 4.05416 1.99627 4.01602 2.06408 3.96241C2.19096 3.85863 2.09513 3.96683 3.16828 2.55748C3.22153 2.48923 3.26365 2.41297 3.29306 2.33154C3.34131 2.19995 3.34649 2.05643 3.30786 1.92171C3.26922 1.78698 3.18875 1.66802 3.07809 1.582C2.62137 1.17822 2.63331 1.17992 2.49441 1.1114C2.40193 1.0763 1.45974 0.847091 1.7539 0.920658C1.83708 0.948848 1.91362 0.993749 1.97881 1.0526C2.43349 1.45366 2.58298 1.53344 2.64147 1.85858C2.69997 2.18373 2.54068 2.30971 2.36268 2.55L1.82317 2.41957L0.570182 3.03807L0.936101 3.36069ZM2.23207 2.71419L1.62986 3.5204L1.26632 3.19812L2.23207 2.71419Z" fill="url(#paint0_linear_130_375)"/>
<defs>
<linearGradient id="paint0_linear_130_375" x1="2.17736" y1="0.976082" x2="1.73283" y2="4.09803" gradientUnits="userSpaceOnUse">
<stop stop-color="#9E6100"/>
<stop offset="0.49" stop-color="#642701"/>
<stop offset="0.65" stop-color="#682A01"/>
<stop offset="0.81" stop-color="#753401"/>
<stop offset="0.98" stop-color="#8A4401"/>
<stop offset="1" stop-color="#8C4601"/>
</linearGradient>
</defs>
</svg>
