<svg width="3" height="3" viewBox="0 0 3 3" fill="none" xmlns="http://www.w3.org/2000/svg">
<path d="M0.366774 0.309608C0.185014 1.5861 0.168169 1.53864 0.22742 1.69512C0.258009 1.76861 0.315686 1.82753 0.38851 1.85967C0.435081 1.87918 2.15083 2.21574 2.18237 2.22023C2.26254 2.21941 2.33936 2.18799 2.39713 2.13241C2.4549 2.07682 2.48925 2.00126 2.49315 1.92119C2.67431 0.648908 2.66084 0.743541 2.67281 0.659423C2.66932 0.598126 2.64939 0.538899 2.61512 0.487961C2.58084 0.437022 2.53349 0.396251 2.47802 0.369925C2.42755 0.362738 0.714506 0.0222665 0.680859 0.0174755C0.601677 0.0188055 0.525788 0.0493809 0.4678 0.103316C0.409813 0.15725 0.373827 0.23073 0.366774 0.309608Z" fill="url(#paint0_linear_82_439)"/>
<defs>
<linearGradient id="paint0_linear_82_439" x1="0.271238" y1="0.95041" x2="2.58869" y2="1.28039" gradientUnits="userSpaceOnUse">
<stop stop-color="#FFE6AB"/>
<stop offset="1" stop-color="#FFD778"/>
</linearGradient>
</defs>
</svg>
