<svg width="80" height="93" viewBox="0 0 80 93" fill="none" xmlns="http://www.w3.org/2000/svg">
<path d="M79.6853 51.0176C80.0806 46.1705 80.0089 43.1652 79.4281 38.4984C78.7053 33.8357 77.9568 31.0142 76.3153 26.7106C75.5771 24.8515 74.7249 23.0397 73.7636 21.2855C72.8061 19.5538 71.7416 17.8835 70.5764 16.2841C69.4452 14.7406 68.216 13.2712 66.8965 11.8852C65.6211 10.5518 64.2562 9.30707 62.8112 8.15967C61.4173 7.05314 59.9475 6.04579 58.4126 5.14503C56.913 4.26861 55.3529 3.49999 53.7442 2.84502C52.1576 2.20419 50.527 1.678 48.8651 1.27051C47.2095 0.87261 45.5272 0.594795 43.8316 0.439236C40.5119 0.12809 37.1647 0.299142 33.894 0.947069C32.2899 1.26792 30.7098 1.69925 29.1651 2.23799C27.6181 2.77994 26.1094 3.42574 24.6494 4.17097C21.2879 5.95636 19.3088 7.32688 16.3807 9.83442C11.1701 14.5929 7.4843 19.6319 4.4658 26.7619C4.08681 27.712 4.16553 27.5014 4.06499 27.7625L4.7246 27.8711C5.69223 25.4327 6.85576 23.0767 8.20378 20.8262C9.625 18.4606 11.2593 16.2298 13.0862 14.1615C16.9631 9.88568 20.6878 6.98709 25.8168 4.47855C28.234 3.33287 30.7743 2.46727 33.3881 1.8986C36.0787 1.31243 38.8313 1.06019 41.5836 1.1476C44.867 1.25384 48.1179 1.83411 51.2352 2.87039C52.8588 3.41421 54.4409 4.07442 55.9694 4.84588C57.5129 5.62974 58.9992 6.52137 60.4173 7.51417C61.8599 8.53054 63.2331 9.642 64.5277 10.8411C65.8464 12.0645 67.0849 13.3715 68.2354 14.7542C70.8895 18.0565 72.3171 20.3192 74.246 24.1958C76.0812 28.2004 76.9914 30.8792 77.9918 35.3548C78.8801 39.9508 79.1339 42.909 79.0487 47.6491C78.976 49.7794 78.7761 51.9035 78.4501 54.0099C78.1237 56.1066 77.6711 58.1817 77.0949 60.224C76.5368 62.1982 75.8579 64.1362 75.0622 66.0272C74.2922 67.8555 73.4097 69.6344 72.42 71.3537C70.1772 75.1237 68.5301 77.2946 65.5985 80.3744C64.3316 81.6623 62.983 82.8672 61.5609 83.9814C60.1762 85.0642 58.7205 86.0529 57.2036 86.941C55.7203 87.8053 54.1795 88.5671 52.5922 89.2211C51.0325 89.8598 49.4296 90.3873 47.7955 90.7997C46.1789 91.2024 44.5353 91.4881 42.8776 91.6543C39.545 91.9877 36.1811 91.8168 32.8994 91.1474C31.3775 90.8318 29.8786 90.414 28.4129 89.8968C25.8059 88.9799 23.3147 87.7623 20.9896 86.2687C18.7016 84.796 16.5762 83.085 14.6489 81.1644C10.604 77.0522 7.90318 73.0511 5.42009 67.6235C4.27944 65.0504 3.36023 62.3847 2.67243 59.6555C2.02675 57.0802 1.58032 54.4591 1.3371 51.8154L0.682247 51.6734C0.70489 51.9423 0.674424 51.7283 0.774179 52.7393C1.69504 60.786 3.86684 66.7395 7.26737 72.7582C9.31551 76.1571 10.7894 78.1461 13.4358 81.0063C15.7358 83.4297 18.3366 85.5487 21.175 87.3114C22.5884 88.1873 24.0595 88.9667 25.578 89.6443C27.113 90.3249 28.6934 90.8985 30.3076 91.3608C31.9258 91.8217 33.5746 92.1673 35.2417 92.3948C38.5665 92.8471 41.94 92.8035 45.2521 92.2653C46.9376 91.9902 48.6006 91.5917 50.2277 91.0729C51.8999 90.5385 53.5314 89.8847 55.1099 89.1165C56.7462 88.3146 58.3245 87.3993 59.8331 86.3772C61.393 85.3203 62.8798 84.1593 64.2833 82.902C65.7036 81.6242 67.0384 80.2544 68.279 78.8015C69.5411 77.3209 70.7075 75.7613 71.7709 74.1321C72.8556 72.4658 73.8349 70.7332 74.7029 68.9444C76.6602 64.7657 77.6253 61.9762 78.7082 57.2977C79.1549 55.225 79.4811 53.1281 79.6853 51.0176Z" fill="#FFE082"/>
</svg>
