<svg width="3" height="3" viewBox="0 0 3 3" fill="none" xmlns="http://www.w3.org/2000/svg">
<path d="M1.8712 0.663696C1.83109 0.618825 1.7813 0.583657 1.7256 0.560848C1.6699 0.538039 1.60975 0.528187 1.54968 0.532034C1.48962 0.535881 1.43121 0.553324 1.37888 0.583052C1.32655 0.61278 1.28165 0.654014 1.24759 0.703635C1.21246 0.754419 0.615423 1.75293 0.577611 1.83766C0.527672 1.95924 0.517787 2.09357 0.549393 2.22115C0.580999 2.34873 0.65245 2.46292 0.75337 2.54713C1.10559 2.87621 1.13054 2.91194 1.27746 2.96504C1.35468 2.98741 1.43704 2.98444 1.51245 2.95656C1.58786 2.92868 1.65235 2.87737 1.69645 2.81014C1.73758 2.74734 2.33252 1.74853 2.36823 1.67852C2.55846 1.18638 2.14018 0.914408 1.8712 0.663696ZM1.36859 2.53603C1.3025 2.54807 1.30821 2.53816 1.00347 2.25232L1.85249 1.77459C1.38452 2.55975 1.42265 2.51798 1.37279 2.53663L1.36859 2.53603ZM1.08795 1.74941C1.55682 0.957936 1.52289 1.0003 1.56644 0.980757C1.60999 0.961211 1.65476 0.993335 1.95499 1.26566L1.08795 1.74941Z" fill="url(#paint0_linear_82_446)"/>
<defs>
<linearGradient id="paint0_linear_82_446" x1="0.588029" y1="1.62887" x2="2.35871" y2="1.881" gradientUnits="userSpaceOnUse">
<stop stop-color="#FFE6AB"/>
<stop offset="1" stop-color="#FFD778"/>
</linearGradient>
</defs>
</svg>
