<svg width="3" height="4" viewBox="0 0 3 4" fill="none" xmlns="http://www.w3.org/2000/svg">
<path d="M2.11877 1.13671C1.96119 0.987895 1.78537 0.859677 1.59551 0.755127C1.50171 0.710988 1.39531 0.701464 1.29516 0.728237C1.195 0.755011 1.10755 0.81636 1.04828 0.901419C0.974287 1.0103 0.369884 2.24269 0.363762 2.28568C0.319425 2.39051 0.302696 2.50495 0.315172 2.61808C0.327649 2.73121 0.368914 2.83926 0.435029 2.93191C0.548037 3.0796 0.527553 3.05231 0.996546 3.42128C1.04348 3.46481 1.09909 3.4979 1.15972 3.5184C1.22036 3.5389 1.28464 3.54633 1.34835 3.54021C1.41207 3.53409 1.47376 3.51456 1.52939 3.48289C1.58501 3.45123 1.6333 3.40815 1.67109 3.35649C1.74201 3.25204 2.35289 1.99133 2.35561 1.97222C2.41181 1.82608 2.41912 1.66564 2.37641 1.515C2.33371 1.36435 2.2433 1.23162 2.11877 1.13671ZM1.30312 3.03114C1.27557 3.03805 1.24642 3.0339 1.2219 3.01958C1.19801 3.01618 1.2219 3.01958 0.866575 2.74234L1.79471 2.09463C1.33076 3.04239 1.36282 3.00552 1.30312 3.03114ZM0.919879 2.16259C1.39679 1.19231 1.35689 1.24999 1.40909 1.22574C1.46128 1.20149 1.49917 1.22638 1.85654 1.50635L0.919879 2.16259Z" fill="url(#paint0_linear_130_542)"/>
<defs>
<linearGradient id="paint0_linear_130_542" x1="0.38171" y1="1.98848" x2="2.338" y2="2.26704" gradientUnits="userSpaceOnUse">
<stop stop-color="#FFE6AB"/>
<stop offset="1" stop-color="#FFD778"/>
</linearGradient>
</defs>
</svg>
