<svg width="45" height="43" viewBox="0 0 45 43" fill="none" xmlns="http://www.w3.org/2000/svg">
<path d="M42.2648 42.12C38.9312 42.4065 35.5734 42.1895 32.3044 41.4763C29.3766 40.8394 26.5431 39.828 23.8738 38.4671C21.3862 37.1982 19.0504 35.6513 16.9114 33.8561C14.7844 32.0733 12.8449 30.0782 11.1229 27.9018C9.38878 25.7095 7.86288 23.3603 6.565 20.8847C3.88332 15.6388 2.32115 10.8635 1.39817 4.61282C1.1627 2.75555 1.10899 2.22867 0.985206 0.219939L0.495846 0.206046C0.813924 5.35568 1.54567 9.22752 3.14933 14.0882C5.16373 19.7862 7.5437 24.1373 11.3002 28.766C13.0756 30.9046 15.0673 32.8542 17.2433 34.5835C19.4368 36.32 21.8221 37.7992 24.3525 38.9923C25.6455 39.6027 26.9741 40.1343 28.3312 40.5844C29.8845 41.0994 31.4726 41.5026 33.0835 41.791C36.9384 42.482 40.885 42.4884 44.7421 41.8097C43.2588 42.0255 43.8262 41.9582 42.2648 42.12Z" fill="url(#paint0_linear_82_152)"/>
<defs>
<linearGradient id="paint0_linear_82_152" x1="25.0883" y1="3.6434" x2="19.9203" y2="39.9382" gradientUnits="userSpaceOnUse">
<stop stop-color="#9E6100"/>
<stop offset="0.49" stop-color="#642701"/>
<stop offset="0.65" stop-color="#682A01"/>
<stop offset="0.81" stop-color="#753401"/>
<stop offset="0.98" stop-color="#8A4401"/>
<stop offset="1" stop-color="#8C4601"/>
</linearGradient>
</defs>
</svg>
