<svg width="4" height="3" viewBox="0 0 4 3" fill="none" xmlns="http://www.w3.org/2000/svg">
<path d="M0.866988 1.47581C0.836165 1.57758 0.830447 1.6853 0.850322 1.78976C0.870197 1.89422 0.915077 1.99232 0.98112 2.07566C1.28381 2.48136 1.35238 2.66277 1.65941 2.70649C1.79695 2.72162 1.93509 2.68374 2.04568 2.60057C2.10664 2.54918 3.12969 1.63279 3.20565 1.55134C3.28631 1.46372 3.33847 1.35369 3.35526 1.23579C3.37205 1.11789 3.35267 0.997667 3.29967 0.891017C3.27471 0.839812 3.24502 0.79105 3.21099 0.745363C2.86321 0.2796 2.91852 0.358279 2.85992 0.302732C2.81276 0.247227 2.75459 0.202105 2.68911 0.170216C2.62363 0.138327 2.55224 0.120365 2.47946 0.117462C2.40669 0.11456 2.3341 0.126781 2.26628 0.153353C2.19847 0.179926 2.1369 0.220272 2.08547 0.271845C0.891863 1.34633 0.945599 1.2703 0.866988 1.47581ZM2.45511 0.599113C2.48418 0.600421 2.51202 0.611165 2.53443 0.629718C2.55307 0.649536 2.52572 0.615603 2.81067 0.995181L1.64555 1.29702C2.43287 0.574491 2.38812 0.602448 2.45511 0.599113ZM2.55647 1.51469C1.75113 2.24323 1.80337 2.20776 1.73969 2.218C1.64266 2.22135 1.64325 2.18711 1.36761 1.81744L2.55647 1.51469Z" fill="url(#paint0_linear_82_520)"/>
<defs>
<linearGradient id="paint0_linear_82_520" x1="0.894516" y1="1.23728" x2="3.30449" y2="1.58044" gradientUnits="userSpaceOnUse">
<stop stop-color="#FFE6AB"/>
<stop offset="1" stop-color="#FFD778"/>
</linearGradient>
</defs>
</svg>
