<svg width="39" height="14" viewBox="0 0 39 14" fill="none" xmlns="http://www.w3.org/2000/svg">
<path d="M7.63325 11.9001C9.85634 12.7568 12.1911 13.2894 14.5657 13.4815C16.9303 13.6713 19.3099 13.5091 21.6268 13C24.0271 12.4677 26.3379 11.5913 28.4876 10.3981C31.0323 8.93672 32.553 7.7951 34.7549 5.71201C36.1888 4.30896 37.4811 2.7682 38.6132 1.112C38.0627 0.668856 38.0585 0.668258 38.0173 0.62592C37.9089 0.784281 38.0173 0.625921 37.3607 1.54515C36.5874 2.58673 35.7496 3.57888 34.8522 4.51577C33.1271 6.31793 31.1725 7.88561 29.0389 9.17855C26.9997 10.4165 24.7965 11.3617 22.4942 11.9864C20.2407 12.5941 17.9095 12.863 15.5769 12.7844C13.3218 12.7053 11.0893 12.3073 8.94587 11.6021C5.90693 10.5975 3.08536 9.02729 0.629845 6.97429L0.277145 7.56774C2.47397 9.40695 4.95945 10.8707 7.63325 11.9001Z" fill="#FFE082"/>
</svg>
