<svg width="4" height="8" viewBox="0 0 4 8" fill="none" xmlns="http://www.w3.org/2000/svg">
<path d="M2.22505 6.95799C2.08479 7.02384 2.22146 6.98323 0.350124 7.34757C0.316503 7.35424 0.282262 7.35728 0.247991 7.35663C0.180697 7.34705 0.0352964 7.34351 0.780318 7.40024C0.901982 7.40469 0.851821 7.41042 1.30419 7.3225L0.949697 7.29562C1.85413 7.12188 1.61472 7.14572 2.04972 7.17977C2.71054 7.05931 2.61653 7.07167 2.69793 7.05751C2.85442 7.00344 2.98671 6.89571 3.07137 6.75343C3.15604 6.61115 3.18761 6.44349 3.16049 6.28016C2.29788 0.690385 2.36744 1.06075 2.30218 0.901264C2.26913 0.826856 2.22185 0.759627 2.16301 0.703363C1.97307 0.530419 1.92742 0.549665 1.20552 0.466184C1.32637 0.477156 1.44135 0.52334 1.53622 0.599012C1.63108 0.674684 1.70167 0.77652 1.73923 0.89191C1.78226 1.04179 2.57379 6.24168 2.58102 6.29635C2.58883 6.42879 2.55968 6.56079 2.49682 6.67763C2.43396 6.79446 2.33987 6.89153 2.22505 6.95799Z" fill="url(#paint0_linear_82_309)"/>
<defs>
<linearGradient id="paint0_linear_82_309" x1="2.56912" y1="0.638891" x2="1.58456" y2="7.55338" gradientUnits="userSpaceOnUse">
<stop stop-color="#9E6100"/>
<stop offset="0.49" stop-color="#642701"/>
<stop offset="0.65" stop-color="#682A01"/>
<stop offset="0.81" stop-color="#753401"/>
<stop offset="0.98" stop-color="#8A4401"/>
<stop offset="1" stop-color="#8C4601"/>
</linearGradient>
</defs>
</svg>
