<svg width="38" height="15" viewBox="0 0 38 15" fill="none" xmlns="http://www.w3.org/2000/svg">
<path d="M1.36512 14.5802L1.41495 14.5015C4.54377 9.54014 8.24789 5.99311 13.3349 3.41754C16.8873 1.73487 19.9649 0.990873 23.8346 0.906792C25.9892 0.895295 28.1354 1.1742 30.2155 1.73598C32.7167 2.41665 35.0943 3.4895 37.2596 4.91461C37.2632 4.88938 37.6435 4.26767 37.6579 4.24183C35.1474 2.60102 32.3635 1.42275 29.4379 0.76274C24.8115 -0.277809 19.9823 0.0506879 15.5394 1.70815C13.3312 2.5328 11.2424 3.64739 9.32799 5.02262C7.71574 6.1778 6.22222 7.49026 4.86943 8.94069C3.36185 10.556 2.02406 12.3218 0.877101 14.2104C1.05066 14.3186 1.21401 14.4424 1.36512 14.5802Z" fill="#FFE082"/>
</svg>
