<svg width="7" height="6" viewBox="0 0 7 6" fill="none" xmlns="http://www.w3.org/2000/svg">
<path d="M6.22262 1.10862C6.19657 1.03609 6.15588 0.96968 6.10309 0.913531C6.05029 0.857381 5.98652 0.812686 5.91572 0.782225C5.84829 0.755755 5.77601 0.74391 5.70366 0.747473C5.63131 0.751035 5.56054 0.769924 5.49604 0.802889C0.819425 3.09558 1.16875 2.91867 1.04425 3.0228C0.952026 3.11175 0.881988 3.22113 0.839786 3.34211C0.797583 3.4631 0.784395 3.5923 0.801286 3.71932C0.823179 3.83942 1.31258 5.55412 1.3382 5.63088C1.3586 5.70245 1.39459 5.76861 1.44359 5.82463C1.49258 5.88065 1.55336 5.92512 1.62158 5.95487C1.68979 5.98462 1.76375 5.9989 1.83813 5.99669C1.91252 5.99448 1.98549 5.97583 2.05182 5.94208C6.74755 3.66917 6.39789 3.84847 6.52477 3.74468C6.61738 3.65599 6.68783 3.54677 6.73045 3.42584C6.77307 3.30491 6.78666 3.17565 6.77012 3.0485C6.75266 2.91441 6.2479 1.18777 6.22262 1.10862Z" fill="url(#paint0_linear_130_550)"/>
<defs>
<linearGradient id="paint0_linear_130_550" x1="0.88044" y1="2.95804" x2="6.69676" y2="3.78623" gradientUnits="userSpaceOnUse">
<stop stop-color="#FFE6AB"/>
<stop offset="1" stop-color="#FFD778"/>
</linearGradient>
</defs>
</svg>
