<svg width="3" height="3" viewBox="0 0 3 3" fill="none" xmlns="http://www.w3.org/2000/svg">
<path d="M2.11266 0.74722C2.11269 0.686489 2.09329 0.627341 2.05731 0.57842C1.98577 0.493139 1.99329 0.515666 1.17703 0.356526C1.14759 0.352334 1.17703 0.356526 0.459954 0.314497L1.25098 0.470043C1.30515 0.487417 1.35139 0.523462 1.38145 0.571755C1.41151 0.620047 1.42344 0.677447 1.41512 0.73372C1.41063 0.765264 1.22707 2.05437 1.22109 2.09643C1.21194 2.14433 1.18659 2.18761 1.1493 2.21903C1.11201 2.25044 1.06504 2.26807 1.01629 2.26895L1.73216 2.30437C1.94994 2.28174 1.9366 2.01379 1.96925 1.79959L1.54327 1.77756C1.6352 1.13195 1.61514 1.27285 1.63969 1.10041L2.06537 1.12454C2.08973 0.999997 2.10553 0.873928 2.11266 0.74722Z" fill="url(#paint0_linear_82_162)"/>
<defs>
<linearGradient id="paint0_linear_82_162" x1="1.31162" y1="0.37569" x2="1.04153" y2="2.27255" gradientUnits="userSpaceOnUse">
<stop stop-color="#9E6100"/>
<stop offset="0.49" stop-color="#642701"/>
<stop offset="0.65" stop-color="#682A01"/>
<stop offset="0.81" stop-color="#753401"/>
<stop offset="0.98" stop-color="#8A4401"/>
<stop offset="1" stop-color="#8C4601"/>
</linearGradient>
</defs>
</svg>
