<svg width="4" height="4" viewBox="0 0 4 4" fill="none" xmlns="http://www.w3.org/2000/svg">
<path d="M3.21945 1.5205C3.19099 1.20694 3.07391 1.10497 2.75058 0.671441C2.7038 0.600793 2.6402 0.542874 2.5655 0.502886C2.4908 0.462898 2.40733 0.442093 2.3226 0.442343C1.71424 0.48732 1.40784 0.499739 1.58322 0.500341C1.8603 0.539795 1.95695 0.716844 2.13483 0.956634L1.57321 0.998518C1.5275 1.01151 1.57899 0.957911 0.919782 1.71945L1.70557 1.66074L2.21882 1.06851C2.33151 1.1967 2.40543 1.3543 2.43194 1.52291C2.44951 1.6472 2.43147 1.77392 2.3799 1.88837L1.75653 1.93608L0.737137 2.2491C1.0171 2.62771 1.00106 2.62055 1.05157 2.64237C1.10208 2.66418 1.01575 2.65433 1.78993 2.59153C1.38819 3.05099 1.38002 3.09125 1.19272 3.14013C1.16883 3.13673 0.91601 3.16653 1.9321 3.08213C2.18014 3.05165 2.15214 3.00867 3.06713 1.95698C3.12009 1.89789 3.16081 1.82889 3.18696 1.75398C3.2131 1.67906 3.22415 1.59971 3.21945 1.5205ZM1.81551 2.56593C1.7101 2.44777 1.61399 2.32166 1.52804 2.18868L2.35399 1.93342C2.18718 2.15474 2.00737 2.36594 1.81551 2.56593Z" fill="url(#paint0_linear_130_298)"/>
<defs>
<linearGradient id="paint0_linear_130_298" x1="2.19429" y1="0.419199" x2="1.79295" y2="3.23778" gradientUnits="userSpaceOnUse">
<stop stop-color="#9E6100"/>
<stop offset="0.49" stop-color="#642701"/>
<stop offset="0.65" stop-color="#682A01"/>
<stop offset="0.81" stop-color="#753401"/>
<stop offset="0.98" stop-color="#8A4401"/>
<stop offset="1" stop-color="#8C4601"/>
</linearGradient>
</defs>
</svg>
