<svg width="4" height="4" viewBox="0 0 4 4" fill="none" xmlns="http://www.w3.org/2000/svg">
<path d="M3.1341 1.88288L3.61455 1.93179L3.65469 1.64993C3.67618 1.55991 3.66398 1.46513 3.62038 1.38349C3.57678 1.30185 3.5048 1.239 3.41802 1.20681C3.37025 1.20001 2.88501 1.11629 1.53064 0.889322L0.713744 0.807122C0.749574 0.812224 2.59771 1.11437 2.65368 1.13209C2.71192 1.16169 2.76113 1.20641 2.79615 1.26156C2.83117 1.31672 2.85072 1.38027 2.85275 1.44557C2.85893 1.53906 2.87218 1.41178 2.66504 2.8494C2.66142 2.93769 2.62497 3.02145 2.56284 3.08427C2.5007 3.1471 2.41735 3.18447 2.3291 3.18906C3.19002 3.27022 3.12655 3.27093 3.20229 3.25247C3.44212 3.15989 3.44578 2.94595 3.48115 2.69753L3.00036 2.651L3.1341 1.88288Z" fill="url(#paint0_linear_130_277)"/>
<defs>
<linearGradient id="paint0_linear_130_277" x1="2.21038" y1="0.993421" x2="1.90529" y2="3.13603" gradientUnits="userSpaceOnUse">
<stop stop-color="#9E6100"/>
<stop offset="0.49" stop-color="#642701"/>
<stop offset="0.65" stop-color="#682A01"/>
<stop offset="0.81" stop-color="#753401"/>
<stop offset="0.98" stop-color="#8A4401"/>
<stop offset="1" stop-color="#8C4601"/>
</linearGradient>
</defs>
</svg>
