<svg width="3" height="3" viewBox="0 0 3 3" fill="none" xmlns="http://www.w3.org/2000/svg">
<path d="M2.20791 1.80789L2.63389 1.82993L2.67162 1.56496C2.68736 1.48641 2.67538 1.40484 2.63771 1.33414C2.60005 1.26344 2.53904 1.20799 2.46507 1.17723L0.812112 0.851754C0.772156 0.846065 0.91095 0.865826 0.0905291 0.811228C0.124176 0.816019 1.74438 1.1304 1.78705 1.1472C1.83825 1.17439 1.88137 1.21462 1.91204 1.26382C1.94271 1.31302 1.95984 1.36945 1.96171 1.4274C1.96505 1.50941 1.97702 1.39525 1.79705 2.65912C1.79281 2.73549 1.76029 2.80755 1.70585 2.86126C1.6514 2.91498 1.57891 2.94652 1.50249 2.94974C2.28265 2.98573 2.21386 2.98667 2.27574 2.97402C2.48148 2.90033 2.4868 2.71227 2.51555 2.51039L2.08957 2.48836C2.17078 2.06866 2.14652 2.22398 2.20791 1.80789Z" fill="url(#paint0_linear_82_178)"/>
<defs>
<linearGradient id="paint0_linear_82_178" x1="1.41175" y1="0.934991" x2="1.13267" y2="2.89494" gradientUnits="userSpaceOnUse">
<stop stop-color="#9E6100"/>
<stop offset="0.49" stop-color="#642701"/>
<stop offset="0.65" stop-color="#682A01"/>
<stop offset="0.81" stop-color="#753401"/>
<stop offset="0.98" stop-color="#8A4401"/>
<stop offset="1" stop-color="#8C4601"/>
</linearGradient>
</defs>
</svg>
