<svg width="3" height="4" viewBox="0 0 3 4" fill="none" xmlns="http://www.w3.org/2000/svg">
<path d="M2.20634 1.83093C2.15314 1.78259 1.0893 0.860847 1.00546 0.801707C0.794527 0.685848 0.743775 0.725825 0.10725 0.781089C0.390222 0.767742 0.408881 0.84764 1.56258 1.84655C1.66965 1.93797 1.74504 2.06092 1.77797 2.1978C1.81089 2.33469 1.79966 2.47847 1.74588 2.60858C1.69546 2.72155 1.72668 2.66807 1.36913 3.17501C1.28563 3.30323 1.15879 3.39711 1.01178 3.43952C0.963415 3.44766 0.819827 3.46154 1.56659 3.3855C1.65722 3.3738 1.74276 3.33692 1.81347 3.27904C1.92128 3.18497 1.89275 3.21953 2.26291 2.69936C2.35735 2.57116 2.40346 2.41372 2.39311 2.25482C2.38276 2.09593 2.31661 1.9458 2.20634 1.83093Z" fill="url(#paint0_linear_82_307)"/>
<defs>
<linearGradient id="paint0_linear_82_307" x1="1.35573" y1="0.812961" x2="0.980835" y2="3.44585" gradientUnits="userSpaceOnUse">
<stop stop-color="#9E6100"/>
<stop offset="0.49" stop-color="#642701"/>
<stop offset="0.65" stop-color="#682A01"/>
<stop offset="0.81" stop-color="#753401"/>
<stop offset="0.98" stop-color="#8A4401"/>
<stop offset="1" stop-color="#8C4601"/>
</linearGradient>
</defs>
</svg>
