<svg width="52" height="19" viewBox="0 0 52 19" fill="none" xmlns="http://www.w3.org/2000/svg">
<path d="M40.7362 5.4852C38.6077 3.9591 36.2716 2.74586 33.7991 1.88245C31.3701 1.03798 28.8307 0.553237 26.2614 0.443604C23.7592 0.335082 21.2544 0.59 18.8254 1.2004C16.4053 1.8134 14.0808 2.7559 11.9171 4.00149C8.18906 6.22209 5.32505 8.69002 2.40328 12.4706C1.84847 13.2178 1.19512 14.1093 0.476045 15.2913L1.0273 15.7329C2.57345 13.22 4.44363 10.9216 6.58967 8.8969C9.76638 5.99583 12.747 4.12941 16.7556 2.67743C20.6883 1.30203 24.9003 0.921361 29.0158 1.56937C31.5471 1.96847 34.0045 2.74389 36.3065 3.86988C38.6476 5.01462 40.8176 6.48017 42.754 8.2242C45.9829 11.2209 48.2888 14.1959 50.5313 18.8483L51.2712 18.4273C50.5211 16.8194 49.6527 15.2694 48.6731 13.7901C47.1099 11.4187 45.2423 9.26252 43.1183 7.37681C42.358 6.70496 41.5628 6.07356 40.7362 5.4852Z" fill="#FFE082"/>
</svg>
