<svg width="23" height="32" viewBox="0 0 23 32" fill="none" xmlns="http://www.w3.org/2000/svg">
<path d="M8.23024 2.99944C10.2574 4.17503 12.1135 5.62342 13.7465 7.30402C15.3598 8.96476 16.7707 10.8108 17.9497 12.8034C20.7717 17.6651 22.3218 22.816 22.5242 28.9253L19.9985 31.0027L20.4823 31.0277L23.0056 28.95C22.8171 23.3423 21.5043 18.3909 18.7764 13.45C17.6784 11.504 16.365 9.68776 14.8609 8.03541C13.2751 6.292 11.4588 4.77316 9.46225 3.52093C7.54922 2.32296 5.47316 1.40762 3.2984 0.803274C2.32297 0.538104 1.33339 0.328038 0.334351 0.174072C3.1159 0.62915 5.79144 1.58653 8.23024 2.99944Z" fill="url(#paint0_linear_130_235)"/>
<defs>
<linearGradient id="paint0_linear_130_235" x1="13.4568" y1="2.04746" x2="9.54682" y2="29.5072" gradientUnits="userSpaceOnUse">
<stop stop-color="#9E6100"/>
<stop offset="0.49" stop-color="#642701"/>
<stop offset="0.65" stop-color="#682A01"/>
<stop offset="0.81" stop-color="#753401"/>
<stop offset="0.98" stop-color="#8A4401"/>
<stop offset="1" stop-color="#8C4601"/>
</linearGradient>
</defs>
</svg>
