<svg width="3" height="4" viewBox="0 0 3 4" fill="none" xmlns="http://www.w3.org/2000/svg">
<path d="M2.69963 2.37469C2.69326 2.23861 2.446 0.855976 2.44028 0.835852C2.41805 0.707581 2.35001 0.591742 2.24881 0.509852C2.14761 0.427962 2.02013 0.385591 1.89004 0.39061C1.76418 0.400581 -0.0654374 0.682894 1.17664 0.503587C1.31498 0.481808 1.45639 0.514241 1.57141 0.594128C1.81091 0.780568 1.8047 0.989948 1.87518 1.39906L1.46696 1.46324L1.45349 1.55787C1.36704 1.04993 1.35082 1.04333 1.39465 0.976619C1.40252 0.964388 1.41292 0.953981 1.42514 0.9461C1.43736 0.938219 1.45113 0.933044 1.46552 0.930923C0.728986 1.04061 0.793266 1.02616 0.752732 1.06973C0.712198 1.11331 0.712796 1.1091 0.895322 2.16283L1.31465 2.09595L1.17251 2.64215C1.64801 2.57254 1.44646 2.60176 2.06344 2.50295C2.06766 2.62112 2.03263 2.73738 1.96381 2.83354C1.895 2.92971 1.79629 3.00039 1.68307 3.03454C1.66204 3.03154 1.38179 3.08604 2.26941 2.93994C2.39871 2.91637 2.51453 2.84532 2.59413 2.74074C2.67373 2.63615 2.71136 2.50559 2.69963 2.37469ZM1.80961 2.52259L1.96704 1.91421C2.00854 2.10298 2.03792 2.29421 2.05502 2.48674L1.80961 2.52259Z" fill="url(#paint0_linear_82_258)"/>
<defs>
<linearGradient id="paint0_linear_82_258" x1="1.88102" y1="0.378598" x2="1.50523" y2="3.01779" gradientUnits="userSpaceOnUse">
<stop stop-color="#9E6100"/>
<stop offset="0.49" stop-color="#642701"/>
<stop offset="0.65" stop-color="#682A01"/>
<stop offset="0.81" stop-color="#753401"/>
<stop offset="0.98" stop-color="#8A4401"/>
<stop offset="1" stop-color="#8C4601"/>
</linearGradient>
</defs>
</svg>
