<svg width="3" height="3" viewBox="0 0 3 3" fill="none" xmlns="http://www.w3.org/2000/svg">
<path d="M2.35601 1.14853C2.33095 0.872476 2.22787 0.782705 1.94322 0.401025C1.90203 0.338827 1.84604 0.287835 1.78027 0.25263C1.7145 0.217424 1.64102 0.199108 1.56642 0.199327C1.03082 0.238925 0.761067 0.249859 0.915474 0.25039C1.15942 0.285125 1.2445 0.440998 1.40111 0.652108L0.906662 0.688983C0.866413 0.700417 0.911752 0.653233 0.331383 1.32369L1.02318 1.27201L1.47505 0.750607C1.57427 0.863465 1.63934 1.00221 1.66268 1.15065C1.67816 1.26008 1.66227 1.37165 1.61687 1.4724L1.06806 1.51441L0.170582 1.78999C0.417064 2.12332 0.402941 2.11702 0.44741 2.13622C0.491878 2.15543 0.415872 2.14676 1.09746 2.09147C0.74377 2.49597 0.736577 2.53142 0.571677 2.57445C0.550647 2.57146 0.328061 2.5977 1.22262 2.52339C1.441 2.49655 1.41635 2.45871 2.22191 1.53281C2.26853 1.48079 2.30438 1.42004 2.3274 1.35409C2.35042 1.28813 2.36014 1.21827 2.35601 1.14853ZM1.11998 2.06893C1.02718 1.9649 0.942564 1.85387 0.866888 1.7368L1.59406 1.51207C1.4472 1.70692 1.28889 1.89286 1.11998 2.06893Z" fill="url(#paint0_linear_82_206)"/>
<defs>
<linearGradient id="paint0_linear_82_206" x1="1.45346" y1="0.178952" x2="1.10012" y2="2.66043" gradientUnits="userSpaceOnUse">
<stop stop-color="#9E6100"/>
<stop offset="0.49" stop-color="#642701"/>
<stop offset="0.65" stop-color="#682A01"/>
<stop offset="0.81" stop-color="#753401"/>
<stop offset="0.98" stop-color="#8A4401"/>
<stop offset="1" stop-color="#8C4601"/>
</linearGradient>
</defs>
</svg>
