<svg width="3" height="5" viewBox="0 0 3 5" fill="none" xmlns="http://www.w3.org/2000/svg">
<path d="M0.736657 0.763636L0.77451 0.769026C2.02789 1.00757 2.01796 0.971829 2.15261 1.12617C2.22121 1.21879 2.2586 1.3308 2.2594 1.44605C2.25675 1.5551 1.81294 4.58155 1.80785 4.6173C1.79418 4.69601 1.75973 4.76963 1.70805 4.83055C1.65637 4.89147 1.58934 4.93747 1.51391 4.96379C1.43612 4.98275 1.1276 4.96457 2.09161 5.00528C2.17031 5.00661 2.24756 4.98402 2.31315 4.94048C2.37873 4.89695 2.42955 4.83453 2.45889 4.76149C2.493 4.68031 2.51327 4.594 2.51885 4.50612L2.10729 4.48829L2.20581 3.79641L2.61917 3.81665L2.79883 2.55489L2.38787 2.53284C2.40404 2.41929 2.38488 2.55388 2.48639 1.84098L2.89705 1.86512C2.93687 1.58543 2.99447 1.42198 2.86159 1.19494C2.8352 1.15299 2.80077 1.11667 2.76028 1.08808C2.7198 1.05948 2.67406 1.03918 2.6257 1.02833C1.1485 0.749328 1.63849 0.819098 0.736657 0.763636Z" fill="url(#paint0_linear_82_197)"/>
<defs>
<linearGradient id="paint0_linear_82_197" x1="1.89025" y1="0.874256" x2="1.30844" y2="4.96028" gradientUnits="userSpaceOnUse">
<stop stop-color="#9E6100"/>
<stop offset="0.49" stop-color="#642701"/>
<stop offset="0.65" stop-color="#682A01"/>
<stop offset="0.81" stop-color="#753401"/>
<stop offset="0.98" stop-color="#8A4401"/>
<stop offset="1" stop-color="#8C4601"/>
</linearGradient>
</defs>
</svg>
