<svg width="3" height="4" viewBox="0 0 3 4" fill="none" xmlns="http://www.w3.org/2000/svg">
<path d="M2.32228 2.52339C2.4296 2.44642 2.51023 2.33788 2.55292 2.2129C2.59562 2.08792 2.59826 1.95274 2.56047 1.82619C2.54371 1.75557 2.39745 1.25951 2.3445 1.11794C2.30951 1.02841 2.24859 0.951362 2.16953 0.896685C2.09048 0.842008 1.9969 0.812192 1.90078 0.811049C1.77659 0.827484 1.86256 0.805609 0.71804 1.32989C0.60029 1.38767 0.506098 1.48433 0.451381 1.60353C0.396664 1.72273 0.384779 1.85717 0.417733 1.98413C0.47357 2.2286 0.541668 2.47011 0.621766 2.70774C0.731073 2.96701 0.913011 3.12696 1.18424 3.05347C1.26338 3.01113 2.29089 2.53842 2.32228 2.52339ZM1.0158 2.55914C0.950608 2.52061 0.958446 2.49979 0.825848 2.04468L1.83421 2.21994C1.03594 2.58881 1.07552 2.5847 1.01614 2.55675L1.0158 2.55914ZM1.14504 1.65145C1.96549 1.28086 1.91055 1.2901 1.96447 1.30509C1.98045 1.31202 1.99487 1.32208 2.00689 1.33467C2.01891 1.34726 2.02828 1.36214 2.03446 1.37842C2.03139 1.39992 2.03445 1.37842 2.16739 1.83115L1.14504 1.65145Z" fill="url(#paint0_linear_130_501)"/>
<defs>
<linearGradient id="paint0_linear_130_501" x1="0.41525" y1="1.77906" x2="2.57696" y2="2.08687" gradientUnits="userSpaceOnUse">
<stop stop-color="#FFE6AB"/>
<stop offset="1" stop-color="#FFD778"/>
</linearGradient>
</defs>
</svg>
