<svg width="32" height="24" viewBox="0 0 32 24" fill="none" xmlns="http://www.w3.org/2000/svg">
<path d="M8.41975 11.6167C10.9145 8.23349 13.4302 5.90119 16.9659 3.81648C18.6186 2.87362 20.3801 2.13581 22.2114 1.61941C25.0329 0.820248 27.9874 0.602516 30.8956 0.979418C31.7196 1.09676 31.9036 1.12295 31.1078 0.995016C29.6406 0.756835 28.1528 0.669933 26.6679 0.735679C24.7446 0.820808 22.8409 1.15768 21.0052 1.73768C19.3502 2.26244 17.7581 2.96828 16.2579 3.84239L16.7117 3.90701C16.0015 4.31631 15.3126 4.76158 14.6477 5.24107L14.1938 5.17645C13.3566 5.77996 12.5551 6.43154 11.7933 7.12791C7.65721 11.0159 4.78632 15.6201 3.06129 21.8814L0.822393 23.6561L1.36562 23.692C3.28765 22.1744 2.25517 22.9901 3.60145 21.9218C4.56722 18.2222 6.20007 14.73 8.41975 11.6167Z" fill="url(#paint0_linear_130_233)"/>
<defs>
<linearGradient id="paint0_linear_130_233" x1="18.1003" y1="-0.847373" x2="14.3356" y2="25.5924" gradientUnits="userSpaceOnUse">
<stop stop-color="#9E6100"/>
<stop offset="0.49" stop-color="#642701"/>
<stop offset="0.65" stop-color="#682A01"/>
<stop offset="0.81" stop-color="#753401"/>
<stop offset="0.98" stop-color="#8A4401"/>
<stop offset="1" stop-color="#8C4601"/>
</linearGradient>
</defs>
</svg>
