<svg width="4" height="7" viewBox="0 0 4 7" fill="none" xmlns="http://www.w3.org/2000/svg">
<path d="M0.453678 1.23345C0.458245 1.36713 0.378147 0.950208 1.40775 5.81924C1.42223 5.91873 1.46432 6.01216 1.52925 6.08892C1.59417 6.16567 1.67933 6.22268 1.77504 6.25346C1.93907 6.27681 1.84925 6.28977 3.2396 5.83763C3.35195 5.79088 3.44712 5.71057 3.51208 5.60768C3.57704 5.50479 3.60863 5.38433 3.60253 5.2628C3.59766 5.13123 3.68136 5.55295 2.63673 0.653884C2.62179 0.555159 2.57933 0.46264 2.5142 0.386953C2.44908 0.311266 2.36393 0.255477 2.26854 0.22598C2.10451 0.202624 2.18081 0.194178 0.811794 0.662229C0.701126 0.709771 0.607571 0.789905 0.543593 0.891956C0.479614 0.994007 0.44825 1.11313 0.453678 1.23345Z" fill="url(#paint0_linear_82_413)"/>
<defs>
<linearGradient id="paint0_linear_82_413" x1="0.198535" y1="2.9801" x2="3.85346" y2="3.50053" gradientUnits="userSpaceOnUse">
<stop stop-color="#FFE6AB"/>
<stop offset="1" stop-color="#FFD778"/>
</linearGradient>
</defs>
</svg>
