<svg width="3" height="4" viewBox="0 0 3 4" fill="none" xmlns="http://www.w3.org/2000/svg">
<path d="M2.32021 2.44857C2.31112 2.43259 2.29886 2.41864 2.28419 2.40756C2.26952 2.39649 2.25274 2.38852 2.23488 2.38415C2.21703 2.37978 2.19847 2.37911 2.18034 2.38216C2.16221 2.38522 2.14489 2.39194 2.12945 2.40191L2.01621 2.4784L0.888631 0.521721C0.87212 0.488341 0.843186 0.462765 0.808034 0.450471C0.772882 0.438176 0.734311 0.44014 0.700595 0.455952L0.39019 0.66765L1.7831 3.08859L1.98205 3.14616L2.52066 2.78662C2.3069 2.4223 2.33455 2.46767 2.32021 2.44857Z" fill="url(#paint0_linear_130_608)"/>
<defs>
<linearGradient id="paint0_linear_130_608" x1="0.252443" y1="1.63505" x2="2.63152" y2="1.9738" gradientUnits="userSpaceOnUse">
<stop stop-color="#FFE6AB"/>
<stop offset="1" stop-color="#FFD778"/>
</linearGradient>
</defs>
</svg>
