<svg width="4" height="2" viewBox="0 0 4 2" fill="none" xmlns="http://www.w3.org/2000/svg">
<path d="M3.03528 0.481075C2.2399 0.453119 2.20099 0.435392 2.75652 0.504745L2.71978 0.762718L0.684004 0.511836C0.419561 0.503427 -0.0625798 0.483514 0.0387631 0.490634C2.51473 0.79932 2.02644 0.754164 2.71808 0.774662C2.70957 0.943572 2.6905 1.11179 2.66099 1.27832C2.6511 1.30651 2.63348 1.33136 2.61013 1.35002C2.58679 1.36867 2.55867 1.38038 2.52899 1.38381C2.41912 1.38522 3.18207 1.40125 3.19914 1.40124C3.23733 1.39337 3.27103 1.37113 3.29328 1.3391C3.32772 1.28552 3.31716 1.32544 3.40892 0.526968L3.03528 0.481075Z" fill="url(#paint0_linear_130_422)"/>
<defs>
<linearGradient id="paint0_linear_130_422" x1="1.76554" y1="0.292967" x2="1.62813" y2="1.25797" gradientUnits="userSpaceOnUse">
<stop stop-color="#9E6100"/>
<stop offset="0.49" stop-color="#642701"/>
<stop offset="0.65" stop-color="#682A01"/>
<stop offset="0.81" stop-color="#753401"/>
<stop offset="0.98" stop-color="#8A4401"/>
<stop offset="1" stop-color="#8C4601"/>
</linearGradient>
</defs>
</svg>
