<svg width="3" height="3" viewBox="0 0 3 3" fill="none" xmlns="http://www.w3.org/2000/svg">
<path d="M0.0477369 1.63273C0.0494876 1.69417 0.0675639 1.75404 0.100109 1.80619C0.132654 1.85833 0.178493 1.90087 0.232919 1.92944C0.294211 1.95104 2.01986 2.26327 2.04299 2.26656C2.12414 2.26494 2.20173 2.233 2.26052 2.17705C2.31931 2.1211 2.35504 2.04518 2.36068 1.96422C2.54034 0.702448 2.55988 0.730977 2.50424 0.5793C2.47576 0.505203 2.41977 0.444962 2.34795 0.411145C2.28486 0.387142 0.560113 0.0836248 0.534878 0.0800316C0.454706 0.0827882 0.378478 0.115486 0.321227 0.171677C0.263975 0.227868 0.229858 0.303471 0.225604 0.383577C0.0408499 1.6811 0.0585167 1.55702 0.0477369 1.63273Z" fill="url(#paint0_linear_82_442)"/>
<defs>
<linearGradient id="paint0_linear_82_442" x1="0.136371" y1="1.01026" x2="2.45592" y2="1.34054" gradientUnits="userSpaceOnUse">
<stop stop-color="#FFE6AB"/>
<stop offset="1" stop-color="#FFD778"/>
</linearGradient>
</defs>
</svg>
