<svg width="4" height="5" viewBox="0 0 4 5" fill="none" xmlns="http://www.w3.org/2000/svg">
<path d="M0.892686 4.28035C0.892581 4.39575 0.930068 4.50804 0.999475 4.60023C1.12992 4.75398 1.07613 4.70984 2.37338 4.9718C2.47839 4.98174 2.58315 4.9504 2.66544 4.88442C2.74774 4.81843 2.8011 4.72299 2.81421 4.61833C2.8196 4.58047 3.26521 1.55643 3.26576 1.44708C3.2683 1.36339 3.24881 1.28049 3.20923 1.2067C3.16966 1.13291 3.11139 1.07081 3.04027 1.02662C2.96395 0.990009 3.08202 1.01969 1.78928 0.771253C1.55796 0.738315 1.40813 0.901498 1.34845 1.12472C1.33616 1.16588 0.89534 4.1713 0.892686 4.28035Z" fill="url(#paint0_linear_82_425)"/>
<defs>
<linearGradient id="paint0_linear_82_425" x1="1.10676" y1="2.73168" x2="3.05199" y2="3.00866" gradientUnits="userSpaceOnUse">
<stop stop-color="#FFE6AB"/>
<stop offset="1" stop-color="#FFD778"/>
</linearGradient>
</defs>
</svg>
