<svg width="6" height="7" viewBox="0 0 6 7" fill="none" xmlns="http://www.w3.org/2000/svg">
<path d="M1.18278 0.332546C4.89498 3.93146 4.58933 3.62188 4.66659 3.74231C4.73703 3.86977 4.76754 4.01545 4.75417 4.16046C4.74079 4.30547 4.68414 4.44312 4.59156 4.55553C3.32338 6.10859 3.41916 6.02353 3.23326 6.12365C3.13135 6.17401 3.0165 6.19209 2.90405 6.17547C3.57009 6.30464 3.58393 6.32806 3.78847 6.26278C3.99302 6.1975 4.05184 6.08572 4.31274 5.76027L3.94111 5.68804C4.25335 5.30339 4.13656 5.44553 4.4428 5.07289L4.80602 5.14392L5.18792 4.67692C5.29201 4.55204 5.35049 4.39545 5.35375 4.23291C5.35701 4.07037 5.30484 3.91156 5.20583 3.78262C5.16646 3.74268 1.80257 0.470147 1.69529 0.394796C1.58801 0.319444 1.6391 0.352464 0.929779 0.195679C1.02479 0.21796 1.11213 0.26521 1.18278 0.332546Z" fill="url(#paint0_linear_82_277)"/>
<defs>
<linearGradient id="paint0_linear_82_277" x1="3.39023" y1="0.546022" x2="2.59102" y2="6.15879" gradientUnits="userSpaceOnUse">
<stop stop-color="#9E6100"/>
<stop offset="0.49" stop-color="#642701"/>
<stop offset="0.65" stop-color="#682A01"/>
<stop offset="0.81" stop-color="#753401"/>
<stop offset="0.98" stop-color="#8A4401"/>
<stop offset="1" stop-color="#8C4601"/>
</linearGradient>
</defs>
</svg>
