<svg width="4" height="4" viewBox="0 0 4 4" fill="none" xmlns="http://www.w3.org/2000/svg">
<path d="M0.440324 1.23749C0.34954 1.30154 0.281637 1.39296 0.24655 1.49838C0.211464 1.6038 0.211037 1.71768 0.245331 1.82336C0.679483 3.29483 0.638915 3.2633 0.790682 3.40292C0.828124 3.4343 0.87228 3.45666 0.919738 3.46825C0.967196 3.47984 1.01668 3.48037 1.06438 3.46978C1.13136 3.45143 3.12262 2.57635 3.15565 2.55531C3.24852 2.49211 3.31813 2.40022 3.35383 2.29371C3.38953 2.1872 3.38936 2.07193 3.35335 1.96553C2.9189 0.496163 2.9595 0.602787 2.9171 0.508781C2.88136 0.440991 2.82486 0.386414 2.75588 0.353042C2.68689 0.319669 2.60904 0.309249 2.5337 0.323305C2.45951 0.332051 0.484173 1.21584 0.440324 1.23749Z" fill="url(#paint0_linear_82_435)"/>
<defs>
<linearGradient id="paint0_linear_82_435" x1="0.216719" y1="1.66266" x2="3.38586" y2="2.11391" gradientUnits="userSpaceOnUse">
<stop stop-color="#FFE6AB"/>
<stop offset="1" stop-color="#FFD778"/>
</linearGradient>
</defs>
</svg>
