<svg width="82" height="94" viewBox="0 0 82 94" fill="none" xmlns="http://www.w3.org/2000/svg">
<path d="M81.1648 52.4422C81.5275 49.1794 81.5937 45.8904 81.3625 42.6157C81.1407 39.5199 80.6482 36.4495 79.8905 33.4397C78.1674 26.9014 75.9622 22.2576 72.6257 17.3454C69.3009 12.6988 65.8675 9.17609 60.9076 5.94664C58.6193 4.47871 56.1763 3.26741 53.6227 2.33464C51.1418 1.43203 48.5672 0.811372 45.9475 0.484378C40.6833 -0.125732 36.2132 0.271942 31.0344 1.81958C26.3011 3.37271 22.5635 5.34656 18.2687 8.74727C12.4942 13.5443 8.35713 18.9865 5.01623 26.5674C2.75728 31.9745 1.6749 36.487 1.04566 41.9759C0.27343 50.0664 1.01126 57.3913 3.80266 65.4228C6.60046 73.0025 10.4624 78.9249 15.9258 83.9983C20.0489 87.6793 23.8648 90.0228 29.0563 91.9121C34.3373 93.7003 38.8387 94.1825 44.0727 93.7391C46.5687 93.4889 49.0314 92.9766 51.4201 92.2106C53.9563 91.3972 56.3979 90.3141 58.7031 88.9801C61.0185 87.6395 63.1983 86.0773 65.2118 84.3155C67.3834 82.4132 69.3616 80.3009 71.1176 78.0095C72.8966 75.689 74.4609 73.2114 75.7911 70.6075C77.2453 67.7574 78.4269 64.7762 79.3204 61.7038C80.2011 58.6756 80.8182 55.5768 81.1648 52.4422ZM1.92723 46.3326L11.8699 48.3662L12.6819 49.6405L13.2423 49.3813L12.1902 47.7295L1.95846 45.6461C1.99177 44.8999 1.97688 45.1853 2.02007 44.3997L13.2189 46.638L14.1264 48.0546C14.3451 54.5804 16.1307 59.9411 19.4464 64.9383C20.6534 66.7137 22.0725 68.3352 23.6723 69.7668C25.2288 71.1573 26.9629 72.335 28.8294 73.269C30.7034 74.203 32.6998 74.8679 34.7596 75.2441C36.8081 75.6175 38.9004 75.6877 40.9693 75.4524C43.074 75.209 45.1316 74.6584 47.0766 73.8181C49.0804 72.9511 50.958 71.8176 52.6586 70.4484C54.0852 69.3035 55.3909 68.0156 56.5552 66.6048C58.9948 63.6229 60.8354 60.1979 61.9758 56.5178L59.4374 52.4359L51.7473 50.9612L51.6395 51.7182L59.0364 53.1427L61.1774 56.6101C60.4269 58.8977 59.4021 61.0861 58.1253 63.1272C55.7256 66.8407 53.2535 69.2994 49.8693 71.4737C48.2955 72.4584 46.606 73.2448 44.8392 73.815C43.1066 74.3746 41.3082 74.705 39.4898 74.7976C37.6484 74.894 35.8023 74.7423 34.0013 74.3465C30.5187 73.5202 27.7406 72.2214 24.6348 69.7129C21.8243 67.3152 19.919 64.8897 18.1243 61.536C15.9348 57.2849 14.7579 52.5851 14.6857 47.8038L13.5208 45.9944L2.05491 43.7181C2.11345 42.9755 2.09015 43.2597 2.16249 42.4804L14.4569 44.8747L15.635 46.6967C15.5817 49.6416 15.9586 52.5786 16.7538 55.4147C18.3728 60.9212 21.1142 65.4762 25.7084 69.1492C27.2393 70.3402 28.9248 71.3178 30.7187 72.0554C32.525 72.7958 34.4278 73.2741 36.3696 73.4758C38.2958 73.6764 40.241 73.5919 42.1426 73.225C44.0972 72.8401 45.9861 72.1754 47.751 71.2515C49.4124 70.3795 50.9628 69.3108 52.3689 68.0684C56.0599 64.7491 58.2563 61.1676 59.88 56.7107C59.7492 56.499 59.9825 56.8798 58.3342 54.2013L51.4589 52.8511L51.3514 53.6061L57.9278 54.9008L59.0825 56.7817C58.5642 58.1902 57.9357 59.5556 57.2029 60.8653C55.1903 64.3314 53.076 66.6887 50.1348 68.8703C48.7691 69.8592 47.292 70.6845 45.7339 71.329C42.4493 72.6229 39.5954 73.0468 36.0775 72.694C34.3732 72.4928 32.7023 72.071 31.1068 71.4391C27.7438 70.044 25.3169 68.2674 22.8397 65.518C20.4067 62.6698 18.9125 59.9489 17.6969 56.4308C16.638 53.2132 16.1382 49.838 16.2192 46.4516C14.9867 44.5596 15.9904 46.0993 14.7753 44.2206L2.23097 41.8036C2.32314 41.0207 2.28482 41.3199 2.39349 40.4964L15.2914 42.9316L16.134 44.0965L18.8991 44.6275L18.9988 43.9272L16.4323 43.4481L15.8933 42.7126L16.6396 42.1881L19.2082 42.6676L19.308 41.9673L16.538 41.4549L15.4122 42.2493L2.48961 39.8214C2.58992 39.1169 2.55159 39.3861 2.67532 38.6527L15.2443 40.9724C16.9364 39.6363 16.0274 40.3544 17.2127 39.4139C18.6879 34.0712 21.2243 29.7142 25.3709 26.0285C28.1056 23.7295 30.7079 22.2999 34.2054 21.3797C35.8619 20.9722 37.5651 20.7862 39.2705 20.8264C40.9961 20.8705 42.7083 21.1425 44.3626 21.6352C45.9909 22.1223 47.5505 22.8145 49.0042 23.695C52.0686 25.6053 54.2793 27.7696 56.444 31.0109C58.521 34.3104 59.739 37.419 60.4868 41.5249C60.694 42.7498 60.8239 43.9865 60.8757 45.2277L59.2088 46.5974L52.5994 45.4139L52.4916 46.1709L59.3942 47.4198L61.6157 45.5906C61.3901 39.6259 59.7112 34.51 56.4671 29.7333C55.2396 27.9754 53.7865 26.3864 52.1452 25.0069C50.5957 23.7068 48.8709 22.6313 47.0216 21.8121C45.2173 21.0151 43.3064 20.4857 41.3493 20.2406C39.4311 19.9982 37.4878 20.0366 35.5807 20.3547C33.6965 20.6718 31.866 21.2518 30.1431 22.0779C28.3706 22.929 26.7168 24.0077 25.2233 25.2866C20.8795 29.0923 18.2797 33.4874 16.7282 38.9738L15.1286 40.2479L2.79068 37.9933C2.93123 37.2624 2.87639 37.5421 3.03224 36.779L14.5554 38.8489L16.1265 37.5943C17.2465 33.9369 19.0715 30.5341 21.4985 27.5777C23.9215 24.7257 26.2835 22.7985 29.5301 21.1238C32.7956 19.5569 35.7332 18.8316 39.5174 18.8662C41.366 18.914 43.2002 19.2055 44.9725 19.733C46.7686 20.2722 48.4873 21.0419 50.0855 22.0231C51.7183 23.0191 53.2246 24.209 54.5715 25.567C57.4188 28.5192 59.3353 31.5298 60.9305 35.7714C62.1467 39.2852 62.6914 42.1799 62.7849 46.1497L59.7117 48.6559L52.3032 47.2984L52.1954 48.0555L59.886 49.496L63.5015 46.5564C63.5155 43.5326 63.1095 40.5214 62.2952 37.6092C61.055 33.4054 59.4531 30.3108 56.8693 26.9991C55.4474 25.2297 53.7949 23.6587 51.9559 22.328C50.2101 21.0676 48.2934 20.0628 46.2637 19.344C44.2699 18.6437 42.1847 18.2377 40.0737 18.1387C38.0143 18.04 35.9515 18.2399 33.9494 18.732C31.9521 19.2283 30.0323 19.9959 28.2434 21.0135C26.4514 22.0393 24.7907 23.2791 23.2978 24.7056C19.5613 28.3446 17.2569 32.2626 15.6577 37.1349L14.4463 38.1081L3.18214 36.103C3.34973 35.3781 3.28257 35.6539 3.46787 34.895L13.7788 36.7086L15.1946 35.5649C16.6528 31.4498 18.971 27.6927 21.9949 24.5437C24.6558 21.8737 27.1886 20.0887 30.6633 18.6053C34.1545 17.2314 37.2247 16.7052 41.1351 16.9831C43.3388 17.1745 45.5023 17.6893 47.556 18.511C49.664 19.3595 51.641 20.5028 53.4277 21.9068C55.2727 23.3588 56.9216 25.0439 58.3331 26.92C59.8086 28.8832 61.0414 31.0176 62.0045 33.2767C63.0121 35.6418 63.7399 38.1167 64.1729 40.6508C64.631 43.3015 64.7765 45.9967 64.6065 48.6813C64.4324 51.4307 63.9322 54.1497 63.1163 56.7811C62.3473 59.2668 61.2795 61.65 59.9365 63.8786C58.6703 65.9718 57.1476 67.8985 55.4036 69.6141C53.7518 71.2426 51.8927 72.6465 49.8742 73.7895C47.9357 74.8866 45.8517 75.7037 43.6841 76.2166C41.5455 76.7223 39.3434 76.9056 37.1506 76.7603C35.0674 76.6166 33.0139 76.1863 31.0483 75.4816C29.3519 74.8713 27.7313 74.0682 26.2182 73.0881C21.4659 69.9225 18.3273 65.9118 15.9902 60.7772C14.4099 57.1687 13.4798 53.3093 13.2429 49.377L12.6819 49.6405C13.0452 54.4575 14.1345 58.5155 16.2883 62.8129C18.4368 66.9058 20.9294 70.0135 24.6948 72.8776C26.484 74.1978 28.4455 75.2668 30.5246 76.055C32.6176 76.8495 34.8137 77.3399 37.0458 77.5114C39.2689 77.6785 41.5044 77.516 43.6799 77.0292C45.9304 76.5202 48.0958 75.6897 50.1095 74.5633C52.2543 73.3585 54.2265 71.8697 55.9728 70.1372C57.7796 68.349 59.3509 66.3375 60.6485 64.1516C61.997 61.8789 63.0678 59.4525 63.8382 56.9246C64.6401 54.2898 65.1373 51.5717 65.32 48.8236C65.5048 46.1096 65.3753 43.3834 64.9341 40.6991C64.5038 38.079 63.7641 35.5192 62.7308 33.0733C61.7184 30.6779 60.4121 28.4177 58.842 26.3445C57.3644 24.3923 55.6332 22.6457 53.6941 21.1509C51.8617 19.7346 49.8368 18.5865 47.6806 17.7413C45.5702 16.9204 43.3512 16.4122 41.0939 16.2327C38.8915 16.056 36.6751 16.2008 34.5144 16.6626C32.3706 17.1228 30.3007 17.8772 28.3635 18.9043C25.0137 20.7467 22.3639 22.8862 19.6285 26.2751C17.5329 28.9403 15.8768 31.9235 14.7228 35.1115L13.6541 35.972L3.62377 34.237C3.8187 33.516 3.74073 33.7924 3.95307 33.0395L13.1184 34.5956L14.3304 33.6181C16.9221 27.3358 20.6 22.9032 25.3111 19.5468C28.5497 17.356 31.4387 16.1281 35.1705 15.385C36.9879 15.0504 38.8384 14.9315 40.6836 15.0307C42.9611 15.1531 45.2094 15.6004 47.3603 16.359C49.64 17.1652 51.7914 18.2961 53.7481 19.7167C55.7629 21.1813 57.5756 22.9054 59.1394 24.8442C60.7763 26.8707 62.1586 29.0901 63.2555 31.4529C64.4038 33.9291 65.2575 36.5314 65.7989 39.2066C66.3676 42.0063 66.6054 44.8631 66.5073 47.7182C66.4082 50.6656 65.9579 53.5907 65.1657 56.4314C64.4188 59.1303 63.3464 61.7284 61.9721 64.1684C60.6796 66.4598 59.1054 68.5804 57.2863 70.4808C55.5672 72.2748 53.6195 73.8348 51.4934 75.1208C49.4568 76.3563 47.2569 77.2997 44.958 77.9235C42.6996 78.5348 40.3628 78.8066 38.0245 78.73C35.7724 78.6503 33.5428 78.2534 31.4016 77.5509C27.6784 76.2741 24.9311 74.6084 22.0124 71.9915C20.6673 70.7499 19.4407 69.3857 18.3486 67.9167C14.5299 62.6698 12.5528 57.0565 11.9009 50.9067L10.981 49.4562L1.91549 47.5753C1.91815 46.8333 1.91378 47.1202 1.92723 46.3326ZM1.91881 48.2753L10.6691 50.1091L11.3509 51.1824C12.2224 59.0306 15.1233 65.4642 19.9487 70.8737C21.5588 72.6307 23.3877 74.1739 25.3905 75.4656C27.3781 76.7461 29.5333 77.7454 31.7949 78.4351C34.0653 79.1312 36.4249 79.4932 38.7996 79.5097C41.1814 79.5235 43.5521 79.1843 45.8345 78.5032C48.2217 77.7859 50.4945 76.7317 52.584 75.3726C54.805 73.9299 56.8233 72.1969 58.5852 70.2195C60.399 68.1768 61.9488 65.9142 63.198 63.4848C64.5034 60.9507 65.5024 58.2703 66.1738 55.4999C66.8707 52.6386 67.2371 49.7068 67.2656 46.762C67.2954 43.8791 66.9885 41.0027 66.3512 38.191C65.7302 35.4483 64.781 32.7903 63.5241 30.2747C62.2997 27.8187 60.7705 25.527 58.9726 23.4537C56.9667 21.2371 55.5864 20.0214 53.2158 18.4072C51.1773 17.0677 48.9565 16.0289 46.6218 15.3227C44.3263 14.6287 41.942 14.2726 39.5438 14.2655C37.2104 14.2604 34.8884 14.5917 32.6495 15.2492C30.4076 15.9089 28.2656 16.8699 26.2823 18.1059C20.6376 21.7349 16.6075 26.6366 13.8883 33.1668L13.0151 33.8749L4.15945 32.3887C4.39162 31.6472 4.30012 31.9281 4.5494 31.1569L12.7693 32.5118L13.4639 31.9435C16.3619 25.3937 20.4461 20.7443 25.6265 17.3474C28.9627 15.2692 31.9872 14.0692 35.929 13.4182C37.8234 13.1307 39.7446 13.0622 41.6546 13.2143C44.1257 13.416 46.554 13.9786 48.862 14.8843C50.0481 15.3478 51.199 15.8968 52.3056 16.5268C53.4258 17.1651 54.5004 17.8802 55.5218 18.6669C57.6218 20.2932 59.4995 22.1879 61.1067 24.3026C62.7918 26.5166 64.2007 28.9278 65.3024 31.4827C66.4581 34.1586 67.2955 36.9611 67.7975 39.8324C68.853 45.9436 68.4405 52.2183 66.594 58.1388C65.7159 60.9545 64.4967 63.6523 62.9635 66.172C61.5234 68.5414 59.7902 70.7196 57.8049 72.6552C55.9269 74.4878 53.8137 76.0629 51.5209 77.3389C49.3221 78.5617 46.9611 79.4665 44.5083 80.0265C42.0917 80.5757 39.6065 80.7606 37.1352 80.5751C34.8396 80.3973 32.5785 79.91 30.4134 79.1267C26.6358 77.7048 23.8481 75.9304 20.8831 73.1867C15.0483 67.5283 11.6931 60.2919 10.6172 52.1615L10.0304 51.2197L1.95632 49.5036C1.92535 48.7718 1.93238 49.0539 1.91881 48.2753ZM16.9469 17.9095C20.4614 14.2175 23.8119 11.768 28.341 9.70514C30.4974 8.75115 32.7572 8.05052 35.075 7.61728C37.4694 7.17293 39.9095 7.02672 42.3397 7.18198C43.7839 7.27353 45.2195 7.46934 46.6354 7.7679C48.1068 8.08002 49.5529 8.50108 50.9618 9.0276C52.3735 9.55792 53.7449 10.1899 55.0653 10.9186C56.4026 11.658 57.6864 12.4904 58.9073 13.4095C60.1505 14.3465 61.3292 15.3659 62.4357 16.4609C63.5681 17.5822 64.6274 18.7751 65.6069 20.0321C67.8484 23.0054 69.0632 25.0514 70.6626 28.5405C72.1795 32.1272 72.9124 34.5144 73.682 38.4968C74.3469 42.5823 74.4923 45.1927 74.2908 49.3801C74.1704 51.2588 73.9371 53.1285 73.5922 54.9793C73.2531 56.7962 72.8041 58.5909 72.2477 60.3535C70.9391 64.2695 69.8813 66.5605 67.8824 69.9148C65.803 73.1568 64.3139 74.9959 61.6815 77.5863C60.5403 78.6739 59.3297 79.6863 58.0573 80.6169C56.8155 81.5191 55.5148 82.3374 54.164 83.0664C52.8419 83.7777 51.4719 84.3963 50.0641 84.9178C48.6782 85.4289 47.2573 85.8396 45.8125 86.1469C44.3812 86.4496 42.9297 86.6467 41.4695 86.7365C40.0068 86.8251 38.5396 86.8041 37.08 86.6736C34.301 86.4233 31.5702 85.7883 28.9659 84.7866C26.7051 83.9157 24.5518 82.7876 22.5487 81.4247C18.4415 78.5506 15.525 75.5112 12.6278 71.1465C9.85185 66.7433 8.19902 62.7553 6.95811 57.6223C6.46569 55.4632 6.13245 53.2709 5.96108 51.0629L9.72548 51.8693L10.0751 52.4276C11.0797 59.8227 13.682 65.5808 17.7431 70.7528C19.325 72.7228 21.1476 74.4866 23.1684 76.0031C25.1652 77.4977 27.3559 78.7141 29.6803 79.6187C32.0271 80.5317 34.4926 81.1038 37.0016 81.3178C39.501 81.5291 42.018 81.3675 44.4699 80.8385C47.2952 80.1787 49.0393 79.5324 51.736 78.1184C54.4191 76.5887 56.038 75.3903 58.3852 73.1755C60.6747 70.8689 61.9483 69.2479 63.6981 66.4375C65.2293 63.8738 66.4443 61.1341 67.3166 58.2781C68.2316 55.2976 68.7979 52.221 69.0039 49.11C69.211 46.0365 69.0609 42.9493 68.5566 39.9104C68.0685 36.9433 67.2271 34.0452 66.0503 31.278C64.8955 28.5768 63.4079 26.0304 61.622 23.6979C59.7085 21.2992 58.3293 19.8798 55.7789 17.871C53.3469 16.1001 51.715 15.1897 48.9743 14.0957C46.5929 13.192 44.092 12.6421 41.5512 12.4637C39.0748 12.2863 36.5858 12.4689 34.1619 13.0057C31.7612 13.5412 29.4461 14.4057 27.2821 15.5749C25.0516 16.7808 22.9831 18.2649 21.1262 19.9915C17.6751 23.2377 15.1326 26.7635 13.017 31.4958L12.6599 31.7882L8.78086 31.1543C10.9586 25.6392 13.4634 21.7454 16.9469 17.9095ZM78.918 56.1968C78.5261 58.2797 78.0075 60.3368 77.3651 62.3566C76.7435 64.3067 76.0029 66.2169 75.1474 68.0764C74.3146 69.8716 73.3708 71.6132 72.3215 73.2911C71.303 74.9174 70.1829 76.4778 68.9679 77.963C67.7904 79.3966 66.5222 80.7533 65.1712 82.0246C63.8577 83.2563 62.4643 84.3996 60.9998 85.4472C59.5742 86.4659 58.0811 87.3866 56.5308 88.2031C55.0104 88.994 53.4368 89.6783 51.8215 90.2509C50.2367 90.8128 48.6141 91.2615 46.9658 91.5936C42.0301 92.5818 36.9349 92.443 32.0603 91.1876C30.601 90.8137 29.1677 90.3451 27.7693 89.7849C26.4558 89.2588 25.1748 88.6551 23.933 87.977C21.486 86.6376 19.1963 85.0291 17.1063 83.1816C15.0269 81.3423 13.1385 79.2979 11.4697 77.0794C7.9243 72.2641 5.73563 67.805 3.95852 62.0228C2.82775 58.1785 2.15569 54.2138 1.95634 50.2116L5.35632 50.9403C5.85658 57.0407 7.2016 61.9096 9.58911 66.9913C10.7449 69.4114 12.1347 71.7127 13.7387 73.8622C15.5143 76.2464 17.5747 78.4045 19.874 80.2886C22.4978 82.3551 24.2695 83.4591 27.3147 84.8711C28.6648 85.4696 30.0548 85.9736 31.4747 86.3797C32.8974 86.7845 34.347 87.0877 35.8126 87.287C38.7399 87.6832 41.7097 87.6448 44.6257 87.173C46.1125 86.9352 47.5801 86.5899 49.0168 86.1397C50.4863 85.6684 51.9205 85.0932 53.3085 84.4186C54.7464 83.7157 56.1339 82.9139 57.4607 82.0189C58.8305 81.0865 60.136 80.0632 61.3685 78.9557C62.6184 77.8335 63.7931 76.6304 64.8851 75.3541C65.9944 74.0535 67.02 72.6838 67.9557 71.2534C70.0651 67.9062 71.1804 65.6341 72.5824 61.755C73.8867 57.7783 74.4473 55.1675 74.9158 50.9431C75.2632 46.6799 75.1989 44.0424 74.6857 39.9464C74.056 35.8852 73.4021 33.3955 71.9503 29.5928C70.4259 25.8934 69.2065 23.6987 66.9111 20.441C65.9151 19.0824 64.8303 17.7911 63.6638 16.5757C62.5467 15.4069 61.3507 14.3162 60.0843 13.3111C58.8576 12.3383 57.564 11.4529 56.2133 10.6615C54.8953 9.89029 53.5238 9.21458 52.1092 8.63956C49.3251 7.51105 46.3911 6.79547 43.4002 6.5155C41.928 6.3796 40.448 6.34956 38.9716 6.4256C37.5234 6.50089 36.0824 6.68005 34.6599 6.96169C33.2505 7.24013 31.8621 7.61596 30.5046 8.08649C29.144 8.56333 27.8167 9.13056 26.5317 9.78438C23.5774 11.3505 21.8467 12.5502 19.2568 14.7669C17.6675 16.1747 16.1971 17.7113 14.8607 19.3611C11.8533 23.1382 9.914 26.6319 8.21215 31.0498L4.7771 30.492C6.84755 24.7513 9.14738 20.7296 12.4631 16.4901C14.1851 14.3368 16.112 12.3556 18.2167 10.5743C20.2949 8.81342 22.5519 7.27515 24.9508 5.98472C27.3562 4.6936 29.9018 3.6825 32.5375 2.97123C36.715 1.84554 41.0703 1.53543 45.3651 2.05785C48.7669 2.47156 52.087 3.39492 55.2139 4.79691C56.7921 5.50264 58.3176 6.32073 59.7787 7.24489C61.262 8.18719 62.6792 9.22987 64.0203 10.3656C65.3891 11.5295 66.68 12.782 67.8848 14.115C69.1152 15.485 70.2579 16.9311 71.3063 18.4449C72.3829 20.0005 73.3624 21.6211 74.2392 23.2974C75.137 25.0195 75.9304 26.794 76.6151 28.6113C77.3146 30.4773 77.9029 32.383 78.3772 34.3185C78.8584 36.3014 79.2213 38.3111 79.4641 40.3371C79.7106 42.4122 79.8324 44.5002 79.8289 46.5898C79.8223 48.728 79.6865 50.8639 79.4224 52.9858C79.1493 54.9187 79.2707 54.1872 78.918 56.1968Z" fill="url(#paint0_linear_82_160)"/>
<defs>
<linearGradient id="paint0_linear_82_160" x1="47.7182" y1="0.736506" x2="34.5279" y2="93.3713" gradientUnits="userSpaceOnUse">
<stop stop-color="#9E6100"/>
<stop offset="0.49" stop-color="#642701"/>
<stop offset="0.65" stop-color="#682A01"/>
<stop offset="0.81" stop-color="#753401"/>
<stop offset="0.98" stop-color="#8A4401"/>
<stop offset="1" stop-color="#8C4601"/>
</linearGradient>
</defs>
</svg>
