<svg width="3" height="3" viewBox="0 0 3 3" fill="none" xmlns="http://www.w3.org/2000/svg">
<path d="M0.365394 1.31749C0.392474 1.4136 0.365394 1.31749 0.551606 1.89327C0.571178 1.97104 0.607086 2.04375 0.656931 2.10657C0.706777 2.16939 0.769419 2.22089 0.840703 2.25762C0.911987 2.29436 0.990276 2.3155 1.07036 2.31965C1.15045 2.32379 1.2305 2.31083 1.30519 2.28165C2.71952 1.70633 2.72524 1.74148 2.87925 1.51881C2.96732 1.36764 2.99289 1.18805 2.95051 1.01831C2.91501 0.890953 2.76129 0.418493 2.71739 0.319981C2.67002 0.215233 2.59091 0.128031 2.49126 0.0707157C2.39161 0.0134006 2.27645 -0.0111256 2.16209 0.000607277C2.02422 0.0195957 2.14136 -0.0195102 0.703309 0.571737C0.566618 0.634508 0.457174 0.744505 0.395094 0.881512C0.333015 1.01852 0.322467 1.17333 0.365394 1.31749ZM2.22631 0.498944C2.31884 0.527139 2.30835 0.555684 2.46267 1.02394L1.24627 0.87219C2.21698 0.474014 2.16622 0.483951 2.22631 0.498944ZM2.06272 1.43687C1.06497 1.84407 1.13376 1.82812 1.06706 1.81433C1.00037 1.80054 0.985017 1.74257 0.834005 1.28123L2.06272 1.43687Z" fill="url(#paint0_linear_82_532)"/>
<defs>
<linearGradient id="paint0_linear_82_532" x1="0.360732" y1="0.973531" x2="2.94946" y2="1.34214" gradientUnits="userSpaceOnUse">
<stop stop-color="#FFE6AB"/>
<stop offset="1" stop-color="#FFD778"/>
</linearGradient>
</defs>
</svg>
