<svg width="3" height="4" viewBox="0 0 3 4" fill="none" xmlns="http://www.w3.org/2000/svg">
<path d="M0.228632 1.92102C0.231069 1.99431 0.20401 1.94326 0.779566 2.57233L1.13917 2.62354L1.16595 2.72176L1.5613 2.77805C1.38808 3.01515 1.24311 3.27987 0.96733 3.25776C1.73701 3.36736 1.66552 3.3722 1.75983 3.35774C1.9836 3.29305 2.05923 3.13861 2.32252 2.78131C2.40464 2.67528 2.45194 2.54645 2.45796 2.41248C2.46398 2.27851 2.42841 2.14595 2.35613 2.03299C2.32336 1.99185 1.61646 1.20032 1.54283 1.14478C1.42233 1.05682 1.4635 1.08413 0.710938 0.95981C0.863861 1.0009 0.832616 0.994302 1.52479 1.7537L1.12733 1.69711L1.17807 1.62709L0.492199 1.51656C0.230109 1.86544 0.230102 1.85042 0.228632 1.92102ZM1.6333 1.89574C1.69465 1.96881 1.73703 2.05589 1.75667 2.14926C1.77631 2.24263 1.77261 2.33941 1.74589 2.431C1.7402 2.47096 1.76578 2.56257 1.56477 1.81947L1.6333 1.89574ZM0.942695 1.93901L1.0101 2.18892L0.939769 2.11024C0.922545 2.08488 0.913581 2.05482 0.914105 2.02416C0.914628 1.99351 0.924615 1.96377 0.942695 1.93901Z" fill="url(#paint0_linear_82_194)"/>
<defs>
<linearGradient id="paint0_linear_82_194" x1="1.49384" y1="1.08202" x2="1.17703" y2="3.30693" gradientUnits="userSpaceOnUse">
<stop stop-color="#9E6100"/>
<stop offset="0.49" stop-color="#642701"/>
<stop offset="0.65" stop-color="#682A01"/>
<stop offset="0.81" stop-color="#753401"/>
<stop offset="0.98" stop-color="#8A4401"/>
<stop offset="1" stop-color="#8C4601"/>
</linearGradient>
</defs>
</svg>
