<svg width="6" height="8" viewBox="0 0 6 8" fill="none" xmlns="http://www.w3.org/2000/svg">
<path d="M3.63138 0.829495C3.56776 0.796124 3.49791 0.776331 3.42625 0.771367C3.35458 0.766403 3.28267 0.776376 3.21506 0.800657C3.14745 0.824938 3.08563 0.862999 3.0335 0.912424C2.98137 0.961849 2.94007 1.02156 2.91222 1.08778C0.309966 5.91062 0.414238 5.60621 0.41679 5.96483C0.420373 6.12395 0.47755 6.27721 0.579065 6.3998C0.649047 6.47312 1.85601 7.42728 1.90925 7.46411C1.96844 7.50084 2.03518 7.52367 2.10445 7.5309C2.21447 7.53818 2.32412 7.51209 2.41907 7.45604C2.51401 7.39999 2.58983 7.31658 2.6366 7.21674C5.27842 2.35566 5.08342 2.73245 5.13077 2.57103C5.16442 2.45309 5.16874 2.32871 5.14335 2.20871C5.11796 2.08872 5.06364 1.97675 4.9851 1.88254C4.91034 1.80853 3.68701 0.866662 3.63138 0.829495Z" fill="url(#paint0_linear_130_520)"/>
<defs>
<linearGradient id="paint0_linear_130_520" x1="0.698005" y1="3.85294" x2="4.85662" y2="4.44509" gradientUnits="userSpaceOnUse">
<stop stop-color="#FFE6AB"/>
<stop offset="1" stop-color="#FFD778"/>
</linearGradient>
</defs>
</svg>
