<svg width="3" height="4" viewBox="0 0 3 4" fill="none" xmlns="http://www.w3.org/2000/svg">
<path d="M2.08308 1.85078C2.05556 1.35945 1.71361 1.24496 1.29654 1.00767C1.20071 0.948071 1.08758 0.922522 0.97543 0.935139C0.91143 0.94495 0.85006 0.967538 0.794973 1.00156C0.739886 1.03559 0.692209 1.08035 0.654783 1.13319C0.576361 1.25606 0.623059 1.1506 0.0969019 2.62078C0.0340419 2.77807 0.0312313 2.95298 0.0890031 3.11221C0.146775 3.27144 0.261092 3.40385 0.410186 3.48424C0.895861 3.77029 0.899287 3.79759 1.05694 3.82004C1.13469 3.82684 1.21287 3.81325 1.28376 3.78061C1.35466 3.74796 1.41581 3.69739 1.46119 3.63389C1.54746 3.50726 1.48985 3.63798 2.03952 2.10535C2.07022 2.02407 2.08501 1.93764 2.08308 1.85078ZM1.10583 3.28841C1.09312 3.29533 1.07905 3.29938 1.0646 3.30027C1.05016 3.30116 1.0357 3.29887 1.02223 3.29357C0.889212 3.22766 0.76061 3.15317 0.637244 3.07059L1.50117 2.27483C1.12494 3.29113 1.15425 3.23925 1.09763 3.27749L1.10583 3.28841ZM0.628097 2.46733C1.00329 1.42408 0.969883 1.48756 1.01661 1.45035C1.06334 1.41313 1.10941 1.43188 1.50532 1.66372L0.628097 2.46733Z" fill="url(#paint0_linear_130_551)"/>
<defs>
<linearGradient id="paint0_linear_130_551" x1="0.129135" y1="2.22325" x2="1.98988" y2="2.48821" gradientUnits="userSpaceOnUse">
<stop stop-color="#FFE6AB"/>
<stop offset="1" stop-color="#FFD778"/>
</linearGradient>
</defs>
</svg>
