<svg width="3" height="3" viewBox="0 0 3 3" fill="none" xmlns="http://www.w3.org/2000/svg">
<path d="M2.74255 2.35617C2.74674 2.32672 2.94683 1.05714 2.94018 0.968223C2.9409 0.897872 2.9222 0.828685 2.88613 0.76828C2.85006 0.707875 2.79803 0.658592 2.73575 0.625858C2.66484 0.596451 2.85982 0.643524 0.58199 0.231214C0.492488 0.219487 0.401896 0.242533 0.328877 0.295603C0.255858 0.348672 0.205976 0.427726 0.189499 0.516477C0.185307 0.545918 -0.0129833 1.80289 -0.0069327 1.89601C-0.00580148 1.99067 0.0282244 2.08199 0.0893129 2.15431C0.20893 2.27862 0.07883 2.22791 2.34374 2.64053C2.43395 2.65296 2.52549 2.63043 2.59963 2.57757C2.67377 2.5247 2.7249 2.4455 2.74255 2.35617Z" fill="url(#paint0_linear_82_506)"/>
<defs>
<linearGradient id="paint0_linear_82_506" x1="0.0843897" y1="1.23959" x2="2.85818" y2="1.63455" gradientUnits="userSpaceOnUse">
<stop stop-color="#FFE6AB"/>
<stop offset="1" stop-color="#FFD778"/>
</linearGradient>
</defs>
</svg>
