<svg width="6" height="5" viewBox="0 0 6 5" fill="none" xmlns="http://www.w3.org/2000/svg">
<path d="M5.20594 0.517006C5.183 0.453145 5.14719 0.394682 5.1007 0.345247C5.05422 0.295813 4.99808 0.256464 4.93575 0.229646C4.87638 0.206343 4.81274 0.195914 4.74905 0.199051C4.68535 0.202187 4.62305 0.218817 4.56626 0.247839C0.448979 2.26632 0.756521 2.11057 0.646916 2.20224C0.56572 2.28056 0.50406 2.37685 0.466905 2.48337C0.42975 2.58988 0.418139 2.70363 0.43301 2.81546C0.452284 2.92119 0.883149 4.43081 0.90571 4.49839C0.92367 4.5614 0.955354 4.61965 0.998488 4.66897C1.04162 4.71828 1.09514 4.75744 1.15519 4.78363C1.21525 4.80982 1.28036 4.82239 1.34585 4.82045C1.41133 4.8185 1.47558 4.80208 1.53398 4.77237C5.66808 2.77131 5.36024 2.92916 5.47195 2.83779C5.55348 2.75971 5.61551 2.66355 5.65303 2.55708C5.69055 2.45061 5.70252 2.33681 5.68796 2.22487C5.67259 2.10682 5.2282 0.586689 5.20594 0.517006Z" fill="url(#paint0_linear_82_458)"/>
<defs>
<linearGradient id="paint0_linear_82_458" x1="0.502697" y1="2.14523" x2="5.62337" y2="2.87437" gradientUnits="userSpaceOnUse">
<stop stop-color="#FFE6AB"/>
<stop offset="1" stop-color="#FFD778"/>
</linearGradient>
</defs>
</svg>
