<svg width="5" height="9" viewBox="0 0 5 9" fill="none" xmlns="http://www.w3.org/2000/svg">
<path d="M0.759965 1.00283C0.583382 1.06641 0.434728 1.18999 0.339952 1.35198C0.245176 1.51397 0.210298 1.7041 0.241392 1.88919C1.20855 8.22436 1.12749 7.80095 1.20128 7.98449C1.25451 8.11109 1.34406 8.21909 1.45863 8.29483C1.57321 8.37057 1.70765 8.41065 1.84499 8.41002C1.96987 8.40587 3.87776 8.03172 3.96134 8.0095C4.09656 7.96548 4.217 7.88498 4.30937 7.77686C4.40174 7.66874 4.46245 7.53722 4.48482 7.39678C4.49962 7.30577 4.5005 7.21304 4.48742 7.12177C3.50831 0.76784 3.58664 1.17624 3.51285 0.9927C3.4584 0.866389 3.36743 0.759234 3.25164 0.684992C3.13585 0.61075 3.00051 0.572808 2.863 0.576037C2.73061 0.581557 0.833657 0.98164 0.759965 1.00283Z" fill="url(#paint0_linear_130_617)"/>
<defs>
<linearGradient id="paint0_linear_130_617" x1="-0.118241" y1="4.14101" x2="4.84295" y2="4.84743" gradientUnits="userSpaceOnUse">
<stop stop-color="#FFE6AB"/>
<stop offset="1" stop-color="#FFD778"/>
</linearGradient>
</defs>
</svg>
