<svg width="3" height="7" viewBox="0 0 3 7" fill="none" xmlns="http://www.w3.org/2000/svg">
<path d="M2.06972 6.4912C2.1084 6.34008 2.07527 6.81383 2.3568 1.02437C2.36467 0.897409 2.3372 0.770758 2.27744 0.658471C2.21767 0.546184 2.12796 0.452655 2.01826 0.388269C1.84639 0.299428 1.85691 0.315946 1.16026 0.266098C1.30121 0.27438 1.43541 0.329237 1.5418 0.422054C1.6482 0.514872 1.72075 0.640394 1.74808 0.778914C1.7794 0.950729 1.78401 0.52656 1.50637 6.28869C1.5025 6.36864 1.48549 6.44741 1.45601 6.52182C1.41316 6.63728 1.33777 6.73785 1.23896 6.81136C1.14015 6.88487 1.02216 6.92817 0.899257 6.93603C0.828363 6.93666 0.672452 6.93163 1.42677 6.95321C1.57034 6.95999 1.71198 6.91804 1.8287 6.83417C1.94542 6.7503 2.03035 6.62943 2.06972 6.4912Z" fill="url(#paint0_linear_82_310)"/>
<defs>
<linearGradient id="paint0_linear_82_310" x1="2.05339" y1="0.352505" x2="1.10896" y2="6.9852" gradientUnits="userSpaceOnUse">
<stop stop-color="#9E6100"/>
<stop offset="0.49" stop-color="#642701"/>
<stop offset="0.65" stop-color="#682A01"/>
<stop offset="0.81" stop-color="#753401"/>
<stop offset="0.98" stop-color="#8A4401"/>
<stop offset="1" stop-color="#8C4601"/>
</linearGradient>
</defs>
</svg>
