<svg width="3" height="2" viewBox="0 0 3 2" fill="none" xmlns="http://www.w3.org/2000/svg">
<path d="M1.31592 1.22634C2.74079 0.697581 2.64047 0.739078 2.66509 0.716837C2.68525 0.69517 2.69816 0.667761 2.70201 0.638419C2.7074 0.600566 2.7044 0.621596 2.62765 0.286683L1.92982 0.290303C2.00265 0.592473 2.02399 0.623406 1.98798 0.695519C1.95196 0.767632 2.04476 0.703605 0.624103 1.23296C0.646978 1.32848 0.683368 1.41948 0.609799 1.4841C0.585775 1.50214 0.608301 1.49462 0.366518 1.58034L1.05263 1.56861C1.29952 1.47718 1.27879 1.4871 1.30522 1.46726C1.36227 1.39814 1.32798 1.32246 1.31592 1.22634Z" fill="url(#paint0_linear_82_167)"/>
<defs>
<linearGradient id="paint0_linear_82_167" x1="1.65609" y1="0.148342" x2="1.43061" y2="1.73186" gradientUnits="userSpaceOnUse">
<stop stop-color="#9E6100"/>
<stop offset="0.49" stop-color="#642701"/>
<stop offset="0.65" stop-color="#682A01"/>
<stop offset="0.81" stop-color="#753401"/>
<stop offset="0.98" stop-color="#8A4401"/>
<stop offset="1" stop-color="#8C4601"/>
</linearGradient>
</defs>
</svg>
