<svg width="3" height="3" viewBox="0 0 3 3" fill="none" xmlns="http://www.w3.org/2000/svg">
<path d="M0.991272 0.590219C0.994687 0.605426 1.00141 0.619695 1.01096 0.632011C1.02051 0.644327 1.03265 0.65439 1.04653 0.661484C1.06041 0.668577 1.07568 0.672529 1.09126 0.673056C1.10683 0.673584 1.12234 0.670675 1.13666 0.664537L1.2506 0.617398L1.68142 2.55528C1.6837 2.57031 1.68898 2.58472 1.69695 2.59767C1.70492 2.61061 1.71541 2.62183 1.72779 2.63064C1.74018 2.63945 1.75421 2.64568 1.76905 2.64896C1.78389 2.65224 1.79924 2.6525 1.81419 2.64973C1.83091 2.65211 1.81419 2.64973 2.13248 2.51959C1.55567 -0.0702822 1.59909 0.121118 1.59089 0.093142C1.58601 0.0794433 1.57836 0.0668954 1.56842 0.0562754C1.55848 0.0456553 1.54647 0.0371899 1.53313 0.0314051C1.51978 0.0256204 1.50539 0.022639 1.49085 0.0226464C1.47631 0.0226537 1.46192 0.0256499 1.44858 0.0314482L0.915367 0.250408C0.995716 0.610349 0.984438 0.56975 0.991272 0.590219Z" fill="url(#paint0_linear_130_547)"/>
<defs>
<linearGradient id="paint0_linear_130_547" x1="0.777959" y1="1.21542" x2="2.28758" y2="1.43037" gradientUnits="userSpaceOnUse">
<stop stop-color="#FFE6AB"/>
<stop offset="1" stop-color="#FFD778"/>
</linearGradient>
</defs>
</svg>
