<svg width="4" height="2" viewBox="0 0 4 2" fill="none" xmlns="http://www.w3.org/2000/svg">
<path d="M1.95127 1.43512C3.5697 0.834526 3.45576 0.881661 3.48373 0.856399C3.50663 0.831789 3.52128 0.800656 3.52566 0.767327C3.53178 0.724332 3.52838 0.748219 3.44119 0.367809L2.64856 0.37192C2.73129 0.71514 2.75554 0.750275 2.71463 0.832185C2.67372 0.914094 2.77912 0.841369 1.16547 1.44264C1.19145 1.55113 1.23278 1.6545 1.14922 1.7279C1.12193 1.74838 1.14752 1.73984 0.872889 1.83721L1.65221 1.82389C1.93264 1.72003 1.9091 1.7313 1.93912 1.70877C2.00391 1.63026 1.96497 1.5443 1.95127 1.43512Z" fill="url(#paint0_linear_130_259)"/>
<defs>
<linearGradient id="paint0_linear_130_259" x1="2.33765" y1="0.210674" x2="2.08154" y2="2.00931" gradientUnits="userSpaceOnUse">
<stop stop-color="#9E6100"/>
<stop offset="0.49" stop-color="#642701"/>
<stop offset="0.65" stop-color="#682A01"/>
<stop offset="0.81" stop-color="#753401"/>
<stop offset="0.98" stop-color="#8A4401"/>
<stop offset="1" stop-color="#8C4601"/>
</linearGradient>
</defs>
</svg>
