<svg width="2" height="3" viewBox="0 0 2 3" fill="none" xmlns="http://www.w3.org/2000/svg">
<path d="M0.145655 0.734462C0.148337 0.749385 0.154114 0.763581 0.162615 0.776136C0.171117 0.788691 0.182155 0.799326 0.195016 0.807356C0.207877 0.815386 0.222276 0.820632 0.237289 0.822759C0.252301 0.824885 0.267593 0.823844 0.282179 0.819702L0.402608 0.778361C0.791593 3.0271 0.744376 2.74256 0.751557 2.7777C0.754239 2.79262 0.760016 2.80682 0.768517 2.81937C0.777019 2.83193 0.788055 2.84256 0.800916 2.85059C0.813778 2.85862 0.828178 2.86387 0.843191 2.866C0.858203 2.86812 0.873495 2.86708 0.888081 2.86294L1.20092 2.75395C0.642254 -0.459663 0.796899 0.456759 0.771915 0.289918C0.769249 0.274246 0.763176 0.259351 0.754122 0.246284C0.745068 0.233217 0.733253 0.222298 0.719515 0.214299C0.705777 0.206299 0.690451 0.201413 0.674618 0.199988C0.658785 0.198562 0.642831 0.20063 0.627885 0.206047L0.0840834 0.396691L0.145655 0.734462Z" fill="url(#paint0_linear_130_548)"/>
<defs>
<linearGradient id="paint0_linear_130_548" x1="-0.0604669" y1="1.41186" x2="1.36316" y2="1.61457" gradientUnits="userSpaceOnUse">
<stop stop-color="#FFE6AB"/>
<stop offset="1" stop-color="#FFD778"/>
</linearGradient>
</defs>
</svg>
