<svg width="31" height="75" viewBox="0 0 31 75" fill="none" xmlns="http://www.w3.org/2000/svg">
<path d="M1.11901 74.3235C3.84195 74.0343 6.50759 73.3464 9.03042 72.2818C11.9868 70.9797 13.7715 69.913 16.4893 67.8215C18.8582 65.9152 20.967 63.7067 22.7619 61.2523C24.6215 58.7091 26.1609 55.9464 27.345 53.0267C28.5828 49.9733 29.4588 46.7854 29.955 43.5282C30.4625 40.2413 30.5906 36.9069 30.3367 33.5906C30.0903 30.3527 29.4634 27.1551 28.469 24.0639C27.498 21.0413 26.159 18.1496 24.4821 15.4539C22.5088 12.419 21.1081 10.7208 18.7162 8.40128C16.6446 6.44815 14.3101 4.79425 11.7805 3.4876C9.48866 2.31048 7.0474 1.45045 4.52382 0.931152C7.84716 1.67992 11.0094 3.01833 13.8605 4.88288C14.37 4.98467 14.2403 4.93696 14.4256 5.05596C14.7809 5.29908 15.5851 5.83032 16.4002 6.47279L15.9777 6.39313C17.3421 7.45139 18.6185 8.6185 19.7944 9.883C22.0885 12.4274 23.3924 14.241 25.1739 17.424C26.689 20.2385 27.8568 23.2264 28.6519 26.3223C29.4664 29.4908 29.9087 32.7435 29.9696 36.0144C30.0333 39.3692 29.7107 42.7201 29.0083 46.0011C28.0643 50.1316 26.8516 53.7704 24.4221 57.9794L24.839 57.9608C24.331 58.8413 23.6409 59.9055 23.3166 60.3687L22.8969 60.3894C20.2624 64.1036 18.1277 66.2075 15.0876 68.5602C12.3196 70.5592 10.5188 71.5506 7.55045 72.7315C5.63085 73.4603 3.63688 73.9757 1.60453 74.2683C0.650896 74.3762 0.166057 74.4266 1.11901 74.3235Z" fill="url(#paint0_linear_130_240)"/>
<defs>
<linearGradient id="paint0_linear_130_240" x1="19.9544" y1="3.12832" x2="9.62602" y2="75.6639" gradientUnits="userSpaceOnUse">
<stop stop-color="#9E6100"/>
<stop offset="0.49" stop-color="#642701"/>
<stop offset="0.65" stop-color="#682A01"/>
<stop offset="0.81" stop-color="#753401"/>
<stop offset="0.98" stop-color="#8A4401"/>
<stop offset="1" stop-color="#8C4601"/>
</linearGradient>
</defs>
</svg>
