<svg width="3" height="4" viewBox="0 0 3 4" fill="none" xmlns="http://www.w3.org/2000/svg">
<path d="M2.5417 1.9846C2.54638 1.71063 2.45411 1.60524 2.22592 1.18868C2.16478 1.07276 2.06119 0.984982 1.93682 0.943691C1.84639 0.930815 1.89896 0.9383 1.14347 0.970188C1.41444 0.980878 1.50074 1.1734 1.61919 1.38122C1.45663 1.37481 1.29386 1.38616 1.13376 1.41508C1.11514 1.42531 1.01425 1.51608 0.533797 1.93686L1.22831 1.89628L1.68624 1.49805C1.76388 1.5961 1.81658 1.71152 1.83982 1.83441C1.86305 1.95731 1.85613 2.084 1.81964 2.20362C1.31908 2.2202 0.820554 2.27547 0.32852 2.36893C0.546486 2.75184 0.524844 2.72301 0.556096 2.74463C0.587347 2.76624 0.533876 2.76506 1.29988 2.71965C1.32091 2.72265 1.33561 2.69471 0.865373 3.10407C0.803114 3.16221 0.722208 3.19632 0.637113 3.2003C1.45568 3.14735 1.36827 3.15851 1.45147 3.13173C1.53467 3.10496 1.46439 3.14645 2.38986 2.34275C2.43805 2.29641 2.47635 2.24077 2.50245 2.17922C2.52854 2.11766 2.5419 2.05146 2.5417 1.9846ZM1.29807 2.71725C1.21366 2.7224 1.20132 2.65842 1.01462 2.32716L1.80342 2.21205C1.73889 2.34876 1.72928 2.34095 1.29807 2.71725Z" fill="url(#paint0_linear_82_199)"/>
<defs>
<linearGradient id="paint0_linear_82_199" x1="1.61326" y1="0.895475" x2="1.2722" y2="3.29073" gradientUnits="userSpaceOnUse">
<stop stop-color="#9E6100"/>
<stop offset="0.49" stop-color="#642701"/>
<stop offset="0.65" stop-color="#682A01"/>
<stop offset="0.81" stop-color="#753401"/>
<stop offset="0.98" stop-color="#8A4401"/>
<stop offset="1" stop-color="#8C4601"/>
</linearGradient>
</defs>
</svg>
