<svg width="3" height="4" viewBox="0 0 3 4" fill="none" xmlns="http://www.w3.org/2000/svg">
<path d="M2.72768 1.23418C2.72116 1.14308 2.69522 1.13696 2.46956 0.873302L1.68788 0.937467C1.93334 1.21612 1.92139 1.21442 1.93916 1.26082C1.94627 1.29572 1.94111 1.332 1.92453 1.36353C1.91943 1.39936 1.99444 1.28331 0.804673 2.84422C0.877732 2.93017 0.933026 2.96972 0.92079 3.07277C0.911947 3.13488 0.913647 3.12293 0.710746 3.38405L1.49345 3.31272L1.6851 3.06219C1.7509 2.94239 1.66897 2.86736 1.58738 2.77289C2.79898 1.1956 2.72533 1.31914 2.72768 1.23418Z" fill="url(#paint0_linear_130_301)"/>
<defs>
<linearGradient id="paint0_linear_130_301" x1="1.93929" y1="0.797796" x2="1.55393" y2="3.50411" gradientUnits="userSpaceOnUse">
<stop stop-color="#9E6100"/>
<stop offset="0.49" stop-color="#642701"/>
<stop offset="0.65" stop-color="#682A01"/>
<stop offset="0.81" stop-color="#753401"/>
<stop offset="0.98" stop-color="#8A4401"/>
<stop offset="1" stop-color="#8C4601"/>
</linearGradient>
</defs>
</svg>
