<svg width="5" height="7" viewBox="0 0 5 7" fill="none" xmlns="http://www.w3.org/2000/svg">
<path d="M3.88343 2.44101C3.83534 2.50483 0.682939 6.33057 0.601085 6.40909C0.548506 6.45795 0.486187 6.49515 0.418219 6.51823C0.350251 6.54131 0.278169 6.54976 0.206706 6.54302C1.06184 6.66478 1.09973 6.70674 1.32861 6.55411C1.43844 6.46739 1.168 6.77495 4.61438 2.61332C4.69245 2.51466 4.74679 2.39936 4.77318 2.27634C4.79957 2.15332 4.79731 2.02588 4.76658 1.90388C4.70165 1.69235 4.66411 1.68214 4.3152 1.25715L3.85419 1.1915L3.39194 0.638271L3.85295 0.703914C3.39786 0.151701 3.59104 0.266942 2.55811 0.0930559C2.66525 0.118068 2.76063 0.17894 2.82843 0.265584C3.9274 1.6016 3.97414 1.58145 4.01932 1.89739C4.03801 2.08884 3.99 2.28087 3.88343 2.44101Z" fill="url(#paint0_linear_130_303)"/>
<defs>
<linearGradient id="paint0_linear_130_303" x1="3.09725" y1="0.157639" x2="2.14832" y2="6.82193" gradientUnits="userSpaceOnUse">
<stop stop-color="#9E6100"/>
<stop offset="0.49" stop-color="#642701"/>
<stop offset="0.65" stop-color="#682A01"/>
<stop offset="0.81" stop-color="#753401"/>
<stop offset="0.98" stop-color="#8A4401"/>
<stop offset="1" stop-color="#8C4601"/>
</linearGradient>
</defs>
</svg>
