<svg width="7" height="6" viewBox="0 0 7 6" fill="none" xmlns="http://www.w3.org/2000/svg">
<path d="M0.916916 0.971924C6.08797 2.46372 5.66344 2.33016 5.79518 2.39766C5.90116 2.4743 5.98388 2.57874 6.03422 2.69945C6.08455 2.82016 6.10054 2.95243 6.0804 3.08166C6.05626 3.25125 5.48083 5.17014 5.45936 5.23532C5.40968 5.37624 5.31759 5.49833 5.19575 5.58483C5.07392 5.67134 4.92829 5.71801 4.77887 5.71845C4.74543 5.71369 4.4639 5.65411 5.4327 5.8676C5.51498 5.88133 5.59921 5.87791 5.68011 5.85756C5.76102 5.83721 5.83684 5.80036 5.90283 5.74933C6.17741 5.53253 6.18483 5.36056 6.33984 4.83673L5.9126 4.73934C6.10304 4.08651 6.04581 4.28308 6.163 3.8879L6.5899 3.98768C6.78068 3.33247 6.83183 3.2642 6.77984 2.97897C6.74393 2.81268 6.64506 2.66673 6.50396 2.57169C6.37119 2.4943 6.75545 2.61969 1.63525 1.14732L0.916916 0.971924Z" fill="url(#paint0_linear_130_349)"/>
<defs>
<linearGradient id="paint0_linear_130_349" x1="3.9556" y1="1.40217" x2="3.36107" y2="5.5775" gradientUnits="userSpaceOnUse">
<stop stop-color="#9E6100"/>
<stop offset="0.49" stop-color="#642701"/>
<stop offset="0.65" stop-color="#682A01"/>
<stop offset="0.81" stop-color="#753401"/>
<stop offset="0.98" stop-color="#8A4401"/>
<stop offset="1" stop-color="#8C4601"/>
</linearGradient>
</defs>
</svg>
