<svg width="4" height="4" viewBox="0 0 4 4" fill="none" xmlns="http://www.w3.org/2000/svg">
<path d="M0.412706 2.31577C0.414694 2.38556 0.435226 2.45357 0.472192 2.5128C0.509158 2.57203 0.561225 2.62035 0.623045 2.65279C0.692663 2.67733 2.65274 3.03197 2.67902 3.03572C2.77118 3.03386 2.85932 2.9976 2.9261 2.93404C2.99288 2.87049 3.03346 2.78425 3.03986 2.69229C3.24393 1.25911 3.26613 1.29152 3.20292 1.11923C3.17057 1.03507 3.10698 0.966647 3.02541 0.928236C2.95374 0.900972 0.994688 0.556222 0.966025 0.552141C0.874962 0.555272 0.788378 0.592412 0.723349 0.656236C0.65832 0.720061 0.619569 0.805935 0.614736 0.896923C0.404883 2.37071 0.42495 2.22978 0.412706 2.31577Z" fill="url(#paint0_linear_130_534)"/>
<defs>
<linearGradient id="paint0_linear_130_534" x1="0.513381" y1="1.60874" x2="3.14804" y2="1.98389" gradientUnits="userSpaceOnUse">
<stop stop-color="#FFE6AB"/>
<stop offset="1" stop-color="#FFD778"/>
</linearGradient>
</defs>
</svg>
