<svg width="3" height="4" viewBox="0 0 3 4" fill="none" xmlns="http://www.w3.org/2000/svg">
<path d="M2.15895 2.84936C2.14193 2.81827 2.11392 2.79465 2.0804 2.78312C2.04689 2.77158 2.01028 2.77297 1.97774 2.787L1.85255 2.86178C0.508678 0.233363 0.903451 0.969517 0.820135 0.835801C0.811572 0.819806 0.799928 0.805665 0.785876 0.79419C0.771824 0.782714 0.75564 0.774136 0.738257 0.768942C0.720875 0.763749 0.702641 0.762041 0.684597 0.763927C0.666554 0.765813 0.649061 0.771254 0.633128 0.779929L0.326806 0.962957L1.59315 3.45117C1.60835 3.48614 1.63674 3.5137 1.67214 3.52787C1.70754 3.54203 1.74709 3.54167 1.78222 3.52684L2.33585 3.19868L2.15895 2.84936Z" fill="url(#paint0_linear_130_603)"/>
<defs>
<linearGradient id="paint0_linear_130_603" x1="0.178515" y1="2.0044" x2="2.45966" y2="2.32921" gradientUnits="userSpaceOnUse">
<stop stop-color="#FFE6AB"/>
<stop offset="1" stop-color="#FFD778"/>
</linearGradient>
</defs>
</svg>
