<svg width="44" height="20" viewBox="0 0 44 20" fill="none" xmlns="http://www.w3.org/2000/svg">
<path d="M4.77115 9.50045C3.28622 7.38302 2.11286 5.06344 1.28695 2.61264C1.03977 2.7212 1.16531 2.66827 0.730721 2.85743C2.53134 8.14306 5.44435 12.126 9.23951 15.1724C10.7711 16.3704 12.4587 17.3542 14.2558 18.0966C16.0632 18.8381 17.9674 19.3173 19.9106 19.5197C21.8388 19.7218 23.7863 19.6376 25.6899 19.2698C27.6472 18.885 29.5385 18.2192 31.3053 17.293C37.2169 14.0796 41.0868 9.21738 43.4501 2.71591C43.3338 2.52341 43.5217 2.83123 41.9052 0.200158L40.9784 0.018837C40.8634 0.826368 40.8838 0.68337 40.8691 0.786414L41.4952 0.909894L42.652 2.79108C41.4375 6.15787 39.5597 9.24666 37.1297 11.8744C34.4724 14.6393 31.9657 16.3164 28.706 17.6009C27.1681 18.1833 25.5633 18.5704 23.929 18.7531C22.2878 18.9354 20.6299 18.9034 18.9969 18.658C17.293 18.4014 15.63 17.9229 14.0502 17.2348C10.4242 15.5771 7.53479 13.3119 4.77115 9.50045Z" fill="#FFE082"/>
</svg>
