<svg width="2" height="3" viewBox="0 0 2 3" fill="none" xmlns="http://www.w3.org/2000/svg">
<path d="M0.231707 1.81538C1.11913 2.55967 1.03078 2.48701 1.07556 2.51913C1.28259 2.64731 1.45978 2.5481 1.60539 2.35427C1.63901 2.29898 1.86263 1.91887 1.91515 1.79118C1.9502 1.70117 1.96434 1.60437 1.95649 1.5081C1.94864 1.41182 1.91901 1.3186 1.86983 1.23546C1.8055 1.14477 1.87282 1.21443 0.975483 0.464436C0.782556 0.312522 0.608046 0.362766 0.446515 0.547887C0.351046 0.675902 0.131939 1.08455 0.120533 1.10438C0.0595386 1.21894 0.0374004 1.35021 0.0574502 1.47844C0.0775 1.60666 0.138653 1.72491 0.231707 1.81538ZM1.60833 1.56512C1.61979 1.65042 1.59605 1.65134 1.39615 2.01552L0.994964 1.02077C1.64408 1.55519 1.59959 1.50594 1.60833 1.56512ZM0.392202 1.33617C0.399089 1.2878 0.396993 1.30252 0.601399 0.936838L0.997778 1.92017C0.600796 1.58901 0.436113 1.4497 0.422889 1.43709C0.412207 1.42297 0.404533 1.4068 0.40034 1.3896C0.396147 1.3724 0.395524 1.35452 0.398511 1.33707L0.392202 1.33617Z" fill="url(#paint0_linear_82_408)"/>
<defs>
<linearGradient id="paint0_linear_82_408" x1="0.0590589" y1="1.34022" x2="1.95592" y2="1.61032" gradientUnits="userSpaceOnUse">
<stop stop-color="#FFE6AB"/>
<stop offset="1" stop-color="#FFD778"/>
</linearGradient>
</defs>
</svg>
