<svg width="31" height="21" viewBox="0 0 31 21" fill="none" xmlns="http://www.w3.org/2000/svg">
<path d="M0.77879 20.7085C1.73342 19.9411 1.02083 20.5155 2.19166 19.5708C4.42776 13.4653 7.88691 8.94148 12.51 5.49527C13.9294 4.45883 15.454 3.57488 17.0587 2.85807C20.4847 1.39985 23.5302 0.775727 27.4433 0.929544C28.4725 0.987438 29.4966 1.11534 30.5085 1.31236C27.5327 0.738448 25.3866 0.636693 22.2692 1.08752C20.531 1.36499 18.8307 1.84288 17.2024 2.51164C13.7575 3.98218 11.213 5.75901 8.52354 8.46355C7.02891 10.0075 5.7073 11.7101 4.5822 13.5409L4.98807 13.5987C4.59994 14.2301 4.31598 14.7174 3.86847 15.5699L3.46081 15.5247C2.78837 16.8144 2.20484 18.1486 1.7143 19.5178L0.299026 20.6573L0.77879 20.7085Z" fill="url(#paint0_linear_82_137)"/>
<defs>
<linearGradient id="paint0_linear_82_137" x1="17.0616" y1="-0.643113" x2="13.7555" y2="22.5755" gradientUnits="userSpaceOnUse">
<stop stop-color="#9E6100"/>
<stop offset="0.49" stop-color="#642701"/>
<stop offset="0.65" stop-color="#682A01"/>
<stop offset="0.81" stop-color="#753401"/>
<stop offset="0.98" stop-color="#8A4401"/>
<stop offset="1" stop-color="#8C4601"/>
</linearGradient>
</defs>
</svg>
