<svg width="32" height="19" viewBox="0 0 32 19" fill="none" xmlns="http://www.w3.org/2000/svg">
<path d="M6.48494 11.1166C7.91361 12.6621 9.53589 14.0167 11.3115 15.1467C13.0742 16.2644 14.9831 17.1326 16.984 17.7266C18.9906 18.3234 21.0735 18.6243 23.167 18.6199C25.2636 18.6129 27.3476 18.2958 29.3515 17.6789C30.0922 17.4507 30.8205 17.1841 31.5335 16.8804C31.3477 16.4376 31.2472 16.2088 31.2394 16.1583C29.1623 17.0467 26.9565 17.5974 24.7055 17.7898C22.875 17.9424 21.0323 17.8496 19.2264 17.5138C15.7129 16.799 12.8753 15.586 9.67072 13.1386C8.30208 12.059 7.05051 10.8388 5.93656 9.49798C3.67838 6.75784 1.94812 3.62256 0.83362 0.251263C0.325443 0.474994 0.374103 0.464755 0.270466 0.469308C1.56164 4.41976 3.68022 8.04954 6.48494 11.1166Z" fill="#FFE082"/>
</svg>
