<svg width="2" height="4" viewBox="0 0 2 4" fill="none" xmlns="http://www.w3.org/2000/svg">
<path d="M1.82055 0.496618C1.80991 0.365939 1.7519 0.362558 1.4444 0.211542L0.677404 0.309481L0.989 0.465952C1.0172 0.48773 1.03766 0.517981 1.04739 0.552253C1.06756 0.633111 1.09138 0.500024 0.48157 2.59193C0.583956 2.64306 0.682578 2.66929 0.674454 2.81192C0.670032 2.84297 0.674456 2.81192 0.573277 3.16307L1.34129 3.05797C1.43736 2.72559 1.44487 2.72422 1.44109 2.66519C1.42296 2.55294 1.3588 2.54137 1.2472 2.48648C1.86417 0.378539 1.82057 0.5478 1.82055 0.496618Z" fill="url(#paint0_linear_130_325)"/>
<defs>
<linearGradient id="paint0_linear_130_325" x1="1.28198" y1="0.188414" x2="0.852746" y2="3.20287" gradientUnits="userSpaceOnUse">
<stop stop-color="#9E6100"/>
<stop offset="0.49" stop-color="#642701"/>
<stop offset="0.65" stop-color="#682A01"/>
<stop offset="0.81" stop-color="#753401"/>
<stop offset="0.98" stop-color="#8A4401"/>
<stop offset="1" stop-color="#8C4601"/>
</linearGradient>
</defs>
</svg>
