<svg width="40" height="23" viewBox="0 0 40 23" fill="none" xmlns="http://www.w3.org/2000/svg">
<path d="M0.648112 22.2973L0.726937 22.3085C3.40877 16.8926 6.32064 13.113 10.1952 9.5217C11.8977 7.97408 13.7414 6.58927 15.7021 5.38541C19.8638 2.90972 23.6359 1.49232 28.5817 0.783063C30.9516 0.476441 33.3489 0.444888 35.726 0.689032C37.1516 0.86035 36.607 0.782803 38.0883 1.02541C38.4818 1.10337 39.5376 1.32194 39.1837 1.23987C37.2472 0.856895 38.5439 1.06103 36.4064 0.720112C36.1675 0.6861 36.0863 0.674536 36.6562 0.797112C34.8645 0.553165 33.0549 0.467559 31.2482 0.541288C30.4552 0.564854 30.8395 0.622002 30.1901 0.47592C29.2661 0.529571 28.6806 0.602176 28.4302 0.632317L28.8721 0.72936C26.8861 0.961684 24.927 1.38374 23.0216 1.98974L22.5742 1.8968C21.6326 2.19408 21.1475 2.38333 20.9002 2.47728L21.3499 2.57056C19.4663 3.28298 17.6508 4.16395 15.9255 5.20276L15.47 5.11596C14.7042 5.565 14.2607 5.87229 13.9551 6.06761L14.4106 6.15441C12.71 7.28899 11.1082 8.56503 9.62212 9.96895L9.16112 9.90331C8.63042 10.3956 8.12805 10.9114 7.85589 11.1797L8.31689 11.2453C6.86863 12.7403 5.53574 14.3428 4.32965 16.0391L3.86625 15.9731C3.67188 16.2428 2.98992 17.2497 2.81603 17.5295L3.27943 17.5955C2.30712 19.1076 1.42837 20.6777 0.648112 22.2973Z" fill="url(#paint0_linear_130_226)"/>
<defs>
<linearGradient id="paint0_linear_130_226" x1="21.8221" y1="-1.36143" x2="18.0995" y2="24.7822" gradientUnits="userSpaceOnUse">
<stop stop-color="#9E6100"/>
<stop offset="0.49" stop-color="#642701"/>
<stop offset="0.65" stop-color="#682A01"/>
<stop offset="0.81" stop-color="#753401"/>
<stop offset="0.98" stop-color="#8A4401"/>
<stop offset="1" stop-color="#8C4601"/>
</linearGradient>
</defs>
</svg>
