<svg width="4" height="5" viewBox="0 0 4 5" fill="none" xmlns="http://www.w3.org/2000/svg">
<path d="M1.52189 3.57145L1.89382 3.64157L2.48095 2.65238L2.10962 2.57805C2.12913 2.5465 2.0637 2.65948 2.51246 1.90377L2.88378 1.9781C2.96389 1.87256 3.01041 1.74537 3.0173 1.61305C3.02324 1.48937 2.98507 1.3676 2.90959 1.26944C2.84287 1.19557 2.96007 1.27662 1.69618 0.403634C1.64873 0.3692 1.59407 0.34601 1.53634 0.335817C0.652771 0.152075 0.941479 0.203912 1.03793 0.24983C1.08541 0.278046 2.20987 1.06038 2.26096 1.10842C2.34575 1.19838 2.39529 1.31588 2.40049 1.4394C2.40151 1.68843 2.45011 1.54301 0.880211 4.17525C0.83817 4.25271 0.775174 4.31677 0.698428 4.3601C0.621682 4.40343 0.534285 4.42429 0.446243 4.42027C0.385257 4.41159 0.284316 4.39721 1.02697 4.53085C1.11789 4.54307 1.21038 4.52787 1.29262 4.48722C1.37485 4.44656 1.44308 4.38229 1.48858 4.30264L1.11665 4.23252L1.52189 3.57145Z" fill="url(#paint0_linear_82_267)"/>
<defs>
<linearGradient id="paint0_linear_82_267" x1="2.04343" y1="0.375839" x2="1.44216" y2="4.59856" gradientUnits="userSpaceOnUse">
<stop stop-color="#9E6100"/>
<stop offset="0.49" stop-color="#642701"/>
<stop offset="0.65" stop-color="#682A01"/>
<stop offset="0.81" stop-color="#753401"/>
<stop offset="0.98" stop-color="#8A4401"/>
<stop offset="1" stop-color="#8C4601"/>
</linearGradient>
</defs>
</svg>
