<svg width="4" height="8" viewBox="0 0 4 8" fill="none" xmlns="http://www.w3.org/2000/svg">
<path d="M3.18441 6.33932C3.2853 6.26301 3.36437 6.16153 3.41371 6.04505C3.46306 5.92857 3.48095 5.80117 3.46558 5.67561C3.44028 5.52181 3.59488 5.95792 1.62305 0.714418C1.59594 0.638611 1.55414 0.5689 1.50004 0.509282C1.44593 0.449665 1.3806 0.401312 1.30777 0.366996C1.19179 0.32259 1.25608 0.338182 0.549188 0.224653C0.627227 0.234792 0.702467 0.260371 0.770515 0.299899C0.838562 0.339427 0.898055 0.392112 0.945523 0.454879C1.0339 0.587616 0.868796 0.180049 2.83973 5.42986C2.8977 5.58639 2.9 5.75811 2.84624 5.91614C2.79248 6.07416 2.68593 6.20885 2.54453 6.29756C2.47486 6.33484 0.908897 7.07094 0.803471 7.10313C0.727217 7.12293 0.647834 7.12766 0.569768 7.11705C1.44699 7.2248 1.25204 7.25282 1.83109 6.9834L1.4757 6.93279L2.18329 6.60443L2.53658 6.65474C2.76122 6.56849 2.97797 6.46295 3.18441 6.33932Z" fill="url(#paint0_linear_82_298)"/>
<defs>
<linearGradient id="paint0_linear_82_298" x1="2.37034" y1="0.483968" x2="1.40884" y2="7.23653" gradientUnits="userSpaceOnUse">
<stop stop-color="#9E6100"/>
<stop offset="0.49" stop-color="#642701"/>
<stop offset="0.65" stop-color="#682A01"/>
<stop offset="0.81" stop-color="#753401"/>
<stop offset="0.98" stop-color="#8A4401"/>
<stop offset="1" stop-color="#8C4601"/>
</linearGradient>
</defs>
</svg>
