<svg width="6" height="5" viewBox="0 0 6 5" fill="none" xmlns="http://www.w3.org/2000/svg">
<path d="M5.5303 0.592479C5.39778 0.483494 5.41191 0.504816 4.66173 0.33363C4.76044 0.3519 4.84999 0.403245 4.91563 0.479209C5.09988 0.692109 5.0494 0.669901 5.21426 2.51069C5.23047 2.66062 5.19744 2.81176 5.12016 2.94126C5.04289 3.07077 4.92556 3.17161 4.78592 3.22854C4.72104 3.2472 0.643796 4.14065 0.548871 4.1443C0.515548 4.14281 0.482446 4.1381 0.450032 4.13023C1.20441 4.28699 1.08755 4.26391 1.15694 4.2738C1.28101 4.27644 0.933173 4.33848 5.38738 3.37426C5.53035 3.33083 5.65502 3.24151 5.74212 3.12011C5.82922 2.9987 5.87389 2.85199 5.86922 2.70264C5.86408 2.61823 5.86922 2.70264 5.82301 2.16825L5.43396 2.08281C5.36179 1.27867 5.37236 1.40033 5.36693 1.34806L5.75779 1.4359C5.71221 0.957383 5.73317 0.795157 5.5303 0.592479Z" fill="url(#paint0_linear_82_239)"/>
<defs>
<linearGradient id="paint0_linear_82_239" x1="3.62287" y1="0.185707" x2="3.00273" y2="4.54091" gradientUnits="userSpaceOnUse">
<stop stop-color="#9E6100"/>
<stop offset="0.49" stop-color="#642701"/>
<stop offset="0.65" stop-color="#682A01"/>
<stop offset="0.81" stop-color="#753401"/>
<stop offset="0.98" stop-color="#8A4401"/>
<stop offset="1" stop-color="#8C4601"/>
</linearGradient>
</defs>
</svg>
