<svg width="5" height="5" viewBox="0 0 5 5" fill="none" xmlns="http://www.w3.org/2000/svg">
<path d="M0.935232 4.23518C0.966112 4.29452 1.00861 4.34706 1.06018 4.38967C1.11175 4.43228 1.17136 4.46409 1.23546 4.48322C1.29957 4.50235 1.36687 4.5084 1.43336 4.50103C1.49985 4.49365 1.56417 4.47299 1.62253 4.44027C4.51252 2.81683 4.40578 2.93323 4.5418 2.66259C4.60331 2.52726 4.61555 2.37469 4.57641 2.23128C4.54872 2.13473 3.85228 0.57333 3.82188 0.512949C3.78765 0.451046 3.74161 0.396465 3.68635 0.352301C3.60913 0.288613 3.51401 0.250515 3.41418 0.243285C3.31434 0.236056 3.21473 0.260054 3.12914 0.311953C0.213219 1.96338 0.442444 1.82543 0.343877 1.91862C0.268763 1.99884 0.215165 2.09676 0.188069 2.20326C0.160973 2.30977 0.16126 2.42139 0.188905 2.52776C0.219316 2.62226 0.902788 4.17207 0.935232 4.23518Z" fill="url(#paint0_linear_130_601)"/>
<defs>
<linearGradient id="paint0_linear_130_601" x1="0.203707" y1="2.06438" x2="4.56296" y2="2.6851" gradientUnits="userSpaceOnUse">
<stop stop-color="#FFE6AB"/>
<stop offset="1" stop-color="#FFD778"/>
</linearGradient>
</defs>
</svg>
