<svg width="17" height="56" viewBox="0 0 17 56" fill="none" xmlns="http://www.w3.org/2000/svg">
<path d="M0.643953 1.27449C3.74021 3.74787 5.49423 5.66945 7.66363 8.61038C9.51199 11.205 11.0391 14.0141 12.2117 16.9762C13.4426 20.0813 14.3041 23.3204 14.7783 26.6268C15.7798 33.6217 15.1025 40.7545 12.8023 47.4358C11.9147 49.9824 10.7801 52.4361 9.41469 54.7618L10.1015 55.3129C12.636 50.9654 13.9701 47.1927 15.0404 42.5343C15.7835 39.0589 16.1253 35.5097 16.0592 31.9563C15.9935 28.4846 15.5207 25.0326 14.6504 21.6711C13.8058 18.3813 12.5619 15.2071 10.9467 12.2192C9.03676 8.8254 7.63453 6.89786 5.22027 4.23888C3.95242 2.88414 2.57482 1.63647 1.10151 0.508598C0.646684 1.27244 0.664415 1.25059 0.643953 1.27449Z" fill="#FFE082"/>
</svg>
