<svg width="4" height="3" viewBox="0 0 4 3" fill="none" xmlns="http://www.w3.org/2000/svg">
<path d="M3.02351 1.22916C3.02264 1.13652 2.99184 1.04665 2.9357 0.972953C2.82782 0.840613 2.92509 0.893452 0.923695 0.46956C0.742159 0.443711 0.616312 0.574452 0.571354 0.753267C0.567613 0.779542 0.38667 2.05029 0.373746 2.14106C0.371992 2.20879 0.387345 2.27587 0.418386 2.3361C0.449426 2.39632 0.495152 2.44774 0.551333 2.4856C0.612425 2.51867 0.436678 2.46928 2.46913 2.91466C2.65545 2.94118 2.77857 2.81249 2.82386 2.63129C2.83374 2.59614 3.02253 1.32163 3.02351 1.22916Z" fill="url(#paint0_linear_130_497)"/>
<defs>
<linearGradient id="paint0_linear_130_497" x1="0.461488" y1="1.50774" x2="2.94089" y2="1.86078" gradientUnits="userSpaceOnUse">
<stop stop-color="#FFE6AB"/>
<stop offset="1" stop-color="#FFD778"/>
</linearGradient>
</defs>
</svg>
