<svg width="3" height="3" viewBox="0 0 3 3" fill="none" xmlns="http://www.w3.org/2000/svg">
<path d="M1.87293 1.80361C2.10961 1.72359 2.1801 1.48474 2.16887 1.2321C2.16284 1.18404 2.10795 0.725658 2.07335 0.591995C2.05402 0.507595 2.01142 0.4303 1.95038 0.368892C1.88934 0.307483 1.81231 0.264418 1.72803 0.244586C1.62708 0.230213 1.7181 0.223863 0.643077 0.465577C0.345718 0.549825 0.286054 0.803091 0.315333 1.10979C0.328057 1.31049 0.359322 1.5096 0.408729 1.70454C0.428525 1.79338 0.476326 1.8735 0.54509 1.93312C0.613855 1.99274 0.699949 2.0287 0.790692 2.03571C0.879308 2.03116 1.84921 1.81954 1.87293 1.80361ZM0.74963 1.58573C0.697941 1.54189 0.70785 1.53258 0.650279 1.10814L1.49516 1.443C0.755953 1.61667 0.798611 1.61845 0.74963 1.58573ZM0.979393 0.831014C1.74414 0.658834 1.68316 0.66517 1.72703 0.688581C1.75051 0.704538 1.76764 0.728242 1.77542 0.755548C1.77243 0.776577 1.77812 0.736622 1.8351 1.18029L0.979393 0.831014Z" fill="url(#paint0_linear_82_401)"/>
<defs>
<linearGradient id="paint0_linear_82_401" x1="0.300265" y1="1.00465" x2="2.1824" y2="1.27265" gradientUnits="userSpaceOnUse">
<stop stop-color="#FFE6AB"/>
<stop offset="1" stop-color="#FFD778"/>
</linearGradient>
</defs>
</svg>
