<svg width="4" height="3" viewBox="0 0 4 3" fill="none" xmlns="http://www.w3.org/2000/svg">
<path d="M2.40274 0.301278C2.32392 0.290054 0.775511 0.313282 0.656783 0.342681C0.290364 0.434293 0.155377 0.714828 0.142925 1.09324C0.148378 1.82513 0.14627 1.68592 0.152123 1.79886C0.16088 1.96324 0.227507 2.11922 0.340218 2.23919C0.452928 2.35916 0.604448 2.43539 0.767961 2.45438C0.842008 2.46493 2.35936 2.43728 2.4781 2.42494C2.59199 2.41034 2.69928 2.36327 2.78716 2.28935C2.87504 2.21544 2.93979 2.1178 2.97369 2.00809C3.00901 1.89696 3.02556 1.78071 3.02267 1.66413C3.01448 0.917224 3.02133 0.988874 2.99363 0.841143C2.96659 0.699438 2.89444 0.570283 2.78794 0.472977C2.68143 0.37567 2.54631 0.315438 2.40274 0.301278ZM0.721278 1.84091C0.692127 1.81672 0.672719 1.78279 0.666641 1.7454C0.671402 1.71195 0.66664 1.74539 0.65648 1.16636L1.92781 1.85673C0.730166 1.88116 0.796709 1.89308 0.721278 1.84091ZM2.38561 0.883731C2.4208 0.895124 2.45042 0.919352 2.46855 0.951593C2.50543 1.01777 2.49417 0.994235 2.49921 1.57497L1.24085 0.896197C2.47705 0.874818 2.35524 0.874532 2.39516 0.885092L2.38561 0.883731Z" fill="url(#paint0_linear_130_640)"/>
<defs>
<linearGradient id="paint0_linear_130_640" x1="0.129312" y1="1.17172" x2="3.05778" y2="1.58871" gradientUnits="userSpaceOnUse">
<stop stop-color="#FFE6AB"/>
<stop offset="1" stop-color="#FFD778"/>
</linearGradient>
</defs>
</svg>
