<svg width="93" height="107" viewBox="0 0 93 107" fill="none" xmlns="http://www.w3.org/2000/svg">
<path d="M92.2401 59.7293C92.6521 56.0232 92.7272 52.2874 92.4646 48.5678C92.2127 45.0515 91.6533 41.564 90.7927 38.1453C88.8355 30.7187 86.3307 25.444 82.541 19.8646C78.7645 14.5867 74.8646 10.5854 69.2309 6.91727C66.6318 5.24993 63.8569 3.87406 60.9564 2.81458C58.1384 1.78935 55.2141 1.08438 52.2385 0.712959C46.2592 0.0199655 41.1818 0.471663 35.2994 2.22954C29.9231 3.99368 25.6778 6.23567 20.7995 10.0984C14.2405 15.5471 9.54148 21.7286 5.74671 30.3394C3.18089 36.481 1.95146 41.6066 1.23675 47.8412C0.359602 57.0307 1.19767 65.3508 4.36828 74.4733C7.54617 83.0826 11.9328 89.8097 18.1383 95.5723C22.8216 99.7534 27.1559 102.415 33.0526 104.561C39.051 106.592 44.164 107.14 50.109 106.636C52.9441 106.352 55.7414 105.77 58.4546 104.9C61.3353 103.976 64.1086 102.746 66.7269 101.231C69.3569 99.7081 71.8328 97.9337 74.1199 95.9326C76.5865 93.7718 78.8334 91.3726 80.8279 88.7699C82.8487 86.1341 84.6255 83.32 86.1364 80.3624C87.7881 77.125 89.1303 73.7389 90.1451 70.2491C91.1455 66.8095 91.8465 63.2897 92.2401 59.7293ZM2.23808 52.7896L13.5315 55.0996L14.4538 56.5469L15.0903 56.2525L13.8953 54.3764L2.27355 52.0099C2.31137 51.1624 2.29446 51.4865 2.34353 50.5942L15.0637 53.1366L16.0945 54.7456C16.3429 62.1579 18.3711 68.2469 22.1373 73.923C23.5082 75.9396 25.1201 77.7813 26.9372 79.4075C28.7051 80.9868 30.6749 82.3245 32.7949 83.3853C34.9235 84.4463 37.1911 85.2015 39.5307 85.6288C41.8575 86.053 44.234 86.1327 46.584 85.8654C48.9746 85.5889 51.3118 84.9635 53.521 84.0091C55.797 83.0243 57.9297 81.7368 59.8614 80.1816C61.4817 78.8811 62.9647 77.4183 64.2873 75.8158C67.0583 72.4289 69.1489 68.5385 70.4443 64.3586L67.561 59.7221L58.8262 58.047L58.7038 58.907L67.1055 60.5249L69.5374 64.4634C68.685 67.0618 67.5209 69.5474 66.0707 71.8658C63.345 76.0838 60.537 78.8765 56.6931 81.3462C54.9054 82.4647 52.9864 83.3579 50.9797 84.0055C49.0117 84.6412 46.969 85.0165 44.9036 85.1217C42.8119 85.2312 40.7151 85.0588 38.6694 84.6093C34.7137 83.6707 31.5581 82.1954 28.0304 79.3462C24.8382 76.6228 22.674 73.8678 20.6355 70.0584C18.1485 65.2298 16.8118 59.8916 16.7297 54.4607L15.4066 52.4055L2.3831 49.82C2.44959 48.9765 2.42312 49.2993 2.50529 48.4142L16.4699 51.1337L17.8081 53.2032C17.7475 56.5483 18.1756 59.8842 19.0788 63.1056C20.9177 69.3602 24.0316 74.5339 29.25 78.7059C30.9888 80.0587 32.9032 81.1692 34.9408 82.0069C36.9925 82.8479 39.1539 83.3912 41.3594 83.6203C43.5473 83.8482 45.7568 83.7522 47.9167 83.3354C50.1368 82.8983 52.2824 82.1433 54.2871 81.0938C56.1741 80.1034 57.9352 78.8895 59.5322 77.4783C63.7247 73.7081 66.2194 69.6401 68.0638 64.5777C67.9152 64.3372 68.1802 64.7697 66.3079 61.7273L58.4986 60.1938L58.3765 61.0513L65.8463 62.5219L67.1579 64.6583C66.5692 66.2581 65.8553 67.809 65.023 69.2967C62.737 73.2336 60.3354 75.9111 56.9947 78.3892C55.4434 79.5124 53.7657 80.4497 51.9959 81.1819C48.2651 82.6515 45.0234 83.1331 41.0277 82.7323C39.0919 82.5038 37.194 82.0246 35.3817 81.3069C31.5618 79.7223 28.8052 77.7043 25.9916 74.5815C23.228 71.3463 21.5307 68.2557 20.1501 64.2598C18.9473 60.6051 18.3796 56.7713 18.4716 52.9248C17.0716 50.7758 18.2117 52.5247 16.8316 50.3907L2.58307 47.6454C2.68776 46.7561 2.64424 47.096 2.76767 46.1607L17.4178 48.9267L18.3748 50.2498L21.5156 50.853L21.6289 50.0575L18.7137 49.5133L18.1015 48.6779L18.9491 48.0821L21.8667 48.6267L21.98 47.8313L18.8338 47.2493L17.555 48.1517L2.87685 45.3939C2.99079 44.5937 2.94726 44.8995 3.08779 44.0665L17.3642 46.7013C19.2863 45.1837 18.2538 45.9994 19.6001 44.9311C21.2757 38.8626 24.1567 33.9137 28.8666 29.7273C31.9728 27.1159 34.9286 25.4921 38.9012 24.4469C40.7827 23.9841 42.7173 23.7728 44.6544 23.8185C46.6144 23.8686 48.5593 24.1775 50.4384 24.7371C52.2878 25.2904 54.0593 26.0766 55.7105 27.0767C59.1911 29.2466 61.7022 31.7049 64.1609 35.3865C66.5201 39.1343 67.9036 42.6652 68.753 47.3288C68.9883 48.7201 69.1358 50.1249 69.1947 51.5347L67.3014 53.0905L59.7941 51.7461L59.6717 52.6061L67.512 54.0246L70.0353 51.9469C69.779 45.1719 67.8721 39.3609 64.1872 33.9353C62.7929 31.9387 61.1425 30.1338 59.2782 28.5669C57.5182 27.0902 55.5591 25.8686 53.4585 24.938C51.4092 24.0328 49.2387 23.4314 47.0156 23.153C44.8369 22.8777 42.6296 22.9214 40.4634 23.2826C38.3232 23.6428 36.2441 24.3017 34.287 25.2399C32.2738 26.2067 30.3953 27.4319 28.699 28.8846C23.765 33.2072 20.812 38.1995 19.0498 44.4311L17.2328 45.8784L3.21882 43.3175C3.37847 42.4873 3.31617 42.805 3.4932 41.9382L16.5818 44.2893L18.3663 42.8643C19.6385 38.71 21.7114 34.8449 24.4681 31.4869C27.2202 28.2475 29.9032 26.0584 33.5908 24.1562C37.3 22.3765 40.6366 21.5526 44.9349 21.5919C47.0346 21.6463 49.1179 21.9774 51.1311 22.5766C53.1712 23.1889 55.1233 24.0633 56.9386 25.1777C58.7933 26.309 60.5042 27.6606 62.0341 29.203C65.2682 32.5563 67.445 35.976 69.257 40.7937C70.6384 44.7849 71.2571 48.0729 71.3632 52.5819L67.8726 55.4285L59.4576 53.8867L59.3352 54.7466L68.0706 56.3828L72.1772 53.0439C72.1931 49.6092 71.732 46.189 70.8071 42.8812C69.3984 38.1063 67.5788 34.5913 64.6441 30.8297C63.029 28.8199 61.152 27.0355 59.0632 25.5241C57.0802 24.0925 54.9031 22.9512 52.5977 22.1347C50.333 21.3393 47.9645 20.878 45.5668 20.7656C43.2276 20.6535 40.8846 20.8805 38.6105 21.4396C36.3419 22.0033 34.1612 22.8752 32.1293 24.031C30.0939 25.1962 28.2076 26.6044 26.5118 28.2246C22.2677 32.358 19.6503 36.8082 17.8338 42.3425L16.4579 43.4479L3.66346 41.1704C3.85382 40.347 3.77753 40.6602 3.988 39.7982L15.6997 41.8582L17.3079 40.5592C18.9641 35.8851 21.5972 31.6175 25.0319 28.0407C28.0544 25.008 30.9312 22.9806 34.8779 21.2956C38.8434 19.7351 42.3307 19.1374 46.7724 19.4531C49.2754 19.6704 51.7328 20.2552 54.0655 21.1885C56.4599 22.1522 58.7054 23.4509 60.7349 25.0456C62.8305 26.6948 64.7034 28.6089 66.3067 30.7399C67.9827 32.9698 69.3829 35.3941 70.4769 37.9601C71.6214 40.6466 72.448 43.4576 72.9398 46.336C73.4602 49.3468 73.6254 52.4081 73.4323 55.4574C73.2346 58.5804 72.6664 61.6687 71.7397 64.6576C70.8662 67.481 69.6534 70.188 68.1279 72.7193C66.6897 75.0968 64.9601 77.2853 62.9793 79.234C61.103 81.0837 58.9913 82.6783 56.6987 83.9766C54.4968 85.2228 52.1297 86.1509 49.6676 86.7334C47.2385 87.3078 44.7372 87.516 42.2465 87.351C39.8803 87.1878 37.5479 86.6991 35.3152 85.8986C33.3884 85.2054 31.5476 84.2932 29.829 83.1799C24.4311 79.5843 20.8661 75.0287 18.2115 69.1966C16.4165 65.0979 15.3601 60.7142 15.091 56.2477L14.4538 56.5469C14.8664 62.0184 16.1037 66.6276 18.55 71.5088C20.9905 76.1578 23.8217 79.6876 28.0986 82.9408C30.1309 84.4403 32.3588 85.6546 34.7204 86.5499C37.0978 87.4523 39.5921 88.0094 42.1275 88.2041C44.6526 88.3939 47.1918 88.2094 49.6629 87.6564C52.2191 87.0782 54.6787 86.1349 56.9659 84.8555C59.4021 83.4871 61.6422 81.796 63.6258 79.8281C65.678 77.797 67.4628 75.5123 68.9367 73.0294C70.4683 70.4479 71.6847 67.6919 72.5597 64.8206C73.4705 61.8278 74.0352 58.7405 74.2427 55.6191C74.4527 52.5364 74.3056 49.4398 73.8045 46.3909C73.3156 43.4148 72.4756 40.5072 71.3018 37.729C70.1518 35.0083 68.6681 32.441 66.8848 30.0862C65.2064 27.8688 63.24 25.8849 61.0375 24.187C58.9561 22.5783 56.6562 21.2743 54.2071 20.3143C51.81 19.3818 49.2895 18.8045 46.7256 18.6007C44.224 18.4 41.7065 18.5644 39.2522 19.089C36.8172 19.6118 34.4661 20.4686 32.2657 21.6353C28.4608 23.7279 25.4511 26.1581 22.3441 30.0073C19.9638 33.0347 18.0827 36.423 16.7719 40.0442L15.558 41.0216L4.16509 39.0509C4.3865 38.2319 4.29793 38.5459 4.53912 37.6907L14.9496 39.4582L16.3262 38.3479C19.27 31.2122 23.4475 26.1774 28.7987 22.365C32.4772 19.8766 35.7586 18.4819 39.9975 17.6378C42.0617 17.2578 44.1636 17.1228 46.2595 17.2354C48.8464 17.3744 51.4002 17.8825 53.8433 18.7442C56.4327 19.6599 58.8764 20.9444 61.0988 22.558C63.3873 24.2216 65.4463 26.1798 67.2225 28.3821C69.0818 30.6838 70.6519 33.2048 71.8978 35.8886C73.2022 38.7011 74.1718 41.657 74.7868 44.6957C75.4327 47.8756 75.7028 51.1205 75.5913 54.3635C75.4788 57.7113 74.9673 61.0338 74.0676 64.2604C73.2192 67.326 72.0011 70.277 70.4401 73.0485C68.9719 75.6511 67.1839 78.0598 65.1177 80.2185C63.165 82.2561 60.9527 84.0281 58.5378 85.4887C56.2246 86.8921 53.7258 87.9637 51.1145 88.6722C48.5494 89.3666 45.8952 89.6753 43.2391 89.5882C40.6811 89.4978 38.1486 89.0469 35.7165 88.249C31.4876 86.7987 28.367 84.9068 25.0518 81.9343C23.524 80.5241 22.1308 78.9746 20.8903 77.306C16.5529 71.3463 14.3072 64.9705 13.5666 57.9852L12.5218 56.3376L2.22473 54.2012C2.22776 53.3584 2.22279 53.6843 2.23808 52.7896ZM2.22851 54.9962L12.1676 57.0792L12.942 58.2984C13.9318 67.2127 17.2268 74.5203 22.7078 80.6647C24.5366 82.6604 26.6139 84.4133 28.8888 85.8804C31.1464 87.3349 33.5945 88.47 36.1633 89.2533C38.7421 90.044 41.4223 90.4552 44.1195 90.4739C46.8249 90.4896 49.5177 90.1043 52.1102 89.3306C54.8217 88.5159 57.4032 87.3186 59.7766 85.7748C62.2993 84.1361 64.5918 82.1676 66.593 79.9216C68.6533 77.6015 70.4136 75.0314 71.8325 72.272C73.3153 69.3937 74.4499 66.3491 75.2125 63.2024C76.0042 59.9524 76.4203 56.6223 76.4527 53.2774C76.4866 50.0029 76.138 46.7357 75.4141 43.5421C74.7087 40.4267 73.6305 37.4077 72.2029 34.5503C70.8122 31.7607 69.0752 29.1576 67.0331 26.8027C64.7547 24.2849 63.1869 22.9041 60.4942 21.0706C58.1788 19.5492 55.6563 18.3692 53.0044 17.5671C50.397 16.7788 47.6888 16.3743 44.9649 16.3663C42.3145 16.3605 39.677 16.7368 37.134 17.4836C34.5875 18.2329 32.1545 19.3244 29.9018 20.7284C23.4902 24.8504 18.9127 30.418 15.8241 37.8353L14.8322 38.6396L4.77353 36.9515C5.03725 36.1093 4.93332 36.4283 5.21647 35.5523L14.553 37.0914L15.342 36.4458C18.6336 29.0062 23.2727 23.7252 29.1568 19.8668C32.9463 17.5063 36.3817 16.1433 40.859 15.4039C43.0107 15.0772 45.1929 14.9995 47.3624 15.1723C50.1692 15.4014 52.9274 16.0404 55.5489 17.0691C56.8961 17.5956 58.2034 18.2191 59.4604 18.9348C60.7327 19.6598 61.9533 20.472 63.1135 21.3656C65.4988 23.2128 67.6316 25.3649 69.4571 27.7669C71.3711 30.2817 72.9714 33.0204 74.2228 35.9224C75.5355 38.9619 76.4867 42.145 77.0568 45.4064C78.2557 52.3479 77.7872 59.4749 75.6899 66.1997C74.6925 69.398 73.3076 72.4623 71.5661 75.3242C69.9304 78.0155 67.9618 80.4897 65.7068 82.6882C63.5736 84.7698 61.1734 86.5588 58.569 88.0082C56.0716 89.3971 53.3898 90.4249 50.6038 91.0609C47.8589 91.6848 45.0361 91.8948 42.2291 91.6841C39.6216 91.482 37.0534 90.9286 34.5941 90.0388C30.3033 88.4238 27.137 86.4083 23.7691 83.2919C17.1416 76.8648 13.3306 68.6454 12.1086 59.4104L11.4421 58.3407L2.27111 56.3914C2.23593 55.5603 2.24393 55.8807 2.22851 54.9962ZM19.2982 20.5053C23.2901 16.3117 27.0958 13.5294 32.2402 11.1864C34.6895 10.1028 37.2563 9.30696 39.889 8.81486C42.6086 8.31015 45.3802 8.14408 48.1406 8.32043C49.781 8.42442 51.4117 8.64684 53.0199 8.98595C54.6911 9.34047 56.3337 9.81873 57.934 10.4168C59.5375 11.0191 61.0952 11.737 62.5949 12.5646C64.1139 13.4046 65.5722 14.35 66.9589 15.394C68.3709 16.4583 69.7099 17.6162 70.9667 18.8599C72.2529 20.1335 73.456 21.4884 74.5687 22.9163C77.1146 26.2934 78.4945 28.6175 80.3112 32.5805C82.0341 36.6544 82.8666 39.366 83.7408 43.8894C84.496 48.5298 84.6611 51.4949 84.4323 56.2511C84.2955 58.3851 84.0305 60.5089 83.6388 62.611C83.2536 64.6748 82.7436 66.7133 82.1116 68.7153C80.6253 73.1633 79.4237 75.7656 77.1533 79.5756C74.7914 83.258 73.1 85.347 70.1099 88.2892C68.8138 89.5246 67.4387 90.6745 65.9934 91.7315C64.5829 92.7563 63.1056 93.6858 61.5712 94.5137C60.0695 95.3217 58.5134 96.0243 56.9143 96.6167C55.3401 97.1972 53.7262 97.6637 52.0851 98.0128C50.4595 98.3566 48.8107 98.5804 47.1522 98.6824C45.4908 98.7831 43.8242 98.7592 42.1664 98.611C39.0098 98.3268 35.9081 97.6054 32.95 96.4676C30.382 95.4784 27.9363 94.1971 25.661 92.6491C20.9958 89.3845 17.6831 85.9322 14.3923 80.9746C11.2393 75.9732 9.36188 71.4434 7.9524 65.6131C7.39308 63.1607 7.01457 60.6705 6.81993 58.1626L11.0957 59.0785L11.4928 59.7127C12.6339 68.1124 15.5898 74.6528 20.2026 80.5273C21.9993 82.765 24.0695 84.7685 26.3648 86.4909C28.6329 88.1886 31.1212 89.5702 33.7614 90.5978C36.4271 91.6347 39.2274 92.2846 42.0773 92.5276C44.9163 92.7676 47.7752 92.5841 50.5602 91.9832C53.7693 91.2338 55.7504 90.4997 58.8134 88.8936C61.861 87.1561 63.6998 85.7948 66.3659 83.2792C68.9665 80.6592 70.413 78.8181 72.4005 75.6258C74.1397 72.7139 75.5198 69.6019 76.5106 66.358C77.5499 62.9726 78.1931 59.478 78.4272 55.9444C78.6624 52.4534 78.4919 48.9468 77.9191 45.4951C77.3647 42.1248 76.4089 38.8331 75.0723 35.6899C73.7606 32.6218 72.0709 29.7294 70.0423 27.0801C67.869 24.3555 66.3024 22.7433 63.4055 20.4616C60.6432 18.45 58.7896 17.416 55.6765 16.1734C52.9716 15.1469 50.1309 14.5223 47.245 14.3197C44.4322 14.1182 41.6051 14.3256 38.8518 14.9353C36.125 15.5435 33.4954 16.5255 31.0374 17.8535C28.5039 19.2233 26.1544 20.9089 24.0452 22.8701C20.1253 26.5573 17.2374 30.5621 14.8344 35.9372L14.4288 36.2694L10.0228 35.5494C12.4964 29.285 15.3415 24.8623 19.2982 20.5053ZM89.6881 63.9939C89.2429 66.3598 88.6539 68.6964 87.9242 70.9905C87.2181 73.2056 86.3769 75.3753 85.4052 77.4873C84.4593 79.5264 83.3873 81.5047 82.1954 83.4105C81.0386 85.2577 79.7663 87.0301 78.3862 88.7171C77.0488 90.3455 75.6083 91.8864 74.0737 93.3305C72.5819 94.7295 70.9991 96.0281 69.3357 97.218C67.7164 98.3751 66.0205 99.4209 64.2596 100.348C62.5326 101.247 60.7453 102.024 58.9105 102.674C57.1104 103.313 55.2673 103.822 53.3951 104.199C47.7889 105.322 42.0016 105.164 36.4647 103.738C34.8072 103.314 33.1791 102.781 31.5908 102.145C30.0989 101.547 28.6438 100.862 27.2333 100.092C24.4539 98.5701 21.8531 96.7431 19.4792 94.6446C17.1174 92.5554 14.9724 90.2333 13.0769 87.7134C9.04984 82.2439 6.56385 77.1791 4.54531 70.6114C3.26092 66.2448 2.49757 61.7416 2.27114 57.1957L6.133 58.0234C6.70122 64.9524 8.22896 70.4828 10.9408 76.2548C12.2536 79.0038 13.8323 81.6177 15.6541 84.0592C17.6709 86.7673 20.0112 89.2186 22.6229 91.3586C25.6031 93.7058 27.6155 94.9599 31.0744 96.5637C32.608 97.2434 34.1868 97.8159 35.7996 98.2772C37.4155 98.737 39.0621 99.0814 40.7268 99.3077C44.0518 99.7578 47.425 99.7142 50.7372 99.1783C52.4259 98.9082 54.0929 98.516 55.7248 98.0046C57.394 97.4692 59.023 96.8159 60.5995 96.0496C62.2328 95.2513 63.8087 94.3406 65.3158 93.3239C66.8717 92.265 68.3546 91.1026 69.7544 89.8446C71.1741 88.57 72.5085 87.2035 73.7488 85.7537C75.0087 84.2765 76.1737 82.7207 77.2366 81.096C79.6325 77.2941 80.8993 74.7133 82.4918 70.3072C83.9733 65.7902 84.61 62.8248 85.1421 58.0265C85.5367 53.1842 85.4637 50.1884 84.8808 45.5359C84.1656 40.923 83.4229 38.0951 81.7739 33.7758C80.0423 29.5739 78.6572 27.0809 76.0501 23.3807C74.9187 21.8375 73.6865 20.3708 72.3616 18.9903C71.0927 17.6627 69.7342 16.4238 68.2958 15.2821C66.9024 14.1773 65.4332 13.1716 63.8989 12.2726C62.4019 11.3967 60.844 10.6292 59.2372 9.97603C56.075 8.69421 52.7424 7.88141 49.3451 7.56341C47.673 7.40905 45.9919 7.37493 44.3149 7.4613C42.67 7.54682 41.0333 7.75031 39.4175 8.07022C37.8166 8.38648 36.2396 8.81337 34.6977 9.34782C33.1522 9.88944 31.6447 10.5337 30.1851 11.2764C26.8294 13.0553 24.8636 14.4179 21.9218 16.9357C20.1166 18.5348 18.4465 20.2802 16.9285 22.1541C13.5126 26.4443 11.3099 30.4126 9.3768 35.4307L5.4751 34.7971C7.82682 28.2765 10.4391 23.7086 14.2052 18.893C16.1612 16.4472 18.3499 14.1968 20.7404 12.1736C23.101 10.1735 25.6646 8.42627 28.3894 6.96053C31.1216 5.494 34.0129 4.34555 37.0068 3.53765C41.7518 2.25904 46.6987 1.90679 51.577 2.50018C55.4409 2.9701 59.212 4.0189 62.7637 5.61135C64.5563 6.41295 66.2891 7.34219 67.9487 8.39189C69.6335 9.4622 71.2432 10.6465 72.7665 11.9366C74.3212 13.2586 75.7876 14.6812 77.1561 16.1953C78.5535 17.7514 79.8515 19.394 81.0423 21.1134C82.2652 22.8803 83.3778 24.7211 84.3737 26.6252C85.3934 28.5812 86.2946 30.5968 87.0723 32.661C87.8668 34.7804 88.5351 36.945 89.0738 39.1434C89.6204 41.3957 90.0326 43.6785 90.3083 45.9797C90.5883 48.3367 90.7267 50.7083 90.7228 53.0818C90.7152 55.5106 90.561 57.9366 90.261 60.3468C89.9508 62.5422 90.0886 61.7113 89.6881 63.9939Z" fill="url(#paint0_linear_130_252)"/>
<defs>
<linearGradient id="paint0_linear_130_252" x1="54.2497" y1="0.999339" x2="39.2675" y2="106.219" gradientUnits="userSpaceOnUse">
<stop stop-color="#9E6100"/>
<stop offset="0.49" stop-color="#642701"/>
<stop offset="0.65" stop-color="#682A01"/>
<stop offset="0.81" stop-color="#753401"/>
<stop offset="0.98" stop-color="#8A4401"/>
<stop offset="1" stop-color="#8C4601"/>
</linearGradient>
</defs>
</svg>
