<svg width="5" height="8" viewBox="0 0 5 8" fill="none" xmlns="http://www.w3.org/2000/svg">
<path d="M1.29691 0.835916C1.14145 0.891895 1.01057 1.00069 0.92713 1.14331C0.84369 1.28593 0.812983 1.45332 0.840358 1.61627C1.69184 7.19373 1.62048 6.82097 1.68544 6.98255C1.7323 7.09402 1.81115 7.18909 1.91202 7.25577C2.01288 7.32245 2.13125 7.35774 2.25216 7.35719C2.36211 7.35354 4.04181 7.02413 4.1154 7.00457C4.23444 6.96582 4.34047 6.89494 4.42179 6.79976C4.50312 6.70457 4.55657 6.58877 4.57626 6.46514C4.58929 6.38501 4.59007 6.30337 4.57855 6.22301C3.71655 0.629032 3.78551 0.988584 3.72054 0.826998C3.6726 0.715794 3.59252 0.621455 3.49057 0.556092C3.38863 0.49073 3.26948 0.457326 3.14841 0.460169C3.03186 0.465028 1.36179 0.817261 1.29691 0.835916Z" fill="url(#paint0_linear_82_525)"/>
<defs>
<linearGradient id="paint0_linear_82_525" x1="0.523738" y1="3.59876" x2="4.89156" y2="4.2207" gradientUnits="userSpaceOnUse">
<stop stop-color="#FFE6AB"/>
<stop offset="1" stop-color="#FFD778"/>
</linearGradient>
</defs>
</svg>
