<svg width="84" height="97" viewBox="0 0 84 97" fill="none" xmlns="http://www.w3.org/2000/svg">
<path d="M82.9481 53.8927C83.2612 53.6289 83.4585 53.2529 83.4976 52.8454C83.5368 52.4379 83.4148 52.0312 83.1577 51.7126C83.4602 51.4359 83.6424 51.0518 83.6654 50.6425C83.6884 50.2332 83.5503 49.8312 83.2808 49.5223C83.5724 49.2346 83.7398 48.8442 83.7472 48.4346C83.7546 48.0251 83.6014 47.6289 83.3203 47.3309C83.5556 47.0775 83.7011 46.7539 83.7346 46.4098C83.7681 46.0657 83.6877 45.7202 83.5057 45.4262C83.1955 44.9529 83.2095 45.3368 83.4799 44.8239C83.6369 44.5178 83.6879 44.1684 83.625 43.8302C83.5621 43.492 83.3889 43.1842 83.1324 42.955C83.3887 42.6356 83.5091 42.2283 83.4675 41.8209C83.426 41.4135 83.2258 41.0388 82.9103 40.7778C83.1521 40.4503 83.2553 40.0408 83.1974 39.6378C83.1396 39.2348 82.9253 38.8708 82.6011 38.6246C82.83 38.2894 82.917 37.8772 82.8432 37.4781C82.7694 37.0789 82.5408 36.7251 82.2072 36.4938C82.3141 36.3243 82.3865 36.1354 82.4204 35.938C82.4543 35.7405 82.4489 35.5383 82.4046 35.3429C82.3603 35.1475 82.2779 34.9627 82.1622 34.7992C82.0465 34.6356 81.8996 34.4965 81.7301 34.3897C81.8305 34.2169 81.8956 34.0259 81.9216 33.8277C81.9476 33.6296 81.934 33.4283 81.8816 33.2354C81.8293 33.0425 81.7392 32.862 81.6165 32.7042C81.4938 32.5464 81.3411 32.4146 81.1671 32.3163C81.2617 32.1413 81.3202 31.9492 81.3391 31.7512C81.3581 31.5532 81.3372 31.3534 81.2776 31.1637C81.2179 30.974 81.1209 30.7981 80.9921 30.6465C80.8633 30.495 80.7055 30.3708 80.5278 30.2813C80.6725 29.976 80.711 29.631 80.637 29.3013C80.563 28.9715 80.3809 28.676 80.1196 28.4617C79.6791 28.1351 79.8166 28.4958 79.9097 27.9169C79.9687 27.5903 79.9118 27.2533 79.7489 26.9642C79.586 26.675 79.3273 26.4518 79.0174 26.333C79.291 25.5266 78.9331 24.6796 78.149 24.4306C78.3907 23.6068 77.9941 22.7908 77.2088 22.5803C77.425 21.7099 76.9605 20.9486 76.1983 20.7864C76.386 19.9056 75.8806 19.1749 75.1212 19.0539C75.2755 18.1511 74.7254 17.4635 73.9807 17.3896C74.1065 16.5064 73.5426 15.8253 72.7802 15.7854C72.8624 14.9217 72.2958 14.2596 71.5223 14.2524C71.5663 13.4005 70.9962 12.7636 70.2095 12.7889C70.2224 12.1106 69.8358 11.5406 69.1844 11.4135C68.665 11.3396 68.9274 11.5915 68.8082 11.0424C68.745 10.7393 68.5682 10.4719 68.3142 10.2949C68.0601 10.1179 67.748 10.0447 67.4418 10.0904C67.4013 9.42598 66.9829 8.89866 66.3222 8.83678C65.8052 8.80608 66.082 9.01713 65.9144 8.50623C65.8257 8.21455 65.6281 7.96828 65.3625 7.81858C65.0969 7.66889 64.7838 7.62728 64.4884 7.7024C64.3934 7.01303 63.9081 6.57917 63.2857 6.58065C62.7741 6.60222 63.0574 6.78203 62.8551 6.30478C62.7439 6.02523 62.5277 5.80031 62.2527 5.67816C61.9778 5.556 61.666 5.54632 61.384 5.65118C61.2091 4.86031 60.5072 4.47071 59.7854 4.7477C59.5799 3.97607 58.8741 3.61381 58.1578 3.92805C58.1174 3.75798 58.0384 3.59951 57.9268 3.46497C57.8152 3.33042 57.6741 3.22344 57.5144 3.15233C57.3547 3.08123 57.1807 3.04792 57.0061 3.05499C56.8314 3.06207 56.6608 3.10934 56.5074 3.19313C56.46 3.02616 56.3745 2.87246 56.2577 2.74413C56.1408 2.61581 55.9958 2.51635 55.834 2.45358C55.6722 2.39082 55.498 2.36646 55.3252 2.38244C55.1523 2.39841 54.9856 2.45427 54.838 2.54562C54.7849 2.37958 54.6935 2.22836 54.5711 2.10421C54.4487 1.98006 54.2988 1.88645 54.1335 1.83096C53.9683 1.77547 53.7923 1.75965 53.6197 1.78478C53.4472 1.80991 53.2831 1.8753 53.1405 1.97564C52.8269 1.27014 52.0821 1.07612 51.4397 1.50388C51.3846 1.37247 51.3037 1.25348 51.2016 1.154C51.0996 1.05453 50.9786 0.976604 50.8458 0.924867C50.7131 0.873129 50.5712 0.848638 50.4288 0.852851C50.2864 0.857065 50.1462 0.889897 50.0168 0.949393C49.5584 1.15448 49.8697 1.21381 49.5433 0.854082C49.1318 0.428601 48.5217 0.403947 48.0109 0.811825C47.8732 0.566589 47.6439 0.385985 47.3732 0.309631C47.1025 0.233277 46.8126 0.26741 46.567 0.404541C46.1156 0.651377 46.4443 0.678864 46.0911 0.356093C45.6307 -0.0420279 45.0228 0.0387579 44.5742 0.461928C44.1545 -0.117054 43.4059 -0.133534 42.8643 0.415848C42.4299 -0.13519 41.6807 -0.132444 41.143 0.44968C40.7066 -0.0565975 39.9667 -0.0589624 39.4376 0.567316C38.9441 0.0400372 38.2058 0.177358 37.748 0.75584C37.2359 0.253803 36.5066 0.433176 36.0692 1.03388C35.5964 0.616838 34.8731 0.694071 34.4072 1.38941C33.8672 0.94777 33.1475 1.19503 32.7642 1.82274C32.1806 1.40065 31.4929 1.71037 31.1447 2.33236C30.5566 1.94181 29.8812 2.27046 29.5597 2.91557C29.0639 2.61539 28.356 2.79566 27.9907 3.56756C27.3787 3.2401 26.7249 3.64263 26.45 4.29223C25.8259 3.98881 25.1899 4.43249 24.9405 5.08358C24.3003 4.81861 23.6934 5.28361 23.4639 5.9461C22.8185 5.71689 22.2284 6.1993 22.0215 6.8693C21.4852 6.70282 20.9897 7.03349 20.7303 7.54369C20.5182 7.99409 20.7602 7.81614 20.3493 7.82414C19.7845 7.85744 19.3825 8.33015 19.25 8.89917C18.6993 8.78858 18.2308 9.1703 18.016 9.68469C17.8101 10.151 18.0528 9.95383 17.6394 10.0087C17.0846 10.0928 16.7133 10.6063 16.6156 11.1717C16.064 11.1125 15.6262 11.5351 15.4459 12.0629C15.2969 12.5373 15.5103 12.3189 15.1096 12.4056C14.6654 12.5118 14.2441 12.9539 14.1775 13.6481C13.5151 13.6439 13.0696 14.2864 13.0269 14.9626C12.3796 14.9885 11.9398 15.6661 11.9257 16.3227C11.2732 16.3843 10.8617 17.0595 10.8674 17.7276C10.2216 17.818 9.83349 18.5094 9.86293 19.1766C9.22103 19.2998 8.85907 20.0035 8.90894 20.6628C8.38479 20.7877 7.92485 21.3809 8.00693 22.1908C7.39599 22.3677 7.05806 23.0684 7.15601 23.7517C6.53848 23.9599 6.24292 24.6945 6.35917 25.3548C5.75517 25.5884 5.48034 26.3282 5.61702 26.9806C5.03286 27.2407 4.76524 27.975 4.93076 28.6358C4.70078 28.773 4.51506 28.9735 4.39572 29.2132C4.27637 29.453 4.22843 29.722 4.25758 29.9882C4.30346 30.4646 4.41057 30.1645 4.09017 30.4557C3.89514 30.6554 3.75917 30.9051 3.69732 31.1773C3.63546 31.4495 3.65013 31.7335 3.73971 31.9978C3.51376 32.154 3.33756 32.3719 3.2322 32.6255C3.12683 32.8791 3.09676 33.1577 3.14557 33.428C3.22268 33.896 3.31417 33.585 3.01091 33.9066C2.82939 34.1193 2.71012 34.378 2.66625 34.6542C2.62239 34.9304 2.65562 35.2133 2.76229 35.4718C2.51031 35.6805 2.33419 35.9665 2.26123 36.2854C2.18828 36.6044 2.22256 36.9385 2.35876 37.236C2.114 37.4531 1.94772 37.745 1.88568 38.0662C1.82364 38.3875 1.86931 38.7203 2.01561 39.013C1.77755 39.2382 1.62056 39.5358 1.56905 39.8594C1.51754 40.183 1.57438 40.5146 1.73075 40.8026C1.50073 41.0367 1.35396 41.3398 1.31303 41.6654C1.27209 41.9911 1.33925 42.3211 1.50417 42.6048C1.2809 42.8453 1.14345 43.1528 1.11322 43.4796C1.083 43.8063 1.1617 44.1339 1.33707 44.4112C1.1228 44.6601 0.996165 44.9725 0.976615 45.3003C0.957066 45.6282 1.04568 45.9534 1.22885 46.226C1.05511 46.4435 0.9446 46.7047 0.909437 46.9809C0.874274 47.2571 0.915814 47.5376 1.0295 47.7918C1.22405 48.2035 1.23171 47.8785 1.02463 48.2931C0.903475 48.5435 0.85497 48.8228 0.884621 49.0994C0.914272 49.3759 1.02089 49.6386 1.19236 49.8576C1.00197 50.1252 0.905568 50.4484 0.918217 50.7767C0.930867 51.1049 1.05185 51.4197 1.26229 51.6719C1.08257 51.9468 0.998175 52.2731 1.0221 52.6006C1.04602 52.9281 1.17694 53.2387 1.39469 53.4845C1.22294 53.7639 1.14839 54.0923 1.18266 54.4185C1.21693 54.7447 1.35809 55.0504 1.58417 55.288C1.42226 55.573 1.35907 55.9036 1.40441 56.2282C1.44976 56.5528 1.60111 56.8534 1.83492 57.0831C1.53689 57.6693 1.63909 58.4584 2.14516 58.8674C1.83844 59.5146 2.02744 60.2817 2.51335 60.6363C2.25529 61.2432 2.40254 62.0323 2.94163 62.3901C2.70309 63.0105 2.86957 63.7852 3.42817 64.1265C3.21397 64.7568 3.40027 65.5279 3.97358 65.8412C3.77921 66.468 3.98835 67.2444 4.57606 67.5319C4.40513 68.1749 4.63498 68.9414 5.2359 69.1965C5.077 69.8754 5.35911 70.6065 5.95341 70.8327C5.889 71.1057 5.90453 71.3915 5.99813 71.6559C6.09174 71.9204 6.25947 72.1523 6.4813 72.324C6.83948 72.5509 6.70387 72.2677 6.70199 72.763C6.72599 73.3329 7.02753 73.8672 7.5539 74.0129C7.5058 74.289 7.54001 74.5731 7.65225 74.8298C7.76449 75.0865 7.94981 75.3045 8.1851 75.4567C8.55859 75.6515 8.39144 75.3788 8.43643 75.8765C8.49346 76.4253 8.82745 76.9578 9.37242 77.0483C9.33994 77.6229 9.59315 78.2104 10.1033 78.4397C10.487 78.593 10.3073 78.3486 10.3838 78.8358C10.4844 79.3951 10.8526 79.8831 11.4047 79.9231C11.4102 80.6083 11.837 81.272 12.497 81.293C12.5259 81.9794 12.9696 82.6305 13.6389 82.6163C13.6917 83.2997 14.1544 83.9385 14.8287 83.8886C14.9075 84.5864 15.4025 85.1933 16.0645 85.1095C16.1516 85.6883 16.5096 86.2027 17.0774 86.2836C17.5004 86.3266 17.2573 86.1204 17.4384 86.5967C17.6537 87.1337 18.1222 87.5051 18.6761 87.3823C18.8251 88.0687 19.3847 88.6139 20.0431 88.4352C20.2233 89.1281 20.8033 89.6355 21.4539 89.4214C21.6146 89.9806 22.0555 90.4404 22.6328 90.4088C23.0531 90.3657 22.7953 90.2174 23.0379 90.6532C23.3334 91.1544 23.8556 91.4348 24.3912 91.1999C24.642 91.8793 25.2793 92.3005 25.9115 91.9893C26.1837 92.6545 26.8328 93.0538 27.4658 92.7062C27.7699 93.3739 28.4492 93.7259 29.052 93.3504C29.3749 94.0058 30.0648 94.3293 30.6654 93.9235C31.0208 94.577 31.7262 94.8512 32.3115 94.4175C32.7134 95.0905 33.433 95.2809 33.9687 94.8337C34.3772 95.4604 35.107 95.6695 35.652 95.1721C36.0909 95.7967 36.8296 95.9427 37.3557 95.4275C37.821 96.0323 38.5682 96.1494 39.0732 95.6013C39.5529 96.1802 40.3099 96.273 40.8023 95.693C41.3211 96.2689 42.0775 96.2908 42.5417 95.6982C43.0904 96.2591 43.8541 96.2305 44.2891 95.6166C44.8393 96.137 45.6047 96.1108 46.0295 95.4482C46.6471 95.9781 47.4013 95.8345 47.7822 95.1935C47.9099 95.3106 48.0633 95.3961 48.23 95.4429C48.3968 95.4898 48.5722 95.4968 48.7422 95.4634C48.9121 95.4299 49.0718 95.357 49.2084 95.2504C49.3449 95.1439 49.4545 95.0067 49.5283 94.85C49.6623 94.9613 49.8205 95.0396 49.9903 95.0785C50.1601 95.1174 50.3367 95.1158 50.5057 95.0739C50.6748 95.032 50.8316 94.9509 50.9636 94.8372C51.0955 94.7235 51.1989 94.5803 51.2653 94.4193C51.4062 94.5241 51.5696 94.5945 51.7425 94.6248C51.9154 94.655 52.093 94.6443 52.2611 94.5936C52.4291 94.5429 52.5829 94.4534 52.7102 94.3325C52.8375 94.2116 52.9346 94.0626 52.9939 93.8973C53.6901 94.3119 54.4269 94.0198 54.7098 93.2834C54.837 93.3607 54.9782 93.4121 55.1253 93.4347C55.2723 93.4574 55.4224 93.4508 55.567 93.4154C55.7115 93.38 55.8476 93.3164 55.9676 93.2283C56.0875 93.1403 56.1889 93.0294 56.266 92.9021C56.5329 92.4595 56.2418 92.5897 56.7243 92.697C57.3669 92.81 57.8925 92.4342 58.0814 91.8003C58.7914 92.1031 59.5203 91.7456 59.7333 90.9284C60.473 91.2032 61.1814 90.7784 61.3565 89.9709C61.647 90.0712 61.9652 90.0545 62.2436 89.9243C62.522 89.7942 62.7389 89.5608 62.8483 89.2736C63.0538 88.7643 62.7679 88.9639 63.2813 88.9748C63.9094 88.9634 64.4049 88.5125 64.5022 87.799C65.2866 87.9708 65.9361 87.4175 66.0178 86.588C66.8205 86.7216 67.4397 86.1254 67.4891 85.2956C68.2916 85.3863 68.8984 84.7711 68.9157 83.926C69.734 83.9803 70.309 83.3177 70.293 82.4808C70.6129 82.4883 70.9244 82.3773 71.1675 82.1691C71.4106 81.961 71.5682 81.6704 71.61 81.3531C71.6903 80.7895 71.4558 81.065 71.9673 80.9233C72.2775 80.8163 72.5402 80.6038 72.7096 80.3228C72.8791 80.0419 72.9444 79.7103 72.8943 79.3861C73.7146 79.3205 74.2139 78.572 74.1002 77.7276C74.8683 77.6224 75.3997 76.9042 75.2446 76.0046C75.5678 75.9426 75.8583 75.7673 76.0636 75.5102C76.269 75.253 76.3758 74.931 76.3647 74.6021C76.3605 74.0136 76.1648 74.3483 76.6505 74.1021C76.9411 73.9333 77.166 73.6711 77.2885 73.3581C77.411 73.0451 77.4239 72.6999 77.325 72.3787C77.6444 72.2835 77.9203 72.0794 78.1049 71.8019C78.2894 71.5244 78.3709 71.191 78.3351 70.8597C78.2826 70.2793 78.119 70.6143 78.5842 70.3309C78.862 70.1354 79.0664 69.8526 79.1647 69.5276C79.2631 69.2025 79.2499 68.8539 79.1271 68.5372C79.4396 68.4114 79.699 68.1814 79.8615 67.8863C80.0239 67.5912 80.0794 67.249 80.0186 66.9176C79.9201 66.3436 79.7884 66.696 80.2265 66.3615C80.4887 66.1414 80.6703 65.8404 80.7428 65.5058C80.8153 65.1713 80.7745 64.8221 80.627 64.5132C80.8045 64.4191 80.9616 64.2908 81.0894 64.1358C81.2173 63.9808 81.3133 63.8021 81.3719 63.61C81.4306 63.4178 81.4507 63.216 81.4313 63.016C81.4118 62.8161 81.353 62.6219 81.2584 62.4447C81.6093 62.2376 81.8639 61.8998 81.9663 61.5054C82.0687 61.111 82.0106 60.6921 81.8048 60.3404C82.1468 60.1182 82.3875 59.7702 82.4747 59.3718C82.562 58.9734 82.4888 58.5567 82.2709 58.2119C82.6046 57.9755 82.8318 57.6172 82.9032 57.2145C82.9746 56.8118 82.8845 56.3972 82.6523 56.0605C82.975 55.8094 83.1865 55.442 83.2418 55.0369C83.2971 54.6318 83.1917 54.2211 82.9481 53.8927Z" fill="url(#paint0_linear_82_114)"/>
<defs>
<linearGradient id="paint0_linear_82_114" x1="33.079" y1="95.0996" x2="51.5377" y2="1.04152" gradientUnits="userSpaceOnUse">
<stop stop-color="#F0D23B"/>
<stop offset="0.1" stop-color="#9B550C"/>
<stop offset="0.3" stop-color="#DB9B23"/>
<stop offset="0.31" stop-color="#D59320"/>
<stop offset="0.43" stop-color="#AF6311"/>
<stop offset="0.49" stop-color="#A1510B"/>
<stop offset="0.74" stop-color="#DBA423"/>
<stop offset="0.77" stop-color="#D0971F"/>
<stop offset="0.83" stop-color="#B47415"/>
<stop offset="0.87" stop-color="#9B560C"/>
<stop offset="0.89" stop-color="#A05D11"/>
<stop offset="0.91" stop-color="#AD721F"/>
<stop offset="0.94" stop-color="#C29335"/>
<stop offset="0.98" stop-color="#DFC154"/>
<stop offset="1" stop-color="#F0DC66"/>
</linearGradient>
</defs>
</svg>
