<svg width="47" height="31" viewBox="0 0 47 31" fill="none" xmlns="http://www.w3.org/2000/svg">
<path d="M3.39078 29.9263C5.55924 30.2779 2.95516 29.8514 0.77649 29.4961C1.37391 27.7785 2.06695 26.0957 2.85236 24.4556C5.68012 18.7154 8.64599 14.7929 12.6792 10.9387C14.6698 9.07211 16.847 7.41501 19.1764 5.99357C21.5025 4.57659 23.9803 3.42522 26.5632 2.5611C30.5595 1.22207 34.7711 0.64285 38.9804 0.853349C41.4867 0.975183 43.9713 1.37863 46.3874 2.05607C42.7923 1.00473 39.0483 0.554266 35.3065 0.722853C32.5204 0.850923 29.7609 1.32278 27.0905 2.12768C24.4765 2.92178 21.9612 4.01046 19.5931 5.37275C17.2253 6.73245 15.0048 8.33395 12.9672 10.1516C8.62975 14.1083 5.65156 18.0269 2.84468 23.4246C1.86035 25.3713 1.00713 27.3815 0.290717 29.4419C3.40882 29.9503 2.83711 29.8667 3.39078 29.9263Z" fill="url(#paint0_linear_82_128)"/>
<defs>
<linearGradient id="paint0_linear_82_128" x1="25.7591" y1="-1.22449" x2="20.9651" y2="32.4437" gradientUnits="userSpaceOnUse">
<stop stop-color="#9E6100"/>
<stop offset="0.49" stop-color="#642701"/>
<stop offset="0.65" stop-color="#682A01"/>
<stop offset="0.81" stop-color="#753401"/>
<stop offset="0.98" stop-color="#8A4401"/>
<stop offset="1" stop-color="#8C4601"/>
</linearGradient>
</defs>
</svg>
