<svg width="3" height="4" viewBox="0 0 3 4" fill="none" xmlns="http://www.w3.org/2000/svg">
<path d="M2.39249 2.33559C2.381 2.32116 2.36664 2.3093 2.35031 2.30074C2.33398 2.29218 2.31604 2.28711 2.29764 2.28587C2.27925 2.28462 2.2608 2.28723 2.24347 2.29351C2.22613 2.2998 2.2103 2.30962 2.19697 2.32237L2.09329 2.41727L0.721485 0.635412C0.699203 0.60575 0.666053 0.586146 0.629324 0.580916C0.592595 0.575686 0.555291 0.585258 0.525615 0.607522C0.506514 0.621862 0.545397 0.588406 0.244237 0.87209C2.46924 3.78194 1.825 2.94935 1.94756 3.0984C1.96939 3.12497 2.00039 3.14239 2.03443 3.14724C2.06848 3.15209 2.10311 3.14401 2.13149 3.12459C2.14786 3.1123 2.19833 3.06586 2.6332 2.66474C2.38259 2.31955 2.40922 2.35503 2.39249 2.33559Z" fill="url(#paint0_linear_130_613)"/>
<defs>
<linearGradient id="paint0_linear_130_613" x1="0.12484" y1="1.67638" x2="2.71651" y2="2.04541" gradientUnits="userSpaceOnUse">
<stop stop-color="#FFE6AB"/>
<stop offset="1" stop-color="#FFD778"/>
</linearGradient>
</defs>
</svg>
