<svg width="2" height="3" viewBox="0 0 2 3" fill="none" xmlns="http://www.w3.org/2000/svg">
<path d="M1.59564 2.46946C1.59672 2.43912 1.58793 2.40925 1.57058 2.38434C1.55324 2.35943 1.52827 2.34083 1.49945 2.33132L1.38378 2.31485C1.52946 0.312309 1.54093 0.427653 1.49343 0.354377C1.44594 0.2811 1.45105 0.305435 1.1332 0.247302L0.47567 0.34463C0.787212 0.401864 0.77429 0.387153 0.812157 0.422583C0.8936 0.498548 0.871039 0.430965 0.725353 2.41849C0.828397 2.43316 0.883073 2.44095 0.925766 2.51783C0.968458 2.59471 0.939008 2.5755 0.916027 2.90265L1.57446 2.79901C1.59653 2.44813 1.59475 2.49079 1.59564 2.46946Z" fill="url(#paint0_linear_82_245)"/>
<defs>
<linearGradient id="paint0_linear_82_245" x1="1.20981" y1="0.251773" x2="0.83491" y2="2.88466" gradientUnits="userSpaceOnUse">
<stop stop-color="#9E6100"/>
<stop offset="0.49" stop-color="#642701"/>
<stop offset="0.65" stop-color="#682A01"/>
<stop offset="0.81" stop-color="#753401"/>
<stop offset="0.98" stop-color="#8A4401"/>
<stop offset="1" stop-color="#8C4601"/>
</linearGradient>
</defs>
</svg>
