<svg width="46" height="29" viewBox="0 0 46 29" fill="none" xmlns="http://www.w3.org/2000/svg">
<path d="M38.6414 0.19812C34.5259 -0.0604875 30.3978 0.43706 26.4615 1.66612C23.914 2.46435 21.4623 3.54146 19.1512 4.87788C14.2446 7.79338 10.7288 10.9703 7.11645 15.5445C4.4723 19.0111 2.31783 22.825 0.713691 26.8791L1.19346 26.9328L0.954203 27.5348C2.2451 27.7454 2.08199 27.71 1.46266 27.6437C5.44967 28.2943 4.71465 28.1848 5.43941 28.2636L1.03337 27.5436C3.1028 22.3037 5.22794 18.7265 8.30353 14.824C12.2447 10.0456 15.9117 7.09007 20.5527 4.49986C22.8979 3.22689 25.3782 2.22064 27.9474 1.49996C30.5709 0.765784 33.2737 0.352765 35.9967 0.269961C39.122 0.174844 42.2453 0.513776 45.2774 1.27706C43.1053 0.70477 40.883 0.343447 38.6414 0.19812Z" fill="url(#paint0_linear_130_241)"/>
<defs>
<linearGradient id="paint0_linear_130_241" x1="25.2582" y1="-1.81231" x2="20.6649" y2="30.4462" gradientUnits="userSpaceOnUse">
<stop stop-color="#9E6100"/>
<stop offset="0.49" stop-color="#642701"/>
<stop offset="0.65" stop-color="#682A01"/>
<stop offset="0.81" stop-color="#753401"/>
<stop offset="0.98" stop-color="#8A4401"/>
<stop offset="1" stop-color="#8C4601"/>
</linearGradient>
</defs>
</svg>
