<svg width="4" height="4" viewBox="0 0 4 4" fill="none" xmlns="http://www.w3.org/2000/svg">
<path d="M3.0344 2.73C3.02148 2.79871 2.99036 2.8627 2.9443 2.9153C2.89823 2.96789 2.8389 3.00716 2.77249 3.02903C2.6848 3.04579 2.46164 3.02132 3.45869 3.08774C3.54967 3.08516 3.63639 3.04863 3.70178 2.98532C3.76717 2.92202 3.8065 2.83653 3.81203 2.74568C4.01882 1.2934 4.03761 1.34969 3.97441 1.1774C3.94122 1.09377 3.87788 1.02562 3.79689 0.98641C3.72522 0.959146 1.76822 0.617124 1.74195 0.613382C1.51299 0.595403 0.812453 0.534646 1.00183 0.556738C3.17621 0.946771 3.01207 0.901467 3.10798 0.980926C3.15924 1.0298 3.19754 1.09065 3.21943 1.15801C3.24132 1.22536 3.24612 1.29711 3.23338 1.36678C3.02147 2.82077 3.04188 2.67745 3.0344 2.73Z" fill="url(#paint0_linear_130_311)"/>
<defs>
<linearGradient id="paint0_linear_130_311" x1="2.52542" y1="0.724941" x2="2.20605" y2="2.96787" gradientUnits="userSpaceOnUse">
<stop stop-color="#9E6100"/>
<stop offset="0.49" stop-color="#642701"/>
<stop offset="0.65" stop-color="#682A01"/>
<stop offset="0.81" stop-color="#753401"/>
<stop offset="0.98" stop-color="#8A4401"/>
<stop offset="1" stop-color="#8C4601"/>
</linearGradient>
</defs>
</svg>
