<svg width="3" height="4" viewBox="0 0 3 4" fill="none" xmlns="http://www.w3.org/2000/svg">
<path d="M0.181275 1.94078C0.188001 2.19492 0.201802 2.15827 0.917537 3.20424C0.944567 3.24776 0.980812 3.28483 1.02372 3.31284C1.06662 3.34084 1.11515 3.3591 1.16587 3.36632C1.2166 3.37354 1.26829 3.36956 1.31731 3.35464C1.36633 3.33973 1.41148 3.31425 1.44958 3.27999C1.55859 3.19253 1.85614 2.86586 1.88676 2.8316C1.97345 2.72853 2.02525 2.60066 2.03474 2.46632C2.04423 2.33199 2.01092 2.1981 1.93959 2.08387C1.21755 1.037 1.2981 1.1343 1.22567 1.07034C0.906528 0.810342 0.651958 1.18175 0.366415 1.48439C0.250169 1.60825 0.184174 1.77094 0.181275 1.94078ZM1.67781 2.4607C1.66583 2.54481 1.66613 2.54271 1.37188 2.84625L1.20164 1.72133C1.71026 2.45888 1.67658 2.39401 1.67781 2.4607ZM0.537523 1.87994C0.548004 1.80634 0.545908 1.82106 0.835657 1.51902L1.00559 2.61601C0.510199 1.90609 0.53065 1.95835 0.537523 1.87994Z" fill="url(#paint0_linear_82_430)"/>
<defs>
<linearGradient id="paint0_linear_82_430" x1="0.162697" y1="2.04113" x2="2.05535" y2="2.31062" gradientUnits="userSpaceOnUse">
<stop stop-color="#FFE6AB"/>
<stop offset="1" stop-color="#FFD778"/>
</linearGradient>
</defs>
</svg>
