<svg width="3" height="3" viewBox="0 0 3 3" fill="none" xmlns="http://www.w3.org/2000/svg">
<path d="M2.22021 1.93084C2.31469 1.86308 2.38568 1.76751 2.42327 1.65748C2.46086 1.54745 2.46318 1.42844 2.42991 1.31703C2.41395 1.24824 2.28609 0.820225 2.23947 0.695579C2.21117 0.6387 2.17358 0.586942 2.12825 0.542429C2.08714 0.500113 2.03674 0.467948 1.98105 0.448474C1.92535 0.428999 1.86589 0.422751 1.80737 0.430226C0.863515 0.443876 1.18284 0.431411 1.26996 0.452399C1.3548 0.487683 1.42945 0.543656 1.4871 0.615204C1.54475 0.686751 1.58356 0.771595 1.59999 0.861997C1.45148 0.853363 1.30251 0.856545 1.1545 0.871512L0.488649 1.17792C1.56868 1.36819 1.27487 1.33708 1.73508 1.32966C1.75685 1.41755 1.75963 1.50907 1.74325 1.59812C1.72687 1.68717 1.69171 1.7717 1.64009 1.84609C1.54792 1.95098 1.61008 1.90619 0.561298 2.38551C0.535794 2.39686 0.509367 2.40602 0.482305 2.41288C0.457069 2.40929 0.247095 2.4223 1.14018 2.40356C1.1672 2.40072 1.19387 2.39518 1.21978 2.38701C1.29457 2.35903 2.19258 1.94407 2.22021 1.93084ZM1.18738 1.168L1.63068 0.96292L1.71913 1.26087L1.18738 1.168Z" fill="url(#paint0_linear_82_177)"/>
<defs>
<linearGradient id="paint0_linear_82_177" x1="1.60608" y1="0.382255" x2="1.29915" y2="2.53777" gradientUnits="userSpaceOnUse">
<stop stop-color="#9E6100"/>
<stop offset="0.49" stop-color="#642701"/>
<stop offset="0.65" stop-color="#682A01"/>
<stop offset="0.81" stop-color="#753401"/>
<stop offset="0.98" stop-color="#8A4401"/>
<stop offset="1" stop-color="#8C4601"/>
</linearGradient>
</defs>
</svg>
