<svg width="47" height="38" viewBox="0 0 47 38" fill="none" xmlns="http://www.w3.org/2000/svg">
<path d="M4.32151 3.0646L6.77198 3.58656L6.28677 3.57109L9.87393 4.32557L10.5428 5.39564C11.2198 10.9304 12.9989 16.2733 15.775 21.1091C19.1973 26.8897 23.3545 31.2055 29.3402 34.4558C31.2697 35.4684 33.3048 36.2657 35.4087 36.8333C36.7954 37.2058 38.2078 37.4753 39.6342 37.6397C41.7392 37.8797 43.8645 37.8815 45.9699 37.645C46.9378 37.5391 46.4161 37.5916 45.4379 37.6838C44.0342 37.7916 42.6245 37.7953 41.2202 37.695C39.7982 37.5849 38.3861 37.3708 36.9954 37.0544C34.7831 36.544 32.6364 35.782 30.5973 34.7835C28.6801 33.8395 26.8651 32.7007 25.1811 31.3851C20.1744 27.3871 16.5615 22.5688 13.8305 15.9386C12.4781 12.5598 11.5641 9.02175 11.111 5.41073L10.4444 4.341L1.2735 2.39177C1.24684 1.55206 1.25484 1.87245 1.22987 0.986674L0.672317 0.965779C0.68806 1.81368 0.680406 1.4909 0.715613 2.37326C4.35431 3.15945 3.68821 3.0451 4.32151 3.0646Z" fill="url(#paint0_linear_130_210)"/>
<defs>
<linearGradient id="paint0_linear_130_210" x1="25.6881" y1="4.47904" x2="21.3366" y2="35.0392" gradientUnits="userSpaceOnUse">
<stop stop-color="#9E6100"/>
<stop offset="0.49" stop-color="#642701"/>
<stop offset="0.65" stop-color="#682A01"/>
<stop offset="0.81" stop-color="#753401"/>
<stop offset="0.98" stop-color="#8A4401"/>
<stop offset="1" stop-color="#8C4601"/>
</linearGradient>
</defs>
</svg>
