<svg width="2" height="4" viewBox="0 0 2 4" fill="none" xmlns="http://www.w3.org/2000/svg">
<path d="M1.21077 0.692384C1.2014 0.577335 1.15033 0.574358 0.879607 0.441404L0.204345 0.527629L0.478674 0.665385C0.503496 0.684559 0.521515 0.711192 0.530079 0.741365C0.547835 0.812552 0.568809 0.695382 0.031933 2.53709C0.122074 2.58211 0.2089 2.6052 0.201748 2.73077C0.197855 2.75811 0.201749 2.73077 0.112672 3.03993L0.788832 2.94739C0.873412 2.65476 0.880021 2.65356 0.876693 2.60159C0.860726 2.50277 0.804245 2.49258 0.705992 2.44426C1.24917 0.588427 1.21079 0.737444 1.21077 0.692384Z" fill="url(#paint0_linear_82_233)"/>
<defs>
<linearGradient id="paint0_linear_82_233" x1="0.736608" y1="0.421042" x2="0.358716" y2="3.07496" gradientUnits="userSpaceOnUse">
<stop stop-color="#9E6100"/>
<stop offset="0.49" stop-color="#642701"/>
<stop offset="0.65" stop-color="#682A01"/>
<stop offset="0.81" stop-color="#753401"/>
<stop offset="0.98" stop-color="#8A4401"/>
<stop offset="1" stop-color="#8C4601"/>
</linearGradient>
</defs>
</svg>
