<svg width="4" height="5" viewBox="0 0 4 5" fill="none" xmlns="http://www.w3.org/2000/svg">
<path d="M2.68445 3.4665C3.23995 3.46761 3.11063 3.48575 3.27199 3.41368C3.34155 3.37972 3.40231 3.33013 3.44952 3.26878C3.49673 3.20744 3.52911 3.136 3.54412 3.06006C3.59927 2.79253 3.55936 2.79903 3.07684 1.20716C3.04556 1.08851 2.97306 0.984878 2.87232 0.914833C2.73443 0.839147 2.76822 0.858583 1.907 0.848058C1.99133 0.848552 2.07305 0.877356 2.13906 0.929846C2.3111 1.07376 2.26398 1.011 2.76805 2.72535C2.80775 2.84631 2.80733 2.97684 2.76688 3.09754C2.72642 3.21824 2.64807 3.32266 2.5435 3.39525C2.49881 3.41813 0.246593 4.41345 0.168124 4.43396C0.141257 4.4392 0.11395 4.44183 0.0865777 4.44184C0.893201 4.44216 1.20302 4.43997 0.400833 4.44272C0.511383 4.43653 0.465327 4.45191 1.04049 4.19506L1.5059 4.19552L2.52251 3.74807L2.05948 3.74794L2.68445 3.4665Z" fill="url(#paint0_linear_130_309)"/>
<defs>
<linearGradient id="paint0_linear_130_309" x1="2.2342" y1="0.79229" x2="1.68253" y2="4.66665" gradientUnits="userSpaceOnUse">
<stop stop-color="#9E6100"/>
<stop offset="0.49" stop-color="#642701"/>
<stop offset="0.65" stop-color="#682A01"/>
<stop offset="0.81" stop-color="#753401"/>
<stop offset="0.98" stop-color="#8A4401"/>
<stop offset="1" stop-color="#8C4601"/>
</linearGradient>
</defs>
</svg>
