<svg width="4" height="6" viewBox="0 0 4 6" fill="none" xmlns="http://www.w3.org/2000/svg">
<path d="M2.71665 4.80977C3.24621 1.09066 3.26643 1.27389 3.17009 1.02621C3.14815 0.970752 3.11544 0.92019 3.07384 0.877455C3.03223 0.83472 2.98257 0.800658 2.92772 0.777237C2.85571 0.752362 1.55116 0.534924 1.501 0.527782C1.37993 0.535687 1.26593 0.587606 1.18049 0.673752C1.09505 0.759898 1.04408 0.874321 1.03717 0.995454C0.506925 4.71933 0.531707 4.4426 0.526992 4.5784C0.529796 4.67066 0.55799 4.76036 0.608472 4.83763C0.658953 4.9149 0.729768 4.97676 0.813127 5.01639C0.887183 5.04399 2.1873 5.27542 2.2378 5.28018C2.36215 5.27636 2.48049 5.22582 2.56924 5.13864C2.65799 5.05145 2.71062 4.93403 2.71665 4.80977Z" fill="url(#paint0_linear_130_518)"/>
<defs>
<linearGradient id="paint0_linear_130_518" x1="0.780697" y1="2.7453" x2="2.97824" y2="3.05821" gradientUnits="userSpaceOnUse">
<stop stop-color="#FFE6AB"/>
<stop offset="1" stop-color="#FFD778"/>
</linearGradient>
</defs>
</svg>
