<svg width="5" height="5" viewBox="0 0 5 5" fill="none" xmlns="http://www.w3.org/2000/svg">
<path d="M3.51592 2.88798C3.47542 3.00666 3.53905 2.89127 2.63518 4.29666C2.59672 4.35949 2.54323 4.41176 2.47953 4.44876C2.41583 4.48576 2.34392 4.50633 2.27029 4.50862C2.97592 4.46534 2.9543 4.48157 3.09095 4.41091C3.13859 4.38049 3.18149 4.34322 3.21826 4.3003C3.24018 4.26695 4.0612 3.00639 4.10831 2.90153C4.15661 2.7795 4.16143 2.64457 4.12196 2.51941C4.05157 2.32058 3.97315 2.28366 3.80847 2.14435L3.44319 2.16315L2.83015 1.67677L3.19513 1.66009L2.31644 0.959952L1.94935 0.976343C1.75757 0.806414 1.55587 0.648017 1.34533 0.501985C1.7767 0.486167 1.71812 0.490701 1.69829 0.479294C1.54716 0.410572 1.55317 0.428591 0.869469 0.453537C1.10469 0.459137 0.971581 0.399419 3.32579 2.27946C3.4139 2.35087 3.47897 2.44673 3.51279 2.55499C3.54662 2.66326 3.5477 2.7791 3.51592 2.88798Z" fill="url(#paint0_linear_82_291)"/>
<defs>
<linearGradient id="paint0_linear_82_291" x1="2.65632" y1="0.592107" x2="2.10206" y2="4.48466" gradientUnits="userSpaceOnUse">
<stop stop-color="#9E6100"/>
<stop offset="0.49" stop-color="#642701"/>
<stop offset="0.65" stop-color="#682A01"/>
<stop offset="0.81" stop-color="#753401"/>
<stop offset="0.98" stop-color="#8A4401"/>
<stop offset="1" stop-color="#8C4601"/>
</linearGradient>
</defs>
</svg>
