<svg width="4" height="3" viewBox="0 0 4 3" fill="none" xmlns="http://www.w3.org/2000/svg">
<path d="M0.263711 0.391538C2.52412 0.805658 2.39643 0.753146 2.51995 0.880159C2.581 0.953573 2.61554 1.04541 2.618 1.14086C2.61564 1.23279 2.42396 2.50357 2.42037 2.52881C2.40658 2.59373 2.37575 2.65381 2.33106 2.70288C2.28636 2.75194 2.22941 2.78822 2.16606 2.808C2.09096 2.82305 1.83141 2.80755 2.68517 2.839C2.75287 2.84288 2.82018 2.82654 2.87858 2.79207C2.93697 2.7576 2.9838 2.70654 3.01311 2.64539C3.04792 2.56667 3.04133 2.59792 3.10722 2.16531L2.73832 2.14926C2.80539 1.6782 2.81228 1.62983 2.84791 1.37958L3.20991 1.39894C3.23911 1.31818 3.24779 1.23144 3.23517 1.1465C3.22254 1.06156 3.18901 0.981093 3.13759 0.912321C3.01226 0.782905 3.12313 0.833021 0.885254 0.4264C0.834784 0.419213 0.944142 0.434786 0.23157 0.391253L0.263711 0.391538Z" fill="url(#paint0_linear_82_274)"/>
<defs>
<linearGradient id="paint0_linear_82_274" x1="1.7688" y1="0.550062" x2="1.45858" y2="2.72872" gradientUnits="userSpaceOnUse">
<stop stop-color="#9E6100"/>
<stop offset="0.49" stop-color="#642701"/>
<stop offset="0.65" stop-color="#682A01"/>
<stop offset="0.81" stop-color="#753401"/>
<stop offset="0.98" stop-color="#8A4401"/>
<stop offset="1" stop-color="#8C4601"/>
</linearGradient>
</defs>
</svg>
