<svg width="2" height="4" viewBox="0 0 2 4" fill="none" xmlns="http://www.w3.org/2000/svg">
<path d="M0.482334 3.03658C0.965991 3.06039 0.956383 3.0676 1.08074 3.03811C1.17927 3.00791 1.26847 2.95306 1.33988 2.87874C1.41129 2.80443 1.46254 2.71312 1.48879 2.61345C1.51637 2.49508 1.67105 1.1375 1.67135 1.12038C1.68554 1.03388 1.675 0.94513 1.64095 0.864361C1.60689 0.783591 1.55072 0.714086 1.47888 0.663853C1.32864 0.573802 1.28839 0.585235 0.774394 0.563541C0.653745 0.561925 0.535684 0.598543 0.437125 0.668147C0.338565 0.737751 0.264566 0.836768 0.225737 0.951009C0.181338 1.082 0.204709 0.948015 0.0245638 2.46933C0.010812 2.53755 0.0122593 2.60796 0.0288033 2.67555C0.0453474 2.74314 0.0765818 2.80626 0.120285 2.86042C0.163988 2.91457 0.219086 2.95843 0.281661 2.98888C0.344237 3.01933 0.412751 3.03561 0.482334 3.03658ZM1.0658 2.57039C1.00605 2.62839 1.00844 2.61157 0.594784 2.59344L1.21883 1.52582C1.09704 2.56196 1.11534 2.50878 1.0664 2.56618L1.0658 2.57039ZM0.623817 1.04846C0.68357 0.990453 0.687781 1.00607 1.08853 1.02451L0.472885 2.0783C0.594075 1.04637 0.57728 1.10405 0.624415 1.04425L0.623817 1.04846Z" fill="url(#paint0_linear_82_476)"/>
<defs>
<linearGradient id="paint0_linear_82_476" x1="0.102314" y1="1.69726" x2="1.5912" y2="1.90927" gradientUnits="userSpaceOnUse">
<stop stop-color="#FFE6AB"/>
<stop offset="1" stop-color="#FFD778"/>
</linearGradient>
</defs>
</svg>
