<svg width="4" height="2" viewBox="0 0 4 2" fill="none" xmlns="http://www.w3.org/2000/svg">
<path d="M3.34327 0.343077C2.64302 0.318464 2.60877 0.302857 3.09785 0.363915L3.06551 0.591034L1.27321 0.370159C1.0404 0.362755 0.615921 0.345224 0.705143 0.351492C2.88498 0.623259 2.45509 0.583504 3.06401 0.601549C3.05651 0.750258 3.03972 0.898353 3.01374 1.04497C3.00504 1.06979 2.98952 1.09167 2.96897 1.10809C2.94842 1.12451 2.92366 1.13482 2.89753 1.13784C2.8008 1.13909 3.47251 1.1532 3.48753 1.15319C3.52115 1.14626 3.55083 1.12667 3.57041 1.09848C3.60073 1.0513 3.59144 1.08646 3.67222 0.383481L3.34327 0.343077Z" fill="url(#paint0_linear_82_330)"/>
<defs>
<linearGradient id="paint0_linear_82_330" x1="2.2254" y1="0.177466" x2="2.10442" y2="1.02706" gradientUnits="userSpaceOnUse">
<stop stop-color="#9E6100"/>
<stop offset="0.49" stop-color="#642701"/>
<stop offset="0.65" stop-color="#682A01"/>
<stop offset="0.81" stop-color="#753401"/>
<stop offset="0.98" stop-color="#8A4401"/>
<stop offset="1" stop-color="#8C4601"/>
</linearGradient>
</defs>
</svg>
