<svg width="4" height="6" viewBox="0 0 4 6" fill="none" xmlns="http://www.w3.org/2000/svg">
<path d="M3.63671 4.88983C3.74835 4.80622 3.82812 4.68704 3.86286 4.55197C3.89761 4.4169 3.88523 4.27401 3.8278 4.14692C2.48333 0.957897 2.58063 1.07898 2.35365 0.927246C2.29911 0.892931 2.23795 0.870505 2.17416 0.861422C2.11036 0.852338 2.04537 0.8568 1.98342 0.874528C1.89915 0.901522 0.546229 1.60572 0.497792 1.63781C0.386379 1.72112 0.306905 1.84012 0.272627 1.97494C0.23835 2.10977 0.251343 2.25227 0.309441 2.37868C1.65119 5.58681 1.54189 5.34459 1.61905 5.45306C1.67567 5.5347 1.7561 5.59687 1.84937 5.63109C1.94264 5.6653 2.04419 5.6699 2.14017 5.64425C2.22477 5.61486 3.58384 4.91885 3.63671 4.88983Z" fill="url(#paint0_linear_130_586)"/>
<defs>
<linearGradient id="paint0_linear_130_586" x1="0.125806" y1="2.98372" x2="4.00734" y2="3.53642" gradientUnits="userSpaceOnUse">
<stop stop-color="#FFE6AB"/>
<stop offset="1" stop-color="#FFD778"/>
</linearGradient>
</defs>
</svg>
