<svg width="2" height="3" viewBox="0 0 2 3" fill="none" xmlns="http://www.w3.org/2000/svg">
<path d="M1.92979 0.808845C1.92826 0.740122 1.90638 0.673397 1.86692 0.617113C1.78328 0.519906 1.79865 0.548903 0.864669 0.364735C0.803314 0.359729 0.742366 0.378362 0.694302 0.416824C0.646238 0.455286 0.614693 0.510668 0.606125 0.571627C0.602724 0.595513 0.393892 2.06213 0.385048 2.12424C0.381593 2.17533 0.39164 2.22644 0.41418 2.27243C0.43672 2.31841 0.47096 2.35766 0.513464 2.38623C0.559196 2.40736 0.470469 2.38011 1.44574 2.58234C1.58189 2.60173 1.67159 2.50239 1.70667 2.37579C1.71382 2.34269 1.92743 0.876747 1.92979 0.808845Z" fill="url(#paint0_linear_130_489)"/>
<defs>
<linearGradient id="paint0_linear_130_489" x1="0.489117" y1="1.37626" x2="1.82436" y2="1.56638" gradientUnits="userSpaceOnUse">
<stop stop-color="#FFE6AB"/>
<stop offset="1" stop-color="#FFD778"/>
</linearGradient>
</defs>
</svg>
