<svg width="33" height="24" viewBox="0 0 33 24" fill="none" xmlns="http://www.w3.org/2000/svg">
<path d="M0.585209 23.2826L2.36977 21.8576C3.70913 17.461 5.94851 13.3912 8.94558 9.90672C11.7554 6.75845 14.4824 4.63657 18.2386 2.83428C19.9999 2.01463 21.8526 1.40795 23.7576 1.02709C26.7422 0.42976 29.8148 0.421053 32.8027 1.00146C31.8565 0.807829 30.9004 0.665998 29.9388 0.576594C27.945 0.39672 25.9364 0.473554 23.9622 0.805211C20.954 1.3198 18.0663 2.3841 15.4436 3.94484L15.8951 4.00912C15.0702 4.49606 14.5565 4.85184 13.8402 5.34692L13.3864 5.2823C12.7775 5.70739 12.0957 6.26831 11.5871 6.69062C6.75103 10.9078 3.69845 15.881 1.81904 21.806L0.0317415 23.233L0.585209 23.2826Z" fill="url(#paint0_linear_130_230)"/>
<defs>
<linearGradient id="paint0_linear_130_230" x1="18.3129" y1="-1.11049" x2="14.5516" y2="25.3054" gradientUnits="userSpaceOnUse">
<stop stop-color="#9E6100"/>
<stop offset="0.49" stop-color="#642701"/>
<stop offset="0.65" stop-color="#682A01"/>
<stop offset="0.81" stop-color="#753401"/>
<stop offset="0.98" stop-color="#8A4401"/>
<stop offset="1" stop-color="#8C4601"/>
</linearGradient>
</defs>
</svg>
