<svg width="42" height="17" viewBox="0 0 42 17" fill="none" xmlns="http://www.w3.org/2000/svg">
<path d="M0.637343 16.6256L0.693943 16.5362C4.24781 10.9008 8.45514 6.87189 14.2332 3.94644C18.2682 2.03517 21.7639 1.1901 26.1593 1.0946C28.6066 1.08154 31.0444 1.39833 33.4071 2.03643C36.2481 2.80956 38.9486 4.02817 41.4081 5.64688C41.4121 5.61822 41.8441 4.91205 41.8605 4.8827C39.009 3.01898 35.8469 1.68064 32.5238 0.930975C27.2689 -0.250933 21.7836 0.12219 16.7372 2.00482C14.229 2.9415 11.8565 4.20751 9.68197 5.76956C7.85069 7.08167 6.15428 8.57244 4.61771 10.2199C2.90532 12.0547 1.3858 14.0604 0.0830247 16.2055C0.28016 16.3284 0.465698 16.469 0.637343 16.6256Z" fill="#FFE082"/>
</svg>
