<svg width="4" height="3" viewBox="0 0 4 3" fill="none" xmlns="http://www.w3.org/2000/svg">
<path d="M3.16369 1.77884C3.14977 1.76951 3.13406 1.76317 3.11756 1.76022C3.10107 1.75727 3.08414 1.75777 3.06784 1.7617C3.05155 1.76564 3.03625 1.77291 3.02292 1.78306C3.00958 1.79321 2.9985 1.80602 2.99037 1.82067L2.92283 1.93336L1.3518 0.761306C1.32559 0.741263 1.29253 0.732369 1.2598 0.736546C1.22707 0.740722 1.19731 0.757633 1.17697 0.783617C1.17488 0.798337 1.17697 0.783618 0.989062 1.09372C3.08538 2.66025 2.92822 2.54347 2.95196 2.55758C2.97862 2.57133 3.00937 2.57487 3.03846 2.56755C3.06754 2.56024 3.09296 2.54257 3.10995 2.51785L3.43744 1.98089L3.16369 1.77884Z" fill="url(#paint0_linear_82_535)"/>
<defs>
<linearGradient id="paint0_linear_82_535" x1="0.933965" y1="1.48066" x2="3.4575" y2="1.83999" gradientUnits="userSpaceOnUse">
<stop stop-color="#FFE6AB"/>
<stop offset="1" stop-color="#FFD778"/>
</linearGradient>
</defs>
</svg>
