<svg width="3" height="3" viewBox="0 0 3 3" fill="none" xmlns="http://www.w3.org/2000/svg">
<path d="M2.35571 0.863403C2.37379 0.786495 2.36397 0.705669 2.32802 0.635322C2.29206 0.564975 2.2323 0.509675 2.15937 0.479279C2.13624 0.475985 0.505831 0.188047 0.445451 0.190178C0.388456 0.197827 0.334934 0.221953 0.291459 0.259596C0.247984 0.297238 0.216447 0.346756 0.200721 0.402071C0.174922 0.477784 0.20701 0.357909 0.0276456 1.61757C0.00919093 1.69395 0.0186561 1.7744 0.0543317 1.84441C0.0900074 1.91441 0.149541 1.96935 0.22218 1.9993C0.247415 2.00289 1.87482 2.29684 1.9349 2.29681C1.97146 2.29304 2.00686 2.28184 2.03893 2.2639C2.071 2.24596 2.09906 2.22166 2.12141 2.19249C2.20066 2.07289 2.17605 2.12517 2.35571 0.863403Z" fill="url(#paint0_linear_82_417)"/>
<defs>
<linearGradient id="paint0_linear_82_417" x1="0.0919905" y1="1.09034" x2="2.28116" y2="1.40206" gradientUnits="userSpaceOnUse">
<stop stop-color="#FFE6AB"/>
<stop offset="1" stop-color="#FFD778"/>
</linearGradient>
</defs>
</svg>
