<svg width="2" height="4" viewBox="0 0 2 4" fill="none" xmlns="http://www.w3.org/2000/svg">
<path d="M1.96641 2.79592C1.96157 2.7094 1.82577 1.35766 1.81011 1.27175C1.78796 1.13724 1.71629 1.01588 1.60918 0.931537C1.50207 0.847199 1.36728 0.805988 1.23133 0.816008C0.703535 0.84599 0.758203 0.838754 0.655479 0.867038C0.55826 0.905504 0.474498 0.971703 0.41461 1.0574C0.354721 1.1431 0.321349 1.24452 0.318649 1.34904C0.314205 1.48572 0.461731 2.86059 0.46444 2.8717C0.482696 3.01832 0.553398 3.15337 0.663482 3.25192C0.77224 3.33971 0.910525 3.38244 1.04985 3.3713C1.58155 3.34403 1.52448 3.35306 1.6251 3.32448C1.73109 3.28453 1.82145 3.21162 1.8829 3.11647C1.94434 3.02132 1.97361 2.90895 1.96641 2.79592ZM0.754234 1.34884C0.800165 1.28243 0.808582 1.29864 1.22132 1.27802L0.831025 2.42184C0.723286 1.34014 0.719416 1.41254 0.754234 1.34884ZM1.55156 2.80121C1.54671 2.83282 1.52956 2.86123 1.50383 2.88024C1.46389 2.90459 1.48642 2.89707 1.06947 2.91709L1.44506 1.7862C1.56389 2.83515 1.55905 2.76366 1.55156 2.80121Z" fill="url(#paint0_linear_82_486)"/>
<defs>
<linearGradient id="paint0_linear_82_486" x1="0.23452" y1="1.97" x2="2.05357" y2="2.22902" gradientUnits="userSpaceOnUse">
<stop stop-color="#FFE6AB"/>
<stop offset="1" stop-color="#FFD778"/>
</linearGradient>
</defs>
</svg>
