<svg width="21" height="22" viewBox="0 0 21 22" fill="none" xmlns="http://www.w3.org/2000/svg">
<path d="M6.68504 20.1844C8.60812 19.4227 10.4153 18.396 12.0542 17.1341C15.9704 14.0721 18.8546 10.256 20.877 4.70155C20.7463 4.48983 20.9795 4.87063 19.3312 2.1921C11.4861 0.645921 12.6377 0.846363 12.0152 0.83283L15.2337 1.4649C15.7579 1.47518 15.1048 1.37574 18.3446 2.00871L17.9742 2.00317L18.901 2.18449L20.4459 4.70024C19.6272 7.05719 18.5005 9.29555 17.095 11.3572C15.2929 14.016 12.9953 16.3026 10.3279 18.092C8.6325 19.2218 6.78523 20.1052 4.84142 20.7158C3.44386 21.1554 2.00113 21.4358 0.54065 21.5517C2.64769 21.4201 4.72104 20.9588 6.68504 20.1844Z" fill="url(#paint0_linear_82_145)"/>
<defs>
<linearGradient id="paint0_linear_82_145" x1="12.4547" y1="0.850352" x2="9.32916" y2="22.8009" gradientUnits="userSpaceOnUse">
<stop stop-color="#9E6100"/>
<stop offset="0.49" stop-color="#642701"/>
<stop offset="0.65" stop-color="#682A01"/>
<stop offset="0.81" stop-color="#753401"/>
<stop offset="0.98" stop-color="#8A4401"/>
<stop offset="1" stop-color="#8C4601"/>
</linearGradient>
</defs>
</svg>
