<svg width="5" height="6" viewBox="0 0 5 6" fill="none" xmlns="http://www.w3.org/2000/svg">
<path d="M2.86799 1.22918C2.84896 1.1742 2.81833 1.12395 2.77815 1.08187C2.73798 1.03978 2.68922 1.00683 2.63518 0.985263C2.58115 0.963696 2.5231 0.954015 2.46499 0.956879C2.40688 0.959742 2.35006 0.975081 2.2984 1.00186C2.26395 1.02132 1.03186 1.81827 0.952735 1.89474C0.882536 1.96636 0.830241 2.05354 0.800105 2.1492C0.769969 2.24485 0.762843 2.34627 0.779311 2.44519C0.804612 2.55846 0.700423 2.29748 1.91168 5.18972C1.93046 5.24513 1.96094 5.29585 2.00106 5.33844C2.04118 5.38103 2.09 5.41448 2.14419 5.43654C2.19839 5.45859 2.25669 5.46872 2.31515 5.46624C2.3736 5.46376 2.43084 5.44872 2.48298 5.42216C2.51982 5.40304 3.756 4.61154 3.8423 4.5361C3.93778 4.44176 3.99979 4.31879 4.01888 4.18593C4.04299 3.93104 4.08539 4.11254 2.86799 1.22918Z" fill="url(#paint0_linear_130_549)"/>
<defs>
<linearGradient id="paint0_linear_130_549" x1="0.671045" y1="2.96593" x2="4.11784" y2="3.45672" gradientUnits="userSpaceOnUse">
<stop stop-color="#FFE6AB"/>
<stop offset="1" stop-color="#FFD778"/>
</linearGradient>
</defs>
</svg>
