<svg width="3" height="4" viewBox="0 0 3 4" fill="none" xmlns="http://www.w3.org/2000/svg">
<path d="M1.76383 2.3337C1.04556 0.356186 1.1024 0.484432 1.05672 0.443598C1.01104 0.402765 1.02816 0.403057 0.33098 0.507615C0.349775 0.505232 0.368867 0.507458 0.386611 0.514096C0.404354 0.520734 0.420217 0.531589 0.432833 0.545723C0.471605 0.589864 0.412359 0.4484 1.14265 2.46196C1.36253 2.42461 1.34391 2.41981 1.37606 2.45014C1.40822 2.48046 1.40342 2.48407 1.52343 2.81656C0.984305 3.03159 1.01614 3.01896 0.993911 3.02438L1.63522 2.92044L2.15392 2.71323C1.99331 2.27412 2.03807 2.29122 1.76383 2.3337Z" fill="url(#paint0_linear_82_276)"/>
<defs>
<linearGradient id="paint0_linear_82_276" x1="1.4046" y1="0.471677" x2="1.04018" y2="3.03096" gradientUnits="userSpaceOnUse">
<stop stop-color="#9E6100"/>
<stop offset="0.49" stop-color="#642701"/>
<stop offset="0.65" stop-color="#682A01"/>
<stop offset="0.81" stop-color="#753401"/>
<stop offset="0.98" stop-color="#8A4401"/>
<stop offset="1" stop-color="#8C4601"/>
</linearGradient>
</defs>
</svg>
