<svg width="3" height="3" viewBox="0 0 3 3" fill="none" xmlns="http://www.w3.org/2000/svg">
<path d="M1.13351 2.36016C2.12154 1.71985 2.11585 1.75981 2.19896 1.55279C2.24283 1.41234 2.24023 1.26148 2.19156 1.12262C2.15396 1.02501 1.99277 0.635161 1.94647 0.553473C1.91251 0.486975 1.8621 0.430272 1.80004 0.388761C1.73797 0.34725 1.66632 0.322312 1.59189 0.316319C0.930114 0.337951 0.821366 0.333194 0.944236 0.344252C1.18188 0.393109 1.25856 0.562799 1.34396 0.761626C1.19105 0.756152 1.03795 0.763052 0.886159 0.782261C0.867838 0.79038 0.735399 0.876661 0.241086 1.19892C0.666393 1.22021 1.0925 1.22001 1.51779 1.19833C1.56407 1.35482 1.54856 1.5231 1.47445 1.66848C1.38379 1.80791 1.42282 1.75983 0.444104 2.39502C0.398429 2.42486 0.346557 2.44388 0.292427 2.45066C0.271397 2.44767 0.0524117 2.46369 0.940079 2.42273C1.00943 2.4221 1.07693 2.40026 1.13351 2.36016ZM0.932295 1.16646L1.38396 0.87246C1.42972 0.971261 1.47048 1.0723 1.50607 1.17521L0.932295 1.16646Z" fill="url(#paint0_linear_82_190)"/>
<defs>
<linearGradient id="paint0_linear_82_190" x1="1.37829" y1="0.279468" x2="1.05309" y2="2.56327" gradientUnits="userSpaceOnUse">
<stop stop-color="#9E6100"/>
<stop offset="0.49" stop-color="#642701"/>
<stop offset="0.65" stop-color="#682A01"/>
<stop offset="0.81" stop-color="#753401"/>
<stop offset="0.98" stop-color="#8A4401"/>
<stop offset="1" stop-color="#8C4601"/>
</linearGradient>
</defs>
</svg>
