<svg width="6" height="7" viewBox="0 0 6 7" fill="none" xmlns="http://www.w3.org/2000/svg">
<path d="M1.12191 6.24157C1.15896 6.30781 1.20879 6.36604 1.26852 6.41288C1.32824 6.45971 1.39667 6.49423 1.46983 6.51443C1.543 6.53463 1.61943 6.5401 1.69473 6.53054C1.77002 6.52097 1.84267 6.49656 1.90846 6.45871C1.94659 6.43195 5.65132 3.52868 5.7477 3.4244C5.82393 3.3265 5.87324 3.21036 5.89074 3.08752C5.90823 2.96468 5.89329 2.8394 5.84741 2.72411C5.79027 2.58295 5.88738 2.74482 4.77662 1.05257C4.71501 0.951293 4.62494 0.87041 4.51763 0.820025C4.41033 0.76964 4.29056 0.751984 4.17328 0.769265C4.10401 0.781661 4.03775 0.807185 3.97806 0.844457C3.93962 0.873313 0.263738 3.78498 0.170058 3.88536C0.0694847 4.01208 0.01661 4.1701 0.0206632 4.33183C0.0460359 4.63582 0.0321786 4.55231 1.12191 6.24157Z" fill="url(#paint0_linear_82_508)"/>
<defs>
<linearGradient id="paint0_linear_82_508" x1="0.173976" y1="3.25511" x2="5.7573" y2="4.05013" gradientUnits="userSpaceOnUse">
<stop stop-color="#FFE6AB"/>
<stop offset="1" stop-color="#FFD778"/>
</linearGradient>
</defs>
</svg>
