<svg width="4" height="3" viewBox="0 0 4 3" fill="none" xmlns="http://www.w3.org/2000/svg">
<path d="M0.347405 0.0504152C2.48323 0.454455 2.37334 0.404688 2.48907 0.533272C2.54687 0.61227 2.57928 0.706981 2.582 0.804832C2.56976 0.890823 2.38133 2.21413 2.37793 2.23801C2.36524 2.30456 2.33537 2.36663 2.29128 2.41807C2.24719 2.4695 2.19042 2.50852 2.12659 2.53123C2.05631 2.54559 1.75672 2.5273 2.80187 2.58108C2.89275 2.57957 2.97968 2.5437 3.04518 2.48068C3.11067 2.41765 3.14987 2.33216 3.15487 2.24141C3.362 0.786732 3.34567 0.901386 3.35894 0.80823C3.3543 0.737976 3.33053 0.670331 3.29021 0.612614C3.24988 0.554896 3.19455 0.509305 3.13018 0.480774C3.07694 0.461008 1.12778 0.0981666 1.08956 0.0927247L0.316352 0.0459935L0.347405 0.0504152Z" fill="url(#paint0_linear_130_306)"/>
<defs>
<linearGradient id="paint0_linear_130_306" x1="1.87064" y1="0.203943" x2="1.54719" y2="2.47554" gradientUnits="userSpaceOnUse">
<stop stop-color="#9E6100"/>
<stop offset="0.49" stop-color="#642701"/>
<stop offset="0.65" stop-color="#682A01"/>
<stop offset="0.81" stop-color="#753401"/>
<stop offset="0.98" stop-color="#8A4401"/>
<stop offset="1" stop-color="#8C4601"/>
</linearGradient>
</defs>
</svg>
