<svg width="2" height="3" viewBox="0 0 2 3" fill="none" xmlns="http://www.w3.org/2000/svg">
<path d="M1.57871 0.602239C1.57874 0.541508 1.55935 0.48236 1.52336 0.433439C1.45544 0.352963 1.499 0.378477 0.62326 0.215159C0.569244 0.210752 0.515585 0.22716 0.47327 0.261022C0.430954 0.294883 0.403183 0.343638 0.395639 0.397306C0.392645 0.418336 0.210286 1.69903 0.202201 1.75581C0.199329 1.80104 0.208468 1.84623 0.228693 1.88679C0.248917 1.92735 0.279507 1.96184 0.317361 1.98677C0.357623 2.00537 0.273199 1.98048 1.15165 2.15491C1.27362 2.17228 1.35289 2.08272 1.39189 1.97456C1.38977 1.94422 1.57694 0.659917 1.57871 0.602239Z" fill="url(#paint0_linear_82_396)"/>
<defs>
<linearGradient id="paint0_linear_82_396" x1="0.293524" y1="1.09939" x2="1.488" y2="1.26947" gradientUnits="userSpaceOnUse">
<stop stop-color="#FFE6AB"/>
<stop offset="1" stop-color="#FFD778"/>
</linearGradient>
</defs>
</svg>
