<svg width="3" height="3" viewBox="0 0 3 3" fill="none" xmlns="http://www.w3.org/2000/svg">
<path d="M1.65086 1.86697C0.702242 0.0154301 0.780703 0.142467 0.734724 0.103736C0.70988 0.0836055 0.678281 0.0737317 0.646395 0.0761384C-0.102756 0.184025 0.0143865 0.159938 0.0606513 0.166526C0.147178 0.19172 0.0939797 0.12836 1.05312 2.01144C1.32737 1.96896 1.29552 1.96656 1.31566 1.99089C1.3358 2.01521 1.31566 1.99089 1.48493 2.30894C1.32005 2.42217 1.14653 2.52229 0.965976 2.60837L1.60008 2.50985C1.62711 2.50083 1.63251 2.49302 2.10762 2.21523C1.88633 1.79537 1.94853 1.82568 1.65086 1.86697Z" fill="url(#paint0_linear_82_285)"/>
<defs>
<linearGradient id="paint0_linear_82_285" x1="1.20998" y1="0.156388" x2="0.862633" y2="2.5958" gradientUnits="userSpaceOnUse">
<stop stop-color="#9E6100"/>
<stop offset="0.49" stop-color="#642701"/>
<stop offset="0.65" stop-color="#682A01"/>
<stop offset="0.81" stop-color="#753401"/>
<stop offset="0.98" stop-color="#8A4401"/>
<stop offset="1" stop-color="#8C4601"/>
</linearGradient>
</defs>
</svg>
