<svg width="4" height="3" viewBox="0 0 4 3" fill="none" xmlns="http://www.w3.org/2000/svg">
<path d="M2.72705 0.54086C1.04097 0.195985 1.0744 0.166626 0.816146 0.268766C0.679022 0.337005 0.57095 0.452203 0.511593 0.593399C0.441721 0.758919 0.45944 0.702952 0.331486 1.44753C0.31726 1.53605 0.315919 1.62615 0.32751 1.71504C0.342168 1.84907 0.394721 1.97615 0.479011 2.08138C0.5633 2.18662 0.675839 2.26565 0.803434 2.30922C0.908882 2.33885 2.36224 2.64084 2.47211 2.65649C2.59453 2.67223 2.71875 2.64795 2.82623 2.58726C2.9337 2.52657 3.01866 2.43274 3.0684 2.31978C3.15156 2.12935 3.13589 2.17098 3.26282 1.41651C3.28542 1.32382 3.28947 1.22758 3.27474 1.13333C3.26002 1.03907 3.2268 0.948655 3.17702 0.867279C3.12723 0.785902 3.06184 0.715172 2.98462 0.659153C2.9074 0.603135 2.81986 0.562931 2.72705 0.54086ZM0.873782 1.69535C0.848703 1.6617 0.836465 1.6202 0.839269 1.57832C0.84301 1.55205 0.832806 1.62371 0.932847 1.02382L2.05587 1.98552C0.867998 1.73595 0.929773 1.76424 0.873782 1.69535ZM1.55174 0.887728C2.72152 1.12741 2.65668 1.10355 2.71027 1.15505C2.76387 1.20655 2.76116 1.25978 2.66486 1.8334L1.55174 0.887728Z" fill="url(#paint0_linear_130_643)"/>
<defs>
<linearGradient id="paint0_linear_130_643" x1="0.364145" y1="1.23528" x2="3.2329" y2="1.64377" gradientUnits="userSpaceOnUse">
<stop stop-color="#FFE6AB"/>
<stop offset="1" stop-color="#FFD778"/>
</linearGradient>
</defs>
</svg>
