<svg width="3" height="4" viewBox="0 0 3 4" fill="none" xmlns="http://www.w3.org/2000/svg">
<path d="M0.677516 2.30013C0.680873 2.40239 0.713461 2.50154 0.771424 2.58584C0.829388 2.67015 0.910297 2.73608 1.00457 2.77582C1.17136 2.8724 1.34936 2.94819 1.53458 3.00148C1.66103 3.02646 1.79226 3.00303 1.90224 2.93582C2.13949 2.7765 2.10283 2.7627 2.70029 1.35445C2.7366 1.28782 2.75857 1.21433 2.76478 1.13871C2.77099 1.06308 2.7613 0.986995 2.73634 0.915338C2.71138 0.843681 2.6717 0.778041 2.61985 0.722639C2.568 0.667237 2.50513 0.623299 2.43528 0.593651C2.28133 0.516799 2.12359 0.447791 1.96266 0.386891C1.82625 0.348371 1.68028 0.363354 1.55454 0.428781C1.42879 0.494209 1.33276 0.605152 1.28602 0.738971C0.687949 2.12139 0.675317 2.08955 0.677516 2.30013ZM1.71924 0.830695C1.79552 0.792209 1.79102 0.808733 2.18223 0.984589L1.27809 1.8042C1.685 0.84513 1.65978 0.871577 1.71924 0.830695ZM2.16145 1.53734C1.74584 2.51233 1.77226 2.47747 1.717 2.51895C1.70428 2.52796 1.6899 2.53433 1.67468 2.53769C1.65946 2.54105 1.64372 2.54133 1.6284 2.53852C1.49693 2.48798 1.36834 2.43028 1.2432 2.36566L2.16145 1.53734Z" fill="url(#paint0_linear_82_492)"/>
<defs>
<linearGradient id="paint0_linear_82_492" x1="0.774201" y1="1.54578" x2="2.66265" y2="1.81468" gradientUnits="userSpaceOnUse">
<stop stop-color="#FFE6AB"/>
<stop offset="1" stop-color="#FFD778"/>
</linearGradient>
</defs>
</svg>
