<svg width="39" height="33" viewBox="0 0 39 33" fill="none" xmlns="http://www.w3.org/2000/svg">
<path d="M4.73186 2.48666C7.49249 3.01921 7.03133 2.91278 6.48458 2.87998L9.56878 3.47577C10.12 3.50706 9.69974 3.44507 11.721 3.83587C11.9719 3.88232 12.0323 3.88018 11.5047 3.84798L13.3025 4.19623C14.4511 5.96897 13.4513 4.43197 14.7481 6.42965C14.6864 9.11029 14.9858 11.787 15.6383 14.3878L16.0474 14.3924C16.212 15.0595 16.5165 16.0705 16.7051 16.6145L16.2954 16.6141C17.0479 18.8597 18.0926 20.9966 19.4026 22.9697C21.4672 25.98 23.616 28.1269 26.7612 30.0573C28.2475 30.9423 29.8419 31.6316 31.5049 32.1081C34.487 32.9082 36.3192 32.9545 38.7764 32.7702C36.2639 32.9696 33.7368 32.6688 31.3413 31.8853C28.1127 30.7819 25.5289 29.2639 22.7213 26.4697C21.5159 25.2328 20.4439 23.8727 19.5228 22.4118C16.5464 17.6323 15.0491 12.0796 15.2192 6.45166C13.9867 4.5597 14.9904 6.0994 13.7753 4.22065L1.23097 1.80365C1.32314 1.02076 1.28482 1.31998 1.39349 0.496527L1.32409 0.486646C1.25792 0.951397 1.27049 0.863073 1.23995 1.07757L0.81487 1.04923C0.802892 1.13335 0.81996 1.01348 0.730183 1.76452C4.84515 2.56501 4.15087 2.45328 4.73186 2.48666Z" fill="url(#paint0_linear_82_122)"/>
<defs>
<linearGradient id="paint0_linear_82_122" x1="21.7269" y1="3.39181" x2="17.8878" y2="30.3537" gradientUnits="userSpaceOnUse">
<stop stop-color="#9E6100"/>
<stop offset="0.49" stop-color="#642701"/>
<stop offset="0.65" stop-color="#682A01"/>
<stop offset="0.81" stop-color="#753401"/>
<stop offset="0.98" stop-color="#8A4401"/>
<stop offset="1" stop-color="#8C4601"/>
</linearGradient>
</defs>
</svg>
