<svg width="2" height="3" viewBox="0 0 2 3" fill="none" xmlns="http://www.w3.org/2000/svg">
<path d="M0.186817 0.881019C0.177535 0.946211 0.271246 2.23189 0.287212 2.33071C0.301575 2.43063 0.352483 2.52166 0.430086 2.58622C0.507689 2.65077 0.606473 2.68425 0.707334 2.68019C0.82599 2.67562 1.24921 2.58141 1.28916 2.57207C1.42229 2.52486 1.53595 2.43474 1.6123 2.3159C1.68864 2.19705 1.72333 2.05621 1.71093 1.9155C1.61233 0.453196 1.62681 0.592576 1.59852 0.474831C1.58501 0.414608 1.55735 0.358466 1.51784 0.311053C1.47833 0.263639 1.42809 0.226315 1.37129 0.202171C1.19943 0.14337 1.15048 0.170729 0.655465 0.271891C0.520249 0.305964 0.400461 0.384606 0.315431 0.495124C0.230401 0.605641 0.185092 0.741587 0.186817 0.881019ZM1.30216 2.08902C1.25593 2.15754 1.25142 2.14402 0.853722 2.22471L1.26444 1.07308C1.32349 2.08991 1.33067 2.02442 1.29615 2.08602L1.30216 2.08902ZM0.637051 0.732715C0.675489 0.703859 0.652661 0.713482 1.04825 0.632493L0.636328 1.77751C0.570084 0.781111 0.551768 0.804249 0.628638 0.731517L0.637051 0.732715Z" fill="url(#paint0_linear_82_466)"/>
<defs>
<linearGradient id="paint0_linear_82_466" x1="0.121825" y1="1.30732" x2="1.77684" y2="1.54298" gradientUnits="userSpaceOnUse">
<stop stop-color="#FFE6AB"/>
<stop offset="1" stop-color="#FFD778"/>
</linearGradient>
</defs>
</svg>
