<svg width="3" height="4" viewBox="0 0 3 4" fill="none" xmlns="http://www.w3.org/2000/svg">
<path d="M2.42897 1.74618C1.31757 0.615979 1.36623 0.620764 1.14572 0.5722C1.02061 0.550043 0.891807 0.577938 0.787075 0.649869C0.669957 0.734035 0.706892 0.700671 0.31088 1.17639C0.235867 1.26575 0.185445 1.37313 0.164584 1.48792C0.143724 1.60272 0.153145 1.72097 0.191921 1.83102C0.271623 2.03976 0.237946 1.97489 1.33011 3.08948C1.40592 3.17021 1.50202 3.2291 1.60836 3.25998C1.70849 3.27831 1.81178 3.26747 1.90592 3.22876C2.00007 3.19005 2.0811 3.12511 2.13938 3.04165C2.54019 2.56232 2.49726 2.62272 2.55549 2.51515C2.61736 2.38982 2.63842 2.24826 2.61573 2.11035C2.59304 1.97243 2.52773 1.84508 2.42897 1.74618ZM0.604583 1.63016C0.59613 1.53884 0.616557 1.54604 0.920094 1.17731L1.35175 2.4403C0.603396 1.66861 0.617834 1.70285 0.605781 1.62175L0.604583 1.63016ZM2.16995 2.22424C2.16007 2.29363 2.16246 2.27681 1.85712 2.64314L1.43058 1.38946C2.17562 2.13922 2.1747 2.11549 2.17114 2.21582L2.16995 2.22424Z" fill="url(#paint0_linear_82_528)"/>
<defs>
<linearGradient id="paint0_linear_82_528" x1="0.129092" y1="1.72981" x2="2.64842" y2="2.08854" gradientUnits="userSpaceOnUse">
<stop stop-color="#FFE6AB"/>
<stop offset="1" stop-color="#FFD778"/>
</linearGradient>
</defs>
</svg>
