<svg width="5" height="7" viewBox="0 0 5 7" fill="none" xmlns="http://www.w3.org/2000/svg">
<path d="M3.34254 2.49405C3.30021 2.55025 0.524845 5.91842 0.45278 5.98754C0.40649 6.03057 0.351625 6.06331 0.291786 6.08363C0.231947 6.10395 0.168486 6.11139 0.10557 6.10546C0.858425 6.21266 0.891787 6.24959 1.09329 6.11522C1.18999 6.03887 0.951894 6.30964 3.98607 2.64576C4.05481 2.5589 4.10265 2.45739 4.12588 2.34909C4.14912 2.24078 4.14713 2.12858 4.12007 2.02117C4.06291 1.83494 4.02986 1.82595 3.72268 1.45179L3.31681 1.394L2.90984 0.906931L3.31571 0.964722C2.91505 0.478556 3.08513 0.580014 2.17574 0.426925C2.27007 0.448945 2.35404 0.502537 2.41373 0.578818C3.38126 1.75505 3.42241 1.73731 3.46219 2.01546C3.47864 2.18401 3.43637 2.35307 3.34254 2.49405Z" fill="url(#paint0_linear_82_211)"/>
<defs>
<linearGradient id="paint0_linear_82_211" x1="2.6504" y1="0.483784" x2="1.81497" y2="6.35101" gradientUnits="userSpaceOnUse">
<stop stop-color="#9E6100"/>
<stop offset="0.49" stop-color="#642701"/>
<stop offset="0.65" stop-color="#682A01"/>
<stop offset="0.81" stop-color="#753401"/>
<stop offset="0.98" stop-color="#8A4401"/>
<stop offset="1" stop-color="#8C4601"/>
</linearGradient>
</defs>
</svg>
