<svg width="1" height="3" viewBox="0 0 1 3" fill="none" xmlns="http://www.w3.org/2000/svg">
<path d="M0.932988 2.57237C0.933872 2.54186 0.925069 2.51185 0.907842 2.48666C0.890614 2.46146 0.86585 2.44237 0.837098 2.43212L0.721436 2.41565C0.900257 -0.0305968 0.85281 0.664259 0.858159 0.536285C0.859378 0.505706 0.85071 0.475545 0.833436 0.450282C0.816162 0.425019 0.791206 0.406002 0.762268 0.396042L0.471756 0.341797C0.279794 2.95568 0.303979 2.63514 0.302189 2.66278C0.300889 2.69305 0.309283 2.72295 0.326152 2.74812C0.343021 2.77329 0.367484 2.79242 0.395978 2.80272L0.910008 2.89952C0.935984 2.55134 0.932097 2.5937 0.932988 2.57237Z" fill="url(#paint0_linear_82_475)"/>
<defs>
<linearGradient id="paint0_linear_82_475" x1="0.298081" y1="1.56151" x2="1.08458" y2="1.6735" gradientUnits="userSpaceOnUse">
<stop stop-color="#FFE6AB"/>
<stop offset="1" stop-color="#FFD778"/>
</linearGradient>
</defs>
</svg>
