<svg width="3" height="3" viewBox="0 0 3 3" fill="none" xmlns="http://www.w3.org/2000/svg">
<path d="M1.3868 1.9655C1.38031 2.00831 1.36266 2.04865 1.33562 2.08247C1.30858 2.11628 1.27311 2.14238 1.23278 2.15812C1.1706 2.17287 0.98885 2.15343 1.86905 2.21011C1.92518 2.20673 1.97812 2.18286 2.01781 2.14303C2.0575 2.10319 2.08118 2.05016 2.08434 1.99402L2.13315 1.65124L1.70807 1.62289L1.80419 0.947849L2.22897 0.978295C2.27329 0.667059 2.27478 0.656544 2.25552 0.565832C2.23966 0.511634 2.20419 0.46528 2.15602 0.435802C2.10765 0.413894 2.15602 0.435802 1.49448 0.30513C0.666247 0.245128 1.24423 0.269497 0.599245 0.218423C0.620275 0.221418 1.40439 0.365253 1.43503 0.376054C1.47388 0.39553 1.50677 0.4251 1.53026 0.461665C1.55374 0.49823 1.56695 0.540439 1.56851 0.583868C1.57995 0.654157 1.38979 1.94447 1.3868 1.9655Z" fill="url(#paint0_linear_82_161)"/>
<defs>
<linearGradient id="paint0_linear_82_161" x1="1.46173" y1="0.29403" x2="1.19553" y2="2.16355" gradientUnits="userSpaceOnUse">
<stop stop-color="#9E6100"/>
<stop offset="0.49" stop-color="#642701"/>
<stop offset="0.65" stop-color="#682A01"/>
<stop offset="0.81" stop-color="#753401"/>
<stop offset="0.98" stop-color="#8A4401"/>
<stop offset="1" stop-color="#8C4601"/>
</linearGradient>
</defs>
</svg>
