<svg width="3" height="4" viewBox="0 0 3 4" fill="none" xmlns="http://www.w3.org/2000/svg">
<path d="M0.868543 1.24342C0.935819 1.36997 1.03337 1.28394 1.11421 1.22965C1.94853 3.60274 1.70733 2.93476 1.75618 3.05382C1.76131 3.06707 1.7691 3.07913 1.77909 3.08924C1.78907 3.09936 1.80102 3.10731 1.8142 3.11262C1.82739 3.11792 1.84152 3.12046 1.85572 3.12008C1.86993 3.1197 1.8839 3.1164 1.89678 3.11039L2.19185 2.93795C1.38247 0.629341 1.40434 0.698256 1.39136 0.6696C1.38459 0.656911 1.37526 0.645768 1.36395 0.636878C1.35265 0.627987 1.33962 0.621543 1.32569 0.617956C1.31177 0.614369 1.29725 0.613717 1.28306 0.61604C1.26886 0.618364 1.25531 0.623612 1.24325 0.631452L0.757505 0.927846C0.873328 1.26116 0.861369 1.22533 0.868543 1.24342Z" fill="url(#paint0_linear_130_539)"/>
<defs>
<linearGradient id="paint0_linear_130_539" x1="0.642545" y1="1.7352" x2="2.34086" y2="1.97703" gradientUnits="userSpaceOnUse">
<stop stop-color="#FFE6AB"/>
<stop offset="1" stop-color="#FFD778"/>
</linearGradient>
</defs>
</svg>
