<svg width="4" height="8" viewBox="0 0 4 8" fill="none" xmlns="http://www.w3.org/2000/svg">
<path d="M3.11887 2.56943C3.07152 2.73085 3.26515 2.34656 0.6247 7.21514C0.577928 7.31498 0.502111 7.39838 0.407166 7.45444C0.312221 7.51049 0.202569 7.53658 0.0925543 7.52929C0.946309 7.62649 0.98898 7.66912 1.21343 7.51343C1.27066 7.46956 1.32022 7.4165 1.36007 7.3564C1.38939 7.30453 3.80928 2.87245 3.86347 2.73151C3.91746 2.57504 3.92286 2.40589 3.87895 2.2463C3.78635 1.97235 3.70377 1.95328 3.26482 1.61295L2.81336 1.54867L2.26689 1.12479L2.73029 1.19077C2.25822 0.826235 2.48722 0.912457 1.48638 0.769948C1.55601 0.782886 1.62126 0.813129 1.67613 0.857893C3.06092 1.93242 2.97455 1.83726 3.07359 2.0317C3.14927 2.20061 3.16524 2.39024 3.11887 2.56943Z" fill="url(#paint0_linear_130_295)"/>
<defs>
<linearGradient id="paint0_linear_130_295" x1="2.59777" y1="0.923325" x2="1.62606" y2="7.74765" gradientUnits="userSpaceOnUse">
<stop stop-color="#9E6100"/>
<stop offset="0.49" stop-color="#642701"/>
<stop offset="0.65" stop-color="#682A01"/>
<stop offset="0.81" stop-color="#753401"/>
<stop offset="0.98" stop-color="#8A4401"/>
<stop offset="1" stop-color="#8C4601"/>
</linearGradient>
</defs>
</svg>
