<svg width="3" height="4" viewBox="0 0 3 4" fill="none" xmlns="http://www.w3.org/2000/svg">
<path d="M0.398996 2.21365C1.40698 3.05905 1.30663 2.97652 1.35748 3.01301C1.59264 3.1586 1.79391 3.0459 1.95929 2.82575C1.99748 2.76295 2.25149 2.3312 2.31113 2.18616C2.35095 2.08392 2.36701 1.97397 2.35809 1.86462C2.34918 1.75527 2.31552 1.64937 2.25966 1.55494C2.18659 1.45193 2.26306 1.53105 1.24382 0.679176C1.02468 0.506623 0.826461 0.563694 0.642986 0.773964C0.534547 0.919369 0.285675 1.38353 0.27272 1.40606C0.203439 1.53618 0.178293 1.68528 0.201067 1.83093C0.22384 1.97657 0.293302 2.11088 0.398996 2.21365ZM1.96264 1.92938C1.97565 2.02628 1.94869 2.02732 1.72163 2.44097L1.26594 1.31109C2.00324 1.91811 1.95271 1.86217 1.96264 1.92938ZM0.581295 1.66933C0.589118 1.61439 0.586737 1.63111 0.818912 1.21575L1.26914 2.33267C0.818227 1.95652 0.631171 1.79829 0.616151 1.78396C0.604018 1.76792 0.595301 1.74956 0.590539 1.73002C0.585776 1.71048 0.585069 1.69018 0.588461 1.67035L0.581295 1.66933Z" fill="url(#paint0_linear_130_500)"/>
<defs>
<linearGradient id="paint0_linear_130_500" x1="0.202894" y1="1.67394" x2="2.35744" y2="1.98073" gradientUnits="userSpaceOnUse">
<stop stop-color="#FFE6AB"/>
<stop offset="1" stop-color="#FFD778"/>
</linearGradient>
</defs>
</svg>
