<svg width="6" height="4" viewBox="0 0 6 4" fill="none" xmlns="http://www.w3.org/2000/svg">
<path d="M5.16236 0.75804C5.15188 0.831643 4.99585 2.5452 4.97277 2.66207C4.94862 2.77532 4.89567 2.88042 4.81904 2.96723C4.74241 3.05403 4.64469 3.11961 4.53531 3.15763C4.39774 3.18954 4.74561 3.18758 0.153001 3.02926C0.123887 3.02847 0.094958 3.02435 0.0667791 3.01699L0.747257 3.16537C0.793522 3.17196 4.99591 3.32835 5.12267 3.31207C5.23391 3.28675 5.3363 3.23203 5.41918 3.15363C5.50205 3.07523 5.56235 2.97602 5.5938 2.86636C5.64939 2.66052 5.67956 2.44865 5.68363 2.23548L5.30118 2.14883C5.37084 1.43355 5.35679 1.57745 5.37353 1.3996L5.75568 1.48834C5.81818 0.853568 5.8179 0.915751 5.80222 0.784783C5.78104 0.638919 5.70568 0.506387 5.59117 0.413584C5.45234 0.318721 5.44995 0.335544 4.76706 0.17394C4.89028 0.210654 4.99698 0.288899 5.06905 0.395378C5.14111 0.501858 5.17408 0.630003 5.16236 0.75804Z" fill="url(#paint0_linear_82_247)"/>
<defs>
<linearGradient id="paint0_linear_82_247" x1="3.26075" y1="-0.0362523" x2="2.76458" y2="3.44833" gradientUnits="userSpaceOnUse">
<stop stop-color="#9E6100"/>
<stop offset="0.49" stop-color="#642701"/>
<stop offset="0.65" stop-color="#682A01"/>
<stop offset="0.81" stop-color="#753401"/>
<stop offset="0.98" stop-color="#8A4401"/>
<stop offset="1" stop-color="#8C4601"/>
</linearGradient>
</defs>
</svg>
