<svg width="4" height="5" viewBox="0 0 4 5" fill="none" xmlns="http://www.w3.org/2000/svg">
<path d="M0.451078 1.90433C0.34796 1.97708 0.270833 2.08092 0.23098 2.20066C0.191127 2.3204 0.190642 2.44975 0.229594 2.56979C0.722727 4.24116 0.676648 4.20535 0.849032 4.36393C0.89156 4.39958 0.941715 4.42497 0.99562 4.43814C1.04953 4.45131 1.10574 4.4519 1.15991 4.43988C1.23599 4.41903 3.49776 3.42508 3.53529 3.40118C3.64077 3.32939 3.71984 3.22502 3.76039 3.10404C3.80094 2.98307 3.80075 2.85213 3.75984 2.73127C3.26637 1.0623 3.31248 1.1834 3.26433 1.07663C3.22373 0.999628 3.15956 0.937637 3.0812 0.89973C3.00284 0.861824 2.91441 0.849988 2.82884 0.865954C2.74457 0.875888 0.500883 1.87974 0.451078 1.90433Z" fill="url(#paint0_linear_130_527)"/>
<defs>
<linearGradient id="paint0_linear_130_527" x1="0.197096" y1="2.38726" x2="3.79677" y2="2.89981" gradientUnits="userSpaceOnUse">
<stop stop-color="#FFE6AB"/>
<stop offset="1" stop-color="#FFD778"/>
</linearGradient>
</defs>
</svg>
