<svg width="4" height="8" viewBox="0 0 4 8" fill="none" xmlns="http://www.w3.org/2000/svg">
<path d="M1.93979 7.52413C1.94863 7.46203 3.44664 1.69966 3.4667 1.52461C3.48045 1.331 3.4259 1.13869 3.31256 0.981128C3.10771 0.708253 3.01423 0.7315 2.27165 0.503911C1.76836 0.495611 2.04578 0.549734 1.0534 0.245146L1.45672 0.253834C0.989875 0.109374 1.08338 0.137311 0.989535 0.111763C0.89569 0.086215 -0.0730117 0.0774447 0.24705 0.0888994C0.293791 0.0906265 0.340228 0.0972387 0.385594 0.108627C2.36797 0.717464 2.23282 0.673849 2.33691 0.713041C2.50913 0.793463 2.64749 0.932005 2.7277 1.10432C2.8079 1.27664 2.82481 1.47172 2.77546 1.65527C1.16305 7.94725 1.29624 7.47393 1.21954 7.63604C1.16667 7.73738 1.08979 7.82424 0.995596 7.889C0.901407 7.95375 0.792786 7.99445 0.679233 8.00753L1.28761 7.99667C1.43158 7.994 1.57127 7.94727 1.68788 7.86279C1.80448 7.7783 1.8924 7.66011 1.93979 7.52413Z" fill="url(#paint0_linear_130_397)"/>
<defs>
<linearGradient id="paint0_linear_130_397" x1="1.90438" y1="0.242029" x2="0.793218" y2="8.04569" gradientUnits="userSpaceOnUse">
<stop stop-color="#9E6100"/>
<stop offset="0.49" stop-color="#642701"/>
<stop offset="0.65" stop-color="#682A01"/>
<stop offset="0.81" stop-color="#753401"/>
<stop offset="0.98" stop-color="#8A4401"/>
<stop offset="1" stop-color="#8C4601"/>
</linearGradient>
</defs>
</svg>
