<svg width="3" height="5" viewBox="0 0 3 5" fill="none" xmlns="http://www.w3.org/2000/svg">
<path d="M2.15254 4.42663C2.61877 1.15235 2.63657 1.31365 2.55175 1.0956C2.53244 1.04677 2.50364 1.00226 2.46701 0.964636C2.43038 0.927012 2.38666 0.897024 2.33837 0.876405C2.27497 0.854505 1.12645 0.663073 1.08229 0.656785C0.975699 0.663744 0.875334 0.709454 0.800114 0.785297C0.724894 0.861139 0.680013 0.961877 0.673933 1.06852C0.207107 4.34702 0.228925 4.10338 0.224774 4.22294C0.227243 4.30417 0.252064 4.38314 0.296508 4.45117C0.340952 4.5192 0.403297 4.57365 0.476686 4.60854C0.541885 4.63285 1.68651 4.8366 1.73097 4.84078C1.84044 4.83742 1.94463 4.79293 2.02276 4.71617C2.1009 4.63941 2.14724 4.53603 2.15254 4.42663Z" fill="url(#paint0_linear_82_426)"/>
<defs>
<linearGradient id="paint0_linear_82_426" x1="0.448135" y1="2.60908" x2="2.38285" y2="2.88457" gradientUnits="userSpaceOnUse">
<stop stop-color="#FFE6AB"/>
<stop offset="1" stop-color="#FFD778"/>
</linearGradient>
</defs>
</svg>
