<svg width="5" height="8" viewBox="0 0 5 8" fill="none" xmlns="http://www.w3.org/2000/svg">
<path d="M3.16972 6.58469L3.57817 6.64285L4.12698 6.21165C4.27254 6.09327 4.3737 5.92907 4.41396 5.74581C4.45421 5.56256 4.43119 5.37108 4.34865 5.20259C4.31928 5.1521 1.29332 0.456376 1.18373 0.335979C1.12113 0.271394 1.04502 0.221443 0.960856 0.189701C0.696256 0.114146 0.426538 0.057822 0.153814 0.0211702C0.306079 0.0471725 0.443079 0.129285 0.537787 0.251313C0.584563 0.316463 3.62622 5.00468 3.68223 5.12476C3.757 5.30139 3.76771 5.49859 3.71251 5.68228C3.59359 6.03822 3.59833 5.97066 1.85503 7.34551C1.71913 7.45436 1.54689 7.50738 1.37331 7.49382L1.99265 7.59419C2.382 7.64963 2.54194 7.45063 2.8687 7.19253L2.46024 7.13437L3.16972 6.58469Z" fill="url(#paint0_linear_130_384)"/>
<defs>
<linearGradient id="paint0_linear_130_384" x1="2.64346" y1="0.387857" x2="1.6231" y2="7.55376" gradientUnits="userSpaceOnUse">
<stop stop-color="#9E6100"/>
<stop offset="0.49" stop-color="#642701"/>
<stop offset="0.65" stop-color="#682A01"/>
<stop offset="0.81" stop-color="#753401"/>
<stop offset="0.98" stop-color="#8A4401"/>
<stop offset="1" stop-color="#8C4601"/>
</linearGradient>
</defs>
</svg>
