<svg width="2" height="3" viewBox="0 0 2 3" fill="none" xmlns="http://www.w3.org/2000/svg">
<path d="M0.0660747 1.06708C0.0763797 1.21721 0.0613127 1.10052 0.481007 2.60303C0.577373 2.91894 0.818664 3.0386 1.17141 2.88899C1.62307 2.66085 1.94718 2.5754 1.99915 2.05639C2.00565 1.97332 1.99776 1.88975 1.97583 1.80937C1.55035 0.330411 1.59237 0.446063 1.52987 0.320185C1.27309 -0.101435 0.899926 0.174435 0.461571 0.394716C0.339446 0.458685 0.237671 0.555571 0.167773 0.674401C0.0978746 0.793232 0.0626463 0.929261 0.0660747 1.06708ZM1.55628 2.12006C1.52391 2.2105 1.51605 2.19719 1.09612 2.40791L1.28761 1.06311C1.58222 2.12619 1.57672 2.04498 1.55628 2.12006ZM0.501755 0.968273C0.518761 0.848842 0.578816 0.854956 0.95952 0.663021L0.770414 1.9911C0.476507 0.974427 0.485406 1.03175 0.494589 0.967253L0.501755 0.968273Z" fill="url(#paint0_linear_130_541)"/>
<defs>
<linearGradient id="paint0_linear_130_541" x1="0.0136727" y1="1.38375" x2="2.0464" y2="1.67319" gradientUnits="userSpaceOnUse">
<stop stop-color="#FFE6AB"/>
<stop offset="1" stop-color="#FFD778"/>
</linearGradient>
</defs>
</svg>
