<svg width="4" height="3" viewBox="0 0 4 3" fill="none" xmlns="http://www.w3.org/2000/svg">
<path d="M1.05005 1.7866C1.09365 1.8722 1.05005 1.7866 1.32875 2.30046C1.36282 2.37169 1.412 2.43465 1.47285 2.48495C1.53371 2.53526 1.60479 2.57171 1.68115 2.59177C1.75752 2.61184 1.83734 2.61503 1.91506 2.60113C1.99279 2.58723 2.06655 2.55656 2.13122 2.51128C3.40544 1.65425 3.41777 1.68819 3.5306 1.4382C3.55989 1.35785 3.5727 1.27242 3.56828 1.18701C3.56385 1.1016 3.54228 1.01795 3.50485 0.941051C3.44982 0.830228 3.22223 0.40947 3.16421 0.319677C3.0997 0.22887 3.00807 0.160845 2.90248 0.125378C2.79689 0.0899117 2.68277 0.0888278 2.57653 0.122281C2.44047 0.173712 2.54709 0.118088 1.25395 0.987441C1.13076 1.07486 1.04263 1.20321 1.00528 1.34959C0.967933 1.49596 0.983801 1.65084 1.05005 1.7866ZM2.72154 0.595647C2.81828 0.609421 2.81199 0.653583 3.03236 1.04971L1.83201 1.16201C2.71432 0.571017 2.65966 0.593272 2.72995 0.596845L2.72154 0.595647ZM2.71235 1.53411C1.81023 2.14373 1.8706 2.11156 1.81472 2.11219C1.71799 2.09841 1.72007 2.06867 1.49007 1.64972L2.71235 1.53411Z" fill="url(#paint0_linear_82_526)"/>
<defs>
<linearGradient id="paint0_linear_82_526" x1="1.02544" y1="1.1759" x2="3.53005" y2="1.53253" gradientUnits="userSpaceOnUse">
<stop stop-color="#FFE6AB"/>
<stop offset="1" stop-color="#FFD778"/>
</linearGradient>
</defs>
</svg>
