<svg width="3" height="3" viewBox="0 0 3 3" fill="none" xmlns="http://www.w3.org/2000/svg">
<path d="M2.80023 0.734356C2.81702 0.6575 2.80662 0.577199 2.77082 0.50715C2.73502 0.437102 2.67602 0.381643 2.60389 0.350232C2.57866 0.346639 0.954849 0.0424758 0.892367 0.0443068C0.835997 0.0517434 0.782973 0.0752951 0.739666 0.112138C0.696359 0.14898 0.664611 0.197544 0.648236 0.251994C0.625138 0.3238 0.654823 0.205729 0.464645 1.466C0.449023 1.54176 0.459878 1.62058 0.495395 1.68929C0.530913 1.75801 0.58894 1.81245 0.659778 1.84352C0.687116 1.84741 2.30822 2.15548 2.37041 2.15575C2.40678 2.15232 2.44206 2.14149 2.47408 2.1239C2.50611 2.10632 2.53419 2.08237 2.55661 2.05353C2.64578 1.93964 2.61996 1.98531 2.80023 0.734356Z" fill="url(#paint0_linear_82_415)"/>
<defs>
<linearGradient id="paint0_linear_82_415" x1="0.538606" y1="0.946574" x2="2.72567" y2="1.25799" gradientUnits="userSpaceOnUse">
<stop stop-color="#FFE6AB"/>
<stop offset="1" stop-color="#FFD778"/>
</linearGradient>
</defs>
</svg>
