<svg width="7" height="4" viewBox="0 0 7 4" fill="none" xmlns="http://www.w3.org/2000/svg">
<path d="M1.39074 0.0485802C1.2435 0.0736635 1.1091 0.147904 1.00948 0.25919C0.909855 0.370477 0.850886 0.512239 0.84219 0.66135C0.656812 2.56598 0.62765 2.51462 0.756938 2.7669C0.788597 2.82818 0.833089 2.88191 0.887383 2.92445C0.941677 2.96698 1.0045 2.99732 1.07157 3.01339C1.162 3.02626 5.36979 3.17484 5.43437 3.17331C5.50636 3.16668 5.57636 3.14603 5.64042 3.11253C5.74152 3.0566 5.82727 2.97662 5.8901 2.87966C5.95293 2.7827 5.9909 2.67175 6.00065 2.55663C6.18603 0.651995 6.18158 0.78868 6.16289 0.648702C6.15118 0.54102 6.10707 0.439427 6.03639 0.357344C5.96572 0.275261 5.8718 0.21655 5.76705 0.188968C5.66611 0.159575 1.45653 0.0386369 1.39074 0.0485802Z" fill="url(#paint0_linear_82_474)"/>
<defs>
<linearGradient id="paint0_linear_82_474" x1="0.762838" y1="1.21863" x2="6.07278" y2="1.97471" gradientUnits="userSpaceOnUse">
<stop stop-color="#FFE6AB"/>
<stop offset="1" stop-color="#FFD778"/>
</linearGradient>
</defs>
</svg>
