<svg width="4" height="3" viewBox="0 0 4 3" fill="none" xmlns="http://www.w3.org/2000/svg">
<path d="M0.560107 1.09122C0.564235 1.16491 0.540665 1.10794 1.09345 1.89828L1.48314 1.96839L1.51154 2.14546L2.00361 2.23259C1.68269 2.56951 1.54799 2.76236 1.27331 2.7403C2.13186 2.88936 2.03188 2.87269 2.07761 2.87676C2.2057 2.87323 2.3281 2.82307 2.42182 2.73568C2.49549 2.66331 2.42182 2.73568 2.82222 2.3199C2.95454 2.17835 3.03034 1.99317 3.03523 1.79946C3.02793 1.49135 2.99689 1.52105 2.20476 0.374943C2.17434 0.325079 2.13418 0.281863 2.08668 0.24788C2.03917 0.213898 1.9853 0.189847 1.92829 0.177166C0.887846 -0.012412 1.16288 0.0243129 1.26663 0.0829537C1.37039 0.141595 1.37756 0.159676 1.95084 0.994358L1.54954 0.920155L1.67266 0.791463L0.900774 0.649873C0.601679 0.970407 0.56074 0.984075 0.560107 1.09122ZM2.22081 1.90527L2.12224 1.24541C2.19231 1.33849 2.23803 1.4476 2.25524 1.56283C2.27245 1.67806 2.26062 1.79577 2.22081 1.90527ZM1.34767 1.19117C1.34597 1.17331 1.34853 1.1553 1.35515 1.13862L1.38562 1.35255C1.36471 1.33144 1.34925 1.30557 1.34056 1.27716C1.33187 1.24875 1.33021 1.21866 1.33572 1.18947L1.34767 1.19117Z" fill="url(#paint0_linear_130_293)"/>
<defs>
<linearGradient id="paint0_linear_130_293" x1="1.98151" y1="0.162811" x2="1.60262" y2="2.82375" gradientUnits="userSpaceOnUse">
<stop stop-color="#9E6100"/>
<stop offset="0.49" stop-color="#642701"/>
<stop offset="0.65" stop-color="#682A01"/>
<stop offset="0.81" stop-color="#753401"/>
<stop offset="0.98" stop-color="#8A4401"/>
<stop offset="1" stop-color="#8C4601"/>
</linearGradient>
</defs>
</svg>
