<svg width="49" height="23" viewBox="0 0 49 23" fill="none" xmlns="http://www.w3.org/2000/svg">
<path d="M4.64194 11.29C2.95527 8.88495 1.62251 6.25025 0.684405 3.46651C0.403644 3.58982 0.546243 3.5297 0.0526088 3.74455C2.09784 9.74825 5.40659 14.2722 9.71733 17.7325C11.4569 19.0932 13.3738 20.2107 15.415 21.054C17.468 21.8962 19.6309 22.4405 21.838 22.6704C24.0282 22.8999 26.2403 22.8043 28.4025 22.3866C30.6257 21.9495 32.774 21.1932 34.7807 20.1412C41.4954 16.4913 45.8911 10.9685 48.5755 3.58381C48.4433 3.36516 48.6567 3.7148 46.8207 0.726292L45.7679 0.520339C45.6373 1.43757 45.6605 1.27515 45.6438 1.39219L46.355 1.53245L47.6689 3.66919C46.2895 7.49337 44.1565 11.0018 41.3964 13.9865C38.3781 17.1271 35.5309 19.032 31.8284 20.491C30.0816 21.1524 28.2587 21.5921 26.4024 21.7996C24.5382 22.0067 22.6551 21.9704 20.8003 21.6916C18.8649 21.4002 16.9759 20.8567 15.1815 20.0751C11.0629 18.1922 7.78101 15.6193 4.64194 11.29Z" fill="#FFE082"/>
</svg>
