<svg width="3" height="4" viewBox="0 0 3 4" fill="none" xmlns="http://www.w3.org/2000/svg">
<path d="M2.79293 2.02405C2.73251 1.96914 1.52414 0.922178 1.42892 0.855003C1.18932 0.723405 1.13168 0.768812 0.408681 0.831584C0.730094 0.816424 0.751289 0.907176 2.06172 2.04179C2.18333 2.14562 2.26897 2.28528 2.30636 2.44076C2.34376 2.59624 2.331 2.75956 2.26991 2.90734C2.21265 3.03566 2.24811 2.97491 1.84199 3.55072C1.74714 3.69636 1.60307 3.803 1.43609 3.85117C1.38116 3.86041 1.21806 3.87618 2.06627 3.7898C2.16922 3.77652 2.26637 3.73462 2.3467 3.66889C2.46914 3.56203 2.43674 3.60129 2.85719 3.01046C2.96446 2.86484 3.01684 2.68601 3.00508 2.50553C2.99332 2.32504 2.91819 2.15452 2.79293 2.02405Z" fill="url(#paint0_linear_130_399)"/>
<defs>
<linearGradient id="paint0_linear_130_399" x1="1.82677" y1="0.867786" x2="1.40094" y2="3.85835" gradientUnits="userSpaceOnUse">
<stop stop-color="#9E6100"/>
<stop offset="0.49" stop-color="#642701"/>
<stop offset="0.65" stop-color="#682A01"/>
<stop offset="0.81" stop-color="#753401"/>
<stop offset="0.98" stop-color="#8A4401"/>
<stop offset="1" stop-color="#8C4601"/>
</linearGradient>
</defs>
</svg>
