<svg width="4" height="3" viewBox="0 0 4 3" fill="none" xmlns="http://www.w3.org/2000/svg">
<path d="M2.82221 1.07307L3.30333 1.11721L3.34279 0.84013C3.36162 0.752786 3.34938 0.661604 3.30817 0.582324C3.26695 0.503044 3.19936 0.440636 3.11705 0.40587L1.21533 0.0863433L0.397756 0.00892213C0.435974 0.014364 2.28514 0.326408 2.3336 0.345494C2.39217 0.37468 2.44167 0.419297 2.47675 0.47454C2.51183 0.529782 2.53116 0.593553 2.53267 0.658976C2.53885 0.752465 2.54938 0.644296 2.33336 2.05871C2.32845 2.14242 2.29443 2.22177 2.2372 2.28305C2.17997 2.34432 2.10312 2.38367 2.01994 2.39427C2.87949 2.46792 2.81602 2.46863 2.89415 2.45051C3.1333 2.36271 3.13831 2.13921 3.17369 1.89079L2.69222 1.84905L2.82221 1.07307Z" fill="url(#paint0_linear_130_276)"/>
<defs>
<linearGradient id="paint0_linear_130_276" x1="1.89711" y1="0.176111" x2="1.58999" y2="2.33305" gradientUnits="userSpaceOnUse">
<stop stop-color="#9E6100"/>
<stop offset="0.49" stop-color="#642701"/>
<stop offset="0.65" stop-color="#682A01"/>
<stop offset="0.81" stop-color="#753401"/>
<stop offset="0.98" stop-color="#8A4401"/>
<stop offset="1" stop-color="#8C4601"/>
</linearGradient>
</defs>
</svg>
