<svg width="2" height="4" viewBox="0 0 2 4" fill="none" xmlns="http://www.w3.org/2000/svg">
<path d="M1.9102 1.64256C1.91984 1.4746 1.8646 1.30935 1.7559 1.18094C1.64719 1.05253 1.49333 0.970776 1.32607 0.95256C1.14113 0.925469 0.954918 0.907899 0.768172 0.899924C0.692734 0.903977 0.618855 0.923004 0.550842 0.955891C0.482829 0.988779 0.422042 1.03487 0.372019 1.09148C0.321996 1.1481 0.283737 1.2141 0.259475 1.28564C0.235213 1.35719 0.225433 1.43284 0.2307 1.50821C0.205205 3.21052 0.177553 3.18222 0.291969 3.42272C0.356107 3.55183 0.464373 3.6537 0.597146 3.70988C0.820238 3.77305 1.05082 3.80589 1.28268 3.80749C1.39109 3.82028 1.50076 3.79838 1.59594 3.74494C1.69113 3.6915 1.76692 3.60927 1.81245 3.51005C1.90891 3.29471 1.88404 3.36671 1.9102 1.64256ZM0.718267 1.45578C0.728978 1.44326 0.742191 1.43311 0.757054 1.426C0.771917 1.41888 0.788103 1.41495 0.804575 1.41445L1.24885 1.46066L0.667293 2.65243C0.687224 1.46842 0.674961 1.52029 0.720654 1.45612L0.718267 1.45578ZM1.38547 3.25673C1.32408 3.31135 1.31247 3.2902 0.870582 3.24434L1.45044 2.06451C1.42914 3.24101 1.44891 3.18778 1.3882 3.25468L1.38547 3.25673Z" fill="url(#paint0_linear_130_569)"/>
<defs>
<linearGradient id="paint0_linear_130_569" x1="0.124906" y1="2.21695" x2="1.99282" y2="2.48293" gradientUnits="userSpaceOnUse">
<stop stop-color="#FFE6AB"/>
<stop offset="1" stop-color="#FFD778"/>
</linearGradient>
</defs>
</svg>
