<svg width="41" height="33" viewBox="0 0 41 33" fill="none" xmlns="http://www.w3.org/2000/svg">
<path d="M3.90957 2.21607L6.07057 2.66538L5.6542 2.65115L9.497 3.44936L10.4187 4.90228C11.0324 10.7184 12.7408 15.3558 15.3175 19.6512C16.6252 21.7946 18.1972 23.7651 19.9965 25.5162L20.4035 25.4905C20.8345 25.9145 21.6727 26.6582 22.0246 26.9443L21.6193 26.9724C23.1854 28.2746 24.8992 29.3879 26.7256 30.2892C28.4592 31.1442 30.2878 31.7914 32.1733 32.2171C35.2044 32.8397 37.1552 32.9415 40.5265 32.5912C39.482 32.6935 39.8728 32.6612 38.7902 32.7302C36.4212 32.8269 34.0512 32.5661 31.7599 31.9566C29.9624 31.4804 28.225 30.8011 26.5812 29.9318C21.5149 27.1786 17.9709 23.4534 15.0991 18.4272C12.7917 14.2563 11.3647 9.65624 10.9066 4.91167L9.98666 3.46115L0.921191 1.58028C0.925053 0.829874 0.920679 1.11676 0.934137 0.329102L0.43486 0.309505C0.419585 1.06472 0.42426 0.775731 0.419513 1.56248C3.95587 2.29775 3.33309 2.1962 3.90957 2.21607Z" fill="url(#paint0_linear_82_119)"/>
<defs>
<linearGradient id="paint0_linear_82_119" x1="22.3394" y1="3.3813" x2="18.5006" y2="30.3411" gradientUnits="userSpaceOnUse">
<stop stop-color="#9E6100"/>
<stop offset="0.49" stop-color="#642701"/>
<stop offset="0.65" stop-color="#682A01"/>
<stop offset="0.81" stop-color="#753401"/>
<stop offset="0.98" stop-color="#8A4401"/>
<stop offset="1" stop-color="#8C4601"/>
</linearGradient>
</defs>
</svg>
