<svg width="4" height="4" viewBox="0 0 4 4" fill="none" xmlns="http://www.w3.org/2000/svg">
<path d="M0.722195 0.953457C2.96999 1.3808 2.85281 1.32979 2.97393 1.4586C3.03604 1.5314 3.07073 1.62362 3.07198 1.71931C3.06962 1.81123 2.87825 3.07991 2.87465 3.10515C2.85913 3.18232 2.81853 3.25219 2.75917 3.30389C2.69981 3.35559 2.62502 3.3862 2.54645 3.39098C3.2569 3.40417 3.15416 3.40242 3.19952 3.40029C3.49719 3.34398 3.50368 3.07242 3.53573 2.86242L3.16352 2.85448C3.19137 2.65891 3.16951 2.81242 3.27282 2.08691L3.64262 2.09665C3.68873 1.7728 3.72295 1.69828 3.63275 1.5331C3.58982 1.45866 3.52188 1.40185 3.44102 1.37277L1.35215 0.974496C1.13435 0.95466 0.915639 0.946439 0.696961 0.949864L0.722195 0.953457Z" fill="url(#paint0_linear_82_272)"/>
<defs>
<linearGradient id="paint0_linear_82_272" x1="2.22727" y1="1.09696" x2="1.91346" y2="3.30085" gradientUnits="userSpaceOnUse">
<stop stop-color="#9E6100"/>
<stop offset="0.49" stop-color="#642701"/>
<stop offset="0.65" stop-color="#682A01"/>
<stop offset="0.81" stop-color="#753401"/>
<stop offset="0.98" stop-color="#8A4401"/>
<stop offset="1" stop-color="#8C4601"/>
</linearGradient>
</defs>
</svg>
