<svg width="3" height="3" viewBox="0 0 3 3" fill="none" xmlns="http://www.w3.org/2000/svg">
<path d="M2.69015 1.45523C2.70695 1.37762 2.69673 1.2966 2.66119 1.22559C2.62565 1.15459 2.56691 1.09786 2.49471 1.0648C2.47158 1.0615 0.849863 0.727596 0.789783 0.727624C0.733851 0.734331 0.681067 0.757128 0.637838 0.793248C0.594609 0.829368 0.562793 0.877258 0.546251 0.931107C0.522853 1.00502 0.554036 0.876429 0.363259 2.14091C0.346523 2.21797 0.356592 2.29843 0.391803 2.36899C0.427014 2.43955 0.485256 2.49598 0.556895 2.52894C0.584233 2.53283 2.20055 2.87455 2.26063 2.87452C2.29672 2.87216 2.33191 2.86221 2.36389 2.84532C2.39588 2.82843 2.42393 2.80498 2.44623 2.7765C2.5363 2.6563 2.51228 2.68936 2.69015 1.45523Z" fill="url(#paint0_linear_82_410)"/>
<defs>
<linearGradient id="paint0_linear_82_410" x1="0.433927" y1="1.64461" x2="2.62099" y2="1.95603" gradientUnits="userSpaceOnUse">
<stop stop-color="#FFE6AB"/>
<stop offset="1" stop-color="#FFD778"/>
</linearGradient>
</defs>
</svg>
