<svg width="4" height="4" viewBox="0 0 4 4" fill="none" xmlns="http://www.w3.org/2000/svg">
<path d="M3.23819 1.86767C3.23427 1.75324 3.19959 1.64199 3.13781 1.5456C3.07602 1.44921 2.9894 1.37124 2.88707 1.3199C2.82637 1.29409 1.53533 0.807732 1.43349 0.784648C1.36405 0.770266 1.29228 0.771586 1.22342 0.78851C1.15456 0.805433 1.09036 0.837532 1.0355 0.88246C0.926442 0.975243 0.847617 1.09852 0.809155 1.23644C0.626786 1.83913 0.65708 1.73187 0.63309 1.825C0.607505 1.93891 0.611314 2.05744 0.644157 2.16947C0.677 2.28149 0.737795 2.38332 0.820831 2.46538C0.877188 2.51998 0.944187 2.56238 1.01765 2.58995C2.47365 3.13842 2.33604 3.09523 2.46613 3.1159C2.97893 3.146 3.05138 2.62207 3.20046 2.13264C3.22873 2.04728 3.24151 1.95754 3.23819 1.86767ZM1.0955 2.04319C1.05251 1.95339 1.08224 1.92544 1.22232 1.46906L2.09303 2.45128C1.09042 2.07894 1.13729 2.11136 1.0955 2.04319ZM2.77981 1.93757C2.77591 1.96491 2.7837 1.91023 2.63733 2.41077L1.77714 1.43005C2.78155 1.80479 2.69983 1.776 2.73499 1.80032C2.75334 1.81762 2.76706 1.83925 2.77489 1.86323C2.78272 1.88721 2.78441 1.91277 2.77981 1.93757Z" fill="url(#paint0_linear_82_544)"/>
<defs>
<linearGradient id="paint0_linear_82_544" x1="0.64598" y1="1.76462" x2="3.21578" y2="2.13053" gradientUnits="userSpaceOnUse">
<stop stop-color="#FFE6AB"/>
<stop offset="1" stop-color="#FFD778"/>
</linearGradient>
</defs>
</svg>
