<svg width="3" height="4" viewBox="0 0 3 4" fill="none" xmlns="http://www.w3.org/2000/svg">
<path d="M0.524975 2.53162C0.842094 2.70198 1.18568 2.81764 1.54126 2.87374C1.5102 2.93867 1.46963 2.9986 1.42089 3.05156C1.34512 3.13785 1.24619 3.20061 1.13584 3.23241C1.02549 3.26421 0.90834 3.26371 0.798263 3.23098C1.63603 3.44044 1.55482 3.42888 1.67595 3.43394C1.79555 3.43192 1.91224 3.39676 2.01305 3.33238C2.11386 3.268 2.19484 3.17692 2.24697 3.06927C2.28856 2.98258 2.89118 1.57447 2.92934 1.46049C2.97982 1.31319 2.97588 1.15268 2.91822 1.00805C2.85067 0.864937 2.73191 0.752367 2.58539 0.692578C1.94173 0.403525 2.24375 0.507456 1.34626 0.272431C1.45035 0.311623 1.84896 0.490235 1.95579 0.544439C2.4681 0.883027 2.2216 1.31341 2.04981 1.71543L1.57957 1.59486L1.42882 1.72936C1.73319 1.01234 1.71374 1.01201 1.79527 0.970003C1.82067 0.957238 1.84944 0.952807 1.8775 0.95734C1.11617 0.758762 1.15984 0.760108 1.10082 0.780949C1.0418 0.80179 1.02476 0.835918 0.576551 1.89558L1.09593 2.03047L0.524975 2.53162ZM1.85143 2.15023C1.54638 2.87203 1.56853 2.81913 1.55115 2.85565L1.23068 2.7101L1.85143 2.15023Z" fill="url(#paint0_linear_130_356)"/>
<defs>
<linearGradient id="paint0_linear_130_356" x1="1.93421" y1="0.353712" x2="1.49851" y2="3.41355" gradientUnits="userSpaceOnUse">
<stop stop-color="#9E6100"/>
<stop offset="0.49" stop-color="#642701"/>
<stop offset="0.65" stop-color="#682A01"/>
<stop offset="0.81" stop-color="#753401"/>
<stop offset="0.98" stop-color="#8A4401"/>
<stop offset="1" stop-color="#8C4601"/>
</linearGradient>
</defs>
</svg>
