<svg width="25" height="36" viewBox="0 0 25 36" fill="none" xmlns="http://www.w3.org/2000/svg">
<path d="M24.179 32.0322C24.1845 24.7705 22.3013 18.6047 18.875 12.9721C17.507 10.7691 15.8676 8.74665 13.9953 6.95235C12.1879 5.2242 10.1487 3.75601 7.93648 2.59001C5.79882 1.46862 3.51012 0.662529 1.14153 0.19679C0.460078 0.0705122 0.347124 0.042243 1.51316 0.291135C4.47538 0.986721 7.28723 2.21277 9.81272 3.90998C11.9372 5.33815 13.8581 7.04802 15.5228 8.99277C17.1054 10.8384 18.4759 12.8557 19.6089 15.0068C19.7328 15.2487 20.101 15.9493 20.3571 16.5122L20.7728 16.5714C21.2 17.5071 21.4528 18.0769 21.8757 19.2143L21.4625 19.1554C22.9662 23.2697 23.7226 27.6196 23.6961 32L19.5857 35.3481L20.0706 35.366L24.179 32.0322Z" fill="url(#paint0_linear_130_250)"/>
<defs>
<linearGradient id="paint0_linear_130_250" x1="14.3943" y1="2.06193" x2="9.85139" y2="33.9669" gradientUnits="userSpaceOnUse">
<stop stop-color="#9E6100"/>
<stop offset="0.49" stop-color="#642701"/>
<stop offset="0.65" stop-color="#682A01"/>
<stop offset="0.81" stop-color="#753401"/>
<stop offset="0.98" stop-color="#8A4401"/>
<stop offset="1" stop-color="#8C4601"/>
</linearGradient>
</defs>
</svg>
