<svg width="4" height="4" viewBox="0 0 4 4" fill="none" xmlns="http://www.w3.org/2000/svg">
<path d="M2.65554 1.31539C2.7594 1.44106 2.82244 1.59542 2.83624 1.75786C2.84001 1.86453 2.81915 1.97062 2.77529 2.06792C2.73142 2.16522 2.66574 2.25111 2.58332 2.31893C2.56081 2.3401 2.64032 2.34654 1.92848 2.194L0.578125 2.53788L0.876866 2.93867C0.924662 2.99665 0.89804 2.97824 1.6341 3.13179C1.56244 3.12158 1.58633 3.12498 1.25482 2.68054L2.54683 2.35273L1.39502 3.37313C1.32372 3.44335 1.23637 3.49511 1.14053 3.52394C1.0447 3.55276 0.943275 3.55777 0.845067 3.53853L1.57942 3.68696C1.7348 3.70223 1.89031 3.65923 2.01578 3.56631C2.08195 3.51237 3.24364 2.47388 3.33026 2.37898C3.44086 2.25213 3.50147 2.08933 3.50076 1.92104C3.50006 1.75274 3.43808 1.59046 3.32643 1.46454C2.75284 0.700487 2.94808 0.835517 1.97007 0.618272C2.23318 0.704478 2.26666 0.794543 2.65554 1.31539Z" fill="url(#paint0_linear_130_387)"/>
<defs>
<linearGradient id="paint0_linear_130_387" x1="2.26421" y1="0.657718" x2="1.82818" y2="3.71995" gradientUnits="userSpaceOnUse">
<stop stop-color="#9E6100"/>
<stop offset="0.49" stop-color="#642701"/>
<stop offset="0.65" stop-color="#682A01"/>
<stop offset="0.81" stop-color="#753401"/>
<stop offset="0.98" stop-color="#8A4401"/>
<stop offset="1" stop-color="#8C4601"/>
</linearGradient>
</defs>
</svg>
