<svg width="3" height="3" viewBox="0 0 3 3" fill="none" xmlns="http://www.w3.org/2000/svg">
<path d="M2.22537 1.76971C2.21737 1.75564 2.20658 1.74336 2.19366 1.73361C2.18074 1.72385 2.16597 1.71684 2.15025 1.71299C2.13453 1.70915 2.11819 1.70855 2.10223 1.71124C2.08627 1.71393 2.07102 1.71985 2.05743 1.72863L1.95773 1.79597L0.965013 0.0733154C0.950476 0.0439277 0.925003 0.0214113 0.894055 0.010587C0.863107 -0.00023733 0.82915 0.00149178 0.799466 0.015413L0.526186 0.201791L1.7525 2.33318L1.92766 2.38386L2.40185 2.06732C2.21365 1.74658 2.238 1.78652 2.22537 1.76971Z" fill="url(#paint0_linear_82_516)"/>
<defs>
<linearGradient id="paint0_linear_82_516" x1="0.404914" y1="1.05348" x2="2.49945" y2="1.35173" gradientUnits="userSpaceOnUse">
<stop stop-color="#FFE6AB"/>
<stop offset="1" stop-color="#FFD778"/>
</linearGradient>
</defs>
</svg>
