<svg width="3" height="4" viewBox="0 0 3 4" fill="none" xmlns="http://www.w3.org/2000/svg">
<path d="M2.50876 2.43732C2.5005 2.40341 2.48027 2.37363 2.4518 2.35346C2.42333 2.33328 2.38853 2.32407 2.3538 2.32752L2.21903 2.34976C1.68227 0.0434169 1.72463 0.156683 1.65534 0.0956383C1.62874 0.0750022 1.5954 0.0650404 1.56184 0.0677026C0.744354 0.195007 0.815657 0.173477 0.868207 0.18096C1.00675 0.200687 0.96615 0.211965 1.49606 2.46372L1.67074 2.43497C1.78779 2.45164 1.79331 2.58403 1.87194 2.92179L1.27283 3.05582C1.71886 2.99441 2.16132 2.90936 2.59832 2.80101C2.50432 2.41719 2.51491 2.46256 2.50876 2.43732Z" fill="url(#paint0_linear_130_355)"/>
<defs>
<linearGradient id="paint0_linear_130_355" x1="1.9157" y1="0.115651" x2="1.49089" y2="3.09905" gradientUnits="userSpaceOnUse">
<stop stop-color="#9E6100"/>
<stop offset="0.49" stop-color="#642701"/>
<stop offset="0.65" stop-color="#682A01"/>
<stop offset="0.81" stop-color="#753401"/>
<stop offset="0.98" stop-color="#8A4401"/>
<stop offset="1" stop-color="#8C4601"/>
</linearGradient>
</defs>
</svg>
