<svg width="4" height="4" viewBox="0 0 4 4" fill="none" xmlns="http://www.w3.org/2000/svg">
<path d="M3.2459 1.59683C3.26234 1.51944 3.25161 1.43876 3.21552 1.36836C3.17943 1.29796 3.12019 1.24214 3.04776 1.21031C3.02463 1.20701 1.40292 0.888127 1.34073 0.887855C1.28427 0.895035 1.23112 0.918496 1.18777 0.955377C1.14442 0.992257 1.11274 1.04096 1.0966 1.09554C1.07351 1.16735 1.10169 1.05979 0.913612 2.30534C0.897019 2.38215 0.90721 2.46232 0.942491 2.53252C0.977772 2.60273 1.03602 2.65875 1.10755 2.69127C1.13489 2.69516 2.7536 3.02006 2.81548 3.02243C2.85154 3.01881 2.88648 3.00785 2.91814 2.99022C2.9498 2.97259 2.97751 2.94866 2.99958 2.91991C3.09175 2.80001 3.06803 2.83096 3.2459 1.59683Z" fill="url(#paint0_linear_82_412)"/>
<defs>
<linearGradient id="paint0_linear_82_412" x1="0.985776" y1="1.79853" x2="3.17284" y2="2.10995" gradientUnits="userSpaceOnUse">
<stop stop-color="#FFE6AB"/>
<stop offset="1" stop-color="#FFD778"/>
</linearGradient>
</defs>
</svg>
