<svg width="4" height="3" viewBox="0 0 4 3" fill="none" xmlns="http://www.w3.org/2000/svg">
<path d="M3.59399 1.35408C3.61369 1.26647 3.60223 1.17474 3.56159 1.09466C3.52094 1.01459 3.45366 0.951195 3.37132 0.915382C3.34504 0.911641 1.49688 0.558313 1.42864 0.558344C1.36461 0.566791 1.30438 0.593542 1.25519 0.63539C1.206 0.677237 1.16994 0.732399 1.15134 0.794245C1.12443 0.880584 1.15644 0.758417 0.94315 2.17079C0.923368 2.25806 0.934522 2.3495 0.974703 2.42946C1.01488 2.50942 1.0816 2.57293 1.16343 2.60914C1.1921 2.61322 3.03207 2.9727 3.10509 2.97335C3.14651 2.96989 3.18674 2.95776 3.22317 2.93776C3.2596 2.91776 3.29143 2.89032 3.31659 2.85724C3.42469 2.71422 3.39705 2.72004 3.59399 1.35408Z" fill="url(#paint0_linear_130_506)"/>
<defs>
<linearGradient id="paint0_linear_130_506" x1="1.0258" y1="1.59035" x2="3.51237" y2="1.94441" gradientUnits="userSpaceOnUse">
<stop stop-color="#FFE6AB"/>
<stop offset="1" stop-color="#FFD778"/>
</linearGradient>
</defs>
</svg>
