<svg width="23" height="26" viewBox="0 0 23 26" fill="none" xmlns="http://www.w3.org/2000/svg">
<path d="M8.80551 23.4756C10.736 22.5556 12.5391 21.3894 14.17 20.0062C17.0899 17.4761 19.103 14.9263 21.0013 11.3131C21.7854 9.76826 22.4412 8.16161 22.962 6.50936L20.4373 2.43587C11.6501 0.755539 12.9224 0.966742 12.3072 0.947797C16.0163 1.66045 15.3866 1.56221 15.9036 1.57789C19.2302 2.21893 18.8213 2.10707 18.2719 2.0932L20.0075 2.42615L22.5342 6.51496C21.5918 9.52908 20.1886 12.3792 18.3745 14.9642C17.3116 16.4704 16.0994 17.8656 14.7563 19.1285C13.1938 20.5993 11.4505 21.8651 9.56826 22.8955L9.94796 22.8659C8.99592 23.374 8.65983 23.5192 8.00629 23.8145C7.89697 23.859 7.98738 23.8419 7.5401 23.879C5.61555 24.7066 3.58023 25.2481 1.49886 25.4862C0.687515 25.5638 0.400646 25.5895 1.17865 25.52C4.27626 25.223 6.26524 24.6201 8.80551 23.4756Z" fill="url(#paint0_linear_82_146)"/>
<defs>
<linearGradient id="paint0_linear_82_146" x1="13.9625" y1="1.13629" x2="10.2911" y2="26.9205" gradientUnits="userSpaceOnUse">
<stop stop-color="#9E6100"/>
<stop offset="0.49" stop-color="#642701"/>
<stop offset="0.65" stop-color="#682A01"/>
<stop offset="0.81" stop-color="#753401"/>
<stop offset="0.98" stop-color="#8A4401"/>
<stop offset="1" stop-color="#8C4601"/>
</linearGradient>
</defs>
</svg>
