<svg width="4" height="3" viewBox="0 0 4 3" fill="none" xmlns="http://www.w3.org/2000/svg">
<path d="M0.572037 0.571591C0.41871 0.626643 0.289697 0.733989 0.207696 0.874756C0.125694 1.01552 0.0959507 1.1807 0.123693 1.34123C0.140468 1.46303 0.240011 2.01336 0.281361 2.15085C0.317765 2.28218 0.394015 2.39899 0.499595 2.48517C0.605176 2.57136 0.734889 2.62266 0.870855 2.63203C1.01451 2.63299 0.882124 2.65557 2.56002 2.25354C2.68629 2.22945 2.80222 2.16743 2.89234 2.07576C2.98246 1.9841 3.04249 1.86713 3.06443 1.74046C3.08554 1.61586 3.08386 1.48846 3.05948 1.36445C2.91721 0.652068 2.93838 0.691639 2.87007 0.538125C2.80858 0.404747 2.7024 0.297056 2.56991 0.233687C2.43741 0.170318 2.28693 0.155256 2.1445 0.191104C0.529037 0.565469 0.649478 0.541188 0.572037 0.571591ZM2.35768 0.764923C2.39288 0.78543 2.41871 0.818823 2.42972 0.858039C2.42631 0.881926 2.42048 0.803109 2.53369 1.39438L1.18266 1.00704C2.3307 0.714775 2.2802 0.710023 2.35938 0.75298L2.35768 0.764923ZM2.02376 1.79212C0.847737 2.07552 0.916318 2.0731 0.844992 2.04345C0.773665 2.0138 0.759984 1.93874 0.656691 1.39762L2.02376 1.79212Z" fill="url(#paint0_linear_130_630)"/>
<defs>
<linearGradient id="paint0_linear_130_630" x1="0.124982" y1="1.17813" x2="3.0845" y2="1.59953" gradientUnits="userSpaceOnUse">
<stop stop-color="#FFE6AB"/>
<stop offset="1" stop-color="#FFD778"/>
</linearGradient>
</defs>
</svg>
