<svg width="4" height="3" viewBox="0 0 4 3" fill="none" xmlns="http://www.w3.org/2000/svg">
<path d="M2.98942 1.21844C2.95935 1.20605 2.92567 1.20563 2.89529 1.21726C2.86492 1.22889 2.84014 1.2517 2.82603 1.281C2.82423 1.29362 2.82603 1.281 2.76901 1.4102C0.529569 0.200907 1.16387 0.537967 1.04759 0.480644C1.01751 0.468252 0.983842 0.46783 0.953466 0.47946C0.923089 0.491091 0.898304 0.513893 0.884196 0.543201C0.882399 0.555818 0.887791 0.517969 0.738354 0.874313C3.51505 2.37895 2.71519 1.95395 2.86242 2.03499C2.89081 2.04763 2.92287 2.04927 2.9524 2.03959C2.98192 2.02992 3.0068 2.00963 3.02221 1.98265C3.02461 1.96583 3.08463 1.84564 3.28509 1.38714L2.98942 1.21844Z" fill="url(#paint0_linear_82_540)"/>
<defs>
<linearGradient id="paint0_linear_82_540" x1="0.709608" y1="1.07619" x2="3.2773" y2="1.44181" gradientUnits="userSpaceOnUse">
<stop stop-color="#FFE6AB"/>
<stop offset="1" stop-color="#FFD778"/>
</linearGradient>
</defs>
</svg>
