<svg width="5" height="7" viewBox="0 0 5 7" fill="none" xmlns="http://www.w3.org/2000/svg">
<path d="M3.12918 6.35422C3.50661 5.97885 3.40632 6.08043 3.58618 5.90221L3.99772 5.87498C4.32951 5.54889 4.4109 5.5047 4.48259 5.27245C4.51688 5.12899 4.50845 4.97863 4.45836 4.83989C4.40543 4.71434 4.61737 5.0492 1.96058 1.02984C1.92249 0.971424 1.87363 0.920778 1.81662 0.880608C1.64504 0.774645 1.63724 0.79928 0.864627 0.830876C0.975542 0.825804 1.08404 0.864355 1.16688 0.938279C1.26335 1.02926 1.05113 0.726548 3.70371 4.74531C3.78384 4.86751 3.82415 5.01153 3.81911 5.15758C3.81407 5.30362 3.76391 5.44452 3.67554 5.56091C3.63171 5.6126 2.61501 6.62001 2.54324 6.67201C2.4917 6.70825 2.4325 6.73213 2.37024 6.74178L3.01969 6.70123C3.23717 6.68071 3.2915 6.58546 3.54583 6.33631L3.12918 6.35422Z" fill="url(#paint0_linear_82_212)"/>
<defs>
<linearGradient id="paint0_linear_82_212" x1="2.96841" y1="0.988826" x2="2.15334" y2="6.71304" gradientUnits="userSpaceOnUse">
<stop stop-color="#9E6100"/>
<stop offset="0.49" stop-color="#642701"/>
<stop offset="0.65" stop-color="#682A01"/>
<stop offset="0.81" stop-color="#753401"/>
<stop offset="0.98" stop-color="#8A4401"/>
<stop offset="1" stop-color="#8C4601"/>
</linearGradient>
</defs>
</svg>
