<svg width="3" height="3" viewBox="0 0 3 3" fill="none" xmlns="http://www.w3.org/2000/svg">
<path d="M1.37497 2.87605C1.53457 2.86156 1.68414 2.79197 1.79802 2.67923C1.91191 2.56648 1.983 2.41762 1.9991 2.25818C2.01101 2.17457 2.08301 0.693343 2.07954 0.563685C2.07852 0.449792 2.03724 0.33993 1.96302 0.253539C1.88879 0.167148 1.7864 0.109797 1.67396 0.091634C1.61958 0.083126 1.56447 0.0801788 1.50949 0.0828379C0.947532 0.110051 1.04341 0.104206 0.961864 0.112092C0.804507 0.143204 0.662687 0.227618 0.560312 0.351104C0.457938 0.47459 0.401269 0.629597 0.399858 0.789994C0.32213 2.43126 0.290058 2.434 0.398321 2.64925C0.609341 2.9815 0.933452 2.89605 1.37497 2.87605ZM0.887392 0.669323C0.949457 0.592863 0.951855 0.610264 1.41077 0.587876L0.800573 1.82675C0.858722 0.648181 0.843747 0.73622 0.887392 0.669323ZM1.59596 1.13578C1.53951 2.3024 1.55108 2.23825 1.51801 2.29934C1.50078 2.32791 1.47449 2.34991 1.44332 2.36182C1.28885 2.38592 1.13247 2.39547 0.976214 2.39035L1.59596 1.13578Z" fill="url(#paint0_linear_130_565)"/>
<defs>
<linearGradient id="paint0_linear_130_565" x1="0.31857" y1="1.36088" x2="2.08616" y2="1.61256" gradientUnits="userSpaceOnUse">
<stop stop-color="#FFE6AB"/>
<stop offset="1" stop-color="#FFD778"/>
</linearGradient>
</defs>
</svg>
