<svg width="3" height="3" viewBox="0 0 3 3" fill="none" xmlns="http://www.w3.org/2000/svg">
<path d="M2.44811 2.41138C2.71694 2.3205 2.797 2.04919 2.78425 1.76224C2.7774 1.70765 2.71506 1.187 2.67575 1.03517C2.6538 0.939309 2.60541 0.851514 2.53608 0.781763C2.46675 0.712012 2.37925 0.663096 2.28352 0.64057C2.16886 0.624244 2.27225 0.617031 1.05118 0.891582C0.713422 0.987276 0.645653 1.27495 0.67891 1.62331C0.693362 1.85128 0.728874 2.07743 0.784994 2.29886C0.807479 2.39977 0.861773 2.49078 0.93988 2.5585C1.01799 2.62622 1.11578 2.66706 1.21885 2.67502C1.3195 2.66985 2.42116 2.42948 2.44811 2.41138ZM1.17221 2.16391C1.1135 2.11412 1.12475 2.10354 1.05936 1.62143L2.01902 2.00179C1.17939 2.19905 1.22784 2.20108 1.17221 2.16391ZM1.43318 1.30666C2.30182 1.11109 2.23255 1.11829 2.28238 1.14488C2.30906 1.16301 2.32851 1.18993 2.33735 1.22095C2.33395 1.24483 2.34041 1.19945 2.40513 1.70339L1.43318 1.30666Z" fill="url(#paint0_linear_130_493)"/>
<defs>
<linearGradient id="paint0_linear_130_493" x1="0.661795" y1="1.50389" x2="2.79962" y2="1.8083" gradientUnits="userSpaceOnUse">
<stop stop-color="#FFE6AB"/>
<stop offset="1" stop-color="#FFD778"/>
</linearGradient>
</defs>
</svg>
