<svg width="2" height="4" viewBox="0 0 2 4" fill="none" xmlns="http://www.w3.org/2000/svg">
<path d="M1.57071 2.64329C1.56485 2.51329 1.47987 2.49388 1.36725 2.44616C1.88491 0.299705 1.86655 0.445751 1.84161 0.364213C1.83076 0.330319 1.80935 0.300792 1.78049 0.279962L1.45867 0.143967L0.696107 0.24497C1.0251 0.381986 1.01213 0.370396 1.04592 0.40689C1.06956 0.434758 1.08421 0.46913 1.08793 0.505482C1.08079 0.555643 1.12916 0.370003 0.601284 2.554C0.734723 2.60955 0.725847 2.60341 0.752129 2.62421C0.843957 2.71527 0.804749 2.78524 0.722331 3.12444L1.48625 3.01388C1.52438 2.89284 1.55263 2.7689 1.57071 2.64329Z" fill="url(#paint0_linear_130_328)"/>
<defs>
<linearGradient id="paint0_linear_130_328" x1="1.32252" y1="0.12458" x2="0.891926" y2="3.14859" gradientUnits="userSpaceOnUse">
<stop stop-color="#9E6100"/>
<stop offset="0.49" stop-color="#642701"/>
<stop offset="0.65" stop-color="#682A01"/>
<stop offset="0.81" stop-color="#753401"/>
<stop offset="0.98" stop-color="#8A4401"/>
<stop offset="1" stop-color="#8C4601"/>
</linearGradient>
</defs>
</svg>
