<svg width="5" height="7" viewBox="0 0 5 7" fill="none" xmlns="http://www.w3.org/2000/svg">
<path d="M2.83827 0.357675C2.78226 0.328295 2.72076 0.310869 2.65767 0.306499C2.59458 0.302128 2.53126 0.310908 2.47174 0.332286C2.41222 0.353663 2.35779 0.387171 2.31189 0.430685C2.266 0.474199 2.22964 0.526768 2.20512 0.585067C-0.0858974 4.83109 0.0059029 4.56309 0.00815018 4.87881C0.0113043 5.0189 0.0616425 5.15383 0.151016 5.26175C0.212628 5.32631 1.27523 6.16635 1.32211 6.19877C1.37421 6.23111 1.43297 6.25121 1.49397 6.25757C1.59082 6.26398 1.68736 6.24102 1.77095 6.19167C1.85454 6.14232 1.92129 6.06889 1.96246 5.98099C4.28832 1.70131 4.11664 2.03303 4.15833 1.89092C4.18795 1.78708 4.19175 1.67758 4.1694 1.57194C4.14705 1.46629 4.09922 1.36771 4.03008 1.28477C3.96426 1.21961 2.88725 0.390396 2.83827 0.357675Z" fill="url(#paint0_linear_82_428)"/>
<defs>
<linearGradient id="paint0_linear_82_428" x1="0.255731" y1="3.01951" x2="3.91696" y2="3.54084" gradientUnits="userSpaceOnUse">
<stop stop-color="#FFE6AB"/>
<stop offset="1" stop-color="#FFD778"/>
</linearGradient>
</defs>
</svg>
