<svg width="4" height="3" viewBox="0 0 4 3" fill="none" xmlns="http://www.w3.org/2000/svg">
<path d="M3.0775 0.802078C3.09558 0.72517 3.08576 0.64434 3.0498 0.573993C3.01385 0.503646 2.95408 0.44835 2.88116 0.417954C2.85803 0.41466 1.22882 0.118308 1.16844 0.120439C1.11166 0.127723 1.05826 0.151471 1.01482 0.188752C0.971387 0.226033 0.939816 0.275215 0.924006 0.330231C0.898206 0.405944 0.917983 0.297189 0.740416 1.54424C0.722844 1.62058 0.732708 1.70067 0.768278 1.77047C0.803849 1.84027 0.862855 1.89531 0.93495 1.92596C0.960185 1.92955 2.5864 2.23191 2.64648 2.23188C2.68323 2.22889 2.7189 2.21803 2.75108 2.20003C2.78326 2.18202 2.81119 2.15731 2.83298 2.12756C2.92785 2.00375 2.90442 2.01758 3.0775 0.802078Z" fill="url(#paint0_linear_82_416)"/>
<defs>
<linearGradient id="paint0_linear_82_416" x1="0.814976" y1="1.0206" x2="3.00414" y2="1.33232" gradientUnits="userSpaceOnUse">
<stop stop-color="#FFE6AB"/>
<stop offset="1" stop-color="#FFD778"/>
</linearGradient>
</defs>
</svg>
