<svg width="3" height="4" viewBox="0 0 3 4" fill="none" xmlns="http://www.w3.org/2000/svg">
<path d="M2.54102 2.64739C1.50833 0.85897 1.58558 0.979394 1.54922 0.948469C1.52466 0.927846 1.49322 0.917243 1.46118 0.918772C0.726148 1.01794 0.827678 0.998069 0.876045 1.00496C0.962573 1.03015 0.903066 0.965893 1.95771 2.79606L2.21844 2.75808C2.23707 2.7779 2.3922 3.04458 2.38921 3.06561C2.23026 3.1902 2.06155 3.30179 1.88469 3.39929C1.78767 3.41766 2.50497 3.30739 2.51399 3.30438C2.68406 3.20356 2.84866 3.09378 3.00709 2.97551C2.7783 2.56317 2.85011 2.60129 2.54102 2.64739Z" fill="url(#paint0_linear_82_286)"/>
<defs>
<linearGradient id="paint0_linear_82_286" x1="2.06924" y1="1.00321" x2="1.73057" y2="3.38164" gradientUnits="userSpaceOnUse">
<stop stop-color="#9E6100"/>
<stop offset="0.49" stop-color="#642701"/>
<stop offset="0.65" stop-color="#682A01"/>
<stop offset="0.81" stop-color="#753401"/>
<stop offset="0.98" stop-color="#8A4401"/>
<stop offset="1" stop-color="#8C4601"/>
</linearGradient>
</defs>
</svg>
