<svg width="4" height="4" viewBox="0 0 4 4" fill="none" xmlns="http://www.w3.org/2000/svg">
<path d="M0.999939 2.14857C0.964927 2.26417 0.958433 2.38652 0.981008 2.50518C1.00358 2.62383 1.05456 2.73525 1.12957 2.82991C1.47339 3.29073 1.55127 3.49679 1.90001 3.54645C2.05624 3.56362 2.21314 3.5206 2.33876 3.42614C2.408 3.36776 3.57002 2.32687 3.65631 2.23437C3.74792 2.13484 3.80718 2.00986 3.82624 1.87594C3.84531 1.74203 3.8233 1.60547 3.76311 1.48434C3.73475 1.42617 3.70102 1.37079 3.66237 1.3189C3.26735 0.789858 3.33017 0.879226 3.26361 0.816133C3.21004 0.753088 3.14398 0.701836 3.0696 0.665615C2.99522 0.629394 2.91413 0.608991 2.83147 0.605694C2.7488 0.602397 2.66636 0.616278 2.58933 0.646461C2.5123 0.676643 2.44237 0.722471 2.38395 0.78105C1.02819 2.0015 1.08923 1.91514 0.999939 2.14857ZM2.80381 1.15278C2.83682 1.15426 2.86845 1.16647 2.89391 1.18754C2.91507 1.21005 2.884 1.17151 3.20767 1.60265L1.88427 1.94549C2.77855 1.12481 2.72772 1.15657 2.80381 1.15278ZM2.91894 2.19274C2.00419 3.02025 2.06353 2.97996 1.9912 2.99159C1.88099 2.9954 1.88166 2.9565 1.56857 2.53661L2.91894 2.19274Z" fill="url(#paint0_linear_130_612)"/>
<defs>
<linearGradient id="paint0_linear_130_612" x1="1.03121" y1="1.87764" x2="3.76858" y2="2.26741" gradientUnits="userSpaceOnUse">
<stop stop-color="#FFE6AB"/>
<stop offset="1" stop-color="#FFD778"/>
</linearGradient>
</defs>
</svg>
