<svg width="3" height="3" viewBox="0 0 3 3" fill="none" xmlns="http://www.w3.org/2000/svg">
<path d="M2.96565 1.53545C2.98313 1.45807 2.97316 1.37701 2.93745 1.30617C2.90174 1.23533 2.84252 1.1791 2.76991 1.14713C2.74678 1.14383 1.12416 0.816235 1.06408 0.816262C1.00784 0.823076 0.954807 0.846156 0.911493 0.882675C0.86818 0.919195 0.836468 0.967564 0.820249 1.02185C0.796851 1.09576 0.827735 0.969272 0.637257 2.23165C0.620918 2.30869 0.631168 2.389 0.666334 2.45947C0.7015 2.52994 0.759507 2.58641 0.830893 2.61968C0.856129 2.62327 2.47364 2.95658 2.53583 2.95685C2.57214 2.95428 2.60748 2.94402 2.63953 2.92676C2.67158 2.9095 2.6996 2.88563 2.72173 2.85673C2.8178 2.72451 2.79437 2.73834 2.96565 1.53545Z" fill="url(#paint0_linear_82_411)"/>
<defs>
<linearGradient id="paint0_linear_82_411" x1="0.709721" y1="1.72274" x2="2.89679" y2="2.03415" gradientUnits="userSpaceOnUse">
<stop stop-color="#FFE6AB"/>
<stop offset="1" stop-color="#FFD778"/>
</linearGradient>
</defs>
</svg>
