<svg width="4" height="3" viewBox="0 0 4 3" fill="none" xmlns="http://www.w3.org/2000/svg">
<path d="M3.37679 1.67809C3.32536 1.54203 3.3909 1.65435 2.49719 0.321277C2.42283 0.203126 2.30587 0.118097 2.17055 0.0838052C2.04647 0.0661383 2.10956 0.0751254 1.40546 0.152951C1.47259 0.148501 1.53991 0.158087 1.60313 0.181098C1.83659 0.274416 1.86096 0.374434 2.26378 0.98106L1.76965 1.04587L1.84256 1.51327C1.44155 0.909042 1.42449 1.04393 1.92748 0.645667L1.3132 0.725555C0.962456 1.00389 0.964248 0.991273 0.942341 1.03965C0.926208 1.07143 0.921049 1.10766 0.927669 1.14269C0.941205 1.18324 0.927672 1.14269 1.50906 2.03222L1.90736 1.97736L1.9634 2.33721L2.57858 2.25102L2.41469 1.21711C2.6675 1.5964 2.89711 1.8222 2.73209 2.24283C2.63274 2.44325 2.58198 2.45318 2.16847 2.78051C2.10015 2.83684 2.0212 2.87887 1.93632 2.90408C1.86994 2.91823 1.75639 2.9321 2.50314 2.82602C2.69538 2.78688 2.72841 2.75082 3.16984 2.39314C3.27492 2.31068 3.35144 2.19728 3.38857 2.06897C3.42571 1.94066 3.42159 1.80393 3.37679 1.67809Z" fill="url(#paint0_linear_82_289)"/>
<defs>
<linearGradient id="paint0_linear_82_289" x1="2.37543" y1="0.106542" x2="1.97538" y2="2.91608" gradientUnits="userSpaceOnUse">
<stop stop-color="#9E6100"/>
<stop offset="0.49" stop-color="#642701"/>
<stop offset="0.65" stop-color="#682A01"/>
<stop offset="0.81" stop-color="#753401"/>
<stop offset="0.98" stop-color="#8A4401"/>
<stop offset="1" stop-color="#8C4601"/>
</linearGradient>
</defs>
</svg>
