<svg width="6" height="7" viewBox="0 0 6 7" fill="none" xmlns="http://www.w3.org/2000/svg">
<path d="M1.50682 0.272702C1.44263 0.312396 1.386 0.363177 1.33957 0.422679C0.11433 1.94537 0.197786 1.82638 0.126355 1.9664C0.075121 2.07682 0.0533411 2.19862 0.0631353 2.31995C0.0729294 2.44129 0.113964 2.55802 0.182246 2.6588C0.247472 2.74318 3.59634 6.01572 3.64773 6.06166C3.70603 6.1063 3.77265 6.13886 3.84368 6.15745C3.91472 6.17604 3.98874 6.18028 4.06143 6.16991C4.21338 6.14221 4.35008 6.06027 4.44614 5.93933C5.66208 4.45179 5.70175 4.4746 5.74456 4.14384C5.76083 3.98154 5.71856 3.81876 5.62539 3.68488C5.55625 3.59779 2.17855 0.331874 2.12896 0.288338C2.03933 0.222383 1.93161 0.185518 1.82035 0.182722C1.7091 0.179925 1.59966 0.211333 1.50682 0.272702Z" fill="url(#paint0_linear_82_501)"/>
<defs>
<linearGradient id="paint0_linear_82_501" x1="-0.0156691" y1="2.76793" x2="5.83263" y2="3.60067" gradientUnits="userSpaceOnUse">
<stop stop-color="#FFE6AB"/>
<stop offset="1" stop-color="#FFD778"/>
</linearGradient>
</defs>
</svg>
