<svg width="3" height="3" viewBox="0 0 3 3" fill="none" xmlns="http://www.w3.org/2000/svg">
<path d="M1.43598 0.950375C1.49486 0.958759 1.51587 0.916693 1.5543 0.872817L2.19964 1.68991C1.99037 1.93904 1.99368 1.94595 1.94712 1.95649C1.90057 1.96702 1.83356 1.94032 2.26107 2.01192C2.64591 2.06671 2.6309 2.08174 2.68405 2.05498C2.76129 1.97756 2.83265 1.89449 2.89753 1.80645C1.63721 0.215202 1.71475 0.288464 1.65617 0.277976C0.910813 0.148244 0.96579 0.153926 1.00034 0.167428C1.03489 0.18093 0.978393 0.125682 1.52183 0.814554L0.92489 0.712391C0.867845 0.78151 0.83573 0.841304 0.769939 0.836228L1.43598 0.950375Z" fill="url(#paint0_linear_82_198)"/>
<defs>
<linearGradient id="paint0_linear_82_198" x1="1.95988" y1="0.299766" x2="1.72602" y2="1.94217" gradientUnits="userSpaceOnUse">
<stop stop-color="#9E6100"/>
<stop offset="0.49" stop-color="#642701"/>
<stop offset="0.65" stop-color="#682A01"/>
<stop offset="0.81" stop-color="#753401"/>
<stop offset="0.98" stop-color="#8A4401"/>
<stop offset="1" stop-color="#8C4601"/>
</linearGradient>
</defs>
</svg>
