<svg width="34" height="28" viewBox="0 0 34 28" fill="none" xmlns="http://www.w3.org/2000/svg">
<path d="M31.8183 17.4044C30.8026 14.1175 29.1824 11.049 27.0411 8.3564C25.7263 6.70429 24.1954 5.2364 22.4895 3.99215C20.8693 2.81183 19.0891 1.8684 17.2027 1.19032C15.347 0.527428 13.4047 0.138112 11.4369 0.0346094C9.51777 -0.0649232 7.5944 0.114348 5.72677 0.566829C3.74322 1.04939 1.84169 1.82188 0.083578 2.85937C0.300401 3.37086 0.245364 3.22999 0.354535 3.50301C1.85646 2.62616 3.46336 1.94299 5.1369 1.4698C8.45768 0.535075 11.9682 0.506708 15.3036 1.38765C18.8437 2.38306 21.4435 3.89469 24.156 6.34713C26.8732 8.94827 28.6825 11.5961 30.258 15.2533C31.5623 18.5094 32.2257 21.3395 32.4374 25.2016L30.7681 26.5731L30.13 26.4587C30.1147 26.5659 30.1339 26.4313 30.0204 27.2284L30.949 27.3971L33.1727 25.5681C33.0995 22.7975 32.6437 20.0503 31.8183 17.4044Z" fill="#FFE082"/>
</svg>
