<svg width="3" height="4" viewBox="0 0 3 4" fill="none" xmlns="http://www.w3.org/2000/svg">
<path d="M2.80583 2.21015C2.94175 1.8433 2.72534 1.58506 2.517 1.22497C2.47962 1.14407 2.41854 1.07644 2.34186 1.03103C2.26518 0.98563 2.17651 0.9646 2.08761 0.970727C2.03018 0.978463 1.97553 1.00015 1.92842 1.03388C1.87557 1.07356 1.08313 1.77175 1.03118 1.82014C0.950896 1.92282 0.905501 2.04846 0.901616 2.17874C0.897731 2.30902 0.935558 2.43714 1.00959 2.54442C1.205 2.88979 1.359 3.30007 1.73774 3.17163C1.83175 3.12923 1.75518 3.18483 2.67614 2.38264C2.7319 2.33573 2.77625 2.27675 2.80583 2.21015ZM1.57564 2.75805C1.51465 2.73434 1.53148 2.75176 1.31802 2.36734L2.22337 2.24737C1.59548 2.78447 1.63662 2.76673 1.57564 2.75805ZM1.52329 1.93527C2.15779 1.38194 2.11574 1.40599 2.1611 1.40387C2.18574 1.40518 2.20885 1.41619 2.2254 1.43448C2.3072 1.55164 2.37929 1.67529 2.44096 1.80418L1.52329 1.93527Z" fill="url(#paint0_linear_82_429)"/>
<defs>
<linearGradient id="paint0_linear_82_429" x1="0.931208" y1="1.94966" x2="2.81966" y2="2.21856" gradientUnits="userSpaceOnUse">
<stop stop-color="#FFE6AB"/>
<stop offset="1" stop-color="#FFD778"/>
</linearGradient>
</defs>
</svg>
