<svg width="71" height="82" viewBox="0 0 71 82" fill="none" xmlns="http://www.w3.org/2000/svg">
<path d="M70.5135 44.9352C70.8615 40.6678 70.7985 38.0219 70.2871 33.9133C69.6508 29.8083 68.9918 27.3242 67.5466 23.5353C66.8967 21.8986 66.1464 20.3035 65.3001 18.7591C64.4571 17.2345 63.52 15.764 62.4941 14.3559C61.4982 12.997 60.416 11.7034 59.2543 10.4831C58.1315 9.30919 56.9298 8.21332 55.6576 7.20315C54.4305 6.22897 53.1365 5.3421 51.7852 4.54907C50.4649 3.77747 49.0914 3.10078 47.675 2.52414C46.2782 1.95996 44.8427 1.4967 43.3796 1.13795C41.9219 0.787641 40.4409 0.543054 38.948 0.4061C36.0254 0.132168 33.0785 0.282761 30.199 0.853195C28.7867 1.13567 27.3956 1.51541 26.0357 1.98972C24.6737 2.46685 23.3454 3.03541 22.06 3.69151C19.1006 5.26336 17.3582 6.46997 14.7803 8.6776C10.193 12.867 6.94797 17.3033 4.29048 23.5805C3.95682 24.417 4.02613 24.2316 3.93762 24.4614L4.51833 24.557C5.37023 22.4103 6.3946 20.3361 7.58139 18.3547C8.83263 16.2721 10.2714 14.3081 11.8799 12.4871C15.2931 8.72272 18.5723 6.17081 23.0878 3.9623C25.216 2.95365 27.4524 2.19157 29.7536 1.69092C32.1224 1.17486 34.5458 0.95279 36.9689 1.02974C39.8596 1.12328 42.7217 1.63414 45.4662 2.54648C46.8955 3.02526 48.2885 3.60651 49.6342 4.2857C50.993 4.97581 52.3016 5.7608 53.5501 6.63485C54.8201 7.52967 56.029 8.50819 57.1688 9.56391C58.3298 10.6409 59.4202 11.7916 60.4331 13.0089C62.7697 15.9163 64.0266 17.9083 65.7248 21.3213C67.3405 24.847 68.1419 27.2054 69.0226 31.1456C69.8046 35.192 70.0281 37.7964 69.9531 41.9696C69.8891 43.8451 69.7131 45.7151 69.4261 47.5696C69.1387 49.4155 68.7403 51.2425 68.233 53.0405C67.7416 54.7785 67.144 56.4848 66.4434 58.1496C65.7655 59.7592 64.9886 61.3254 64.1172 62.839C62.1426 66.1582 60.6926 68.0694 58.1116 70.7808C56.9962 71.9147 55.8089 72.9755 54.5569 73.9565C53.3378 74.9097 52.0562 75.7802 50.7207 76.5621C49.4148 77.323 48.0583 77.9937 46.6608 78.5694C45.2877 79.1317 43.8765 79.5961 42.4378 79.9592C41.0146 80.3138 39.5676 80.5653 38.1082 80.7116C35.1741 81.0051 32.2126 80.8547 29.3233 80.2653C27.9835 79.9875 26.6638 79.6197 25.3735 79.1643C23.0783 78.3571 20.885 77.2851 18.838 75.9702C16.8237 74.6736 14.9525 73.1672 13.2556 71.4763C9.69454 67.856 7.31675 64.3334 5.13064 59.555C4.12642 57.2896 3.31714 54.9428 2.71161 52.5399C2.14315 50.2727 1.75011 47.9651 1.53598 45.6375L0.959454 45.5125C0.979389 45.7492 0.952567 45.5609 1.04039 46.451C1.85111 53.5352 3.76316 58.7767 6.75698 64.0756C8.56016 67.068 9.85779 68.819 12.1877 71.3371C14.2125 73.4707 16.5023 75.3363 19.0012 76.8881C20.2456 77.6593 21.5407 78.3454 22.8776 78.942C24.2291 79.5412 25.6204 80.0462 27.0416 80.4532C28.4662 80.859 29.9178 81.1633 31.3855 81.3635C34.3127 81.7617 37.2827 81.7233 40.1986 81.2496C41.6825 81.0073 43.1467 80.6565 44.5792 80.1998C46.0513 79.7292 47.4878 79.1536 48.8774 78.4774C50.3181 77.7714 51.7075 76.9655 53.0357 76.0657C54.4091 75.1352 55.7181 74.113 56.9536 73.0061C58.2041 71.8812 59.3793 70.6752 60.4715 69.3961C61.5827 68.0926 62.6095 66.7195 63.5457 65.2852C64.5007 63.8182 65.3629 62.2927 66.1271 60.7179C67.8503 57.039 68.6999 54.5831 69.6533 50.4642C70.0466 48.6393 70.3338 46.7932 70.5135 44.9352Z" fill="#FFE082"/>
</svg>
