<svg width="93" height="107" viewBox="0 0 93 107" fill="none" xmlns="http://www.w3.org/2000/svg">
<path d="M91.786 59.7183C92.2009 56.0028 92.2766 52.2571 92.0122 48.5279C91.7583 45.0027 91.196 41.5067 90.3317 38.0797C88.3968 30.7367 85.9226 25.4348 82.0687 19.7584C78.2529 14.4141 74.3289 10.4288 68.7406 6.78417C66.1445 5.11684 63.3731 3.73987 60.4763 2.67807C57.6582 1.65303 54.7339 0.948061 51.7584 0.576442C45.6879 -0.127087 40.6099 0.363509 34.8012 2.1002C29.355 3.87631 25.1188 6.12205 20.2624 9.98542C18.129 11.7296 16.1441 13.6479 14.328 15.7205C10.2407 20.4635 7.64028 24.7602 5.20724 30.2773C2.6639 36.3466 1.40853 41.4489 0.680223 47.7961C-0.213895 57.1733 0.687629 65.4756 3.8111 74.4842C6.86088 82.7609 11.1138 89.6054 17.5948 95.6241C22.5676 100.066 26.9601 102.609 32.5228 104.637C38.3881 106.627 43.4926 107.235 49.5952 106.719C52.4335 106.436 55.2341 105.855 57.9503 104.985C60.8347 104.059 63.6115 102.827 66.2333 101.309C68.8681 99.7835 71.348 98.0047 73.6378 95.998C76.1091 93.8339 78.36 91.4302 80.3574 88.8224C82.3805 86.1793 84.1599 83.3583 85.6738 80.3941C87.328 77.1497 88.6728 73.7567 89.6903 70.26C90.6905 66.8128 91.3916 63.2859 91.786 59.7183ZM89.2288 63.9846C88.7822 66.3553 88.1908 68.6965 87.4581 70.9949C86.7495 73.216 85.9035 75.3908 84.9248 77.5067C83.9771 79.5515 82.9027 81.5351 81.7079 83.446C80.5502 85.2931 79.2772 87.0654 77.8963 88.7522C76.559 90.385 75.1179 91.93 73.582 93.3776C72.0879 94.779 70.5031 96.0806 68.8379 97.274C67.2186 98.4328 65.5224 99.4802 63.7611 100.409C62.0345 101.316 60.2468 102.101 58.411 102.759C56.6097 103.399 54.7648 103.91 52.8905 104.286C51.0338 104.655 49.1526 104.887 47.2619 104.981C45.3703 105.07 43.4747 105.019 41.5906 104.829C39.6854 104.63 37.7974 104.292 35.9417 103.817C34.2788 103.391 32.6453 102.857 31.0514 102.219C29.559 101.62 28.1033 100.932 26.6922 100.161C23.9127 98.6357 21.3124 96.8047 18.9398 94.7019C13.9386 90.1685 10.6128 85.6786 7.52993 79.6368C6.09611 76.7398 4.91841 73.7229 4.01031 70.6206C2.72604 66.2437 1.96495 61.7301 1.74295 57.1742L4.73703 57.8149L4.84655 57.0458L1.70778 56.3771C1.68146 55.535 1.68912 55.8578 1.66449 54.9696L5.03905 55.6938C5.09415 55.3069 5.09177 55.3236 5.14857 54.9247L1.66209 54.1992C1.66647 53.3468 1.66355 53.6754 1.67952 52.776L5.34754 53.5273C5.40502 53.1237 5.4023 53.1428 5.4574 52.7558L1.70066 51.9943C1.73644 51.1439 1.71919 51.4705 1.76859 50.5758L2.74966 50.7716L2.85884 50.0048L1.82044 49.8009C1.88932 48.9577 1.86047 49.2802 1.94298 48.3927L5.9744 49.1763C6.06453 48.5433 6.04243 48.6986 6.08426 48.4048L2.02349 47.6218C2.12444 46.7589 2.10881 46.9029 2.11968 46.8094C1.91187 46.7798 1.7805 46.7781 1.73468 46.5523C1.72474 46.468 1.7115 46.5953 1.93734 45.0263C1.94039 44.9524 1.96582 44.8813 2.01027 44.8222C2.0287 44.7983 2.05182 44.7784 2.07822 44.7637C2.10461 44.749 2.13372 44.7399 2.16377 44.7368C2.24433 44.7401 2.32435 44.7515 2.40264 44.7708C2.41726 44.6681 2.40264 44.7708 2.52206 44.0348L6.59476 44.7853L6.70462 44.0138L2.66707 43.2731C2.82672 42.4429 2.76442 42.7606 2.9418 41.8914L3.99657 42.0831L4.10609 41.3139L3.10557 41.1349C3.29627 40.3091 3.21965 40.6247 3.43046 39.7604L7.23493 40.4264L7.34615 39.6453L3.6287 39.0014C3.84772 38.1821 3.76188 38.494 4.00306 37.6388L7.54852 38.2411L7.65872 37.4672L4.22656 36.8908C4.49061 36.0461 4.38635 36.3676 4.66949 35.4916L7.86245 36.0193L7.97298 35.243L4.92199 34.7452C7.42637 27.8028 10.3176 22.9017 14.4143 17.8871C16.4241 15.4861 18.6643 13.2878 21.1028 11.3236C23.5112 9.38 26.1199 7.69842 28.8845 6.30731C31.6641 4.90856 34.5972 3.8385 37.6245 3.11879C40.7388 2.37942 43.9337 2.0344 47.134 2.09183C48.9383 2.12469 50.7382 2.28326 52.5205 2.56638C54.4369 2.8758 56.3277 3.32669 58.1774 3.91533C60.0327 4.51083 61.842 5.24089 63.591 6.09967C65.3595 6.9714 67.0639 7.96741 68.6915 9.0802C70.3479 10.2177 71.9256 11.4658 73.4138 12.816C74.934 14.2009 76.3624 15.6832 77.6902 17.2535C79.0504 18.8677 80.308 20.5656 81.4554 22.3372C82.6364 24.1584 83.7042 26.0506 84.6528 28.0029C85.6197 30.0066 86.4657 32.0664 87.1863 34.1712C87.9223 36.3313 88.5283 38.5335 89.0012 40.766C89.4841 43.0525 89.8301 45.3658 90.0375 47.6935C90.2469 50.0769 90.3129 52.4708 90.2353 54.8622C90.1329 57.9267 89.7977 60.9789 89.2326 63.9925L89.2288 63.9846Z" fill="#FFE082"/>
</svg>
