<svg width="26" height="62" viewBox="0 0 26 62" fill="none" xmlns="http://www.w3.org/2000/svg">
<path d="M8.53906 59.3608C10.7319 58.3268 12.7719 56.9957 14.6015 55.4051C16.5081 53.7533 18.1925 51.8613 19.6126 49.7763C21.0835 47.6139 22.2861 45.2808 23.1938 42.8281C24.1414 40.2639 24.7887 37.5985 25.1229 34.8853C25.4635 32.1678 25.4912 29.4203 25.2054 26.6966C24.9259 24.0406 24.3352 21.4267 23.4457 18.9086C22.5752 16.4415 21.4037 14.0911 19.9578 11.9108C18.5826 9.82956 16.9414 7.93688 15.0758 6.28082C13.3237 4.72834 11.362 3.42991 9.24839 2.42363C7.31772 1.50487 5.27121 0.852567 3.16498 0.484619C5.40023 0.912525 7.56135 1.6633 9.58047 2.71337C11.6721 3.80501 13.6012 5.18315 15.3119 6.80792C18.0089 9.44481 19.9603 12.0442 21.8171 15.926L22.183 15.9781C22.4491 16.5353 22.8442 17.4519 23.1642 18.3085L22.8025 18.257C23.8185 20.9614 24.4844 23.7846 24.7839 26.658C25.355 32.1303 24.6659 37.6608 22.7693 42.8256C21.8602 45.284 20.6554 47.6226 19.1815 49.79C17.7602 51.8794 16.0738 53.7755 14.1644 55.4308C9.97538 58.9324 8.58718 58.827 9.73016 58.7258C8.6679 59.2848 8.44985 59.3696 7.7005 59.7049C7.26554 59.7459 7.32471 59.7372 7.29498 59.7501C5.20836 60.6423 3.00173 61.2224 0.746111 61.4717C3.95666 61.165 6.16127 60.419 8.53906 59.3608Z" fill="url(#paint0_linear_82_147)"/>
<defs>
<linearGradient id="paint0_linear_82_147" x1="16.3273" y1="2.35881" x2="7.76695" y2="62.4779" gradientUnits="userSpaceOnUse">
<stop stop-color="#9E6100"/>
<stop offset="0.49" stop-color="#642701"/>
<stop offset="0.65" stop-color="#682A01"/>
<stop offset="0.81" stop-color="#753401"/>
<stop offset="0.98" stop-color="#8A4401"/>
<stop offset="1" stop-color="#8C4601"/>
</linearGradient>
</defs>
</svg>
