<svg width="4" height="5" viewBox="0 0 4 5" fill="none" xmlns="http://www.w3.org/2000/svg">
<path d="M3.19362 3.13753C3.14762 3.27233 3.21989 3.14127 2.19324 4.73759C2.14955 4.80895 2.08879 4.86832 2.01644 4.91035C1.94409 4.95238 1.86241 4.97574 1.77878 4.97833C2.58026 4.92917 2.5557 4.94761 2.71092 4.86735C2.76503 4.8328 2.81375 4.79047 2.85553 4.74172C2.88042 4.70383 3.81298 3.27203 3.86649 3.15292C3.92135 3.01432 3.92682 2.86106 3.88199 2.71889C3.80204 2.49305 3.71297 2.45112 3.52591 2.29288L3.11101 2.31423L2.41469 1.76178L2.82925 1.74283L1.83119 0.94758L1.41423 0.966198C1.1964 0.773184 0.967303 0.593269 0.728152 0.427399C1.21812 0.409432 1.15159 0.414581 1.12906 0.401626C0.957399 0.323567 0.964232 0.344034 0.187649 0.372369C0.45482 0.37873 0.303633 0.310899 2.97766 2.44634C3.07775 2.52746 3.15165 2.63634 3.19007 2.75931C3.22849 2.88228 3.22972 3.01386 3.19362 3.13753Z" fill="url(#paint0_linear_130_383)"/>
<defs>
<linearGradient id="paint0_linear_130_383" x1="2.21724" y1="0.529764" x2="1.58769" y2="4.95112" gradientUnits="userSpaceOnUse">
<stop stop-color="#9E6100"/>
<stop offset="0.49" stop-color="#642701"/>
<stop offset="0.65" stop-color="#682A01"/>
<stop offset="0.81" stop-color="#753401"/>
<stop offset="0.98" stop-color="#8A4401"/>
<stop offset="1" stop-color="#8C4601"/>
</linearGradient>
</defs>
</svg>
