<svg width="5" height="9" viewBox="0 0 5 9" fill="none" xmlns="http://www.w3.org/2000/svg">
<path d="M2.47489 8.00523C2.56148 8.02263 2.65073 8.02218 2.73714 8.00389C2.82355 7.9856 2.90532 7.94987 2.97744 7.89888C3.13205 7.79498 3.24167 7.63649 3.28433 7.45516C4.89606 1.16796 4.79153 1.6283 4.79485 1.43381C4.79478 1.2903 4.75569 1.14952 4.68177 1.02652C4.60785 0.903526 4.50187 0.802943 4.37518 0.735541C4.25642 0.679636 2.39246 0.112031 2.31261 0.0909125C2.17771 0.0653407 2.03823 0.0811814 1.9125 0.136352C1.78677 0.191523 1.68066 0.28344 1.60814 0.400028C1.55908 0.474527 1.52268 0.556637 1.50044 0.643023C-0.0997036 6.91726 0.0102842 6.43576 0.00457245 6.62991C0.00507309 6.77265 0.0438254 6.91266 0.116793 7.03535C0.18976 7.15803 0.294279 7.25891 0.419467 7.3275C0.537214 7.39057 2.39026 7.98343 2.47489 8.00523Z" fill="url(#paint0_linear_130_621)"/>
<defs>
<linearGradient id="paint0_linear_130_621" x1="0.406917" y1="3.77004" x2="4.39594" y2="4.33804" gradientUnits="userSpaceOnUse">
<stop stop-color="#FFE6AB"/>
<stop offset="1" stop-color="#FFD778"/>
</linearGradient>
</defs>
</svg>
