<svg width="3" height="3" viewBox="0 0 3 3" fill="none" xmlns="http://www.w3.org/2000/svg">
<path d="M2.82903 2.14417C2.81574 1.99638 2.84794 2.13185 2.39394 0.603915C2.37013 0.503085 2.31779 0.411242 2.24318 0.339362C2.16857 0.267481 2.07484 0.218599 1.97319 0.198562C1.84912 0.180895 1.90169 0.188382 1.14413 0.29507C1.2774 0.269214 1.4155 0.296021 1.52942 0.369857C1.64334 0.443693 1.72421 0.558811 1.75503 0.691021L1.14736 0.784723C0.734062 0.914685 0.752983 0.90236 0.717853 0.938124C0.647299 1.02677 0.674032 1.01985 0.976105 2.04769L1.37801 1.98262L1.30614 2.48733L1.94325 2.3828L2.04446 1.672C2.16511 2.07538 2.31213 2.35379 2.04492 2.67835C1.9971 2.73206 1.93832 2.77491 1.87255 2.80399C1.78875 2.83497 1.42201 2.9544 1.30457 2.98059C1.69652 2.94011 2.08187 2.85083 2.45168 2.71481C2.56934 2.6756 2.67046 2.59808 2.73886 2.49463C2.80727 2.39118 2.83902 2.26779 2.82903 2.14417ZM1.4771 1.24148L1.45345 1.40762C1.2621 0.762443 1.21739 0.8655 1.75413 0.69733C1.75413 0.69733 1.90154 1.16889 1.90064 1.1752L1.4771 1.24148Z" fill="url(#paint0_linear_82_268)"/>
<defs>
<linearGradient id="paint0_linear_82_268" x1="1.95847" y1="0.196467" x2="1.55782" y2="3.01021" gradientUnits="userSpaceOnUse">
<stop stop-color="#9E6100"/>
<stop offset="0.49" stop-color="#642701"/>
<stop offset="0.65" stop-color="#682A01"/>
<stop offset="0.81" stop-color="#753401"/>
<stop offset="0.98" stop-color="#8A4401"/>
<stop offset="1" stop-color="#8C4601"/>
</linearGradient>
</defs>
</svg>
