<svg width="4" height="2" viewBox="0 0 4 2" fill="none" xmlns="http://www.w3.org/2000/svg">
<path d="M2.96222 0.519116L2.94428 0.83338C0.576208 0.691154 1.13479 0.72195 0.256148 0.6797C2.74262 0.829037 2.25672 0.801279 2.94428 0.83338C2.92163 1.30051 2.93016 1.29197 2.88719 1.35409C2.87259 1.37398 2.85322 1.38988 2.83086 1.40032C2.80851 1.41076 2.78389 1.41542 2.75927 1.41386L3.42771 1.44324C3.46752 1.44014 3.50477 1.42242 3.53229 1.39349C3.55981 1.36456 3.57565 1.32647 3.57675 1.28656L3.61429 0.560784C2.823 0.504164 2.16479 0.47137 2.96222 0.519116Z" fill="url(#paint0_linear_130_424)"/>
<defs>
<linearGradient id="paint0_linear_130_424" x1="2.01049" y1="0.322671" x2="1.87309" y2="1.28768" gradientUnits="userSpaceOnUse">
<stop stop-color="#9E6100"/>
<stop offset="0.49" stop-color="#642701"/>
<stop offset="0.65" stop-color="#682A01"/>
<stop offset="0.81" stop-color="#753401"/>
<stop offset="0.98" stop-color="#8A4401"/>
<stop offset="1" stop-color="#8C4601"/>
</linearGradient>
</defs>
</svg>
