<svg width="7" height="5" viewBox="0 0 7 5" fill="none" xmlns="http://www.w3.org/2000/svg">
<path d="M6.02265 3.62407C6.2412 3.30975 6.14347 3.07698 6.0462 2.55463L5.6614 2.60497C5.64936 2.53888 5.66954 2.65333 5.51415 1.81588L5.89864 1.76764C5.81342 1.32639 5.80004 0.953299 5.39472 0.786161C5.22767 0.738774 5.25352 0.753179 4.55482 0.838212C4.67547 0.836396 4.79387 0.870927 4.89462 0.937315C4.99537 1.0037 5.07381 1.09887 5.11974 1.21045C5.182 1.36092 5.14708 1.21435 5.50695 3.16228C5.53202 3.27533 5.52722 3.39294 5.49303 3.50357C5.45885 3.6142 5.39645 3.71402 5.31198 3.79321C5.13511 3.93538 5.48353 3.83909 0.795541 4.65202C1.65794 4.53237 0.736978 4.6866 5.71213 3.81586C5.83554 3.79188 5.94596 3.72368 6.02265 3.62407Z" fill="url(#paint0_linear_82_260)"/>
<defs>
<linearGradient id="paint0_linear_82_260" x1="3.95329" y1="0.572333" x2="3.31998" y2="5.02006" gradientUnits="userSpaceOnUse">
<stop stop-color="#9E6100"/>
<stop offset="0.49" stop-color="#642701"/>
<stop offset="0.65" stop-color="#682A01"/>
<stop offset="0.81" stop-color="#753401"/>
<stop offset="0.98" stop-color="#8A4401"/>
<stop offset="1" stop-color="#8C4601"/>
</linearGradient>
</defs>
</svg>
