<svg width="5" height="7" viewBox="0 0 5 7" fill="none" xmlns="http://www.w3.org/2000/svg">
<path d="M0.326862 1.82721C0.344911 1.88128 2.03085 6.01343 2.09459 6.12335C2.12731 6.17947 2.17091 6.22851 2.22282 6.26759C2.27472 6.30666 2.33391 6.33499 2.3969 6.35091C2.60719 6.38085 2.55282 6.38599 3.861 5.57671C3.97379 5.4915 4.05659 5.37266 4.09746 5.23733C4.13832 5.10201 4.13514 4.9572 4.08836 4.8238C4.07001 4.77184 2.36483 0.624076 2.3032 0.514458C2.2572 0.430992 2.18533 0.364726 2.09841 0.325649C2.01149 0.286571 1.91422 0.276796 1.82126 0.297788C1.71764 0.332381 1.83657 0.265636 0.549118 1.08001C0.437872 1.1651 0.356442 1.28324 0.316512 1.41748C0.276582 1.55172 0.280205 1.69516 0.326862 1.82721Z" fill="url(#paint0_linear_82_424)"/>
<defs>
<linearGradient id="paint0_linear_82_424" x1="0.0819803" y1="3.01962" x2="4.33204" y2="3.62478" gradientUnits="userSpaceOnUse">
<stop stop-color="#FFE6AB"/>
<stop offset="1" stop-color="#FFD778"/>
</linearGradient>
</defs>
</svg>
