<svg width="5" height="7" viewBox="0 0 5 7" fill="none" xmlns="http://www.w3.org/2000/svg">
<path d="M4.67676 5.55251C4.76398 5.43562 4.81342 5.29487 4.81845 5.14911C4.82348 5.00336 4.78387 4.85954 4.70492 4.73691C2.05955 0.712737 2.26457 1.02086 2.16809 0.929879C2.09881 0.865682 2.00938 0.827526 1.91509 0.821926C1.8208 0.816326 1.72749 0.843626 1.65109 0.89917C1.57902 0.953275 0.579443 1.96098 0.535608 2.01267C0.449023 2.12814 0.399831 2.26733 0.394635 2.41156C0.389439 2.55579 0.428485 2.69816 0.506537 2.81956C3.13719 6.84164 2.92797 6.53292 3.02444 6.6239C3.09283 6.69021 3.18228 6.73048 3.27727 6.73773C3.37225 6.74498 3.46678 6.71876 3.54445 6.66361C3.61622 6.61161 4.64133 5.6054 4.67676 5.55251Z" fill="url(#paint0_linear_82_443)"/>
<defs>
<linearGradient id="paint0_linear_82_443" x1="0.243673" y1="3.44512" x2="4.9711" y2="4.11826" gradientUnits="userSpaceOnUse">
<stop stop-color="#FFE6AB"/>
<stop offset="1" stop-color="#FFD778"/>
</linearGradient>
</defs>
</svg>
