<svg width="6" height="7" viewBox="0 0 6 7" fill="none" xmlns="http://www.w3.org/2000/svg">
<path d="M5.73632 3.39872C5.85371 3.27927 5.93161 3.12667 5.95948 2.96154C5.98735 2.7964 5.96386 2.62669 5.89218 2.47533C5.01107 0.773091 5.06328 0.782961 4.80869 0.671161C4.74052 0.64603 4.66756 0.636616 4.59525 0.643621C4.52294 0.650626 4.45314 0.673869 4.39107 0.711615C4.29794 0.766593 0.52247 3.81636 0.469263 3.86483C0.352595 3.98274 0.27515 4.13377 0.2475 4.29732C0.219851 4.46087 0.243344 4.62897 0.314772 4.77867C1.17779 6.47102 1.10198 6.353 1.19928 6.45702C1.27413 6.53568 1.37332 6.58679 1.48081 6.6021C1.58831 6.6174 1.69783 6.59601 1.79166 6.54137C1.87932 6.49049 5.68073 3.44685 5.73632 3.39872Z" fill="url(#paint0_linear_130_540)"/>
<defs>
<linearGradient id="paint0_linear_130_540" x1="0.396982" y1="3.24284" x2="5.80963" y2="4.01355" gradientUnits="userSpaceOnUse">
<stop stop-color="#FFE6AB"/>
<stop offset="1" stop-color="#FFD778"/>
</linearGradient>
</defs>
</svg>
