<svg width="5" height="6" viewBox="0 0 5 6" fill="none" xmlns="http://www.w3.org/2000/svg">
<path d="M4.19631 3.35414C4.17111 3.42564 3.57999 4.9099 3.53287 4.99974C3.49934 5.05788 3.45438 5.10863 3.40071 5.14893C3.34703 5.18922 3.28575 5.21823 3.22056 5.2342L3.84627 5.16452C4.20793 5.11088 4.25886 4.81346 4.40499 4.45021L4.00157 4.49575C4.1783 4.05318 4.11859 4.20131 4.26412 3.84226L4.66724 3.79882C4.85028 3.34212 4.96946 3.18316 4.85905 2.82844C4.81351 2.69176 4.72385 2.57408 4.60416 2.4939C0.715552 0.0585242 0.987186 0.21521 0.857396 0.177419C0.727605 0.139628 0.819236 0.159111 0.0370223 0.227961C0.101317 0.223161 0.165888 0.232355 0.226288 0.25491C0.337758 0.300821 3.9328 2.56781 3.96976 2.59453C4.07747 2.68526 4.15631 2.80551 4.19656 2.94048C4.23681 3.07544 4.23672 3.21922 4.19631 3.35414Z" fill="url(#paint0_linear_82_234)"/>
<defs>
<linearGradient id="paint0_linear_82_234" x1="2.63889" y1="0.428941" x2="1.97803" y2="5.07014" gradientUnits="userSpaceOnUse">
<stop stop-color="#9E6100"/>
<stop offset="0.49" stop-color="#642701"/>
<stop offset="0.65" stop-color="#682A01"/>
<stop offset="0.81" stop-color="#753401"/>
<stop offset="0.98" stop-color="#8A4401"/>
<stop offset="1" stop-color="#8C4601"/>
</linearGradient>
</defs>
</svg>
