<svg width="1" height="4" viewBox="0 0 1 4" fill="none" xmlns="http://www.w3.org/2000/svg">
<path d="M0.0108657 1.18462C0.0111026 1.19907 0.0142852 1.21331 0.0202189 1.22649C0.0261526 1.23966 0.0347115 1.25149 0.0453737 1.26124C0.0560359 1.271 0.0685791 1.27847 0.08223 1.28321C0.0958809 1.28795 0.110355 1.28985 0.124767 1.2888L0.231702 1.27614L0.249065 3.11309C0.247212 3.1411 0.255897 3.1688 0.273414 3.19075C0.290931 3.21269 0.316016 3.2273 0.343747 3.2317C0.446139 3.22755 0.548117 3.21626 0.648938 3.19792L0.625966 0.918181L0.511461 0.803179L0.00681584 0.866495C0.0111798 1.21256 0.00905535 1.1672 0.0108657 1.18462Z" fill="url(#paint0_linear_82_469)"/>
<defs>
<linearGradient id="paint0_linear_82_469" x1="-0.145599" y1="1.93689" x2="0.809138" y2="2.07284" gradientUnits="userSpaceOnUse">
<stop stop-color="#FFE6AB"/>
<stop offset="1" stop-color="#FFD778"/>
</linearGradient>
</defs>
</svg>
