<svg width="4" height="2" viewBox="0 0 4 2" fill="none" xmlns="http://www.w3.org/2000/svg">
<path d="M3.32781 0.705953C3.30678 0.702959 2.62456 0.702369 2.73571 0.705322C2.76095 0.708916 2.73572 0.705323 3.06981 0.800097L3.04282 0.914262C0.754963 0.255928 1.40872 0.441277 1.28675 0.408889C1.27203 0.406793 0.594614 0.402597 0.692548 0.407959C0.713577 0.410953 0.548639 0.363867 2.564 0.946925L3.03443 0.943105C2.9187 1.43942 2.9235 1.42079 2.91629 1.44122C2.90883 1.4685 2.8925 1.49252 2.86989 1.5095C2.84727 1.52647 2.81964 1.53545 2.79137 1.53501C3.42491 1.53081 3.38766 1.53623 3.43752 1.51759C3.51651 1.47519 3.50358 1.44546 3.65799 0.798024L3.32781 0.705953Z" fill="url(#paint0_linear_82_327)"/>
<defs>
<linearGradient id="paint0_linear_82_327" x1="2.17659" y1="0.533449" x2="2.04903" y2="1.4293" gradientUnits="userSpaceOnUse">
<stop stop-color="#9E6100"/>
<stop offset="0.49" stop-color="#642701"/>
<stop offset="0.65" stop-color="#682A01"/>
<stop offset="0.81" stop-color="#753401"/>
<stop offset="0.98" stop-color="#8A4401"/>
<stop offset="1" stop-color="#8C4601"/>
</linearGradient>
</defs>
</svg>
