<svg width="3" height="2" viewBox="0 0 3 2" fill="none" xmlns="http://www.w3.org/2000/svg">
<path d="M2.43254 0.807332C2.42955 0.828361 2.43254 0.807332 2.44973 0.957826C-0.0316994 1.35759 0.667582 1.23831 0.543529 1.26571C0.509987 1.27591 0.48121 1.29781 0.462429 1.32741C0.443648 1.35702 0.436102 1.39238 0.44116 1.42707L0.484283 1.78723L2.82905 1.41306C2.86371 1.40586 2.89466 1.38653 2.91635 1.35855C2.93803 1.33056 2.94902 1.29576 2.94733 1.2604C2.95033 1.23937 2.95003 1.24148 2.86472 0.604964L2.53521 0.658887C2.50398 0.668628 2.47692 0.68853 2.45831 0.71543C2.43971 0.742329 2.43064 0.774681 2.43254 0.807332Z" fill="url(#paint0_linear_82_543)"/>
<defs>
<linearGradient id="paint0_linear_82_543" x1="0.491445" y1="1.02871" x2="2.93297" y2="1.37636" gradientUnits="userSpaceOnUse">
<stop stop-color="#FFE6AB"/>
<stop offset="1" stop-color="#FFD778"/>
</linearGradient>
</defs>
</svg>
