<svg width="3" height="4" viewBox="0 0 3 4" fill="none" xmlns="http://www.w3.org/2000/svg">
<path d="M2.89974 2.07301C2.84132 1.91847 2.91577 2.04605 1.90065 0.531879C1.81619 0.397677 1.68334 0.301097 1.52963 0.262146C1.3887 0.24208 1.46036 0.252288 0.660601 0.340686C0.736853 0.335631 0.813323 0.34652 0.885133 0.372657C1.1503 0.478652 1.17799 0.592257 1.63553 1.28129L1.07427 1.35491L1.15709 1.8858C0.701599 1.19949 0.682222 1.3527 1.25354 0.900338L0.555809 0.991078C0.157419 1.30722 0.159455 1.29289 0.134571 1.34784C0.116247 1.38395 0.110387 1.4251 0.117906 1.46488C0.133282 1.51094 0.11791 1.46488 0.778274 2.47525L1.23069 2.41294L1.29434 2.82168L1.99309 2.72378L1.80694 1.54941C2.0941 1.98023 2.3549 2.2367 2.16745 2.71448C2.05462 2.94212 1.99695 2.95341 1.52728 3.3252C1.44967 3.38919 1.36 3.43692 1.26358 3.46556C1.18818 3.48163 1.05921 3.49738 1.90741 3.37689C2.12576 3.33243 2.16328 3.29147 2.66467 2.8852C2.78403 2.79154 2.87095 2.66274 2.91313 2.517C2.95531 2.37126 2.95063 2.21595 2.89974 2.07301Z" fill="url(#paint0_linear_130_381)"/>
<defs>
<linearGradient id="paint0_linear_130_381" x1="1.76235" y1="0.287972" x2="1.30795" y2="3.47919" gradientUnits="userSpaceOnUse">
<stop stop-color="#9E6100"/>
<stop offset="0.49" stop-color="#642701"/>
<stop offset="0.65" stop-color="#682A01"/>
<stop offset="0.81" stop-color="#753401"/>
<stop offset="0.98" stop-color="#8A4401"/>
<stop offset="1" stop-color="#8C4601"/>
</linearGradient>
</defs>
</svg>
