<svg width="4" height="3" viewBox="0 0 4 3" fill="none" xmlns="http://www.w3.org/2000/svg">
<path d="M2.60427 1.13703L3.02785 1.17588L3.06259 0.931945C3.07917 0.855048 3.06839 0.774772 3.0321 0.704973C2.99582 0.635175 2.93631 0.580231 2.86385 0.549623L1.18958 0.268313L0.469788 0.200152C0.503435 0.204943 2.13144 0.479666 2.1741 0.496469C2.22567 0.522164 2.26924 0.561445 2.30012 0.61008C2.33101 0.658716 2.34803 0.71486 2.34936 0.772457C2.35481 0.854765 2.36407 0.759533 2.17389 2.00478C2.16957 2.07848 2.13962 2.14834 2.08923 2.20229C2.03884 2.25623 1.97118 2.29087 1.89796 2.3002C2.6547 2.36505 2.59882 2.36567 2.66761 2.34972C2.87815 2.27242 2.88257 2.07565 2.91371 1.85695L2.48983 1.82019L2.60427 1.13703Z" fill="url(#paint0_linear_82_184)"/>
<defs>
<linearGradient id="paint0_linear_82_184" x1="1.78982" y1="0.347345" x2="1.51943" y2="2.24631" gradientUnits="userSpaceOnUse">
<stop stop-color="#9E6100"/>
<stop offset="0.49" stop-color="#642701"/>
<stop offset="0.65" stop-color="#682A01"/>
<stop offset="0.81" stop-color="#753401"/>
<stop offset="0.98" stop-color="#8A4401"/>
<stop offset="1" stop-color="#8C4601"/>
</linearGradient>
</defs>
</svg>
