<svg width="4" height="4" viewBox="0 0 4 4" fill="none" xmlns="http://www.w3.org/2000/svg">
<path d="M3.23614 2.05802L3.71999 2.08305L3.76285 1.78208C3.78072 1.69287 3.76711 1.60021 3.72433 1.51991C3.68155 1.4396 3.61225 1.37662 3.52823 1.34169L1.65072 0.97199C1.60534 0.965527 1.76299 0.987973 0.83111 0.925958C0.869328 0.9314 2.70964 1.28849 2.7581 1.30757C2.81626 1.33846 2.86524 1.38415 2.90008 1.44004C2.93491 1.49592 2.95437 1.56002 2.95649 1.62583C2.96029 1.71898 2.97388 1.58932 2.76947 3.02489C2.76464 3.11163 2.72771 3.19348 2.66587 3.25449C2.60403 3.31551 2.52169 3.35133 2.43489 3.35499C3.32103 3.39587 3.2429 3.39693 3.31318 3.38257C3.54687 3.29886 3.55291 3.08526 3.58557 2.85595L3.10172 2.83093C3.19397 2.35421 3.16641 2.53063 3.23614 2.05802Z" fill="url(#paint0_linear_130_270)"/>
<defs>
<linearGradient id="paint0_linear_130_270" x1="2.33182" y1="1.06653" x2="2.01483" y2="3.29274" gradientUnits="userSpaceOnUse">
<stop stop-color="#9E6100"/>
<stop offset="0.49" stop-color="#642701"/>
<stop offset="0.65" stop-color="#682A01"/>
<stop offset="0.81" stop-color="#753401"/>
<stop offset="0.98" stop-color="#8A4401"/>
<stop offset="1" stop-color="#8C4601"/>
</linearGradient>
</defs>
</svg>
