<svg width="7" height="5" viewBox="0 0 7 5" fill="none" xmlns="http://www.w3.org/2000/svg">
<path fill-rule="evenodd" clip-rule="evenodd" d="M6.10924 3.14291L5.71183 3.19146C5.70031 3.25191 5.69939 3.2564 5.68818 3.31127C5.6746 3.37774 5.64591 3.51814 5.56496 3.9215L5.96267 3.87085C5.88185 4.28579 5.87221 4.31982 5.86622 4.35448C5.86452 4.36428 5.86312 4.37414 5.86048 4.39269C5.83692 4.49295 5.78414 4.58397 5.70882 4.65422C5.63351 4.72447 5.53904 4.77079 5.43739 4.78732L4.8216 4.8627C4.90659 4.83998 4.98435 4.79591 5.04752 4.73468C5.11069 4.67345 5.15716 4.5971 5.18252 4.51287C5.21642 4.41041 5.53079 2.76017 5.54097 2.68867C5.56125 2.539 5.53173 2.38682 5.45697 2.25559C5.38222 2.12436 5.26637 2.02136 5.12729 1.96248C1.16562 0.635383 1.08293 0.597154 1.00075 0.598212C0.992572 0.598317 0.984399 0.598812 0.972409 0.598464C0.724588 0.621107 1.4281 0.547485 1.59571 0.530586C1.62857 0.526253 1.66178 0.525228 1.69484 0.527533C1.8102 0.546105 5.79444 1.88798 5.84131 1.90538C5.9744 1.97668 6.08127 2.08859 6.14638 2.22481C6.2115 2.36104 6.23145 2.51448 6.20334 2.66283L6.10924 3.14291Z" fill="url(#paint0_linear_82_243)"/>
<defs>
<linearGradient id="paint0_linear_82_243" x1="3.68362" y1="0.799988" x2="3.13864" y2="4.62735" gradientUnits="userSpaceOnUse">
<stop stop-color="#9E6100"/>
<stop offset="0.49" stop-color="#642701"/>
<stop offset="0.65" stop-color="#682A01"/>
<stop offset="0.81" stop-color="#753401"/>
<stop offset="0.98" stop-color="#8A4401"/>
<stop offset="1" stop-color="#8C4601"/>
</linearGradient>
</defs>
</svg>
