<svg width="4" height="3" viewBox="0 0 4 3" fill="none" xmlns="http://www.w3.org/2000/svg">
<path d="M0.0205248 0.294594C2.18331 0.714659 2.04953 0.661491 2.16049 0.789394C2.21893 0.867171 2.25155 0.961303 2.25376 1.05857C2.24117 1.14695 2.05275 2.47025 2.04969 2.49175C2.03737 2.56135 2.00617 2.62623 1.95951 2.67932C1.91284 2.73241 1.85249 2.77167 1.78505 2.79282C1.71715 2.80752 1.41995 2.78957 2.46407 2.83345C2.5545 2.8319 2.64103 2.79633 2.70639 2.73381C2.77176 2.6713 2.81116 2.58644 2.81673 2.49617C3.02454 1.03672 3.00754 1.15615 3.0208 1.06299C3.01945 0.993594 2.99905 0.925904 2.96183 0.867312C2.92462 0.80872 2.87202 0.761481 2.80978 0.730751C2.75416 0.710645 0.809082 0.336204 0.770864 0.330762L-0.00336295 0.291193L0.0205248 0.294594Z" fill="url(#paint0_linear_130_305)"/>
<defs>
<linearGradient id="paint0_linear_130_305" x1="1.54478" y1="0.44096" x2="1.21895" y2="2.72927" gradientUnits="userSpaceOnUse">
<stop stop-color="#9E6100"/>
<stop offset="0.49" stop-color="#642701"/>
<stop offset="0.65" stop-color="#682A01"/>
<stop offset="0.81" stop-color="#753401"/>
<stop offset="0.98" stop-color="#8A4401"/>
<stop offset="1" stop-color="#8C4601"/>
</linearGradient>
</defs>
</svg>
