<svg width="32" height="32" viewBox="0 0 32 32" fill="none" xmlns="http://www.w3.org/2000/svg">
<path d="M17.9619 28.7334C19.8731 29.6854 21.8935 30.4003 23.9781 30.8622C26.4392 31.4069 28.9682 31.578 31.4802 31.3699C32.1722 31.3027 32.2991 31.3013 31.0667 31.3817C29.8926 31.4119 30.3317 31.4087 29.1955 31.3955C26.7703 31.3228 24.368 30.9036 22.0616 30.1506C17.8787 28.7191 14.8434 26.8271 11.6664 23.8938C10.1871 22.4867 8.84774 20.9395 7.66703 19.274C3.89929 13.8487 1.59875 7.68681 1.08865 0.246937L0.542706 0.230126C1.13598 8.98567 4.54176 17.5178 10.8993 23.7017L11.3613 23.6749C12.0505 24.3458 12.5523 24.7755 13.1974 25.3109C13.2193 25.3286 13.2786 25.3224 12.7504 25.352C14.3551 26.6713 16.1033 27.8055 17.9619 28.7334Z" fill="url(#paint0_linear_130_234)"/>
<defs>
<linearGradient id="paint0_linear_130_234" x1="18.1387" y1="2.6747" x2="14.3117" y2="29.5516" gradientUnits="userSpaceOnUse">
<stop stop-color="#9E6100"/>
<stop offset="0.49" stop-color="#642701"/>
<stop offset="0.65" stop-color="#682A01"/>
<stop offset="0.81" stop-color="#753401"/>
<stop offset="0.98" stop-color="#8A4401"/>
<stop offset="1" stop-color="#8C4601"/>
</linearGradient>
</defs>
</svg>
