<svg width="3" height="4" viewBox="0 0 3 4" fill="none" xmlns="http://www.w3.org/2000/svg">
<path d="M0.971469 1.80482C1.0288 1.81298 0.958118 1.71031 1.62136 3.04277C1.34848 3.24762 1.34338 3.28345 1.27206 3.27086C2.11152 3.43426 2.05146 3.42814 2.09445 3.41721C2.13744 3.40627 2.09445 3.41721 2.38711 3.19324C1.30652 1.02636 1.36695 1.09833 1.29529 1.08812C0.38588 0.902579 0.524081 0.924695 0.559918 0.946857C0.576152 0.95804 0.589114 0.973345 0.597472 0.991198L0.934898 1.66801L0.373213 1.55635C0.288281 1.62224 0.258954 1.65706 0.205043 1.65913C0.151133 1.6612 0.947242 1.8038 0.971469 1.80482Z" fill="url(#paint0_linear_130_300)"/>
<defs>
<linearGradient id="paint0_linear_130_300" x1="1.48909" y1="1.0621" x2="1.17108" y2="3.29548" gradientUnits="userSpaceOnUse">
<stop stop-color="#9E6100"/>
<stop offset="0.49" stop-color="#642701"/>
<stop offset="0.65" stop-color="#682A01"/>
<stop offset="0.81" stop-color="#753401"/>
<stop offset="0.98" stop-color="#8A4401"/>
<stop offset="1" stop-color="#8C4601"/>
</linearGradient>
</defs>
</svg>
