<svg width="2" height="3" viewBox="0 0 2 3" fill="none" xmlns="http://www.w3.org/2000/svg">
<path d="M1.4166 0.708203C1.41525 0.6477 1.39599 0.588955 1.36125 0.539403C1.28761 0.453822 1.30114 0.479351 0.478866 0.31721C0.42485 0.312803 0.371192 0.329207 0.328876 0.363069C0.286561 0.396931 0.258789 0.445689 0.251245 0.499357C0.248251 0.520387 0.0643953 1.8116 0.0566099 1.86627C0.0535676 1.91126 0.0624128 1.95625 0.082257 1.99674C0.102101 2.03722 0.132246 2.07178 0.169666 2.09693C0.209929 2.11554 0.131814 2.09154 0.990442 2.26958C1.11031 2.28665 1.18928 2.1992 1.22017 2.08774C1.22646 2.05859 1.41452 0.767984 1.4166 0.708203Z" fill="url(#paint0_linear_82_397)"/>
<defs>
<linearGradient id="paint0_linear_82_397" x1="0.148231" y1="1.20775" x2="1.32378" y2="1.37514" gradientUnits="userSpaceOnUse">
<stop stop-color="#FFE6AB"/>
<stop offset="1" stop-color="#FFD778"/>
</linearGradient>
</defs>
</svg>
