<svg width="3" height="3" viewBox="0 0 3 3" fill="none" xmlns="http://www.w3.org/2000/svg">
<path d="M2.59839 1.8016C2.83986 1.68794 2.89022 1.43978 2.86306 1.17844C2.85305 0.966999 2.81806 0.757483 2.75884 0.554257C2.72055 0.44683 2.64633 0.355923 2.54874 0.296909C2.42825 0.238987 2.47542 0.254285 1.69828 0.242324C1.80557 0.258984 1.90405 0.311523 1.97763 0.391364C2.05121 0.471206 2.09556 0.573634 2.10342 0.681926L1.67505 0.676717L0.97849 0.837148L1.83599 1.17381L2.16793 1.17816C2.1957 1.45031 2.11442 1.73483 1.84709 1.80404C0.708386 2.056 0.887707 2.01717 0.832738 2.02651C0.777768 2.03584 0.59452 2.02691 1.49453 2.03491C1.57804 2.03607 2.55094 1.81844 2.59839 1.8016ZM1.67753 0.84013L2.10736 0.74471L2.14594 1.03128L1.67753 0.84013Z" fill="url(#paint0_linear_82_164)"/>
<defs>
<linearGradient id="paint0_linear_82_164" x1="2.04522" y1="0.201612" x2="1.76465" y2="2.17207" gradientUnits="userSpaceOnUse">
<stop stop-color="#9E6100"/>
<stop offset="0.49" stop-color="#642701"/>
<stop offset="0.65" stop-color="#682A01"/>
<stop offset="0.81" stop-color="#753401"/>
<stop offset="0.98" stop-color="#8A4401"/>
<stop offset="1" stop-color="#8C4601"/>
</linearGradient>
</defs>
</svg>
