<svg width="3" height="4" viewBox="0 0 3 4" fill="none" xmlns="http://www.w3.org/2000/svg">
<path d="M0.557956 2.12645C1.47833 3.14216 1.44114 3.14661 1.62609 3.1827C1.71863 3.18468 1.81007 3.16231 1.89125 3.11784C1.97243 3.07337 2.0405 3.00836 2.08865 2.9293C2.4334 2.4593 2.37305 2.54088 2.42829 2.46101C2.50978 2.33524 2.55023 2.18728 2.54405 2.03754C2.53787 1.88781 2.48537 1.74368 2.39378 1.62506C1.48161 0.620266 1.50241 0.593984 1.28948 0.566102C1.21657 0.567371 1.1449 0.585147 1.07985 0.618095C1.0148 0.651042 0.958057 0.698304 0.913894 0.756329C0.837165 0.850197 0.55925 1.22736 0.504698 1.31951C0.4293 1.4431 0.393947 1.58697 0.403481 1.73142C0.413015 1.87588 0.466969 2.01385 0.557956 2.12645ZM2.15379 2.09536C2.15656 2.19567 2.11767 2.21207 1.85749 2.56739L1.52801 1.35556C2.17254 2.06634 2.14522 2.01859 2.15379 2.09536ZM0.803062 1.63739C0.813946 1.56095 0.811565 1.57767 1.09323 1.19129L1.41076 2.38436C0.798316 1.70495 0.798332 1.73907 0.803062 1.63739Z" fill="url(#paint0_linear_130_515)"/>
<defs>
<linearGradient id="paint0_linear_130_515" x1="0.398425" y1="1.72356" x2="2.56014" y2="2.03136" gradientUnits="userSpaceOnUse">
<stop stop-color="#FFE6AB"/>
<stop offset="1" stop-color="#FFD778"/>
</linearGradient>
</defs>
</svg>
