<svg width="3" height="4" viewBox="0 0 3 4" fill="none" xmlns="http://www.w3.org/2000/svg">
<path d="M0.70108 1.52048C0.694792 1.56464 0.680643 1.49826 1.0367 2.34282L1.36808 2.41146L1.36128 2.65509C1.96154 2.77918 1.89184 2.75638 1.86751 2.77652C1.80715 2.82371 1.86751 2.77652 1.46721 3.05638C1.41802 3.09438 1.3617 3.12209 1.30158 3.13786C1.24146 3.15362 1.17878 3.15713 1.11728 3.14816C1.85964 3.29892 1.77823 3.28304 1.81818 3.28873C2.03117 3.29975 2.14587 3.18734 2.49423 2.95588C2.60683 2.87641 2.69165 2.76361 2.73675 2.63339C2.78185 2.50317 2.78496 2.36207 2.74564 2.22999C2.71917 2.15971 2.27499 1.09018 2.2326 1.02622C2.20854 0.977641 2.17379 0.935146 2.13095 0.901921C2.08812 0.868695 2.03832 0.845601 1.98528 0.834373C1.05425 0.637435 1.33845 0.690776 1.41658 0.729793C1.58155 0.836961 1.59962 0.951105 1.86667 1.59204L1.48061 1.50059L1.73347 1.32204L1.06291 1.17936C0.730773 1.41743 0.705537 1.41383 0.70108 1.52048ZM2.04494 2.54003C2.04195 2.56105 2.03147 2.63466 2.05432 2.02213C2.0891 2.1043 2.10624 2.19286 2.10462 2.28207C2.10301 2.37129 2.08268 2.45917 2.04494 2.54003ZM1.39083 1.58865L1.38699 1.72113C1.37794 1.7001 1.3736 1.67735 1.37427 1.65447C1.37493 1.63158 1.38058 1.60912 1.39083 1.58865Z" fill="url(#paint0_linear_82_218)"/>
<defs>
<linearGradient id="paint0_linear_82_218" x1="1.91135" y1="0.765915" x2="1.55771" y2="3.2495" gradientUnits="userSpaceOnUse">
<stop stop-color="#9E6100"/>
<stop offset="0.49" stop-color="#642701"/>
<stop offset="0.65" stop-color="#682A01"/>
<stop offset="0.81" stop-color="#753401"/>
<stop offset="0.98" stop-color="#8A4401"/>
<stop offset="1" stop-color="#8C4601"/>
</linearGradient>
</defs>
</svg>
