<svg width="7" height="7" viewBox="0 0 7 7" fill="none" xmlns="http://www.w3.org/2000/svg">
<path d="M2.21149 6.54398C2.28293 6.55042 2.35493 6.54182 2.42285 6.51875C2.49078 6.49569 2.55312 6.45866 2.60587 6.41005C2.68772 6.33153 5.84285 2.50374 5.88821 2.44196C5.98205 2.30684 6.03146 2.14584 6.02955 1.98133C6.02764 1.81683 5.97451 1.65701 5.87755 1.52411C4.72908 0.124988 4.82466 0.223896 4.70998 0.139328C4.61719 0.0832532 4.50823 0.0600553 4.40065 0.0734752C4.29307 0.086895 4.19315 0.136151 4.11698 0.213301C4.03547 0.289429 0.904563 4.11823 0.85955 4.17762C0.76816 4.31163 0.719881 4.47036 0.721175 4.63256C0.722469 4.79476 0.773274 4.9527 0.86679 5.08523C1.99036 6.48812 1.94054 6.49565 2.21149 6.54398Z" fill="url(#paint0_linear_130_524)"/>
<defs>
<linearGradient id="paint0_linear_130_524" x1="0.947027" y1="2.96423" x2="5.79356" y2="3.65433" gradientUnits="userSpaceOnUse">
<stop stop-color="#FFE6AB"/>
<stop offset="1" stop-color="#FFD778"/>
</linearGradient>
</defs>
</svg>
