<svg width="3" height="3" viewBox="0 0 3 3" fill="none" xmlns="http://www.w3.org/2000/svg">
<path d="M2.36096 1.78749C2.45126 1.7112 2.51007 1.60414 2.52605 1.48701C2.56497 1.21363 2.4757 1.0872 2.29285 0.653505C2.17739 0.409632 1.98116 0.265829 1.73428 0.372284C1.67812 0.405053 0.824633 0.959383 0.768779 1.00507C0.678427 1.09647 0.619866 1.21451 0.601749 1.34175C0.583631 1.46899 0.606918 1.59868 0.668167 1.71166C0.731298 1.90945 0.818984 2.09854 0.929173 2.2745C0.971215 2.34079 1.03275 2.39244 1.10532 2.42236C1.17789 2.45229 1.25794 2.45902 1.33449 2.44163C1.4291 2.41005 1.3321 2.45846 2.33574 1.81394L2.36096 1.78749ZM1.21143 2.01001C1.13962 1.98692 1.1381 1.93735 0.99074 1.58595L1.89435 1.59875C1.22075 2.03494 1.2613 2.02141 1.21143 2.01001ZM1.23539 1.19381C1.9213 0.746499 1.87505 0.769955 1.91771 0.771738C1.96037 0.773521 1.98712 0.811661 2.15372 1.20872L1.23539 1.19381Z" fill="url(#paint0_linear_82_421)"/>
<defs>
<linearGradient id="paint0_linear_82_421" x1="0.612686" y1="1.25748" x2="2.52006" y2="1.52907" gradientUnits="userSpaceOnUse">
<stop stop-color="#FFE6AB"/>
<stop offset="1" stop-color="#FFD778"/>
</linearGradient>
</defs>
</svg>
