<svg width="3" height="3" viewBox="0 0 3 3" fill="none" xmlns="http://www.w3.org/2000/svg">
<path d="M1.15163 2.67409C2.27388 1.9468 2.26742 1.99218 2.36183 1.75704C2.41166 1.59751 2.40871 1.42616 2.35342 1.26843C2.31071 1.15756 2.12762 0.714753 2.07503 0.621968C2.03646 0.546435 1.9792 0.482029 1.90871 0.434879C1.83821 0.387728 1.75682 0.359404 1.67228 0.352596C0.920605 0.377166 0.797084 0.371763 0.936645 0.384324C1.20657 0.439818 1.29367 0.63256 1.39067 0.858398C1.21699 0.85218 1.04309 0.860018 0.870678 0.881836C0.849869 0.891059 0.699438 0.989061 0.137972 1.3551C0.621057 1.37928 1.10506 1.37905 1.58812 1.35443C1.64069 1.53217 1.62307 1.72331 1.53889 1.88845C1.43591 2.04682 1.48025 1.99221 0.36857 2.71369C0.316691 2.74758 0.257771 2.76919 0.196288 2.77689C0.172401 2.77349 -0.0763335 2.79169 0.931924 2.74517C1.0107 2.74445 1.08736 2.71964 1.15163 2.67409ZM0.923082 1.31822L1.43611 0.984289C1.48809 1.09651 1.53438 1.21128 1.5748 1.32816L0.923082 1.31822Z" fill="url(#paint0_linear_130_282)"/>
<defs>
<linearGradient id="paint0_linear_130_282" x1="1.42966" y1="0.310738" x2="1.06029" y2="2.90479" gradientUnits="userSpaceOnUse">
<stop stop-color="#9E6100"/>
<stop offset="0.49" stop-color="#642701"/>
<stop offset="0.65" stop-color="#682A01"/>
<stop offset="0.81" stop-color="#753401"/>
<stop offset="0.98" stop-color="#8A4401"/>
<stop offset="1" stop-color="#8C4601"/>
</linearGradient>
</defs>
</svg>
