<svg width="3" height="3" viewBox="0 0 3 3" fill="none" xmlns="http://www.w3.org/2000/svg">
<path d="M2.32905 1.06957L2.74271 1.10272L2.77805 0.854574C2.79526 0.777699 2.78505 0.697227 2.7492 0.627081C2.71334 0.556935 2.6541 0.501529 2.58171 0.470449C2.53965 0.464461 2.11515 0.386853 0.924261 0.176516L0.20357 0.11466C0.237217 0.119451 1.86402 0.402586 1.90698 0.417286C1.95851 0.443558 2.00198 0.483274 2.03278 0.532229C2.06358 0.581184 2.08056 0.637558 2.08194 0.695379C2.08529 0.777387 2.08494 0.67435 1.90647 1.92771C1.90187 2.0047 1.8693 2.07737 1.81489 2.13204C1.76049 2.18672 1.68799 2.21965 1.61101 2.22464C2.36865 2.28317 2.31278 2.2838 2.38156 2.26784C2.59241 2.18844 2.59412 1.99558 2.62737 1.77717L2.20319 1.74252C2.29132 1.33454 2.26886 1.49226 2.32905 1.06957Z" fill="url(#paint0_linear_82_183)"/>
<defs>
<linearGradient id="paint0_linear_82_183" x1="1.51429" y1="0.266968" x2="1.2421" y2="2.17855" gradientUnits="userSpaceOnUse">
<stop stop-color="#9E6100"/>
<stop offset="0.49" stop-color="#642701"/>
<stop offset="0.65" stop-color="#682A01"/>
<stop offset="0.81" stop-color="#753401"/>
<stop offset="0.98" stop-color="#8A4401"/>
<stop offset="1" stop-color="#8C4601"/>
</linearGradient>
</defs>
</svg>
