<svg width="3" height="3" viewBox="0 0 3 3" fill="none" xmlns="http://www.w3.org/2000/svg">
<path d="M0.397272 1.36045C0.400614 1.44245 0.389787 1.41302 1.00314 1.92733L1.38588 1.98183L1.40212 2.01846L1.77013 2.07087C1.63536 2.30915 1.51292 2.58137 1.23865 2.57879L1.89898 2.67281C1.95897 2.67792 2.01932 2.66879 2.07511 2.64616C2.1309 2.62353 2.18056 2.58804 2.22005 2.54259C2.30442 2.44733 2.2774 2.48639 2.55205 2.00412C2.62147 1.89163 2.65419 1.76033 2.64568 1.62842C2.63717 1.4965 2.58785 1.3705 2.50455 1.26786C2.45736 1.22252 1.67091 0.567705 1.61382 0.531683C1.50625 0.473454 1.57385 0.495952 0.81078 0.385152C0.951385 0.422338 0.940277 0.440069 1.77631 1.13842C1.85535 1.21337 1.91151 1.30921 1.93825 1.4148C1.96499 1.5204 1.96123 1.63141 1.92739 1.73495L1.68198 1.12284L1.28452 1.06625L1.28722 1.04732L0.605864 0.950302C0.397252 1.31538 0.399947 1.29646 0.397272 1.36045ZM1.12784 1.33788L1.25806 1.65895C1.1063 1.53435 1.03269 1.50885 1.12784 1.33788Z" fill="url(#paint0_linear_82_176)"/>
<defs>
<linearGradient id="paint0_linear_82_176" x1="1.66547" y1="0.500416" x2="1.36723" y2="2.59495" gradientUnits="userSpaceOnUse">
<stop stop-color="#9E6100"/>
<stop offset="0.49" stop-color="#642701"/>
<stop offset="0.65" stop-color="#682A01"/>
<stop offset="0.81" stop-color="#753401"/>
<stop offset="0.98" stop-color="#8A4401"/>
<stop offset="1" stop-color="#8C4601"/>
</linearGradient>
</defs>
</svg>
