<svg width="8" height="4" viewBox="0 0 8 4" fill="none" xmlns="http://www.w3.org/2000/svg">
<path d="M1.65518 0.304923C1.48794 0.333414 1.33528 0.41774 1.22212 0.544145C1.10897 0.670549 1.04198 0.83157 1.03211 1.00094C0.821546 3.16431 0.788422 3.10598 0.935274 3.39253C0.971234 3.46213 1.02177 3.52316 1.08344 3.57148C1.14511 3.61979 1.21647 3.65425 1.29265 3.6725C1.39536 3.68713 6.17478 3.85589 6.24814 3.85415C6.32991 3.84662 6.40941 3.82316 6.48218 3.78511C6.59701 3.72159 6.69442 3.63074 6.76578 3.5206C6.83715 3.41047 6.88027 3.28445 6.89135 3.15369C7.10191 0.990312 7.09686 1.14557 7.07563 0.986571C7.06232 0.864261 7.01222 0.748867 6.93194 0.655633C6.85167 0.562399 6.74499 0.495712 6.62602 0.464382C6.51135 0.430996 1.7299 0.293629 1.65518 0.304923Z" fill="url(#paint0_linear_130_566)"/>
<defs>
<linearGradient id="paint0_linear_130_566" x1="0.941976" y1="1.63392" x2="6.97327" y2="2.49272" gradientUnits="userSpaceOnUse">
<stop stop-color="#FFE6AB"/>
<stop offset="1" stop-color="#FFD778"/>
</linearGradient>
</defs>
</svg>
