<svg width="3" height="3" viewBox="0 0 3 3" fill="none" xmlns="http://www.w3.org/2000/svg">
<path d="M0.199148 0.853468C0.175262 0.850067 0.129522 0.811874 1.88829 1.9299C1.7298 2.28995 1.75025 2.24899 1.7407 2.26469C1.73243 2.27887 1.72142 2.29124 1.70829 2.30109C1.69517 2.31094 1.68021 2.31807 1.6643 2.32205C1.63325 2.31763 1.49471 2.2979 2.41433 2.42885C2.4379 2.43074 2.46148 2.42538 2.48191 2.41347C2.50233 2.40157 2.51863 2.3837 2.5286 2.36226C2.53064 2.34793 2.5235 2.39809 2.67245 2.03668L0.978183 0.96196C0.576892 0.90482 0.994903 0.96434 0.956685 0.958898C0.918467 0.953457 0.0995139 0.851467 0.161618 0.86031C0.192663 0.847671 0.174234 0.840172 0.199148 0.853468ZM0.404571 0.882718C0.469064 0.891902 0.452344 0.889521 0.342467 0.873875L0.404571 0.882718Z" fill="url(#paint0_linear_130_260)"/>
<defs>
<linearGradient id="paint0_linear_130_260" x1="1.48013" y1="1.01393" x2="1.30021" y2="2.27752" gradientUnits="userSpaceOnUse">
<stop stop-color="#9E6100"/>
<stop offset="0.49" stop-color="#642701"/>
<stop offset="0.65" stop-color="#682A01"/>
<stop offset="0.81" stop-color="#753401"/>
<stop offset="0.98" stop-color="#8A4401"/>
<stop offset="1" stop-color="#8C4601"/>
</linearGradient>
</defs>
</svg>
