<svg width="3" height="4" viewBox="0 0 3 4" fill="none" xmlns="http://www.w3.org/2000/svg">
<path d="M1.31097 3.10655C0.970822 3.2019 0.990271 3.20223 0.949664 3.19645C1.7045 3.37217 1.69837 3.38104 1.74408 3.36806L2.05625 3.28091L1.73949 0.79874C1.73857 0.774745 1.73051 0.751573 1.71633 0.732188C1.70216 0.712804 1.68253 0.69809 1.65994 0.68993C1.41954 0.613014 1.17388 0.5536 0.924893 0.512154C1.01329 0.55886 0.993522 0.612097 1.07192 1.1911L0.601 1.0753C0.456005 1.11802 0.471017 1.11528 0.444401 1.11393C0.417786 1.11258 0.468288 1.11733 1.0781 1.26753L1.31097 3.10655Z" fill="url(#paint0_linear_130_327)"/>
<defs>
<linearGradient id="paint0_linear_130_327" x1="1.47393" y1="0.575709" x2="1.08824" y2="3.28442" gradientUnits="userSpaceOnUse">
<stop stop-color="#9E6100"/>
<stop offset="0.49" stop-color="#642701"/>
<stop offset="0.65" stop-color="#682A01"/>
<stop offset="0.81" stop-color="#753401"/>
<stop offset="0.98" stop-color="#8A4401"/>
<stop offset="1" stop-color="#8C4601"/>
</linearGradient>
</defs>
</svg>
