<svg width="4" height="4" viewBox="0 0 4 4" fill="none" xmlns="http://www.w3.org/2000/svg">
<path d="M2.87728 1.58922L3.36011 1.62142L3.39038 1.40883C3.40905 1.32093 3.39686 1.22928 3.35587 1.14932C3.31488 1.06935 3.24759 1.00595 3.16532 0.969793C3.11994 0.96333 2.64083 0.870741 1.28748 0.619546C1.2397 0.612744 1.39735 0.635191 0.467519 0.558844C0.505737 0.564286 2.35082 0.904993 2.39928 0.924078C2.45764 0.954125 2.50687 0.999285 2.54183 1.05485C2.57678 1.11041 2.59619 1.17433 2.59801 1.23995C2.60556 1.34095 2.61234 1.24199 2.3987 2.63969C2.39445 2.72691 2.35772 2.80939 2.29575 2.87091C2.23378 2.93244 2.15104 2.96856 2.06379 2.97218C2.93595 3.02569 2.86975 3.02845 2.94037 3.0117C3.19692 2.9215 3.18964 2.66458 3.22807 2.39466L2.74525 2.36247L2.87728 1.58922Z" fill="url(#paint0_linear_130_272)"/>
<defs>
<linearGradient id="paint0_linear_130_272" x1="1.95868" y1="0.71512" x2="1.64577" y2="2.91266" gradientUnits="userSpaceOnUse">
<stop stop-color="#9E6100"/>
<stop offset="0.49" stop-color="#642701"/>
<stop offset="0.65" stop-color="#682A01"/>
<stop offset="0.81" stop-color="#753401"/>
<stop offset="0.98" stop-color="#8A4401"/>
<stop offset="1" stop-color="#8C4601"/>
</linearGradient>
</defs>
</svg>
