<svg width="3" height="3" viewBox="0 0 3 3" fill="none" xmlns="http://www.w3.org/2000/svg">
<path d="M0.156833 1.13348C0.164472 1.42214 0.180149 1.3805 0.993116 2.56857C1.02382 2.61801 1.06499 2.66012 1.11372 2.69192C1.16246 2.72373 1.21757 2.74447 1.27519 2.75267C1.33281 2.76088 1.39152 2.75635 1.4472 2.73941C1.50287 2.72247 1.55416 2.69352 1.59744 2.65462C1.72125 2.55527 2.05922 2.18422 2.09401 2.14531C2.19247 2.02824 2.25131 1.88299 2.26209 1.73041C2.27288 1.57782 2.23504 1.42575 2.15402 1.296C1.33388 0.106917 1.42538 0.217427 1.34311 0.144787C0.980612 -0.150536 0.691458 0.271333 0.367124 0.615081C0.235087 0.755772 0.160126 0.940561 0.156833 1.13348ZM1.85668 1.72402C1.84307 1.81956 1.84341 1.81717 1.50918 2.16195L1.31581 0.884205C1.89353 1.72195 1.85528 1.64827 1.85668 1.72402ZM0.561478 1.06437C0.573382 0.980766 0.571002 0.997485 0.900113 0.654417L1.09313 1.90043C0.530442 1.09407 0.553671 1.15343 0.561478 1.06437Z" fill="url(#paint0_linear_130_522)"/>
<defs>
<linearGradient id="paint0_linear_130_522" x1="0.135731" y1="1.24745" x2="2.2855" y2="1.55356" gradientUnits="userSpaceOnUse">
<stop stop-color="#FFE6AB"/>
<stop offset="1" stop-color="#FFD778"/>
</linearGradient>
</defs>
</svg>
