<svg width="3" height="4" viewBox="0 0 3 4" fill="none" xmlns="http://www.w3.org/2000/svg">
<path d="M2.78321 2.41729C2.76812 2.24942 2.80469 2.40329 2.28901 0.667787C2.26196 0.553259 2.20252 0.448939 2.11777 0.367294C2.03303 0.285648 1.92656 0.230125 1.8111 0.207366C1.67017 0.187299 1.72989 0.195803 0.869411 0.316985C1.02079 0.287616 1.17765 0.318065 1.30704 0.401931C1.43644 0.485798 1.5283 0.616555 1.5633 0.766726L0.873077 0.873157C0.403638 1.02077 0.42513 1.00678 0.385226 1.0474C0.305088 1.14809 0.335453 1.14023 0.678563 2.3077L1.13507 2.23379L1.05344 2.80706L1.7771 2.68833L1.89206 1.88097C2.02909 2.33916 2.19609 2.65538 1.89258 3.02403C1.83826 3.08504 1.77149 3.13371 1.69679 3.16675C1.6016 3.20194 1.18505 3.33758 1.05165 3.36733C1.49684 3.32136 1.93455 3.21994 2.3546 3.06544C2.48824 3.02091 2.60309 2.93286 2.68079 2.81536C2.75849 2.69786 2.79455 2.5577 2.78321 2.41729ZM1.24762 1.39197L1.22075 1.58067C1.00341 0.847851 0.952626 0.964908 1.56228 0.773892C1.56228 0.773892 1.72972 1.30952 1.7287 1.31668L1.24762 1.39197Z" fill="url(#paint0_linear_130_360)"/>
<defs>
<linearGradient id="paint0_linear_130_360" x1="1.79439" y1="0.204986" x2="1.33931" y2="3.40098" gradientUnits="userSpaceOnUse">
<stop stop-color="#9E6100"/>
<stop offset="0.49" stop-color="#642701"/>
<stop offset="0.65" stop-color="#682A01"/>
<stop offset="0.81" stop-color="#753401"/>
<stop offset="0.98" stop-color="#8A4401"/>
<stop offset="1" stop-color="#8C4601"/>
</linearGradient>
</defs>
</svg>
