<svg width="3" height="3" viewBox="0 0 3 3" fill="none" xmlns="http://www.w3.org/2000/svg">
<path d="M2.20819 2.02709C2.12835 2.03131 2.04888 2.04078 1.97029 2.05544C0.75053 0.465675 0.83167 0.528721 0.736738 0.51735C0.713606 0.514056 0.0128106 0.598792 0.112541 0.591536C0.212271 0.584281 0.144961 0.544659 1.42754 2.22061L1.71831 2.18263L1.89866 2.42287C1.43684 2.84845 1.46237 2.83492 1.4092 2.84666C1.62612 2.83407 1.84157 2.80302 2.05322 2.75383C2.07694 2.7379 2.01058 2.79711 2.50664 2.34208C2.31546 2.08742 2.2914 2.03036 2.20819 2.02709Z" fill="url(#paint0_linear_82_294)"/>
<defs>
<linearGradient id="paint0_linear_82_294" x1="1.42861" y1="0.615865" x2="1.11689" y2="2.80503" gradientUnits="userSpaceOnUse">
<stop stop-color="#9E6100"/>
<stop offset="0.49" stop-color="#642701"/>
<stop offset="0.65" stop-color="#682A01"/>
<stop offset="0.81" stop-color="#753401"/>
<stop offset="0.98" stop-color="#8A4401"/>
<stop offset="1" stop-color="#8C4601"/>
</linearGradient>
</defs>
</svg>
