<svg width="8" height="7" viewBox="0 0 8 7" fill="none" xmlns="http://www.w3.org/2000/svg">
<path d="M1.17089 3.75361C1.28627 3.86752 0.928917 3.63873 5.68533 6.46792C5.79645 6.53245 5.92511 6.56026 6.05297 6.5474C6.18083 6.53454 6.30136 6.48165 6.3974 6.39628C6.59796 6.22012 6.53315 6.28157 7.54668 4.33245C7.62437 4.19123 7.65723 4.0297 7.64088 3.86934C7.62454 3.70899 7.55976 3.55741 7.45517 3.43477C7.33706 3.32291 7.7084 3.55612 2.90866 0.740258C2.7578 0.662256 2.58231 0.64674 2.4201 0.69706C2.2579 0.747381 2.12199 0.859497 2.04177 1.00919C2.01313 1.05629 1.08346 2.84432 1.02689 3.00198C0.983015 3.12891 0.97322 3.26513 0.998489 3.39703C1.02376 3.52893 1.0832 3.65188 1.17089 3.75361Z" fill="url(#paint0_linear_130_581)"/>
<defs>
<linearGradient id="paint0_linear_130_581" x1="0.997953" y1="3.13677" x2="7.63119" y2="4.08128" gradientUnits="userSpaceOnUse">
<stop stop-color="#FFE6AB"/>
<stop offset="1" stop-color="#FFD778"/>
</linearGradient>
</defs>
</svg>
