<svg width="4" height="4" viewBox="0 0 4 4" fill="none" xmlns="http://www.w3.org/2000/svg">
<path d="M0.673602 0.810953C2.82751 1.20782 2.70328 1.15601 2.81662 1.28426C2.87612 1.36147 2.90887 1.45596 2.9099 1.55343C2.89731 1.64181 2.70855 2.9675 2.70583 2.98661C2.69291 3.05307 2.66296 3.11503 2.6189 3.16643C2.57484 3.21783 2.51819 3.2569 2.45449 3.27982C2.38421 3.29419 2.09007 3.2718 3.13148 3.33479C3.22182 3.33213 3.3079 3.29577 3.37278 3.23285C3.43766 3.16992 3.47666 3.085 3.48209 2.99479C3.68956 1.53772 3.67323 1.65237 3.68616 1.56161C3.68124 1.49009 3.65663 1.42132 3.61505 1.36293C3.57347 1.30453 3.51654 1.25878 3.45057 1.23074C3.39563 1.22292 1.44681 0.857688 1.40859 0.852246L0.636064 0.800733L0.673602 0.810953Z" fill="url(#paint0_linear_130_307)"/>
<defs>
<linearGradient id="paint0_linear_130_307" x1="2.19684" y1="0.964485" x2="1.87543" y2="3.22174" gradientUnits="userSpaceOnUse">
<stop stop-color="#9E6100"/>
<stop offset="0.49" stop-color="#642701"/>
<stop offset="0.65" stop-color="#682A01"/>
<stop offset="0.81" stop-color="#753401"/>
<stop offset="0.98" stop-color="#8A4401"/>
<stop offset="1" stop-color="#8C4601"/>
</linearGradient>
</defs>
</svg>
