<svg width="4" height="4" viewBox="0 0 4 4" fill="none" xmlns="http://www.w3.org/2000/svg">
<path d="M2.77238 1.87372L3.19746 1.90207L3.22411 1.7149C3.24055 1.63752 3.22982 1.55683 3.19373 1.48643C3.15764 1.41603 3.09839 1.36021 3.02597 1.32838C2.98601 1.32269 2.56421 1.24117 1.37272 1.02002C1.33066 1.01403 1.46945 1.0338 0.650828 0.96658C0.684475 0.971371 2.30888 1.27133 2.35155 1.28813C2.40293 1.31458 2.44627 1.35434 2.47704 1.40326C2.50782 1.45217 2.5249 1.50846 2.52651 1.56622C2.53316 1.65514 2.53913 1.56802 2.35104 2.79855C2.34729 2.87534 2.31496 2.94795 2.2604 3.00212C2.20584 3.05629 2.13299 3.08809 2.05618 3.09128C2.82402 3.13839 2.76575 3.14082 2.82792 3.12607C3.05379 3.04666 3.04738 2.82046 3.08121 2.58283L2.65613 2.55448L2.77238 1.87372Z" fill="url(#paint0_linear_82_180)"/>
<defs>
<linearGradient id="paint0_linear_82_180" x1="1.96364" y1="1.10416" x2="1.68816" y2="3.03888" gradientUnits="userSpaceOnUse">
<stop stop-color="#9E6100"/>
<stop offset="0.49" stop-color="#642701"/>
<stop offset="0.65" stop-color="#682A01"/>
<stop offset="0.81" stop-color="#753401"/>
<stop offset="0.98" stop-color="#8A4401"/>
<stop offset="1" stop-color="#8C4601"/>
</linearGradient>
</defs>
</svg>
