<svg width="2" height="3" viewBox="0 0 2 3" fill="none" xmlns="http://www.w3.org/2000/svg">
<path d="M0.138189 0.905272C0.14055 0.91841 0.145636 0.930908 0.153121 0.941961C0.160605 0.953014 0.170323 0.962377 0.181646 0.969447C0.192969 0.976517 0.205646 0.981136 0.218863 0.983008C0.23208 0.98488 0.245543 0.983963 0.258384 0.980316L0.364409 0.94392C0.706872 2.92371 0.665301 2.67319 0.671624 2.70413C0.673985 2.71727 0.679071 2.72977 0.686555 2.74082C0.69404 2.75187 0.703756 2.76124 0.71508 2.76831C0.726403 2.77538 0.739081 2.78 0.752298 2.78187C0.765515 2.78374 0.778978 2.78282 0.791819 2.77918L1.06724 2.68322C0.575393 -0.146033 0.711543 0.660782 0.689547 0.513896C0.6872 0.500098 0.681853 0.486985 0.673882 0.475481C0.66591 0.463977 0.655509 0.454364 0.643414 0.447321C0.631319 0.440278 0.617826 0.435977 0.603887 0.434722C0.589947 0.433466 0.575902 0.435287 0.562743 0.440056L0.0839815 0.607899L0.138189 0.905272Z" fill="url(#paint0_linear_82_456)"/>
<defs>
<linearGradient id="paint0_linear_82_456" x1="-0.0432803" y1="1.50165" x2="1.21008" y2="1.68012" gradientUnits="userSpaceOnUse">
<stop stop-color="#FFE6AB"/>
<stop offset="1" stop-color="#FFD778"/>
</linearGradient>
</defs>
</svg>
