<svg width="4" height="3" viewBox="0 0 4 3" fill="none" xmlns="http://www.w3.org/2000/svg">
<path d="M3.33413 1.11632C3.35276 1.02819 3.34095 0.936344 3.30063 0.855794C3.2603 0.775243 3.19386 0.710751 3.11214 0.67285C3.08109 0.668428 1.24519 0.280285 1.17695 0.280316C1.11332 0.287637 1.05322 0.313425 1.00406 0.354496C0.954909 0.395566 0.918851 0.450123 0.900335 0.511443C0.874099 0.593004 0.906117 0.47084 0.704767 1.88491C0.685592 1.97273 0.696892 2.06447 0.736807 2.14501C0.776722 2.22556 0.842872 2.29011 0.924368 2.32804C0.950643 2.33178 2.78313 2.72675 2.85581 2.72979C2.89705 2.72686 2.9372 2.71522 2.9736 2.69561C3.01 2.67601 3.04183 2.64889 3.06696 2.61607C3.16142 2.48329 3.13753 2.47989 3.33413 1.11632Z" fill="url(#paint0_linear_130_499)"/>
<defs>
<linearGradient id="paint0_linear_130_499" x1="0.77446" y1="1.327" x2="3.25625" y2="1.68038" gradientUnits="userSpaceOnUse">
<stop stop-color="#FFE6AB"/>
<stop offset="1" stop-color="#FFD778"/>
</linearGradient>
</defs>
</svg>
