<svg width="1" height="4" viewBox="0 0 1 4" fill="none" xmlns="http://www.w3.org/2000/svg">
<path d="M0.0748644 1.26267C0.0763246 1.27619 0.0805889 1.28925 0.0873852 1.30102C0.0941815 1.3128 0.103361 1.32302 0.114335 1.33105C0.125309 1.33907 0.137835 1.34472 0.151115 1.34763C0.164396 1.35053 0.178136 1.35064 0.191459 1.34793L0.301092 1.31634C0.593847 3.64522 0.507331 2.98708 0.526911 3.10573C0.528697 3.11915 0.533139 3.13208 0.539977 3.14377C0.546815 3.15545 0.555914 3.16566 0.56674 3.17379C0.577566 3.18193 0.589903 3.18782 0.603032 3.19113C0.616161 3.19445 0.629817 3.19511 0.643206 3.19309L0.924946 3.11305C0.559838 0.222458 0.671366 1.05152 0.645763 0.899824C0.644003 0.886437 0.639545 0.873545 0.632661 0.86193C0.625776 0.850314 0.616608 0.840216 0.605709 0.832246C0.594809 0.824276 0.582405 0.818599 0.569249 0.81556C0.556093 0.812521 0.542457 0.812181 0.529167 0.814563L0.0344716 0.958682C0.0778795 1.2867 0.0709511 1.24495 0.0748644 1.26267Z" fill="url(#paint0_linear_82_460)"/>
<defs>
<linearGradient id="paint0_linear_82_460" x1="-0.100276" y1="1.90501" x2="1.07317" y2="2.0721" gradientUnits="userSpaceOnUse">
<stop stop-color="#FFE6AB"/>
<stop offset="1" stop-color="#FFD778"/>
</linearGradient>
</defs>
</svg>
