<svg width="3" height="4" viewBox="0 0 3 4" fill="none" xmlns="http://www.w3.org/2000/svg">
<path d="M1.01283 2.33673C1.82312 3.23095 1.79038 3.23487 1.95321 3.26664C2.03468 3.26838 2.11518 3.24869 2.18665 3.20954C2.25812 3.17039 2.31806 3.11315 2.36045 3.04355C2.66397 2.62976 2.61083 2.70158 2.65946 2.63127C2.73121 2.52054 2.76682 2.39028 2.76138 2.25845C2.75594 2.12662 2.70971 1.99973 2.62908 1.8953C1.82601 1.01068 1.84432 0.987543 1.65686 0.962996C1.59267 0.964113 1.52957 0.979763 1.4723 1.00877C1.41503 1.03778 1.36507 1.07939 1.32619 1.13047C1.25864 1.21311 1.01397 1.54517 0.965938 1.6263C0.899558 1.7351 0.868433 1.86176 0.876827 1.98894C0.88522 2.11612 0.932722 2.23759 1.01283 2.33673ZM2.41779 2.30935C2.42023 2.39766 2.386 2.4121 2.15693 2.72492L1.86686 1.65803C2.4343 2.28381 2.41025 2.24176 2.41779 2.30935ZM1.22862 1.90615C1.2382 1.83886 1.2361 1.85358 1.48408 1.51341L1.76363 2.56379C1.22444 1.96563 1.22445 1.99567 1.22862 1.90615Z" fill="url(#paint0_linear_82_423)"/>
<defs>
<linearGradient id="paint0_linear_82_423" x1="0.872376" y1="1.98202" x2="2.77554" y2="2.25301" gradientUnits="userSpaceOnUse">
<stop stop-color="#FFE6AB"/>
<stop offset="1" stop-color="#FFD778"/>
</linearGradient>
</defs>
</svg>
