<svg width="28" height="8" viewBox="0 0 28 8" fill="none" xmlns="http://www.w3.org/2000/svg">
<path d="M27.4483 4.37572C25.2035 5.33906 22.8329 5.97801 20.408 6.27335C17.9139 6.57751 15.3881 6.50216 12.9166 6.04987C10.7555 5.65628 8.65326 4.98924 6.66059 4.06483C4.81156 3.20911 3.0644 2.14859 1.45192 0.90317C0.783588 0.376646 0.888379 0.46224 0.760034 0.353794L0.359421 1.02787C2.21692 2.56075 4.26395 3.84823 6.45008 4.85859C8.76191 5.92577 11.2131 6.66043 13.7308 7.04071C16.2344 7.41558 18.7796 7.41913 21.2842 7.05125C23.1935 6.76791 25.0657 6.27525 26.8671 5.58216C27.9216 5.1596 27.7688 5.22314 27.8032 5.20368C27.7373 5.06757 27.8029 5.22313 27.4483 4.37572Z" fill="#FFE082"/>
</svg>
