<svg width="29" height="70" viewBox="0 0 29 70" fill="none" xmlns="http://www.w3.org/2000/svg">
<path d="M0.675795 69.2794C3.21498 69.0192 5.70215 68.3873 8.0576 67.4039C10.8352 66.1902 12.5016 65.2003 15.0148 63.2666C17.2316 61.4942 19.2059 59.438 20.887 57.1511C22.6292 54.7796 24.0714 52.2017 25.181 49.4763C26.3413 46.6231 27.1624 43.6434 27.6273 40.5986C28.1037 37.5242 28.2231 34.405 27.9832 31.3031C27.7494 28.2811 27.1604 25.2971 26.2281 22.4129C25.3158 19.5948 24.0602 16.8997 22.4896 14.3882C20.6387 11.55 19.3339 9.96955 17.1028 7.8281C14.7995 5.75579 13.243 4.66304 10.6177 3.27008C8.48563 2.18521 6.2166 1.39371 3.87233 0.917114C6.38027 1.46967 8.7942 2.38513 11.0378 3.63457C12.055 4.22139 11.6896 3.99986 12.6388 4.59632C13.0723 4.68595 12.9903 4.65925 13.073 4.71178C13.3155 4.86217 14.3489 5.57575 14.8817 5.99277L14.5103 5.91844C15.8072 6.91306 17.0198 8.0129 18.1359 9.20677C20.3041 11.5946 21.5287 13.3009 23.1774 16.2327C24.597 18.8583 25.6921 21.6469 26.4385 24.537C27.2037 27.4966 27.62 30.5356 27.6788 33.592C27.7369 36.7204 27.436 39.8451 26.7818 42.9048C25.8554 46.9397 24.6878 50.2879 22.4414 54.1605L22.8066 54.1417C22.2895 55.0314 21.8335 55.7024 21.4573 56.2646L21.0914 56.2876C20.5511 57.0689 20.1974 57.5185 19.8041 58.0354C18.0547 60.2644 16.0178 62.252 13.7465 63.9464C12.647 64.7639 11.4927 65.5049 10.2917 66.1644C9.13571 66.7982 7.9359 67.3487 6.70148 67.8116C4.9133 68.4832 3.05653 68.9556 1.16482 69.2203C0.291903 69.3235 -0.188113 69.3795 0.675795 69.2794Z" fill="url(#paint0_linear_82_150)"/>
<defs>
<linearGradient id="paint0_linear_82_150" x1="18.2826" y1="2.96256" x2="8.66104" y2="70.5345" gradientUnits="userSpaceOnUse">
<stop stop-color="#9E6100"/>
<stop offset="0.49" stop-color="#642701"/>
<stop offset="0.65" stop-color="#682A01"/>
<stop offset="0.81" stop-color="#753401"/>
<stop offset="0.98" stop-color="#8A4401"/>
<stop offset="1" stop-color="#8C4601"/>
</linearGradient>
</defs>
</svg>
