<svg width="4" height="7" viewBox="0 0 4 7" fill="none" xmlns="http://www.w3.org/2000/svg">
<path d="M2.09338 5.97546L2.50163 5.97136L2.92693 5.83238C3.05169 5.77614 3.1539 5.67956 3.21711 5.55818C3.28031 5.4368 3.30084 5.29769 3.27539 5.16323C3.26726 5.11487 2.32798 0.681372 2.28586 0.555222C2.25649 0.463041 2.19959 0.382068 2.12282 0.32319C2.04604 0.264311 1.95309 0.230351 1.85644 0.225878C0.905963 0.210692 1.17151 0.199158 1.29499 0.236051C1.35389 0.257042 1.40766 0.290289 1.45275 0.333604C1.63939 0.529681 1.53411 0.22933 2.57303 5.10827C2.60821 5.2427 2.59849 5.38494 2.54535 5.51333C2.4922 5.64172 2.39855 5.74922 2.27866 5.81946C2.2261 5.84202 0.990434 6.24752 0.903928 6.26739C0.876589 6.2635 0.647988 6.27171 1.54829 6.26258C1.63901 6.25834 1.60086 6.27007 1.94086 6.15756L1.52421 6.16046L2.09338 5.97546Z" fill="url(#paint0_linear_82_196)"/>
<defs>
<linearGradient id="paint0_linear_82_196" x1="2.57595" y1="0.326184" x2="1.71326" y2="6.38477" gradientUnits="userSpaceOnUse">
<stop stop-color="#9E6100"/>
<stop offset="0.49" stop-color="#642701"/>
<stop offset="0.65" stop-color="#682A01"/>
<stop offset="0.81" stop-color="#753401"/>
<stop offset="0.98" stop-color="#8A4401"/>
<stop offset="1" stop-color="#8C4601"/>
</linearGradient>
</defs>
</svg>
