<svg width="29" height="28" viewBox="0 0 29 28" fill="none" xmlns="http://www.w3.org/2000/svg">
<path d="M16.0961 25.4559C17.7787 26.294 19.5574 26.9234 21.3927 27.3301C23.5594 27.8096 25.786 27.9603 27.9975 27.777C28.6067 27.7179 28.7185 27.7166 27.6334 27.7874C26.5998 27.814 26.9864 27.8112 25.986 27.7996C23.8509 27.7356 21.7359 27.3665 19.7053 26.7036C16.0228 25.4433 13.3505 23.7776 10.5535 21.1951C9.25114 19.9563 8.07193 18.5942 7.03244 17.1278C3.71532 12.3514 1.68994 6.9265 1.24085 0.376456L0.760199 0.361656C1.28252 8.07002 4.28096 15.5817 9.87812 21.026L10.2849 21.0024C10.8916 21.593 11.3334 21.9713 11.9014 22.4427C11.9206 22.4583 11.9729 22.4529 11.5079 22.4789C12.9206 23.6404 14.4597 24.639 16.0961 25.4559Z" fill="url(#paint0_linear_82_142)"/>
<defs>
<linearGradient id="paint0_linear_82_142" x1="16.2517" y1="2.51385" x2="12.8824" y2="26.1762" gradientUnits="userSpaceOnUse">
<stop stop-color="#9E6100"/>
<stop offset="0.49" stop-color="#642701"/>
<stop offset="0.65" stop-color="#682A01"/>
<stop offset="0.81" stop-color="#753401"/>
<stop offset="0.98" stop-color="#8A4401"/>
<stop offset="1" stop-color="#8C4601"/>
</linearGradient>
</defs>
</svg>
