<svg width="3" height="4" viewBox="0 0 3 4" fill="none" xmlns="http://www.w3.org/2000/svg">
<path d="M1.12314 1.60125C1.13091 1.61409 1.14144 1.62503 1.15396 1.63331C1.16648 1.64158 1.18067 1.64697 1.19553 1.64908C1.21039 1.6512 1.22553 1.64999 1.23986 1.64554C1.25419 1.64109 1.26735 1.63351 1.2784 1.62336L1.37458 1.54688L2.20039 3.20957C2.20612 3.22336 2.21483 3.23571 2.22589 3.24575C2.23695 3.25578 2.25009 3.26325 2.26437 3.26761C2.27866 3.27197 2.29373 3.27312 2.30851 3.27098C2.32329 3.26884 2.33741 3.26346 2.34987 3.25522C2.36181 3.25692 2.62274 3.05037 2.62274 3.05037L1.59748 0.99129C1.59181 0.978092 1.58339 0.966252 1.57278 0.956557C1.56218 0.946861 1.54964 0.939531 1.53599 0.935052C1.52234 0.930573 1.50789 0.929048 1.4936 0.930578C1.47932 0.932109 1.46552 0.936659 1.45313 0.943927C1.43437 0.955878 1.48894 0.914908 0.977993 1.31982L1.12314 1.60125Z" fill="url(#paint0_linear_130_528)"/>
<defs>
<linearGradient id="paint0_linear_130_528" x1="0.887862" y1="1.95281" x2="2.73905" y2="2.2164" gradientUnits="userSpaceOnUse">
<stop stop-color="#FFE6AB"/>
<stop offset="1" stop-color="#FFD778"/>
</linearGradient>
</defs>
</svg>
