<svg width="32" height="81" viewBox="0 0 32 81" fill="none" xmlns="http://www.w3.org/2000/svg">
<path d="M5.01682 79.1396C6.48633 78.6683 7.92048 78.0931 9.30847 77.4185C10.7464 76.7156 12.1338 75.9138 13.4607 75.0188C14.8305 74.0865 16.136 73.0631 17.3684 71.9556C18.6183 70.8335 19.7931 69.6303 20.8851 68.354C21.9943 67.0534 23.0199 65.6838 23.9557 64.2533C24.9084 62.7903 25.7698 61.2699 26.535 59.7007C28.2765 55.9837 29.1162 53.5221 30.0531 49.4738C30.8956 45.2747 31.1476 42.6007 31.1211 38.4023C30.9723 34.2487 30.6151 31.6639 29.6196 27.6558C28.5258 23.7646 27.5917 21.4045 25.693 17.8321C24.8502 16.3104 23.9126 14.8433 22.8856 13.4394C21.8977 12.0821 20.8214 10.7913 19.6638 9.57559C18.5466 8.40683 17.3507 7.31606 16.0842 6.31096C14.8575 5.33822 13.564 4.45285 12.2132 3.66139C10.8953 2.89019 9.52374 2.21449 8.10914 1.63947C6.71496 1.07649 5.28215 0.614338 3.82178 0.256577C2.91416 0.0307905 3.52525 0.184316 4.46833 0.432317C6.6581 1.05074 8.77299 1.90881 10.7746 2.99095C12.143 3.72901 13.4584 4.56153 14.711 5.48248C16.0009 6.43787 17.2246 7.47948 18.3737 8.60018C19.5642 9.76798 20.6771 11.0123 21.7054 12.3251C22.7723 13.6879 23.7513 15.1172 24.6363 16.6045C25.5319 18.1151 26.3324 19.6802 27.0329 21.2906C28.591 25.0248 29.3236 27.4892 30.078 31.5488C30.7137 35.643 30.8507 38.2822 30.6288 42.5225C30.2778 46.8259 29.7791 49.4691 28.6019 53.4574C28.0671 55.1772 27.4294 56.8633 26.6922 58.5066C25.9713 60.1106 25.1518 61.6686 24.2385 63.1714C23.3418 64.642 22.3524 66.0541 21.2764 67.3991C20.2206 68.7185 19.0795 69.9672 17.8604 71.1374C16.6583 72.29 15.3798 73.3603 14.0336 74.3408C12.7235 75.2942 11.3491 76.1559 9.92015 76.9198C8.5479 77.6563 7.12489 78.294 5.66194 78.8281C4.23821 79.3395 2.77908 79.7462 1.29616 80.0452C0.316036 80.2232 -0.260995 80.3127 0.648558 80.1783C2.12775 79.9377 3.58764 79.5906 5.01682 79.1396Z" fill="url(#paint0_linear_82_153)"/>
<defs>
<linearGradient id="paint0_linear_82_153" x1="19.9535" y1="2.50852" x2="8.71222" y2="81.4552" gradientUnits="userSpaceOnUse">
<stop stop-color="#9E6100"/>
<stop offset="0.49" stop-color="#642701"/>
<stop offset="0.65" stop-color="#682A01"/>
<stop offset="0.81" stop-color="#753401"/>
<stop offset="0.98" stop-color="#8A4401"/>
<stop offset="1" stop-color="#8C4601"/>
</linearGradient>
</defs>
</svg>
