<svg width="4" height="4" viewBox="0 0 4 4" fill="none" xmlns="http://www.w3.org/2000/svg">
<path d="M0.615417 2.18072C0.664937 2.27794 0.615413 2.18072 0.931983 2.76438C0.970678 2.84529 1.02653 2.9168 1.09566 2.97394C1.16478 3.03108 1.24551 3.07248 1.33225 3.09527C1.41899 3.11806 1.50966 3.12168 1.59794 3.10589C1.68622 3.0901 1.77 3.05528 1.84347 3.00384C3.29078 2.03038 3.30479 2.06893 3.43295 1.78499C3.46622 1.69372 3.48077 1.59668 3.47574 1.49967C3.47072 1.40265 3.44622 1.30764 3.4037 1.2203C3.3412 1.09442 3.08268 0.6165 3.01678 0.514508C2.94351 0.411365 2.83943 0.334099 2.7195 0.293814C2.59956 0.25353 2.46994 0.252298 2.34926 0.290296C2.19472 0.348714 2.31582 0.285534 0.847021 1.27299C0.707089 1.37229 0.606985 1.51807 0.564564 1.68433C0.522143 1.85059 0.540167 2.02651 0.615417 2.18072ZM2.51398 0.827969C2.62386 0.843614 2.61671 0.893776 2.86703 1.34372L1.5036 1.47127C2.50577 0.799993 2.44369 0.825271 2.52354 0.829329L2.51398 0.827969ZM2.50354 1.89392C1.47886 2.58636 1.54743 2.54982 1.48397 2.55053C1.37409 2.53489 1.37646 2.50111 1.11522 2.02524L2.50354 1.89392Z" fill="url(#paint0_linear_130_618)"/>
<defs>
<linearGradient id="paint0_linear_130_618" x1="0.587459" y1="1.48705" x2="3.43232" y2="1.89213" gradientUnits="userSpaceOnUse">
<stop stop-color="#FFE6AB"/>
<stop offset="1" stop-color="#FFD778"/>
</linearGradient>
</defs>
</svg>
