<svg width="7" height="6" viewBox="0 0 7 6" fill="none" xmlns="http://www.w3.org/2000/svg">
<path d="M6.542 0.922831C6.39147 0.79904 6.40752 0.823259 5.55543 0.628817C5.66756 0.64957 5.76927 0.70789 5.84383 0.794173C6.0531 1.036 5.99576 1.01077 6.18302 3.10163C6.20143 3.27193 6.16392 3.4436 6.07614 3.5907C5.98837 3.7378 5.85511 3.85233 5.69649 3.917C5.6228 3.93819 0.99166 4.95303 0.883839 4.95717C0.845989 4.95548 0.808391 4.95013 0.771573 4.94118C1.62844 5.11925 1.49569 5.09303 1.57452 5.10426C1.71544 5.10726 1.32035 5.17773 6.37967 4.08252C6.54205 4.03319 6.68366 3.93174 6.78259 3.79384C6.88152 3.65594 6.93226 3.48929 6.92696 3.31966C6.92112 3.22379 6.92696 3.31966 6.87448 2.71267L6.43257 2.61563C6.3506 1.70224 6.3626 1.84043 6.35643 1.78106L6.8004 1.88083C6.74862 1.33731 6.77242 1.15304 6.542 0.922831Z" fill="url(#paint0_linear_130_331)"/>
<defs>
<linearGradient id="paint0_linear_130_331" x1="4.37544" y1="0.460799" x2="3.67106" y2="5.40766" gradientUnits="userSpaceOnUse">
<stop stop-color="#9E6100"/>
<stop offset="0.49" stop-color="#642701"/>
<stop offset="0.65" stop-color="#682A01"/>
<stop offset="0.81" stop-color="#753401"/>
<stop offset="0.98" stop-color="#8A4401"/>
<stop offset="1" stop-color="#8C4601"/>
</linearGradient>
</defs>
</svg>
