<svg width="3" height="3" viewBox="0 0 3 3" fill="none" xmlns="http://www.w3.org/2000/svg">
<path d="M2.90892 1.15943C2.92799 1.07213 2.91618 0.980924 2.87551 0.901359C2.83485 0.821794 2.76784 0.758801 2.68591 0.723124C2.65725 0.719042 0.812844 0.373558 0.741873 0.375638C0.677845 0.384085 0.617618 0.410836 0.568428 0.452684C0.519237 0.494531 0.483176 0.549693 0.464577 0.611539C0.438341 0.693101 0.472059 0.558989 0.256045 1.99047C0.238301 2.07652 0.250631 2.16605 0.290973 2.2441C0.331316 2.32215 0.397226 2.38398 0.477687 2.41927C0.508739 2.42369 2.35007 2.77362 2.42071 2.77393C2.46202 2.77003 2.50209 2.75772 2.53847 2.73775C2.57484 2.71778 2.60674 2.69058 2.6322 2.65782C2.73348 2.52845 2.70416 2.58033 2.90892 1.15943Z" fill="url(#paint0_linear_130_507)"/>
<defs>
<linearGradient id="paint0_linear_130_507" x1="0.340054" y1="1.40048" x2="2.82423" y2="1.7542" gradientUnits="userSpaceOnUse">
<stop stop-color="#FFE6AB"/>
<stop offset="1" stop-color="#FFD778"/>
</linearGradient>
</defs>
</svg>
