<svg width="3" height="4" viewBox="0 0 3 4" fill="none" xmlns="http://www.w3.org/2000/svg">
<path d="M0.33584 1.59942C0.339533 1.66823 0.355325 1.73585 0.382494 1.79917C0.903356 3.03839 0.847426 2.91885 0.903641 3.00624C1.17986 3.34167 1.50746 3.03 1.82639 2.80936C1.9384 2.72886 2.0226 2.61551 2.06732 2.48502C2.11204 2.35453 2.11507 2.21336 2.07599 2.08107C2.05162 2.01109 1.59482 0.939766 1.56355 0.873091C1.53478 0.82129 1.49607 0.775676 1.44963 0.738864C1.37581 0.692721 1.28893 0.671966 1.20222 0.67976C1.11551 0.687555 1.03372 0.723472 0.969313 0.782041C0.626663 1.01861 0.330523 1.13951 0.33584 1.59942ZM1.73125 2.34739C1.71927 2.4315 1.69433 2.42581 1.35919 2.65487L1.3911 1.48148C1.75618 2.33806 1.74293 2.28039 1.73335 2.34768L1.73125 2.34739ZM0.702283 1.49712C0.715459 1.40459 0.735589 1.41389 1.06653 1.18423L1.03461 2.3426C0.688774 1.51665 0.697505 1.56081 0.704385 1.49742L0.702283 1.49712Z" fill="url(#paint0_linear_82_445)"/>
<defs>
<linearGradient id="paint0_linear_82_445" x1="0.298676" y1="1.78509" x2="2.14296" y2="2.0477" gradientUnits="userSpaceOnUse">
<stop stop-color="#FFE6AB"/>
<stop offset="1" stop-color="#FFD778"/>
</linearGradient>
</defs>
</svg>
