<svg width="7" height="7" viewBox="0 0 7 7" fill="none" xmlns="http://www.w3.org/2000/svg">
<path d="M0.854399 0.710492C0.919928 0.746631 5.3159 3.31735 5.40772 3.39135C5.50673 3.4834 5.57895 3.60057 5.61668 3.73039C5.65441 3.86021 5.65625 3.99783 5.622 4.12861C5.57465 4.30709 5.64077 4.15078 4.60372 6.14529C4.5392 6.28102 4.43198 6.39187 4.29848 6.46089C4.16498 6.5299 4.01254 6.55328 3.86449 6.52745C4.64526 6.69223 4.54323 6.67283 4.62922 6.68508C4.79979 6.70041 4.96948 6.64744 5.10105 6.5378C5.26306 6.39271 5.25827 6.37497 5.52794 5.86747L5.10718 5.77587C5.38878 5.23595 5.29434 5.4199 5.52889 4.97076L5.94726 5.06202C6.2851 4.40094 6.23499 4.51322 6.28204 4.42243C6.35454 4.26111 6.36772 4.07936 6.31926 3.90926C6.2708 3.73916 6.16381 3.59165 6.01717 3.49275C1.24405 0.695301 1.59934 0.88724 1.44169 0.847732C0.46162 0.610697 0.75236 0.674029 0.854399 0.710492Z" fill="url(#paint0_linear_130_353)"/>
<defs>
<linearGradient id="paint0_linear_130_353" x1="3.72348" y1="1.09953" x2="2.9606" y2="6.45723" gradientUnits="userSpaceOnUse">
<stop stop-color="#9E6100"/>
<stop offset="0.49" stop-color="#642701"/>
<stop offset="0.65" stop-color="#682A01"/>
<stop offset="0.81" stop-color="#753401"/>
<stop offset="0.98" stop-color="#8A4401"/>
<stop offset="1" stop-color="#8C4601"/>
</linearGradient>
</defs>
</svg>
