<svg width="4" height="3" viewBox="0 0 4 3" fill="none" xmlns="http://www.w3.org/2000/svg">
<path d="M3.13028 1.45668L3.50038 1.47934L3.55727 1.07978C3.5741 0.988691 3.55785 0.894583 3.51144 0.814413C3.46503 0.734244 3.39151 0.673282 3.30414 0.642513C3.25156 0.635027 2.7141 0.537044 1.21167 0.269473L0.556779 0.227715C0.598838 0.233704 2.65014 0.59445 2.71173 0.613948C2.77669 0.640075 2.83312 0.683723 2.87473 0.740033C2.91634 0.796342 2.9415 0.863099 2.9474 0.932864C2.95375 1.02388 2.96631 0.905522 2.75007 2.31871C2.74144 2.41011 2.69833 2.49478 2.6295 2.55553C2.56067 2.61627 2.47128 2.64852 2.37952 2.64571C3.08067 2.67904 3.01819 2.68087 3.09749 2.66641C3.18541 2.64337 3.26104 2.58727 3.3086 2.50981C3.35405 2.42897 3.37946 2.33841 3.38268 2.24572L3.01437 2.22546C3.13597 1.41673 3.11531 1.56183 3.13028 1.45668Z" fill="url(#paint0_linear_82_278)"/>
<defs>
<linearGradient id="paint0_linear_82_278" x1="2.09701" y1="0.395537" x2="1.78859" y2="2.56157" gradientUnits="userSpaceOnUse">
<stop stop-color="#9E6100"/>
<stop offset="0.49" stop-color="#642701"/>
<stop offset="0.65" stop-color="#682A01"/>
<stop offset="0.81" stop-color="#753401"/>
<stop offset="0.98" stop-color="#8A4401"/>
<stop offset="1" stop-color="#8C4601"/>
</linearGradient>
</defs>
</svg>
