<svg width="3" height="3" viewBox="0 0 3 3" fill="none" xmlns="http://www.w3.org/2000/svg">
<path d="M2.43013 0.853701C2.2914 0.722689 2.13661 0.609806 1.96946 0.517761C1.88687 0.478901 1.7932 0.470515 1.70502 0.494087C1.61685 0.517659 1.53986 0.57167 1.48768 0.646556C1.42253 0.742414 0.890417 1.8274 0.885027 1.86526C0.845993 1.95755 0.831265 2.0583 0.842249 2.1579C0.853233 2.2575 0.889563 2.35263 0.94777 2.43419C1.04726 2.56422 1.02923 2.54019 1.44213 2.86504C1.48345 2.90336 1.53241 2.9325 1.58579 2.95054C1.63917 2.96859 1.69577 2.97513 1.75186 2.96974C1.80795 2.96435 1.86227 2.94716 1.91124 2.91928C1.96021 2.8914 2.00273 2.85347 2.036 2.80799C2.09844 2.71604 2.63625 1.60611 2.63864 1.58929C2.68813 1.46062 2.69456 1.31938 2.65696 1.18675C2.61936 1.05412 2.53977 0.93726 2.43013 0.853701ZM1.71203 2.52156C1.68778 2.52764 1.66212 2.52399 1.64053 2.51138C1.6195 2.50838 1.64053 2.51138 1.3277 2.2673L2.14483 1.69706C1.73637 2.53146 1.76459 2.499 1.71203 2.52156ZM1.37463 1.75689C1.7945 0.902658 1.75938 0.95344 1.80533 0.932091C1.85128 0.910741 1.88464 0.932652 2.19927 1.17914L1.37463 1.75689Z" fill="url(#paint0_linear_82_450)"/>
<defs>
<linearGradient id="paint0_linear_82_450" x1="0.900828" y1="1.6036" x2="2.62314" y2="1.84884" gradientUnits="userSpaceOnUse">
<stop stop-color="#FFE6AB"/>
<stop offset="1" stop-color="#FFD778"/>
</linearGradient>
</defs>
</svg>
