<svg width="3" height="6" viewBox="0 0 3 6" fill="none" xmlns="http://www.w3.org/2000/svg">
<path d="M1.28007 0.602285C1.21797 0.593442 0.292223 0.505491 0.541661 0.533697C1.93835 0.771565 1.83598 0.75455 1.89979 0.768511C2.01434 0.816411 2.10848 0.902958 2.16582 1.01309C2.22317 1.12322 2.24009 1.24997 2.21364 1.37129C1.67931 5.12383 1.73586 4.91498 1.5882 5.1133C1.5525 5.1591 1.50782 5.19714 1.45691 5.22509C1.406 5.25304 1.34992 5.27031 1.29211 5.27585C1.25867 5.27109 1.05052 5.26094 2.03188 5.33488C2.10379 5.3363 2.17487 5.31944 2.23848 5.28587C2.30209 5.2523 2.35612 5.20312 2.39552 5.14295C2.4699 5.02347 2.51128 4.88641 2.51545 4.74573L2.04797 4.70841C2.15001 3.99182 2.12892 4.13991 2.15953 3.92494L2.62667 3.96464L2.83074 2.53146L2.36394 2.48937C2.47618 1.70112 2.45611 1.84205 2.4755 1.7059L2.94229 1.74799C2.99025 1.4112 3.02433 1.30882 2.94234 1.0973C2.92021 1.04219 2.88737 0.992008 2.8457 0.949679C2.80404 0.907351 2.75439 0.873712 2.69962 0.850717C2.63478 0.826862 1.3258 0.606359 1.28007 0.602285Z" fill="url(#paint0_linear_130_287)"/>
<defs>
<linearGradient id="paint0_linear_130_287" x1="1.79124" y1="0.675071" x2="1.13855" y2="5.25886" gradientUnits="userSpaceOnUse">
<stop stop-color="#9E6100"/>
<stop offset="0.49" stop-color="#642701"/>
<stop offset="0.65" stop-color="#682A01"/>
<stop offset="0.81" stop-color="#753401"/>
<stop offset="0.98" stop-color="#8A4401"/>
<stop offset="1" stop-color="#8C4601"/>
</linearGradient>
</defs>
</svg>
