<svg width="3" height="3" viewBox="0 0 3 3" fill="none" xmlns="http://www.w3.org/2000/svg">
<path d="M2.36942 1.2944C2.36963 1.19472 2.34645 1.09639 2.30175 1.0073C2.25705 0.918208 2.19208 0.840846 2.11205 0.781429C1.53356 0.323582 1.73967 0.382967 0.74869 0.486458C0.839741 0.473132 0.932601 0.491661 1.01157 0.538909C1.08098 0.578831 1.41664 0.843329 1.43588 0.858941C1.22454 0.871958 1.01406 0.896424 0.805369 0.932229C0.756715 0.957485 0.788538 0.914815 0.37467 1.75703L1.05925 1.68072C1.46111 0.862538 1.4407 0.900398 1.45872 0.879362C1.56732 0.972272 1.64153 1.09899 1.66943 1.23916C1.69734 1.37933 1.67731 1.52481 1.61258 1.65222L1.14397 1.7035L0.326843 2.27374C0.635466 2.51723 0.631267 2.53164 0.679029 2.52772L1.20891 2.46799C1.09366 2.70476 1.03307 2.90426 0.795183 2.96265L1.43861 2.88906C1.51031 2.88033 1.57846 2.85291 1.63623 2.80954C1.69399 2.76618 1.73934 2.70839 1.76774 2.64197C2.36738 1.42928 2.359 1.48816 2.36942 1.2944ZM1.51654 1.84452L1.25093 2.38387L1.01142 2.19743L1.51654 1.84452Z" fill="url(#paint0_linear_82_223)"/>
<defs>
<linearGradient id="paint0_linear_82_223" x1="1.53331" y1="0.415805" x2="1.1617" y2="3.02556" gradientUnits="userSpaceOnUse">
<stop stop-color="#9E6100"/>
<stop offset="0.49" stop-color="#642701"/>
<stop offset="0.65" stop-color="#682A01"/>
<stop offset="0.81" stop-color="#753401"/>
<stop offset="0.98" stop-color="#8A4401"/>
<stop offset="1" stop-color="#8C4601"/>
</linearGradient>
</defs>
</svg>
