<svg width="7" height="5" viewBox="0 0 7 5" fill="none" xmlns="http://www.w3.org/2000/svg">
<path d="M6.51333 3.26822C6.50426 3.15106 6.17362 1.40468 6.15647 1.32929C6.13584 1.24753 6.10115 1.16999 6.05393 1.10013C5.99629 1.00686 5.91257 0.932535 5.81314 0.886344C5.7137 0.840153 5.60291 0.824118 5.49446 0.840234C0.868663 1.68347 1.20538 1.60912 1.08495 1.67136C0.98782 1.73234 0.908951 1.81841 0.856656 1.92047C0.80436 2.02254 0.780576 2.13682 0.787814 2.25127C0.79688 2.36842 1.1173 4.09619 1.13476 4.16948C1.16513 4.31616 1.24826 4.4466 1.36839 4.53608C1.48853 4.62555 1.63731 4.66784 1.78655 4.65493C6.43849 3.83901 6.08886 3.91367 6.2159 3.85023C6.31341 3.78911 6.39255 3.70273 6.44492 3.60026C6.49729 3.49778 6.52092 3.38304 6.51333 3.26822Z" fill="url(#paint0_linear_82_491)"/>
<defs>
<linearGradient id="paint0_linear_82_491" x1="0.766527" y1="2.3405" x2="6.53912" y2="3.16246" gradientUnits="userSpaceOnUse">
<stop stop-color="#FFE6AB"/>
<stop offset="1" stop-color="#FFD778"/>
</linearGradient>
</defs>
</svg>
