<svg width="4" height="3" viewBox="0 0 4 3" fill="none" xmlns="http://www.w3.org/2000/svg">
<path d="M3.25287 1.75036C3.276 1.59319 3.2396 1.43305 3.15079 1.30134C3.06198 1.16962 2.92718 1.07582 2.77281 1.03833C1.09401 0.698442 1.57678 0.758601 0.764488 0.752364C0.8444 0.763743 2.16659 1.0314 2.25161 1.05209C2.32559 1.07527 2.39419 1.11301 2.45338 1.16307C2.51257 1.21313 2.56116 1.27451 2.5963 1.34362C2.7253 1.61302 2.6728 1.77075 2.61768 2.09761L1.73897 1.35242L1.15678 1.34247L2.13677 2.17504L2.6039 2.17933C2.56498 2.45271 2.53683 2.65039 2.31581 2.81631C2.22582 2.87779 2.11831 2.90841 2.00944 2.90357C2.6526 2.90718 2.68175 2.9285 2.84964 2.84941C2.9198 2.80399 2.98007 2.74485 3.02681 2.67555C3.07354 2.60626 3.10579 2.52823 3.12162 2.44615C3.16151 2.31666 3.2388 1.8492 3.25287 1.75036Z" fill="url(#paint0_linear_82_331)"/>
<defs>
<linearGradient id="paint0_linear_82_331" x1="2.06348" y1="0.866523" x2="1.77811" y2="2.87063" gradientUnits="userSpaceOnUse">
<stop stop-color="#9E6100"/>
<stop offset="0.49" stop-color="#642701"/>
<stop offset="0.65" stop-color="#682A01"/>
<stop offset="0.81" stop-color="#753401"/>
<stop offset="0.98" stop-color="#8A4401"/>
<stop offset="1" stop-color="#8C4601"/>
</linearGradient>
</defs>
</svg>
