<svg width="3" height="3" viewBox="0 0 3 3" fill="none" xmlns="http://www.w3.org/2000/svg">
<path d="M2.19222 2.24646C2.18074 2.10107 2.20693 2.21851 1.75774 0.70199C1.73406 0.600928 1.68185 0.508795 1.60731 0.43656C1.53277 0.364325 1.43904 0.31503 1.33729 0.294539C1.24845 0.280971 1.15766 0.28863 1.07234 0.316889C0.564739 0.476334 0.590269 0.462801 0.483958 0.531341C0.401907 0.596853 0.338376 0.682645 0.299644 0.780236C0.260912 0.877827 0.24832 0.983836 0.263117 1.08778C0.284201 1.21094 0.696074 2.56767 0.69308 2.5887C0.723576 2.71897 0.80386 2.83212 0.916745 2.90393C1.02963 2.97575 1.16614 3.00051 1.29706 2.97293C1.39738 2.94645 1.29706 2.97293 1.80617 2.81799C1.92541 2.78 2.02836 2.70294 2.09841 2.59924C2.16845 2.49554 2.2015 2.37125 2.19222 2.24646ZM0.692642 0.979448C0.727153 0.902829 0.735872 0.916942 1.14916 0.786979L0.969501 2.04875C0.663508 0.98817 0.671647 1.05155 0.692642 0.979448ZM1.76506 2.26287C1.74889 2.37643 1.69512 2.36234 1.30495 2.48057L1.4708 1.24044C1.78339 2.26977 1.77075 2.20789 1.76506 2.26287Z" fill="url(#paint0_linear_82_498)"/>
<defs>
<linearGradient id="paint0_linear_82_498" x1="0.184895" y1="1.48646" x2="2.26891" y2="1.7832" gradientUnits="userSpaceOnUse">
<stop stop-color="#FFE6AB"/>
<stop offset="1" stop-color="#FFD778"/>
</linearGradient>
</defs>
</svg>
