<svg width="6" height="7" viewBox="0 0 6 7" fill="none" xmlns="http://www.w3.org/2000/svg">
<path d="M4.80413 4.43296C4.77551 4.51418 4.10409 6.20008 4.05057 6.30212C4.01248 6.36816 3.96142 6.42581 3.90045 6.47158C3.83948 6.51734 3.76988 6.55029 3.69583 6.56843L4.40654 6.48929C4.81733 6.42836 4.87518 6.09053 5.04116 5.67793L4.58294 5.72967C4.78368 5.22697 4.71586 5.39522 4.88116 4.9874L5.33904 4.93805C5.54694 4.41932 5.68232 4.23876 5.55691 3.83584C5.50518 3.6806 5.40334 3.54694 5.26739 3.45586C0.850513 0.689639 1.15905 0.867611 1.01163 0.824686C0.864204 0.781761 0.968283 0.803892 0.0798051 0.882094C0.152834 0.876642 0.226178 0.887085 0.294782 0.912705C0.421396 0.964852 4.50482 3.53981 4.5468 3.57016C4.66915 3.67322 4.75869 3.80981 4.80441 3.96311C4.85013 4.1164 4.85004 4.27972 4.80413 4.43296Z" fill="url(#paint0_linear_130_326)"/>
<defs>
<linearGradient id="paint0_linear_130_326" x1="3.03514" y1="1.11038" x2="2.2845" y2="6.38209" gradientUnits="userSpaceOnUse">
<stop stop-color="#9E6100"/>
<stop offset="0.49" stop-color="#642701"/>
<stop offset="0.65" stop-color="#682A01"/>
<stop offset="0.81" stop-color="#753401"/>
<stop offset="0.98" stop-color="#8A4401"/>
<stop offset="1" stop-color="#8C4601"/>
</linearGradient>
</defs>
</svg>
