<svg width="4" height="9" viewBox="0 0 4 9" fill="none" xmlns="http://www.w3.org/2000/svg">
<path d="M3.37556 7.62921C3.41984 7.45517 3.38221 7.99328 3.70471 1.39821C3.71413 1.25365 3.68319 1.10931 3.61535 0.981307C3.54751 0.853305 3.44544 0.746675 3.32052 0.673312C3.08195 0.551608 3.17409 0.589097 1.05581 0.48975C0.917821 0.482396 0.781092 0.519278 0.665517 0.595023C0.505559 0.696492 0.388639 0.853387 0.337133 1.03568C0.292515 1.2121 0.330832 0.686277 0.011039 7.22812C0.00155958 7.37111 0.0312 7.51398 0.0967829 7.64139C0.162366 7.7688 0.26141 7.87594 0.383286 7.95132C0.609565 8.07371 0.497969 8.03589 2.64322 8.16832C2.80853 8.1757 2.97137 8.12622 3.10463 8.02813C3.23788 7.93003 3.3335 7.78924 3.37556 7.62921Z" fill="url(#paint0_linear_130_626)"/>
<defs>
<linearGradient id="paint0_linear_130_626" x1="-0.0924438" y1="4.03546" x2="3.81774" y2="4.59223" gradientUnits="userSpaceOnUse">
<stop stop-color="#FFE6AB"/>
<stop offset="1" stop-color="#FFD778"/>
</linearGradient>
</defs>
</svg>
