<svg width="3" height="4" viewBox="0 0 3 4" fill="none" xmlns="http://www.w3.org/2000/svg">
<path d="M2.78893 1.6524C2.69005 1.54821 2.79252 1.62717 1.46316 0.777037C1.37735 0.715628 1.27357 0.684487 1.16813 0.688505C1.06269 0.692523 0.961568 0.731476 0.880684 0.799237C0.801299 0.863918 0.736445 0.944603 0.690342 1.03604C0.395306 1.60123 0.425917 1.53693 0.386922 1.66011C0.350916 1.79699 0.358674 1.94171 0.409109 2.07395C0.459545 2.20619 0.550122 2.31933 0.668132 2.39747C1.94101 3.22239 1.89685 3.2161 2.09032 3.24365C2.20334 3.25821 2.31759 3.22832 2.40901 3.16029C2.57777 3.02984 2.59246 2.97185 2.87369 2.4283C2.9392 2.30544 2.96616 2.16569 2.95104 2.02727C2.93592 1.88886 2.87942 1.75822 2.78893 1.6524ZM0.825609 1.8792C0.798828 1.78098 0.841478 1.76775 1.04706 1.34859L1.72469 2.49641C0.808495 1.90895 0.853576 1.95399 0.827708 1.8795L0.825609 1.8792ZM2.48903 2.11606C2.48215 2.16442 2.48544 2.1413 2.26334 2.57097L1.59203 1.43906C2.50281 2.01932 2.42438 1.96739 2.44482 1.98961C2.46159 2.00588 2.47447 2.02573 2.48249 2.04768C2.49051 2.06963 2.49347 2.0931 2.49114 2.11636L2.48903 2.11606Z" fill="url(#paint0_linear_82_537)"/>
<defs>
<linearGradient id="paint0_linear_82_537" x1="0.369255" y1="1.78419" x2="2.94746" y2="2.1513" gradientUnits="userSpaceOnUse">
<stop stop-color="#FFE6AB"/>
<stop offset="1" stop-color="#FFD778"/>
</linearGradient>
</defs>
</svg>
