<svg width="3" height="4" viewBox="0 0 3 4" fill="none" xmlns="http://www.w3.org/2000/svg">
<path d="M1.54542 2.5956C1.51669 2.698 1.46149 2.79103 1.38537 2.86532C1.30926 2.93961 1.21491 2.99253 1.11183 3.01876C1.01722 3.03533 0.577735 3.04784 0.556107 3.04906C0.524262 3.04701 0.492621 3.04251 0.461472 3.03558C0.692269 3.10606 0.927145 3.16244 1.16479 3.20439C1.25942 3.21786 1.66074 3.18704 1.72142 3.1828C1.86063 3.15629 1.98639 3.08243 2.07734 2.97375C2.16829 2.86508 2.21884 2.72828 2.22042 2.58658C2.29095 1.12689 2.2916 1.24285 2.27622 1.10978C2.26696 1.0309 2.23578 0.956201 2.18621 0.894151C2.13664 0.832102 2.07067 0.78519 1.99578 0.758738C1.18881 0.549427 1.34624 0.589007 1.39701 0.609111C1.62057 0.726766 1.64979 0.913302 1.63789 1.16264L1.05624 1.01331C0.921429 1.00875 0.786494 1.01757 0.653418 1.03963C0.626637 1.05121 0.603792 1.07032 0.587654 1.09463C0.556437 1.14812 0.568729 1.09194 0.519025 2.10401L0.875043 2.19547L0.674258 2.596L1.32079 2.75672L1.5864 2.21737C1.58923 2.34469 1.57546 2.47184 1.54542 2.5956ZM1.21898 1.49778C1.19467 1.54796 1.20611 1.58821 1.2093 1.33977C1.21119 1.30113 1.22709 1.2645 1.25401 1.23672C1.30115 1.19193 1.29966 1.20245 1.6346 1.18577L1.61646 1.59943L1.21898 1.49778Z" fill="url(#paint0_linear_82_244)"/>
<defs>
<linearGradient id="paint0_linear_82_244" x1="1.57065" y1="0.625254" x2="1.20234" y2="3.21188" gradientUnits="userSpaceOnUse">
<stop stop-color="#9E6100"/>
<stop offset="0.49" stop-color="#642701"/>
<stop offset="0.65" stop-color="#682A01"/>
<stop offset="0.81" stop-color="#753401"/>
<stop offset="0.98" stop-color="#8A4401"/>
<stop offset="1" stop-color="#8C4601"/>
</linearGradient>
</defs>
</svg>
