<svg width="3" height="4" viewBox="0 0 3 4" fill="none" xmlns="http://www.w3.org/2000/svg">
<path d="M1.91841 3.05166C2.44205 2.79722 2.38986 2.82147 2.48843 2.74533C2.57988 2.66726 2.65087 2.56803 2.69524 2.45627C2.73961 2.34452 2.75601 2.22362 2.74302 2.10408C2.72419 1.96249 2.32982 0.624436 2.31888 0.581449C2.29746 0.519988 2.26382 0.463498 2.22 0.415375C2.17617 0.367253 2.12307 0.328494 2.06387 0.301431C1.9946 0.291568 2.10926 0.307893 1.2616 0.11652C1.54894 0.203739 1.57669 0.453834 1.68434 0.82741L0.95237 0.662258C0.56484 0.850784 0.55051 0.848744 0.514031 0.916662C0.477553 0.984579 0.472419 0.952166 0.768042 1.99102L1.14137 2.07342L1.09443 2.40305L1.76088 2.54913C1.72473 2.58053 1.7411 2.56824 1.68618 2.6116C1.63127 2.65496 1.18268 2.87866 1.09944 2.91555C1.00608 2.95606 0.902301 2.96602 0.80294 2.944C1.68233 3.13502 1.66357 3.16403 1.91841 3.05166ZM1.98099 1.87616C2.01493 2.0651 1.97587 2.25987 1.87172 2.42112C1.97408 1.68508 1.95023 1.74992 1.98099 1.87616ZM1.68947 0.842763L1.78345 1.1754L1.28524 1.06303C1.31524 1.02343 1.31149 1.03265 1.68947 0.842763ZM1.25493 1.20738C1.24769 1.1822 1.24586 1.15578 1.24955 1.12984C1.25324 1.10391 1.26238 1.07905 1.27636 1.05689C1.25394 1.26572 1.26211 1.24252 1.25493 1.20738Z" fill="url(#paint0_linear_130_316)"/>
<defs>
<linearGradient id="paint0_linear_130_316" x1="1.82054" y1="0.196108" x2="1.409" y2="3.08635" gradientUnits="userSpaceOnUse">
<stop stop-color="#9E6100"/>
<stop offset="0.49" stop-color="#642701"/>
<stop offset="0.65" stop-color="#682A01"/>
<stop offset="0.81" stop-color="#753401"/>
<stop offset="0.98" stop-color="#8A4401"/>
<stop offset="1" stop-color="#8C4601"/>
</linearGradient>
</defs>
</svg>
