<svg width="5" height="9" viewBox="0 0 5 9" fill="none" xmlns="http://www.w3.org/2000/svg">
<path d="M3.08589 7.95659C2.92658 8.03139 3.08182 7.98525 0.956263 8.39909C0.918075 8.40667 0.879182 8.41012 0.840256 8.40938C0.763819 8.3985 0.598666 8.39448 1.4449 8.45892C1.58309 8.46398 1.52612 8.47048 2.03993 8.37062L1.63729 8.34009C2.66458 8.14274 2.39266 8.16983 2.88675 8.2085C3.63735 8.07167 3.53056 8.08571 3.62302 8.06963C3.80076 8.00821 3.95103 7.88585 4.04719 7.72424C4.14336 7.56263 4.17922 7.37219 4.14842 7.18667C3.16862 0.837526 3.24763 1.2582 3.17351 1.07705C3.13597 0.992536 3.08227 0.916175 3.01543 0.852267C2.79969 0.655828 2.74784 0.677689 1.92786 0.582867C2.06513 0.59533 2.19574 0.647788 2.30349 0.73374C2.41124 0.819692 2.49142 0.935363 2.53408 1.06643C2.58295 1.23667 3.48201 7.14296 3.49023 7.20506C3.49909 7.35549 3.46599 7.50543 3.39459 7.63814C3.32319 7.77084 3.21631 7.88109 3.08589 7.95659Z" fill="url(#paint0_linear_130_401)"/>
<defs>
<linearGradient id="paint0_linear_130_401" x1="3.47671" y1="0.779037" x2="2.3584" y2="8.63286" gradientUnits="userSpaceOnUse">
<stop stop-color="#9E6100"/>
<stop offset="0.49" stop-color="#642701"/>
<stop offset="0.65" stop-color="#682A01"/>
<stop offset="0.81" stop-color="#753401"/>
<stop offset="0.98" stop-color="#8A4401"/>
<stop offset="1" stop-color="#8C4601"/>
</linearGradient>
</defs>
</svg>
