<svg width="25" height="7" viewBox="0 0 25 7" fill="none" xmlns="http://www.w3.org/2000/svg">
<path d="M24.0126 4.02095C22.0362 4.86907 19.9492 5.4316 17.8143 5.69162C15.6185 5.9594 13.3948 5.89307 11.2189 5.49486C9.31625 5.14835 7.46546 4.5611 5.71112 3.74725C4.08324 2.99387 2.54505 2.06019 1.12542 0.963726C0.537022 0.500175 0.629279 0.575533 0.516285 0.480057L0.163586 1.07351C1.79892 2.42306 3.60112 3.55655 5.52579 4.44607C7.56112 5.38561 9.71916 6.0324 11.9357 6.3672C14.1399 6.69724 16.3807 6.70036 18.5857 6.37648C20.2666 6.12703 21.9149 5.69329 23.5009 5.0831C24.4293 4.71108 24.2947 4.76702 24.325 4.74988C24.267 4.63005 24.3248 4.76701 24.0126 4.02095Z" fill="#FFE082"/>
</svg>
