<svg width="5" height="8" viewBox="0 0 5 8" fill="none" xmlns="http://www.w3.org/2000/svg">
<path d="M4.88161 5.6629C4.87982 5.58283 4.86423 5.50368 4.83554 5.42891C2.86491 0.17699 3.02972 0.586661 2.94134 0.453924C2.87091 0.359047 2.77317 0.28795 2.66122 0.250152C2.54926 0.212354 2.42843 0.209659 2.3149 0.242427C2.20918 0.276722 0.658248 1.02783 0.592179 1.06992C0.453231 1.1594 0.348832 1.29346 0.296118 1.45009C0.243404 1.60672 0.245509 1.77662 0.302085 1.9319C2.23575 7.14208 2.08327 6.75133 2.17135 6.88617C2.24052 6.9824 2.33743 7.05522 2.4491 7.09489C2.56078 7.13457 2.6819 7.1392 2.79628 7.10818C2.90201 7.07389 4.46767 6.33989 4.53734 6.30261C4.64674 6.23656 4.7364 6.14236 4.79696 6.02983C4.85752 5.9173 4.88675 5.79058 4.88161 5.6629Z" fill="url(#paint0_linear_82_527)"/>
<defs>
<linearGradient id="paint0_linear_82_527" x1="0.0200383" y1="3.30997" x2="5.11969" y2="4.03611" gradientUnits="userSpaceOnUse">
<stop stop-color="#FFE6AB"/>
<stop offset="1" stop-color="#FFD778"/>
</linearGradient>
</defs>
</svg>
