<svg width="32" height="21" viewBox="0 0 32 21" fill="none" xmlns="http://www.w3.org/2000/svg">
<path d="M0.648263 20.5521L1.12893 20.597L2.3409 19.6195C4.63552 14.0523 7.93518 9.56372 12.7703 5.93957C14.2206 4.87631 15.7748 3.96254 17.409 3.2122C21.1615 1.55588 24.2848 0.972868 27.9879 1.00452C29.0011 1.02938 30.0119 1.11741 31.0142 1.26809C31.8623 1.4146 32.288 1.49881 31.4601 1.33157C28.1265 0.690542 24.6939 0.775516 21.3961 1.5807C17.7229 2.52955 14.895 3.91629 11.762 6.27017C8.72182 8.66516 6.56845 11.0856 4.41493 14.5015L4.3672 14.5806L4.77307 14.6383C4.41016 15.2432 4.05446 15.8427 3.66038 16.6062L3.25302 16.5589C2.65666 17.7334 2.32174 18.4582 1.85964 19.5789L0.648263 20.5521Z" fill="url(#paint0_linear_82_136)"/>
<defs>
<linearGradient id="paint0_linear_82_136" x1="17.9285" y1="-0.616651" x2="14.6308" y2="22.5431" gradientUnits="userSpaceOnUse">
<stop stop-color="#9E6100"/>
<stop offset="0.49" stop-color="#642701"/>
<stop offset="0.65" stop-color="#682A01"/>
<stop offset="0.81" stop-color="#753401"/>
<stop offset="0.98" stop-color="#8A4401"/>
<stop offset="1" stop-color="#8C4601"/>
</linearGradient>
</defs>
</svg>
