<svg width="3" height="3" viewBox="0 0 3 3" fill="none" xmlns="http://www.w3.org/2000/svg">
<path d="M2.6351 0.931391C2.65211 0.854473 2.64152 0.774023 2.60518 0.704126C2.56885 0.63423 2.50908 0.579342 2.43636 0.549072C2.41112 0.545479 0.779512 0.265951 0.721235 0.268381C0.664614 0.277033 0.611594 0.301517 0.568292 0.339009C0.524989 0.376502 0.49317 0.425474 0.476505 0.480275C0.452509 0.55839 0.480099 0.455038 0.30313 1.69788C0.285249 1.77399 0.295032 1.85397 0.330728 1.92352C0.366425 1.99308 0.425706 2.04766 0.497964 2.0775C0.521096 2.08079 2.1494 2.36843 2.21399 2.3669C2.25063 2.36244 2.28601 2.35073 2.31808 2.33246C2.35015 2.31419 2.37827 2.28972 2.40079 2.26048C2.48064 2.13667 2.45782 2.16132 2.6351 0.931391Z" fill="url(#paint0_linear_82_418)"/>
<defs>
<linearGradient id="paint0_linear_82_418" x1="0.368972" y1="1.16013" x2="2.55814" y2="1.47185" gradientUnits="userSpaceOnUse">
<stop stop-color="#FFE6AB"/>
<stop offset="1" stop-color="#FFD778"/>
</linearGradient>
</defs>
</svg>
