<svg width="2" height="4" viewBox="0 0 2 4" fill="none" xmlns="http://www.w3.org/2000/svg">
<path d="M0.345429 1.0046C0.347088 1.01995 0.351931 1.03479 0.359651 1.04816C0.36737 1.06153 0.377797 1.07315 0.390261 1.08226C0.402726 1.09138 0.416954 1.09779 0.432039 1.10109C0.447123 1.1044 0.46273 1.10451 0.477863 1.10144L0.60239 1.06556C0.934916 3.71081 0.836646 2.96327 0.858886 3.09803C0.860915 3.11328 0.86596 3.12797 0.873727 3.14124C0.881495 3.15452 0.891829 3.16611 0.904126 3.17535C0.916423 3.18459 0.930436 3.19128 0.945348 3.19504C0.960261 3.19881 0.975773 3.19956 0.99098 3.19727L1.31099 3.10636C0.896286 -0.176926 1.02297 0.764758 0.993884 0.59246C0.991885 0.577254 0.986822 0.562611 0.979002 0.549417C0.971182 0.536224 0.960768 0.524754 0.948388 0.515701C0.936008 0.506648 0.92192 0.500201 0.906976 0.496748C0.892033 0.493296 0.876545 0.492911 0.861448 0.495616L0.299549 0.659314C0.348854 1.03189 0.340984 0.984469 0.345429 1.0046Z" fill="url(#paint0_linear_130_552)"/>
<defs>
<linearGradient id="paint0_linear_130_552" x1="0.146496" y1="1.7342" x2="1.47935" y2="1.92398" gradientUnits="userSpaceOnUse">
<stop stop-color="#FFE6AB"/>
<stop offset="1" stop-color="#FFD778"/>
</linearGradient>
</defs>
</svg>
