<svg width="3" height="4" viewBox="0 0 3 4" fill="none" xmlns="http://www.w3.org/2000/svg">
<path d="M2.95698 2.81529C2.94974 2.66073 2.66889 1.09026 2.66239 1.06741C2.63714 0.921709 2.55986 0.790133 2.44491 0.697118C2.32997 0.604103 2.18516 0.555976 2.0374 0.561677C1.89444 0.573003 -0.183727 0.893668 1.22709 0.690002C1.38422 0.665265 1.54484 0.702103 1.67548 0.792844C1.94753 1.00461 1.94047 1.24244 2.02053 1.70713L1.55685 1.78002L1.54155 1.8875C1.44336 1.31056 1.42493 1.30307 1.47471 1.2273C1.48365 1.2134 1.49546 1.20158 1.50934 1.19263C1.52323 1.18368 1.53887 1.1778 1.55521 1.17539C0.718619 1.29998 0.791632 1.28356 0.745591 1.33306C0.69955 1.38256 0.70023 1.37778 0.907552 2.57465L1.38385 2.49869L1.2224 3.11909C1.7625 3.04002 1.53356 3.07322 2.23436 2.96098C2.23915 3.09521 2.19936 3.22725 2.1212 3.33649C2.04304 3.44572 1.93091 3.52599 1.80232 3.56478C1.77843 3.56138 1.46011 3.62328 2.46831 3.45733C2.61518 3.43056 2.74673 3.34986 2.83714 3.23107C2.92755 3.11228 2.97029 2.96398 2.95698 2.81529ZM1.94604 2.98329L2.12486 2.29226C2.172 2.50667 2.20537 2.72389 2.22479 2.94256L1.94604 2.98329Z" fill="url(#paint0_linear_130_350)"/>
<defs>
<linearGradient id="paint0_linear_130_350" x1="2.02716" y1="0.548034" x2="1.60031" y2="3.54576" gradientUnits="userSpaceOnUse">
<stop stop-color="#9E6100"/>
<stop offset="0.49" stop-color="#642701"/>
<stop offset="0.65" stop-color="#682A01"/>
<stop offset="0.81" stop-color="#753401"/>
<stop offset="0.98" stop-color="#8A4401"/>
<stop offset="1" stop-color="#8C4601"/>
</linearGradient>
</defs>
</svg>
