<svg width="3" height="2" viewBox="0 0 3 2" fill="none" xmlns="http://www.w3.org/2000/svg">
<path d="M1.15318 0.698904C1.25234 0.740915 1.28653 0.621338 1.32464 0.534505C2.8977 1.54163 2.45117 1.25706 2.53621 1.30779C2.54867 1.31237 2.56192 1.31443 2.57518 1.31383C2.58844 1.31324 2.60145 1.31 2.61345 1.30432C2.62545 1.29864 2.63619 1.29062 2.64505 1.28073C2.65391 1.27084 2.66071 1.25929 2.66505 1.24674L2.78629 0.967917L1.29496 0.0196296C1.284 0.0130287 1.27175 0.00886457 1.25904 0.00741619C1.24632 0.00596782 1.23345 0.00727071 1.22128 0.0112368C1.20912 0.015203 1.19795 0.0217379 1.18853 0.030401C1.17912 0.0390641 1.17168 0.0496509 1.16671 0.0614438L0.944346 0.568325C1.01146 0.615719 1.08119 0.659314 1.15318 0.698904Z" fill="url(#paint0_linear_82_403)"/>
<defs>
<linearGradient id="paint0_linear_82_403" x1="0.950634" y1="0.524162" x2="2.81174" y2="0.789166" gradientUnits="userSpaceOnUse">
<stop stop-color="#FFE6AB"/>
<stop offset="1" stop-color="#FFD778"/>
</linearGradient>
</defs>
</svg>
