<svg width="3" height="4" viewBox="0 0 3 4" fill="none" xmlns="http://www.w3.org/2000/svg">
<path d="M2.19838 2.17858C2.19321 2.09806 2.17395 2.01907 2.1415 1.9452C1.50337 0.474727 1.56652 0.603867 1.48987 0.494256C1.45032 0.438092 1.39948 0.390819 1.34059 0.355461C1.2817 0.320103 1.21607 0.297445 1.14791 0.288942C1.06589 0.279684 0.982835 0.289909 0.905505 0.31879C0.802788 0.362095 0.415358 0.55153 0.336977 0.604737C0.21803 0.693157 0.137297 0.823619 0.111244 0.969523C0.0687233 1.26814 0.118289 1.28164 0.71492 2.66682C0.858649 2.96835 1.06599 3.09443 1.38467 2.99605C1.48288 2.95425 1.38467 2.99605 1.87752 2.75941C1.98341 2.70634 2.07075 2.62244 2.12803 2.51876C2.18531 2.41508 2.20984 2.29648 2.19838 2.17858ZM0.534859 1.08348C0.547735 0.993054 0.578378 1.00385 0.966408 0.810219L0.947178 2.10556C0.508127 1.09041 0.524678 1.15498 0.534859 1.08348ZM1.76372 2.21754C1.74935 2.31848 1.7184 2.30978 1.33758 2.498L1.35532 1.21318C1.78414 2.20971 1.7691 2.14964 1.76372 2.21754Z" fill="url(#paint0_linear_82_507)"/>
<defs>
<linearGradient id="paint0_linear_82_507" x1="0.0357846" y1="1.49947" x2="2.2628" y2="1.81657" gradientUnits="userSpaceOnUse">
<stop stop-color="#FFE6AB"/>
<stop offset="1" stop-color="#FFD778"/>
</linearGradient>
</defs>
</svg>
