<svg width="2" height="4" viewBox="0 0 2 4" fill="none" xmlns="http://www.w3.org/2000/svg">
<path d="M1.99744 1.24712C1.99469 1.14589 1.96675 1.1462 1.70081 0.964575L1.02044 1.04149C1.26474 1.20931 1.29629 1.2138 1.31435 1.2979C1.33241 1.38201 1.36 1.26364 0.6299 2.97055C0.733571 3.0411 0.747993 3.04529 0.770247 3.09996C0.792502 3.15462 0.754377 3.21141 0.654763 3.47401L1.33634 3.38868C1.46837 3.07921 1.45757 3.10986 1.45935 3.0672C1.4566 2.96597 1.39531 2.94436 1.31117 2.88732C2.04187 1.1762 1.99807 1.303 1.99744 1.24712Z" fill="url(#paint0_linear_82_226)"/>
<defs>
<linearGradient id="paint0_linear_82_226" x1="1.48211" y1="0.933434" x2="1.1117" y2="3.53478" gradientUnits="userSpaceOnUse">
<stop stop-color="#9E6100"/>
<stop offset="0.49" stop-color="#642701"/>
<stop offset="0.65" stop-color="#682A01"/>
<stop offset="0.81" stop-color="#753401"/>
<stop offset="0.98" stop-color="#8A4401"/>
<stop offset="1" stop-color="#8C4601"/>
</linearGradient>
</defs>
</svg>
