<svg width="4" height="5" viewBox="0 0 4 5" fill="none" xmlns="http://www.w3.org/2000/svg">
<path d="M3.70738 2.55342C3.76234 2.4396 3.77954 2.31121 3.75647 2.18695C3.7334 2.06268 3.67126 1.94902 3.57911 1.86252L3.48285 1.78545L3.02184 1.71981L2.47058 1.27819L2.93159 1.34384L2.09976 0.681926L1.63875 0.616284C1.11105 0.197518 1.17931 0.248667 1.11958 0.206043C1.05985 0.163419 0.985128 0.174714 1.55021 0.245427C1.51185 0.227119 1.47065 0.215485 1.42838 0.211023C0.967372 0.14538 0.520698 0.0817773 0.695416 0.121278C0.750533 0.133493 0.802058 0.158348 0.845923 0.193885C2.9861 1.90237 2.89972 1.79016 2.97216 2.01737C3.00672 2.14596 3.00179 2.28197 2.95801 2.40772C2.91029 2.52034 2.15137 3.86233 2.12955 3.89578C2.09125 3.95385 2.03949 4.00182 1.97867 4.03559C1.91785 4.06936 1.84978 4.08794 1.78024 4.08975C1.75396 4.08601 1.54137 4.05574 2.49989 4.17029C2.5858 4.17662 2.67162 4.15682 2.74607 4.11349C2.82053 4.07015 2.88014 4.00532 2.91708 3.92749C3.7459 2.48823 3.67635 2.61724 3.70738 2.55342Z" fill="url(#paint0_linear_130_302)"/>
<defs>
<linearGradient id="paint0_linear_130_302" x1="2.3347" y1="0.349822" x2="1.79833" y2="4.11669" gradientUnits="userSpaceOnUse">
<stop stop-color="#9E6100"/>
<stop offset="0.49" stop-color="#642701"/>
<stop offset="0.65" stop-color="#682A01"/>
<stop offset="0.81" stop-color="#753401"/>
<stop offset="0.98" stop-color="#8A4401"/>
<stop offset="1" stop-color="#8C4601"/>
</linearGradient>
</defs>
</svg>
