<svg width="52" height="110" viewBox="0 0 52 110" fill="none" xmlns="http://www.w3.org/2000/svg">
<path d="M50.6021 61.331C50.9532 61.0377 51.1747 60.6179 51.2185 60.1626C51.2624 59.7072 51.1251 59.2529 50.8364 58.898C51.1747 58.5901 51.3786 58.1615 51.404 57.7047C51.4293 57.2479 51.2743 56.7995 50.9721 56.4559C51.2982 56.1348 51.485 55.6984 51.4922 55.2408C51.4995 54.7832 51.3266 54.3411 51.0109 54.0098C51.3258 53.6771 51.4965 53.2335 51.4859 52.7756C51.4754 52.3177 51.2844 51.8825 50.9545 51.5647C51.2536 51.2202 51.405 50.7718 51.3758 50.3165C51.3467 49.8612 51.1394 49.4358 50.7988 49.1322C51.0845 48.7768 51.2182 48.323 51.1709 47.8694C51.1237 47.4159 50.8993 46.9994 50.5466 46.7104C50.8171 46.3452 50.9323 45.888 50.8672 45.4382C50.802 44.9884 50.5618 44.5826 50.1988 44.3092C50.4125 43.9916 50.5152 43.6124 50.4912 43.2304C50.4671 42.8484 50.3176 42.485 50.0658 42.1968C49.6275 41.7322 49.7236 42.17 49.9318 41.5465C50.0524 41.1872 50.0476 40.7976 49.9182 40.4414C49.7887 40.0852 49.5423 39.7835 49.2191 39.5855C49.3304 39.3926 49.4024 39.1796 49.431 38.9588C49.4596 38.7379 49.4442 38.5136 49.3858 38.2987C49.3274 38.0838 49.2271 37.8826 49.0906 37.7067C48.9541 37.5307 48.7842 37.3835 48.5906 37.2734C48.6952 37.0776 48.7596 36.8628 48.78 36.6418C48.8004 36.4207 48.7763 36.1978 48.7093 35.9861C48.6422 35.7745 48.5335 35.5784 48.3895 35.4093C48.2455 35.2403 48.0692 35.1018 47.8709 35.002C48.0318 34.6607 48.0738 34.2753 47.9901 33.9074C47.9064 33.5395 47.702 33.2102 47.4094 32.972C46.9107 32.6061 47.0712 33.0018 47.1767 32.3637C47.2416 31.9982 47.1766 31.6214 46.9928 31.2988C46.8091 30.9762 46.5182 30.728 46.1707 30.5974C46.4859 29.6674 46.0614 28.7467 45.1959 28.4748C45.4729 27.5394 45.0043 26.6368 44.1399 26.4089C44.3705 25.4913 43.9098 24.602 43.0042 24.4072C43.188 23.5439 42.7611 22.691 41.8906 22.4891L41.795 22.4755C41.8724 22.1286 41.8293 21.7656 41.6727 21.4465C41.5161 21.1274 41.2555 20.8711 40.9337 20.72C40.7979 20.6675 40.6575 20.6279 40.5143 20.6018C40.5577 20.3458 40.5382 20.0832 40.4574 19.8364C40.3767 19.5897 40.237 19.3664 40.0506 19.1856C39.8031 18.9715 39.4976 18.8356 39.1729 18.795C39.2031 18.5323 39.1665 18.2661 39.0663 18.0213C38.966 17.7765 38.8055 17.561 38.5997 17.395C38.3483 17.2157 38.0565 17.1013 37.7502 17.062C37.766 16.8183 37.7248 16.5743 37.63 16.3493C37.5351 16.1243 37.3892 15.9245 37.2037 15.7656C36.8951 15.5194 36.6788 15.4984 36.2655 15.3883C36.279 15.0614 36.1812 14.7396 35.9883 14.4753C35.7953 14.2111 35.5185 14.02 35.203 13.9332C34.6765 13.7973 34.7314 13.8222 34.7348 13.7983C34.7261 13.5298 34.6429 13.2691 34.4944 13.0452C34.3459 12.8214 34.1381 12.6432 33.8942 12.5308C33.65 12.4384 33.3987 12.366 33.1427 12.3141C33.1071 11.97 32.954 11.6488 32.7093 11.4043C32.3673 11.0851 32.1271 11.0777 31.494 10.9022C31.4539 10.6587 31.3533 10.429 31.2017 10.2343C30.8415 9.78575 30.5006 9.76645 29.7969 9.57365C29.7461 9.34179 29.636 9.12704 29.4776 8.95031C29.3191 8.77358 29.1176 8.64087 28.8926 8.5651C27.9569 8.29052 28.0647 8.37167 28.0316 8.27922C27.7112 7.44886 27.1137 7.4174 26.2582 7.1786C26.1855 6.99237 26.0716 6.82497 25.9252 6.68891C25.7787 6.55285 25.6034 6.45164 25.4123 6.39284C24.3087 6.08216 24.4267 6.12578 24.4056 6.08621C24.2574 5.80352 24.0097 5.58587 23.7102 5.47542C23.6338 5.44747 23.7747 5.4846 22.5397 5.13816C22.3716 4.87016 22.1088 4.67526 21.8035 4.59221C20.0365 4.0969 20.891 4.35993 20.3043 3.97906C20.0978 3.85461 20.1405 3.88018 18.6253 3.44754C18.5004 3.34146 18.3547 3.26262 18.1976 3.21605C17.9393 3.13053 16.5596 2.73911 16.4818 2.70366C16.3152 2.62389 16.6514 2.7278 12.4509 1.52286C12.5407 1.54831 12.6272 1.58435 12.7085 1.63023C12.8932 1.73694 13.0877 1.77439 10.5405 1.04126C10.7458 1.09953 10.9324 1.21008 11.0822 1.3621C7.89077 0.447064 8.70158 0.657562 8.91148 0.775183C9.05298 0.859179 9.17708 0.969503 9.27707 1.10019C6.51597 0.312232 6.63506 0.331627 6.86337 0.422626C7.10233 0.524513 7.30203 0.700816 7.43274 0.92531C6.95021 0.788364 4.45631 0.0750095 4.85626 0.192886C4.96756 0.229546 5.07254 0.283128 5.16752 0.351747C5.89966 0.892232 4.31928 0.369879 9.37975 1.79963C9.26227 1.61331 9.09701 1.46186 8.90117 1.36105C11.6019 2.12822 11.3302 2.06761 11.2923 2.0086C11.2457 1.93283 11.1912 1.86218 11.1298 1.7978C11.1042 1.77222 10.8715 1.71228 13.2391 2.38816C13.215 2.34204 13.1879 2.29749 13.1582 2.25478L15.1467 2.82062L15.1849 2.91137L16.9881 3.42645C17.025 3.4973 17.056 3.571 17.081 3.64683L18.8122 4.13704C18.8737 4.24491 18.922 4.3598 18.956 4.47921C20.7374 4.97656 20.5971 4.93466 20.618 4.95956C20.7002 5.09871 20.7609 5.24949 20.798 5.4068L22.3609 5.84625C22.4858 6.02172 22.572 6.22173 22.6137 6.43302L24.0883 6.84282C24.253 7.05183 24.3612 7.29971 24.4025 7.56263C25.9269 7.98196 25.7685 7.93017 25.8071 7.96735C25.999 8.19846 26.1189 8.48073 26.1521 8.77927C27.5598 9.16249 27.4175 9.11786 27.4407 9.1431C27.6844 9.40163 27.8305 9.73694 27.854 10.0915C29.1688 10.442 28.9968 10.3834 29.0613 10.4437C29.3348 10.7219 29.4942 11.0924 29.5081 11.4822C30.6991 11.7955 30.5384 11.7434 30.595 11.7905C30.7607 11.9387 30.8925 12.1207 30.9817 12.3243C31.0709 12.5279 31.1152 12.7483 31.1118 12.9705C32.1366 13.2358 32.0202 13.1973 32.0707 13.2362C32.2661 13.3904 32.4218 13.5891 32.5248 13.8158C32.6277 14.0424 32.675 14.2904 32.6627 14.539L33.4578 14.74C33.6981 14.8969 33.8901 15.1175 34.0123 15.3772C34.1346 15.6369 34.1823 15.9254 34.1501 16.2106C34.8565 16.3843 34.7937 16.3461 34.9729 16.474C35.1949 16.6453 35.3678 16.8721 35.4742 17.1316C35.5806 17.391 35.6167 17.674 35.5788 17.9518C35.9866 18.0489 36.2811 18.0518 36.6457 18.5205C36.7765 18.7003 36.87 18.9045 36.9208 19.121C36.9716 19.3374 36.9786 19.5619 36.9414 19.7811L37.312 19.8656C37.9417 20.099 38.3849 20.8031 38.2359 21.6787C38.4654 21.7119 38.6835 21.7998 38.872 21.935C39.1272 22.1311 39.319 22.3979 39.4234 22.7023C39.5279 23.0067 39.5403 23.3351 39.4593 23.6466C40.3199 23.8325 40.8564 24.6863 40.6071 25.6841C41.5274 25.9297 41.9411 26.8757 41.675 27.7858C42.5285 28.056 42.9851 28.9911 42.6614 29.9466C43.5388 30.2714 43.9153 31.2559 43.5642 32.1637C44.4379 32.5318 44.7629 33.5529 44.3794 34.4317C44.5812 34.5333 44.7605 34.6744 44.9067 34.8465C45.053 35.0187 45.1633 35.2184 45.231 35.4339C45.2987 35.6494 45.3225 35.8763 45.3009 36.1012C45.2794 36.3261 45.2129 36.5443 45.1055 36.7431C45.3029 36.855 45.4762 37.0049 45.6153 37.1841C45.7544 37.3633 45.8567 37.5684 45.9161 37.7873C45.9756 38.0063 45.9911 38.2349 45.9617 38.4599C45.9323 38.6849 45.8587 38.9018 45.745 39.0982C45.9376 39.2195 46.1043 39.3775 46.2358 39.5633C46.3672 39.7491 46.4608 39.9589 46.5111 40.1809C46.5615 40.4028 46.5676 40.6325 46.5291 40.8568C46.4906 41.0811 46.4083 41.2956 46.2869 41.4881C46.6658 41.7508 46.9255 42.1527 47.0093 42.6061C47.0931 43.0595 46.9943 43.5276 46.7343 43.9085C47.1021 44.1885 47.345 44.6018 47.4107 45.0594C47.4764 45.5169 47.3596 45.9819 47.0855 46.3541C47.4455 46.6495 47.6741 47.0753 47.7214 47.5386C47.7687 48.0019 47.6308 48.4651 47.3378 48.8271C47.6838 49.1371 47.8941 49.5708 47.9234 50.0345C47.9526 50.4982 47.7985 50.9548 47.4942 51.3059C47.8251 51.6306 48.0164 52.0715 48.0273 52.535C48.0382 52.9985 47.8679 53.4479 47.5526 53.7878C47.8721 54.1261 48.0467 54.5758 48.0392 55.0409C48.0317 55.5061 47.8427 55.9499 47.5125 56.2777C47.8192 56.6282 47.9764 57.085 47.9503 57.5501C47.9241 58.0152 47.7168 58.4515 47.3727 58.7655C47.6647 59.1274 47.8033 59.5893 47.7588 60.0522C47.7143 60.5151 47.4902 60.9421 47.1347 61.2418C47.412 61.615 47.5321 62.082 47.4692 62.5427C47.4063 63.0035 47.1655 63.4212 46.7983 63.7065C47.0613 64.0891 47.1633 64.5599 47.0823 65.0171C47.0012 65.4743 46.7436 65.8812 46.3651 66.1501C46.6125 66.5418 46.6957 67.0151 46.5966 67.4677C46.4975 67.9202 46.2241 68.3155 45.8356 68.5678C46.0684 68.9673 46.1336 69.4427 46.0169 69.89C45.9002 70.3374 45.6112 70.7204 45.213 70.9552C45.3208 71.1565 45.3878 71.377 45.4101 71.6042C45.4324 71.8314 45.4095 72.0608 45.3429 72.2791C45.2762 72.4975 45.1671 72.7005 45.0217 72.8765C44.8763 73.0525 44.6976 73.1981 44.4958 73.3048C44.8859 74.1938 44.571 75.2237 43.6796 75.6135C43.7718 75.8205 43.8216 76.0437 43.8262 76.2702C43.8309 76.4968 43.7902 76.7219 43.7067 76.9325C43.6231 77.1431 43.4983 77.3348 43.3396 77.4965C43.181 77.6582 42.9916 77.7866 42.7826 77.8741C43.1171 78.8454 42.6586 79.8061 41.8003 80.0835C42.0962 81.0688 41.6015 81.9927 40.7356 82.2374C40.9889 83.2312 40.4659 84.1316 39.5874 84.3282C39.7915 85.2736 39.2934 86.1872 38.3641 86.3473C38.5426 87.3866 37.9179 88.1969 37.0643 88.3044C37.1837 89.1769 36.7344 89.9195 35.9841 90.1393C35.8894 90.1648 35.7924 90.1812 35.6945 90.1882C35.7846 91.1296 35.223 91.788 34.5706 91.9535L34.2554 91.9939C34.2949 92.3463 34.2147 92.7019 34.0277 93.0032C33.8407 93.3046 33.5577 93.5343 33.2243 93.6554L32.7521 93.7197C32.7741 94.0451 32.6942 94.3692 32.5236 94.6471C32.353 94.925 32.1002 95.1429 31.8002 95.2706C31.5952 95.3152 31.3874 95.3451 31.1782 95.36C31.1873 95.6572 31.1114 95.9508 30.9593 96.2063C30.8072 96.4619 30.5853 96.6686 30.3197 96.8023L29.5578 96.9156C29.5531 97.1681 29.4879 97.4158 29.3677 97.6378C29.2474 97.8599 29.0756 98.0498 28.8667 98.1917C28.7572 98.259 28.8763 98.2272 27.8845 98.3808C27.8705 98.6142 27.8043 98.8415 27.6909 99.0459C27.5774 99.2504 27.4195 99.4267 27.2289 99.5621C27.162 99.6037 27.3149 99.5743 26.1582 99.7557C26.1174 100.15 25.9289 100.514 25.6305 100.775C25.5009 100.881 25.692 100.823 24.392 101.035C24.3395 101.408 24.1523 101.749 23.8656 101.993C23.838 102.016 23.9813 101.985 22.5852 102.223C22.5234 102.55 22.3578 102.848 22.113 103.074L20.7595 103.32C20.6956 103.596 20.5576 103.849 20.3603 104.053L18.8833 104.31C18.8268 104.518 18.727 104.712 18.5905 104.878C18.5376 104.941 18.7266 104.897 16.9822 105.202C16.9267 105.375 16.841 105.536 16.7292 105.678C16.7084 105.704 16.8421 105.672 15.0537 105.995C15.0088 106.117 14.948 106.233 14.873 106.34C14.845 106.382 15.0292 106.338 13.1057 106.685C13.0683 106.775 13.0225 106.862 12.9689 106.944L11.1423 107.278C11.1215 107.321 11.101 107.362 11.0686 107.419C8.97649 107.803 9.17607 107.754 9.15289 107.797L9.08773 107.809L9.14603 107.725C6.754 108.162 6.99249 108.13 7.03479 108.09C7.087 108.036 7.13446 107.977 7.17665 107.915L4.84228 108.34C4.98592 108.255 5.11131 108.142 5.21132 108.008C0.568501 108.848 1.39413 108.629 1.01349 108.958C0.922482 109.033 0.821 109.094 0.712283 109.139C0.472455 109.232 -0.129744 109.319 3.15312 108.719C2.96963 108.956 2.7044 109.116 2.40914 109.169C5.16248 108.659 5.0185 108.677 4.99837 108.699C4.82696 108.872 4.60615 108.988 4.36627 109.031C7.15475 108.514 6.88759 108.541 6.71123 108.65C6.60589 108.712 6.49178 108.758 6.37281 108.785C6.01628 108.859 7.65429 108.548 8.52294 108.387C8.44561 108.42 8.3653 108.445 8.28311 108.462C12.526 107.675 12.2128 107.735 12.3374 107.699C12.8092 107.535 11.9852 107.708 14.133 107.309C14.2547 107.283 14.3719 107.239 14.4806 107.178C14.8582 106.957 14.2786 107.125 16.0551 106.783C16.301 106.731 16.5245 106.604 16.6944 106.419C16.7292 106.38 16.5893 106.404 17.9162 106.174C18.2297 106.114 18.509 105.938 18.698 105.68C18.7253 105.643 18.5977 105.666 19.8072 105.456C19.9883 105.418 20.1594 105.342 20.309 105.233C20.4585 105.124 20.5832 104.985 20.6746 104.824C21.7152 104.636 21.7353 104.648 21.9513 104.552C22.2359 104.416 22.4643 104.185 22.5976 103.899C23.5529 103.728 23.6634 103.738 23.9643 103.542C24.1988 103.38 24.3791 103.151 24.4819 102.885C25.3615 102.732 25.2731 102.754 25.3369 102.734C25.572 102.675 25.7874 102.556 25.9612 102.387C26.1351 102.218 26.2611 102.006 26.3267 101.773C27.036 101.652 27.7017 101.667 28.0678 100.773C28.0964 100.692 28.1049 100.667 28.1291 100.582C28.1325 100.558 28.0813 100.575 28.7722 100.464C29.0578 100.406 29.3184 100.261 29.5183 100.049C29.7182 99.8375 29.8477 99.5688 29.8888 99.2804C30.1334 99.2517 30.3756 99.2047 30.6131 99.1398C30.8811 99.0491 31.117 98.8827 31.2922 98.6606C31.4674 98.4386 31.5745 98.1705 31.6004 97.8888C31.9096 97.8742 32.2134 97.8017 32.496 97.6752C32.7181 97.5475 32.9046 97.366 33.0384 97.1474C33.1721 96.9289 33.2488 96.6802 33.2614 96.4243C33.6698 96.363 33.8916 96.3629 34.229 96.1331C34.4239 95.9899 34.5827 95.8033 34.6929 95.588C34.8031 95.3727 34.8616 95.1347 34.8637 94.8929C34.8671 94.869 34.8183 94.8864 35.2018 94.8289C35.5604 94.7562 35.8801 94.5552 36.1011 94.2637C36.322 93.9721 36.4291 93.61 36.4022 93.2451C36.6094 93.2427 36.8139 93.1972 37.0027 93.1117C37.1915 93.0261 37.3604 92.9024 37.4989 92.7482C37.7834 92.4123 37.9233 91.9775 37.888 91.5387L38.032 91.5202C38.3741 91.4725 38.6889 91.3072 38.9226 91.0528C39.1562 90.7984 39.2941 90.4707 39.3126 90.1258C39.3567 89.5594 39.1508 89.8591 39.6908 89.6776C40.034 89.5418 40.3188 89.2903 40.4962 88.9667C40.6736 88.643 40.7323 88.2676 40.6621 87.9053C41.5704 87.7909 42.1142 86.9325 41.9473 85.9827C42.8371 85.8267 43.3659 84.9539 43.1566 83.9932C44.0666 83.7815 44.5353 82.8686 44.2899 81.9392C45.1735 81.6898 45.6235 80.7546 45.3419 79.8226C46.2347 79.5257 46.626 78.5578 46.311 77.6551C47.1915 77.3077 47.5473 76.3323 47.1951 75.4341C47.3973 75.3387 47.5786 75.2042 47.7285 75.0382C47.8783 74.8722 47.9937 74.6781 48.0679 74.4672C48.1422 74.2563 48.1738 74.0327 48.161 73.8095C48.1481 73.5862 48.0911 73.3677 47.9931 73.1667C48.1927 73.0633 48.3696 72.9212 48.5134 72.7486C48.6573 72.576 48.7653 72.3764 48.8311 72.1615C48.8969 71.9466 48.9191 71.7208 48.8965 71.4972C48.8739 71.2736 48.8069 71.0568 48.6994 70.8595C49.0279 70.668 49.2821 70.3712 49.4209 70.0173C49.5598 69.6633 49.5752 69.2729 49.4645 68.9091C49.2776 68.2708 49.1679 68.7158 49.6229 68.259C49.8856 67.9775 50.0476 67.617 50.0837 67.2337C50.1197 66.8503 50.0278 66.4659 49.8222 66.1404C50.1963 65.8785 50.4512 65.479 50.5312 65.0294C50.6112 64.5799 50.5097 64.117 50.249 63.7421C50.613 63.4673 50.8541 63.0602 50.9202 62.609C50.9863 62.1577 50.872 61.6986 50.6021 61.331Z" fill="url(#paint0_linear_130_205)"/>
<defs>
<linearGradient id="paint0_linear_130_205" x1="16.4688" y1="111.478" x2="31.7809" y2="3.9414" gradientUnits="userSpaceOnUse">
<stop stop-color="#9E6100"/>
<stop offset="0.49" stop-color="#47130A"/>
<stop offset="0.61" stop-color="#4B1609"/>
<stop offset="0.73" stop-color="#581F08"/>
<stop offset="0.86" stop-color="#6D2F05"/>
<stop offset="0.99" stop-color="#8A4401"/>
<stop offset="1" stop-color="#8C4601"/>
</linearGradient>
</defs>
</svg>
