<svg width="4" height="4" viewBox="0 0 4 4" fill="none" xmlns="http://www.w3.org/2000/svg">
<path d="M1.10861 2.61001C1.31612 2.68499 1.53007 2.74074 1.74778 2.77657C1.69406 2.90062 1.60348 3.00513 1.48833 3.07593C1.37318 3.14673 1.23903 3.18039 1.10409 3.17233C1.07304 3.16791 0.806527 3.10559 1.73916 3.33343C1.85067 3.35474 1.96589 3.34491 2.07218 3.30501C2.17846 3.26512 2.2717 3.1967 2.34164 3.10727C2.42859 2.99293 3.22094 1.60452 3.23389 1.582C3.31411 1.44744 3.34172 1.28797 3.31142 1.13428C3.28111 0.980589 3.19502 0.843541 3.06973 0.749516C2.98167 0.683361 2.56492 0.409559 2.46219 0.360813C2.35947 0.312066 1.41489 0.0825217 1.71075 0.161206C1.83361 0.205507 1.78002 0.17107 2.31009 0.521933C2.41326 0.580979 2.49762 0.668025 2.5534 0.773003C2.60918 0.877981 2.6341 0.996604 2.62529 1.11515C2.58895 1.32784 2.50184 1.52861 2.37136 1.70045L1.87279 1.5734L1.60366 1.75198C2.12189 0.850947 2.08233 0.906241 2.13111 0.871757C2.16051 0.851581 2.1966 0.843613 2.23176 0.849532C2.30581 0.860076 1.55233 0.674802 1.52605 0.67106C1.4983 0.668741 1.47045 0.674344 1.44575 0.687221C1.42106 0.700097 1.40052 0.719718 1.38653 0.743802C1.38449 0.758134 1.22458 1.02537 0.822956 1.72368L1.4256 1.87285L0.707237 2.36521L1.10861 2.61001ZM2.20055 1.99294L1.76073 2.75405L1.41498 2.52935L2.20055 1.99294Z" fill="url(#paint0_linear_130_367)"/>
<defs>
<linearGradient id="paint0_linear_130_367" x1="2.24819" y1="0.220672" x2="1.80502" y2="3.33306" gradientUnits="userSpaceOnUse">
<stop stop-color="#9E6100"/>
<stop offset="0.49" stop-color="#642701"/>
<stop offset="0.65" stop-color="#682A01"/>
<stop offset="0.81" stop-color="#753401"/>
<stop offset="0.98" stop-color="#8A4401"/>
<stop offset="1" stop-color="#8C4601"/>
</linearGradient>
</defs>
</svg>
