<svg width="4" height="7" viewBox="0 0 4 7" fill="none" xmlns="http://www.w3.org/2000/svg">
<path d="M3.48007 6.47375C3.51905 6.32053 3.48592 6.79428 3.76985 0.987994C3.77814 0.860722 3.7509 0.733647 3.69118 0.620955C3.63145 0.508262 3.54159 0.414385 3.43161 0.349796C3.22158 0.242649 3.3027 0.275653 1.43776 0.188188C1.31628 0.181714 1.1959 0.214185 1.09415 0.280871C0.953326 0.370204 0.85039 0.508333 0.805044 0.668821C0.765763 0.824147 0.799496 0.361211 0.517952 6.12064C0.509606 6.24652 0.535701 6.3723 0.59344 6.48447C0.651179 6.59665 0.738377 6.69098 0.845677 6.75734C1.04489 6.86509 0.946644 6.83179 2.83532 6.94838C2.98085 6.95488 3.12422 6.91132 3.24154 6.82496C3.35886 6.7386 3.44304 6.61465 3.48007 6.47375Z" fill="url(#paint0_linear_82_534)"/>
<defs>
<linearGradient id="paint0_linear_82_534" x1="0.426846" y1="3.30982" x2="3.86936" y2="3.8" gradientUnits="userSpaceOnUse">
<stop stop-color="#FFE6AB"/>
<stop offset="1" stop-color="#FFD778"/>
</linearGradient>
</defs>
</svg>
