<svg width="6" height="6" viewBox="0 0 6 6" fill="none" xmlns="http://www.w3.org/2000/svg">
<path d="M4.53794 4.96366C4.55895 4.9216 5.16598 3.43103 5.20437 3.29703C5.22858 3.18414 5.22576 3.06713 5.19617 2.95553C5.16657 2.84393 5.11102 2.74091 5.03405 2.65485C4.93637 2.55727 5.23446 2.75419 1.3146 0.297202C1.25959 0.263761 1.19806 0.242501 1.13414 0.234858C1.07022 0.227215 1.0054 0.233364 0.944058 0.252894C0.882716 0.272423 0.826274 0.304878 0.778538 0.34807C0.730802 0.391261 0.692882 0.444182 0.667333 0.50327C0.644528 0.557954 0.0537083 2.02509 0.0198236 2.15758C-0.00408169 2.26895 -0.00161932 2.38436 0.0270136 2.49461C0.0556466 2.60486 0.109656 2.70689 0.184733 2.79255C0.280904 2.88563 -0.0147818 2.6869 3.88466 5.16673C3.93969 5.20133 4.00155 5.22361 4.066 5.23203C4.13045 5.24045 4.19596 5.23482 4.25803 5.21553C4.3201 5.19624 4.37726 5.16373 4.42558 5.12026C4.47389 5.07678 4.51223 5.02336 4.53794 4.96366Z" fill="url(#paint0_linear_82_461)"/>
<defs>
<linearGradient id="paint0_linear_82_461" x1="-0.0176337" y1="2.36037" x2="5.23132" y2="3.10777" gradientUnits="userSpaceOnUse">
<stop stop-color="#FFE6AB"/>
<stop offset="1" stop-color="#FFD778"/>
</linearGradient>
</defs>
</svg>
