<svg width="8" height="8" viewBox="0 0 8 8" fill="none" xmlns="http://www.w3.org/2000/svg">
<path d="M1.11431 6.00858C1.19249 6.09282 1.01122 5.91104 2.59721 7.48944C2.70301 7.60456 2.84706 7.67728 3.00251 7.69403C3.15796 7.71079 3.31419 7.67044 3.44209 7.5805C3.56863 7.4791 3.24228 7.8713 7.07871 3.07553C7.19195 2.92411 7.25044 2.73872 7.24459 2.54973C7.23873 2.36073 7.16889 2.17932 7.0465 2.03519C6.96832 1.95095 7.16905 2.15013 5.55064 0.5598C5.44195 0.446502 5.29613 0.376094 5.13981 0.361444C4.9835 0.346793 4.82712 0.388872 4.69928 0.480001C4.57239 0.583787 4.89057 0.197733 1.09508 4.97984C0.983715 5.12915 0.925169 5.31126 0.928651 5.4975C0.932134 5.68374 0.997447 5.86353 1.11431 6.00858Z" fill="url(#paint0_linear_130_607)"/>
<defs>
<linearGradient id="paint0_linear_130_607" x1="1.17975" y1="3.61495" x2="6.98652" y2="4.44178" gradientUnits="userSpaceOnUse">
<stop stop-color="#FFE6AB"/>
<stop offset="1" stop-color="#FFD778"/>
</linearGradient>
</defs>
</svg>
