<svg width="2" height="3" viewBox="0 0 2 3" fill="none" xmlns="http://www.w3.org/2000/svg">
<path d="M1.97806 1.14522C1.97809 1.07624 1.95606 1.00906 1.91519 0.953489C1.83803 0.862079 1.88752 0.89106 0.892806 0.705555C0.831451 0.700549 0.770503 0.719186 0.722439 0.757648C0.674375 0.79611 0.642831 0.851488 0.634262 0.912447C0.630861 0.936334 0.423729 2.39101 0.414546 2.45551C0.411283 2.50688 0.421664 2.55821 0.444636 2.60428C0.467608 2.65035 0.502353 2.68953 0.54535 2.71784C0.591082 2.73897 0.495189 2.71069 1.49298 2.90882C1.63152 2.92855 1.72155 2.82683 1.76586 2.70397C1.76345 2.66951 1.97604 1.21073 1.97806 1.14522Z" fill="url(#paint0_linear_130_488)"/>
<defs>
<linearGradient id="paint0_linear_130_488" x1="0.518274" y1="1.70991" x2="1.87502" y2="1.9031" gradientUnits="userSpaceOnUse">
<stop stop-color="#FFE6AB"/>
<stop offset="1" stop-color="#FFD778"/>
</linearGradient>
</defs>
</svg>
