<svg width="8" height="6" viewBox="0 0 8 6" fill="none" xmlns="http://www.w3.org/2000/svg">
<path d="M0.519862 3.6973C0.520972 3.81982 0.556485 3.93956 0.622351 4.04287C0.688217 4.14619 0.781784 4.22892 0.892389 4.28163C0.940162 4.28843 5.63963 5.70333 5.7809 5.72101C5.95222 5.72494 6.11815 5.66096 6.24247 5.54302C6.4877 5.30986 6.44095 5.31296 7.06032 3.22241C7.11507 3.05947 7.11005 2.88236 7.04614 2.72278C6.98224 2.5632 6.86363 2.43158 6.71154 2.35146C6.65353 2.33102 1.94282 0.96082 1.79405 0.94451C1.66614 0.943122 1.54044 0.977819 1.43135 1.04462C1.32227 1.11142 1.23422 1.20761 1.17731 1.32217C1.10299 1.46756 1.16978 1.27236 0.543964 3.42535C0.521147 3.51408 0.513005 3.60594 0.519862 3.6973Z" fill="url(#paint0_linear_130_572)"/>
<defs>
<linearGradient id="paint0_linear_130_572" x1="0.618442" y1="2.88517" x2="6.97698" y2="3.79057" gradientUnits="userSpaceOnUse">
<stop stop-color="#FFE6AB"/>
<stop offset="1" stop-color="#FFD778"/>
</linearGradient>
</defs>
</svg>
