<svg width="4" height="4" viewBox="0 0 4 4" fill="none" xmlns="http://www.w3.org/2000/svg">
<path d="M3.10442 2.08404C3.044 2.02913 1.83802 0.982506 1.7404 0.914991C1.63372 0.851751 1.50873 0.826594 1.38588 0.843634C1.26304 0.860674 1.14961 0.918902 1.06417 1.00879C1.01938 1.05218 0.97842 1.09935 0.941734 1.14977C0.54755 1.71022 0.618137 1.60816 0.561877 1.69519C0.474548 1.85033 0.442782 2.03062 0.471837 2.20626C0.500892 2.38189 0.589028 2.54235 0.721664 2.6611C2.02356 3.78718 2.0188 3.82062 2.25596 3.86657C2.37316 3.87701 2.4909 3.85376 2.59533 3.79955C2.69975 3.74534 2.78652 3.66243 2.84543 3.56057C3.25735 2.97828 3.21609 3.04552 3.27336 2.9172C3.3311 2.77725 3.34587 2.62327 3.31579 2.47489C3.2857 2.32651 3.21212 2.19045 3.10442 2.08404ZM0.968789 2.10651C0.947925 1.99631 0.985115 1.99186 1.29166 1.55053L1.88737 2.94649C0.954815 2.1362 1.00056 2.19146 0.978346 2.10787L0.968789 2.10651ZM2.79826 2.62534C2.78874 2.69222 2.80817 2.65843 2.48355 3.12399L1.89024 1.74543L2.75896 2.49058C2.77603 2.50869 2.78917 2.53012 2.79758 2.55355C2.80598 2.57697 2.80947 2.60187 2.80782 2.6267L2.79826 2.62534Z" fill="url(#paint0_linear_130_623)"/>
<defs>
<linearGradient id="paint0_linear_130_623" x1="0.447431" y1="2.13951" x2="3.34246" y2="2.55173" gradientUnits="userSpaceOnUse">
<stop stop-color="#FFE6AB"/>
<stop offset="1" stop-color="#FFD778"/>
</linearGradient>
</defs>
</svg>
