<svg width="2" height="3" viewBox="0 0 2 3" fill="none" xmlns="http://www.w3.org/2000/svg">
<path d="M1.2462 2.35716C1.15362 2.40442 1.05691 2.44307 0.957266 2.47265C0.921516 2.46756 0.789031 2.4487 1.58007 2.61926C1.62212 2.62525 1.61161 2.62375 1.89904 2.50376C1.40146 0.287328 1.43514 0.352199 1.36873 0.321289C1.34771 0.318294 0.634172 0.14589 0.698465 0.161481C0.762758 0.177073 0.760975 0.219731 0.8871 0.780523L0.461385 0.681285C0.340647 0.730606 0.351762 0.727897 0.323525 0.730313C0.295288 0.732729 0.247818 0.719533 0.906967 0.867029L1.2462 2.35716Z" fill="url(#paint0_linear_82_228)"/>
<defs>
<linearGradient id="paint0_linear_82_228" x1="1.30411" y1="0.24772" x2="0.978624" y2="2.53362" gradientUnits="userSpaceOnUse">
<stop stop-color="#9E6100"/>
<stop offset="0.49" stop-color="#642701"/>
<stop offset="0.65" stop-color="#682A01"/>
<stop offset="0.81" stop-color="#753401"/>
<stop offset="0.98" stop-color="#8A4401"/>
<stop offset="1" stop-color="#8C4601"/>
</linearGradient>
</defs>
</svg>
