<svg width="13" height="5" viewBox="0 0 13 5" fill="none" xmlns="http://www.w3.org/2000/svg">
<path d="M1.9903 2.25868C3.51376 2.52925 3.30015 2.47738 2.74258 2.43017L4.14437 2.68126C4.75721 2.73205 4.14946 2.64551 6.57089 3.07398C6.78119 3.10392 6.8611 3.1153 6.32065 3.06839C7.85042 3.33985 7.49292 3.28894 8.04208 3.33495L9.95669 3.67624L9.54542 3.64128C12.3745 4.14496 11.8073 4.05991 12.4436 4.11188L1.17945 2.10675C1.34704 1.3818 1.27987 1.6576 1.46517 0.898706L0.977904 0.855069C0.8016 1.58092 0.86696 1.30272 0.691875 2.06522C1.11871 2.16485 1.55296 2.22955 1.9903 2.25868Z" fill="url(#paint0_linear_82_117)"/>
<defs>
<linearGradient id="paint0_linear_82_117" x1="6.77091" y1="1.65419" x2="6.53705" y2="3.29659" gradientUnits="userSpaceOnUse">
<stop stop-color="#9E6100"/>
<stop offset="0.49" stop-color="#642701"/>
<stop offset="0.65" stop-color="#682A01"/>
<stop offset="0.81" stop-color="#753401"/>
<stop offset="0.98" stop-color="#8A4401"/>
<stop offset="1" stop-color="#8C4601"/>
</linearGradient>
</defs>
</svg>
