<svg width="3" height="3" viewBox="0 0 3 3" fill="none" xmlns="http://www.w3.org/2000/svg">
<path d="M0.277419 0.0687439C2.17371 0.418144 2.06435 0.372534 2.16413 0.485439C2.21651 0.553417 2.24534 0.636604 2.24625 0.722419C2.23517 0.800228 2.06898 1.96736 2.06658 1.98419C2.05522 2.04269 2.02884 2.09725 1.99005 2.1425C1.95127 2.18775 1.90139 2.22215 1.84531 2.24233C1.78343 2.25498 1.52447 2.23527 2.44133 2.29072C2.52086 2.28838 2.59665 2.25637 2.65377 2.20097C2.71089 2.14558 2.74522 2.07081 2.75 1.99138C2.93266 0.708587 2.91829 0.809529 2.92967 0.729617C2.92534 0.666652 2.90367 0.606112 2.86707 0.5547C2.83046 0.503288 2.78034 0.46301 2.72225 0.438322C2.67389 0.431435 0.958147 0.109889 0.9245 0.105098L0.24437 0.059746L0.277419 0.0687439Z" fill="url(#paint0_linear_82_215)"/>
<defs>
<linearGradient id="paint0_linear_82_215" x1="1.61847" y1="0.203913" x2="1.3355" y2="2.1912" gradientUnits="userSpaceOnUse">
<stop stop-color="#9E6100"/>
<stop offset="0.49" stop-color="#642701"/>
<stop offset="0.65" stop-color="#682A01"/>
<stop offset="0.81" stop-color="#753401"/>
<stop offset="0.98" stop-color="#8A4401"/>
<stop offset="1" stop-color="#8C4601"/>
</linearGradient>
</defs>
</svg>
