<svg width="4" height="5" viewBox="0 0 4 5" fill="none" xmlns="http://www.w3.org/2000/svg">
<path d="M3.39153 2.81118C2.67013 1.15117 2.74015 1.29274 2.65069 1.1679C2.60567 1.10421 2.54789 1.05059 2.48102 1.01044C2.41415 0.970293 2.33966 0.944497 2.26228 0.934695C2.15002 0.918709 2.26466 0.917973 1.43148 1.03573C1.54001 1.02629 1.64896 1.04858 1.74505 1.0999C1.84115 1.15123 1.92027 1.22937 1.97278 1.32483C2.0924 1.54814 2.19626 1.77954 2.28359 2.01735L1.78546 2.09264L1.78014 2.40383L1.57315 1.9235C1.56218 1.88607 1.5636 1.84609 1.57719 1.80953C1.60514 1.73309 1.61299 1.74639 2.05851 1.52713L1.34441 1.63016C0.882512 1.86171 0.895123 1.84158 0.86615 1.90813C0.837178 1.97468 0.825909 1.95114 1.32256 3.10147L1.77326 3.03405L1.766 3.54723L2.47634 3.43635L2.4899 2.48539C2.67196 2.9183 2.85941 3.17652 2.65794 3.58163C2.594 3.69628 2.4957 3.78797 2.3769 3.84381C1.8188 4.11771 1.83825 4.11805 1.67311 4.14815C2.54587 4.00922 2.44966 4.03451 2.61341 3.96278C3.13671 3.71073 3.19096 3.70627 3.3318 3.52161C3.40222 3.41841 3.44473 3.29875 3.4552 3.17426C3.46566 3.04977 3.44373 2.92468 3.39153 2.81118Z" fill="url(#paint0_linear_130_371)"/>
<defs>
<linearGradient id="paint0_linear_130_371" x1="2.38649" y1="0.952381" x2="1.92631" y2="4.1842" gradientUnits="userSpaceOnUse">
<stop stop-color="#9E6100"/>
<stop offset="0.49" stop-color="#642701"/>
<stop offset="0.65" stop-color="#682A01"/>
<stop offset="0.81" stop-color="#753401"/>
<stop offset="0.98" stop-color="#8A4401"/>
<stop offset="1" stop-color="#8C4601"/>
</linearGradient>
</defs>
</svg>
