<svg width="3" height="4" viewBox="0 0 3 4" fill="none" xmlns="http://www.w3.org/2000/svg">
<path d="M0.39222 1.97501C0.433721 2.07532 1.01666 3.07449 1.03049 3.09791C1.05756 3.14223 1.09414 3.17998 1.13758 3.20843C1.18103 3.23688 1.23025 3.25532 1.2817 3.26242C1.34825 3.26587 1.41476 3.25498 1.47673 3.23049C1.53871 3.20599 1.5947 3.16848 1.64091 3.12047C2.03458 2.76671 1.99464 2.80608 2.06069 2.71894C2.12097 2.63395 2.16008 2.5358 2.17477 2.43265C2.18945 2.3295 2.17929 2.22434 2.14513 2.12591C2.10393 2.02349 1.5237 1.03543 1.50987 1.01201C1.47434 0.946835 1.4182 0.895283 1.35024 0.865419C1.28228 0.835554 1.20634 0.829062 1.1343 0.846959C1.06612 0.866119 1.00242 0.898618 0.946889 0.942573C0.873919 1.00299 0.571239 1.27529 0.507286 1.34771C0.435819 1.43357 0.387685 1.5364 0.36753 1.64628C0.347375 1.75615 0.355878 1.86937 0.39222 1.97501ZM1.82382 2.39341C1.81215 2.47543 1.80013 2.46942 1.49204 2.74954L1.39178 1.60025C1.84905 2.38198 1.8271 2.32522 1.82382 2.39341ZM0.720733 1.70209C0.731214 1.62849 0.742634 1.6387 1.04351 1.36399L1.13986 2.49556C0.70964 1.74986 0.722571 1.77959 0.720733 1.70209Z" fill="url(#paint0_linear_82_433)"/>
<defs>
<linearGradient id="paint0_linear_82_433" x1="0.331812" y1="1.91706" x2="2.21395" y2="2.18505" gradientUnits="userSpaceOnUse">
<stop stop-color="#FFE6AB"/>
<stop offset="1" stop-color="#FFD778"/>
</linearGradient>
</defs>
</svg>
