<svg width="4" height="4" viewBox="0 0 4 4" fill="none" xmlns="http://www.w3.org/2000/svg">
<path d="M3.49798 1.32839C3.49078 1.24917 3.46241 1.17334 3.41586 1.10883C3.36932 1.04433 3.30629 0.993514 3.23338 0.961707C3.16581 0.939901 0.839566 0.486812 0.794182 0.48035C0.691808 0.477944 0.59228 0.514147 0.515375 0.581762C0.43847 0.649378 0.38982 0.743456 0.379098 0.845296C0.138247 2.43408 0.121155 2.36585 0.203135 2.5603C0.246147 2.65436 0.322187 2.72936 0.416829 2.77108C0.484059 2.79527 2.8045 3.25484 2.85228 3.26164C2.95501 3.26637 3.05563 3.2314 3.13329 3.16397C3.21094 3.09654 3.25969 3.00182 3.26941 2.89943C3.51402 1.31849 3.50418 1.43894 3.49798 1.32839Z" fill="url(#paint0_linear_130_595)"/>
<defs>
<linearGradient id="paint0_linear_130_595" x1="0.250146" y1="1.64822" x2="3.40314" y2="2.09718" gradientUnits="userSpaceOnUse">
<stop stop-color="#FFE6AB"/>
<stop offset="1" stop-color="#FFD778"/>
</linearGradient>
</defs>
</svg>
