<svg width="4" height="4" viewBox="0 0 4 4" fill="none" xmlns="http://www.w3.org/2000/svg">
<path d="M2.67873 2.30957C1.50575 0.27819 1.5935 0.414973 1.5522 0.379848C1.5243 0.356423 1.48859 0.344379 1.4522 0.346116C0.617308 0.458756 0.732631 0.436186 0.78757 0.444009C0.885852 0.472626 0.818261 0.399639 2.01618 2.47843L2.31233 2.4353C2.33349 2.45781 2.5097 2.76072 2.50629 2.78461C2.32576 2.92612 2.13412 3.05287 1.93324 3.16362C1.82304 3.18448 2.63779 3.05923 2.64802 3.05581C2.8412 2.94129 3.02816 2.8166 3.20812 2.68227C2.94824 2.2139 3.02982 2.2572 2.67873 2.30957Z" fill="url(#paint0_linear_130_378)"/>
<defs>
<linearGradient id="paint0_linear_130_378" x1="2.14286" y1="0.442021" x2="1.75818" y2="3.14357" gradientUnits="userSpaceOnUse">
<stop stop-color="#9E6100"/>
<stop offset="0.49" stop-color="#642701"/>
<stop offset="0.65" stop-color="#682A01"/>
<stop offset="0.81" stop-color="#753401"/>
<stop offset="0.98" stop-color="#8A4401"/>
<stop offset="1" stop-color="#8C4601"/>
</linearGradient>
</defs>
</svg>
