<svg width="35" height="23" viewBox="0 0 35 23" fill="none" xmlns="http://www.w3.org/2000/svg">
<path d="M0.699707 22.8583C1.78402 21.9867 0.974623 22.6392 2.30451 21.5661C4.84439 14.6312 8.77347 9.49283 14.0246 5.57844C15.6368 4.4012 17.3686 3.39717 19.1912 2.58297C23.0827 0.926658 26.5419 0.217746 30.9866 0.392459C32.1556 0.458217 33.3188 0.603492 34.4682 0.827276C31.0882 0.175403 28.6505 0.0598237 25.1096 0.571895C23.1352 0.887064 21.204 1.42988 19.3545 2.18948C15.4416 3.85979 12.5514 5.87801 9.49659 8.94997C7.7989 10.7037 6.29775 12.6376 5.01981 14.7171L5.48081 14.7828C5.03996 15.4999 4.71743 16.0534 4.20912 17.0217L3.74608 16.9704C2.98229 18.4353 2.31949 19.9507 1.7623 21.506L0.154767 22.8002L0.699707 22.8583Z" fill="url(#paint0_linear_130_229)"/>
<defs>
<linearGradient id="paint0_linear_130_229" x1="19.1945" y1="-1.39384" x2="15.4393" y2="24.9791" gradientUnits="userSpaceOnUse">
<stop stop-color="#9E6100"/>
<stop offset="0.49" stop-color="#642701"/>
<stop offset="0.65" stop-color="#682A01"/>
<stop offset="0.81" stop-color="#753401"/>
<stop offset="0.98" stop-color="#8A4401"/>
<stop offset="1" stop-color="#8C4601"/>
</linearGradient>
</defs>
</svg>
