<svg width="6" height="9" viewBox="0 0 6 9" fill="none" xmlns="http://www.w3.org/2000/svg">
<path d="M5.55994 6.39902C5.5579 6.30808 5.5402 6.21817 5.50761 6.13324C3.26927 0.167847 3.45646 0.633171 3.35608 0.482402C3.27608 0.374635 3.16507 0.293881 3.0379 0.250948C2.91074 0.208015 2.77349 0.204953 2.64454 0.242173C2.52446 0.281126 0.762829 1.13428 0.687785 1.18208C0.529961 1.28371 0.411379 1.43599 0.351504 1.6139C0.291629 1.79181 0.294019 1.98479 0.358282 2.16117C2.55464 8.07915 2.38144 7.63532 2.48148 7.78847C2.56005 7.89778 2.67013 7.98049 2.79697 8.02555C2.92382 8.07061 3.0614 8.07588 3.19132 8.04064C3.3114 8.00169 5.08976 7.16798 5.1689 7.12563C5.29316 7.05062 5.395 6.94361 5.46378 6.8158C5.53257 6.68798 5.56578 6.54405 5.55994 6.39902Z" fill="url(#paint0_linear_130_619)"/>
<defs>
<linearGradient id="paint0_linear_130_619" x1="0.0379187" y1="3.72645" x2="5.83035" y2="4.55123" gradientUnits="userSpaceOnUse">
<stop stop-color="#FFE6AB"/>
<stop offset="1" stop-color="#FFD778"/>
</linearGradient>
</defs>
</svg>
