<svg width="3" height="4" viewBox="0 0 3 4" fill="none" xmlns="http://www.w3.org/2000/svg">
<path d="M0.668155 1.90054C0.715295 2.01448 1.37742 3.14938 1.39313 3.17599C1.42388 3.22633 1.46543 3.26921 1.51477 3.30152C1.56412 3.33384 1.62003 3.35478 1.67847 3.36284C1.75406 3.36676 1.82961 3.35439 1.9 3.32657C1.97039 3.29875 2.03399 3.25614 2.08648 3.20161C2.53363 2.7998 2.48827 2.84452 2.56329 2.74553C2.63176 2.649 2.67618 2.53752 2.69286 2.42035C2.70955 2.30319 2.698 2.18374 2.6592 2.07194C2.6124 1.9556 1.95335 0.833321 1.93764 0.806714C1.89728 0.732688 1.83351 0.674133 1.75632 0.640211C1.67913 0.606289 1.59287 0.598915 1.51104 0.619244C1.4336 0.641007 1.36125 0.67792 1.29818 0.727846C1.21529 0.796468 0.871495 1.10576 0.798854 1.18803C0.717678 1.28555 0.663005 1.40235 0.640112 1.52715C0.617219 1.65195 0.626877 1.78055 0.668155 1.90054ZM2.29424 2.37578C2.28098 2.46894 2.26733 2.46212 1.91739 2.78029L1.80351 1.47487C2.3229 2.3628 2.29796 2.29832 2.29424 2.37578ZM1.0413 1.59055C1.0532 1.50694 1.06617 1.51854 1.40792 1.20652L1.51736 2.49181C1.0287 1.6448 1.04339 1.67858 1.0413 1.59055Z" fill="url(#paint0_linear_130_525)"/>
<defs>
<linearGradient id="paint0_linear_130_525" x1="0.599542" y1="1.83471" x2="2.73737" y2="2.13912" gradientUnits="userSpaceOnUse">
<stop stop-color="#FFE6AB"/>
<stop offset="1" stop-color="#FFD778"/>
</linearGradient>
</defs>
</svg>
