<svg width="7" height="8" viewBox="0 0 7 8" fill="none" xmlns="http://www.w3.org/2000/svg">
<path d="M0.795064 2.32929C0.857238 2.49168 0.614456 2.09155 3.88833 7.20276C3.93457 7.27682 3.99523 7.34083 4.06671 7.39098C4.13818 7.44113 4.21901 7.4764 4.30438 7.4947C4.38976 7.51299 4.47794 7.51394 4.56369 7.49748C4.64944 7.48101 4.73101 7.44748 4.80354 7.39888C4.89325 7.33366 4.70395 7.48218 6.44964 6.10766C6.58046 6.0021 6.67626 5.8594 6.72442 5.69835C6.77258 5.53729 6.77085 5.36543 6.71946 5.20538C6.65728 5.04299 6.89427 5.43254 3.58867 0.32169C3.54257 0.247751 3.48185 0.184013 3.41023 0.134391C3.33861 0.0847678 3.25761 0.0503068 3.17219 0.0331231C3.08677 0.0159394 2.99873 0.0163956 2.9135 0.0344639C2.82826 0.0525323 2.74762 0.0878316 2.67652 0.138194C2.58681 0.203407 2.78464 0.0463581 1.05875 1.43588C0.930731 1.54153 0.837221 1.68305 0.790234 1.84224C0.743247 2.00144 0.744929 2.17105 0.795064 2.32929Z" fill="url(#paint0_linear_130_604)"/>
<defs>
<linearGradient id="paint0_linear_130_604" x1="0.572021" y1="3.31379" x2="6.93773" y2="4.2202" gradientUnits="userSpaceOnUse">
<stop stop-color="#FFE6AB"/>
<stop offset="1" stop-color="#FFD778"/>
</linearGradient>
</defs>
</svg>
