<svg width="7" height="6" viewBox="0 0 7 6" fill="none" xmlns="http://www.w3.org/2000/svg">
<path d="M1.91674 5.02492C2.05101 5.00112 1.6975 5.14818 6.16475 3.12804C6.27024 3.0747 6.35836 2.99244 6.4188 2.89085C6.47924 2.78927 6.5095 2.67257 6.50604 2.55442C6.49872 2.30449 6.50327 2.39311 5.78207 0.571804C5.73762 0.442006 5.6511 0.330761 5.53624 0.255716C5.42138 0.180671 5.28476 0.146119 5.14803 0.157538C5.01136 0.183134 5.35165 0.0384836 0.922866 2.07483C0.854618 2.10696 0.793932 2.15316 0.744789 2.21039C0.670907 2.30103 0.62072 2.40861 0.598749 2.52346C0.576777 2.63831 0.583712 2.75682 0.618922 2.86833C0.638775 2.92479 1.27939 4.58873 1.35095 4.71907C1.4054 4.81946 1.48789 4.90183 1.58835 4.95614C1.68882 5.01045 1.80292 5.03435 1.91674 5.02492Z" fill="url(#paint0_linear_82_495)"/>
<defs>
<linearGradient id="paint0_linear_82_495" x1="0.646242" y1="2.17919" x2="6.44617" y2="3.00505" gradientUnits="userSpaceOnUse">
<stop stop-color="#FFE6AB"/>
<stop offset="1" stop-color="#FFD778"/>
</linearGradient>
</defs>
</svg>
