<svg width="9" height="16" viewBox="0 0 9 16" fill="none" xmlns="http://www.w3.org/2000/svg">
<path d="M4.58514 7.14229C4.69895 7.05122 4.43834 7.35955 7.7808 3.18815C7.87993 3.05498 7.93106 2.89217 7.92585 2.72624C7.92065 2.56031 7.85943 2.40104 7.75215 2.27434C7.69084 2.20768 7.77528 2.29265 7.28361 1.81283L6.91953 1.83824L6.35483 1.28366L6.7165 1.26006C6.17794 0.7328 6.30143 0.784712 5.39424 0.842203C5.47406 0.841486 5.5532 0.856781 5.627 0.887191C5.7008 0.9176 5.76776 0.962506 5.8239 1.01924C7.25384 2.41365 7.12941 2.27793 7.21208 2.40556C7.27903 2.51325 7.31733 2.63627 7.32333 2.76293C7.32933 2.88959 7.30283 3.01568 7.24636 3.12921C7.17012 3.25782 4.08495 7.09896 4.05162 7.13713C3.97535 7.21585 3.87722 7.26989 3.76992 7.29227C2.68053 7.462 1.69979 8.04859 1.03494 8.92811C0.370093 9.80763 0.0732096 10.9112 0.207025 12.0056C0.340841 13.0999 0.89487 14.0994 1.75205 14.7929C2.60923 15.4863 3.70241 15.8193 4.8006 15.7215C5.89879 15.6238 6.91597 15.1029 7.63719 14.269C8.35842 13.4351 8.7272 12.3534 8.66562 11.2526C8.60403 10.1518 8.11689 9.11806 7.30715 8.3698C6.4974 7.62154 5.42848 7.21739 4.32624 7.24274C4.41957 7.23141 4.50858 7.19687 4.58514 7.14229Z" fill="url(#paint0_linear_82_288)"/>
<defs>
<linearGradient id="paint0_linear_82_288" x1="6.41561" y1="0.856756" x2="5.4628" y2="7.54833" gradientUnits="userSpaceOnUse">
<stop stop-color="#9E6100"/>
<stop offset="0.49" stop-color="#642701"/>
<stop offset="0.65" stop-color="#682A01"/>
<stop offset="0.81" stop-color="#753401"/>
<stop offset="0.98" stop-color="#8A4401"/>
<stop offset="1" stop-color="#8C4601"/>
</linearGradient>
</defs>
</svg>
