<svg width="3" height="4" viewBox="0 0 3 4" fill="none" xmlns="http://www.w3.org/2000/svg">
<path d="M1.94621 3.04236C1.93894 3.0125 1.92113 2.98629 1.89606 2.96853C1.87099 2.95076 1.84035 2.94265 1.80978 2.94569L1.69113 2.96527C1.21857 0.934771 1.25586 1.03449 1.19486 0.980747C1.17144 0.962579 1.14208 0.953808 1.11254 0.956152C0.392827 1.06823 0.455602 1.04928 0.501867 1.05586C0.623838 1.07323 0.588096 1.08316 1.05462 3.0656L1.20842 3.04029C1.31146 3.05496 1.31632 3.17152 1.38555 3.46888L0.858099 3.58688C1.25078 3.53282 1.64032 3.45794 2.02506 3.36255C1.94229 3.02463 1.95162 3.06458 1.94621 3.04236Z" fill="url(#paint0_linear_82_263)"/>
<defs>
<linearGradient id="paint0_linear_82_263" x1="1.42407" y1="0.998366" x2="1.05007" y2="3.62495" gradientUnits="userSpaceOnUse">
<stop stop-color="#9E6100"/>
<stop offset="0.49" stop-color="#642701"/>
<stop offset="0.65" stop-color="#682A01"/>
<stop offset="0.81" stop-color="#753401"/>
<stop offset="0.98" stop-color="#8A4401"/>
<stop offset="1" stop-color="#8C4601"/>
</linearGradient>
</defs>
</svg>
