<svg width="3" height="4" viewBox="0 0 3 4" fill="none" xmlns="http://www.w3.org/2000/svg">
<path d="M0.186138 1.53194C0.182737 1.55583 0.178587 1.43095 0.256227 2.58011L0.642521 2.67411L0.492237 3.09625L1.23446 3.27505L1.46652 2.62084C1.47648 2.77336 1.4751 2.73173 1.47821 2.8126C1.47672 2.97136 1.42306 3.12523 1.32552 3.2505C1.22797 3.37577 1.09195 3.46549 0.938389 3.50584C0.72533 3.5709 0.504601 3.60748 0.281948 3.61465C0.250895 3.61023 -0.0299485 3.54587 0.96479 3.78255C1.00162 3.79144 1.03921 3.79679 1.07706 3.79854C1.21456 3.79131 1.69289 3.68395 1.73587 3.67301C1.88611 3.61947 2.01446 3.51779 2.10096 3.3838C2.18747 3.2498 2.2273 3.09099 2.21425 2.93203C2.10569 1.31542 2.13844 1.3079 1.98651 1.10836C1.85747 0.970567 1.86124 0.995473 1.0378 0.788052C1.13635 0.8146 1.22137 0.877142 1.27605 0.963326C1.35713 1.11803 1.39471 1.29184 1.38478 1.46622L0.709451 1.29695L0.300715 1.37766C0.2682 1.38868 0.239814 1.40935 0.219344 1.43692C0.198874 1.46448 0.187291 1.49763 0.186138 1.53194ZM0.987669 1.58514C1.03372 1.55271 1.02007 1.56295 1.38923 1.48635L1.41774 1.90227L0.958759 1.78818L0.935244 1.85063C0.927344 1.73496 0.906154 1.66127 0.987669 1.58514Z" fill="url(#paint0_linear_130_329)"/>
<defs>
<linearGradient id="paint0_linear_130_329" x1="1.40633" y1="0.835653" x2="0.986286" y2="3.78562" gradientUnits="userSpaceOnUse">
<stop stop-color="#9E6100"/>
<stop offset="0.49" stop-color="#642701"/>
<stop offset="0.65" stop-color="#682A01"/>
<stop offset="0.81" stop-color="#753401"/>
<stop offset="0.98" stop-color="#8A4401"/>
<stop offset="1" stop-color="#8C4601"/>
</linearGradient>
</defs>
</svg>
