<svg width="3" height="3" viewBox="0 0 3 3" fill="none" xmlns="http://www.w3.org/2000/svg">
<path d="M0.562379 0.97676C0.555237 1.02692 0.539166 0.951521 0.943598 1.91082L1.31999 1.98879L1.31227 2.26551C1.99407 2.40646 1.9149 2.38056 1.88727 2.40344C1.81871 2.45704 1.88727 2.40344 1.43258 2.72131C1.37672 2.76448 1.31274 2.79595 1.24445 2.81386C1.17617 2.83177 1.10498 2.83575 1.03512 2.82557C1.87833 2.99681 1.78586 2.97877 1.83124 2.98523C2.07316 2.99774 2.20345 2.87007 2.59913 2.60716C2.72702 2.51689 2.82337 2.38878 2.8746 2.24086C2.92583 2.09295 2.92936 1.93269 2.88469 1.78266C2.85463 1.70283 2.3501 0.48801 2.30196 0.415354C2.27463 0.360179 2.23515 0.311912 2.1865 0.274173C2.13785 0.236434 2.08128 0.210203 2.02104 0.197449C0.963527 -0.0262431 1.28634 0.0343446 1.37508 0.0786614C1.56246 0.200388 1.58299 0.330039 1.88632 1.05804L1.44781 0.954176L1.73502 0.751365L0.973361 0.589297C0.596105 0.859709 0.567442 0.855628 0.562379 0.97676ZM2.08881 2.13481C2.0854 2.1587 2.0735 2.2423 2.09945 1.54656C2.13896 1.63989 2.15843 1.74048 2.15659 1.84182C2.15476 1.94315 2.13167 2.04297 2.08881 2.13481ZM1.34584 1.0542L1.34147 1.20467C1.3312 1.18079 1.32626 1.15494 1.32702 1.12895C1.32777 1.10296 1.33419 1.07745 1.34584 1.0542Z" fill="url(#paint0_linear_130_310)"/>
<defs>
<linearGradient id="paint0_linear_130_310" x1="1.93707" y1="0.119691" x2="1.53539" y2="2.94067" gradientUnits="userSpaceOnUse">
<stop stop-color="#9E6100"/>
<stop offset="0.49" stop-color="#642701"/>
<stop offset="0.65" stop-color="#682A01"/>
<stop offset="0.81" stop-color="#753401"/>
<stop offset="0.98" stop-color="#8A4401"/>
<stop offset="1" stop-color="#8C4601"/>
</linearGradient>
</defs>
</svg>
