<svg width="3" height="2" viewBox="0 0 3 2" fill="none" xmlns="http://www.w3.org/2000/svg">
<path d="M0.699929 0.815487C0.782877 0.895957 0.850116 0.785379 0.906862 0.718363C2.16146 2.30451 1.80438 1.85888 1.8717 1.92854C1.88024 1.93709 1.89043 1.94381 1.90164 1.94831C1.91286 1.9528 1.92487 1.95497 1.93695 1.95469C1.94902 1.9544 1.96092 1.95166 1.97191 1.94664C1.9829 1.94162 1.99275 1.93442 2.00087 1.92547C2.01349 1.91225 1.97716 1.95643 2.19963 1.68987C0.643254 -0.278248 1.09321 0.283596 1.00665 0.183302C0.997556 0.174024 0.986502 0.166898 0.974297 0.162447C0.962091 0.157995 0.949044 0.156331 0.936113 0.157576C0.923181 0.15882 0.910691 0.162942 0.899559 0.169639C0.888427 0.176336 0.878934 0.185439 0.871776 0.196281L0.531305 0.598374L0.699929 0.815487Z" fill="url(#paint0_linear_82_427)"/>
<defs>
<linearGradient id="paint0_linear_82_427" x1="0.489696" y1="0.920724" x2="2.273" y2="1.17465" gradientUnits="userSpaceOnUse">
<stop stop-color="#FFE6AB"/>
<stop offset="1" stop-color="#FFD778"/>
</linearGradient>
</defs>
</svg>
