<svg width="7" height="5" viewBox="0 0 7 5" fill="none" xmlns="http://www.w3.org/2000/svg">
<path d="M6.07502 1.11097C6.06311 1.19457 5.88589 3.14092 5.85968 3.27366C5.83224 3.40229 5.7721 3.52167 5.68506 3.62027C5.59802 3.71887 5.48702 3.79336 5.36279 3.83655C5.20653 3.87279 5.60166 3.87056 0.38514 3.69074C0.352071 3.68984 0.319212 3.68516 0.287205 3.67679L1.06013 3.84534C1.11268 3.85282 5.88596 4.03046 6.02994 4.01197C6.15629 3.98321 6.2726 3.92106 6.36673 3.832C6.46086 3.74295 6.52935 3.63026 6.56507 3.5057C6.62822 3.2719 6.66248 3.03125 6.66711 2.78911L6.2327 2.6907C6.31183 1.87824 6.29587 2.04169 6.31488 1.83969L6.74895 1.94049C6.81993 1.21947 6.81962 1.2901 6.80181 1.14134C6.77775 0.975664 6.69216 0.825128 6.56209 0.719718C6.4044 0.611967 6.40168 0.631076 5.62602 0.447518C5.76598 0.489219 5.88718 0.578094 5.96903 0.699039C6.05088 0.819984 6.08833 0.965538 6.07502 1.11097Z" fill="url(#paint0_linear_130_339)"/>
<defs>
<linearGradient id="paint0_linear_130_339" x1="3.91508" y1="0.208771" x2="3.3515" y2="4.16674" gradientUnits="userSpaceOnUse">
<stop stop-color="#9E6100"/>
<stop offset="0.49" stop-color="#642701"/>
<stop offset="0.65" stop-color="#682A01"/>
<stop offset="0.81" stop-color="#753401"/>
<stop offset="0.98" stop-color="#8A4401"/>
<stop offset="1" stop-color="#8C4601"/>
</linearGradient>
</defs>
</svg>
