<svg width="6" height="7" viewBox="0 0 6 7" fill="none" xmlns="http://www.w3.org/2000/svg">
<path d="M4.85548 5.43602C4.95455 5.30325 5.0107 5.14339 5.01642 4.97783C5.02214 4.81226 4.97715 4.64891 4.88747 4.50962C1.88273 -0.061236 2.11559 0.288741 2.00602 0.185404C1.92731 0.112487 1.82574 0.0691464 1.71864 0.0627858C1.61154 0.0564252 1.50556 0.0874341 1.41878 0.150524C1.33691 0.211979 0.201546 1.35658 0.151756 1.4153C0.0534078 1.54645 -0.00246652 1.70455 -0.00836873 1.86837C-0.0142709 2.0322 0.03008 2.19391 0.118735 2.3318C3.10676 6.90028 2.86912 6.54962 2.9787 6.65296C3.05638 6.72827 3.15798 6.77402 3.26587 6.78225C3.37376 6.79049 3.48113 6.76071 3.56935 6.69807C3.65087 6.639 4.81525 5.49609 4.85548 5.43602Z" fill="url(#paint0_linear_130_535)"/>
<defs>
<linearGradient id="paint0_linear_130_535" x1="-0.179839" y1="3.04234" x2="5.18981" y2="3.80692" gradientUnits="userSpaceOnUse">
<stop stop-color="#FFE6AB"/>
<stop offset="1" stop-color="#FFD778"/>
</linearGradient>
</defs>
</svg>
