<svg width="4" height="3" viewBox="0 0 4 3" fill="none" xmlns="http://www.w3.org/2000/svg">
<path d="M0.205263 0.0382829C2.75843 0.523682 2.62532 0.465736 2.7629 0.612053C2.83344 0.694737 2.87284 0.799493 2.87427 0.908172C2.87159 1.01258 2.65421 2.45362 2.65013 2.48228C2.6325 2.56994 2.58639 2.6493 2.51896 2.70802C2.45154 2.76674 2.36658 2.80152 2.27734 2.80694C3.08431 2.82193 2.96761 2.81993 3.01913 2.81752C3.35724 2.75356 3.36462 2.4451 3.40102 2.20658L2.97825 2.19756C3.00988 1.97542 2.98505 2.14979 3.10239 1.32571L3.52243 1.33678C3.57481 0.968929 3.61367 0.884293 3.51122 0.696674C3.46245 0.612122 3.38529 0.547595 3.29344 0.514564L0.920797 0.0621802C0.673405 0.0396493 0.424986 0.0303109 0.176601 0.0342017L0.205263 0.0382829Z" fill="url(#paint0_linear_130_364)"/>
<defs>
<linearGradient id="paint0_linear_130_364" x1="1.91481" y1="0.20128" x2="1.55836" y2="2.70457" gradientUnits="userSpaceOnUse">
<stop stop-color="#9E6100"/>
<stop offset="0.49" stop-color="#642701"/>
<stop offset="0.65" stop-color="#682A01"/>
<stop offset="0.81" stop-color="#753401"/>
<stop offset="0.98" stop-color="#8A4401"/>
<stop offset="1" stop-color="#8C4601"/>
</linearGradient>
</defs>
</svg>
