<svg width="3" height="4" viewBox="0 0 3 4" fill="none" xmlns="http://www.w3.org/2000/svg">
<path d="M0.322166 2.72459C0.410229 2.79074 0.812983 3.06012 0.926973 3.11534C1.03089 3.16166 1.14601 3.17687 1.25839 3.15913C1.37077 3.1414 1.47561 3.09148 1.56021 3.01542C1.62538 2.96007 1.68022 2.89362 1.7222 2.81915C2.6216 1.26076 2.53535 1.42151 2.58886 1.28535C2.76261 0.698385 2.31587 0.515358 1.86534 0.222122C1.7976 0.178488 1.72183 0.148813 1.64246 0.134835C1.5631 0.120857 1.48175 0.122859 1.40317 0.140722C1.3246 0.158585 1.25037 0.19195 1.18486 0.238864C1.11934 0.285777 1.06384 0.345294 1.02162 0.413929C0.977972 0.480826 0.182897 1.85422 0.135179 1.96684C0.0787275 2.09614 0.0664501 2.24043 0.100251 2.37741C0.134052 2.51438 0.212046 2.6364 0.322166 2.72459ZM1.47213 0.673043C1.5622 0.639563 1.56391 0.66174 1.97417 0.929744L0.833861 1.71539C1.41619 0.706506 1.3964 0.708563 1.47213 0.673043ZM1.87415 1.56376C1.25534 2.64056 1.30274 2.58151 1.2369 2.61601C1.22104 2.62408 1.20371 2.62888 1.18595 2.63012C1.16818 2.63136 1.15036 2.62901 1.13352 2.62322C1.10963 2.61982 1.15537 2.64095 0.718145 2.35692L1.87415 1.56376Z" fill="url(#paint0_linear_130_591)"/>
<defs>
<linearGradient id="paint0_linear_130_591" x1="0.185113" y1="1.47923" x2="2.52597" y2="1.81255" gradientUnits="userSpaceOnUse">
<stop stop-color="#FFE6AB"/>
<stop offset="1" stop-color="#FFD778"/>
</linearGradient>
</defs>
</svg>
