<svg width="5" height="2" viewBox="0 0 5 2" fill="none" xmlns="http://www.w3.org/2000/svg">
<path d="M3.88186 0.708351C3.85797 0.70495 3.08308 0.70428 3.20933 0.707634C3.23799 0.711716 3.20933 0.707636 3.58881 0.815285L3.55816 0.944959C0.959491 0.19719 1.70207 0.407718 1.56352 0.370931C1.5468 0.36855 0.777359 0.363783 0.888597 0.369874C0.912483 0.373275 0.725138 0.319792 3.01428 0.982059L3.54862 0.97772C3.41717 1.54146 3.42262 1.5203 3.41444 1.54351C3.40596 1.57449 3.38742 1.60177 3.36173 1.62106C3.33604 1.64034 3.30466 1.65053 3.27254 1.65003C3.99215 1.64527 3.94985 1.65142 4.00648 1.63024C4.09619 1.58209 4.08151 1.54832 4.2569 0.812929L3.88186 0.708351Z" fill="url(#paint0_linear_130_419)"/>
<defs>
<linearGradient id="paint0_linear_130_419" x1="2.57425" y1="0.512412" x2="2.42936" y2="1.52997" gradientUnits="userSpaceOnUse">
<stop stop-color="#9E6100"/>
<stop offset="0.49" stop-color="#642701"/>
<stop offset="0.65" stop-color="#682A01"/>
<stop offset="0.81" stop-color="#753401"/>
<stop offset="0.98" stop-color="#8A4401"/>
<stop offset="1" stop-color="#8C4601"/>
</linearGradient>
</defs>
</svg>
