<svg width="6" height="5" viewBox="0 0 6 5" fill="none" xmlns="http://www.w3.org/2000/svg">
<path d="M0.582314 3.47372C4.92709 4.9506 4.59691 4.85853 4.73119 4.86478C4.83633 4.86033 4.93738 4.82276 5.0199 4.75745C5.10241 4.69213 5.16217 4.6024 5.19064 4.50109C5.22424 4.40074 5.5389 2.74839 5.54908 2.67689C5.56973 2.52718 5.54037 2.37485 5.46557 2.24354C5.39077 2.11223 5.27471 2.00929 5.1354 1.9507C0.804152 0.499341 1.11511 0.59082 0.980527 0.586676C0.876607 0.592613 0.777173 0.631028 0.69625 0.696496C0.615327 0.761964 0.556998 0.85118 0.529491 0.95157C0.497995 1.05222 0.190529 2.68414 0.178245 2.75534C0.159042 2.90266 0.18802 3.05223 0.26085 3.18171C0.33368 3.31119 0.446451 3.41363 0.582314 3.47372Z" fill="url(#paint0_linear_82_465)"/>
<defs>
<linearGradient id="paint0_linear_82_465" x1="0.235438" y1="2.35368" x2="5.4886" y2="3.10168" gradientUnits="userSpaceOnUse">
<stop stop-color="#FFE6AB"/>
<stop offset="1" stop-color="#FFD778"/>
</linearGradient>
</defs>
</svg>
