<svg width="4" height="5" viewBox="0 0 4 5" fill="none" xmlns="http://www.w3.org/2000/svg">
<path d="M1.97181 4.83132C2.02535 4.7634 3.44949 2.36096 3.47847 2.31147C3.53334 2.19076 3.54932 2.05596 3.52419 1.92576C3.49907 1.79556 3.43408 1.67639 3.33824 1.58476C2.0947 0.476734 2.1609 0.491031 1.94491 0.484647C1.88689 0.486677 1.82998 0.501071 1.77797 0.526868C1.72597 0.552665 1.68007 0.589273 1.64335 0.634238C1.58947 0.704552 0.175224 3.10596 0.146924 3.15067C0.0921546 3.27067 0.0762931 3.40478 0.101561 3.53424C0.126829 3.6637 0.191962 3.78201 0.287834 3.87261C1.49929 4.96632 1.40269 4.89163 1.50713 4.9455C1.58614 4.98149 1.67498 4.98981 1.75929 4.96909C1.84361 4.94837 1.91848 4.89984 1.97181 4.83132Z" fill="url(#paint0_linear_130_545)"/>
<defs>
<linearGradient id="paint0_linear_130_545" x1="0.219647" y1="2.50302" x2="3.41325" y2="2.95776" gradientUnits="userSpaceOnUse">
<stop stop-color="#FFE6AB"/>
<stop offset="1" stop-color="#FFD778"/>
</linearGradient>
</defs>
</svg>
