<svg width="28" height="66" viewBox="0 0 28 66" fill="none" xmlns="http://www.w3.org/2000/svg">
<path d="M1.4403 65.3772C3.83757 65.1227 6.18439 64.517 8.40548 63.5798C11.0082 62.4334 12.5795 61.4943 14.9723 59.6529C17.0578 57.9747 18.9144 56.0303 20.4946 53.8695C22.1319 51.6304 23.4871 49.1981 24.5296 46.6276C25.6193 43.9394 26.3906 41.1328 26.8274 38.2652C27.2742 35.3714 27.387 32.4357 27.1635 29.5162C26.9466 26.6655 26.3947 23.8503 25.5192 21.1288C24.6643 18.4677 23.4854 15.9219 22.0091 13.5486C20.2719 10.8767 19.0386 9.38156 16.9328 7.3395C15.109 5.61997 13.0537 4.16388 10.8266 3.01351C8.80891 1.97717 6.65964 1.22001 4.43788 0.762817C7.36375 1.42203 10.1478 2.60036 12.6579 4.24191C13.1064 4.33152 12.9922 4.28952 13.1554 4.39429C13.4682 4.60833 14.1762 5.07603 14.8938 5.64166L14.5219 5.57153C15.7231 6.50322 16.8468 7.53074 17.882 8.64401C19.9018 10.8841 21.0497 12.4808 22.6182 15.2831C23.952 17.761 24.9802 20.3915 25.6802 23.1171C26.3973 25.9066 26.7866 28.7703 26.8403 31.6501C26.8964 34.6036 26.6123 37.5537 25.9939 40.4423C25.1629 44.0787 24.0952 47.2824 21.9562 50.9879L22.3233 50.9715C21.8761 51.7468 21.2685 52.6837 20.983 53.0915L20.6135 53.1097C18.2941 56.3797 16.4147 58.2319 13.7382 60.3032C11.3013 62.0632 9.71584 62.936 7.10252 63.9757C5.41251 64.6173 3.65702 65.0711 1.86775 65.3287C1.02817 65.4237 0.601317 65.468 1.4403 65.3772Z" fill="url(#paint0_linear_82_148)"/>
<defs>
<linearGradient id="paint0_linear_82_148" x1="18.0229" y1="2.6972" x2="8.92985" y2="66.5574" gradientUnits="userSpaceOnUse">
<stop stop-color="#9E6100"/>
<stop offset="0.49" stop-color="#642701"/>
<stop offset="0.65" stop-color="#682A01"/>
<stop offset="0.81" stop-color="#753401"/>
<stop offset="0.98" stop-color="#8A4401"/>
<stop offset="1" stop-color="#8C4601"/>
</linearGradient>
</defs>
</svg>
