<svg width="3" height="3" viewBox="0 0 3 3" fill="none" xmlns="http://www.w3.org/2000/svg">
<path d="M2.93259 1.35128C2.95887 1.17276 2.91751 0.990864 2.81664 0.841252C2.71577 0.691639 2.56266 0.585099 2.38731 0.542515C0.480448 0.156454 1.0288 0.224786 0.106163 0.217702C0.196931 0.230626 1.69874 0.534641 1.79531 0.558141C1.87934 0.584479 1.95726 0.627337 2.02449 0.684201C2.09173 0.741065 2.14692 0.810786 2.18683 0.889275C2.33335 1.19527 2.27372 1.37444 2.21111 1.7457L1.21302 0.899275L0.551751 0.887975L1.66487 1.83365L2.19546 1.83852C2.15125 2.14904 2.11927 2.37357 1.86823 2.56204C1.76602 2.63187 1.64391 2.66665 1.52024 2.66115C2.25077 2.66525 2.28388 2.68946 2.47458 2.59964C2.55428 2.54804 2.62273 2.48087 2.67582 2.40216C2.7289 2.32345 2.76553 2.23482 2.78351 2.14159C2.82882 1.99451 2.91661 1.46354 2.93259 1.35128Z" fill="url(#paint0_linear_130_423)"/>
<defs>
<linearGradient id="paint0_linear_130_423" x1="1.58162" y1="0.347369" x2="1.25749" y2="2.62374" gradientUnits="userSpaceOnUse">
<stop stop-color="#9E6100"/>
<stop offset="0.49" stop-color="#642701"/>
<stop offset="0.65" stop-color="#682A01"/>
<stop offset="0.81" stop-color="#753401"/>
<stop offset="0.98" stop-color="#8A4401"/>
<stop offset="1" stop-color="#8C4601"/>
</linearGradient>
</defs>
</svg>
