<svg width="4" height="4" viewBox="0 0 4 4" fill="none" xmlns="http://www.w3.org/2000/svg">
<path d="M0.587077 1.69682C0.590873 1.78997 0.578575 1.75654 1.27525 2.34072L1.70998 2.40262L1.72843 2.44424L2.14644 2.50376C1.99336 2.77441 1.85429 3.08361 1.54276 3.08068L2.29279 3.18748C2.36093 3.19328 2.42948 3.1829 2.49285 3.1572C2.55622 3.1315 2.61263 3.09119 2.65748 3.03957C2.75331 2.93136 2.72262 2.97573 3.03458 2.42794C3.11343 2.30017 3.1506 2.15104 3.14094 2.0012C3.13127 1.85136 3.07525 1.70824 2.98063 1.59166C2.92703 1.54016 2.03374 0.79639 1.96889 0.755474C1.84671 0.689335 1.92349 0.714888 1.05676 0.589037C1.21647 0.631274 1.20385 0.651414 2.15346 1.44464C2.24324 1.52977 2.30702 1.63863 2.3374 1.75857C2.36777 1.8785 2.36349 2.0046 2.32506 2.1222L2.04631 1.42694L1.59486 1.36266L1.59792 1.34116L0.824006 1.23096C0.587054 1.64564 0.590115 1.62415 0.587077 1.69682ZM1.41689 1.6712L1.5648 2.03588C1.39243 1.89436 1.30882 1.86539 1.41689 1.6712Z" fill="url(#paint0_linear_130_268)"/>
<defs>
<linearGradient id="paint0_linear_130_268" x1="2.02756" y1="0.719959" x2="1.68881" y2="3.09904" gradientUnits="userSpaceOnUse">
<stop stop-color="#9E6100"/>
<stop offset="0.49" stop-color="#642701"/>
<stop offset="0.65" stop-color="#682A01"/>
<stop offset="0.81" stop-color="#753401"/>
<stop offset="0.98" stop-color="#8A4401"/>
<stop offset="1" stop-color="#8C4601"/>
</linearGradient>
</defs>
</svg>
