<svg width="7" height="4" viewBox="0 0 7 4" fill="none" xmlns="http://www.w3.org/2000/svg">
<path d="M5.85291 3.79514C5.92237 3.78417 5.9887 3.75852 6.04748 3.7199C6.10625 3.68128 6.15612 3.63058 6.19376 3.57118C6.33724 3.33199 6.30273 3.39359 6.31024 1.44218C6.31742 1.28844 6.27221 1.13681 6.182 1.0121C6.09179 0.887397 5.96193 0.796996 5.81367 0.755692C5.77371 0.750003 1.54571 0.426903 1.42376 0.439576C1.3187 0.461389 1.22258 0.514147 1.14777 0.591062C1.07296 0.667976 1.02288 0.765526 1.00399 0.871146C0.98393 1.01204 0.985053 0.83841 0.976024 2.7703C0.967853 2.92141 1.01148 3.07078 1.09969 3.19374C1.1879 3.31671 1.31542 3.40589 1.46118 3.44657C1.50504 3.45497 5.72254 3.80661 5.85291 3.79514Z" fill="url(#paint0_linear_82_481)"/>
<defs>
<linearGradient id="paint0_linear_82_481" x1="0.880011" y1="1.71172" x2="6.40655" y2="2.49865" gradientUnits="userSpaceOnUse">
<stop stop-color="#FFE6AB"/>
<stop offset="1" stop-color="#FFD778"/>
</linearGradient>
</defs>
</svg>
