<svg width="3" height="2" viewBox="0 0 3 2" fill="none" xmlns="http://www.w3.org/2000/svg">
<path d="M1.04654 0.734253C1.05751 0.740102 1.06959 0.743588 1.08199 0.744494C1.0944 0.7454 1.10685 0.743705 1.11856 0.739513C1.13027 0.735321 1.14097 0.728725 1.14998 0.720153C1.15899 0.711581 1.16611 0.70122 1.17088 0.689735L1.22521 0.579462C2.76407 1.69114 2.32354 1.37953 2.40407 1.43176C2.41539 1.43732 2.42771 1.44052 2.4403 1.44119C2.45289 1.44186 2.46548 1.43997 2.47733 1.43564C2.48917 1.43132 2.50001 1.42464 2.5092 1.41601C2.5184 1.40738 2.52575 1.39699 2.53082 1.38544C2.53262 1.37282 2.52842 1.40227 2.66918 1.10691C0.766107 -0.264756 1.30761 0.121314 1.20965 0.0558712C1.19789 0.0503376 1.18511 0.0473137 1.17212 0.046996C1.15914 0.0466782 1.14622 0.0490732 1.13421 0.0540254C1.1222 0.0589777 1.11135 0.066381 1.10236 0.0757603C1.09337 0.0851397 1.08644 0.09629 1.082 0.1085L0.844001 0.589551L1.04654 0.734253Z" fill="url(#paint0_linear_82_404)"/>
<defs>
<linearGradient id="paint0_linear_82_404" x1="0.841605" y1="0.606374" x2="2.70271" y2="0.871378" gradientUnits="userSpaceOnUse">
<stop stop-color="#FFE6AB"/>
<stop offset="1" stop-color="#FFD778"/>
</linearGradient>
</defs>
</svg>
