<svg width="3" height="4" viewBox="0 0 3 4" fill="none" xmlns="http://www.w3.org/2000/svg">
<path d="M2.4531 1.64262L2.93287 1.69631L2.96688 1.45745C2.98764 1.37064 2.97646 1.27927 2.93538 1.20003C2.89431 1.12079 2.82609 1.05899 2.74319 1.02592C2.69781 1.01946 2.78857 1.03238 2.1938 0.94769C1.59903 0.863001 1.85224 0.916114 1.23835 0.811643C0.884833 0.761306 1.15236 0.799398 1.54443 0.835729C0.684172 0.698614 1.01892 0.743842 0.0778073 0.626896C2.12659 0.957616 2.00612 0.913654 2.11332 1.03371C2.16856 1.10788 2.19926 1.19746 2.20113 1.28992C2.18854 1.3783 2.00454 2.67055 2.00114 2.69444C1.98985 2.76842 1.95634 2.83722 1.90505 2.89172C1.85377 2.94622 1.78713 2.98385 1.71398 2.99961C1.68054 2.99485 1.51572 2.97138 2.46775 3.08013C2.55138 3.06916 2.62861 3.0295 2.68627 2.96793C2.74392 2.90637 2.77843 2.8267 2.7839 2.74253L2.82233 2.47262L2.34222 2.42131C2.44324 1.71189 2.42181 1.86237 2.4531 1.64262Z" fill="url(#paint0_linear_130_278)"/>
<defs>
<linearGradient id="paint0_linear_130_278" x1="1.53759" y1="0.815259" x2="1.23489" y2="2.94114" gradientUnits="userSpaceOnUse">
<stop stop-color="#9E6100"/>
<stop offset="0.49" stop-color="#642701"/>
<stop offset="0.65" stop-color="#682A01"/>
<stop offset="0.81" stop-color="#753401"/>
<stop offset="0.98" stop-color="#8A4401"/>
<stop offset="1" stop-color="#8C4601"/>
</linearGradient>
</defs>
</svg>
