<svg width="3" height="4" viewBox="0 0 3 4" fill="none" xmlns="http://www.w3.org/2000/svg">
<path d="M0.0968287 2.58638C0.633622 2.73593 0.408395 2.67461 1.09499 2.85037C1.03534 2.98506 0.93018 3.09447 0.79795 3.15942C0.665719 3.22436 0.514851 3.24069 0.371785 3.20555C1.22798 3.42251 1.12561 3.4055 1.25937 3.40749C1.39051 3.39802 1.5159 3.34994 1.61976 3.26932C1.72362 3.18869 1.80129 3.07913 1.84297 2.95443C1.86751 2.88481 2.30631 1.41195 2.32434 1.28535C2.33985 1.20794 2.33995 1.12823 2.32463 1.05077C2.30932 0.973324 2.27889 0.899651 2.23508 0.833969C2.05311 0.605782 1.96952 0.627998 0.692212 0.287713C1.22252 0.431461 1.40166 0.43991 1.55361 0.690631C1.69706 0.984007 1.59308 1.18366 1.46294 1.63548L1.00737 1.51456L0.93098 1.60604C1.05669 1.16821 1.07884 1.09825 1.08326 1.08426C1.09398 1.0503 1.11666 1.02137 1.14708 1.00284C1.1775 0.98432 1.21361 0.977458 1.2487 0.983529L0.522862 0.792442C0.48938 0.788334 0.455513 0.796049 0.427114 0.814253C0.398714 0.832457 0.377564 0.860008 0.367315 0.892146C0.364594 0.911255 0.335969 0.992477 0.0532102 1.96847L0.523454 2.08904L0.0968287 2.58638ZM1.30044 2.1948C1.24934 2.41741 1.18157 2.63587 1.09772 2.84832L0.811408 2.77099L1.30044 2.1948Z" fill="url(#paint0_linear_130_348)"/>
<defs>
<linearGradient id="paint0_linear_130_348" x1="1.36819" y1="0.383966" x2="0.942707" y2="3.37215" gradientUnits="userSpaceOnUse">
<stop stop-color="#9E6100"/>
<stop offset="0.49" stop-color="#642701"/>
<stop offset="0.65" stop-color="#682A01"/>
<stop offset="0.81" stop-color="#753401"/>
<stop offset="0.98" stop-color="#8A4401"/>
<stop offset="1" stop-color="#8C4601"/>
</linearGradient>
</defs>
</svg>
