<svg width="4" height="3" viewBox="0 0 4 3" fill="none" xmlns="http://www.w3.org/2000/svg">
<path d="M3.18301 1.45926L3.66516 1.49624L3.70427 1.22154C3.72382 1.13422 3.71223 1.04282 3.6715 0.963142C3.63078 0.883468 3.56348 0.820534 3.48126 0.785233C3.43349 0.77843 2.95439 0.685841 1.60001 0.441812C1.55223 0.43501 1.70988 0.457459 0.78073 0.376335C0.821336 0.382117 2.663 0.712588 2.71419 0.729625C2.77239 0.759873 2.82148 0.805082 2.85641 0.860599C2.89134 0.916116 2.91085 0.979939 2.91292 1.0455C2.91775 1.14854 2.91462 1.03355 2.71361 2.44524C2.6796 2.6841 2.5319 2.78005 2.38074 2.78046C3.25427 2.84147 3.18091 2.84321 3.25665 2.82475C3.49307 2.739 3.49775 2.5179 3.53312 2.26948L3.05097 2.23251L3.18301 1.45926Z" fill="url(#paint0_linear_130_274)"/>
<defs>
<linearGradient id="paint0_linear_130_274" x1="2.26882" y1="0.537045" x2="1.95796" y2="2.72026" gradientUnits="userSpaceOnUse">
<stop stop-color="#9E6100"/>
<stop offset="0.49" stop-color="#642701"/>
<stop offset="0.65" stop-color="#682A01"/>
<stop offset="0.81" stop-color="#753401"/>
<stop offset="0.98" stop-color="#8A4401"/>
<stop offset="1" stop-color="#8C4601"/>
</linearGradient>
</defs>
</svg>
