<svg width="44" height="37" viewBox="0 0 44 37" fill="none" xmlns="http://www.w3.org/2000/svg">
<path d="M4.55956 2.42128C7.69523 3.02618 7.17141 2.90529 6.55039 2.86804L10.0536 3.54477C10.6797 3.58031 10.2023 3.50989 12.4982 3.95378C12.7831 4.00654 12.8517 4.00412 12.2525 3.96754L14.2945 4.3631C15.5992 6.37667 14.4635 4.63087 15.9366 6.89993C15.8664 9.94473 16.2065 12.9851 16.9476 15.9392L17.4123 15.9444C17.5993 16.7022 17.9452 17.8505 18.1594 18.4684L17.694 18.4679C18.5487 21.0186 19.7354 23.4458 21.2234 25.687C23.5684 29.1062 26.0091 31.5448 29.5816 33.7374C31.2698 34.7427 33.0808 35.5256 34.9697 36.0668C38.357 36.9756 40.438 37.0282 43.2291 36.8188C40.3753 37.0453 37.5049 36.7037 34.784 35.8137C31.1167 34.5604 28.1819 32.8363 24.9928 29.6624C23.6238 28.2575 22.4061 26.7127 21.3599 25.0533C17.9791 19.6245 16.2784 13.3175 16.4716 6.92494C15.0716 4.77595 16.2117 6.52482 14.8316 4.39083L0.583074 1.64548C0.68776 0.75624 0.64424 1.09611 0.767672 0.16079L0.688847 0.149567C0.613681 0.677454 0.627966 0.577131 0.593274 0.820772L0.110446 0.788576C0.0968412 0.884122 0.116228 0.747969 0.0142549 1.60104C4.68824 2.51028 3.89964 2.38337 4.55956 2.42128Z" fill="url(#paint0_linear_130_214)"/>
<defs>
<linearGradient id="paint0_linear_130_214" x1="23.8634" y1="3.44939" x2="19.5027" y2="34.0741" gradientUnits="userSpaceOnUse">
<stop stop-color="#9E6100"/>
<stop offset="0.49" stop-color="#642701"/>
<stop offset="0.65" stop-color="#682A01"/>
<stop offset="0.81" stop-color="#753401"/>
<stop offset="0.98" stop-color="#8A4401"/>
<stop offset="1" stop-color="#8C4601"/>
</linearGradient>
</defs>
</svg>
