<svg width="6" height="5" viewBox="0 0 6 5" fill="none" xmlns="http://www.w3.org/2000/svg">
<path d="M4.43023 2.87467C4.32332 2.94741 0.511461 4.7798 0.485634 4.79544C0.428761 4.81578 0.368433 4.82468 0.308109 4.82165C0.28708 4.81866 0.0368291 4.78303 0.934502 4.94303C1.02714 4.95757 1.12202 4.94337 1.20635 4.90235C5.32574 2.91421 5.02751 3.06485 5.12871 2.97198C5.2401 2.86506 5.31417 2.72517 5.34001 2.57295C5.37294 2.34162 5.3468 2.3143 5.19605 1.79077L4.80009 1.70864L4.60211 1.01961L4.99778 1.10384C4.88134 0.701058 4.86593 0.522927 4.63516 0.380642C4.55073 0.340727 4.63756 0.363819 3.83991 0.194457C3.90309 0.205148 3.9633 0.229075 4.01658 0.264669C4.22333 0.424989 4.18097 0.421103 4.6678 2.11034C4.70712 2.24702 4.70558 2.39223 4.66337 2.52805C4.62115 2.66387 4.54011 2.78436 4.43023 2.87467Z" fill="url(#paint0_linear_82_232)"/>
<defs>
<linearGradient id="paint0_linear_82_232" x1="3.30877" y1="0.12741" x2="2.58952" y2="5.17869" gradientUnits="userSpaceOnUse">
<stop stop-color="#9E6100"/>
<stop offset="0.49" stop-color="#642701"/>
<stop offset="0.65" stop-color="#682A01"/>
<stop offset="0.81" stop-color="#753401"/>
<stop offset="0.98" stop-color="#8A4401"/>
<stop offset="1" stop-color="#8C4601"/>
</linearGradient>
</defs>
</svg>
