<svg width="4" height="3" viewBox="0 0 4 3" fill="none" xmlns="http://www.w3.org/2000/svg">
<path d="M2.92016 1.2429L3.40434 1.26554L3.4472 0.964571C3.46521 0.876754 3.45306 0.785429 3.41271 0.705378C3.37236 0.625327 3.30618 0.561239 3.22487 0.523488L1.34872 0.144236C1.30333 0.137774 1.46302 0.145889 0.528427 0.102983C0.564257 0.108085 2.40321 0.47473 2.45406 0.494156C2.51218 0.52567 2.56105 0.571846 2.59579 0.628099C2.63054 0.684351 2.64995 0.74872 2.65211 0.814803C2.65727 0.915458 2.66405 0.816503 2.45348 2.20976C2.44987 2.29654 2.41366 2.37877 2.35208 2.44002C2.2905 2.50128 2.20809 2.53705 2.12129 2.54021C3.00846 2.57392 2.93271 2.57532 2.99821 2.56028C3.23395 2.4793 3.24136 2.25615 3.27265 2.03639L2.78812 2.01614L2.92016 1.2429Z" fill="url(#paint0_linear_130_265)"/>
<defs>
<linearGradient id="paint0_linear_130_265" x1="2.01992" y1="0.239809" x2="1.70089" y2="2.48035" gradientUnits="userSpaceOnUse">
<stop stop-color="#9E6100"/>
<stop offset="0.49" stop-color="#642701"/>
<stop offset="0.65" stop-color="#682A01"/>
<stop offset="0.81" stop-color="#753401"/>
<stop offset="0.98" stop-color="#8A4401"/>
<stop offset="1" stop-color="#8C4601"/>
</linearGradient>
</defs>
</svg>
