<svg width="4" height="3" viewBox="0 0 4 3" fill="none" xmlns="http://www.w3.org/2000/svg">
<path d="M0.639252 0.627714C0.4328 2.07761 0.413667 2.02371 0.480967 2.20145C0.515712 2.28493 0.581224 2.35184 0.663941 2.38835C0.716839 2.41051 2.66567 2.7928 2.7015 2.7979C2.79256 2.79697 2.87981 2.76128 2.94543 2.69814C3.01105 2.635 3.05006 2.54918 3.0545 2.45823C3.26027 1.01311 3.24497 1.1206 3.25857 1.02505C3.2546 0.955428 3.23196 0.888154 3.19303 0.830296C3.1541 0.772438 3.10031 0.726127 3.03731 0.696225C2.97999 0.688062 1.03422 0.301337 0.996006 0.295895C0.906067 0.297406 0.819868 0.332135 0.754003 0.393397C0.688138 0.454659 0.647264 0.53812 0.639252 0.627714Z" fill="url(#paint0_linear_130_531)"/>
<defs>
<linearGradient id="paint0_linear_130_531" x1="0.530738" y1="1.35557" x2="3.16301" y2="1.73038" gradientUnits="userSpaceOnUse">
<stop stop-color="#FFE6AB"/>
<stop offset="1" stop-color="#FFD778"/>
</linearGradient>
</defs>
</svg>
