<svg width="4" height="2" viewBox="0 0 4 2" fill="none" xmlns="http://www.w3.org/2000/svg">
<path d="M2.947 0.716236C2.91323 0.718149 2.88133 0.732395 2.85736 0.756273C2.83339 0.780151 2.81902 0.811999 2.81699 0.845769C2.81102 0.894423 2.80764 0.943355 2.80684 0.992367C0.301731 0.850222 1.01249 0.876333 0.892033 0.878491C0.857373 0.880818 0.824865 0.896124 0.800991 0.921357C0.777116 0.94659 0.763628 0.979896 0.763221 1.01463L0.74356 1.37873L3.10869 1.52454C3.1436 1.52573 3.17766 1.51365 3.20402 1.49073C3.23037 1.46781 3.24706 1.43575 3.25072 1.40101C3.25402 1.37788 3.25072 1.40101 3.28736 0.736806L2.947 0.716236Z" fill="url(#paint0_linear_82_549)"/>
<defs>
<linearGradient id="paint0_linear_82_549" x1="0.773674" y1="0.880947" x2="3.26567" y2="1.23578" gradientUnits="userSpaceOnUse">
<stop stop-color="#FFE6AB"/>
<stop offset="1" stop-color="#FFD778"/>
</linearGradient>
</defs>
</svg>
