<svg width="5" height="8" viewBox="0 0 5 8" fill="none" xmlns="http://www.w3.org/2000/svg">
<path d="M2.92632 7.60868C3.00256 7.624 3.08113 7.6236 3.1572 7.6075C3.23328 7.5914 3.30527 7.55994 3.36877 7.51505C3.50488 7.42358 3.60139 7.28404 3.63895 7.1244C5.05792 1.58916 4.96588 1.99444 4.96881 1.82321C4.96875 1.69687 4.93434 1.57293 4.86925 1.46464C4.80417 1.35635 4.71087 1.2678 4.59933 1.20846C4.49477 1.15924 2.85375 0.659523 2.78345 0.64093C2.66468 0.618416 2.54188 0.632363 2.43119 0.680935C2.3205 0.729507 2.22709 0.810431 2.16324 0.913075C2.12004 0.978663 2.088 1.05095 2.06841 1.12701C0.659655 6.65083 0.756488 6.22692 0.751459 6.39785C0.7519 6.52352 0.786017 6.64678 0.850258 6.75479C0.914498 6.8628 1.00652 6.95162 1.11673 7.012C1.2204 7.06753 2.85181 7.58948 2.92632 7.60868Z" fill="url(#paint0_linear_82_529)"/>
<defs>
<linearGradient id="paint0_linear_82_529" x1="1.10568" y1="3.88002" x2="4.61761" y2="4.38009" gradientUnits="userSpaceOnUse">
<stop stop-color="#FFE6AB"/>
<stop offset="1" stop-color="#FFD778"/>
</linearGradient>
</defs>
</svg>
