<svg width="4" height="3" viewBox="0 0 4 3" fill="none" xmlns="http://www.w3.org/2000/svg">
<path d="M3.04153 0.998302L3.46602 1.03085L3.50045 0.789013C3.51766 0.712138 3.50745 0.631665 3.4716 0.56152C3.43575 0.491374 3.3765 0.435968 3.30411 0.404888C3.26206 0.3989 2.84025 0.317384 1.64786 0.102542C1.6058 0.096553 1.7446 0.116317 0.926573 0.0448957C0.962323 0.0499862 2.58372 0.340932 2.62879 0.355932C2.68003 0.382562 2.72325 0.422363 2.754 0.471241C2.78475 0.520118 2.80192 0.576308 2.80375 0.634025C2.808 0.724744 2.80525 0.623511 2.62828 1.86635C2.59833 2.07665 2.4683 2.16112 2.33522 2.16148C3.10427 2.2152 3.03969 2.21673 3.10637 2.20048C3.31451 2.12498 3.31863 1.93032 3.34977 1.71162L2.92529 1.67906L3.04153 0.998302Z" fill="url(#paint0_linear_82_182)"/>
<defs>
<linearGradient id="paint0_linear_82_182" x1="2.23669" y1="0.186385" x2="1.963" y2="2.10848" gradientUnits="userSpaceOnUse">
<stop stop-color="#9E6100"/>
<stop offset="0.49" stop-color="#642701"/>
<stop offset="0.65" stop-color="#682A01"/>
<stop offset="0.81" stop-color="#753401"/>
<stop offset="0.98" stop-color="#8A4401"/>
<stop offset="1" stop-color="#8C4601"/>
</linearGradient>
</defs>
</svg>
