<svg width="3" height="3" viewBox="0 0 3 3" fill="none" xmlns="http://www.w3.org/2000/svg">
<path d="M1.55595 1.83819C2.7471 0.645352 2.66424 0.74512 2.67772 0.680528C2.69121 0.615936 2.66747 0.58681 2.49281 0.321636L1.80191 0.367015C1.96123 0.604259 1.98016 0.621974 1.97388 0.666135C1.98014 0.696861 1.97559 0.728805 1.961 0.756561C1.94299 0.792617 2.03127 0.700053 0.847629 1.88538C0.903844 1.97277 0.951027 2.01811 0.924934 2.11094C0.919844 2.14669 0.921942 2.13197 0.714459 2.33844L1.40836 2.28706C1.4778 2.22563 1.5431 2.15966 1.60383 2.0896C1.67709 1.99704 1.61037 1.92318 1.55595 1.83819Z" fill="url(#paint0_linear_82_200)"/>
<defs>
<linearGradient id="paint0_linear_82_200" x1="1.88506" y1="0.235098" x2="1.56825" y2="2.46001" gradientUnits="userSpaceOnUse">
<stop stop-color="#9E6100"/>
<stop offset="0.49" stop-color="#642701"/>
<stop offset="0.65" stop-color="#682A01"/>
<stop offset="0.81" stop-color="#753401"/>
<stop offset="0.98" stop-color="#8A4401"/>
<stop offset="1" stop-color="#8C4601"/>
</linearGradient>
</defs>
</svg>
