<svg width="38" height="18" viewBox="0 0 38 18" fill="none" xmlns="http://www.w3.org/2000/svg">
<path d="M36.9712 16.7308C35.9165 14.609 34.636 12.607 33.152 10.7597C31.5388 8.7453 29.6623 6.95676 27.5728 5.44209C25.5879 4.00843 23.4086 2.8652 21.1009 2.04693C18.8319 1.24872 16.4591 0.784418 14.0566 0.668588C11.7145 0.558393 9.36871 0.78748 7.09214 1.34874C4.64609 1.95603 2.30389 2.92351 0.142301 4.21945C0.172009 4.26755 0.183967 4.30337 0.455524 4.94643C2.65601 3.63807 5.04436 2.67538 7.53708 2.09203C11.536 1.16883 15.7063 1.30239 19.638 2.47957C21.6808 3.09196 23.6354 3.96749 25.4524 5.0841C27.3044 6.22465 29.0124 7.58393 30.5396 9.13263C33.0602 11.7021 35.1168 14.6887 36.6183 17.9601C36.6909 17.8778 36.7792 17.8392 37.3465 17.5178C37.3216 17.4534 37.3909 17.5997 36.9712 16.7308Z" fill="#FFE082"/>
</svg>
