<svg width="3" height="3" viewBox="0 0 3 3" fill="none" xmlns="http://www.w3.org/2000/svg">
<path d="M2.25168 0.450793C2.18137 0.351265 2.07667 0.28132 1.9578 0.254465C1.90099 0.24495 1.84274 0.24892 1.78775 0.266061C1.73276 0.283202 1.68257 0.31303 1.64122 0.353138C1.59859 0.396415 0.873495 1.22436 0.82216 1.29858C0.755541 1.40996 0.725938 1.53959 0.737601 1.66885C0.749265 1.79811 0.801594 1.92035 0.887075 2.01801C1.19127 2.42822 1.13686 2.35825 1.19006 2.42161C1.22764 2.46738 1.27408 2.50509 1.32659 2.53248C1.3791 2.55987 1.4366 2.57637 1.49565 2.58098C1.55229 2.58194 1.6084 2.57001 1.65975 2.5461C1.71111 2.52219 1.75635 2.48692 1.79208 2.44296C2.63817 1.47348 2.55921 1.57596 2.61054 1.48671C2.78818 1.06787 2.50027 0.784425 2.25168 0.450793ZM1.48103 2.1412C1.41373 2.13162 1.41583 2.1169 1.17476 1.79077L2.07223 1.51519C1.48105 2.18626 1.5351 2.13817 1.48103 2.1412ZM1.33135 1.32388C1.90332 0.66724 1.86728 0.694291 1.91745 0.688561C1.93061 0.687412 1.94386 0.689276 1.9562 0.694006C1.96853 0.698737 1.97963 0.706207 1.98865 0.715862L2.23573 1.04499L1.33135 1.32388Z" fill="url(#paint0_linear_82_434)"/>
<defs>
<linearGradient id="paint0_linear_82_434" x1="0.774991" y1="1.28328" x2="2.62769" y2="1.54709" gradientUnits="userSpaceOnUse">
<stop stop-color="#FFE6AB"/>
<stop offset="1" stop-color="#FFD778"/>
</linearGradient>
</defs>
</svg>
