<svg width="3" height="4" viewBox="0 0 3 4" fill="none" xmlns="http://www.w3.org/2000/svg">
<path d="M0.729762 1.72911C0.721977 1.78379 0.704527 1.72552 1.15038 2.49705L1.48685 2.55998L1.50256 2.75102L1.96672 2.83643C1.58957 3.17966 1.51572 3.27642 1.29221 3.26391C1.06871 3.25139 1.94384 3.38888 2.00993 3.39185C2.06779 3.39054 2.12467 3.37668 2.17664 3.35122C2.28355 3.29349 2.24001 3.32806 2.6622 2.95477C2.76113 2.86119 2.82829 2.739 2.85425 2.60533C2.88021 2.47165 2.86367 2.3332 2.80696 2.2094C2.77328 2.14453 2.2153 1.1811 2.17081 1.11684C2.02924 0.950778 2.03016 0.989529 1.26407 0.839679C1.31571 0.848865 1.36477 0.869064 1.40791 0.898901C1.45105 0.928739 1.48727 0.967516 1.51408 1.0126L1.91393 1.70033L1.56303 1.6332L1.71798 1.49435L1.03931 1.36338C0.767261 1.61644 0.722207 1.63148 0.729762 1.72911ZM2.16455 2.53203C2.15736 2.5825 2.1622 2.65399 2.10783 2.01116C2.15291 2.08914 2.1804 2.17602 2.18838 2.26574C2.19636 2.35545 2.18463 2.44582 2.15403 2.53053L2.16455 2.53203ZM1.4132 1.78137C1.42981 1.96611 1.43461 1.9625 1.40815 1.90724C1.40089 1.88803 1.39752 1.86757 1.39823 1.84704C1.39894 1.82652 1.40373 1.80634 1.4123 1.78768L1.4132 1.78137Z" fill="url(#paint0_linear_82_205)"/>
<defs>
<linearGradient id="paint0_linear_82_205" x1="1.95804" y1="0.938494" x2="1.61668" y2="3.33585" gradientUnits="userSpaceOnUse">
<stop stop-color="#9E6100"/>
<stop offset="0.49" stop-color="#642701"/>
<stop offset="0.65" stop-color="#682A01"/>
<stop offset="0.81" stop-color="#753401"/>
<stop offset="0.98" stop-color="#8A4401"/>
<stop offset="1" stop-color="#8C4601"/>
</linearGradient>
</defs>
</svg>
