<svg width="3" height="3" viewBox="0 0 3 3" fill="none" xmlns="http://www.w3.org/2000/svg">
<path d="M2.80017 1.99083C2.79462 1.68322 2.76309 1.70877 1.88802 0.395519C1.81336 0.276393 1.69577 0.190511 1.55957 0.155644C1.48045 0.141782 1.39923 0.145835 1.32189 0.167497C1.24454 0.189159 1.17304 0.227878 1.11263 0.280816C0.715943 0.595518 0.598503 0.636727 0.516326 0.927553C0.481063 1.0725 0.493997 1.22498 0.553172 1.36192C0.614812 1.48655 1.4027 2.65866 1.43516 2.7019C1.48584 2.77649 1.55618 2.83559 1.63838 2.87267C1.72058 2.90974 1.81143 2.92335 1.90088 2.91198C2.09312 2.87284 2.12675 2.83257 2.56998 2.47729C2.64151 2.4179 2.69918 2.34359 2.73895 2.25955C2.77871 2.17552 2.7996 2.0838 2.80017 1.99083ZM0.936358 1.08177C0.948934 0.993444 0.963357 0.997643 1.3201 0.707293L1.52318 2.02356C0.912643 1.11272 0.93399 1.15867 0.936358 1.08177ZM2.35586 1.97692C2.3526 2.0088 2.33852 2.03859 2.31595 2.06135L1.97752 2.32856L1.77536 1.03603C2.36395 1.92014 2.36153 1.8919 2.35586 1.97692Z" fill="url(#paint0_linear_82_519)"/>
<defs>
<linearGradient id="paint0_linear_82_519" x1="0.448632" y1="1.35776" x2="2.84599" y2="1.69912" gradientUnits="userSpaceOnUse">
<stop stop-color="#FFE6AB"/>
<stop offset="1" stop-color="#FFD778"/>
</linearGradient>
</defs>
</svg>
