<svg width="2" height="4" viewBox="0 0 2 4" fill="none" xmlns="http://www.w3.org/2000/svg">
<path d="M1.59184 3.03946C1.59284 3.0048 1.58284 2.97072 1.56328 2.9421C1.54371 2.91348 1.51558 2.8918 1.48292 2.88016L1.35155 2.86145C1.55466 0.0828759 1.50077 0.872128 1.50684 0.726769C1.50823 0.692035 1.49838 0.657777 1.47876 0.629082C1.45914 0.600388 1.43079 0.578786 1.39793 0.567474L1.06795 0.505859C0.849907 3.47484 0.877378 3.11076 0.875345 3.14215C0.873868 3.17653 0.883403 3.21049 0.902563 3.23908C0.921724 3.26767 0.94951 3.2894 0.981875 3.3011L1.56574 3.41104C1.59524 3.01557 1.59083 3.06369 1.59184 3.03946Z" fill="url(#paint0_linear_130_567)"/>
<defs>
<linearGradient id="paint0_linear_130_567" x1="0.870679" y1="1.89127" x2="1.76403" y2="2.01847" gradientUnits="userSpaceOnUse">
<stop stop-color="#FFE6AB"/>
<stop offset="1" stop-color="#FFD778"/>
</linearGradient>
</defs>
</svg>
