<svg width="4" height="3" viewBox="0 0 4 3" fill="none" xmlns="http://www.w3.org/2000/svg">
<path d="M2.46489 0.860239C2.51289 0.938205 2.545 1.02489 2.55937 1.11531C2.57375 1.20573 2.5701 1.2981 2.54865 1.38711C2.50483 1.53165 2.4111 1.65594 2.28416 1.73779C1.00064 2.59993 1.01057 2.6507 0.70864 2.58625C1.37769 2.70941 1.46393 2.76674 1.7222 2.61042C2.96308 1.77654 3.00844 1.78943 3.11888 1.54125C3.14845 1.46108 3.1616 1.37578 3.15753 1.29042C3.15347 1.20506 3.13227 1.1214 3.09522 1.0444C3.03839 0.93117 2.80869 0.510114 2.75428 0.425125C2.57094 0.205916 2.49074 0.22668 1.84993 0.101105C2.14556 0.194695 2.1886 0.359596 2.46489 0.860239Z" fill="url(#paint0_linear_82_303)"/>
<defs>
<linearGradient id="paint0_linear_82_303" x1="2.18911" y1="0.160129" x2="1.81601" y2="2.7804" gradientUnits="userSpaceOnUse">
<stop stop-color="#9E6100"/>
<stop offset="0.49" stop-color="#642701"/>
<stop offset="0.65" stop-color="#682A01"/>
<stop offset="0.81" stop-color="#753401"/>
<stop offset="0.98" stop-color="#8A4401"/>
<stop offset="1" stop-color="#8C4601"/>
</linearGradient>
</defs>
</svg>
