<svg width="3" height="5" viewBox="0 0 3 5" fill="none" xmlns="http://www.w3.org/2000/svg">
<path d="M2.29964 2.35936C2.26485 2.46812 2.3744 2.27131 0.982507 4.60277C0.95643 4.64726 0.921759 4.68612 0.880514 4.71708C0.839269 4.74805 0.792274 4.77049 0.742269 4.78312C0.717033 4.77952 0.524787 4.80364 1.39202 4.74046C1.45219 4.73084 1.50915 4.70682 1.55803 4.67045C1.60692 4.63407 1.64629 4.58642 1.6728 4.53155L1.26727 4.56178L1.61997 3.96833L2.0252 3.9402L2.56341 3.03845L2.15818 3.06658L2.51088 2.47312C2.97408 2.44467 2.91281 2.45311 2.92421 2.43327C2.98313 2.33146 3.00867 2.21375 2.99725 2.09667C2.98583 1.9796 2.93801 1.86904 2.86053 1.78053C2.83228 1.75291 1.86789 0.886092 1.78346 0.831157C1.65155 0.763026 1.66628 0.780142 0.926406 0.822837C1.00031 0.822259 1.07234 0.846089 1.13131 0.890633C1.16978 0.921857 2.13957 1.78086 2.19306 1.84212C2.25178 1.91305 2.2922 1.99729 2.31078 2.08747C2.32936 2.17764 2.32553 2.27101 2.29964 2.35936Z" fill="url(#paint0_linear_82_227)"/>
<defs>
<linearGradient id="paint0_linear_82_227" x1="2.05443" y1="0.856868" x2="1.47921" y2="4.89663" gradientUnits="userSpaceOnUse">
<stop stop-color="#9E6100"/>
<stop offset="0.49" stop-color="#642701"/>
<stop offset="0.65" stop-color="#682A01"/>
<stop offset="0.81" stop-color="#753401"/>
<stop offset="0.98" stop-color="#8A4401"/>
<stop offset="1" stop-color="#8C4601"/>
</linearGradient>
</defs>
</svg>
