<svg width="45" height="38" viewBox="0 0 45 38" fill="none" xmlns="http://www.w3.org/2000/svg">
<path d="M2.34167 2.01989L3.66432 2.28133L3.18082 2.25391L4.76623 2.56983C5.45105 2.60398 4.77541 2.50534 7.6415 3.06942C7.71794 3.0803 7.81109 3.09356 7.22658 3.05664C11.2563 3.85221 10.5411 3.74062 11.1949 3.77034L13.3802 4.20336L12.9106 4.18038L13.8586 4.36897C15.2214 6.48829 13.7951 4.26732 15.1838 6.42689C15.2326 9.2074 15.6035 11.9729 16.289 14.668L16.7537 14.6732C16.9178 15.3351 17.2582 16.5046 17.4943 17.1914L17.0289 17.1909C18.9477 22.7477 21.6222 26.8134 25.3854 30.3882C28.6098 33.2966 31.6262 35.0299 35.6316 36.2534C38.5608 37.1137 41.6305 37.391 44.6665 37.0695C43.6356 37.1539 42.6003 37.1693 41.5673 37.1156C39.4818 37.0108 37.4193 36.6311 35.4332 35.9863C31.4653 34.6366 28.5137 32.8077 25.3872 29.845C19.132 23.5928 15.9368 15.2759 15.7345 6.44438L14.4114 4.38919L1.38789 1.80366C1.45438 0.960151 1.42791 1.28295 1.51008 0.397807L0.954231 0.364965C0.875116 1.21155 0.904312 0.886701 0.831698 1.7732C2.07383 2.03536 1.74181 1.98809 2.34167 2.01989Z" fill="url(#paint0_linear_130_208)"/>
<defs>
<linearGradient id="paint0_linear_130_208" x1="24.9402" y1="3.75109" x2="20.5829" y2="34.3519" gradientUnits="userSpaceOnUse">
<stop stop-color="#9E6100"/>
<stop offset="0.49" stop-color="#642701"/>
<stop offset="0.65" stop-color="#682A01"/>
<stop offset="0.81" stop-color="#753401"/>
<stop offset="0.98" stop-color="#8A4401"/>
<stop offset="1" stop-color="#8C4601"/>
</linearGradient>
</defs>
</svg>
