<svg width="3" height="4" viewBox="0 0 3 4" fill="none" xmlns="http://www.w3.org/2000/svg">
<path d="M0.575398 1.89623L0.295142 2.37542L1.02201 2.55934L1.3725 1.96343C1.32522 2.29545 1.33759 2.48243 1.13228 2.70909C1.02494 2.81864 0.881064 2.8849 0.728036 2.89523C0.637616 2.89698 0.206317 2.87943 0.0629994 2.85903C1.00417 3.0954 0.689546 3.04572 1.38904 3.07952C1.54875 3.07916 1.70312 3.02204 1.82458 2.91835C1.94604 2.81466 2.02669 2.67116 2.0521 2.51349C2.06536 2.42034 2.24383 0.944516 2.24719 0.835327C2.25628 0.735765 2.23627 0.635703 2.18959 0.547292C2.14292 0.458882 2.07157 0.385924 1.98423 0.337279C1.88355 0.291262 1.96272 0.317158 1.14303 0.100523C1.27811 0.139784 1.39256 0.230164 1.46206 0.352461C1.53156 0.474759 1.55065 0.619336 1.51525 0.755478C0.725938 0.548041 0.966509 0.58717 0.433527 0.564894C0.406625 0.565204 0.380343 0.573004 0.357627 0.587419C0.334912 0.601834 0.316664 0.622294 0.304929 0.646503C0.280386 0.69906 0.295358 0.611021 0.158044 1.78076L0.575398 1.89623ZM1.06522 0.801064C1.12627 0.748831 1.12423 0.763163 1.51185 0.779364L1.44077 1.27859L0.992021 1.16108L0.963041 1.21056C1.01169 0.903111 1.00246 0.865241 1.06522 0.801064Z" fill="url(#paint0_linear_130_338)"/>
<defs>
<linearGradient id="paint0_linear_130_338" x1="1.37815" y1="0.143749" x2="0.961163" y2="3.07221" gradientUnits="userSpaceOnUse">
<stop stop-color="#9E6100"/>
<stop offset="0.49" stop-color="#642701"/>
<stop offset="0.65" stop-color="#682A01"/>
<stop offset="0.81" stop-color="#753401"/>
<stop offset="0.98" stop-color="#8A4401"/>
<stop offset="1" stop-color="#8C4601"/>
</linearGradient>
</defs>
</svg>
