<svg width="3" height="4" viewBox="0 0 3 4" fill="none" xmlns="http://www.w3.org/2000/svg">
<path d="M2.81912 1.85605C2.8148 1.74195 2.77991 1.63112 2.71809 1.53513C2.65627 1.43913 2.56979 1.36151 2.4677 1.31038C2.4031 1.28187 1.11416 0.79581 1.01622 0.775428C0.785682 0.754559 0.553728 0.754563 0.323192 0.775442C0.489917 0.779872 0.385666 0.758596 1.83024 1.29686C1.91864 1.3293 1.99832 1.38178 2.06303 1.45019C2.12774 1.51859 2.17572 1.60105 2.20322 1.69111C2.25884 1.89946 2.23949 2.12074 2.14853 2.31627L1.35927 1.42504L0.774098 1.43612L0.794532 1.45834L0.220173 1.46882C0.0668981 1.97266 0.0641786 1.94653 0.0840378 2.01801C0.0945712 2.0528 0.118019 2.08224 0.149566 2.10029C0.168493 2.10299 0.101198 2.09341 1.09118 2.44893L1.67455 2.43545C0.656318 2.0523 0.739246 2.08771 0.703182 2.05468C0.678975 2.02814 0.664185 1.99436 0.661087 1.95857C0.667675 1.91231 0.664079 1.93754 0.802646 1.46164L1.63609 2.40422L2.12484 2.39229C2.01265 2.75823 1.9326 3.09441 1.51806 3.11262L2.16421 3.09521C2.28077 3.08287 2.38868 3.02794 2.46724 2.94096C2.60896 2.77447 2.61193 2.70838 2.79941 2.115C2.82112 2.03051 2.8278 1.94285 2.81912 1.85605Z" fill="url(#paint0_linear_82_325)"/>
<defs>
<linearGradient id="paint0_linear_82_325" x1="1.60504" y1="0.85927" x2="1.28794" y2="3.08629" gradientUnits="userSpaceOnUse">
<stop stop-color="#9E6100"/>
<stop offset="0.49" stop-color="#642701"/>
<stop offset="0.65" stop-color="#682A01"/>
<stop offset="0.81" stop-color="#753401"/>
<stop offset="0.98" stop-color="#8A4401"/>
<stop offset="1" stop-color="#8C4601"/>
</linearGradient>
</defs>
</svg>
