<svg width="3" height="3" viewBox="0 0 3 3" fill="none" xmlns="http://www.w3.org/2000/svg">
<path d="M2.72043 0.853312C2.72046 0.78433 2.69843 0.717147 2.65756 0.66158C2.5763 0.564713 2.58484 0.590301 1.65769 0.409542C1.62425 0.40478 1.65769 0.409541 0.843199 0.361803L1.74169 0.53848C1.80321 0.558213 1.85573 0.599156 1.88988 0.654009C1.92402 0.708862 1.93758 0.774059 1.92813 0.837977C1.92303 0.873806 1.71453 2.33804 1.70773 2.38581C1.69734 2.44021 1.66855 2.48938 1.62619 2.52507C1.58383 2.56075 1.53049 2.58077 1.47511 2.58177L2.28824 2.622C2.5356 2.5963 2.52045 2.29195 2.55753 2.04865L2.07368 2.02362C2.1781 1.29031 2.15531 1.45035 2.1832 1.25448L2.66671 1.2819C2.69438 1.14043 2.71233 0.997233 2.72043 0.853312Z" fill="url(#paint0_linear_130_254)"/>
<defs>
<linearGradient id="paint0_linear_130_254" x1="1.81056" y1="0.431309" x2="1.50378" y2="2.58585" gradientUnits="userSpaceOnUse">
<stop stop-color="#9E6100"/>
<stop offset="0.49" stop-color="#642701"/>
<stop offset="0.65" stop-color="#682A01"/>
<stop offset="0.81" stop-color="#753401"/>
<stop offset="0.98" stop-color="#8A4401"/>
<stop offset="1" stop-color="#8C4601"/>
</linearGradient>
</defs>
</svg>
