<svg width="3" height="3" viewBox="0 0 3 3" fill="none" xmlns="http://www.w3.org/2000/svg">
<path d="M2.47084 1.02839C2.44512 0.606339 2.14707 0.499533 1.78048 0.286415C1.58037 0.184971 1.60261 0.209594 0.818906 0.303978C1.00965 0.290373 1.04602 0.336319 1.47601 0.586356C1.57642 0.64278 1.65914 0.726047 1.7149 0.82683C1.77065 0.927613 1.79724 1.04193 1.79169 1.15698C1.78483 1.25229 1.76065 1.34554 1.72033 1.43217L1.28327 1.48795L1.19438 1.5697C1.51721 0.673758 1.49258 0.680977 1.57458 0.662615C0.825719 0.753378 0.879185 0.739536 0.842251 0.772897C0.805317 0.806258 0.847939 0.732942 0.515215 1.65322L1.19228 1.5694L0.523269 2.18433C0.883547 2.39655 0.855005 2.38604 0.893457 2.38723L1.40291 2.32031C1.3135 2.57148 1.27063 2.76707 0.995795 2.82878C1.76177 2.72329 1.7029 2.74494 1.81192 2.68751C1.90561 2.62829 1.97544 2.53796 2.00917 2.43238C2.4895 1.09327 2.46671 1.19301 2.47084 1.02839ZM1.62012 1.714L1.43171 2.23859L1.19823 2.10021L1.62012 1.714Z" fill="url(#paint0_linear_82_230)"/>
<defs>
<linearGradient id="paint0_linear_82_230" x1="1.65339" y1="0.229698" x2="1.27699" y2="2.87311" gradientUnits="userSpaceOnUse">
<stop stop-color="#9E6100"/>
<stop offset="0.49" stop-color="#642701"/>
<stop offset="0.65" stop-color="#682A01"/>
<stop offset="0.81" stop-color="#753401"/>
<stop offset="0.98" stop-color="#8A4401"/>
<stop offset="1" stop-color="#8C4601"/>
</linearGradient>
</defs>
</svg>
