<svg width="3" height="3" viewBox="0 0 3 3" fill="none" xmlns="http://www.w3.org/2000/svg">
<path d="M0.929515 2.2588C2.2301 1.27679 2.13071 1.35705 2.15202 1.31288C2.16423 1.28664 2.16839 1.25737 2.16399 1.22876C2.15587 1.19542 2.16399 1.22876 2.01906 0.920616L1.32365 0.952473C1.45685 1.22247 1.49531 1.2537 1.46651 1.33542C1.43771 1.41714 1.53649 1.31106 0.238007 2.29336C0.282809 2.38556 0.336615 2.45974 0.277175 2.54568C0.261563 2.56491 0.277175 2.54568 0.0597623 2.71641L0.755775 2.68035C0.9816 2.51082 0.962081 2.52735 0.981293 2.4979C1.0152 2.41047 0.976121 2.35341 0.929515 2.2588Z" fill="url(#paint0_linear_82_193)"/>
<defs>
<linearGradient id="paint0_linear_82_193" x1="1.27672" y1="0.814914" x2="0.987162" y2="2.84846" gradientUnits="userSpaceOnUse">
<stop stop-color="#9E6100"/>
<stop offset="0.49" stop-color="#642701"/>
<stop offset="0.65" stop-color="#682A01"/>
<stop offset="0.81" stop-color="#753401"/>
<stop offset="0.98" stop-color="#8A4401"/>
<stop offset="1" stop-color="#8C4601"/>
</linearGradient>
</defs>
</svg>
