<svg width="3" height="3" viewBox="0 0 3 3" fill="none" xmlns="http://www.w3.org/2000/svg">
<path d="M0.6962 2.36674C0.756608 2.42469 1.0908 2.72974 1.16262 2.78288C1.23864 2.83777 1.32823 2.87083 1.42169 2.87846C1.51515 2.8861 1.60892 2.86802 1.69284 2.8262C1.76174 2.79232 1.82367 2.74583 1.87542 2.68913C1.91956 2.63534 2.76168 1.52797 2.81961 1.43752C2.89979 1.30895 2.92646 1.1541 2.89391 1.00611C2.86003 0.873447 2.78538 0.754754 2.68047 0.666758C2.26094 0.298057 2.33577 0.360206 2.26816 0.307667C2.20758 0.264904 2.13869 0.235357 2.06595 0.220943C1.96205 0.202035 1.8549 0.213547 1.7574 0.254094C1.65989 0.294642 1.57617 0.362498 1.51632 0.4495C0.557414 1.71403 0.645976 1.58932 0.587747 1.69689C0.535968 1.80641 0.518619 1.92906 0.53798 2.04865C0.557342 2.16824 0.612508 2.27915 0.6962 2.36674ZM1.92558 0.69444C2.01178 0.676677 2.00549 0.705819 2.33997 0.993751L1.25246 1.53407C1.90935 0.672819 1.86251 0.715498 1.92979 0.69504L1.92558 0.69444ZM2.18432 1.54446C1.52143 2.41773 1.56917 2.36874 1.5121 2.3928C1.48355 2.3993 1.4536 2.39503 1.42799 2.38082C1.30364 2.29179 1.18792 2.19127 1.08238 2.08058L2.18432 1.54446Z" fill="url(#paint0_linear_82_510)"/>
<defs>
<linearGradient id="paint0_linear_82_510" x1="0.612541" y1="1.38717" x2="2.83536" y2="1.70367" gradientUnits="userSpaceOnUse">
<stop stop-color="#FFE6AB"/>
<stop offset="1" stop-color="#FFD778"/>
</linearGradient>
</defs>
</svg>
