<svg width="3" height="3" viewBox="0 0 3 3" fill="none" xmlns="http://www.w3.org/2000/svg">
<path d="M0.474281 1.26275C0.568497 1.35415 0.644871 1.22855 0.709325 1.15243C2.13436 2.95406 1.72877 2.44789 1.80524 2.52701C1.81494 2.53672 1.82651 2.54436 1.83925 2.54947C1.85198 2.55457 1.86563 2.55704 1.87935 2.55671C1.89307 2.55639 1.90658 2.55328 1.91906 2.54757C1.93154 2.54187 1.94273 2.53369 1.95196 2.52353C1.96628 2.50851 1.92502 2.55869 2.17772 2.25592C0.409906 0.0204325 0.92099 0.658604 0.82267 0.544684C0.81234 0.534146 0.799784 0.526052 0.785921 0.520996C0.772058 0.51594 0.757238 0.51405 0.74255 0.515464C0.727861 0.516877 0.713675 0.521559 0.70103 0.529166C0.688385 0.536773 0.677603 0.547112 0.669473 0.559427L0.282748 1.01614L0.474281 1.26275Z" fill="url(#paint0_linear_130_519)"/>
<defs>
<linearGradient id="paint0_linear_130_519" x1="0.235488" y1="1.38229" x2="2.26105" y2="1.67071" gradientUnits="userSpaceOnUse">
<stop stop-color="#FFE6AB"/>
<stop offset="1" stop-color="#FFD778"/>
</linearGradient>
</defs>
</svg>
