<svg width="3" height="4" viewBox="0 0 3 4" fill="none" xmlns="http://www.w3.org/2000/svg">
<path d="M2.49157 2.60921C2.51401 1.09547 2.53836 1.13541 2.43703 0.927881C2.38035 0.817639 2.28886 0.729191 2.17677 0.676264C2.05268 0.628556 2.09835 0.63935 1.56691 0.589426C1.47228 0.575952 1.56901 0.574705 0.792526 0.693719C0.976081 0.685512 1.15996 0.699451 1.34018 0.735228C1.42035 0.743534 1.49791 0.768462 1.56791 0.808422C1.89815 1.02066 1.85352 1.30395 1.84918 1.65092L1.44967 1.71418C1.42206 1.77247 1.43021 1.85087 1.44161 1.16806C1.44021 1.14477 1.44544 1.12157 1.45671 1.10115C1.46797 1.08072 1.4848 1.06391 1.50524 1.05268C1.53948 1.03824 1.68337 1.02225 0.876544 1.14338C0.862112 1.14537 0.848289 1.15049 0.836045 1.15838C0.823801 1.16627 0.813434 1.17675 0.805669 1.18908C0.772648 1.24016 0.782539 1.18578 0.766496 2.23269L1.23388 2.15978L0.935255 2.75021L1.32009 2.78998C1.33691 2.79238 1.34112 2.79298 1.82713 2.70985C1.83521 2.8341 1.79716 2.95696 1.72027 3.05489C1.64337 3.15282 1.53304 3.21893 1.41042 3.24054C2.10069 3.12427 2.18902 3.15187 2.34755 2.98777C2.43984 2.8832 2.49101 2.74868 2.49157 2.60921ZM1.84189 2.15409L1.83462 2.67229L1.6033 2.63935L1.84189 2.15409Z" fill="url(#paint0_linear_82_248)"/>
<defs>
<linearGradient id="paint0_linear_82_248" x1="1.79162" y1="0.608549" x2="1.41672" y2="3.24144" gradientUnits="userSpaceOnUse">
<stop stop-color="#9E6100"/>
<stop offset="0.49" stop-color="#642701"/>
<stop offset="0.65" stop-color="#682A01"/>
<stop offset="0.81" stop-color="#753401"/>
<stop offset="0.98" stop-color="#8A4401"/>
<stop offset="1" stop-color="#8C4601"/>
</linearGradient>
</defs>
</svg>
