<svg width="4" height="3" viewBox="0 0 4 3" fill="none" xmlns="http://www.w3.org/2000/svg">
<path d="M2.87885 1.20847L3.30184 1.25153L3.33717 1.00338C3.3561 0.924126 3.34536 0.840685 3.30697 0.76881C3.26858 0.696936 3.20521 0.641603 3.12882 0.613257C3.08676 0.607268 2.65955 0.533565 1.46717 0.333743L0.747975 0.261375C0.779519 0.265866 2.40661 0.531878 2.45589 0.547476C2.50716 0.573538 2.55049 0.612909 2.58132 0.661465C2.61215 0.71002 2.62936 0.765973 2.63115 0.823464C2.63659 0.905772 2.64826 0.793716 2.46589 2.05939C2.4627 2.13712 2.43062 2.21086 2.37591 2.26617C2.3212 2.32148 2.24782 2.35438 2.17013 2.35843C2.92808 2.42988 2.8722 2.4305 2.93889 2.41425C3.15003 2.33275 3.15325 2.14439 3.18439 1.92569L2.76111 1.88472L2.87885 1.20847Z" fill="url(#paint0_linear_82_185)"/>
<defs>
<linearGradient id="paint0_linear_82_185" x1="2.06561" y1="0.425392" x2="1.79701" y2="2.31174" gradientUnits="userSpaceOnUse">
<stop stop-color="#9E6100"/>
<stop offset="0.49" stop-color="#642701"/>
<stop offset="0.65" stop-color="#682A01"/>
<stop offset="0.81" stop-color="#753401"/>
<stop offset="0.98" stop-color="#8A4401"/>
<stop offset="1" stop-color="#8C4601"/>
</linearGradient>
</defs>
</svg>
