<svg width="3" height="4" viewBox="0 0 3 4" fill="none" xmlns="http://www.w3.org/2000/svg">
<path d="M2.0243 1.15252C2.02216 1.0621 1.9816 1.0456 1.78414 0.835106L1.09535 0.8958C1.17748 0.971026 1.25262 1.05354 1.31986 1.14233C1.33298 1.16894 1.3384 1.1987 1.33552 1.22824C1.32773 1.28291 1.38957 1.18015 0.395004 2.63485C0.467737 2.71171 0.528138 2.75464 0.503856 2.8649C0.498765 2.90065 0.502059 2.87752 0.333348 3.12813L1.02094 3.06083C1.17524 2.83606 1.21098 2.81111 1.19351 2.7228C1.17877 2.67564 1.17817 2.67985 1.0832 2.57835C2.08166 1.11134 2.01863 1.22252 2.0243 1.15252Z" fill="url(#paint0_linear_82_216)"/>
<defs>
<linearGradient id="paint0_linear_82_216" x1="1.36986" y1="0.776116" x2="1.02251" y2="3.21553" gradientUnits="userSpaceOnUse">
<stop stop-color="#9E6100"/>
<stop offset="0.49" stop-color="#642701"/>
<stop offset="0.65" stop-color="#682A01"/>
<stop offset="0.81" stop-color="#753401"/>
<stop offset="0.98" stop-color="#8A4401"/>
<stop offset="1" stop-color="#8C4601"/>
</linearGradient>
</defs>
</svg>
