<svg width="3" height="3" viewBox="0 0 3 3" fill="none" xmlns="http://www.w3.org/2000/svg">
<path d="M1.03905 2.03196C2.39202 0.677074 2.29789 0.790396 2.31322 0.717028C2.32854 0.643661 2.30157 0.610579 2.10318 0.30938L1.31842 0.360924C1.49939 0.630398 1.52089 0.650519 1.51375 0.70068C1.52087 0.73558 1.5157 0.771864 1.49912 0.80339C1.47867 0.844345 1.57894 0.739206 0.234502 2.08556C0.298354 2.18482 0.351946 2.23632 0.322309 2.34177C0.316527 2.38237 0.31891 2.36565 0.0832402 2.60017L0.87141 2.54181C0.950286 2.47203 1.02446 2.3971 1.09344 2.31752C1.17664 2.21239 1.10086 2.12849 1.03905 2.03196Z" fill="url(#paint0_linear_130_292)"/>
<defs>
<linearGradient id="paint0_linear_130_292" x1="1.41287" y1="0.211086" x2="1.05302" y2="2.73826" gradientUnits="userSpaceOnUse">
<stop stop-color="#9E6100"/>
<stop offset="0.49" stop-color="#642701"/>
<stop offset="0.65" stop-color="#682A01"/>
<stop offset="0.81" stop-color="#753401"/>
<stop offset="0.98" stop-color="#8A4401"/>
<stop offset="1" stop-color="#8C4601"/>
</linearGradient>
</defs>
</svg>
