<svg width="2" height="4" viewBox="0 0 2 4" fill="none" xmlns="http://www.w3.org/2000/svg">
<path d="M1.69098 2.95453C1.6881 2.92294 1.67443 2.8933 1.65226 2.8706C1.63009 2.84791 1.60078 2.83354 1.56927 2.82992L1.46022 2.82726L1.37794 0.918851C1.37738 0.887632 1.36658 0.857459 1.34719 0.832986C1.3278 0.808512 1.3009 0.791097 1.27063 0.78342C0.949469 0.767527 0.627608 0.793832 0.313287 0.861662C0.623305 0.86933 0.606184 0.869037 0.629317 0.872331C0.657324 0.881363 0.681259 0.899958 0.69693 0.924866C0.735409 0.986131 0.719428 0.857268 0.807489 2.92099C0.903618 2.92395 1.00304 2.90378 1.03555 3.03714C1.04713 3.15203 1.0529 3.26742 1.05283 3.38289L1.71186 3.27504L1.69098 2.95453Z" fill="url(#paint0_linear_82_252)"/>
<defs>
<linearGradient id="paint0_linear_82_252" x1="1.19493" y1="0.77264" x2="0.826317" y2="3.36136" gradientUnits="userSpaceOnUse">
<stop stop-color="#9E6100"/>
<stop offset="0.49" stop-color="#642701"/>
<stop offset="0.65" stop-color="#682A01"/>
<stop offset="0.81" stop-color="#753401"/>
<stop offset="0.98" stop-color="#8A4401"/>
<stop offset="1" stop-color="#8C4601"/>
</linearGradient>
</defs>
</svg>
