<svg width="3" height="6" viewBox="0 0 3 6" fill="none" xmlns="http://www.w3.org/2000/svg">
<path d="M0.244292 0.735838L0.287287 0.74196C1.71094 1.01291 1.69967 0.972314 1.85261 1.14763C1.93052 1.25282 1.973 1.38005 1.9739 1.51096C1.97089 1.63482 1.46679 5.07241 1.46101 5.11302C1.44548 5.20242 1.40634 5.28605 1.34764 5.35525C1.28894 5.42444 1.21282 5.47669 1.12714 5.50659C1.03878 5.52812 0.688344 5.50747 1.78331 5.55371C1.87271 5.55522 1.96045 5.52956 2.03495 5.48011C2.10944 5.43067 2.16716 5.35977 2.20049 5.2768C2.23923 5.1846 2.26226 5.08655 2.2686 4.98674L1.80113 4.96648L1.91303 4.18062L2.38254 4.20361L2.58661 2.77043L2.11982 2.74539C2.13819 2.61641 2.11642 2.76928 2.23172 1.95954L2.69817 1.98696C2.74341 1.66927 2.80883 1.48362 2.6579 1.22573C2.62792 1.17809 2.58881 1.13683 2.54283 1.10436C2.49685 1.07188 2.44489 1.04881 2.38996 1.03649C0.712085 0.719586 1.26864 0.798834 0.244292 0.735838Z" fill="url(#paint0_linear_130_289)"/>
<defs>
<linearGradient id="paint0_linear_130_289" x1="1.5546" y1="0.861486" x2="0.89375" y2="5.5026" gradientUnits="userSpaceOnUse">
<stop stop-color="#9E6100"/>
<stop offset="0.49" stop-color="#642701"/>
<stop offset="0.65" stop-color="#682A01"/>
<stop offset="0.81" stop-color="#753401"/>
<stop offset="0.98" stop-color="#8A4401"/>
<stop offset="1" stop-color="#8C4601"/>
</linearGradient>
</defs>
</svg>
