<svg width="3" height="4" viewBox="0 0 3 4" fill="none" xmlns="http://www.w3.org/2000/svg">
<path d="M2.74614 2.18457C2.74026 2.09311 2.71839 2.00339 2.68153 1.91948C1.95671 0.249239 2.02844 0.395923 1.94137 0.271421C1.89646 0.207627 1.8387 0.153932 1.77182 0.11377C1.70493 0.0736089 1.63038 0.0478722 1.55296 0.0382143C1.45979 0.0276987 1.36546 0.039313 1.27762 0.0721177C1.16095 0.121306 0.720891 0.336475 0.631862 0.39691C0.496756 0.497342 0.405055 0.645528 0.375463 0.811252C0.327166 1.15044 0.383466 1.16577 1.06115 2.73912C1.2244 3.08162 1.45991 3.22483 1.82189 3.11308C1.93344 3.06561 1.82188 3.11309 2.38169 2.8443C2.50197 2.78402 2.60117 2.68872 2.66623 2.57096C2.73129 2.45319 2.75915 2.31848 2.74614 2.18457ZM0.856627 0.940692C0.871252 0.837981 0.906057 0.850248 1.3468 0.630307L1.32496 2.10162C0.826263 0.948559 0.845062 1.02191 0.856627 0.940692ZM2.25243 2.22881C2.2361 2.34346 2.20095 2.33358 1.76839 2.54738L1.78854 1.08801C2.27563 2.21993 2.25854 2.15169 2.25243 2.22881Z" fill="url(#paint0_linear_130_599)"/>
<defs>
<linearGradient id="paint0_linear_130_599" x1="0.289753" y1="1.41319" x2="2.81931" y2="1.77338" gradientUnits="userSpaceOnUse">
<stop stop-color="#FFE6AB"/>
<stop offset="1" stop-color="#FFD778"/>
</linearGradient>
</defs>
</svg>
