<svg width="64" height="36" viewBox="0 0 64 36" fill="none" xmlns="http://www.w3.org/2000/svg">
<path d="M0.186158 1.34618L3.53206 2.06631L3.92679 2.7001C5.14116 11.6464 8.54196 18.9813 14.0639 25.2144C15.9863 27.3312 18.1727 29.1922 20.5696 30.7516C24.1591 33.0945 28.2014 34.6557 32.4339 35.3338C35.2502 35.7823 38.1175 35.8103 40.942 35.4169C42.3683 35.2184 43.7782 34.9158 45.1603 34.5114C48.3908 33.5092 50.3404 32.6024 53.3064 30.7704C55.9883 29.0393 58.4264 26.9571 60.556 24.5793C61.6468 23.362 62.6592 22.0768 63.5873 20.7314L62.8985 20.1776C61.9559 21.5376 60.9261 22.8352 59.8157 24.062C57.7912 26.308 55.4819 28.2797 52.9464 29.9271C50.5261 31.4992 47.898 32.7254 45.1384 33.5701C43.7884 33.9798 42.4107 34.2918 41.016 34.5038C39.6255 34.7105 38.2219 34.8153 36.8162 34.8172C34.0396 34.8134 31.2785 34.4038 28.6204 33.6015C26.542 32.9779 24.5382 32.1287 22.6446 31.069C16.7473 27.6777 12.6818 23.2483 9.38846 17.4007C6.84286 12.7502 5.20265 7.65904 4.55482 2.39716C4.4138 2.17237 4.41926 2.18533 3.8859 1.32709L0.298744 0.572606C0.19398 1.29124 0.219158 1.13154 0.186158 1.34618Z" fill="#FFE082"/>
</svg>
