<svg width="30" height="75" viewBox="0 0 30 75" fill="none" xmlns="http://www.w3.org/2000/svg">
<path d="M6.16313 72.8821C7.51548 72.3843 8.83095 71.7916 10.0997 71.1082C11.4196 70.3965 12.6888 69.5944 13.8981 68.7075C15.1372 67.7969 16.3137 66.8039 17.4195 65.7352C19.9483 63.2095 21.3507 61.4374 23.2749 58.3664C25.123 55.1966 26.0908 53.0558 27.282 49.4063C28.291 46.1339 28.9161 42.7552 29.1447 39.3384C29.3753 35.9631 29.21 32.5724 28.6522 29.2355C27.9668 25.5054 27.301 23.235 25.8686 19.7784C24.3452 16.4031 23.1658 14.3943 20.98 11.4826C18.7458 8.69921 17.1944 7.17808 14.5464 5.13176C13.3918 4.27085 12.1786 3.49157 10.9156 2.7996C9.06758 1.78844 7.11462 0.982269 5.09148 0.39545C3.91586 0.077863 4.11024 0.129143 4.02312 0.108154C5.02832 0.363761 6.01927 0.672453 6.99181 1.03293C7.85351 1.37019 7.79551 1.32546 7.28267 1.20523C7.67477 1.35976 7.40135 1.24573 8.56143 1.74777C8.77999 1.87976 9.0236 1.96486 9.2768 1.99768C10.9861 2.79805 12.6136 3.76273 14.1362 4.87811L13.7721 4.79837C14.2334 5.1301 14.7941 5.56182 15.2295 5.9242L15.5982 6.00244C17.1251 7.25564 18.5375 8.64221 19.8186 10.1458L19.4575 10.075C19.9931 10.6984 20.5002 11.3413 20.6694 11.5693L21.0308 11.6379C22.2906 13.2741 23.4117 15.0127 24.3824 16.8354L24.0228 16.7842C24.4987 17.6909 24.2961 17.2909 24.9239 18.5775L25.2814 18.6284C26.1923 20.5735 26.9472 22.588 27.539 24.6528L27.1857 24.6025C27.5073 25.764 27.3878 25.3071 27.709 26.608L28.0638 26.6478C28.0792 26.701 28.0916 26.7551 28.1008 26.8097C28.585 28.901 28.905 31.027 29.0578 33.1682L28.7054 33.1416C28.785 34.406 28.7619 33.9199 28.8091 35.2462L29.1621 35.2685C29.2141 37.4894 29.1036 39.711 28.8314 41.9157L28.4769 41.9038C28.2535 43.4726 28.3272 42.9553 28.1612 43.9852L28.5163 43.9928C28.14 46.1618 27.599 48.299 26.898 50.3858L26.5408 50.3929C26.4493 50.6738 26.173 51.4691 25.8345 52.3392L26.1941 52.3303C25.4113 54.3289 24.4667 56.2603 23.37 58.1053L23.0086 58.1268C22.7874 58.5051 22.3779 59.1656 21.9339 59.8276L22.298 59.8022C21.1549 61.5231 19.8641 63.1412 18.4404 64.6383L18.073 64.6718C17.6658 65.1052 17.1428 65.6293 16.7098 66.0332L17.0799 65.9958C15.6477 67.3554 14.0969 68.5843 12.4461 69.668L12.0709 69.7111C11.3273 70.2017 10.6993 70.5736 10.5056 70.6833L10.8832 70.6384C9.33129 71.5414 7.70252 72.3053 6.01595 72.9212C5.80592 73.0127 5.58024 73.0629 5.35123 73.069C3.58485 73.6758 3.30667 73.6555 4.04561 73.559L3.49834 73.6956C2.37769 73.9876 1.2408 74.2133 0.0935989 74.3716C2.16605 74.1033 4.20193 73.6037 6.16313 72.8821Z" fill="url(#paint0_linear_82_151)"/>
<defs>
<linearGradient id="paint0_linear_82_151" x1="19.1139" y1="2.25693" x2="8.66823" y2="75.6161" gradientUnits="userSpaceOnUse">
<stop stop-color="#9E6100"/>
<stop offset="0.49" stop-color="#642701"/>
<stop offset="0.65" stop-color="#682A01"/>
<stop offset="0.81" stop-color="#753401"/>
<stop offset="0.98" stop-color="#8A4401"/>
<stop offset="1" stop-color="#8C4601"/>
</linearGradient>
</defs>
</svg>
