<svg width="5" height="9" viewBox="0 0 5 9" fill="none" xmlns="http://www.w3.org/2000/svg">
<path d="M3.90388 7.16708C4.01848 7.08039 4.10829 6.96513 4.16434 6.83283C4.22039 6.70052 4.24071 6.55582 4.22325 6.41319C4.19451 6.23851 4.37012 6.73387 2.13041 0.778028C2.09963 0.691924 2.05214 0.612743 1.99069 0.545026C1.92924 0.477309 1.85502 0.422387 1.7723 0.38341C1.64057 0.332971 1.7136 0.350681 0.910668 0.22173C0.999309 0.233246 1.08477 0.2623 1.16206 0.307198C1.23935 0.352096 1.30693 0.411938 1.36085 0.483232C1.46123 0.634001 1.27369 0.171066 3.51238 6.13407C3.57822 6.31186 3.58084 6.50691 3.51977 6.6864C3.45871 6.8659 3.33769 7.01888 3.17708 7.11964C3.09794 7.16198 1.31924 7.99808 1.1995 8.03465C1.11288 8.05714 1.02271 8.06252 0.934043 8.05047C1.93044 8.17285 1.70901 8.20468 2.36672 7.89865L1.96304 7.84117L2.76676 7.4682L3.16805 7.52534C3.4232 7.42737 3.66941 7.30751 3.90388 7.16708Z" fill="url(#paint0_linear_130_390)"/>
<defs>
<linearGradient id="paint0_linear_130_390" x1="2.97923" y1="0.516272" x2="1.88711" y2="8.18617" gradientUnits="userSpaceOnUse">
<stop stop-color="#9E6100"/>
<stop offset="0.49" stop-color="#642701"/>
<stop offset="0.65" stop-color="#682A01"/>
<stop offset="0.81" stop-color="#753401"/>
<stop offset="0.98" stop-color="#8A4401"/>
<stop offset="1" stop-color="#8C4601"/>
</linearGradient>
</defs>
</svg>
