<svg width="4" height="8" viewBox="0 0 4 8" fill="none" xmlns="http://www.w3.org/2000/svg">
<path d="M2.39044 6.91719L2.88177 6.88967L3.31703 6.62264C3.44519 6.52645 3.53931 6.39188 3.5857 6.2385C3.63208 6.08512 3.62831 5.92093 3.57494 5.76984C3.55785 5.71867 1.62035 1.01221 1.54762 0.889746C1.50745 0.82442 1.4552 0.76735 1.39365 0.721598C1.1974 0.593734 1.19264 0.627177 0.318459 0.639178C0.419016 0.640508 0.517106 0.670502 0.601205 0.725646C0.685304 0.780791 0.751919 0.858795 0.793226 0.950486C0.829086 1.02383 2.77068 5.71868 2.80553 5.83332C2.84655 5.9983 2.83796 6.17171 2.78086 6.33184C2.65884 6.62397 2.66802 6.55948 1.20566 7.46743C1.15035 7.50256 1.08808 7.52528 1.02314 7.53404L1.7581 7.5071C1.91812 7.49576 1.92289 7.47938 2.29675 7.24992L1.82623 7.26821L2.39044 6.91719Z" fill="url(#paint0_linear_130_296)"/>
<defs>
<linearGradient id="paint0_linear_130_296" x1="2.31905" y1="0.794877" x2="1.35108" y2="7.59292" gradientUnits="userSpaceOnUse">
<stop stop-color="#9E6100"/>
<stop offset="0.49" stop-color="#642701"/>
<stop offset="0.65" stop-color="#682A01"/>
<stop offset="0.81" stop-color="#753401"/>
<stop offset="0.98" stop-color="#8A4401"/>
<stop offset="1" stop-color="#8C4601"/>
</linearGradient>
</defs>
</svg>
