<svg width="3" height="3" viewBox="0 0 3 3" fill="none" xmlns="http://www.w3.org/2000/svg">
<path d="M0.666138 0.958912C0.67521 1.09108 0.661945 0.988354 1.03144 2.31115C1.11628 2.58929 1.32872 2.69463 1.63927 2.56291C2.03691 2.36206 2.32226 2.28683 2.36801 1.8299C2.37374 1.75676 2.36679 1.68319 2.34748 1.61242C1.97289 0.310349 2.00988 0.412168 1.95486 0.301345C1.72879 -0.0698475 1.40026 0.173027 1.01433 0.366963C0.906813 0.423281 0.817211 0.508578 0.755672 0.613197C0.694134 0.717815 0.663119 0.837575 0.666138 0.958912ZM1.97811 1.88595C1.94961 1.96557 1.9427 1.95386 1.57299 2.13938L1.74157 0.955416C2.00095 1.89135 1.99611 1.81986 1.97811 1.88595ZM1.04971 0.871921C1.06468 0.766773 1.11755 0.772156 1.45272 0.603177L1.28624 1.77242C1.02748 0.877338 1.03532 0.927802 1.0434 0.871022L1.04971 0.871921Z" fill="url(#paint0_linear_82_449)"/>
<defs>
<linearGradient id="paint0_linear_82_449" x1="0.620003" y1="1.23771" x2="2.40961" y2="1.49253" gradientUnits="userSpaceOnUse">
<stop stop-color="#FFE6AB"/>
<stop offset="1" stop-color="#FFD778"/>
</linearGradient>
</defs>
</svg>
