<svg width="25" height="24" viewBox="0 0 25 24" fill="none" xmlns="http://www.w3.org/2000/svg">
<path d="M7.9404 22.1535C10.1247 21.2883 12.1774 20.1221 14.039 18.6888C18.4871 15.2108 21.7632 10.8763 24.0604 4.56728C23.9118 4.32679 24.1768 4.75933 22.3046 1.71692C13.3937 -0.039309 14.7017 0.188364 13.9947 0.172992L17.6504 0.890932C18.2458 0.902602 17.504 0.78966 21.1839 1.50861L20.7632 1.50232L21.8159 1.70827L23.5707 4.56579C22.6408 7.24293 21.361 9.78538 19.7646 12.1271C17.7177 15.1471 15.108 17.7443 12.0782 19.7768C10.1524 21.0601 8.0542 22.0636 5.84633 22.757C4.25891 23.2564 2.62018 23.5749 0.961299 23.7065C3.35458 23.5571 5.70959 23.0331 7.9404 22.1535Z" fill="url(#paint0_linear_130_237)"/>
<defs>
<linearGradient id="paint0_linear_130_237" x1="14.4939" y1="0.192894" x2="10.9437" y2="25.1254" gradientUnits="userSpaceOnUse">
<stop stop-color="#9E6100"/>
<stop offset="0.49" stop-color="#642701"/>
<stop offset="0.65" stop-color="#682A01"/>
<stop offset="0.81" stop-color="#753401"/>
<stop offset="0.98" stop-color="#8A4401"/>
<stop offset="1" stop-color="#8C4601"/>
</linearGradient>
</defs>
</svg>
