<svg width="4" height="2" viewBox="0 0 4 2" fill="none" xmlns="http://www.w3.org/2000/svg">
<path d="M3.00081 0.37818C2.99741 0.402066 3.00081 0.37818 3.02034 0.549118C0.201804 1.00319 0.996083 0.867711 0.855177 0.898826C0.817079 0.91042 0.784392 0.935286 0.763059 0.968914C0.741727 1.00254 0.733157 1.0427 0.738902 1.08211L0.787883 1.4912L3.45119 1.0662C3.49056 1.05802 3.52572 1.03606 3.55034 1.00428C3.57497 0.972494 3.58745 0.932965 3.58554 0.8928C3.58894 0.868914 3.5886 0.871302 3.49171 0.14832L3.11743 0.209568C3.08196 0.220632 3.05122 0.243238 3.03008 0.273792C3.00895 0.304346 2.99865 0.341092 3.00081 0.37818Z" fill="url(#paint0_linear_130_635)"/>
<defs>
<linearGradient id="paint0_linear_130_635" x1="0.796018" y1="0.629637" x2="3.56922" y2="1.02451" gradientUnits="userSpaceOnUse">
<stop stop-color="#FFE6AB"/>
<stop offset="1" stop-color="#FFD778"/>
</linearGradient>
</defs>
</svg>
