<svg width="3" height="3" viewBox="0 0 3 3" fill="none" xmlns="http://www.w3.org/2000/svg">
<path d="M2.71661 2.29345C2.71111 2.19518 2.55686 0.659803 2.53907 0.562225C2.51392 0.409435 2.4325 0.271588 2.31085 0.175793C2.18919 0.079997 2.03609 0.0331881 1.88166 0.0445695C1.28217 0.0786237 1.34427 0.0704047 1.22759 0.102532C1.11716 0.146223 1.02202 0.221415 0.953995 0.318757C0.885971 0.416099 0.848065 0.531294 0.844998 0.65001C0.839951 0.805263 1.00752 2.36691 1.01059 2.37953C1.03133 2.54607 1.11164 2.69947 1.23668 2.8114C1.36021 2.91111 1.51728 2.95965 1.67553 2.947C2.27946 2.91602 2.21464 2.92628 2.32893 2.89382C2.44932 2.84844 2.55196 2.76563 2.62175 2.65755C2.69154 2.54947 2.72479 2.42184 2.71661 2.29345ZM1.33976 0.649782C1.39193 0.57435 1.40149 0.592768 1.8703 0.569351L1.42698 1.86855C1.30461 0.639906 1.30021 0.722137 1.33976 0.649782ZM2.2454 2.29946C2.2399 2.33537 2.22041 2.36764 2.19119 2.38922C2.14582 2.41688 2.17141 2.40835 1.69782 2.43108L2.12443 1.14656C2.25941 2.33801 2.25391 2.25681 2.2454 2.29946Z" fill="url(#paint0_linear_130_578)"/>
<defs>
<linearGradient id="paint0_linear_130_578" x1="0.749441" y1="1.35534" x2="2.81561" y2="1.64954" gradientUnits="userSpaceOnUse">
<stop stop-color="#FFE6AB"/>
<stop offset="1" stop-color="#FFD778"/>
</linearGradient>
</defs>
</svg>
