<svg width="4" height="8" viewBox="0 0 4 8" fill="none" xmlns="http://www.w3.org/2000/svg">
<path d="M0.379453 1.76379C0.384641 1.91562 0.293662 1.44206 1.46313 6.97256C1.47958 7.08556 1.52739 7.19168 1.60114 7.27886C1.67489 7.36605 1.77161 7.4308 1.88032 7.46576C2.06663 7.49229 1.96462 7.507 3.54385 6.99344C3.67146 6.94034 3.77955 6.84913 3.85334 6.73225C3.92713 6.61538 3.96301 6.47856 3.95607 6.34052C3.95055 6.19107 4.04562 6.67009 2.85907 1.10548C2.84211 0.993344 2.79387 0.888256 2.7199 0.802287C2.64593 0.716318 2.54922 0.65295 2.44087 0.619446C2.25455 0.592917 2.34122 0.583323 0.78622 1.11496C0.660518 1.16896 0.554253 1.25998 0.481583 1.37589C0.408913 1.49181 0.373288 1.62711 0.379453 1.76379Z" fill="url(#paint0_linear_130_505)"/>
<defs>
<linearGradient id="paint0_linear_130_505" x1="0.0896491" y1="3.74772" x2="4.24109" y2="4.33884" gradientUnits="userSpaceOnUse">
<stop stop-color="#FFE6AB"/>
<stop offset="1" stop-color="#FFD778"/>
</linearGradient>
</defs>
</svg>
