<svg width="5" height="7" viewBox="0 0 5 7" fill="none" xmlns="http://www.w3.org/2000/svg">
<path d="M3.23351 6.34673C3.66222 5.92036 3.54831 6.03574 3.7526 5.83331L4.22004 5.80239C4.59691 5.432 4.68936 5.3818 4.77079 5.11801C4.80973 4.95505 4.80016 4.78426 4.74327 4.62668C4.68315 4.48408 4.92387 4.86442 1.90616 0.299036C1.86289 0.23268 1.8074 0.175155 1.74265 0.129528C1.54776 0.00916962 1.5389 0.0371515 0.661322 0.073039C0.787305 0.0672789 0.910538 0.111066 1.00464 0.195033C1.11421 0.298369 0.873161 -0.0454612 3.8861 4.51925C3.97711 4.65805 4.0229 4.82164 4.01717 4.98753C4.01144 5.15341 3.95448 5.31345 3.8541 5.44565C3.80431 5.50436 2.6495 6.64863 2.56797 6.70769C2.50943 6.74886 2.44219 6.77598 2.37147 6.78695L3.10915 6.74089C3.35618 6.71757 3.41789 6.60938 3.70676 6.32639L3.23351 6.34673Z" fill="url(#paint0_linear_130_304)"/>
<defs>
<linearGradient id="paint0_linear_130_304" x1="3.0509" y1="0.252447" x2="2.1251" y2="6.7543" gradientUnits="userSpaceOnUse">
<stop stop-color="#9E6100"/>
<stop offset="0.49" stop-color="#642701"/>
<stop offset="0.65" stop-color="#682A01"/>
<stop offset="0.81" stop-color="#753401"/>
<stop offset="0.98" stop-color="#8A4401"/>
<stop offset="1" stop-color="#8C4601"/>
</linearGradient>
</defs>
</svg>
